<svg width="45" height="35" viewBox="0 0 45 35" fill="none" xmlns="http://www.w3.org/2000/svg">
<path d="M35.625 0.625H9.375C6.88951 0.627977 4.50667 1.61665 2.74916 3.37416C0.991654 5.13167 0.00297723 7.51451 0 10H45C44.997 7.51451 44.0083 5.13167 42.2508 3.37416C40.4933 1.61665 38.1105 0.627977 35.625 0.625ZM0 25C0.00297723 27.4855 0.991654 29.8683 2.74916 31.6258C4.50667 33.3833 6.88951 34.372 9.375 34.375H35.625C38.1105 34.372 40.4933 33.3833 42.2508 31.6258C44.0083 29.8683 44.997 27.4855 45 25V13.75H0V25ZM13.125 24.0625C13.125 24.6188 12.96 25.1625 12.651 25.625C12.342 26.0876 11.9027 26.448 11.3888 26.6609C10.8749 26.8738 10.3094 26.9295 9.76381 26.821C9.21824 26.7124 8.7171 26.4446 8.32376 26.0512C7.93043 25.6579 7.66256 25.1568 7.55404 24.6112C7.44552 24.0656 7.50122 23.5001 7.71409 22.9862C7.92696 22.4723 8.28745 22.033 8.74996 21.724C9.21247 21.4149 9.75624 21.25 10.3125 21.25C11.0584 21.25 11.7738 21.5463 12.3012 22.0738C12.8287 22.6012 13.125 23.3166 13.125 24.0625Z" fill="#5900B2"/>
</svg>
