<svg width="45" height="43" viewBox="0 0 45 43" fill="none" xmlns="http://www.w3.org/2000/svg">
<path d="M44.3693 9.855L41.9793 8.38993C41.0372 6.53643 39.2261 5.22126 37.1554 4.91599L36.5936 4.83311L36.5811 1.58843C36.5799 1.28275 36.4728 0.986921 36.2779 0.751375C36.0831 0.51583 35.8126 0.355142 35.5125 0.296696C35.2125 0.238189 34.9014 0.285572 34.6324 0.430767C34.3633 0.575962 34.153 0.809977 34.0372 1.09291L32.4022 5.08598C32.3795 5.14146 32.3622 5.19836 32.3473 5.25579C29.4935 6.41647 27.476 9.21952 27.476 12.4852V14.7858C27.476 16.4884 26.0958 17.8685 24.3933 17.8685H23.5109C16.4689 17.8685 10.7398 23.5977 10.7398 30.6397V36.5622C10.7382 37.8222 11.1246 39.0522 11.8465 40.0849H5.2279C3.8022 40.0848 2.64231 38.9249 2.64231 37.4992C2.64231 36.0734 3.8022 34.9136 5.2279 34.9136H5.88575C6.61538 34.9136 7.20691 34.3221 7.20691 33.5925C7.20691 32.8629 6.61538 32.2713 5.88575 32.2713H5.2279C2.34523 32.2713 0 34.6166 0 37.4992C0 40.3819 2.34523 42.7271 5.2279 42.7271L29.6243 42.7279C29.7222 42.7275 29.82 42.7225 29.9175 42.713V40.4724C29.9175 39.2292 28.906 38.2176 27.6627 38.2176H25.6843C24.9547 38.2176 24.3632 37.6261 24.3632 36.8964V31.4811C24.3632 28.4536 21.9002 25.9906 18.8727 25.9906C18.1431 25.9906 17.5516 25.3991 17.5516 24.6695C17.5516 23.9398 18.1431 23.3483 18.8727 23.3483C23.3572 23.3483 27.0055 26.9967 27.0055 31.4811V35.5753H27.6627C30.3629 35.5753 32.5598 37.772 32.5598 40.4724V40.6963L32.5603 40.695C33.1219 41.895 34.3394 42.7266 35.7517 42.7269L37.5139 42.7271C38.9731 42.7271 40.1562 41.5442 40.1562 40.0848C40.1562 38.6255 38.9732 37.4425 37.5139 37.4425V31.3009C39.86 28.3073 41.1481 24.5846 41.1481 20.7761V17.2312L43.7977 15.304C44.0652 15.1094 44.25 14.8217 44.3156 14.4975L44.9738 11.2432C45.0274 10.9777 44.9982 10.7022 44.8901 10.4539C44.782 10.2056 44.6002 9.99653 44.3693 9.855ZM40.21 11.2044C39.9634 11.4502 39.6234 11.5912 39.2755 11.5912C38.9276 11.5912 38.5876 11.4502 38.3411 11.2044C38.0954 10.9578 37.9544 10.6179 37.9544 10.27C37.9544 9.92211 38.0954 9.58205 38.3411 9.33552C38.5877 9.08979 38.9276 8.94886 39.2755 8.94886C39.6234 8.94886 39.9635 9.08979 40.21 9.33552C40.4567 9.58411 40.5956 9.91981 40.5967 10.27C40.5956 10.6202 40.4567 10.9559 40.21 11.2044Z" fill="#5900B2"/>
</svg>
