<svg width="45" height="44" viewBox="0 0 45 44" fill="none" xmlns="http://www.w3.org/2000/svg">
<path d="M15 28.125C16.5533 28.125 17.8125 26.8658 17.8125 25.3125C17.8125 23.7592 16.5533 22.5 15 22.5C13.4467 22.5 12.1875 23.7592 12.1875 25.3125C12.1875 26.8658 13.4467 28.125 15 28.125Z" fill="#5900B2"/>
<path d="M41.7769 20.5556C41.9906 18.7106 42.1875 16.6087 42.1875 15.1631C42.1875 4.8 30.1125 0.9375 22.5 0.9375C17.5613 0.9375 13.9969 3.58687 12.7987 4.61625C9.04875 4.83187 2.8125 7.21875 2.8125 15.1631C2.8125 16.6294 3.0075 18.7219 3.21938 20.5575C2.27031 20.9395 1.45689 21.5961 0.883327 22.4432C0.309768 23.2904 0.00219029 24.2895 0 25.3125C0.00389847 26.608 0.496203 27.8544 1.37865 28.8029C2.2611 29.7513 3.46877 30.3322 4.76062 30.4294C7.30125 37.8037 14.2856 43.125 22.5 43.125C30.7144 43.125 37.6987 37.8056 40.2394 30.4294C41.5312 30.3322 42.7389 29.7513 43.6213 28.8029C44.5038 27.8544 44.9961 26.608 45 25.3125C44.9979 24.2887 44.6899 23.2889 44.1156 22.4413C43.5414 21.5938 42.7269 20.9371 41.7769 20.5556ZM37.8281 28.7381L37.8244 28.7475V28.7531C35.9006 35.4188 29.7656 40.3125 22.5 40.3125C14.5781 40.3125 8.00438 34.4944 6.76687 26.9044L8.63812 20.3587C10.3088 19.8281 14.0513 18.3263 15.69 15.1556C18.2119 17.5387 23.8631 20.4637 36.4388 20.6194L38.235 26.895C38.136 27.5169 38.0002 28.1324 37.8281 28.7381Z" fill="#5900B2"/>
<path d="M30 28.125C31.5533 28.125 32.8125 26.8658 32.8125 25.3125C32.8125 23.7592 31.5533 22.5 30 22.5C28.4467 22.5 27.1875 23.7592 27.1875 25.3125C27.1875 26.8658 28.4467 28.125 30 28.125Z" fill="#5900B2"/>
<path d="M26.2106 32.2687C25.2101 33.2213 23.8815 33.7527 22.5 33.7527C21.1185 33.7527 19.7899 33.2213 18.7894 32.2687C18.5206 32.0097 18.1599 31.868 17.7867 31.8748C17.4134 31.8817 17.0582 32.0365 16.7991 32.3053C16.54 32.5741 16.3983 32.9348 16.4051 33.308C16.412 33.6813 16.5669 34.0365 16.8356 34.2956C18.3975 35.8031 20.4488 36.555 22.5 36.555C24.5513 36.555 26.6025 35.8031 28.1644 34.2956C28.4214 34.0339 28.5662 33.6823 28.568 33.3155C28.5697 32.9487 28.4282 32.5957 28.1737 32.3316C27.9191 32.0675 27.5715 31.9132 27.2049 31.9014C26.8383 31.8897 26.4816 32.0215 26.2106 32.2687Z" fill="#5900B2"/>
</svg>
