<svg width="45" height="45" viewBox="0 0 45 45" fill="none" xmlns="http://www.w3.org/2000/svg">
<g clip-path="url(#clip0_1728_37829)">
<path d="M27.2593 25.9761C27.261 29.156 21.8162 28.7938 20.0812 28.7956V23.1583C21.818 23.1583 27.2593 22.66 27.2593 25.9761ZM45 22.5C45 34.926 34.926 45 22.5 45C10.074 45 0 34.926 0 22.5C0 10.074 10.074 0 22.5 0C34.926 0 45 10.0731 45 22.5ZM28.6462 21.186C30.1307 20.4302 31.0588 19.0978 30.8417 16.8794C30.5499 13.8463 27.9325 12.8303 24.627 12.5402V8.33379H22.0667V12.4295C21.3935 12.4295 20.7053 12.4427 20.0224 12.4567V8.33379H17.4639V12.5394C16.9084 12.5508 16.3644 12.5613 15.8335 12.5613V12.5481L12.3012 12.5473V15.2824C12.3012 15.2824 14.1926 15.2464 14.1609 15.2815C15.198 15.2815 15.5355 15.8836 15.634 16.4039V21.1966C15.7061 21.1966 15.7992 21.2001 15.9047 21.2142H15.634V27.9272C15.5874 28.2533 15.3958 28.7745 14.6716 28.7754C14.7041 28.8044 12.8101 28.7754 12.8101 28.7754L12.3012 31.8331H15.6331C16.2536 31.8331 16.8636 31.8445 17.4621 31.848V36.1028H20.0206V31.8929C20.7229 31.9078 21.4022 31.9131 22.0658 31.9122V36.1028H24.6252V31.856C28.931 31.609 31.9438 30.5244 32.3183 26.4823C32.6206 23.2269 31.0887 21.7749 28.6453 21.1878L28.6462 21.186ZM26.0684 18.0229C26.0684 15.0056 21.5271 15.4652 20.0821 15.4652V20.5778C21.5271 20.5778 26.0675 20.9153 26.0684 18.0229Z" fill="#5900B2"/>
</g>
<defs>
<clipPath id="clip0_1728_37829">
<rect width="45" height="45" fill="white"/>
</clipPath>
</defs>
</svg>
