<svg width="45" height="45" viewBox="0 0 45 45" fill="none" xmlns="http://www.w3.org/2000/svg">
<path d="M2.95432 16.4874C3.19086 17.2984 3.51913 18.0805 3.93428 18.8142L2.75157 20.3059C2.36538 20.7935 2.40882 21.4886 2.84329 21.9279L4.88045 23.9651C5.31975 24.4044 6.01489 24.4429 6.50246 24.0567L7.98447 22.8837C8.74587 23.3222 9.55808 23.6659 10.403 23.9071L10.6251 25.8139C10.6975 26.4318 11.2188 26.8953 11.8367 26.8953H14.7187C15.3366 26.8953 15.858 26.4318 15.9304 25.8139L16.1428 23.9747C17.0503 23.7381 17.9193 23.3857 18.7351 22.9271L20.1688 24.0616C20.6564 24.4478 21.3515 24.4043 21.7908 23.9698L23.828 21.9327C24.2673 21.4934 24.3059 20.7982 23.9197 20.3107L22.8046 18.8962C23.268 18.0949 23.6301 17.2405 23.8714 16.3474L25.59 16.1495C26.2079 16.077 26.6713 15.5557 26.6713 14.9378V12.0558C26.6713 11.4379 26.2079 10.9166 25.59 10.8441L23.8956 10.6462C23.6638 9.76281 23.3163 8.91802 22.8722 8.12632L23.9149 6.80844C24.3011 6.32088 24.2577 5.62573 23.8232 5.18644L21.7909 3.1541C21.3516 2.71481 20.6564 2.67619 20.1689 3.06238L18.8896 4.07614C18.0593 3.58857 17.171 3.21686 16.2394 2.96583L16.0463 1.31004C15.9739 0.692129 15.4525 0.228699 14.8346 0.228699H11.9526C11.3347 0.228699 10.8134 0.692129 10.741 1.31004L10.5479 2.96583C9.59204 3.22169 8.67966 3.60788 7.83004 4.11475L6.50251 3.06238C6.01494 2.67619 5.31979 2.71964 4.8805 3.1541L2.84334 5.19126C2.40404 5.63056 2.36543 6.3257 2.75162 6.81327L3.86192 8.21804C3.4178 9.01939 3.07988 9.87384 2.85782 10.7621L1.08134 10.9648C0.46343 11.0372 0 11.5586 0 12.1765V15.0585C0 15.6764 0.46343 16.1977 1.08134 16.2701L2.95432 16.4874ZM13.396 8.69118C16.0221 8.69118 18.1606 10.8297 18.1606 13.4558C18.1606 16.0819 16.0221 18.2205 13.396 18.2205C10.7699 18.2205 8.63134 16.0819 8.63134 13.4558C8.63134 10.8297 10.7699 8.69118 13.396 8.69118Z" fill="#5900B2"/>
<path d="M41.8873 17.197L40.3666 15.913C39.8984 15.5171 39.2081 15.5364 38.764 15.9564L37.924 16.7433C37.2144 16.4005 36.4614 16.1592 35.6841 16.0192L35.4477 14.8606C35.327 14.262 34.7718 13.8468 34.1635 13.8951L32.1794 14.0641C31.5712 14.1172 31.0933 14.6144 31.0739 15.2275L31.0354 16.4054C30.2726 16.6805 29.5533 17.0571 28.8968 17.5301L27.8927 16.864C27.3809 16.526 26.7003 16.6226 26.3045 17.0908L25.0204 18.6211C24.6245 19.0894 24.6438 19.7797 25.0638 20.2238L25.9424 21.1603C25.6384 21.845 25.4211 22.5651 25.2955 23.3037L24.0404 23.5595C23.4418 23.6802 23.0267 24.2353 23.0749 24.8436L23.2439 26.8277C23.297 27.436 23.7942 27.9139 24.4073 27.9332L25.7638 27.9766C26.0101 28.6235 26.3335 29.2366 26.7245 29.811L25.9666 30.9551C25.6287 31.4668 25.7252 32.1475 26.1934 32.5433L27.7141 33.8274C28.1824 34.2232 28.8726 34.2039 29.3168 33.7839L30.3113 32.8523C30.963 33.1564 31.6484 33.3833 32.3532 33.5184L32.6284 34.8798C32.7491 35.4784 33.3042 35.8935 33.9125 35.8452L35.8966 35.6763C36.5048 35.6232 36.9827 35.126 37.002 34.5129L37.0455 33.1805C37.7696 32.9246 38.455 32.577 39.0874 32.1475L40.1833 32.8716C40.695 33.2095 41.3756 33.1129 41.7715 32.6447L43.0556 31.124C43.4514 30.6558 43.4321 29.9655 43.0121 29.5213L42.1287 28.5849C42.4522 27.8994 42.6888 27.1753 42.8238 26.4318L44.0307 26.1856C44.6293 26.0649 45.0444 25.5098 44.9962 24.9015L44.8272 22.9174C44.7741 22.3092 44.2769 21.8313 43.6638 21.8119L42.4521 21.7733C42.2019 21.0701 41.8628 20.4017 41.4432 19.7844L42.1045 18.79C42.4521 18.2784 42.3556 17.5929 41.8873 17.197ZM34.4097 28.6669C32.2664 28.8504 30.3739 27.2525 30.1954 25.1092C30.0119 22.9658 31.6098 21.0734 33.7531 20.8948C35.8965 20.7113 37.7889 22.3093 37.9675 24.4526C38.151 26.596 36.553 28.4883 34.4097 28.6669ZM9.89614 34.0061C9.28789 34.0688 8.81963 34.5805 8.8148 35.1936L8.80032 36.4149C8.79067 37.028 9.24444 37.5494 9.8527 37.6266L10.7506 37.7425C10.9002 38.288 11.1126 38.8094 11.3878 39.3018L10.8085 40.0162C10.4223 40.4941 10.4513 41.1796 10.8809 41.6189L11.7354 42.4927C12.165 42.932 12.8505 42.9802 13.3381 42.6037L14.0573 42.0485C14.5642 42.3478 15.1001 42.5844 15.66 42.7485L15.7566 43.6754C15.8193 44.2836 16.331 44.7519 16.9441 44.7567L18.1655 44.7712C18.7785 44.7809 19.2999 44.3271 19.3772 43.7188L19.4882 42.8402C20.0965 42.6905 20.6758 42.4637 21.226 42.1644L21.9019 42.7099C22.3798 43.0961 23.0653 43.0671 23.5046 42.6375L24.3784 41.783C24.8177 41.3534 24.866 40.6679 24.4895 40.1803L23.9728 39.5093C24.2914 38.9783 24.5377 38.4135 24.7066 37.8197L25.508 37.7376C26.1162 37.6749 26.5845 37.1632 26.5893 36.5501L26.6038 35.3287C26.6135 34.7157 26.1597 34.1943 25.5514 34.117L24.7694 34.0157C24.6197 33.4267 24.3977 32.8571 24.1081 32.3261L24.5956 31.7275C24.9818 31.2496 24.9528 30.5641 24.5232 30.1248L23.6688 29.251C23.462 29.0387 23.1843 28.91 22.8886 28.8895C22.593 28.869 22.3001 28.9582 22.0661 29.14L21.4819 29.5889C20.9333 29.2565 20.3422 28.9999 19.7248 28.8262L19.6475 28.0683C19.5847 27.46 19.0731 26.9918 18.4599 26.987L17.2386 26.9725C16.6255 26.9628 16.1042 27.4166 16.0269 28.0249L15.9303 28.778C15.2929 28.9425 14.6807 29.1925 14.1105 29.5213L13.507 29.029C13.0291 28.6428 12.3436 28.6718 11.9043 29.1014L11.0257 29.9607C10.8134 30.1674 10.6847 30.4452 10.6642 30.7408C10.6437 31.0365 10.7329 31.3293 10.9147 31.5633L11.4312 32.2296C11.1319 32.7606 10.8954 33.3253 10.7409 33.9192L9.89614 34.0061ZM17.7793 32.6254C19.5316 32.6447 20.9364 34.0881 20.9171 35.8405C20.8978 37.5928 19.4543 38.9975 17.702 38.9783C15.9497 38.959 14.5449 37.5156 14.5642 35.7632C14.5835 34.0109 16.0269 32.6061 17.7793 32.6254Z" fill="#5900B2"/>
</svg>
