<svg width="45" height="43" viewBox="0 0 45 43" fill="none" xmlns="http://www.w3.org/2000/svg">
<path d="M24.3161 16.8205L24.3087 16.8403H13.1904C11.5764 16.8403 10.0741 17.3262 8.82097 18.1587H5.27344C3.81955 18.1587 2.63672 16.9758 2.63672 15.5219C2.63672 14.0681 3.81955 12.8852 5.27344 12.8852H9.22852C9.9566 12.8852 10.5469 12.295 10.5469 11.5669C10.5469 10.8388 9.9566 10.2485 9.22852 10.2485H5.27344C2.36566 10.2485 0 12.6142 0 15.5219C0 18.4297 2.36566 20.7954 5.27344 20.7954H6.33823C5.66147 21.9613 5.27344 23.3148 5.27344 24.7572V41.2739C5.27344 42.002 5.86371 42.5923 6.5918 42.5923H11.8652C12.5933 42.5923 13.1836 42.002 13.1836 41.2739V30.1476L25.2246 31.2291V41.3618C25.2246 42.0899 25.8149 42.6801 26.543 42.6801H31.8164C32.5445 42.6801 33.1348 42.0899 33.1348 41.3618V28.8361L34.7592 20.7136L24.3161 16.8205ZM43.6816 8.93015H39.7035C39.4894 6.91772 37.7861 5.32663 35.688 5.32663H33.4759L32.6687 1.37155C32.4046 0.0778921 30.6025 -0.0629086 30.1414 1.17521L25.2361 14.3495L35.283 18.0948L35.5339 16.8403H38.4082C42.0429 16.8403 45 13.8832 45 10.2485C45 9.52042 44.4097 8.93015 43.6816 8.93015Z" fill="#5900B2"/>
</svg>
