<svg width="47" height="45" viewBox="0 0 47 45" fill="none" xmlns="http://www.w3.org/2000/svg">
<path d="M46.8709 16.9162C46.5339 15.7135 45.7237 14.9618 44.4905 14.7041C43.924 14.5824 43.3361 14.5323 42.7625 14.4464C41.2209 14.2317 39.6722 14.0097 38.1306 13.795C36.3237 13.5444 34.5169 13.3153 32.7172 13.0505C32.2296 12.9789 31.7635 12.7784 31.5198 12.2988C30.7812 10.8599 30.0571 9.4138 29.3257 7.96773C28.2717 5.87737 27.2392 3.7727 26.1637 1.6895C25.5686 0.536934 24.5863 -0.0429261 23.2885 2.64794e-05C22.0982 0.0429791 21.1948 0.61568 20.6499 1.67518C20.0476 2.84206 19.4955 4.02325 18.9291 5.20445C18.42 6.27826 17.8822 7.34492 17.409 8.43305C17.1437 9.03439 16.7924 9.59993 16.5199 10.2013C16.5916 10.3301 16.6131 10.4447 16.4195 10.4733C16.4195 10.5377 16.4124 10.5878 16.3478 10.6165C16.3478 10.6737 16.3407 10.731 16.2761 10.7597V10.7525C15.9965 11.2894 15.7097 11.8191 15.4444 12.3632C15.2006 12.8572 14.7991 13.1077 14.2757 13.1865C12.3254 13.4871 10.368 13.7735 8.4177 14.067C6.58215 14.3462 4.74661 14.6397 2.91106 14.9046C1.68498 15.0835 0.760033 15.6706 0.272467 16.8231C-0.20076 17.9399 -0.0286774 19.0209 0.717013 19.9515C1.58459 21.0253 2.46652 22.0848 3.47033 23.0441C4.10847 23.6526 4.77529 24.2325 5.52098 24.7049C6.51762 25.3349 7.65767 25.4136 8.79054 25.4638C10.1242 25.5282 11.4578 25.4924 12.7915 25.3564C13.7881 25.2562 14.7847 25.1702 15.7742 25.0271C17.6313 24.7622 19.4812 24.4401 21.3167 24.0463C22.299 23.8316 23.2885 23.6526 24.2564 23.3662C24.2923 23.3591 24.3281 23.3519 24.364 23.3376C24.6651 23.2732 24.9663 23.2016 25.2674 23.1586C25.4682 23.13 25.6833 23.13 25.7335 23.4092C25.712 23.4521 25.6833 23.4951 25.6618 23.5309C25.5327 23.6096 25.4037 23.7099 25.2674 23.7671C24.027 24.304 22.8009 24.8481 21.582 25.428C20.6355 25.879 19.7178 26.3801 18.7785 26.8454C17.703 27.3751 16.6848 28.0266 15.6738 28.6709C14.1825 29.6302 12.7628 30.6897 11.4937 31.9281C10.2031 33.1809 9.24943 34.6055 8.89093 36.4238C8.5611 38.0918 8.24562 39.7598 8.03051 41.4421C7.87994 42.5875 8.25279 43.554 9.14188 44.2627C10.2604 45.1575 11.4937 45.1933 12.7484 44.5132C13.7666 43.962 14.7847 43.4251 15.8029 42.8739C17.3301 42.0435 18.8645 41.2417 20.3918 40.4041C21.1805 39.9746 21.9907 39.5808 22.7794 39.1442C23.3745 38.8149 23.9195 38.7791 24.5289 39.1012C25.6618 39.7097 26.8162 40.2824 27.9562 40.8694C30.2076 42.0363 32.4662 43.1817 34.7105 44.3701C35.9365 45.0215 37.4925 44.8425 38.4102 43.9191C39.1774 43.1388 39.5144 42.2511 39.3423 41.1772C39.2204 40.4327 39.0842 39.6882 38.948 38.9509C38.5249 36.6314 38.1019 34.3048 37.686 31.9854C37.557 31.2266 37.4136 30.4677 37.2989 29.7017C37.22 29.1935 37.177 28.6852 37.6215 28.2772C38.7329 27.2463 39.751 26.1224 40.8409 25.07C42.5976 23.3877 44.304 21.6696 46.0392 19.9587C46.8853 19.1211 47.1936 18.0831 46.8709 16.9162Z" fill="#5900B2"/>
</svg>
