<svg width="270" height="203" viewBox="0 0 270 203" fill="none" xmlns="http://www.w3.org/2000/svg">
<path d="M182.2 60.7997C182.5 61.7997 182.7 62.9997 182.2 63.9997C181.7 64.9997 180.5 65.6997 179.5 65.1997C178.5 64.6997 178.7 62.8997 179.9 62.8997C178 65.0997 174.4 65.6997 171.9 64.1997C171.4 63.8997 170.9 63.3997 170.6 62.7997C170.3 62.1997 170.6 61.3997 171.2 61.0997C171.8 60.7997 172.7 61.4997 172.5 62.0997C165.5 63.2997 158.3 60.7997 153.4 55.7997C152.5 54.8997 151.6 53.6997 151.7 52.3997C151.8 51.0997 153.6 50.0997 154.5 51.0997C150 50.9997 145.7 48.3997 143.4 44.5997C142 42.3997 141.7 38.8997 144 37.7997C143.6 38.3997 142.5 37.8997 141.9 37.3997C139.7 35.0997 138.8 31.5997 139.7 28.5997C137.9 28.2997 136.3 27.1997 135.7 25.4997C135.1 23.7997 135.3 21.8997 136.5 20.4997C137 19.9997 137.8 19.4997 138.6 19.5997C139.4 19.6997 139.8 20.9997 139 21.3997C137.6 20.8997 137.1 19.0997 137.3 17.6997C137.6 16.2997 138.6 15.0997 139.5 13.9997C140 13.3997 140.5 12.6997 141.2 12.3997C142 12.0997 142.9 12.2997 143.3 12.8997C143 11.0997 142.9 8.99971 143.9 7.59971C144.9 5.99971 147.6 5.79971 148.4 7.49971C148.4 5.59971 149.9 3.59971 151.9 3.09971C153.8 2.59971 156 3.39971 157.2 4.99971C157.1 1.89971 160.7 -0.400289 163.8 0.0997106C166.9 0.599711 169.2 3.09971 170.9 5.69971C171.9 3.89971 174.3 3.09971 176.2 3.49971C178.1 3.79971 179.9 5.09971 181.4 6.49971C183.3 8.39971 185 11.3997 183.9 13.9997C186.5 13.0997 189.6 13.9997 191.4 16.0997C193.2 18.1997 193.6 21.3997 192.3 23.8997C193.2 22.4997 195.4 22.4997 196.8 23.4997C198.2 24.4997 198.9 26.1997 199.3 27.8997C199.6 29.2997 199.8 30.8997 199.2 32.2997C198.7 33.6997 197 34.7997 195.6 34.0997C195.6 33.1997 196.9 33.0997 197.7 33.4997C199.8 34.3997 201.2 36.8997 200.8 39.1997C200.4 41.4997 198.5 43.4997 196.2 43.6997C197.6 42.7997 199.7 44.2997 199.7 45.9997C199.8 47.6997 198.4 49.0997 196.9 49.8997C195.9 50.3997 194.2 50.1997 194.3 48.9997C196.6 48.8997 198.6 51.4997 198 53.6997C197.4 55.9997 194.4 57.1997 192.5 55.9997C192.9 55.1997 194.3 55.6997 194.4 56.5997C194.5 57.4997 194 58.3997 193.5 59.0997C191.3 61.7997 187.6 63.5997 184.2 62.4997C183.3 62.1997 182.5 61.1997 183.2 60.6997C184.2 61.1997 183.7 62.9997 182.6 63.2997C181.4 63.5997 180.4 62.4997 179.9 61.4997L182.2 60.7997Z" fill="black"/>
<path d="M198.299 195.1C198.299 196.1 198.299 197.2 198.299 198.2C198.299 199.2 198.299 200.3 197.799 201.2C197.499 201.8 196.999 202.3 196.399 202.7H167.399C165.099 201.8 162.899 201 160.599 200.1C157.299 198.8 153.899 197.5 150.599 196.3C150.099 196.1 149.499 195.9 149.099 195.5C148.699 195.1 148.399 194.6 148.299 194.1C148.099 193.2 148.199 192.2 148.299 191.3C148.399 190.4 148.599 189.4 148.699 188.5C149.299 184.2 149.799 179.8 150.299 175.5C152.299 155.2 152.099 134.7 149.799 114.4C149.099 108.3 148.199 102 149.399 95.8996C150.499 90.4996 153.199 85.3996 157.199 81.5996L160.399 78.1996C160.699 78.1996 160.999 78.1996 161.299 78.1996C161.399 78.1996 161.399 78.1996 161.499 78.1996C161.999 78.1996 162.499 78.1996 162.899 78.1996C164.299 78.1996 165.699 78.0996 167.099 77.8996C171.699 77.2996 176.199 75.8996 180.199 73.5996C180.499 73.3996 180.799 73.1996 181.099 73.0996C182.299 72.3996 183.499 71.5996 184.599 70.6996C184.699 70.6996 184.699 70.5996 184.799 70.5996C185.099 70.9996 185.299 71.3996 185.599 71.7996C188.399 76.3996 189.699 81.8996 190.799 87.1996C198.099 122.6 198.799 159 198.299 195.1Z" fill="#6DA8C6"/>
<path d="M250.199 73.4999C250.599 71.1999 250.899 68.8999 251.299 66.4999C251.399 65.7999 251.499 65.1999 251.299 64.4999C250.899 62.9999 249.199 62.1999 247.899 61.2999C245.199 59.2999 244.199 55.2999 245.499 52.1999C245.799 51.5999 246.099 50.9999 246.699 50.6999C247.999 49.9999 249.999 50.9999 250.699 49.3999C250.799 49.1999 250.799 48.9999 250.899 48.7999C251.399 43.8999 249.099 38.7999 250.899 34.1999C250.999 33.9999 251.199 33.6999 251.399 33.5999C252.499 32.7999 253.599 34.4999 253.799 35.8999C254.499 39.8999 255.199 43.9999 255.899 47.9999C256.199 42.7999 257.099 36.7999 260.999 33.6999C261.699 33.0999 262.699 33.6999 262.699 34.5999C262.599 39.2999 262.299 44.3999 259.899 48.3999C260.899 46.8999 260.999 44.9999 261.999 43.4999C262.399 42.9999 262.799 42.3999 263.499 42.3999C264.299 42.2999 265.099 42.7999 265.399 43.5999C265.999 45.0999 265.499 47.3999 264.699 48.6999C265.599 47.5999 266.399 45.9999 267.599 45.3999C267.799 45.2999 267.999 45.2999 268.199 45.2999C269.199 45.2999 269.399 46.2999 269.399 47.0999C269.599 51.3999 268.899 55.7999 267.499 59.7999C266.999 61.1999 266.399 62.5999 265.899 63.8999C264.299 68.0999 263.399 72.5999 263.099 76.9999C263.099 77.5999 262.999 78.1999 262.599 78.5999C262.199 78.9999 261.599 78.9999 260.999 78.9999C257.999 78.9999 254.999 78.5999 252.099 77.7999L250.199 73.4999Z" fill="#CC7748"/>
<path d="M147.6 25.4994C147 34.1994 146.5 42.9994 145.9 51.6994C145.8 53.2994 145.7 55.0994 146.3 56.5994C147.7 60.4994 155.6 61.2994 159.8 61.1994C160 67.1994 160.5 73.1994 161.3 79.0994C167.7 81.1994 175 79.8994 180.4 75.9994C180.7 75.7994 181 75.4994 181.2 75.0994C181.5 74.4994 181.3 73.7994 181.1 73.1994C178.7 65.2994 177.5 57.0994 177.3 48.8994C180.4 49.6994 184.2 47.7994 184.6 44.5994C185 41.3994 180.9 38.4994 178.4 40.4994C178 34.9994 177.6 29.4994 177.2 23.8994L147.6 25.4994Z" fill="#CC7748"/>
<path d="M182.4 38.9998C180.5 41.2998 176.3 39.6998 175.4 36.8998C174.5 34.0998 176 30.9998 178.1 28.8998C176.2 29.5998 174.2 30.2998 172.3 29.7998C170.4 29.2998 168.9 26.8998 170.1 25.1998C167.3 28.0998 162.7 28.9998 159 27.3998C157.4 30.4998 152.8 31.5998 149.9 29.5998C151.1 31.3998 149.9 33.6998 148.6 35.4998C147.7 36.7998 146.4 38.1998 144.8 38.1998C143.2 38.1998 141.9 36.7998 141.6 35.1998C141.3 33.6998 141.6 32.0998 142.1 30.5998C142.8 28.2998 143.5 26.0998 144.4 23.9998C145.3 21.9998 146.3 19.7998 148.2 18.6998C149.9 17.6998 151.9 17.5998 153.9 17.4998C159.7 17.2998 165.4 17.0998 171.2 16.8998C174.1 16.7998 177.1 16.6998 180 17.3998C182.8 18.0998 185.6 19.8998 186.8 22.4998L182.4 38.9998Z" fill="black"/>
<path d="M214.7 202.8H138C138.4 200.6 138.9 198.4 139.5 196.3C139.8 195.3 140.1 194.2 140.4 193.2L140.6 192.8C141.5 193 142.4 193.2 143.3 193.3C145 193.6 146.6 193.9 148.3 194.2C149.7 194.4 151.2 194.6 152.6 194.8C152.9 194.8 153.2 194.9 153.5 194.9C156.5 195.3 159.6 195.6 162.7 195.9C169.7 196.4 176.7 196.6 183.6 196.3C188.5 196.1 193.4 195.7 198.3 195.2C202.8 194.7 207.3 194 211.7 193.1C212.7 195.6 213.5 198.1 214.1 200.6C214.3 201.3 214.5 202 214.7 202.8Z" fill="#E2D5B7"/>
<path d="M173.4 137.699C172.9 142.499 171.7 147.099 171 151.899C170.1 158.199 170.3 164.599 169.6 170.899C168.7 179.499 166.3 187.999 162.7 195.899C162 197.399 161.3 198.799 160.5 200.199C160 201.099 159.5 201.999 159 202.799H133.9C133.7 202.699 133.6 202.499 133.5 202.299C133.5 202.199 133.4 202.199 133.4 202.099C133 201.399 133.1 200.499 133.2 199.699C133.5 197.499 134 195.399 134.8 193.299C135 192.699 135.2 192.199 135.5 191.599C135.7 191.299 135.8 190.899 136 190.599C137.3 187.999 138.9 185.399 139.1 182.499C139.3 179.599 137.9 176.499 139.2 173.899C140.4 171.399 143.6 170.099 145.4 168.099C146.1 167.299 146.5 166.499 146.5 165.399C146.5 162.899 143.9 160.799 144.2 158.199C144.4 156.599 145.8 155.299 146.2 153.799C146.5 152.499 146.3 151.199 146 149.899C146 149.799 146 149.699 145.9 149.599C145.9 149.499 145.8 149.299 145.8 149.199C145.6 148.399 145.5 147.599 145.3 146.799C141.6 130.099 137.6 113.499 133.3 96.9992L134.8 95.3992L138.4 91.5992C140.2 89.6992 142.3 87.9992 144.5 86.4992C148.7 83.7992 154.1 83.8992 156.7 79.5992L160.8 72.1992C160.9 72.1992 160.9 72.2992 161 72.3992C163.6 74.4992 165 76.5992 167.5 77.9992C168.3 78.3992 169.1 78.7992 170.2 78.9992C170.2 79.2992 170.3 79.5992 170.3 79.8992C171.7 91.2992 171.3 103.399 172.8 114.799C173.3 122.499 174.3 130.099 173.4 137.699Z" fill="#F59F18"/>
<path d="M135.2 95.0996C123.6 102.2 120.1 117 118.8 128.5C118 135.8 118.1 143.4 115.3 150.2C114.4 152.3 113.3 154.4 113.1 156.6C112.9 159.2 113.9 161.7 114.9 164C119.7 175.1 131.2 187.3 137.6 197.5C143.9 192.9 149.7 187.8 155.1 182.1C151.1 176.4 147.1 170.8 143.1 165.1C142.4 164.1 141.7 163.1 141.5 161.9C141.3 160.4 141.8 159 142.4 157.6C144.5 152.3 146.7 147 148.8 141.8C149.4 140.3 150 138.8 150.1 137.2C150.1 135.3 149.4 133.6 148.7 131.9C143.8 120.9 136.4 110.2 136.4 98.1996L135.2 95.0996Z" fill="#F59F18"/>
<path d="M215.799 199C215.399 199.7 214.799 200.1 214.099 200.5C214.099 200.5 213.999 200.5 213.999 200.6C212.799 201.4 211.599 202.1 210.299 202.7H183.999C183.799 200.5 183.699 198.4 183.599 196.2C183.499 194.7 183.399 193.3 183.299 191.8C183.299 191.6 183.299 191.5 183.299 191.3C182.099 169.4 181.599 147.5 181.799 125.5C181.899 114.3 182.099 102.4 176.599 92.6C175.899 91.3 175.099 90 175.299 88.6C175.399 87.6 176.099 86.7 176.599 85.9C178.499 83 179.699 79.6 179.999 76.2C180.099 75.4 180.099 74.6 180.199 73.7C180.199 71.1 179.799 68.5 178.899 66C178.899 66 179.099 66.1 179.399 66.3C181.499 67.4 190.199 71.6 204.299 70.8C207.299 70.6 209.399 73 210.899 76.1C212.099 78.7 212.899 81.7 213.299 84.3C214.199 89.8 213.399 95.5 212.899 101C211.999 110.3 211.699 119.6 211.799 129C212.099 151.3 214.799 173.7 216.299 196.1C216.299 197 216.299 198.1 215.799 199Z" fill="#F59F18"/>
<path d="M204.799 70.9C211.799 76.2 217.799 82.8 222.199 90.4C223.199 92.1 224.299 94 225.999 95C227.799 96 227.899 95.4 229.899 95.7C231.899 96 233.799 94.8 236.699 96.9C245.599 88.9 244.799 82.3 246.799 70.5C250.699 72 261.099 71.1 265.199 71C266.099 82.9 266.299 95.1 262.599 106.5C258.999 117.9 250.299 123.7 238.999 127.6C226.599 131.9 213.099 132.3 202.799 124.2C202.299 123.8 201.799 123.4 201.499 122.8C201.199 122.2 201.199 121.4 201.199 120.7C201.599 108 201.899 95.3 202.299 82.6L204.799 70.9Z" fill="#F59F18"/>
<path d="M181.3 42.9998C180.4 43.5998 179.5 44.1998 178.6 44.7998C178.4 44.8998 178.1 44.7998 177.9 44.5998C177.8 44.3998 177.8 44.0998 178.1 43.8998C179 43.2998 179.9 42.6998 180.8 42.0998C181 41.9998 181.3 42.0998 181.5 42.2998C181.6 42.5998 181.5 42.8998 181.3 42.9998Z" fill="#561E1C"/>
<path d="M180.001 45.3002C179.501 45.0002 179.101 44.7002 178.601 44.4002C178.401 44.3002 178.301 44.0002 178.401 43.7002C178.501 43.5002 178.801 43.4002 179.101 43.5002C179.601 43.8002 180.001 44.1002 180.501 44.4002C180.701 44.5002 180.801 44.8002 180.701 45.1002C180.501 45.3002 180.201 45.4002 180.001 45.3002Z" fill="#561E1C"/>
<path opacity="0.53" d="M159.799 61.2002L170.099 61.4002L160.199 67.2002L159.799 61.2002Z" fill="#561E1C"/>
<path d="M249.199 49.9999C251.999 49.6999 254.999 50.0999 257.699 50.9999C258.199 51.1999 258.899 51.3999 259.199 51.8999C259.499 52.3999 259.299 53.0999 258.799 53.4999C257.999 54.2999 256.799 54.6999 255.599 54.7999C254.199 54.8999 252.799 54.6999 251.499 54.4999C251.599 54.1999 251.699 53.8999 251.899 53.5999C254.999 55.5999 257.299 58.8999 258.099 62.4999C258.199 63.0999 257.299 63.3999 257.199 62.7999C256.499 59.3999 254.399 56.2999 251.499 54.4999C250.999 54.1999 251.299 53.4999 251.899 53.5999C253.199 53.7999 254.499 53.9999 255.799 53.8999C256.399 53.7999 256.999 53.6999 257.499 53.3999C257.799 53.2999 258.099 53.0999 258.299 52.8999C258.499 52.6999 258.599 52.4999 258.299 52.2999C257.699 51.9999 256.899 51.7999 256.199 51.5999C255.499 51.3999 254.799 51.2999 253.999 51.1999C252.499 50.9999 250.899 50.9999 249.399 51.0999C248.599 51.0999 248.599 50.0999 249.199 49.9999Z" fill="#561E1C"/>
<path d="M268.699 49.0998C267.999 51.0998 266.899 52.8998 265.399 54.2998C265.199 54.4998 264.799 54.4998 264.599 54.1998C263.399 52.4998 263.499 50.0998 264.699 48.4998C264.899 48.6998 265.099 48.8998 265.399 49.1998C264.799 49.5998 264.599 50.4998 264.299 51.1998C264.099 51.8998 263.799 52.7998 263.099 53.1998C262.199 53.7998 261.099 53.3998 260.499 52.4998C259.699 51.3998 260.099 49.8998 260.399 48.5998C260.699 46.8998 261.099 45.1998 261.399 43.4998C261.499 42.8998 262.499 43.0998 262.299 43.7998C261.999 45.0998 261.799 46.4998 261.499 47.7998C261.399 48.3998 261.199 49.0998 261.099 49.6998C260.999 50.2998 260.899 50.9998 260.999 51.5998C261.199 52.2998 262.099 52.9998 262.699 52.2998C263.099 51.7998 263.299 51.0998 263.499 50.4998C263.799 49.6998 264.099 48.8998 264.799 48.3998C265.199 48.0998 265.699 48.6998 265.499 49.0998C264.499 50.4998 264.399 52.3998 265.399 53.7998C265.099 53.7998 264.899 53.6998 264.599 53.6998C265.999 52.3998 266.999 50.6998 267.599 48.8998C267.999 48.2998 268.899 48.4998 268.699 49.0998Z" fill="#561E1C"/>
<path d="M263.799 56.4998C261.499 57.3998 259.799 59.7998 259.699 62.1998C259.699 62.7998 258.699 62.7998 258.699 62.1998C258.899 59.2998 260.799 56.5998 263.499 55.5998C263.699 55.4998 263.999 55.6998 264.099 55.8998C264.199 56.1998 264.099 56.3998 263.799 56.4998Z" fill="#561E1C"/>
<path d="M159 38.8998C160.6 42.5998 159.4 47.1998 156.2 49.6998C156.2 49.3998 156.3 49.1998 156.3 48.8998C157.9 50.2998 160.2 50.8998 162.3 50.4998C162.9 50.3998 163.2 51.2998 162.6 51.3998C160.1 51.8998 157.6 51.1998 155.7 49.5998C155.4 49.3998 155.6 48.9998 155.8 48.7998C158.6 46.6998 159.6 42.5998 158.2 39.3998C158 38.7998 158.8 38.2998 159 38.8998Z" fill="#561E1C"/>
<path d="M171.7 43.4997C171.8 42.3997 170.9 41.1997 169.8 41.0997C168.7 40.8997 167.6 41.6997 167.3 42.7997C167.1 43.3997 166.2 43.0997 166.4 42.4997C166.8 40.9997 168.4 39.8997 170 40.0997C171.6 40.2997 172.8 41.8997 172.7 43.4997C172.6 44.0997 171.6 44.0997 171.7 43.4997Z" fill="black"/>
<path d="M154.2 44.4001C154.3 43.3001 153.4 42.1001 152.3 42.0001C151.2 41.8001 150.1 42.6001 149.8 43.7001C149.6 44.3001 148.7 44.0001 148.9 43.4001C149.3 41.9001 150.9 40.8001 152.5 41.0001C154.1 41.2001 155.3 42.8001 155.2 44.4001C155.1 45.0001 154.1 45.0001 154.2 44.4001Z" fill="black"/>
<path d="M165.199 34.2995C164.899 34.7995 165.499 35.3995 166.099 35.6995C166.999 36.0995 167.999 36.4995 168.899 36.7995C169.899 37.0995 170.999 37.3995 171.999 36.7995C172.599 36.3995 172.999 35.6995 172.799 35.0995C172.599 34.3995 171.899 34.0995 171.299 33.8995C170.099 33.4995 168.899 33.1995 167.699 32.9995C166.599 32.7995 165.599 33.3995 165.199 34.2995Z" fill="black"/>
<path d="M156.699 34.5993C156.999 35.0993 156.399 35.6993 155.799 35.9993C154.899 36.3993 153.899 36.7993 152.999 37.0993C151.999 37.3993 150.899 37.6993 149.899 37.0993C149.299 36.6993 148.899 35.9993 149.099 35.3993C149.299 34.6993 149.999 34.3993 150.599 34.1993C151.799 33.7993 152.999 33.4993 154.199 33.2993C155.299 33.0993 156.299 33.6993 156.699 34.5993Z" fill="black"/>
<path d="M177.2 38.3994C178 38.8994 178.3 39.9994 177.9 40.7994C177.5 41.5994 176.4 41.9994 175.5 41.5994C176.5 42.6994 178.4 42.4994 179.4 41.4994C180.5 40.4994 180.7 38.7994 180.3 37.3994L177.2 38.3994Z" fill="black"/>
<path d="M166.5 51C165.9 52.8 164.3 54.1 162.4 54.3C162.1 54.3 161.9 54.1 161.9 53.8C161.9 53.5 162.1 53.3 162.4 53.3C162.3 53.3 162.5 53.3 162.5 53.3C162.6 53.3 162.6 53.3 162.7 53.3C162.8 53.3 162.9 53.3 163 53.2C163.2 53.2 163.4 53.1 163.5 53C163.8 52.9 164.2 52.6 164.4 52.4C164.5 52.3 164.7 52.1 164.8 52C164.9 51.9 165 51.8 165.1 51.6C165.3 51.3 165.5 50.9 165.6 50.6C165.7 50.4 165.9 50.2 166.2 50.3C166.4 50.4 166.6 50.7 166.5 51Z" fill="#561E1C"/>
<path d="M140.9 92.5C142.7 100 144.5 107.6 145.7 115.2C146.9 122.8 147.5 130.4 147.1 138.1C146.9 142.4 146.2 146.7 145.3 150.9C145.2 151.5 144.2 151.3 144.4 150.6C145.2 146.9 145.8 143.1 146.1 139.3C146.4 135.5 146.4 131.8 146.2 128C145.8 120.4 144.5 112.8 143 105.3C142.1 101.1 141.1 96.9 140.1 92.7C139.8 92.1 140.7 91.9 140.9 92.5Z" fill="#B77115"/>
<path d="M141.7 162.899C138.4 159.999 134.3 157.999 130 157.299C129.4 157.199 129.6 156.299 130.3 156.399C134.8 157.199 139 159.199 142.5 162.299C142.9 162.599 142.2 163.299 141.7 162.899Z" fill="#B77115"/>
<path d="M141.4 165.6C138.5 163.8 135.5 162.4 132.2 161.5C131.6 161.3 131.9 160.4 132.5 160.6C135.8 161.6 139 163 141.9 164.8C142.4 165.1 141.9 165.9 141.4 165.6Z" fill="#B77115"/>
<path d="M148.601 169.5C148.801 176.3 146.501 183.1 142.201 188.4C141.001 189.9 139.601 191.3 138.101 192.5C137.601 192.9 136.901 192.2 137.401 191.8C142.601 187.6 146.101 181.6 147.201 175.1C147.501 173.3 147.701 171.4 147.601 169.5C147.701 168.9 148.601 168.9 148.601 169.5Z" fill="#B77115"/>
<path d="M185.6 70.7993C185.5 77.4993 183.5 83.9993 179.9 89.5993C179.9 89.3993 179.9 89.2993 179.9 89.0993C182.8 94.9993 184.9 101.299 186.3 107.799C187.7 114.499 188.1 121.299 188.1 128.199C188.2 142.499 188 156.899 187.9 171.199C187.9 179.199 187.8 187.299 187.8 195.299C187.8 195.899 186.8 195.899 186.8 195.299C186.8 186.699 186.9 178.099 186.9 169.399C186.9 160.799 187 152.199 187 143.699C187 135.199 187.4 126.499 186.7 117.999C186.1 109.999 184.2 102.199 181.3 94.6993C180.9 93.6993 180.5 92.7993 180.1 91.8993C179.9 91.3993 179.7 90.9993 179.5 90.4993C179.3 90.1993 179 89.6993 179 89.2993C179 88.9993 179.4 88.4993 179.6 88.1993C179.8 87.7993 180.1 87.3993 180.3 86.9993C180.8 86.1993 181.2 85.2993 181.6 84.4993C183.2 80.9993 184.2 77.2993 184.6 73.4993C184.7 72.5993 184.7 71.5993 184.8 70.6993C184.6 70.1993 185.6 70.1993 185.6 70.7993Z" fill="#B77115"/>
<path d="M159.999 75.5001C162.499 78.4001 165.499 80.8001 168.699 82.8001C168.899 82.9001 168.999 83.1001 168.899 83.3001C167.599 90.9001 167.199 98.6001 167.799 106.3C168.399 113.9 169.999 121.3 170.099 128.9C170.199 136.6 168.199 144 166.499 151.5C164.799 159 163.099 166.4 161.399 173.9C159.699 181.2 157.799 188.7 153.399 194.9C152.999 195.4 152.199 194.9 152.599 194.4C156.499 188.8 158.399 182.2 159.999 175.6C161.699 168.3 163.399 160.9 164.999 153.6C165.899 149.9 166.699 146.1 167.499 142.4C168.299 138.7 168.899 134.9 168.999 131.1C169.199 123.5 167.699 116 166.899 108.5C166.099 100 166.399 91.5001 167.799 83.1001C167.899 83.3001 167.899 83.5001 167.999 83.6001C164.699 81.6001 161.699 79.1001 159.099 76.2001C158.899 75.7001 159.599 75.0001 159.999 75.5001Z" fill="#B77115"/>
<path d="M207.9 75.7996C207.1 82.2996 206.7 88.8995 206.7 95.4995C206.7 102.1 207.1 108.6 207.9 115.2C208.4 118.9 209 122.6 209.7 126.2C209.8 126.8 208.9 127.1 208.8 126.5C207.5 120 206.6 113.5 206.2 106.9C205.7 100.3 205.7 93.6995 206 87.0995C206.2 83.3995 206.5 79.5995 207 75.8995C207 75.1995 208 75.1996 207.9 75.7996Z" fill="#B77115"/>
<path d="M209.499 105.5C208.699 110.3 208.499 115.1 208.899 119.9C208.999 120.5 207.999 120.5 207.899 119.9C207.399 115 207.699 110 208.499 105.2C208.699 104.6 209.599 104.9 209.499 105.5Z" fill="#B77115"/>
<path d="M200.9 167.7C200.5 169.3 200.8 171 201.3 172.5C201.8 174.1 202.4 175.6 203 177.1C204.2 180.1 205.6 183 207.2 185.8C208.1 187.4 209.1 189 210.1 190.5C210.4 191 209.6 191.5 209.3 191C205.6 185.4 202.6 179.3 200.5 172.9C199.9 171.1 199.5 169.2 200 167.3C200.1 166.9 201 167.1 200.9 167.7Z" fill="#B77115"/>
<path d="M236.799 98.4995C236.099 104.799 235.199 111.099 234.099 117.299C233.999 117.899 233.099 117.699 233.199 116.999C234.299 110.799 235.199 104.599 235.899 98.3995C235.899 97.8995 236.799 97.8995 236.799 98.4995Z" fill="#B77115"/>
<path d="M234.7 99.1C232.9 103.1 231.5 107.2 230.4 111.5C230.2 112.1 229.3 111.8 229.5 111.2C230.6 106.9 232.1 102.6 233.9 98.6C234.1 98 235 98.5 234.7 99.1Z" fill="#B77115"/>
<path d="M226 96.7999C225.8 99.2999 225.3 101.8 224.7 104.2C224.5 104.8 223.6 104.5 223.8 103.9C224.4 101.5 224.8 99.1999 225.1 96.6999C225.1 96.0999 226.1 96.0999 226 96.7999Z" fill="#B77115"/>
<path d="M223.599 95.5001C223.099 98.2001 222.599 101 222.099 103.7C221.999 104.3 221.099 104.1 221.199 103.4C221.699 100.7 222.199 97.9001 222.699 95.2001C222.799 94.6001 223.699 94.9001 223.599 95.5001Z" fill="#B77115"/>
<path d="M264.199 78.7998C258.499 79.0998 252.699 79.3998 246.999 79.6998C246.399 79.6998 246.399 78.7998 246.999 78.6998C252.699 78.3998 258.499 78.0998 264.199 77.7998C264.799 77.7998 264.799 78.6998 264.199 78.7998Z" fill="#B77115"/>
<path d="M176.8 83.0994C175.5 83.9994 173.9 84.2994 172.3 83.9994C172 83.9994 171.9 83.5994 172 83.3994C172.1 83.0994 172.3 82.9994 172.6 83.0994C173.9 83.2994 175.2 82.9994 176.3 82.1994C176.5 82.0994 176.8 82.1994 177 82.3994C177.1 82.6994 177 82.8994 176.8 83.0994Z" fill="#1B4B5E"/>
<path d="M180.199 121.799C180.199 124.099 180.199 126.299 180.199 128.599C180.199 129.199 179.199 129.199 179.199 128.599C179.199 126.299 179.199 124.099 179.199 121.799C179.199 121.099 180.199 121.099 180.199 121.799Z" fill="#1B4B5E"/>
<path d="M177.3 119.7C176.9 120.6 176.8 121.6 177 122.5C177.1 122.7 176.9 123 176.7 123.1C176.5 123.2 176.2 123 176.1 122.8C175.8 121.6 176 120.3 176.5 119.2C176.6 119 176.9 118.9 177.2 119C177.4 119.2 177.4 119.5 177.3 119.7Z" fill="#1B4B5E"/>
<path d="M177.4 138.6C177.2 139.8 177.1 141 176.9 142.2C176.9 142.5 176.7 142.7 176.4 142.7C176.2 142.7 175.9 142.5 175.9 142.2C176.1 141 176.2 139.8 176.4 138.6C176.4 138.3 176.6 138.1 176.9 138.1C177.1 138.1 177.4 138.3 177.4 138.6Z" fill="#1B4B5E"/>
<path d="M183.099 192.1C178.199 193.1 173.199 193.1 168.199 192.2C167.599 192.1 167.799 191.2 168.499 191.3C173.199 192.2 178.099 192.1 182.799 191.2C183.399 191 183.699 192 183.099 192.1Z" fill="#1B4B5E"/>
<path d="M253.299 34.7002C254.999 39.5002 255.899 44.5002 256.099 49.5002C256.099 50.1002 255.199 50.1002 255.099 49.5002C254.899 44.5002 253.999 39.6002 252.399 34.9002C252.099 34.3002 253.099 34.1002 253.299 34.7002Z" fill="#561E1C"/>
<path d="M135.3 191.6C135.2 192.4 135.1 193.1 135 193.8C134.6 196.6 134 199.3 133.3 202C133.2 202.2 133.2 202.4 133.1 202.6H120.4C119.8 191.4 118.2 180.3 117.5 169.1C117.5 168.5 117.4 167.9 117.4 167.4C117.3 166.5 117.3 165.6 117.3 164.8C117.2 162.4 117.1 159.9 117.1 157.5C117.1 147 118.4 136.5 119.7 126C120.1 122.7 120.6 119.2 121.2 115.9C122.6 108.5 125 101.3 130.2 96L130.6 96.2C130.8 96.9 131 97.5 131.2 98.2C134.4 110.4 132.7 123.4 132.9 136.1C133 143.1 133.7 150.3 134.4 157.4C134.4 157.8 134.5 158.1 134.5 158.5C134.6 159.4 134.7 160.4 134.8 161.3C134.8 161.7 134.9 162 134.9 162.4C135.7 172.2 136.4 182 135.3 191.6Z" fill="#FED5B7"/>
<path d="M94.2992 26.3001C102.999 26.2001 110.699 34.5001 109.299 42.6001C117.099 44.1001 122.199 53.1001 119.099 60.0001C126.499 60.9001 131.899 69.1001 129.299 75.7001C129.099 76.1001 128.899 76.5001 128.599 76.8001C128.099 77.1001 127.499 77.2001 126.899 77.2001C124.799 77.2001 122.599 77.2001 120.599 76.5001C118.599 75.7001 116.999 73.9001 117.099 71.9001L115.599 76.0001C111.699 75.9001 111.999 75.9001 108.099 75.8001L106.399 69.9001C105.699 71.6001 105.299 73.4001 105.299 75.2001C91.2992 75.0001 77.0992 74.9001 62.9992 75.0001L60.9992 70.9001L58.8992 75.6001C54.4992 75.3001 54.4992 75.3001 50.0992 75.0001C49.1992 71.8001 48.6992 68.3001 49.6992 65.1001C50.6992 61.8001 53.3992 58.8001 56.8992 58.1001C55.8992 53.8001 54.9992 49.2001 56.2992 44.9001C57.5992 40.6001 61.6992 36.8001 66.3992 37.0001C66.3992 31.7001 67.3992 29.1001 72.2992 26.3001C77.0992 23.5001 94.2992 26.3001 94.2992 26.3001Z" fill="#DC4345"/>
<path d="M51.9997 97.8C54.4997 103.9 56.3997 110.3 57.6997 116.7C57.9997 118.1 58.1997 119.6 57.8997 121C57.5997 122.3 44.7997 146.6 36.9997 153.5C32.5997 157.4 23.4997 162.8 18.1997 160.3C12.8997 157.8 10.8997 146.2 10.2997 140.4C9.19966 131 9.79966 108.2 9.19966 107.3C8.49966 106.2 7.29966 105.5 6.39966 104.5C4.79966 102.8 4.19966 100.3 3.69966 98C2.49966 92.4 1.19966 86.6 -0.000339117 80.8C-0.200339 79.7 1.29966 79.1 1.89966 80.1C3.49966 82.8 4.79966 85.7 5.69966 88.7C4.29966 84.3 3.49966 79.8 3.29966 75.2C3.19966 74 4.89966 73.7 5.29966 74.8C6.69966 79 7.99966 83.3 8.99966 87.7C7.29966 83.2 6.29966 78.5 5.89966 73.8C5.79966 72.6 7.49966 72.3 7.89966 73.4L13.6997 89.4L11.5997 77.6C11.5997 76.7 12.9997 76.6 13.1997 77.5L18.5997 94.3C19.2997 92.5 19.9997 90 20.5997 87.4C20.8997 86.1 22.7997 86.4 22.7997 87.7C22.7997 90.2 22.6997 92.6 22.6997 94.4C22.5997 98 20.8997 104.2 17.2997 104.5L26.9997 134.7L48.5997 96.8L51.9997 97.8Z" fill="#FED5B7"/>
<path d="M80.3 84.7C80.4 80.5 80.3 76 80.1 75.6C79.6 74.7 71.9 74.4 70 72.2C67.7 69.5 67.8 65.6 68 62.1C68.6 52.7 69.2 43.4 69.7 34L101.6 40.5C101.3 46.4 101 52.2 100.7 58.1C102.1 57.5 103.9 58.1 104.9 59.4C105.9 60.6 106.1 62.3 106 63.9C105.8 65.8 105 67.8 103.3 68.6C101.6 69.4 99 68.3 99 66.4C98.9 71.7 98.8 78.5 98.7 83.8C98.7 83.8 105.6 84.1 109 86.4C104 91.8 96.7 97.8 89.4 98.2C82.1 98.6 71.1 94.1 65.5 89.3C65.6 89.3 75.8 85.6 80.3 84.7Z" fill="#FED5B7"/>
<path d="M103.099 60.8002C101.999 61.6002 101.199 62.8002 100.899 64.0002C100.799 64.2002 100.599 64.4002 100.299 64.3002C100.099 64.2002 99.8993 64.0002 99.9993 63.7002C100.499 62.2002 101.399 60.9002 102.699 59.9002C102.899 59.7002 103.199 59.9002 103.399 60.1002C103.399 60.4002 103.299 60.7002 103.099 60.8002Z" fill="#7F4924"/>
<path d="M103.299 63.3996C102.599 63.1996 101.999 62.9996 101.299 62.7996C101.099 62.6996 100.899 62.4996 100.999 62.1996C101.099 61.9996 101.299 61.7996 101.599 61.8996C102.299 62.0996 102.899 62.2996 103.599 62.4996C103.799 62.5996 103.999 62.7996 103.899 63.0996C103.799 63.2996 103.499 63.4996 103.299 63.3996Z" fill="#7F4924"/>
<path opacity="0.53" d="M80.0996 75.6006L90.4996 76.6006L80.3996 80.3006L80.0996 75.6006Z" fill="#7F4924"/>
<path d="M6.99991 76.2004C8.29991 80.7004 9.29991 85.3004 9.89991 89.9004C9.99991 90.5004 8.99991 90.5004 8.89991 89.9004C8.29991 85.3004 7.39991 80.8004 5.99991 76.5004C5.89991 75.9004 6.79991 75.7004 6.99991 76.2004Z" fill="#7F4924"/>
<path d="M15.0992 89.2C11.8992 90.1 8.79921 91 5.79921 92C5.19921 92.2 4.99921 91.3 5.49921 91.1C8.59921 90.1 11.6992 89.2 14.7992 88.4C15.3992 88.2 15.6992 89.1 15.0992 89.2Z" fill="#7F4924"/>
<path d="M5.89965 85.8002C6.39965 87.3002 6.69965 88.9002 6.79965 90.6002C6.79965 91.2002 5.89965 91.2002 5.79965 90.6002C5.69965 89.1002 5.39965 87.6002 4.89965 86.1002C4.79965 85.9002 4.99965 85.6002 5.19965 85.5002C5.49965 85.4002 5.79965 85.6002 5.89965 85.8002Z" fill="#7F4924"/>
<path d="M7.9 93.2002C8 94.3002 8.5 95.4002 9.1 96.4002C9.7 97.5002 10.3 98.6002 10.8 99.7002C11.1 100.2 10.3 100.7 10 100.2C9.4 99.0002 8.8 97.9002 8.2 96.7002C7.6 95.6002 7.2 94.5002 7 93.2002C7 92.9002 7.2 92.7002 7.5 92.7002C7.7 92.7002 7.9 92.9002 7.9 93.2002Z" fill="#7F4924"/>
<path d="M15.4992 107.8C14.6992 107.8 13.9992 107.8 13.1992 107.8C12.8992 107.8 12.6992 107.6 12.6992 107.3C12.6992 107 12.8992 106.8 13.1992 106.8C13.9992 106.8 14.6992 106.8 15.4992 106.8C15.7992 106.8 15.9992 107 15.9992 107.3C15.9992 107.6 15.7992 107.8 15.4992 107.8Z" fill="#7F4924"/>
<path d="M27.2 135.8C25.6 139.6 24.3 143.6 23.4 147.6C23.3 148.2 22.3 147.9 22.5 147.3C23.5 143.3 24.8 139.3 26.3 135.5C26.5 135 27.5 135.2 27.2 135.8Z" fill="#7F4924"/>
<path d="M17.9994 94.2002C15.1994 96.1002 13.8994 99.8002 14.8994 103C15.0994 103.6 14.0994 103.9 13.9994 103.3C12.8994 99.7003 14.4994 95.6002 17.5994 93.5002C17.9994 93.0002 18.4994 93.8002 17.9994 94.2002Z" fill="#7F4924"/>
<path d="M100.7 58.1004C97.7995 57.3004 97.8995 54.7004 97.1995 51.8004C96.5995 48.9004 97.0995 45.9004 97.4995 42.9004C96.1995 43.8004 94.7995 44.6004 93.1995 44.7004C91.5995 44.7004 89.8995 43.6004 89.8995 42.0004C89.5995 43.1004 88.4995 43.9004 87.3995 43.8004C86.2995 43.7004 85.2995 42.8004 85.0995 41.7004C84.1995 42.8004 82.6995 43.3004 81.3995 42.9004C80.0995 42.5004 78.9995 41.4004 78.7995 40.0004C78.1995 41.0004 76.9995 41.5004 75.8995 41.3004C74.7995 41.1004 73.8995 40.1004 73.7995 39.0004C72.8995 40.5004 70.4995 40.9004 69.1995 39.7004C67.3995 38.1004 67.9995 35.1004 69.1995 33.0004C69.6995 32.1004 70.1995 31.3004 71.0995 30.7004C72.5995 29.7004 74.4995 29.7004 76.2995 29.9004C85.1995 30.6004 93.9995 32.2004 102.6 34.7004C103.1 34.8004 103.6 35.0004 104 35.4004C104.4 35.9004 104.4 36.5004 104.4 37.1004C104.5 42.0004 104.5 46.9004 104.6 51.8004L100.7 58.1004Z" fill="#DC4345"/>
<path d="M89.3994 54.1006C89.3994 55.2006 90.0994 56.1006 90.9994 56.1006C91.8994 56.1006 92.5994 55.2006 92.5994 54.1006C92.5994 53.0006 91.8994 52.1006 90.9994 52.1006C90.0994 52.1006 89.3994 53.0006 89.3994 54.1006Z" fill="black"/>
<path d="M73.8994 53.7998C73.8994 54.8998 74.5994 55.7998 75.4994 55.7998C76.3994 55.7998 77.0994 54.8998 77.0994 53.7998C77.0994 52.6998 76.3994 51.7998 75.4994 51.7998C74.6994 51.7998 73.8994 52.6998 73.8994 53.7998Z" fill="black"/>
<path d="M81.7993 52.3002C82.6993 55.3002 80.1993 58.7002 77.0993 58.9002C77.2993 58.7002 77.3993 58.5002 77.5993 58.3002C77.9993 59.6002 78.4993 60.9002 78.8993 62.2002C79.0993 62.8002 78.1993 63.0002 77.9993 62.5002C77.5993 61.2002 77.0993 59.9002 76.6993 58.6002C76.5993 58.3002 76.8993 58.0002 77.1993 58.0002C79.6993 57.9002 81.6993 55.1002 80.9993 52.7002C80.6993 52.0002 81.5993 51.7002 81.7993 52.3002Z" fill="#7F4924"/>
<path d="M86.9998 63.8002C85.6998 65.7002 82.9998 66.6002 80.8998 65.7002C80.6998 65.6002 80.4998 65.4002 80.5998 65.1002C80.6998 64.9002 80.9998 64.7002 81.1998 64.8002C82.8998 65.5002 85.0998 65.0002 86.1998 63.4002C86.4998 62.8002 87.3998 63.3002 86.9998 63.8002Z" fill="#7F4924"/>
<path d="M87.3001 46.5004C87.2001 47.3004 87.2001 48.1004 87.4001 48.9004C89.6001 49.0004 91.8001 49.6004 93.8001 50.6004C92.8001 48.3004 90.4001 46.7004 87.9001 46.4004L87.3001 46.5004Z" fill="#DC4345"/>
<path d="M77 46.5004C77.1 47.3004 77.1 48.1004 76.9 48.9004C74.7 49.0004 72.5 49.6004 70.5 50.6004C71.5 48.3004 73.9 46.7004 76.4 46.4004L77 46.5004Z" fill="#DC4345"/>
<path d="M99.2998 36.9003C98.1998 39.0003 96.5998 41.6003 93.9998 41.7003C92.6998 41.7003 91.4998 41.0003 90.6998 39.9003C89.9998 38.8003 89.8998 37.4003 90.2998 36.2003C90.6998 35.3003 91.8998 33.3003 93.1998 34.1003C94.2998 34.8003 93.4998 36.4003 92.9998 37.2003C91.4998 39.3003 88.5998 40.6003 86.1998 39.1003C84.9998 38.4003 84.2998 37.1003 84.5998 35.7003C84.7998 34.4003 85.6998 33.2003 86.9998 33.0003C87.2998 32.9003 87.5998 33.1003 87.5998 33.5003C87.3998 35.6003 85.5998 37.3003 83.5998 37.7003C81.7998 38.0003 79.8998 37.2003 79.3998 35.3003C79.1998 34.5003 79.2998 33.7003 79.5998 32.9003C79.8998 32.3003 80.7998 31.3003 81.5998 31.7003C82.4998 32.1003 82.0998 33.3003 81.5998 33.9003C80.9998 34.7003 80.1998 35.2003 79.1998 35.6003C77.9998 36.1003 76.7998 36.3003 75.4998 36.5003C73.9998 36.7003 72.4998 36.9003 70.9998 36.9003C70.3998 36.9003 70.3998 35.9003 70.9998 35.9003C72.9998 35.8003 75.0998 35.6003 77.0998 35.2003C78.4998 34.9003 80.0998 34.4003 80.8998 33.1003C80.9998 33.0003 80.9998 32.9003 80.9998 32.7003V32.6003C80.9998 32.4003 80.8998 32.7003 81.0998 32.6003C80.8998 32.8003 80.6998 32.9003 80.4998 33.1003C80.1998 33.6003 80.0998 34.2003 80.1998 34.7003C80.3998 36.1003 81.4998 36.8003 82.8998 36.8003C84.5998 36.7003 86.3998 35.3003 86.5998 33.5003C86.7998 33.7003 86.9998 33.8003 87.1998 34.0003C86.3998 34.2003 85.7998 34.8003 85.5998 35.6003C85.3998 36.5003 85.5998 37.3003 86.2998 37.9003C87.7998 39.3003 90.0998 38.9003 91.4998 37.5003C91.8998 37.1003 92.1998 36.7003 92.4998 36.3003C92.6998 36.0003 92.8998 35.6003 92.8998 35.2003C92.7998 34.7003 92.2998 35.2003 92.0998 35.4003C91.6998 35.8003 91.4998 36.2003 91.2998 36.7003C90.9998 37.7003 91.0998 38.7003 91.6998 39.6003C92.2998 40.4003 93.1998 40.9003 94.1998 40.8003C96.3998 40.7003 97.7998 38.2003 98.5998 36.5003C98.7998 35.9003 99.5998 36.4003 99.2998 36.9003Z" fill="#561E1C"/>
<path d="M64.8001 41.4999C63.3001 42.6999 62.3001 44.5999 62.2001 46.4999C62.1001 48.4999 63.0001 50.3999 64.5001 51.5999C64.2001 51.7999 64.0001 51.9999 63.7001 52.1999C63.4001 51.6999 62.6001 51.5999 62.1001 51.7999C61.3001 52.0999 61.0001 52.7999 60.9001 53.5999C60.6001 55.3999 61.6001 57.2999 62.8001 58.5999C63.1001 58.8999 62.9001 59.3999 62.5001 59.3999C61.0001 59.2999 59.6001 59.5999 58.3001 60.1999C57.2001 60.6999 56.2001 61.4999 55.7001 62.5999C55.0001 64.3999 55.6001 66.7999 57.3001 67.8999C57.8001 68.1999 57.3001 69.0999 56.8001 68.6999C55.2001 67.6999 54.3001 65.6999 54.4001 63.7999C54.5001 61.4999 56.1001 59.8999 58.1001 59.0999C59.5001 58.4999 60.9001 58.1999 62.4001 58.2999C62.3001 58.5999 62.2001 58.7999 62.1001 59.0999C60.6001 57.4999 59.3001 54.7999 60.1001 52.5999C60.4001 51.5999 61.1001 50.8999 62.2001 50.6999C63.1001 50.4999 64.1001 50.7999 64.6001 51.5999C64.9001 52.0999 64.2001 52.4999 63.8001 52.1999C62.2001 50.6999 61.2001 48.5999 61.2001 46.3999C61.3001 44.1999 62.3001 42.0999 64.0001 40.6999C64.6001 40.4999 65.3001 41.0999 64.8001 41.4999Z" fill="#561E1C"/>
<path d="M103.4 36.2998C105.3 36.4998 106.7 37.9998 107.4 39.6998C108.3 41.8998 107.7 44.4998 107.2 46.6998C107.1 46.4998 107 46.2998 106.9 46.0998C109.2 46.7998 111.4 47.7998 113.1 49.5998C114.6 51.1998 115.4 53.4998 115.1 55.6998C114.9 56.8998 114.4 57.9998 113.5 58.8998C113.5 58.5998 113.4 58.3998 113.4 58.0998C115.8 59.4998 118.1 61.1998 119.4 63.5998C120.7 65.8998 121.1 68.9998 119.7 71.3998C119.4 71.8998 118.6 71.4998 118.9 70.8998C120.1 68.6998 119.7 65.9998 118.5 63.8998C117.2 61.6998 115.1 60.1998 113 58.9998C112.7 58.7998 112.7 58.4998 112.9 58.1998C114.3 56.7998 114.5 54.7998 114 52.9998C113.4 50.9998 111.9 49.4998 110.1 48.4998C109 47.8998 107.9 47.3998 106.7 47.0998C106.4 46.9998 106.3 46.7998 106.4 46.4998C106.8 44.4998 107.3 42.2998 106.7 40.2998C106.2 38.8998 105.1 37.4998 103.5 37.2998C102.8 37.1998 102.8 36.2998 103.4 36.2998Z" fill="#561E1C"/>
<path d="M112.199 61.0001C114.199 63.5001 113.599 67.5001 110.899 69.3001C110.399 69.6001 109.899 68.8001 110.399 68.5001C112.499 67.1001 113.099 63.7001 111.499 61.7001C111.099 61.2001 111.799 60.5001 112.199 61.0001Z" fill="#561E1C"/>
<path d="M105.3 47.3002C104.1 48.0002 103.3 49.3002 103.2 50.6002C103.1 52.0002 103.8 53.4002 104.9 54.2002C105.4 54.6002 104.9 55.4002 104.4 55.0002C103 54.0002 102.1 52.3002 102.2 50.5002C102.3 48.8002 103.3 47.2002 104.7 46.3002C105.3 46.1002 105.8 47.0002 105.3 47.3002Z" fill="#561E1C"/>
<path d="M76.8996 28.7003C74.5996 29.3003 72.9996 31.9003 73.4996 34.3003C73.5996 34.9003 72.6996 35.2003 72.5996 34.6003C71.9996 31.7003 73.7996 28.6003 76.6996 27.8003C77.1996 27.6003 77.4996 28.5003 76.8996 28.7003Z" fill="#561E1C"/>
<path d="M72.7 28.4004C71 29.3004 70 31.1004 70 33.0004C70 33.6004 69 33.6004 69 33.0004C69 30.8004 70.2 28.7004 72.1 27.6004C72.7 27.3004 73.2 28.1004 72.7 28.4004Z" fill="#561E1C"/>
<path d="M92.9996 58.7998C93.0996 58.7998 93.1996 58.7998 93.2996 58.7998C93.3996 58.7998 93.3996 58.8998 93.4996 58.8998C93.4996 58.8998 93.5996 58.9998 93.5996 59.0998C93.5996 59.1998 93.5996 59.1998 93.5996 59.2998V59.3998C93.5996 59.4998 93.4996 59.5998 93.4996 59.5998L93.3996 59.6998C93.2996 59.6998 93.1996 59.7998 93.1996 59.7998H93.0996C92.9996 59.7998 92.9996 59.7998 92.8996 59.7998C92.7996 59.7998 92.7996 59.6998 92.6996 59.6998C92.6996 59.6998 92.5996 59.5998 92.5996 59.4998C92.5996 59.3998 92.5996 59.3998 92.5996 59.2998V59.1998C92.5996 59.0998 92.6996 58.9998 92.6996 58.9998L92.7996 58.8998C92.8996 58.7998 92.8996 58.7998 92.9996 58.7998Z" fill="#7F4924"/>
<path d="M91.0994 62.4002C91.1994 62.5002 91.1994 62.5002 91.0994 62.4002C91.1994 62.5002 91.2994 62.6002 91.2994 62.6002C91.2994 62.7002 91.2994 62.7002 91.2994 62.8002C91.2994 62.9002 91.2994 62.9002 91.2994 63.0002C91.2994 63.1002 91.1994 63.1002 91.1994 63.2002L91.0994 63.3002C90.9994 63.3002 90.8994 63.4002 90.8994 63.4002H90.7994C90.6994 63.4002 90.5994 63.3002 90.5994 63.3002L90.4994 63.2002C90.4994 63.2002 90.3994 63.1002 90.3994 63.0002C90.3994 62.9002 90.3994 62.9002 90.3994 62.8002C90.3994 62.7002 90.3994 62.7002 90.3994 62.6002C90.3994 62.5002 90.4994 62.5002 90.4994 62.4002L90.5994 62.3002C90.6994 62.3002 90.7994 62.2002 90.7994 62.2002H90.8994C90.9994 62.3002 91.0994 62.4002 91.0994 62.4002Z" fill="#7F4924"/>
<path d="M74.3994 58.8006C74.2994 58.8006 74.2994 58.8006 74.3994 58.8006C74.2994 58.9006 74.1994 59.0006 74.1994 59.0006C74.0994 59.0006 74.0994 59.0006 73.9994 59.0006C73.8994 59.0006 73.8994 59.0006 73.7994 59.0006C73.6994 59.0006 73.6994 58.9006 73.5994 58.9006L73.4994 58.8006C73.4994 58.7006 73.3994 58.6006 73.3994 58.6006V58.5006C73.3994 58.4006 73.4994 58.3006 73.4994 58.3006L73.5994 58.2006C73.5994 58.2006 73.6994 58.1006 73.7994 58.1006C73.8994 58.1006 73.8994 58.1006 73.9994 58.1006C74.0994 58.1006 74.0994 58.1006 74.1994 58.1006C74.2994 58.1006 74.2994 58.2006 74.3994 58.2006L74.4994 58.3006C74.4994 58.4006 74.5994 58.5006 74.5994 58.5006V58.6006C74.4994 58.6006 74.3994 58.7006 74.3994 58.8006Z" fill="#7F4924"/>
<path d="M70.7992 57.9004C70.6992 57.9004 70.5992 57.9004 70.4992 57.9004C70.3992 57.9004 70.3992 57.8004 70.2992 57.8004C70.2992 57.8004 70.1992 57.7004 70.1992 57.6004C70.1992 57.5004 70.1992 57.5004 70.1992 57.4004V57.3004C70.1992 57.2004 70.2992 57.1004 70.2992 57.1004L70.3992 57.0004C70.4992 57.0004 70.5992 56.9004 70.5992 56.9004H70.6992C70.7992 56.9004 70.7992 56.9004 70.8992 56.9004C70.9992 56.9004 70.9992 57.0004 71.0992 57.0004C71.0992 57.0004 71.1992 57.1004 71.1992 57.2004C71.1992 57.3004 71.1992 57.3004 71.1992 57.4004V57.5004C71.1992 57.6004 71.0992 57.7004 71.0992 57.7004L70.9992 57.8004C70.9992 57.9004 70.8992 57.9004 70.7992 57.9004Z" fill="#7F4924"/>
<path d="M99.1996 157.8C100.4 154.2 100.9 150.4 100.6 146.6C98.8996 149.8 97.9996 153.4 97.9996 157C96.5996 153.2 95.1996 149.4 92.3996 146.5C92.8996 150.4 94.2996 154.1 96.3996 157.4C94.0996 154.4 91.6996 151.4 88.4996 149.4C87.9996 149.6 88.0996 150.4 88.3996 150.9C89.9996 153.6 92.0996 156 94.5996 158C92.0996 156.1 88.5996 155.5 85.5996 156.4C88.0996 158.2 91.1996 159.1 94.2996 159C91.0996 159.9 88.2996 161.9 86.1996 164.4C89.2996 164.2 92.2996 163.1 94.7996 161.2C92.7996 163.8 91.8996 167.2 92.3996 170.4C94.2996 168.1 95.6996 165.3 96.3996 162.4C96.2996 165.3 96.3996 168.5 98.0996 170.9C99.0996 168.2 99.0996 165.1 97.9996 162.4C99.4996 165.3 100.9 168.2 102.4 171.1C102.6 167.4 100.8 163.9 99.1996 160.5C101.2 163.7 103.8 166.5 106.9 168.7C106 165 103.6 161.8 100.5 159.8C103 161.7 106.3 162.7 109.5 162.5C107.3 160.2 104.3 158.6 101.2 157.9C104.5 157.7 107.8 155.8 109.5 152.9C106.6 153.6 103.9 154.8 101.4 156.4C103.1 154.6 104.2 152.1 104.4 149.6C102.3 151.5 100.6 153.9 99.5996 156.6L99.1996 157.8Z" fill="white"/>
<path d="M112.999 128.2C114.199 124.6 114.699 120.8 114.399 117C112.699 120.2 111.799 123.8 111.799 127.4C110.399 123.6 108.999 119.8 106.199 116.9C106.699 120.8 108.099 124.5 110.199 127.8C107.899 124.8 105.499 121.8 102.299 119.8C101.799 120 101.899 120.8 102.199 121.3C103.799 124 105.899 126.4 108.399 128.4C105.899 126.5 102.399 125.9 99.3994 126.8C101.899 128.6 104.999 129.5 108.099 129.4C104.899 130.3 102.099 132.3 99.9994 134.8C103.099 134.6 106.099 133.5 108.599 131.6C106.599 134.2 105.699 137.6 106.199 140.8C108.099 138.5 109.499 135.7 110.199 132.8C110.099 135.7 110.199 138.9 111.899 141.3C112.899 138.6 112.899 135.5 111.799 132.8C113.299 135.7 114.699 138.6 116.199 141.5C116.399 137.8 114.599 134.3 112.999 130.9C114.999 134.1 117.599 136.9 120.699 139.1C119.799 135.4 117.399 132.2 114.299 130.2C116.799 132.1 120.099 133.1 123.299 132.9C121.099 130.6 118.099 129 114.999 128.3C118.299 128.1 121.599 126.2 123.299 123.3C120.399 124 117.699 125.2 115.199 126.8C116.899 125 117.999 122.5 118.199 120C116.099 121.9 114.399 124.3 113.399 127L112.999 128.2Z" fill="white"/>
<path d="M74.3998 122.401C75.5998 118.801 76.0998 115.001 75.7998 111.201C74.0998 114.401 73.1998 118.001 73.1998 121.601C71.7998 117.801 70.3998 114.001 67.5998 111.101C68.0998 115.001 69.4998 118.701 71.5998 122.001C69.2998 119.001 66.8998 116.001 63.6998 114.001C63.1998 114.201 63.2998 115.001 63.5998 115.501C65.1998 118.201 67.2998 120.601 69.7998 122.601C67.2998 120.701 63.7998 120.101 60.7998 121.001C63.2998 122.801 66.3998 123.701 69.4998 123.601C66.2998 124.501 63.4998 126.501 61.3998 129.001C64.4998 128.801 67.4998 127.701 69.9998 125.801C67.9998 128.401 67.0998 131.801 67.5998 135.001C69.4998 132.701 70.8998 129.901 71.5998 127.001C71.4998 129.901 71.5998 133.101 73.2998 135.501C74.2998 132.801 74.2998 129.701 73.1998 127.001C74.6998 129.901 76.0998 132.801 77.5998 135.701C77.7998 132.001 75.9998 128.501 74.3998 125.101C76.3998 128.301 78.9998 131.101 82.0998 133.301C81.1998 129.601 78.7998 126.401 75.6998 124.401C78.1998 126.301 81.4998 127.301 84.6998 127.101C82.4998 124.801 79.4998 123.201 76.3998 122.501C79.6998 122.301 82.9998 120.401 84.6998 117.501C81.7998 118.201 79.0998 119.401 76.5998 121.001C78.2998 119.201 79.3998 116.701 79.5998 114.201C77.4998 116.101 75.7998 118.501 74.7998 121.201L74.3998 122.401Z" fill="white"/>
<path d="M85.7994 196.9C87.7994 198.4 89.3994 200.5 90.3994 202.8H88.3994C86.4994 201.1 84.8994 199.1 83.4994 196.9C84.4994 198.8 85.3994 200.7 85.9994 202.8H84.2994C83.5994 201.4 82.9994 200.1 82.2994 198.8C82.7994 200.1 83.0994 201.5 83.0994 202.8H80.6994C80.4994 201.5 80.4994 200.1 80.5994 198.8C80.2994 200.2 79.7994 201.5 79.1994 202.8H76.6994C77.0994 200.9 77.7994 199.1 78.9994 197.6C77.4994 198.7 75.8994 199.6 74.0994 200.1C72.8994 200.5 71.6994 200.7 70.3994 200.8C71.4994 199.4 72.8994 198.2 74.2994 197.3C75.5994 196.5 76.9994 195.8 78.4994 195.4C77.1994 195.5 75.8994 195.3 74.5994 195C73.3994 194.7 72.1994 194.2 71.0994 193.6C70.6994 193.4 70.2994 193.1 69.8994 192.8C70.2994 192.7 70.7994 192.6 71.2994 192.5C72.4994 192.3 73.7994 192.4 74.9994 192.6C76.3994 192.9 77.7994 193.5 78.8994 194.4C77.4994 193.3 76.2994 192.1 75.1994 190.8C74.2994 189.7 73.3994 188.5 72.6994 187.3C72.3994 186.8 72.1994 186 72.7994 185.8C73.7994 186.4 74.6994 187.2 75.5994 188C77.4994 189.7 79.0994 191.8 80.6994 193.8C78.5994 190.5 77.1994 186.8 76.6994 182.9C79.3994 185.8 80.8994 189.7 82.2994 193.4C82.2994 189.8 83.1994 186.2 84.8994 183C85.1994 186.3 84.8994 189.5 83.9994 192.7C84.9994 190.1 86.5994 187.8 88.6994 186C88.4994 188.5 87.4994 191 85.6994 192.8C88.1994 191.2 90.8994 190 93.7994 189.3C91.9994 192.1 88.7994 194.1 85.4994 194.3C88.6994 195 91.5994 196.6 93.8994 198.9C90.8994 199 88.1994 198.3 85.7994 196.9Z" fill="white"/>
<path d="M125.999 114.4C124.699 120.1 125.899 126 126.299 131.8C126.799 141.9 117.999 151.9 117.699 162C117.699 163 117.699 164 117.799 165C117.899 165.7 117.999 166.4 118.099 167C119.699 176.8 126.199 186.5 126.999 196.3C127.199 198.4 127.299 200.6 127.399 202.7H39.3994C39.6994 200.9 39.9994 199.1 40.2994 197.3C40.3994 197 40.3994 196.7 40.4994 196.3C40.8994 194.3 41.2994 192.3 41.7994 190.2C41.7994 190.1 41.8994 189.9 41.8994 189.8C42.7994 185.8 43.8994 181.9 45.0994 178.1C46.7994 172.9 52.3994 167.7 55.5994 162.4C56.0994 161.5 56.4994 160.7 56.8994 159.9C57.1994 159.1 57.4994 158.3 57.5994 157.5C58.7994 149.7 53.1994 141.8 51.1994 133.9C50.8994 132.9 50.6994 131.9 50.5994 130.9C49.5994 121.8 48.5994 112.7 47.5994 103.7C47.3994 102.4 47.2994 101 47.6994 99.7004C47.9994 98.7004 48.5994 97.8004 49.2994 97.0004C49.9994 96.3004 50.6994 95.7004 51.4994 95.1004C56.3994 91.5004 63.8994 89.3004 70.2994 87.7004C71.3994 87.4004 72.4994 87.2004 73.4994 86.9004C77.8994 91.6004 81.8994 93.4004 88.2994 92.8004C94.6994 92.2004 98.0994 89.9004 101.499 84.4004C101.499 84.4004 102.699 84.5004 104.699 84.8004C104.699 84.8004 104.699 84.8004 104.799 84.8004C108.099 85.3004 113.399 86.3004 118.099 88.3004L129.599 94.7004C130.399 95.1004 131.199 95.6004 131.599 96.4004C131.999 97.1004 131.899 97.9004 131.799 98.7004C130.899 104.2 127.299 108.9 125.999 114.4Z" fill="#4B89AF"/>
<path d="M106.7 88.4996C103.3 92.4996 98.6996 95.2996 93.5996 96.4996C88.4996 97.6996 82.9996 97.0996 78.1996 94.9996C75.4996 93.7996 72.9996 92.0996 70.7996 89.8996C70.3996 89.4996 70.9996 88.7996 71.4996 89.1996C75.0996 92.7996 79.8996 95.1996 84.9996 95.8996C89.9996 96.5996 95.1996 95.5996 99.5996 93.0996C102.1 91.6996 104.3 89.8996 106.1 87.7996C106.5 87.3996 107.1 87.9996 106.7 88.4996Z" fill="#60350F"/>
<path d="M116.9 164.8C92.1 166.4 80 164.7 55.7 159.7C55.6 160.9 55.6 162 55.5 163.2C78.9 171.9 91.9 173.5 116.2 167.9C116.9 167.7 117.7 167.5 118.2 166.9C118.7 166.3 118.4 165.2 117.7 165.1L116.9 164.8Z" fill="#6DA8C6"/>
<path d="M77.7998 165.7C77.7998 166.8 77.7998 167.9 77.6998 168.9C77.6998 169.2 77.6998 169.5 77.6998 169.7C77.3998 175.8 76.2998 181.9 75.4998 187.9C75.3998 188.5 75.2998 189.1 75.1998 189.8C75.1998 190.1 75.0998 190.4 75.0998 190.7C74.9998 191.3 74.8998 191.9 74.8998 192.5C74.7998 193.3 74.6998 194.1 74.5998 194.9C74.4998 195.7 74.3998 196.4 74.3998 197.2C74.2998 198.1 74.1998 199.1 74.1998 200C74.0998 200.9 74.0998 201.8 73.9998 202.7H70.2998C70.4998 199.6 70.7998 196.6 71.0998 193.5C71.0998 193.1 71.1998 192.8 71.1998 192.4C72.0998 185.1 73.2998 177.9 74.9998 170.8C75.0998 170.3 75.1998 169.8 75.3998 169.3C75.3998 169.2 75.3998 169.1 75.4998 169.1L77.7998 165.7Z" fill="#6DA8C6"/>
<path d="M73.4997 168.2C73.3997 168.4 73.3997 168.6 73.2997 168.8C73.0997 169.3 72.9997 169.8 72.7997 170.2C69.5997 180.7 67.8997 191.7 67.7997 202.7H64.1997C63.2997 191.2 65.1997 179.4 69.5997 168.7C69.6997 168.4 69.7997 168.2 69.8997 167.9C69.8997 167.8 69.9997 167.8 69.9997 167.7L73.4997 168.2Z" fill="#6DA8C6"/>
<path d="M78.9001 164.3C78.4001 166.6 77.8001 168.9 77.3001 171.2C74.9001 171 72.5001 170.3 70.4001 169.2C69.5001 168.8 68.6001 168.1 68.5001 167.1C68.4001 166 69.6001 165.1 69.6001 163.9C69.6001 163.4 69.4001 162.9 69.6001 162.5C69.9001 161.6 71.2001 161.7 72.0001 162C74.1001 162.6 76.2001 163.2 78.4001 163.8L78.9001 164.3Z" fill="#1B4B5E"/>
<path d="M124.9 158.8C125.5 160.2 125.7 161.7 125.5 163.2C125.5 163.5 125.1 163.6 124.9 163.5C124.6 163.4 124.5 163.2 124.6 162.9C124.8 161.7 124.6 160.4 124.1 159.3C124 159.1 124 158.8 124.3 158.6C124.5 158.5 124.8 158.6 124.9 158.8Z" fill="#7F4924"/>
</svg>
