<svg width="150" height="150" viewBox="0 0 150 150" fill="none" xmlns="http://www.w3.org/2000/svg">
<path d="M81.0155 81.875C80.9654 83.1431 81.2492 84.3945 81.6498 85.5958C83.7866 92.1865 89.1952 97.6259 95.7724 99.8116C97.5919 100.412 99.4783 100.779 101.381 101.063C104.319 101.497 107.307 101.747 110.279 101.814C111.614 101.831 112.966 101.814 114.252 101.447C115.537 101.08 116.739 100.296 117.373 99.1276C117.49 98.894 117.607 98.6437 117.574 98.3767C117.524 97.6926 116.706 97.3756 116.038 97.1921C114.035 96.6581 112.048 95.974 110.346 94.7894C108.643 93.6047 107.257 91.8695 106.873 89.8339C106.59 88.2988 106.873 86.7304 107.057 85.1787C107.775 79.2888 106.857 72.9485 103.218 68.2599C102.466 67.2922 101.582 66.3912 100.48 65.8906C98.5935 65.023 96.3566 65.4401 94.4202 66.2076C90.8645 67.6259 87.8764 70.1287 85.3724 72.9651C83.3025 75.3511 81.1323 78.5881 81.0155 81.875Z" fill="#9E673F"/>
<path d="M27.2467 100.179C26.8795 100.596 26.4955 101.013 26.2785 101.53C26.0615 102.047 26.0448 102.681 26.362 103.132C26.7125 103.633 27.4137 103.799 28.0313 103.699C28.6323 103.582 29.1831 103.249 29.6839 102.915C32.8724 100.779 35.7102 98.1431 38.9153 96.0241C43.3057 93.1209 48.514 91.0185 51.4186 86.6303C51.8693 85.9462 52.2699 85.1954 52.4369 84.3778C52.8876 82.2421 51.5354 79.9229 49.4989 79.1554C47.8629 78.538 45.8764 78.9218 44.5076 80.0063C43.4225 80.8739 43.0553 82.3255 42.1872 83.3934C39.1991 87.0808 35.8271 90.5347 32.672 94.0886C30.8692 96.1242 29.0496 98.1431 27.2467 100.179Z" fill="#9E673F"/>
<path d="M34.8091 113.443C35.2598 114.094 35.7272 114.828 36.1946 115.629C36.8958 116.413 37.6303 117.281 38.5985 117.698C39.6668 118.148 40.2344 117.514 40.5015 116.663C40.4848 116.63 40.4681 116.58 40.4514 116.547C40.2845 116.23 40.0007 116.013 39.7169 115.779C35.4601 112.292 32.6724 107.37 29.4005 102.948C28.7995 102.131 28.0483 101.263 27.0467 101.213C26.8631 101.213 26.6795 101.23 26.5292 101.33C25.0769 102.364 27.8981 106.168 28.7995 106.969C31.0364 108.938 33.1064 110.974 34.8091 113.443Z" fill="#9E673F"/>
<path d="M47.3797 119.05C45.8773 117.465 43.8407 115.496 42.4718 114.311C42.4051 114.244 42.3216 114.178 42.2381 114.178C42.0378 114.161 41.9543 114.395 41.921 114.578C41.8041 115.212 41.7206 115.88 41.7874 116.53C41.8375 117.081 42.0545 118.115 42.572 118.482C43.3399 119.016 46.3614 119.534 47.3797 119.05Z" fill="#593E34"/>
<path d="M43.9398 118.983C43.0718 117.515 42.0535 115.896 42.1036 114.194C41.2355 114.612 40.3007 114.812 39.3492 114.845C38.381 114.878 37.3627 114.545 36.7617 113.794C36.9287 114.011 36.962 114.678 37.0455 114.962C37.1791 115.396 37.346 115.813 37.5463 116.213C37.8301 116.797 38.1139 117.481 38.7148 117.782C40.1671 118.466 42.3707 118.8 43.9398 118.983Z" fill="#9E673F"/>
<path d="M59.9328 33.1204C58.2467 35.9735 54.3405 36.8078 51.1187 37.6087C50.7682 37.6921 51.1354 38.7433 50.9685 38.4263C50.8182 38.176 50.9685 37.859 51.1187 37.6087C51.7531 36.6576 52.7213 35.9902 53.5392 35.206C54.2571 34.5219 54.858 33.7544 55.5424 33.0369C56.6275 31.9023 57.8962 30.9346 59.3485 30.3339C59.9495 30.0836 61.0178 29.5497 61.6856 29.6832C62.4034 29.8334 62.3366 30.0169 61.8525 30.4507C61.1347 31.1014 60.4169 32.3028 59.9328 33.1204Z" fill="#8C5A38"/>
<path d="M52.5707 36.7745C53.2384 36.324 53.8561 35.8234 54.407 35.2394C55.1916 34.4219 55.8593 33.4875 56.6773 32.6866C57.562 31.8357 58.6137 31.1849 59.7655 30.7678C60.5668 30.4841 61.4348 30.3674 62.1026 29.8001C61.4348 29.3662 60.3164 29.433 59.415 29.5164C56.4936 29.7667 53.8394 31.5854 52.2368 34.0381C51.8195 34.6721 51.469 35.3562 51.0182 35.9736C50.5508 36.5909 49.9999 37.0748 49.2988 37.3918C49.7162 37.5754 50.3338 37.3751 50.7845 37.3418C51.469 37.3084 52.0031 37.1415 52.5707 36.7745Z" fill="#AA6F44"/>
<path d="M54.8242 32.937C54.8575 33.6711 53.9895 34.0883 53.3051 34.3552C52.3536 34.7223 51.5189 34.3552 51.0181 33.4542C50.534 32.5532 50.3837 31.5021 49.8996 30.6011C49.6492 30.1172 49.2987 29.7001 48.9481 29.2829C48.03 28.2318 47.0284 27.2473 45.96 26.3463C43.7231 24.4776 41.0522 22.8925 39.6834 20.3063C39.3495 19.6723 39.0991 19.0048 38.9489 18.3208C38.615 16.769 38.7819 15.0838 39.5999 13.7323C39.6667 13.6322 39.7668 13.5154 39.8837 13.5488C39.9838 13.5988 40.0005 13.749 39.9838 13.8658C39.9004 15.0338 40.0005 16.2184 40.301 17.3697C40.4679 18.0037 40.685 18.6211 41.0188 19.2051C41.3193 19.7223 41.6866 20.1895 42.0872 20.6233C44.708 23.3931 48.5308 24.6611 51.4855 27.0638C52.3702 27.798 54.7574 30.9681 54.8242 32.937Z" fill="#3F2B25"/>
<path d="M116.156 106.886C116.941 108.121 117.475 109.489 118.009 110.84C118.51 112.125 119.011 113.41 119.495 114.695C120.229 116.597 120.964 118.799 121.798 120.668C122.717 122.72 123.501 120.001 125.054 118.666C122.616 117.698 122.533 116.163 121.648 113.694C119.946 108.888 118.927 103.883 117.942 98.8771C117.759 97.9427 116.907 97.2586 115.973 97.0417C115.054 96.8081 114.086 96.9583 113.168 97.1752C111.432 97.5589 108.244 99.4611 110.23 101.447C112.2 103.382 114.604 104.45 116.156 106.886Z" fill="#9E673F"/>
<path d="M41.3028 70.8119C39.333 74.9499 43.9737 89.6495 45.2424 90.2836C48.3641 91.852 51.7528 92.7697 55.1916 93.3703C63.5382 94.8219 72.2187 94.3214 80.3484 91.9354C82.6854 91.2513 85.0058 90.4004 87.1425 89.2157C91.416 86.8631 94.9049 83.2758 97.893 79.4048C98.9447 78.0533 99.9463 76.6184 100.564 75.0166C101.282 73.1312 101.098 84.0433 105.138 75.0166C106.457 72.0633 101.399 65.7897 100.263 64.7385C99.4121 63.9543 98.1768 63.7875 97.025 63.6373C83.2029 61.9354 71.6679 65.2057 57.4285 62.6696C55.7592 62.3692 51.7194 62.119 49.0652 61.0511C47.8299 60.5505 48.2973 60.6173 47.4793 61.6351C45.1756 64.555 42.9053 67.4415 41.3028 70.8119Z" fill="#BC7E4B"/>
<path d="M38.3476 79.2713C38.7984 80.1556 39.3993 81.1233 40.3842 81.3069C41.1688 81.4571 43.0885 83.9765 43.7396 83.5093C46.1935 81.7574 46.5774 76.1178 48.0631 73.4815C49.1816 71.4626 50.3167 69.427 50.9844 67.2246C51.6522 65.0221 56.3096 62.7362 54.0727 62.219C46.0599 60.4337 46.327 55.2613 46.5273 51.9075C46.761 47.9698 48.6641 45.5505 50.517 42.1133C51.1681 40.8953 48.7976 39.9109 48.9312 38.526C48.9813 38.0588 48.9813 37.5082 48.6307 37.1745C48.18 36.7741 47.0615 35.1389 46.5273 35.3892C35.1091 40.7618 33.4064 58.0143 35.1759 69.2268C35.7101 72.7307 36.7618 76.1178 38.3476 79.2713Z" fill="#BC7E4B"/>
<path d="M49.0323 120.067C48.882 123.521 48.014 128.743 46.3613 131.78C47.8136 132.597 49.2493 132.898 50.4679 134.049C50.2008 131.913 50.5346 128.66 51.4027 126.691C51.5029 126.457 51.6197 126.224 51.6698 125.957C51.7199 125.606 51.6364 125.256 51.5529 124.906C50.2842 119.55 51.0354 113.96 51.1189 108.454C51.1356 107.436 51.0688 106.302 50.2842 105.651C50.1507 105.534 49.9838 105.434 49.8001 105.434C48.014 105.384 47.9639 110.106 48.1976 111.29C48.7485 114.21 49.1825 117.064 49.0323 120.067Z" fill="#BC7E4B"/>
<path d="M90.414 114.978C90.2137 116.429 89.7295 117.814 89.2621 119.199C88.8114 120.5 88.3607 121.802 87.91 123.103C87.2422 125.039 86.5578 126.974 85.4561 128.71C84.3543 130.428 82.7851 131.93 80.832 132.547C82.3845 133.081 83.9537 133.615 85.5061 134.149C85.7732 132.48 87.5093 131.196 89.1787 131.413C88.4942 128.876 89.2454 126.19 90.1803 123.737C91.9831 118.982 94.4704 114.494 96.9577 110.055C97.4251 109.238 97.2081 108.153 96.6573 107.386C96.1064 106.618 95.2717 106.101 94.4371 105.667C92.8679 104.85 89.1954 104.232 89.4291 107.035C89.6628 109.755 90.7979 112.124 90.414 114.978Z" fill="#BC7E4B"/>
<path d="M43.3223 134.433C45.4924 134.533 48.3302 134.533 50.1498 134.433C50.25 134.433 50.3501 134.433 50.4169 134.367C50.5671 134.25 50.4837 134.016 50.3668 133.849C49.9996 133.315 49.5989 132.781 49.0981 132.348C48.6808 131.981 47.7961 131.397 47.1784 131.497C46.2603 131.647 43.7062 133.365 43.3223 134.433Z" fill="#593E34"/>
<path d="M78.2949 134.433C80.465 134.533 83.3029 134.533 85.1225 134.433C85.2226 134.433 85.3228 134.433 85.3896 134.367C85.5398 134.25 85.4563 134.016 85.3395 133.849C84.9722 133.315 84.5716 132.781 84.0708 132.348C83.6535 131.981 82.7687 131.397 82.1511 131.497C81.2329 131.647 78.6789 133.365 78.2949 134.433Z" fill="#593E34"/>
<path d="M48.4638 87.8644C49.2484 89.7999 50.5004 91.6019 52.3033 92.6531C53.9893 93.6375 55.9925 93.8878 57.9289 94.038C63.7716 94.5218 69.6977 94.4551 75.4735 93.3873C76.7923 93.137 78.1111 92.8533 79.313 92.2527C81.0992 91.3517 82.5014 89.8333 83.7868 88.2983C85.8067 85.8956 87.7097 83.276 88.4943 80.2393C84.8385 83.543 84.1874 76.4017 80.4147 79.5719C76.2247 83.0758 67.9115 86.3127 64.4226 86.5797C61.9687 86.7632 59.4981 86.7966 57.0609 86.3795C54.3565 85.9123 51.7691 84.8778 49.4821 83.3594C48.4471 82.6753 47.2285 81.157 47.2285 83.1592C47.2285 84.6275 47.9129 86.4963 48.4638 87.8644Z" fill="#E5BA80"/>
<path d="M36.8789 75.8008C38.5482 79.4715 41.5029 82.1578 44.5578 83.1256C45.6596 83.476 47.1787 83.6929 48.2637 84.0766C49.5992 84.5438 50.2502 83.7263 51.4855 84.427C53.0213 85.3113 54.5738 86.2124 55.8258 87.4971C56.3767 88.0644 56.8775 88.8152 56.7105 89.5994C56.4768 90.684 55.158 90.9843 54.0897 91.0511C51.8027 91.1679 49.1318 91.4515 46.8949 90.9343C45.3424 90.5839 44.6914 89.3492 43.4894 88.3481C41.7533 86.8964 37.6635 79.0544 36.8789 75.8008Z" fill="#E5BA80"/>
<path d="M73.8206 93.7212C75.2562 93.3875 76.6752 93.0705 78.1108 92.7368C77.5098 92.8703 76.0408 83.343 75.8071 82.5088C75.2562 82.5755 74.8556 84.3775 74.7053 84.8948C74.4049 85.8458 74.1712 86.8136 74.0042 87.7813C73.6871 89.7502 73.6203 91.7524 73.8206 93.7212Z" fill="#D8A664"/>
<path d="M62.2684 92.9205C66.5252 92.8704 70.7653 92.2364 74.9219 91.3521C75.0555 91.3187 75.189 91.302 75.3059 91.3187C75.4895 91.3521 75.6565 91.4689 75.8067 91.569C76.6747 92.1363 77.7932 92.1863 78.728 92.6368C78.511 93.104 77.9267 93.2709 77.4093 93.371C70.6318 94.7225 63.654 95.0729 56.7764 94.4388C53.9218 94.1719 50.9337 93.6713 48.7135 91.8526C48.5299 91.7024 48.3463 91.5356 48.2628 91.3187C47.7119 89.9839 49.882 90.985 50.3161 91.1518C51.5681 91.619 52.8868 91.936 54.1889 92.203C56.8598 92.7369 59.5641 92.9538 62.2684 92.9205Z" fill="#D8A664"/>
<path d="M47.6458 110.44C47.7292 110.99 47.8127 111.558 48.0798 112.041C48.3469 112.542 48.8143 112.959 49.3652 112.993C49.9828 113.043 50.5504 112.609 50.8509 112.075C51.1514 111.541 51.2348 110.907 51.3016 110.289C51.7022 106.469 51.4852 102.614 51.9026 98.7934C52.4701 93.5709 54.1895 88.215 52.6705 83.176C52.4367 82.3751 52.1029 81.6076 51.5854 80.9569C50.2332 79.255 47.4955 76.7522 45.5925 77.8201C44.0567 78.6877 42.4041 79.3718 42.354 81.1071C42.3206 82.4919 44.0066 86.8468 44.2737 88.1983C45.2086 92.8535 45.7094 97.6588 46.4105 102.347C46.8278 105.067 47.2284 107.753 47.6458 110.44Z" fill="#BC7E4B"/>
<path d="M79.447 72.2143C78.579 73.1319 77.978 74.2665 77.4772 75.4345C74.7562 81.8082 75.257 89.4668 78.7793 95.4234C79.7475 97.0752 80.9327 98.5936 82.1847 100.045C84.1211 102.314 86.1911 104.45 88.4113 106.452C89.3962 107.353 90.4312 108.221 91.6498 108.772C92.8517 109.322 94.2873 109.539 95.5393 109.072C95.7897 108.972 96.0234 108.855 96.1904 108.638C96.591 108.087 96.1904 107.32 95.8064 106.736C94.6546 105.017 93.5862 103.199 93.0854 101.196C92.5846 99.1942 92.6848 96.9584 93.7365 95.1731C94.521 93.8216 95.773 92.8372 96.9416 91.786C101.349 87.8149 104.821 82.4256 105.171 76.5023C105.238 75.2843 105.171 74.0329 104.671 72.915C103.819 71.0296 101.849 69.8783 99.8963 69.1775C96.2905 67.9095 92.3843 67.8427 88.6283 68.3433C85.4566 68.7938 81.6839 69.8283 79.447 72.2143Z" fill="#BC7E4B"/>
<path d="M110.012 69.1109C111.114 70.3957 111.982 71.864 113.234 72.9986C113.802 73.5158 114.453 73.9663 115.154 74.3167C114.586 75.0175 113.535 75.151 112.583 75.201C109.545 75.3178 106.407 74.9174 103.635 73.6326C100.864 72.3479 98.4773 70.1287 97.459 67.3757C96.7745 65.5403 97.6259 63.5047 99.8628 63.7883C102.25 64.0887 104.637 64.9563 106.657 66.2244C107.909 67.0086 109.061 67.993 110.012 69.1109Z" fill="#BC7E4B"/>
<path d="M101.965 71.3798C103.25 73.3654 105.387 74.7336 107.691 75.2675C109.994 75.8014 112.448 75.5345 114.668 74.7169C112.682 74.9838 110.595 74.4666 108.959 73.3153C108.058 72.6813 107.29 71.847 106.388 71.213C105.387 70.4955 104.252 70.0117 103.183 69.3943C102.132 68.7936 101.097 68.0094 100.562 66.9082C100.679 68.56 101.03 69.9282 101.965 71.3798Z" fill="#E5BA80"/>
<path opacity="0.18" d="M44.3578 78.5039C44.2409 79.505 44.4913 80.5061 44.725 81.4906C45.4929 84.7776 46.0104 88.0979 46.2942 91.4683C46.2441 89.6329 46.1941 87.7976 46.144 85.9622C46.0939 84.2103 46.0605 82.4416 46.2608 80.7064C46.3443 79.9722 46.4945 79.188 46.9786 78.6207C47.3125 78.2203 47.83 77.8866 47.8133 77.3693C47.7966 76.6185 46.4444 76.1513 45.8101 76.3015C44.9087 76.5017 44.4579 77.6863 44.3578 78.5039Z" fill="white"/>
<path d="M43.1048 36.6742C45.1246 34.0713 48.2129 32.0691 51.5015 32.2026C53.9721 32.3027 56.2591 33.5708 58.2122 35.0724C60.1653 36.5908 61.9014 38.3761 63.9213 39.811C65.5572 40.9623 67.3434 41.8633 69.0795 42.8478C69.3299 42.9979 69.6137 43.1648 69.7138 43.4484C69.7973 43.6987 69.7138 43.9657 69.6137 44.2159C69.1463 45.4506 68.3116 46.652 67.0763 47.1359C66.1582 47.4862 65.1566 47.4028 64.1884 47.3027C59.4308 46.8689 54.6732 46.4184 49.9323 45.9846C47.5285 45.7677 45.1413 45.5341 42.7375 45.3172C40.968 45.1503 38.9481 45.3172 39.7327 43.0647C40.534 40.8122 41.6357 38.5597 43.1048 36.6742Z" fill="#BC7E4B"/>
<path d="M51.5683 34.3882C51.6017 35.1223 50.7336 35.5394 50.0492 35.8064C49.0977 36.1735 48.263 35.8064 47.7622 34.9054C47.2781 34.0044 47.1279 32.9532 46.6438 32.0522C46.3934 31.5684 46.0428 31.1512 45.6923 30.7341C44.7741 29.6829 43.7725 28.6985 42.7042 27.7975C40.4673 25.9121 37.7964 24.3437 36.4275 21.7575C36.0936 21.1234 35.8432 20.456 35.693 19.7719C35.3591 18.2202 35.5261 16.535 36.344 15.1835C36.4108 15.0834 36.511 14.9666 36.6278 15C36.7447 15.0333 36.7447 15.1835 36.7447 15.3003C36.6612 16.4683 36.7614 17.6529 37.0618 18.8042C37.2288 19.4382 37.4458 20.0556 37.7797 20.6396C38.0801 21.1568 38.4474 21.624 38.848 22.0578C41.4522 24.8275 45.2916 26.0956 48.2463 28.515C49.1144 29.2491 51.5015 32.4193 51.5683 34.3882Z" fill="#593E34"/>
<path d="M46.6118 55.7462C45.9107 52.2089 47.1627 48.3546 49.8336 45.9019C48.7319 45.6183 47.6468 45.1844 46.6619 44.6171C46.4282 44.4837 45.7939 43.8997 45.5435 44.0832C45.3598 44.2167 45.4266 44.8841 45.4099 45.0843C45.1261 47.4369 45.026 49.6728 45.4934 52.0087C45.6269 52.6594 45.7772 53.3101 45.9775 53.9442C46.1444 54.5448 46.495 55.1622 46.6118 55.7462Z" fill="#9E673F"/>
<path d="M55.4082 37.5254C56.2929 38.1094 56.5767 39.2774 57.4114 39.9114C57.6117 40.0616 57.8454 40.195 58.0124 40.3786C58.1793 40.5788 58.2461 40.8791 58.0624 41.0794C57.8955 41.2629 57.5783 41.2629 57.3446 41.1628C57.1109 41.0627 56.9106 40.8958 56.6769 40.7957C56.0926 40.5621 55.4416 40.7957 54.8239 40.9292C53.6554 41.1628 52.37 40.9626 51.4018 40.2952C50.9678 39.9948 50.901 39.5443 50.2166 38.8269C49.9328 38.5265 48.4972 37.9259 48.8477 37.492C49.0648 37.2251 50.4837 37.492 50.7842 37.492C51.6856 37.492 52.2699 37.492 53.0545 37.3085C53.839 37.1083 54.7071 37.0749 55.4082 37.5254Z" fill="#8C5A38"/>
<path d="M52.5372 38.0759C53.0547 37.9258 53.5889 37.8757 54.1231 37.9591C54.3568 37.9925 54.5905 38.0426 54.7908 38.1594C55.0913 38.3262 55.325 38.6099 55.5253 38.8935C55.6589 39.077 55.7757 39.2606 55.8258 39.4775C55.8759 39.6944 55.8592 39.928 55.7256 40.1115C55.5754 40.2951 55.325 40.3785 55.0746 40.4119C53.9895 40.6121 52.7709 40.4953 51.9196 39.7778C51.7693 39.6443 51.6191 39.4942 51.5523 39.3106C51.3019 38.6265 52.003 38.2261 52.5372 38.0759Z" fill="#593E34"/>
<path d="M54.1721 38.8438C54.2389 38.8939 54.3223 38.944 54.3891 38.994C54.4893 39.0774 54.556 39.2109 54.5727 39.3444C54.5894 39.4445 54.5727 39.5446 54.6061 39.6447C54.6395 39.7448 54.723 39.845 54.8231 39.8116C54.9066 39.7949 54.94 39.7115 54.9567 39.628C55.0401 39.3611 55.0234 39.0607 54.8732 38.8272C54.7564 38.6269 54.4893 38.3933 54.2389 38.41C53.9718 38.41 53.9718 38.6937 54.1721 38.8438Z" fill="white"/>
<path d="M53.1721 34.7556C53.4559 35.2394 54.1236 35.3062 54.6912 35.3562C57.0283 35.6065 58.9981 37.0748 60.9512 38.393C62.9043 39.7111 64.39 42.2973 67.2112 41.7967C64.8073 40.3118 61.9361 38.3095 59.6992 36.1405C58.7811 35.2561 57.8629 34.3384 56.8113 33.621C56.01 33.0871 53.7898 32.2361 52.7715 32.3362C52.7715 32.3362 53.1888 32.7033 53.1554 33.1037C53.1053 33.6377 52.905 34.2884 53.1721 34.7556Z" fill="#E5BA80"/>
<path d="M67.5102 42.9316C67.2765 42.9149 67.0428 42.9149 66.8258 42.9983C66.5754 43.0984 66.3918 43.332 66.2916 43.5823C66.1915 43.8326 66.1915 44.1329 66.3751 44.3331C66.5086 44.4833 66.7257 44.55 66.926 44.6001C67.2598 44.6835 67.6104 44.7669 67.9109 44.9505C68.2114 45.134 68.4451 45.4344 68.4618 45.7847C68.4618 45.8348 68.4784 45.9182 68.5285 45.9349C68.5786 45.9516 68.612 45.9015 68.6454 45.8682C69.0293 45.401 69.3799 44.9004 69.6804 44.3665C69.8139 44.1329 69.9308 43.8826 69.9308 43.6157C69.8807 42.7313 68.0945 42.9649 67.5102 42.9316Z" fill="#593E34"/>
<path d="M67.3267 46.0018C67.7774 46.0185 68.2448 46.0352 68.6454 45.8016C68.5953 46.1019 68.2949 46.202 68.0445 46.2187C65.457 46.4523 62.8862 45.7349 60.3989 44.8672C59.7813 44.6503 59.1636 44.4501 58.5293 44.6003C58.9967 44.2832 59.4307 44.4668 59.9148 44.6003C60.5158 44.7671 61.1334 44.9173 61.7344 45.0674C62.9196 45.3678 64.1215 45.6181 65.3235 45.8016C65.9912 45.9017 66.6589 45.9684 67.3267 46.0018Z" fill="#593E34"/>
<path d="M40.3008 40.5116C40.6013 40.278 40.9184 40.0278 41.2356 39.8108C42.6879 38.8264 44.4073 38.2257 45.676 37.0244C44.5409 37.525 43.4057 37.7252 42.2205 38.0088C41.7531 38.1256 41.6029 38.6596 41.3692 39.0266C41.0687 39.4938 40.7181 40.1946 40.3008 40.5116Z" fill="#9E673F"/>
<path d="M47.4785 35.5565C46.744 35.3729 45.9594 35.423 45.2416 35.2228C44.457 35.0226 43.7893 34.5554 43.0882 34.1549C42.0532 33.5709 40.918 33.1371 39.7328 33.0871C37.763 33.0203 35.9601 34.0548 34.0404 34.4886C33.4395 34.6221 32.8218 34.7055 32.2042 34.8223C32.104 34.839 32.0038 34.8557 31.9371 34.9391C31.7868 35.0893 31.9037 35.3563 32.0539 35.5231C32.755 36.3741 33.7566 36.9414 34.7749 37.3752C36.6946 38.1761 38.798 38.5765 40.8847 38.4764C43.6224 38.3429 46.2599 37.3418 48.9976 37.2083C49.2814 37.1916 49.5652 37.1916 49.8156 37.0748C50.5334 36.7411 50.2162 36.0403 49.5652 35.9736C48.8307 35.8902 48.1963 35.74 47.4785 35.5565Z" fill="#BC7E4B"/>
<path d="M42.8882 35.7901C42.354 35.4731 41.8866 35.056 41.319 34.789C40.0837 34.2217 38.6481 34.5221 37.346 34.9225C36.044 35.3229 34.7085 35.8068 33.373 35.5732C33.4398 35.8402 33.7403 35.9737 34.0074 36.0905C35.2928 36.591 36.5782 37.0749 37.9136 37.3585C40.3675 37.8758 42.9216 37.6589 45.3254 36.9247C45.7428 36.7912 46.1601 36.6578 46.544 36.4242C46.1601 36.1238 45.2086 36.4242 44.7412 36.3741C44.0734 36.3074 43.4391 36.1072 42.8882 35.7901Z" fill="#9E673F"/>
<path d="M123.549 122.804C124.618 123.488 126.003 124.439 127.255 124.722C126.955 123.671 126.521 121.469 126.237 120.418C126.204 120.301 126.17 120.167 126.087 120.084C125.97 119.967 125.803 119.917 125.636 119.867C124.584 119.533 123.883 118.566 122.965 117.965C122.715 117.798 122.381 117.648 122.097 117.748C121.346 118.015 121.513 119.45 121.563 120.067C121.646 120.985 123.316 122.653 123.549 122.804Z" fill="#9E673F"/>
<path d="M129.677 125.523C128.642 123.621 127.157 121.185 126.138 119.7C126.088 119.616 126.038 119.533 125.955 119.5C125.771 119.433 125.621 119.633 125.537 119.8C125.27 120.384 125.02 121.001 124.92 121.669C124.836 122.219 124.77 123.27 125.187 123.754C125.771 124.455 128.559 125.74 129.677 125.523Z" fill="#593E34"/>
<path opacity="0.18" d="M79.7976 87.7985C80.1649 89.3168 80.7658 90.8352 81.8342 91.9698C80.5655 88.9164 80.866 85.3791 82.0345 82.2923C83.203 79.2056 85.1895 76.4859 87.2929 73.9497C87.6268 73.5493 87.9606 73.1489 88.0942 72.6483C88.2277 72.1477 88.1109 71.5471 87.6935 71.2634C84.4717 69.1778 81.4502 75.101 80.6156 77.1867C79.2801 80.5237 78.9463 84.2946 79.7976 87.7985Z" fill="white"/>
<path d="M102.232 63.4542C104.168 63.7044 106.071 64.3885 107.557 65.6566C108.909 66.8079 109.844 68.3596 110.812 69.8613C111.43 70.829 112.081 71.7801 112.765 72.7144C111.43 71.3296 110.061 69.928 108.375 69.0103C107.323 68.4263 106.172 68.0593 105.087 67.5754C103.768 66.9914 102.516 66.2573 101.214 65.6232C99.3441 64.7055 97.391 63.9881 95.3711 63.4708C96.4562 63.7378 97.4077 63.5376 98.5094 63.4375C99.7447 63.3207 100.997 63.304 102.232 63.4542Z" fill="#9E673F"/>
</svg>
