<svg width="150" height="150" viewBox="0 0 150 150" fill="none" xmlns="http://www.w3.org/2000/svg">
<path d="M113.849 56.9681C113.488 64.9079 103.6 73.4252 96.3095 81.8704C86.9982 92.6252 106.054 100.926 95.8042 112.836C85.6268 124.746 49.5365 127.272 39.1425 122.797C29.1095 118.466 23.8403 106.195 22.9019 96.2343C22.9019 95.8734 22.8298 95.5125 22.8298 95.1516C22.1801 84.9741 35.3892 69.8884 41.5245 64.908C47.6598 59.9275 52.8568 58.4117 61.8794 55.6689C65.4884 54.5861 68.5922 52.0598 71.0463 49.4613C72.7786 47.5846 74.1501 45.7079 75.1606 44.1922C76.1711 42.6042 76.7486 41.5215 76.7486 41.5215C76.7486 41.5215 77.3982 41.5215 78.4087 41.5215C79.3471 41.5215 80.5741 41.5215 82.0899 41.5937C90.4628 41.9546 106.27 43.5425 111.684 50.544C113.272 52.6373 113.921 54.8027 113.849 56.9681Z" fill="#D3D3D3"/>
<path opacity="0.2" d="M79.2745 81.7988C79.2745 81.7988 91.4008 93.9973 84.6881 103.958C77.9753 113.919 73.5723 106.34 73.5723 106.34L79.2745 81.7988Z" fill="#A7A9AC"/>
<path opacity="0.2" d="M113.849 56.968C113.921 54.7304 113.344 52.565 111.684 50.4718C106.27 43.4703 90.4626 41.8823 82.0897 41.5214C80.5739 41.4492 79.3468 41.4492 78.4085 41.4492C77.7588 41.4492 77.2536 41.4492 76.9648 41.4492C79.0581 51.9154 89.0912 59.6387 93.9994 69.3831C95.3709 74.6522 84.4716 84.7575 89.6686 92.4808C93.2054 97.6778 96.5979 102.514 98.619 107.783C101.001 98.3996 88.3694 91.0372 96.3092 81.8703C103.599 73.4973 113.488 64.98 113.849 56.968Z" fill="#A7A9AC"/>
<path d="M45.0605 83.0976C45.0605 83.0976 64.5493 76.1683 69.8906 80.5713C75.1598 84.9743 67.1478 106.628 67.1478 106.628L76.9643 100.71C76.9643 100.71 84.3267 83.3141 73.4996 77.4675C62.6004 71.6209 45.0605 83.0976 45.0605 83.0976Z" fill="#E4E5E6"/>
<path d="M73.284 53.4317C69.3862 59.134 50.908 63.6092 42.9682 72.9205C35.0283 82.1596 36.2554 91.3987 36.2554 91.3987L22.9742 96.2347C22.9742 95.8738 22.902 95.5129 22.902 95.152C22.2524 84.9746 35.4614 69.8889 41.5968 64.9084C47.7321 59.928 52.9291 58.4122 61.9516 55.6693C65.5607 54.5866 68.6644 52.0603 71.1186 49.4618C72.8509 47.5851 74.2223 45.7084 75.2328 44.1926C76.2434 42.6047 76.8208 41.522 76.8208 41.522C76.8208 41.522 77.4704 41.522 78.481 41.522C78.4088 41.4498 76.0268 49.4618 73.284 53.4317Z" fill="#E4E5E6"/>
<path opacity="0.6" d="M111.683 50.544C105.259 42.3155 84.4706 41.5215 78.4075 41.5215C77.3247 42.3155 75.1593 44.1922 75.1593 44.1922C75.1593 44.1922 71.1172 52.5651 72.8496 54.6583C72.8496 54.6583 74.5819 56.4628 77.036 58.8448C77.1804 59.711 77.4691 61.2267 78.1187 61.5155C78.4074 61.6598 78.1909 60.144 78.1909 60.144C78.1909 60.144 78.8405 63.1034 79.9954 62.8869C80.2841 62.8147 79.4902 61.6598 79.4902 61.6598C80.5007 62.9591 81.7999 64.1861 82.4496 63.6087C86.4917 67.0012 90.8947 70.0328 93.4932 69.9606C94.8646 69.8884 96.0917 69.5997 97.1022 69.1666C96.5969 69.5275 95.8751 70.0328 96.0917 70.3215C96.6691 70.9711 98.0405 69.8162 99.1954 68.5892C99.1954 68.5892 98.2571 69.6719 98.618 69.744C99.7729 70.0328 100.639 67.1455 100.639 67.1455C100.639 67.1455 100.278 68.5892 100.567 68.517C101.289 68.2283 101.722 66.7125 101.938 65.8463C104.681 63.3922 107.929 60.144 113.848 56.9681C113.92 54.8027 113.271 52.6373 111.683 50.544Z" fill="#A7A9AC"/>
<path d="M116.449 53.648C114.789 55.9578 106.128 59.7112 102.013 61.5157C100.931 62.021 100.209 62.3097 100.209 62.3097C100.209 62.3097 97.3215 66.6405 93.8569 66.7849C88.0824 67.0736 84.69 61.0104 84.69 61.0104C84.69 61.0104 83.9682 60.7939 82.8133 60.3608C79.4208 59.1337 74.3682 56.9683 72.9246 54.5864C70.9757 51.4104 75.3065 38.1292 75.3065 38.1292C75.3065 38.1292 69.6764 27.0856 72.4193 23.1879C75.1621 19.218 86.0614 24.9202 86.0614 24.9202C86.0614 24.9202 95.3005 22.3939 103.962 24.3428C103.962 24.3428 109.953 19.5067 113.779 20.445C117.604 21.3834 114.934 37.2631 114.934 37.2631C114.934 37.2631 119.553 49.245 116.449 53.648Z" fill="#E4E5E6"/>
<path d="M112.91 35.0258C111.755 35.098 110.889 34.6649 110.312 34.1597C109.445 33.4379 109.084 32.4995 109.084 32.4995C104.176 32.6439 102.877 29.8288 102.877 29.8288C103.021 29.1792 103.815 28.3131 104.826 27.3025C107.352 25.0649 111.394 22.5386 112.333 23.2604C113.704 24.3431 113.921 34.9537 112.91 35.0258Z" fill="#67686B"/>
<path opacity="0.3" d="M110.312 34.087C109.445 33.3652 109.084 32.4268 109.084 32.4268C104.176 32.5712 102.877 29.7561 102.877 29.7561C103.021 29.1065 103.815 28.2404 104.826 27.2298L106.197 28.2404C106.197 28.2404 109.878 26.4358 110.672 26.7967C111.539 27.1576 111.972 33.4373 110.312 34.087Z" fill="#434345"/>
<path d="M102.229 29.9002C103.023 31.4159 106.055 32.7152 106.416 32.0656C106.488 31.9212 104.323 30.9829 104.323 30.9829C104.323 30.9829 108.076 31.3438 108.004 30.8385C107.932 30.3332 105.55 30.4776 105.55 30.4776C105.55 30.4776 109.014 30.0445 108.942 29.6114C108.87 29.1062 106.993 29.3949 105.55 29.3949C105.55 29.3949 108.87 28.5287 108.87 28.1678C108.87 27.8069 106.271 28.3122 106.271 28.3122C106.271 28.3122 108.22 24.7753 112.407 23.3317C112.407 23.3317 110.314 22.0325 107.932 23.5483C105.622 24.9197 101.868 27.5904 102.229 29.9002Z" fill="#E4E5E6"/>
<path d="M84.6171 30.0446C84.2562 30.8386 83.2457 31.7769 81.0081 32.4987C81.0081 32.4987 80.575 33.8702 79.6366 35.1694C79.0592 35.8912 78.2652 36.613 77.2547 36.9739C76.3163 37.2626 72.8517 27.2296 73.7178 25.7859C74.584 24.4867 82.3073 26.5078 84.4005 28.2401C84.5449 28.3844 84.6893 28.5288 84.8336 28.6732C84.7614 28.6732 84.978 29.2506 84.6171 30.0446Z" fill="#67686B"/>
<path opacity="0.3" d="M84.7613 28.6732C84.7613 28.6732 84.7613 29.2507 84.5448 30.0447C84.1839 30.8386 83.1733 31.777 80.9357 32.4988C80.9357 32.4988 80.5027 33.8702 79.5643 35.1695C78.6981 33.798 76.8214 30.7665 76.6771 29.7559C76.4605 28.5289 81.2245 28.3123 81.2245 28.3123L84.4726 28.168C84.5448 28.3845 84.6891 28.5289 84.7613 28.6732Z" fill="#434345"/>
<path d="M85.4821 28.5292C85.2656 30.1893 82.8836 32.4991 82.3062 31.9938C82.234 31.8495 83.8942 30.2615 83.8942 30.2615C83.8942 30.2615 80.5017 31.8495 80.3573 31.3442C80.2129 30.8389 82.5227 30.1893 82.5227 30.1893C82.5227 30.1893 79.1302 30.9833 78.9859 30.5502C78.9137 30.1171 80.7182 29.7562 82.0896 29.1788C82.0896 29.1788 78.6972 29.4675 78.5528 29.1788C78.4084 28.8901 81.0791 28.3848 81.0791 28.3848C81.0791 28.3848 78.1197 25.7141 73.6445 25.7863C73.6445 25.7863 75.1603 23.8374 77.9032 24.4871C80.5739 24.9923 85.049 26.1472 85.4821 28.5292Z" fill="#E4E5E6"/>
<path d="M92.4855 23.9816C92.4855 23.9816 89.2373 23.9094 89.0208 23.1876C88.8764 22.4658 93.6403 22.9711 93.6403 22.9711C93.6403 22.9711 90.6809 21.5275 91.6193 21.0222C92.5576 20.4448 96.4554 23.8373 96.4554 23.8373C96.4554 23.8373 93.6403 25.2087 92.4855 23.9816Z" fill="#E4E5E6"/>
<path d="M116.953 51.4824C116.953 51.4824 116.592 53.5035 117.098 53.5035C117.964 53.5035 118.036 51.699 117.819 50.0388C117.819 50.0388 118.036 51.4103 118.325 51.2659C119.263 50.6163 117.603 48.0178 117.603 48.0178C117.603 48.0178 118.469 49.2448 118.613 48.9561C118.974 47.9456 117.098 45.708 117.098 45.708C117.098 45.708 116.231 49.6058 116.953 51.4824Z" fill="#E4E5E6"/>
<path d="M73.2847 53.4317C73.2847 53.4317 73.79 55.3805 73.2847 55.4527C72.4185 55.5249 72.202 53.7204 72.2742 52.0602C72.2742 52.0602 72.1298 53.5038 71.8411 53.2873C70.8306 52.7099 72.2742 50.0392 72.2742 50.0392C72.2742 50.0392 71.5524 51.3384 71.408 51.0497C70.9749 50.0392 72.6351 47.6572 72.6351 47.6572C72.6351 47.6572 73.8622 51.4828 73.2847 53.4317Z" fill="#E4E5E6"/>
<path opacity="0.5" d="M89.3809 63.6805C89.3809 63.6805 90.6079 64.7632 93.3508 64.5467C96.0936 64.3302 97.3207 63.2475 97.3207 63.2475L92.9177 62.7422L89.3809 63.6805Z" fill="#A7A9AC"/>
<path d="M45.0605 83.0985C45.0605 83.0985 60.7237 71.333 73.4275 77.4684C89.7402 85.4082 74.6545 106.341 74.6545 106.341C74.6545 106.341 83.0996 85.697 72.4891 79.1285C63.1778 73.2097 45.0605 83.0985 45.0605 83.0985Z" fill="#A7A9AC"/>
<path d="M120.13 108.505L110.819 110.381L116.304 111.969C116.304 111.969 98.115 118.971 82.1631 123.735C66.2112 128.499 37.2669 128.86 27.7391 113.846C23.1917 106.7 22.3255 100.204 22.6864 95.2956C22.7586 93.852 22.9752 92.5527 23.2639 91.3978C23.9135 88.4384 26.512 86.273 29.5436 86.1287C32.6473 85.9843 35.5346 88.2219 36.2564 91.3978C37.4834 97.2445 40.9481 105.762 50.4759 106.195C65.0564 106.917 83.8955 96.667 99.6308 94.8625C115.222 93.1302 123.162 107.205 123.306 107.494L114.356 106.628L120.13 108.505Z" fill="#E4E5E6"/>
<path d="M100.134 58.9169C99.8451 59.5666 99.4842 62.0207 97.6797 62.3816C95.8752 62.7425 94.3594 62.5981 93.9985 61.4433C93.7098 60.2884 93.3489 58.8448 93.3489 58.8448C93.3489 58.8448 93.3489 58.9891 93.2767 59.2778C93.2045 58.9891 93.2045 58.8448 93.2045 58.8448C93.2045 58.8448 92.988 60.2884 92.7714 61.5154C92.5549 62.7425 91.0391 62.959 89.1624 62.7425C87.3579 62.526 86.7805 60.144 86.4196 59.4944C86.0587 58.8448 81.1504 57.4012 81.1504 57.4012L85.409 59.6387C87.1414 63.6087 89.2346 64.547 92.4105 63.2478C93.0602 62.959 93.8541 62.959 94.5038 63.1756C97.6075 64.0418 100.062 63.3921 101.144 58.9891L105.186 56.3906C105.186 56.3906 100.423 58.2673 100.134 58.9169Z" fill="#A7A9AC"/>
<path d="M97.3925 57.6178C97.3925 57.7621 97.3925 57.8343 97.3925 57.9787C97.176 59.2057 95.4437 59.5666 93.3504 59.6388C91.0407 59.711 89.164 59.4945 89.0918 57.9787V57.7621C89.164 56.2463 90.8963 54.1531 93.1339 54.0809C95.3715 54.0087 97.3204 56.102 97.3925 57.6178Z" fill="#67686B"/>
<path d="M98.8359 48.2345L100.424 46.863C100.424 46.863 100.352 44.6976 102.445 43.7593C104.61 42.8209 105.91 44.842 105.91 44.842C105.91 44.842 107.858 43.3984 108.075 43.6871C108.292 44.048 106.126 45.2029 106.126 45.2029C106.126 45.2029 106.631 47.657 103.961 48.2345C102.084 48.6675 100.929 47.5127 100.929 47.5127L98.8359 48.2345Z" fill="#757679"/>
<path d="M105.259 45.5637C105.692 46.6464 105.042 47.8735 103.887 48.3066C102.733 48.7397 101.433 48.3066 101 47.2239C100.567 46.1412 101.217 44.9141 102.372 44.481C103.599 43.9758 104.898 44.481 105.259 45.5637Z" fill="#5C5D60"/>
<path d="M104.971 45.6356C105.332 46.5739 104.754 47.6567 103.744 48.0176C102.733 48.4506 101.578 48.0176 101.217 47.0792C100.856 46.1409 101.434 45.0582 102.444 44.6973C103.527 44.3364 104.682 44.6973 104.971 45.6356Z" fill="#434345"/>
<path d="M89.4523 48.0898L87.7922 46.8628C87.7922 46.8628 87.6478 44.6974 85.4824 43.9034C83.2448 43.1816 82.1621 45.2748 82.1621 45.2748C82.1621 45.2748 80.141 43.9755 79.9245 44.3365C79.7079 44.6974 82.0177 45.7079 82.0177 45.7079C82.0177 45.7079 81.729 48.2342 84.4719 48.5229C86.3485 48.7395 87.4313 47.5846 87.4313 47.5846L89.4523 48.0898Z" fill="#757679"/>
<path d="M82.8117 45.9967C82.523 47.0795 83.2448 48.2343 84.3997 48.5952C85.6267 48.9561 86.8538 48.3787 87.2147 47.296C87.5034 46.2133 86.7816 45.0584 85.6268 44.6975C84.3997 44.2644 83.1004 44.8419 82.8117 45.9967Z" fill="#5C5D60"/>
<path d="M83.0998 46.068C82.8111 47.0063 83.4607 48.0168 84.5435 48.3056C85.6262 48.5943 86.7089 48.089 86.9254 47.1507C87.2141 46.2123 86.5645 45.2018 85.4818 44.9131C84.4713 44.6244 83.3886 45.1296 83.0998 46.068Z" fill="#434345"/>
<path d="M85.9884 45.8527C85.9884 46.2857 84.4726 46.3579 84.4004 45.9248C84.4004 45.4918 84.6891 45.1309 85.1222 45.1309C85.6275 45.1309 85.9884 45.4196 85.9884 45.8527Z" fill="#E4E5E6"/>
<path d="M104.178 45.4191C104.178 45.8522 102.662 45.9243 102.59 45.4913C102.59 45.0582 102.879 44.6973 103.312 44.6973C103.817 44.6973 104.178 44.986 104.178 45.4191Z" fill="#E4E5E6"/>
<path d="M97.3925 57.6179V57.9788C97.176 59.2059 95.4437 59.5668 93.3504 59.639C91.0407 59.7111 89.164 59.4946 89.0918 57.9788C89.0918 57.9788 89.7414 57.0405 93.2061 56.8961C96.6707 56.7518 97.3925 57.6179 97.3925 57.6179Z" fill="#434345"/>
<path d="M120.13 108.506L110.819 110.382L116.304 111.97C116.304 111.97 98.115 118.972 82.1631 123.736C66.2112 128.5 37.2669 128.861 27.7391 113.847C23.1917 106.701 22.3255 100.205 22.6864 95.2967L22.903 95.1523C22.903 95.1523 22.9752 95.5132 23.1195 96.2351C24.13 100.782 29.2548 118.683 46.7947 122.292C67.0052 126.479 87.1436 108.939 101.291 104.031C115.222 99.1223 123.089 107.351 123.234 107.495L114.283 106.629L120.13 108.506Z" fill="#D1D3D4"/>
<path d="M75.9551 78.9834C75.9551 78.9834 82.5957 83.0255 83.1731 85.9849C83.7506 88.9443 75.9551 78.9834 75.9551 78.9834Z" fill="#A7A9AC"/>
<path opacity="0.4" d="M61.5901 106.195C56.4653 113.486 47.5871 115.651 40.6578 114.857C34.2337 114.135 33.945 104.247 37.4096 96.2345C40.9465 88.1503 56.9705 81.7262 62.9615 84.3247C69.0247 86.9232 65.4878 100.71 61.5901 106.195Z" fill="#E4E5E6"/>
<path opacity="0.4" d="M63.0342 65.0527C69.0974 64.3309 71.5515 64.6918 73.7891 67.0015C75.8102 69.0948 69.6027 68.2286 63.6839 70.1053C57.7651 71.982 54.0117 74.5805 53.1455 71.9098C52.2794 69.167 56.3215 65.8467 63.0342 65.0527Z" fill="#E4E5E6"/>
</svg>
