<svg width="150" height="150" viewBox="0 0 150 150" fill="none" xmlns="http://www.w3.org/2000/svg">
<path fill-rule="evenodd" clip-rule="evenodd" d="M93.5593 89.84C93.5593 89.84 94.3193 94.96 94.5993 98.28C94.9193 101.6 93.7193 103.76 92.8793 104.08C87.6393 106.12 84.6393 109.44 85.9193 111.36C86.3593 112.04 95.9193 111.92 98.8393 111.92C101.799 111.92 103.599 111.24 104.719 111.16C105.839 111.08 107.039 111.4 107.879 109.88C108.719 108.36 107.879 106.48 108.319 104.96C108.759 103.44 109.679 101.8 109.919 101.4C110.159 101.04 113.759 93.32 115.639 91.52C117.519 89.72 119.399 88.12 119.879 87.84C120.079 87.72 120.399 87.24 120.679 86.76C120.159 81.76 116.639 87.4 109.719 88.6C102.759 89.84 93.5593 89.84 93.5593 89.84Z" fill="#754921"/>
<path d="M133.52 69.5597C133.52 69.3197 133.48 69.0797 133.44 68.8797C133.44 68.5597 133.44 68.1997 133.4 67.7997V67.7597C133.44 67.5197 133.48 67.1197 133.48 66.6797C133.52 65.7597 133.4 64.4397 133.04 63.0797C133 62.9997 133 62.9197 132.96 62.8397C131.4 51.2397 124.24 41.4397 111.12 37.8797C105.84 36.4397 90.6 36.4397 83.16 38.0397C75.68 39.6397 75.32 37.5197 66.36 36.9197C63.32 36.7197 60.92 36.5997 58.92 36.6397C58.76 36.6397 58.6 36.6397 58.4 36.6397C58.36 36.6397 58.28 36.6397 58.24 36.6397C58.24 36.6397 58.24 36.6397 58.2 36.6397C58.28 36.5997 58.36 36.5997 58.36 36.5997C58.36 36.5997 58.12 36.5597 57.76 36.5597C57.4 36.5597 56.88 36.5997 56.32 36.7597C56.04 36.7997 55.76 36.7997 55.52 36.8397C55.64 36.7997 55.76 36.7597 55.84 36.7197C56.36 36.5597 56.68 36.4797 56.68 36.4797C56.68 36.4797 56.32 36.4397 55.8 36.5197C55.24 36.5597 54.48 36.7197 53.68 37.0797C53.6 37.1197 53.48 37.1597 53.4 37.2397C53.32 37.2397 53.24 37.2797 53.16 37.2797C53.36 37.1997 53.52 37.1197 53.68 37.0397C54.12 36.8397 54.4 36.7597 54.4 36.7597C54.4 36.7597 54.12 36.7597 53.64 36.7997C53.16 36.8797 52.52 37.0797 51.88 37.4797C51.68 37.5997 51.52 37.7197 51.36 37.8397C51.04 37.9597 50.72 38.0797 50.4 38.2397C49.88 38.4397 49.28 38.7197 48.68 39.1197C46.64 40.2397 44.32 41.8397 40.96 43.9597C41 43.9197 41 43.8797 41 43.8797C41 43.8797 40.4 43.9997 39.88 44.4797C39.8 44.5197 39.72 44.5597 39.68 44.5997C39.44 44.6797 39.08 44.8797 38.72 45.1597C38.68 45.1597 38.68 45.1997 38.64 45.2397C38.48 45.3597 38.28 45.4397 38.12 45.5597C38.36 45.2797 38.48 45.0397 38.48 45.0397C38.48 45.0397 37.88 45.3197 37.2 45.8397C36.96 45.9597 36.64 46.1197 36.36 46.3197C36.08 46.5197 35.88 46.6797 35.68 46.8797C35.56 46.9197 35.48 46.9997 35.36 47.0397C35.72 46.7197 35.96 46.4797 35.96 46.4797C35.96 46.4797 35.16 46.6797 34.32 47.1997C34.08 47.3597 33.88 47.4797 33.72 47.6397C33.44 47.7997 33.04 47.9997 32.68 48.2797C32.64 48.3197 32.6 48.3197 32.56 48.3597C32.48 48.3997 32.4 48.4397 32.32 48.4797C33.12 47.8797 33.64 47.3197 33.64 47.3197C33.64 47.3197 32.64 47.7197 31.6 48.4397C31.28 48.6397 31 48.8797 30.76 49.0797C30.48 49.1597 30.28 49.1997 30.12 49.1997C29.28 49.1997 27.76 48.1997 26.04 47.5997C24.36 46.9997 23.72 47.3597 23.4 47.8397C23.08 48.2797 23.72 51.7597 23.8 51.9997C23.92 52.2397 24.04 52.3597 24.04 52.3597C24.04 52.3597 21.08 55.9197 20.08 57.5997C19.08 59.2797 18.44 62.2397 18.72 63.6397C19.64 68.5997 16.72 68.8397 14.36 73.5597C13.64 74.9997 14 76.1997 14.4 76.3997C14.8 76.5997 15.2 76.4397 15.24 76.5597C15.28 76.6397 15.92 77.5997 17.12 78.1197C18.36 78.6797 18.8 78.5997 18.8 78.5997C18.8 78.5997 19.12 79.5197 20.12 79.9197C21.16 80.3597 23.6 80.3997 24.24 80.6797C24.44 80.7597 24.8 80.9197 25.24 81.1197C25.48 81.3197 25.72 81.5197 26.04 81.7197C26.56 81.9997 27.04 82.1997 27.44 82.2797C27.8 82.3597 28.04 82.3997 28.04 82.3997C28.04 82.3997 27.84 82.2797 27.52 82.0797C27.44 82.0397 27.36 81.9997 27.28 81.9197C27.64 82.0397 28.04 82.1197 28.4 82.1997C28.88 82.3197 29.28 82.3197 29.28 82.3197C29.28 82.3197 29.24 82.2797 29.2 82.2397C29.4 82.2397 29.64 82.2397 29.92 82.2397C29.96 82.2797 30.04 82.2797 30.08 82.3197C30.48 82.4797 30.84 82.4797 31.12 82.4797C31.4 82.4397 31.56 82.3997 31.56 82.3997C31.56 82.3997 31.4 82.3597 31.24 82.2797C31.56 82.3197 31.84 82.3197 32.04 82.3197C32.72 82.4797 33.32 82.3997 33.32 82.3997C33.32 82.3997 33.2 82.3197 32.96 82.1997C33.6 82.2797 34.08 82.2397 34.08 82.2397C34.08 82.2397 33.84 82.1197 33.52 81.9597C33.56 81.9597 33.6 81.9597 33.64 81.9597C33.8 81.9997 33.96 82.0797 34.08 82.1197C34.32 82.1997 34.44 82.2397 34.44 82.2397C34.44 82.2397 34.36 82.1197 34.2 81.9197C34.24 81.9197 34.24 81.9197 34.28 81.9197C34.64 81.9997 34.88 81.9597 34.88 81.9597C34.88 81.9597 34.88 81.9597 34.84 81.9197C35.24 82.0397 35.56 82.0397 35.56 82.0397C35.56 82.0397 35.48 81.9597 35.32 81.7997C35.92 81.9197 36.44 81.8797 36.44 81.8797C36.44 81.8797 36.36 81.8397 36.28 81.7597H36.32C37 81.8797 37.6 81.7597 37.6 81.7597C37.6 81.7597 37.52 81.6797 37.36 81.5997C37.84 81.6797 38.24 81.6397 38.48 81.5997C38.64 81.6797 38.8 81.7997 39 81.8797C39.68 82.1597 40.36 82.1597 40.36 82.1597C40.36 82.1597 40.32 82.1197 40.28 82.0797C40.4 82.0797 40.48 82.0797 40.56 82.0397C42.2 82.6397 43.96 83.5997 45.48 84.3197C49.4 86.1197 46.32 91.4797 46.92 94.7197C47.52 97.9597 47.76 101.44 47.28 103.68C46.84 105.96 46 108.2 45.64 108.32C45.32 108.44 40.88 108.44 39.72 109.2C38.56 109.96 38.08 110.44 37.8 111.44C37.52 112.44 37.76 112.84 37.96 112.88C38.16 112.88 38.2 112.88 38.28 113.08C38.36 113.28 38.64 113.6 39.12 113.48C39.6 113.36 40 113.28 40.2 113.44C40.44 113.6 40.64 113.8 41.04 113.76C41.44 113.72 41.52 113.72 41.76 113.72C42.04 113.72 47.36 114.04 49.4 113.88C51.44 113.72 51.92 113.56 53.16 113.12C54.4 112.72 54.76 112.16 54.76 112.16C54.76 112.16 55.52 111.76 56.4 111.28C57.32 110.84 57.96 109.88 58.08 108.92C58.24 107.92 58.52 107.36 59.12 107.24C59.72 107.08 60.28 106.96 60.64 106.76C60.96 106.52 63.64 101 64.16 97.9997C64.64 95.0397 65.68 92.6397 65.68 92.6397C65.68 92.6397 65.76 92.7197 65.92 92.8397C65.92 92.8397 65.92 92.8397 65.92 92.8797C66.08 93.4797 66.36 93.9597 66.64 94.2397C66.88 94.5597 67.12 94.6797 67.12 94.6797C67.12 94.6797 67 94.4797 66.88 94.1197C66.8 93.9597 66.72 93.7597 66.64 93.5197C66.72 93.5997 66.76 93.6397 66.84 93.7197V93.7597C67 94.2797 67.28 94.6797 67.48 94.9597C67.56 95.0397 67.6 95.1197 67.68 95.1997C67.72 95.2797 67.8 95.3597 67.84 95.4397C68 95.6797 68.16 95.7997 68.16 95.7997C68.16 95.7997 68.12 95.6397 68.08 95.3597C68.08 95.2797 68.04 95.1997 68.04 95.1197C68.08 95.1597 68.08 95.1997 68.12 95.1997C68.28 95.9197 68.64 96.4397 68.64 96.4397C68.64 96.4397 68.64 96.3597 68.64 96.2797C68.72 96.6397 68.88 96.9597 68.96 97.1597C69.12 97.9197 69.44 98.4797 69.44 98.4797C69.44 98.4797 69.48 98.1597 69.48 97.7197C69.56 97.8797 69.6 98.0397 69.68 98.2397C69.68 98.3197 69.68 98.3597 69.68 98.4397C69.76 99.4397 70.04 100.2 70.04 100.2C70.04 100.2 70.08 99.9997 70.12 99.6797C70.12 99.7197 70.12 99.7597 70.16 99.7997C70.2 100.04 70.2 100.36 70.24 100.76C70.24 100.92 70.2 101.04 70.2 101.2C70.2 102.2 70.4 103.04 70.4 103.04C70.4 103.04 70.56 102.52 70.64 101.8C70.64 101.84 70.68 101.92 70.68 101.96C70.64 102.2 70.6 102.44 70.56 102.68C70.4 103.64 70.4 104.48 70.4 104.48C70.4 104.48 70.52 104.32 70.64 104C70.68 103.96 70.68 103.88 70.72 103.84C70.72 103.96 70.68 104.12 70.68 104.24C70.68 104.8 70.76 105.32 70.88 105.64C71 106 71.08 106.2 71.08 106.2C71.08 106.2 71.12 104.96 71.16 104.36C71.16 104.48 71.2 104.6 71.2 104.68C71.2 104.72 71.2 104.76 71.2 104.84C71.16 105.2 71.2 105.56 71.24 105.88C71.24 106.16 71.24 106.4 71.24 106.6C71.16 107.04 71.08 107.4 71 107.72C70.92 108 70.88 108.28 70.88 108.28C70.88 108.28 70.96 108.2 71.12 108C71.04 108.32 71 108.6 70.96 108.8C70.96 108.84 70.92 108.92 70.92 108.96C70.8 109.2 70.68 109.4 70.6 109.56C70.52 109.72 70.4 109.88 70.4 109.88C70.4 109.88 70.52 109.84 70.68 109.8C70.64 109.84 70.6 109.88 70.56 109.92C70.48 110.04 70.4 110.16 70.4 110.16C70.4 110.16 70.48 110.16 70.6 110.12C70.56 110.16 70.48 110.2 70.44 110.24C70.4 110.28 70.36 110.28 70.32 110.32C68.88 110.52 65.44 110.68 64.24 111.72C63 112.8 62.6 113.64 62.72 114.36C62.8 115.12 63.24 115.24 63.56 115.16C63.88 115.08 64.12 115 64.36 115.2C64.6 115.4 65.48 115.28 65.76 115.24C66.04 115.24 65.92 115.44 66.48 115.48C67.04 115.48 72.48 116.88 75.04 116.16C77.6 115.44 79.76 116.12 81.04 114.76C82.32 113.4 82.84 112.72 83.52 112.28C83.84 112.08 84.12 111.8 84.36 111.44C84.36 111.48 84.32 111.52 84.32 111.52C84.32 111.52 84.48 111.4 84.68 111.2C84.88 110.96 85.16 110.6 85.28 110.16C85.28 110.12 85.32 110.08 85.32 110C85.44 109.8 85.56 109.52 85.6 109.2C85.76 108.88 85.92 108.48 86 108C86.04 107.8 86.04 107.56 86.04 107.36C86.08 107.28 86.08 107.24 86.12 107.16C86.12 107.2 86.12 107.24 86.12 107.24C86.12 107.24 86.2 107 86.32 106.64C86.36 106.4 86.44 106.12 86.44 105.8C86.44 105.8 86.52 105.56 86.56 105.16C86.6 104.76 86.64 104.2 86.52 103.6C86.48 103.44 86.44 103.24 86.4 103.08C86.44 102.72 86.48 102.32 86.48 101.96C86.52 102.08 86.52 102.16 86.52 102.16C86.52 102.16 86.6 101.96 86.68 101.6C86.76 101.24 86.8 100.72 86.76 100.2C86.76 100.08 86.72 99.9997 86.72 99.8797C86.72 99.7997 86.72 99.6797 86.72 99.5597C86.8 99.2797 86.84 98.9597 86.84 98.5997C86.88 98.6797 86.88 98.7197 86.88 98.7197C86.88 98.7197 87 97.9197 86.88 96.9597C86.84 96.7197 86.8 96.4797 86.76 96.2797C86.76 96.1997 86.76 96.1197 86.76 96.0797C86.8 96.3997 86.88 96.8797 86.96 97.4397C87 97.7597 87.04 98.0397 87.04 98.0397C87.04 98.0397 87.12 97.7997 87.2 97.4397C87.28 97.0797 87.32 96.5197 87.24 95.9597C87.2 95.7197 87.16 95.5197 87.08 95.3197C87.08 95.1997 87.04 95.0397 87 94.8797C87 94.6397 87 94.3197 86.92 93.9597C87.08 94.2397 87.2 94.3997 87.2 94.3997C87.2 94.3997 87.2 93.9197 87.08 93.3197C87.28 93.6797 87.4 93.9197 87.4 93.9197C87.4 93.9197 87.36 92.9997 87.04 91.9997C86.96 91.7597 86.88 91.5597 86.8 91.3597C86.8 91.2397 86.8 91.1197 86.8 90.9997C86.8 90.9997 86.88 91.0397 87.04 91.0797C87.04 91.1197 87.08 91.1997 87.08 91.2397C87.28 91.8797 87.68 92.3197 87.68 92.3197C87.68 92.3197 87.72 91.8397 87.56 91.2397C87.6 91.3197 87.64 91.3997 87.72 91.4797C88.12 91.9997 88.64 92.2797 88.64 92.2797C88.64 92.2797 88.64 92.1997 88.6 92.0797C88.64 92.1197 88.68 92.1197 88.72 92.1597C88.92 92.2397 89.04 92.2797 89.04 92.2797C89.04 92.2797 88.96 92.1597 88.88 91.9997C88.84 91.9197 88.76 91.8397 88.72 91.7597C88.96 91.8797 89.24 91.9597 89.44 91.9597C89.84 92.1997 90.28 92.3197 90.56 92.3597C90.88 92.3997 91.04 92.3997 91.04 92.3997C91.04 92.3997 90.88 92.2797 90.64 92.1197C90.52 92.0397 90.4 91.9997 90.28 91.9197C90.32 91.9197 90.32 91.9197 90.36 91.9197C90.72 92.0397 91.08 92.0797 91.36 92.0797C91.4 92.0797 91.4 92.0797 91.4 92.0797C91.44 92.0797 91.48 92.0797 91.52 92.0797C91.52 92.0797 91.52 92.0797 91.56 92.0797C91.64 92.1197 91.72 92.1597 91.76 92.1597C91.92 92.3197 92.16 92.4797 92.44 92.5597C92.8 92.6797 93.16 92.6397 93.4 92.5597C93.64 92.4797 93.76 92.3997 93.76 92.3997C93.76 92.3997 93.56 92.3597 93.4 92.3197C93.24 92.2797 93.08 92.2397 92.92 92.1997C93.04 92.1997 93.2 92.1997 93.32 92.2397C93.4 92.2797 93.48 92.3197 93.56 92.3197C93.88 92.3997 94.16 92.3997 94.36 92.3597C94.44 92.3597 94.48 92.3197 94.56 92.3197C94.64 92.3197 94.76 92.3197 94.84 92.3197C94.92 92.3597 95.04 92.3997 95.12 92.4397C95.44 92.5197 95.72 92.5197 95.92 92.4797C96.6 92.5597 97.2 92.3997 97.2 92.3997C97.28 92.3997 97.36 92.3997 97.44 92.3997C97.48 92.3997 97.56 92.4397 97.6 92.4397C98.04 92.5197 98.4 92.4797 98.52 92.4397C98.8 92.5597 99.12 92.4797 99.12 92.4797C99.12 92.4797 99.08 92.3597 99 92.2397L99.04 92.2797C99.28 92.4397 99.6 92.3997 99.6 92.3997C99.6 92.3997 99.6 92.3197 99.52 92.1997C99.64 92.1997 99.76 92.1997 99.84 92.1597C99.84 92.1997 99.88 92.1997 99.88 92.2397C100.08 92.3997 100.32 92.4797 100.44 92.4797C100.48 92.6397 100.48 92.8797 100.52 93.1597C100.48 93.4397 100.48 93.7597 100.48 94.0797C100.52 94.6397 100.64 95.0797 100.72 95.3997V95.4397C100.72 95.7597 100.72 96.0397 100.76 96.2797C100.68 97.0397 100.84 97.6797 100.84 97.6797C100.84 97.6797 100.96 97.4797 101.08 97.1197C101.12 97.3197 101.12 97.5597 101.16 97.7597C101.12 97.9597 101.12 98.1597 101.08 98.3197C101.04 98.5197 101.04 98.7197 101.04 98.7197C101.04 98.7197 101.12 98.6397 101.24 98.4797C101.24 98.5597 101.24 98.6397 101.28 98.7197C101.24 98.9997 101.2 99.2397 101.16 99.4397C101.12 99.6397 101.12 99.8397 101.12 99.8397C101.12 99.8397 101.24 99.7597 101.36 99.5597C101.32 99.8397 101.12 100.76 101.12 100.76C101.12 100.76 101.24 100.68 101.4 100.48C101.4 100.44 101.44 100.44 101.44 100.4C101.44 100.44 101.44 100.52 101.44 100.56C101.44 100.64 101.44 100.72 101.44 100.8C101.44 100.92 101.4 101 101.4 101.08C101.36 101.28 101.32 101.48 101.32 101.48C101.32 101.48 101.4 101.44 101.48 101.36C101.48 101.4 101.48 101.44 101.48 101.52C101.32 102.04 101 103.04 101 103.04C100.88 103.44 100.72 103.84 100.72 103.84C100.72 103.84 100.88 103.76 101.04 103.52C100.84 103.96 100.6 104.36 100.4 104.64C100.2 104.96 100.04 105.12 100.04 105.12C100.04 105.12 100.28 105.04 100.56 104.8C100.6 104.76 100.64 104.72 100.68 104.68C100.4 105.04 100.16 105.4 99.92 105.64C99.72 105.84 99.56 106.04 99.56 106.04C99.56 106.04 99.68 106 99.84 105.92C99.68 106.12 99.52 106.28 99.4 106.44C99.36 106.48 99.36 106.48 99.32 106.52C99.28 106.52 99.28 106.56 99.24 106.56C98.84 106.84 98.44 107.04 98.16 107.2C97.92 107.32 97.68 107.48 97.68 107.48C97.68 107.48 97.68 107.48 97.72 107.48C97.56 107.52 97.36 107.52 97.2 107.6C96.84 107.72 96.52 107.88 96.28 108C95.28 108.16 94.52 108.48 94.52 108.48C94.52 108.48 94.6 108.48 94.68 108.48C94.44 108.6 94.24 108.72 94.08 108.88C94.04 108.92 94.04 108.92 94 108.96C93.56 109.16 93.08 109.4 92.6 109.76C90.88 110.96 90.28 112.56 90.72 113.24C91.16 113.92 102.64 114.24 105.56 114.24C108.52 114.24 110.32 113.56 111.44 113.48C112.56 113.4 113.76 113.72 114.6 112.2C115.2 111.08 114.92 109.8 114.92 108.56C114.96 108.44 115.08 108.12 115.12 107.72C115.16 107.6 115.2 107.44 115.24 107.24C115.24 107.4 115.24 107.48 115.24 107.48C115.24 107.48 115.6 106.76 115.84 105.8C115.96 105.6 116.2 105.16 116.36 104.6C116.32 104.8 116.32 104.92 116.32 104.92C116.32 104.92 116.44 104.76 116.6 104.48C116.76 104.2 116.96 103.8 117.04 103.32C117.08 103.2 117.08 103.08 117.08 102.96C117.24 102.76 117.4 102.48 117.52 102.16C117.64 101.96 117.76 101.72 117.88 101.48C117.88 101.52 117.88 101.52 117.88 101.52C117.88 101.52 118.12 101.04 118.32 100.36C118.32 100.6 118.36 100.76 118.36 100.76C118.36 100.76 118.72 100.16 118.84 99.3597C118.84 99.3197 118.84 99.2797 118.84 99.2397C118.92 99.0797 119 98.9197 119.12 98.7597C119 99.5197 119.04 100.16 119.04 100.16C119.04 100.16 119.32 99.6397 119.56 98.9197C119.68 98.7197 119.84 98.3997 120 97.9997C120.12 97.7997 120.24 97.5197 120.4 97.1597C120.56 96.9197 120.8 96.4797 121 95.9197C120.96 96.1197 120.92 96.2397 120.92 96.2397C120.92 96.2397 121.52 95.5597 122 94.6397C122.08 94.4797 122.16 94.3197 122.2 94.1997C122.36 94.0797 122.64 93.7997 122.88 93.4397C122.8 93.6397 122.76 93.8797 122.72 94.0397C122.64 94.3997 122.64 94.6397 122.64 94.6397C122.64 94.6397 122.76 94.4397 122.96 94.1597C123.12 93.9197 123.32 93.5997 123.52 93.1997C123.6 93.1597 123.68 93.1197 123.76 93.0797C123.92 92.9997 124.12 92.8397 124.28 92.6797C124.32 92.6397 124.36 92.6397 124.4 92.5997C124.72 92.3597 125.16 91.9997 125.52 91.4797C125.72 91.1997 125.88 90.8797 126 90.5997C126.4 90.1997 126.76 89.7997 127.08 89.3597C126.96 89.7597 126.8 90.1197 126.8 90.1197C126.8 90.1197 127 89.8797 127.28 89.4797C127.56 89.0397 127.88 88.4397 128.08 87.6797V87.6397C128.12 87.5597 128.16 87.4797 128.2 87.3997C128.16 87.4797 128.16 87.5597 128.12 87.6397C127.92 88.1997 127.76 88.6797 127.76 88.6797C127.76 88.6797 128 88.3197 128.36 87.7197C128.52 87.4397 128.72 87.0397 128.92 86.6397C128.76 87.1197 128.64 87.4797 128.64 87.4797C128.64 87.4797 128.88 87.1197 129.2 86.4797C129.4 86.1197 129.6 85.6397 129.8 85.0797C129.84 84.9997 129.88 84.9197 129.92 84.8397C129.88 85.0797 129.84 85.2397 129.84 85.2397C129.84 85.2397 130.04 84.9597 130.28 84.4797C130.52 83.9997 130.76 83.2797 130.88 82.4397C130.88 82.2797 130.92 82.1597 130.92 81.9997C130.92 81.9597 130.92 81.9197 130.96 81.8797C130.96 82.0397 130.92 82.1597 130.92 82.1597C130.92 82.1597 131.08 81.7997 131.24 81.1997C131.24 81.1597 131.24 81.1597 131.24 81.1197C131.24 81.2797 131.24 81.3597 131.24 81.3597C131.24 81.3597 131.32 81.0397 131.44 80.5197C131.52 79.9997 131.64 79.2397 131.64 78.4397C131.64 78.2797 131.64 78.1197 131.64 77.9997C131.64 77.9197 131.64 77.8397 131.68 77.7597C131.8 77.1997 131.92 76.6397 132.04 76.0797C132.04 76.3597 132.08 76.6397 132.08 76.8397C132.08 77.3197 132.08 77.7597 132.08 77.7597C132.08 77.7597 132.2 77.4397 132.28 76.8797C132.4 76.3197 132.48 75.5597 132.4 74.6797C132.4 74.6797 132.4 74.6797 132.4 74.6397C132.48 74.4797 132.52 74.2797 132.6 73.9997C132.72 73.5197 132.84 72.8797 132.8 72.1197C132.84 71.9997 132.88 71.8397 132.88 71.6797C133.52 71.1597 133.6 70.3997 133.52 69.5597ZM124.32 92.5597L124.28 92.5997C124.32 92.5997 124.32 92.5597 124.32 92.5597ZM132.88 73.8797C132.88 73.9197 132.88 73.9597 132.88 73.9997C132.88 74.1197 132.88 74.2797 132.84 74.3597C132.84 74.3197 132.84 74.2397 132.84 74.1997C132.84 74.0797 132.84 73.9597 132.88 73.8797Z" fill="#8A5830"/>
<path fill-rule="evenodd" clip-rule="evenodd" d="M23.6805 48.0397C23.3605 48.5197 24.0005 52.3197 24.1205 52.5597C24.2405 52.7997 24.3605 52.9597 24.3605 52.9597C24.7205 52.7597 23.5605 48.6797 24.4005 48.2397C25.2805 47.7997 28.3605 49.1597 29.4405 49.4797C30.5205 49.7997 30.9605 49.5197 30.9605 49.5197C30.0405 49.4797 28.3605 48.4397 26.5605 47.7997C24.7205 47.1597 24.0005 47.5597 23.6805 48.0397Z" fill="#9E6434"/>
<path fill-rule="evenodd" clip-rule="evenodd" d="M38.92 45.0795C34.68 47.6395 31 49.1595 30.16 49.1595C30.16 49.1595 25.2 51.7995 24.08 52.3195C24.08 52.3195 23.64 52.8395 23.04 53.5995C22.36 54.9195 21.84 56.9595 21.72 58.4795C21.56 60.7595 27.36 57.2795 30.16 57.7195C32.96 58.1595 35.12 62.3195 37.04 62.2395C38.92 62.1595 42.48 56.0395 43.36 55.5995C44.28 55.1995 47.52 50.4795 50.24 56.1995C52.96 61.9195 52.04 63.1195 54.16 63.1195C56.28 63.1195 59 55.2795 63.8 54.0795C68.64 52.8795 67.12 62.2395 72.68 62.8395C78.28 63.4395 75.4 54.9995 77.64 52.1195C79.92 49.2395 86.68 55.7195 90 57.8395C93.32 59.9595 90.92 53.5995 88.36 48.9595C85.8 44.2795 79.92 40.9595 75.4 38.2395C73.2 37.8395 70.88 37.1195 66.32 36.8395C50.52 35.7995 51.44 37.4795 38.92 45.0795Z" fill="#85562E"/>
<path d="M65.1595 90.4401C65.1595 90.4401 64.9995 90.4001 64.7995 90.3201C64.4395 90.2001 64.1595 90.0801 64.0395 90.0401C64.0395 90.0401 64.0395 90.0401 63.9995 90.0401C63.9595 90.0001 63.9595 89.9601 63.9195 89.9201C64.0795 89.9201 64.2795 89.9201 64.3995 89.9201C64.5995 89.8801 64.7195 89.8801 64.8395 89.8401C64.9195 89.8001 64.9995 89.8001 64.9995 89.8001C64.9995 89.8001 64.7595 89.7601 64.3995 89.7201C64.1595 89.6801 63.8395 89.6001 63.5195 89.4801C63.4395 89.3601 63.2795 89.2001 63.0795 89.0401C63.2795 89.0401 63.3995 89.0001 63.3995 89.0001C63.3995 89.0001 63.3195 88.9201 63.1995 88.8001C63.0795 88.6801 62.8795 88.5601 62.6795 88.4001C62.5195 88.2801 62.3195 88.2001 62.1995 88.1201C62.0795 88.0001 61.9195 87.8801 61.7995 87.7201C62.4795 88.2001 63.0395 88.4401 63.0395 88.4401C63.0395 88.4401 62.5595 87.7601 61.7995 87.1201C61.5995 86.9601 61.4395 86.8401 61.2395 86.7201C61.5995 86.9201 61.9595 87.1201 62.1995 87.2801C62.6795 87.5601 62.9595 87.8001 62.9595 87.8001C62.9595 87.8001 62.8795 87.7201 62.7995 87.6001C62.6795 87.4801 62.5595 87.3201 62.3195 87.1201C61.9195 86.7201 61.2795 86.2401 60.4395 85.8401C60.4395 85.8401 60.4395 85.8401 60.3995 85.8401C60.3595 85.8001 60.3195 85.7601 60.1995 85.6801L60.1595 85.6401C60.3195 85.6401 60.3995 85.6401 60.3995 85.6401C60.3995 85.6401 60.1195 85.2401 59.6795 85.0401C59.5595 84.9201 59.4395 84.8001 59.2395 84.6801C59.1195 84.6001 59.0395 84.4801 58.9195 84.4001C59.0795 84.3601 59.1995 84.3201 59.1995 84.3201C59.1995 84.3201 58.8395 84.0001 58.3595 83.9201C58.3595 83.9201 58.3595 83.9201 58.3195 83.9201C58.1995 83.8401 58.0395 83.7201 57.9195 83.6401C58.1195 83.6801 58.2795 83.6801 58.3995 83.6801C58.7195 83.6801 58.8795 83.6001 58.8795 83.6001C58.8795 83.6001 58.6395 83.5201 58.4395 83.4401C58.1595 83.3201 57.7995 83.2001 57.3995 83.0401C57.1595 82.9601 56.9595 82.8401 56.7595 82.7601C56.9195 82.8001 56.9995 82.8401 56.9995 82.8401C56.9995 82.8401 56.6395 82.4001 55.9995 82.0001C56.9995 82.0801 57.7595 82.0001 57.7595 82.0001C57.7595 82.0001 56.8395 81.6401 55.6395 81.5201C55.5995 81.4801 55.5595 81.4801 55.5195 81.4401C55.5595 81.4401 55.5595 81.4401 55.5995 81.4401C55.8795 81.4401 56.0795 81.4001 56.0795 81.4001C56.0795 81.4001 55.9195 81.3201 55.6795 81.2001C55.5995 81.1601 55.5595 81.1201 55.4795 81.0801C55.5195 81.0801 55.5195 81.0801 55.5595 81.0801C55.8395 81.1601 55.9995 81.1601 55.9995 81.1601C55.9995 81.1601 55.8795 81.0401 55.6795 80.8801C55.5195 80.7601 55.3595 80.6001 55.1195 80.4401H55.1595C55.4795 80.5201 55.7195 80.5201 55.7195 80.5201C55.7195 80.5201 55.5595 80.4001 55.2795 80.2401C55.1195 80.1601 54.9195 80.0401 54.7195 79.8801C54.5195 79.6401 54.0795 79.2001 53.5195 78.7601C53.7195 78.8801 53.8795 78.9601 53.8795 78.9601C53.8795 78.9601 53.3595 78.2001 52.5195 77.4401C52.4795 77.3601 52.4395 77.2801 52.3995 77.2001C52.8795 77.5201 53.2795 77.6801 53.2795 77.6801C53.2795 77.6801 52.9195 77.0401 52.2395 76.4801C52.1195 76.4001 52.0395 76.3201 51.9195 76.2401C51.9195 76.2001 51.8795 76.1601 51.8795 76.1201C51.9195 76.1601 51.9595 76.2001 51.9995 76.2001C52.1995 76.3601 52.3995 76.4801 52.5995 76.5601C52.7995 76.6401 52.9595 76.6401 53.0795 76.6001C53.1995 76.5601 53.2395 76.5201 53.2395 76.5201C53.2395 76.5201 52.9995 76.5601 52.7195 76.3201C52.4795 76.1201 52.1595 75.6801 51.7195 75.3201C51.7195 75.3201 51.6795 75.3201 51.6795 75.2801C51.7995 75.3601 51.9195 75.4001 51.9995 75.4401C52.1995 75.5201 52.4395 75.5201 52.5195 75.4001C52.6395 75.3201 52.5995 75.2401 52.5995 75.2401C52.5995 75.2401 52.5595 75.3201 52.4795 75.3201C52.3595 75.3601 52.2395 75.3201 52.1195 75.2001C51.9195 75.0401 51.5995 74.7201 51.1995 74.4001C51.1195 74.1601 50.9995 73.9601 50.9195 73.7201C51.1595 73.8401 51.3595 73.9601 51.5595 74.0401C51.9195 74.2001 52.1595 74.2401 52.1595 74.2401C52.1595 74.2401 51.9595 74.0801 51.6795 73.8401C51.3995 73.6001 51.0395 73.2801 50.5995 72.9601C50.5195 72.8001 50.4795 72.6001 50.3995 72.4401C50.9595 73.0801 51.4395 73.4801 51.4395 73.4801C51.4395 73.4801 50.9195 72.4001 50.0395 71.2401C49.9995 71.2001 49.9595 71.2001 49.9595 71.1601C49.9195 71.1201 49.9195 71.0801 49.8795 71.0401C49.8395 70.8801 49.7595 70.7201 49.7195 70.5601C50.1595 70.9201 50.4795 71.1601 50.4795 71.1601C50.4795 71.1601 50.2395 70.6801 49.8395 70.1201C49.9195 70.1201 49.9595 70.1201 49.9995 70.1201C50.0795 70.1201 50.1195 70.1201 50.1195 70.1201C50.1195 70.1201 49.9595 70.0401 49.7195 69.8401C49.5995 69.7601 49.5195 69.6801 49.3995 69.5601C49.3595 69.5201 49.3595 69.5201 49.3195 69.4801C49.2795 69.3601 49.2395 69.2401 49.1995 69.1201C49.5595 69.4401 49.8795 69.6001 49.8795 69.6001C49.8795 69.6001 49.7995 69.4001 49.6795 69.1601C49.7595 69.2001 49.8395 69.2401 49.8395 69.2401C49.8395 69.2401 49.7195 69.0401 49.5595 68.8801C49.3995 68.6401 49.1995 68.3601 48.9195 68.0401C48.8395 67.9201 48.7595 67.8401 48.6795 67.7201C48.5995 67.4801 48.5195 67.2801 48.4795 67.1201C48.4795 66.5601 48.3195 66.1201 48.3195 66.1201C48.3195 66.1201 48.1595 66.4001 48.0795 66.7601C48.0395 66.4801 47.9595 66.2801 47.9595 66.2801C47.9595 66.2801 47.9195 66.6001 47.8395 66.9201C47.7595 67.3201 47.6795 67.8801 47.5595 68.4801C47.5595 68.5601 47.5195 68.6401 47.5195 68.7201C47.5595 68.3601 47.5595 68.0801 47.5595 67.8001C47.5195 67.3601 47.4795 67.0801 47.4795 67.0801C47.4795 67.0801 47.3995 67.4401 47.3195 67.8001C47.2395 68.2401 47.0795 68.8401 46.9195 69.4401C46.8395 69.7601 46.7195 70.0801 46.6395 70.3601C46.6795 70.1201 46.6795 69.9201 46.6795 69.7601C46.6795 69.5201 46.6395 69.3601 46.5995 69.2401C46.5595 69.1201 46.5595 69.0401 46.5595 69.0401C46.5595 69.0401 46.5195 69.3201 46.4395 69.7201C46.3595 70.1601 46.1595 70.7201 45.9195 71.2801C45.8795 71.3601 45.8795 71.4001 45.8395 71.4801C45.6795 71.6801 45.5195 71.8401 45.3595 72.0001C45.5195 71.6001 45.5995 71.2401 45.5995 70.9601C45.5995 70.7201 45.5995 70.5601 45.5995 70.4001C45.5995 70.2801 45.5995 70.2001 45.5995 70.2001C45.5995 70.2001 45.5595 70.2801 45.5595 70.4001C45.5195 70.5201 45.4795 70.6801 45.3995 70.9201C45.2395 71.3201 44.9995 71.8801 44.6395 72.4401C44.5595 72.5601 44.5195 72.6401 44.4395 72.7201C44.2395 72.8401 43.9995 72.9601 43.7995 73.0801C44.5595 72.2001 44.9995 71.4001 44.9995 71.4001C44.9995 71.4001 44.5195 71.7201 43.9195 72.3201L43.9595 72.2801C43.9595 72.2801 42.9595 72.8401 41.9195 73.7601L41.8795 73.8001C41.8395 73.8001 41.7995 73.8401 41.7595 73.8401C42.2795 73.3201 42.7995 72.8801 43.1995 72.5601C43.4395 72.4001 43.6395 72.2401 43.7595 72.1601C43.8795 72.0801 43.9595 72.0001 43.9595 72.0001C43.9595 72.0001 43.8795 72.0401 43.7195 72.0801C43.5595 72.1201 43.3195 72.2001 43.0795 72.3201C42.5595 72.5601 41.8395 73.0001 41.1995 73.6801C41.0395 73.8401 40.9195 74.0001 40.7995 74.1601C40.7995 74.1601 40.7595 74.1601 40.7595 74.2001C41.0795 73.8401 41.3595 73.5201 41.5995 73.2801C41.8395 73.0401 42.0395 72.8401 42.1995 72.7201C42.3195 72.6001 42.4395 72.5201 42.4395 72.5201C42.4395 72.5201 42.3195 72.5601 42.1595 72.6801C41.9995 72.7601 41.7195 72.9201 41.4395 73.1201C41.0395 73.4001 40.5595 73.8001 40.1195 74.2801C40.1595 74.1601 40.1995 74.0401 40.1995 74.0401C40.1995 74.0401 39.6795 74.3201 39.2395 74.8801C39.1195 75.0001 39.0395 75.1601 38.9595 75.2801C38.9195 75.3201 38.8395 75.3601 38.7995 75.4001C38.8395 75.3601 38.8395 75.3201 38.8795 75.2801C39.1195 74.8801 39.3595 74.4801 39.5595 74.2401C39.7195 74.0001 39.8795 73.8001 39.8795 73.8001C39.8795 73.8001 39.6795 73.8801 39.3995 74.0801C39.1195 74.2801 38.7595 74.6001 38.4795 75.0401C38.3995 75.1201 38.3595 75.2401 38.3195 75.3201C38.3195 75.3201 38.1595 75.4801 37.9195 75.7601C37.8395 75.8401 37.7195 75.9601 37.5595 76.1201C37.2795 76.4001 36.9195 76.7601 36.5595 77.2001C36.4795 77.2801 36.4395 77.3601 36.3595 77.4401C36.7995 76.8001 37.0395 76.2801 37.0395 76.2801C37.0395 76.2801 36.5995 76.5601 36.1195 77.0801C36.2795 76.7601 36.3595 76.5601 36.3595 76.5601C36.3595 76.5601 36.1195 76.8001 35.8795 77.0401C35.5995 77.3201 35.1595 77.7201 34.6795 78.1201C34.6395 78.1601 34.5995 78.2001 34.5195 78.2401C34.6795 78.0001 34.7995 77.7601 34.8795 77.5601C35.0395 77.1601 35.0795 76.8801 35.0795 76.8801C35.0795 76.8801 34.8795 77.1601 34.6395 77.4401C34.3595 77.7601 33.9995 78.2001 33.5595 78.6401C33.4395 78.7601 33.3195 78.8801 33.2395 78.9601C33.0795 79.0401 32.8395 79.1601 32.5595 79.3201C32.5595 79.3201 32.5595 79.3201 32.5195 79.3201C33.3595 78.6401 33.9195 78.0401 33.9195 78.0401C33.9195 78.0401 33.2795 78.3201 32.4795 78.8401C32.4395 78.8401 32.1995 78.8801 31.7995 78.9601C31.4395 79.0401 30.9595 79.2001 30.4795 79.4401C30.5195 79.4001 30.5595 79.3601 30.5595 79.3601C30.8395 79.0801 30.9595 78.8801 30.9595 78.8801C30.9595 78.8801 30.6795 79.0401 30.4395 79.1601C29.9195 79.4401 29.4795 79.6801 29.1995 79.8401C28.9595 79.9601 28.5995 80.1601 28.1595 80.4001C26.9595 80.4801 25.7195 80.4801 24.4395 80.5601C25.0795 80.8401 27.1595 81.9201 28.8795 82.1201C30.5995 82.3201 36.5995 81.4001 38.1595 81.3601C40.2795 81.3201 43.2395 83.0801 45.6795 84.2001C49.5995 86.0001 46.5195 91.3601 47.1195 94.6001C47.2395 95.2401 47.3595 95.9201 47.4395 96.6001C56.4795 97.4401 65.5195 92.6401 64.7595 90.7601C64.8395 90.7201 64.8795 90.7201 64.8795 90.7201C64.8795 90.7201 64.8395 90.6401 64.7995 90.5601C64.8395 90.5601 64.9195 90.5601 64.9595 90.5201C65.0395 90.5201 65.1595 90.4401 65.1595 90.4401ZM60.4395 86.4001C60.3995 86.3601 60.3595 86.3201 60.3195 86.2801C60.3195 86.2801 60.3595 86.2801 60.3595 86.3201C60.3995 86.3201 60.4395 86.3601 60.4395 86.4001ZM34.8795 78.5201C34.8395 78.5601 34.8395 78.6001 34.7995 78.6401C34.7195 78.6801 34.6395 78.7201 34.5595 78.7601C34.6795 78.6801 34.7595 78.6001 34.8795 78.5201ZM31.7995 79.2401C31.9195 79.1601 32.0395 79.0801 32.1595 79.0401C31.9995 79.1201 31.8795 79.2401 31.7195 79.3201C31.5995 79.4001 31.4795 79.5201 31.3195 79.6001C31.1995 79.6401 31.0795 79.6801 30.9595 79.7201C31.2795 79.5601 31.5595 79.3601 31.7995 79.2401Z" fill="#815326"/>
<path fill-rule="evenodd" clip-rule="evenodd" d="M19.3203 78.76C19.3203 78.76 19.3603 78.84 19.4003 78.96C19.9203 79 21.5203 79.32 22.4403 79.28C23.5203 79.24 25.6803 78.6 26.0403 78.2C26.4003 77.8 27.0403 76.2 27.0403 76.08C27.0803 75.96 26.6803 76.6 26.3603 77.24C26.0403 77.84 25.4403 78.32 23.6803 78.76C21.9603 79.16 19.3203 78.76 19.3203 78.76Z" fill="#754921"/>
<path fill-rule="evenodd" clip-rule="evenodd" d="M14.5194 73.1591C14.4794 73.1991 14.4794 73.2391 14.4394 73.2791C13.6394 74.8391 14.0394 76.1591 14.4794 76.3591C14.9194 76.5591 15.3594 76.4391 15.3994 76.5191C15.4394 76.5991 16.1194 77.6391 17.4794 78.2391C17.8794 77.9591 17.8794 77.8391 18.6394 77.6791C19.3994 77.4791 20.0394 75.9991 20.2394 75.3991C20.4394 74.8391 19.8394 74.1991 19.2794 74.1191C18.7194 74.0391 18.5994 74.1991 17.8794 73.6791C16.8794 73.0791 15.6394 73.0791 14.5194 73.1591Z" fill="#404041"/>
<path d="M65.8393 92.6398C65.8393 92.6398 65.7993 92.5198 65.7193 92.2798C65.7193 92.1598 65.6793 92.0798 65.6793 91.9598C65.5993 91.5998 65.4793 91.3598 65.4793 91.3598C65.4793 91.3598 65.4793 91.5198 65.4393 91.7598C65.0393 91.1198 64.2393 90.1998 62.7193 89.2798C56.5993 85.7198 49.1193 85.6798 43.9993 83.4798C43.9993 83.4398 44.0393 83.3998 44.0393 83.3598C44.1193 83.1998 44.1593 83.0398 44.1993 82.9598C44.2393 82.8798 44.2793 82.7998 44.2793 82.7998C44.2793 82.7998 44.2393 82.8398 44.1593 82.9198C44.0793 82.9998 43.9593 83.0798 43.8393 83.2398C43.7993 83.2798 43.7593 83.3198 43.7593 83.3598C43.5993 83.2798 43.4793 83.2398 43.3593 83.1598C43.3193 83.4398 43.3193 83.7998 43.3593 84.1598C43.3193 84.2798 43.2793 84.4398 43.2393 84.5598C43.1193 85.1598 43.1993 85.6798 43.3193 86.0398C43.3193 86.0798 43.3593 86.1198 43.3593 86.1598C43.3593 86.6398 43.5193 87.0798 43.6393 87.3598C43.6793 87.4798 43.7593 87.5198 43.7993 87.5998C43.8393 87.7198 43.8793 87.8398 43.9593 87.9198C44.1193 88.1598 44.2393 88.3198 44.2393 88.3198C44.2393 88.3198 44.1993 87.6798 44.1593 87.1998C44.1593 87.2398 44.1593 87.2398 44.1593 87.2798C44.2393 87.7198 44.3993 88.1198 44.5193 88.3998C44.5593 88.4398 44.5593 88.4798 44.5993 88.5198C44.6793 89.5198 44.9593 90.2798 44.9593 90.2798C44.9593 90.2798 44.9993 90.1598 45.0393 89.9198C45.0793 90.0398 45.1193 90.0798 45.1193 90.0798C45.1193 90.0798 45.1593 89.9598 45.2393 89.7598C45.3193 89.9198 45.3593 90.0798 45.4393 90.2398C45.4393 90.3998 45.4393 90.5598 45.4793 90.7198C45.5193 91.0798 45.6393 91.3998 45.7193 91.6398C45.7193 91.7198 45.7193 91.7598 45.7193 91.8398C45.7593 92.3198 45.9193 92.7198 46.0793 92.9998V93.0398C46.1193 93.7198 46.3593 94.2398 46.3593 94.2398C46.3593 94.2398 46.4393 93.9998 46.5193 93.5998C46.5993 94.6398 46.7993 95.3998 46.7993 95.3998C46.7993 95.3998 46.7993 95.3598 46.7993 95.3198C46.8393 95.5998 46.8793 95.7998 46.8793 95.8398C46.8793 95.9198 46.8793 95.9998 46.8793 96.1198C46.7993 97.0798 46.9593 97.8798 46.9593 97.8798C46.9593 97.8798 47.1993 97.2398 47.3193 96.3598C47.3193 96.4398 47.3193 96.5198 47.3593 96.5598C47.3193 96.7598 47.2793 96.9198 47.2393 97.1198C47.1193 97.7998 47.1593 98.3598 47.1593 98.6798C47.1593 98.7198 47.1593 98.7198 47.1593 98.7598C47.1193 99.0798 47.0793 99.2798 47.0793 99.2798C47.0793 99.2798 47.1993 99.1598 47.3193 98.9198C47.2393 99.1598 47.1593 99.3598 47.0793 99.5198C46.9993 99.7598 46.9193 99.9598 46.9193 99.9598C46.9193 99.9598 46.9593 99.9198 47.0393 99.8798C46.9193 100.28 46.9193 100.6 46.9193 100.6C46.9193 100.6 46.9593 100.56 47.0393 100.44C46.9593 100.8 46.9593 101.04 46.9593 101.04C46.9593 101.04 47.0393 100.96 47.1593 100.84C47.0793 101.28 47.1193 101.64 47.1193 101.64C47.1193 101.64 47.1193 101.6 47.1593 101.6C46.9193 102.28 46.9193 102.84 46.9193 102.84C46.9193 102.84 47.0793 102.68 47.2393 102.36C47.2393 102.8 47.2793 103.08 47.2793 103.08C47.2793 103.08 47.3993 102.84 47.5193 102.48C47.5193 102.6 47.4793 102.72 47.4793 102.84C47.3593 103.08 47.2393 103.36 47.1593 103.64C47.1593 103.68 47.1593 103.68 47.1193 103.72C47.0793 103.76 47.0793 103.8 47.0393 103.84C46.9593 104.04 46.8793 104.24 46.8393 104.44C46.7993 104.52 46.7593 104.64 46.7593 104.72C46.6793 105 46.5993 105.2 46.5993 105.2C46.5993 105.2 46.6793 105.16 46.7593 105.04C46.6793 105.2 46.5593 105.36 46.4793 105.52C46.3193 105.76 46.1593 106.04 46.1593 106.04C46.1593 106.04 46.3593 105.92 46.6393 105.68C46.6793 105.64 46.7193 105.6 46.7593 105.56C46.6793 105.8 46.5993 106.04 46.5593 106.24C46.5193 106.4 46.4393 106.56 46.3993 106.72C46.2793 106.92 46.1593 107.12 46.0393 107.32C45.9593 107.4 45.8793 107.52 45.7993 107.6C45.6793 107.64 45.5993 107.68 45.4793 107.76C45.3993 107.8 45.3593 107.84 45.2793 107.88C45.1193 107.84 44.9193 107.84 44.7193 107.84C44.0793 107.84 43.5593 108.12 43.5593 108.12C43.5593 108.12 43.5993 108.12 43.6393 108.16C43.3993 108.16 43.1993 108.24 43.0793 108.28C43.0393 108.28 43.0393 108.28 42.9993 108.28C42.6793 108.32 42.3993 108.4 42.1993 108.48C41.1593 108.6 40.1993 108.76 39.7193 109.08C38.5593 109.84 38.0793 110.32 37.7993 111.32C37.5193 112.32 37.7593 112.72 37.9593 112.76C38.1593 112.76 38.1993 112.76 38.2793 112.96C38.3593 113.16 38.6393 113.48 39.1193 113.36C39.5993 113.24 39.9993 113.16 40.1993 113.32C40.4393 113.48 40.6393 113.68 41.0393 113.64C41.4393 113.6 41.5193 113.6 41.7593 113.6C42.0393 113.6 47.3593 113.92 49.3993 113.76C51.4393 113.6 51.9193 113.44 53.1593 113C54.3993 112.6 54.7593 112.04 54.7593 112.04C54.7593 112.04 55.5193 111.64 56.3993 111.16C57.3193 110.72 57.9593 109.76 58.0793 108.8C58.1193 108.6 58.1593 108.44 58.1993 108.28C58.2393 108.2 58.3193 108.08 58.3593 108C58.3993 107.92 58.4393 107.84 58.4393 107.76C58.5193 107.68 58.5993 107.6 58.7193 107.52C58.7193 107.6 58.6793 107.64 58.6793 107.64C58.6793 107.64 58.7993 107.56 58.9993 107.4C58.8793 107.6 58.7593 107.8 58.7593 107.8C58.7593 107.8 58.9193 107.76 59.1593 107.64C59.3593 107.52 59.6393 107.28 59.8793 106.96C59.9993 106.92 60.0793 106.88 60.1993 106.88C60.1593 107 60.1193 107.08 60.0393 107.16C59.8793 107.48 59.7593 107.64 59.7593 107.64C59.7593 107.64 59.9593 107.52 60.1993 107.28C60.3593 107.16 60.5193 106.96 60.6393 106.72C60.7193 106.64 60.7993 106.56 60.8793 106.48C61.1593 106.16 61.4793 105.64 61.6793 105.04C61.6793 105.36 61.6793 105.56 61.6793 105.56C61.6793 105.56 61.7993 105.36 61.9193 105C61.9993 104.76 62.1193 104.44 62.1993 104.08C62.1593 104.36 62.1193 104.6 62.1193 104.6C62.1193 104.6 62.2793 104.4 62.4393 104.04C62.5593 103.8 62.6393 103.52 62.7593 103.16C62.7593 103.28 62.7993 103.36 62.7993 103.36C62.7993 103.36 63.1193 102.4 63.2793 101.2C63.2793 101.12 63.2793 101.04 63.3193 100.96C63.3593 100.88 63.3593 100.8 63.3993 100.72C63.4393 101.4 63.5193 101.84 63.5193 101.84C63.5193 101.84 63.7993 100.88 63.8793 99.6398C63.8793 99.4798 63.8793 99.3598 63.8793 99.2398C63.9193 99.1598 63.9193 99.0798 63.9593 98.9998C63.9593 99.4398 63.9593 99.8398 63.9593 99.8398C63.9593 99.8398 64.0793 99.6398 64.1993 99.2798C64.2393 99.1198 64.2793 98.9598 64.3193 98.7598C64.3193 98.8398 64.3193 98.9198 64.3193 98.9198C64.3193 98.9198 64.3993 98.7198 64.5193 98.3598C64.5993 98.0398 64.6793 97.5598 64.6793 97.0398C64.7193 97.1598 64.7593 97.2398 64.7593 97.2398C64.7593 97.2398 64.8793 96.6398 64.8393 95.8798C64.8393 95.9198 64.8393 95.9198 64.8793 95.9598C64.9993 96.3598 65.1193 96.5998 65.1193 96.5998C65.1193 96.5998 65.1193 96.3198 65.0793 95.9198C65.0793 95.6398 65.0393 95.2398 65.0393 94.8398C65.0393 94.7998 65.0793 94.7998 65.0793 94.7998C65.2793 94.4798 65.4793 93.9598 65.5593 93.3998C65.5993 93.1998 65.5993 92.9998 65.5993 92.7998C65.7993 92.7198 65.8393 92.6398 65.8393 92.6398Z" fill="#754A1F"/>
<path fill-rule="evenodd" clip-rule="evenodd" d="M17.1598 76.5595C16.7198 76.4795 15.4398 75.3195 15.7598 75.1595C16.0398 74.9995 16.8798 75.5595 17.2798 75.5995C17.6798 75.6395 17.8798 75.7595 17.9598 76.0395C18.0798 76.2795 18.3198 76.3995 18.4398 76.3195C18.5198 76.2395 18.9198 75.7995 18.9598 76.1195C18.9598 76.3995 18.9198 76.9595 18.3998 76.8795C17.7998 76.7195 17.1598 76.5595 17.1598 76.5595Z" fill="#36373A"/>
<path fill-rule="evenodd" clip-rule="evenodd" d="M24.0804 66.8794C24.5604 66.2794 25.3204 65.4394 26.6404 65.5594C27.9604 65.6794 29.1204 67.3994 29.5604 67.7594C29.9604 68.1194 30.6404 68.6794 30.5204 68.6394C30.3604 68.5594 29.6004 68.5194 29.7204 68.5994C29.8404 68.6794 30.0004 69.0794 30.0404 69.3194C30.0804 69.5594 30.1204 70.2794 30.1204 70.2794L29.7204 69.9594C29.7204 69.9594 29.5604 71.4794 29.5204 71.3594C29.4804 71.2394 29.0804 70.9994 28.9604 70.9594C28.8404 70.9194 28.5204 71.2794 27.5604 71.5194C26.6004 71.7594 25.4804 72.1994 24.6004 71.2394C23.7204 70.2394 23.3204 70.7594 22.8004 71.2794C22.2804 71.7994 21.1604 73.0794 21.2804 72.3994C21.4004 71.7194 23.2004 69.3994 23.4404 68.3994C23.6404 67.3594 24.0804 66.8794 24.0804 66.8794Z" fill="#815227"/>
<path fill-rule="evenodd" clip-rule="evenodd" d="M25.3598 67.76C25.5198 67.56 25.9198 67.32 26.3998 67.48C26.9198 67.64 27.3998 67.92 27.2398 68.2C27.0798 68.48 26.4398 68.76 26.0398 68.64C25.6398 68.48 25.3598 68.36 25.3198 68.2C25.2798 68 25.3598 67.76 25.3598 67.76Z" fill="#404041"/>
<path fill-rule="evenodd" clip-rule="evenodd" d="M39.8393 51.2001C41.6793 50.1601 43.4793 48.9601 44.1993 50.6001C44.9593 52.2001 46.0793 54.3601 45.4793 56.3201C44.8793 58.3201 43.2793 58.3201 41.3193 58.9601C37.8793 60.1201 32.4393 55.2801 39.8393 51.2001Z" fill="#815227"/>
<path fill-rule="evenodd" clip-rule="evenodd" d="M35.8794 53.9594C39.9194 48.7194 43.5194 45.0794 45.6394 51.9194C46.2794 54.0394 45.0394 58.1994 45.0794 57.8394C45.1194 57.4794 45.7194 54.2394 44.5594 52.5194C41.3994 47.9594 37.4794 53.1994 37.2394 54.6394C36.9194 56.6394 39.6394 60.2394 37.4394 58.0794C35.1594 55.9594 35.8794 53.9594 35.8794 53.9594Z" fill="#9E6434"/>
<path d="M114.52 85.1595C114.68 85.0795 114.84 85.0395 114.84 85.0395C114.84 85.0395 114.52 85.0395 114.04 85.1195C113.56 85.1995 112.92 85.3195 112.2 85.5995C111.52 85.8795 110.92 86.1995 110.52 86.4795C110.52 86.4795 110.52 86.4795 110.48 86.4795C110.36 86.5195 110.2 86.5595 110.08 86.5995C110.2 86.5195 110.28 86.4395 110.28 86.4395C110.28 86.4395 109.52 86.5195 108.72 86.8395C108.44 86.8795 108.04 86.9595 107.6 87.1195C107.56 87.1195 107.52 87.1595 107.48 87.1595C107.52 87.1195 107.56 87.0795 107.56 87.0795C107.56 87.0795 106.96 87.1595 106.36 87.4795C106.68 87.1995 106.84 86.9595 106.84 86.9595C106.84 86.9595 106.44 87.0395 105.96 87.2795C105.96 87.2395 106 87.2395 106 87.2395C106 87.2395 105.28 87.3995 104.52 87.8795C104.48 87.9195 104.44 87.9195 104.4 87.9594C104.2 87.9995 103.96 88.1195 103.68 88.2795C103.48 88.3195 103.28 88.3595 103.08 88.4395V88.3995C103.08 88.3995 102.92 88.3995 102.72 88.4795H102.68C102.72 88.3995 102.72 88.3594 102.72 88.3594C102.72 88.3594 102.32 88.3595 101.96 88.5995C101.8 88.6395 101.68 88.6395 101.52 88.6795C101.72 88.5195 101.92 88.4395 102 88.3594C102.12 88.2794 102.44 88.0795 102.8 87.8395C102.96 87.7195 103.16 87.5995 103.16 87.5995C103.16 87.5995 103 87.5595 102.72 87.5995C102.44 87.6395 102.08 87.7194 101.76 87.9594C101.72 87.9995 101.68 88.0395 101.64 88.0395C101.6 88.0395 101.56 88.0795 101.48 88.0795C101.24 88.1595 100.92 88.3595 100.64 88.6395C100.6 88.6795 100.6 88.7194 100.56 88.7595C100.48 88.7595 100.36 88.7595 100.28 88.7995C100.36 88.7195 100.44 88.6795 100.52 88.6395C100.72 88.5195 100.84 88.4395 100.84 88.4395C100.84 88.4395 100.68 88.3995 100.44 88.3995C100.24 88.3995 99.9603 88.4795 99.7203 88.6395C99.6803 88.6795 99.6403 88.6795 99.6003 88.7195C99.5603 88.7595 99.4803 88.7995 99.4403 88.8795C99.2003 88.8795 98.9603 88.8795 98.7203 88.8795C98.7203 88.7195 98.7603 88.5195 98.8003 88.3995C98.8403 88.1595 98.9203 88.0395 98.9203 88.0395C98.9203 88.0395 98.8803 88.0795 98.8403 88.0795C98.7603 88.1195 98.6803 88.1995 98.6003 88.2795C98.4803 88.3995 98.3603 88.5995 98.3203 88.8395C98.2403 88.8395 98.1203 88.8395 98.0403 88.7995C98.0003 88.6795 98.0003 88.5995 97.9603 88.5195C97.9203 88.3595 97.8803 88.1995 97.8803 88.1995C97.8803 88.1995 97.8003 88.3195 97.7203 88.4795C97.7203 88.5195 97.6803 88.5595 97.6803 88.5995C97.3603 87.9995 96.9203 87.6395 96.9203 87.6395C96.9203 87.6395 96.9203 87.8795 97.0403 88.1995C96.6003 87.7195 96.1603 87.3995 96.1603 87.3995C96.1603 87.3995 96.3203 87.8395 96.6403 88.3594C96.1203 87.9594 95.6003 87.7995 95.6003 87.7995C95.6003 87.7995 95.7603 88.0795 96.0403 88.3995C96.0003 88.3995 95.9603 88.3995 95.9603 88.3594C95.8803 88.2395 95.7603 88.0795 95.6403 87.9594C95.5203 87.8395 95.4003 87.7595 95.2803 87.7195C95.0803 87.3995 94.8003 87.1595 94.5603 87.0395C94.3603 86.9195 94.2003 86.8395 94.2003 86.8395C94.2003 86.8395 94.2803 86.9995 94.4003 87.1995C94.4403 87.2395 94.4803 87.3195 94.5203 87.3995C94.3603 87.2795 94.2403 87.1995 94.2403 87.1995C94.2403 87.1995 94.2403 87.2795 94.2403 87.3595C93.8803 86.7995 93.4403 86.4395 93.4403 86.4395C93.4403 86.4395 93.4803 86.9195 93.7603 87.4795C93.6403 87.4395 93.5603 87.3595 93.4403 87.2795C93.2803 86.8795 93.0403 86.4395 92.7203 85.9595C92.3203 85.3995 91.8803 84.9995 91.5203 84.7195C91.1603 84.4395 90.9203 84.3195 90.9203 84.3195C90.9203 84.3195 91.4803 85.0795 91.9603 85.7195C91.9603 85.7595 91.9603 85.8395 91.9603 85.9595C91.8803 85.8795 91.8403 85.7595 91.7603 85.6795C91.6803 85.5595 91.5603 85.4795 91.4803 85.3995C91.3203 85.1995 91.1603 85.0395 91.0003 84.9195C90.7203 84.7195 90.5603 84.5995 90.5603 84.5995C90.5603 84.5995 90.6403 84.7195 90.7203 84.8395H90.6803C90.3203 84.1995 89.8803 83.6795 89.4803 83.3595C89.0803 82.9995 88.8003 82.8395 88.8003 82.8395C88.8003 82.8395 89.0003 83.1195 89.3203 83.5195C89.4403 83.6795 89.6003 83.9195 89.7203 84.1195C89.6003 84.0395 89.5203 83.9595 89.4403 83.9195C89.4003 83.8395 89.3603 83.7995 89.2803 83.7195C88.8403 83.1595 88.3203 82.8795 88.3203 82.8795C88.3203 82.8795 88.3203 82.9195 88.3603 82.9995C88.3203 82.9595 88.2803 82.9195 88.2803 82.9195C88.2803 82.9195 88.2803 82.9195 88.2803 82.9595C87.8403 82.2795 87.4403 81.7995 87.4403 81.7995C87.4403 81.7995 87.5203 82.1595 87.7203 82.6395C87.4803 82.3995 87.2403 82.1595 87.0403 81.8795C86.9603 81.7595 86.8403 81.5995 86.7603 81.5195C86.6803 81.3595 86.6403 81.1595 86.5603 80.9595C86.2403 80.1995 85.8403 79.5995 85.6403 79.3195C85.2803 78.3595 84.8403 77.6795 84.8403 77.6795C84.8403 77.6795 84.8803 78.5195 85.2403 79.5195C85.0003 79.1595 84.7203 78.7595 84.4803 78.3995C84.3203 77.9995 84.2003 77.6395 84.0803 77.3995C83.9603 77.1195 83.8803 76.9195 83.8803 76.9195C83.8803 76.9195 83.8403 77.1195 83.8403 77.4395C83.8003 77.3595 83.7203 77.2795 83.6803 77.1995C83.6403 77.0795 83.6003 76.9595 83.5603 76.8395C83.1203 75.7195 82.5203 74.9195 82.5203 74.9195C82.5203 74.9195 82.5203 74.9995 82.5603 75.1195C82.3603 74.7195 82.1603 74.3995 82.0003 74.1995C81.2803 72.8395 80.7603 71.8395 80.5603 71.4395C83.7603 81.8395 84.0803 87.0795 85.0003 89.5995C86.3603 93.1995 85.2403 106.479 83.7203 109.359C82.7203 111.279 79.9603 113.879 77.3203 115.679C78.9603 115.519 80.3203 115.599 81.2403 114.639C82.5203 113.279 83.0403 112.599 83.7203 112.159C84.2403 111.839 84.6403 111.279 85.0003 110.599C85.0403 110.519 85.1203 110.479 85.2003 110.359C85.3603 110.119 85.5603 109.799 85.6803 109.439C85.7203 109.359 85.7603 109.319 85.8003 109.239C85.9603 108.959 86.1203 108.519 86.2003 108.079C86.2403 107.999 86.2403 107.919 86.2803 107.799C86.4003 107.359 86.5203 106.719 86.5603 106.039C86.5603 105.959 86.5603 105.919 86.5603 105.839C86.6403 105.559 86.6803 105.199 86.6403 104.839C86.6403 104.639 86.6003 104.479 86.5603 104.279C86.5603 104.199 86.5603 104.159 86.6003 104.079C86.6403 104.279 86.6403 104.399 86.6403 104.399C86.6403 104.399 86.7203 104.159 86.7603 103.759C86.8003 103.479 86.8403 103.079 86.8403 102.639C86.8403 102.639 87.0003 101.759 86.8803 100.679C86.8803 100.519 86.8403 100.359 86.8403 100.239C86.8403 100.239 86.8403 100.239 86.8403 100.199C86.9203 100.599 87.0003 100.999 87.0403 101.279C87.1203 101.719 87.2003 101.999 87.2003 101.999C87.2003 101.999 87.2403 101.719 87.2803 101.279C87.3203 100.839 87.3203 100.199 87.2003 99.4795C87.1203 99.0395 87.0403 98.6795 86.9203 98.3195C86.9203 97.9995 86.9603 97.6795 86.9603 97.3995C86.9603 97.4395 86.9603 97.4395 87.0003 97.4795C87.0803 97.6795 87.1603 97.8795 87.1603 98.0395C87.1603 98.1995 87.1603 98.3195 87.1203 98.3995C87.0803 98.4795 87.0403 98.5195 87.0403 98.5195C87.0403 98.5195 87.0803 98.5195 87.2003 98.4395C87.2803 98.3595 87.4003 98.2395 87.4403 98.0395C87.4803 97.8395 87.4803 97.5994 87.4403 97.3594C87.4003 97.1194 87.3603 96.8795 87.2803 96.5995C87.2403 96.4795 87.2003 96.3595 87.1603 96.2395C87.1603 95.9595 87.1203 95.5995 87.0403 95.1995C87.0403 94.9995 87.0403 94.8395 87.0403 94.6795C87.0803 94.7595 87.1203 94.8395 87.1603 94.9195C87.2803 95.2395 87.4003 95.4395 87.4003 95.4395C87.4003 95.4395 87.4403 95.2395 87.4003 94.8795C87.4003 94.5195 87.3203 94.0394 87.1603 93.5595C87.1203 93.4795 87.1203 93.4395 87.0803 93.3995C87.0803 93.2795 87.0803 93.1195 87.0803 92.9995C87.2003 93.3995 87.3203 93.7595 87.3203 93.7595C87.3203 93.7595 87.3603 93.5194 87.4003 93.1595C87.4003 92.7994 87.3603 92.2395 87.2003 91.6795C87.1603 91.5995 87.1603 91.5595 87.1203 91.4795C87.1203 91.2395 87.1203 91.0395 87.1603 90.7995C87.1603 90.7995 87.4803 90.9594 88.1203 91.1595C88.2003 91.1994 88.2403 91.2395 88.3203 91.2795C88.8403 91.5595 89.4003 91.7194 89.8003 91.7595C90.0003 91.7994 90.2003 91.7995 90.2803 91.7995C90.7203 91.9595 91.1203 91.9995 91.4403 91.9594C91.6003 91.9594 91.6803 91.9195 91.7603 91.9195C92.1603 91.9995 92.4803 92.0395 92.6803 92.0395C92.8003 92.1195 92.9203 92.1595 93.0803 92.1995C93.6003 92.3595 94.1203 92.3195 94.1203 92.3195C94.2003 92.3595 94.2803 92.3995 94.3603 92.4395C94.9203 92.6395 95.4403 92.5995 95.4403 92.5995C95.4403 92.5995 95.2403 92.3594 94.8803 92.1595C94.9603 92.1595 95.0403 92.1595 95.1203 92.1595C95.2003 92.1994 95.2403 92.1995 95.3203 92.1995C95.5203 92.2395 95.7203 92.2395 95.9203 92.2395C96.0803 92.3195 96.2403 92.3995 96.4403 92.4395C96.8403 92.5195 97.2003 92.4795 97.4403 92.4395C97.5603 92.3995 97.6403 92.3995 97.7203 92.3594C98.5203 92.4795 99.2003 92.3995 99.2003 92.3995C99.2003 92.3995 99.1603 92.3594 99.0803 92.3594C99.4803 92.3594 99.8403 92.1595 99.8403 92.1595C99.8403 92.1595 99.8003 92.1195 99.7603 92.1195C100.12 92.0795 100.48 92.0795 100.88 92.0395C100.88 92.0395 103.68 90.5195 106.76 88.9195C109.04 87.7195 111.4 86.4795 113 85.7195C113.2 85.6395 113.4 85.5595 113.6 85.4795C114.6 85.1595 115.08 84.9595 114.84 84.9995C114.56 85.1595 114.56 85.1595 114.52 85.1595ZM91.0003 85.7995L90.9603 85.7595C90.9603 85.7195 90.9203 85.7195 90.9203 85.6795C90.9603 85.7195 90.9603 85.7195 91.0003 85.7995C91.0003 85.7595 91.0003 85.7595 91.0003 85.7995Z" fill="#815326"/>
</svg>
