<svg width="150" height="150" viewBox="0 0 150 150" fill="none" xmlns="http://www.w3.org/2000/svg">
<path d="M115.954 95.4541C115.682 96.4996 115.5 97.3178 115.363 97.6814C114.773 99.2723 111.954 102.954 111.773 103.909C111.545 104.863 111.273 106.454 111.273 106.454H101.682C101.682 104.727 103.363 103.772 103.363 103.772C103.363 103.772 106.273 96.2723 106.273 95.4541C106.273 94.6814 104.954 87.1359 104.954 87.1359C105.273 81.545 118.136 83.4996 118.182 84.5905C118.182 85.4087 116.818 91.8632 115.954 95.4541Z" fill="url(#paint0_linear_852_29361)"/>
<path opacity="0.3" d="M115.955 95.4541C115.955 95.4541 115.819 93.6359 112.137 92.9996C108.455 92.3632 106.182 95.4541 106.182 95.4541C106.182 94.6814 104.864 87.1359 104.864 87.1359C105.182 81.545 118.046 83.4996 118.091 84.5905C118.182 85.4087 116.819 91.8632 115.955 95.4541Z" fill="url(#paint1_linear_852_29361)"/>
<path d="M17.5908 82.5452C17.5908 82.5452 18.409 86.4089 19.0453 86.818C20.3635 87.5907 22.6817 87.7725 26.7272 87.9998C30.8181 88.227 33.2272 88.0452 34.3181 87.3634C34.6817 87.1361 36.3635 84.7725 35.909 83.1361C35.5453 81.9998 17.909 80.2725 17.5908 82.5452Z" fill="url(#paint2_linear_852_29361)"/>
<path opacity="0.5" d="M18.5914 84.4996C18.5914 84.4996 18.7278 85.8633 20.046 86.0451C21.3642 86.2269 22.2733 85.9542 22.9551 85.6815C23.6369 85.4087 24.5914 84.8633 25.046 84.9087C25.5005 84.9542 27.0005 86.1815 29.0914 86.7269C31.1823 87.2724 32.7278 86.9542 33.4096 86.8633C34.046 86.7724 34.4551 85.6815 34.4551 85.6815L28.0914 82.8633L18.5914 84.4996Z" fill="url(#paint3_linear_852_29361)"/>
<path d="M124.682 55.4541C124.682 55.4541 127.637 56.7268 129.591 60.1814C131.546 63.6814 131 69.6359 130 72.9996C128.637 77.4086 124.682 55.4541 124.682 55.4541Z" fill="url(#paint4_linear_852_29361)"/>
<path d="M58.0452 90.0908C57.4998 92.4544 53.9543 95.5453 53.9543 95.5453C53.9543 95.5453 53.0452 103.136 53.3634 103.818C53.9543 105.136 53.1361 106.409 53.1361 106.409H45.7725C45.6816 104.454 46.4998 103.363 46.4998 103.363C46.4998 103.363 46.4998 99.7726 46.4998 96.5453C46.4998 96.5453 46.4998 96.5453 46.4998 96.4999V91.7726C46.4998 90.5453 45.1816 86.0908 45.1816 86.0908C44.8634 84.1362 58.5452 87.7271 58.0452 90.0908Z" fill="url(#paint5_linear_852_29361)"/>
<path opacity="0.3" d="M58.0452 90.0902C57.4998 92.4538 53.9543 95.5447 53.9543 95.5447C53.9543 95.5447 51.727 93.772 49.0452 93.9084C46.5907 94.0447 46.4998 96.2265 46.4998 96.5447V91.8174C46.4998 90.5902 45.1816 86.1356 45.1816 86.1356C44.8634 84.1356 58.5452 87.7265 58.0452 90.0902Z" fill="url(#paint6_linear_852_29361)"/>
<path d="M127.545 91.1361C126.818 94.5907 124.864 103.591 124.864 103.591C125.455 104.636 125.227 106.454 125.227 106.454H115.864C115.909 104.682 116.682 103.363 116.682 103.363C116.682 103.363 118.136 93.4998 116.409 91.9998C116.045 91.6816 115.636 91.2725 115.182 90.7725C112.727 88.0907 108.955 87.227 105.545 88.4998C100.636 90.3634 93.3636 92.5907 86.5909 92.5452C79.8636 92.4998 74.3182 91.4998 70.8636 90.6816C68.8636 90.227 66.8636 91.2271 66.0455 93.0907C65.6818 93.9543 65.1364 94.8634 64.4546 95.7725C64.1364 98.318 63.7727 103.818 63.7727 103.818C64.3182 105.409 63.7727 106.409 63.7727 106.409H55.5455C55.5 104.682 56.1818 103.318 56.1818 103.318L55.8182 95.4089C55.7273 93.1361 54.2273 91.1816 52.0909 90.4543C46.8636 88.6361 44.6818 85.0452 41.8636 83.5907C38.5 81.8634 37.1364 82.4089 37.1364 82.4089C37.1364 82.4089 35.9546 85.5907 34.7727 86.0452C33.5909 86.4998 30.9091 86.818 28.8182 86.0452C26.7273 85.2725 25.8182 83.9543 25.1818 83.9543C24.5455 83.9543 24.1818 84.7271 22.0455 85.3634C20.4091 85.8634 18.9091 85.3634 18.9091 85.3634C14.1364 82.818 16.0455 74.2725 16.3636 73.6816C16.6364 73.1816 18.5 72.1361 19.8182 70.9998C19.8182 70.9998 19.8182 70.9998 19.8636 70.9998C20.0909 70.818 20.2727 70.6361 20.4546 70.4543C21.5455 69.318 22.6364 66.1361 23.4546 62.9089C23.5 62.7271 23.5 62.5907 23.4546 62.4089C23.2727 61.7725 22.5909 61.1361 22.7727 59.9543C22.8636 59.4089 23.3636 58.6361 23.9545 58.0907C24.4545 57.6361 24.5909 57.1816 24.5909 57.0907C24.7727 56.0452 24.8182 55.4543 24.8182 55.4543C20.8182 54.6361 20.7727 50.818 22 49.4089C23.2273 47.9998 25.2727 48.1816 25.4091 49.4089C25.5455 50.6361 27.0455 51.9998 27.0455 51.9998C27.0455 51.9998 29 49.818 34.4091 48.4089C39.8182 46.9998 50.2273 46.7725 50.2273 46.7725C50.2273 46.7725 55 46.727 60.7273 45.8634C66.4546 44.9998 91.8182 40.1361 107.409 43.3634C123 46.6361 130 62.818 130 70.1816C130 77.5452 128.227 87.6816 127.545 91.1361Z" fill="url(#paint7_linear_852_29361)"/>
<path opacity="0.57" d="M36.773 54.7729C37.2276 55.3183 38.2276 56.1365 39.9094 56.0001C40.0458 56.0001 40.1821 55.9547 40.2731 55.9092C42.7731 54.5911 44.0458 52.0456 43.2276 50.0911C42.1821 47.4547 38.6367 48.2729 37.9549 49.1365C37.364 49.9092 37.1821 53.0456 36.6821 54.0911C36.5912 54.2729 36.5912 54.5456 36.773 54.7729Z" fill="url(#paint8_linear_852_29361)"/>
<path d="M36.5465 54.9545C37.001 55.5 38.001 56.3182 39.6829 56.1818C39.8192 56.1818 39.9556 56.1363 40.0465 56.0909C42.5465 54.7727 43.8192 52.2272 43.001 50.2727C41.9556 47.6363 38.4101 48.4545 37.7283 49.3182C37.1374 50.0909 36.9556 53.2272 36.4556 54.2727C36.3647 54.4545 36.3647 54.7272 36.5465 54.9545Z" fill="url(#paint9_linear_852_29361)"/>
<path opacity="0.3" d="M129.137 81.4086C126.955 85.4086 123.637 87.0904 120.046 84.7268C116.455 82.3631 115.864 70.7722 114.409 69.4086C112.955 68.0904 110.364 77.545 107.909 79.2722C105.455 80.9995 97.6367 87.6359 72.864 83.3177C65.6367 82.045 60.6822 80.4086 57.2731 78.7268C55.4094 77.8177 54.9549 71.7268 55.0004 70.545C55.0913 65.8177 54.8185 62.1813 54.0913 62.4541C53.7731 62.5904 54.0913 65.8631 53.5913 70.1813C53.3185 72.7722 53.0913 75.6359 52.364 75.3631C49.9549 75.2268 50.0913 70.2722 50.0913 70.2722C51.1367 64.0904 50.364 58.1359 49.7731 58.4086C49.4549 58.545 50.1822 61.3177 48.8185 67.545C48.5458 68.8177 47.1367 69.545 46.0004 68.9995C45.6367 68.8177 45.4094 68.5904 45.5004 68.1813C46.1822 65.1813 46.364 62.7722 46.3185 60.9995C46.2731 58.045 45.5913 50.0904 44.4094 49.4086C43.7731 49.045 44.864 52.3177 44.7731 55.6359C44.7731 56.2268 44.7276 56.6813 44.7276 57.1359C43.7731 55.7268 42.6822 55.3177 42.3185 55.545C41.5004 56.1359 40.6367 56.8631 39.8185 57.9086C39.0004 58.9995 40.2276 59.4086 38.9094 62.045C38.0913 63.6813 36.4094 63.7722 35.0004 65.4995C33.5913 67.2268 34.0004 70.1359 34.4094 71.3631C34.864 72.5904 38.364 74.8177 38.3185 76.7722C38.2276 78.7268 37.1822 82.4086 37.1822 82.4086C37.1822 82.4086 37.864 82.1359 39.5003 82.5904C39.6367 82.6359 39.8185 82.6813 39.9549 82.7268C40.0003 82.7268 40.0458 82.7722 40.0913 82.7722C40.1822 82.8177 40.2731 82.8177 40.3185 82.8631C40.4094 82.9086 40.5003 82.9541 40.6367 82.9995C40.6822 83.045 40.7731 83.045 40.8185 83.0904C40.9094 83.1359 41.0003 83.1813 41.0913 83.2268C41.364 83.3631 41.5913 83.4541 41.864 83.5904C44.6822 85.045 46.8185 88.6359 52.0913 90.4541C54.2276 91.1813 55.7276 93.1359 55.8185 95.4086L56.1822 103.318C56.1822 103.318 55.5004 104.636 55.5458 106.409H63.7731C63.7731 106.409 64.3185 105.363 63.7731 103.818C63.7731 103.818 64.1822 98.3177 64.4549 95.7722C65.1822 94.8631 65.6822 93.9541 66.0458 93.0904C66.864 91.2268 68.864 90.2268 70.864 90.6813C74.3185 91.4995 79.864 92.4541 86.5913 92.545C93.364 92.5904 100.637 90.3631 105.546 88.4995C108.909 87.2268 112.728 88.0904 115.182 90.7722C115.637 91.2722 116.046 91.6813 116.409 91.9995C118.137 93.4995 116.682 103.363 116.682 103.363C116.682 103.363 115.909 104.681 115.864 106.454H125.228C125.228 106.454 125.455 104.636 124.864 103.59C124.864 103.59 126.819 94.5904 127.546 91.1359C127.909 89.3177 128.591 85.5904 129.137 81.4086Z" fill="url(#paint10_linear_852_29361)"/>
<path d="M21.3642 74.1357C21.3642 74.1357 22.0915 74.2267 22.637 74.6357C23.1824 75.0448 23.3188 75.9539 23.137 76.0903C22.7279 76.363 22.0461 75.7721 21.9097 75.4539C21.7733 75.1357 21.8642 74.9539 21.637 74.6357C21.5006 74.4994 21.0915 74.1357 21.3642 74.1357Z" fill="url(#paint11_linear_852_29361)"/>
<path d="M30.8633 74.6816C30.8633 74.6816 30.1361 74.6816 29.5452 75.0453C28.9542 75.4089 28.727 76.2725 28.9088 76.4544C29.2724 76.7725 30.0452 76.2725 30.227 75.9544C30.4088 75.6362 30.3633 75.4544 30.5906 75.1816C30.727 75.0453 31.1361 74.6816 30.8633 74.6816Z" fill="url(#paint12_linear_852_29361)"/>
<path d="M37.592 60.4537C37.592 60.4537 37.2283 60.3174 36.8192 60.3174C36.4101 60.3174 35.6829 60.5447 35.4101 61.3174C35.0465 62.3174 35.8647 62.7265 36.4556 62.6356C37.3647 62.4537 37.3647 61.2719 37.3647 60.9537C37.3192 60.6356 37.9101 60.7265 37.8647 60.5447C37.8647 60.4083 37.7738 60.4537 37.592 60.4537Z" fill="url(#paint13_linear_852_29361)"/>
<path d="M36.1825 60.6814C36.0007 60.7723 35.6825 61.0905 35.8189 61.3178C36.0007 61.636 36.5916 61.2269 36.6825 60.9542C36.728 60.6814 36.4552 60.5451 36.1825 60.6814Z" fill="url(#paint14_linear_852_29361)"/>
<path d="M23.0907 59.1816C23.0907 59.1816 22.8634 59.4089 23.0907 59.9544C23.2725 60.3635 23.8634 61.3635 23.4544 62.4089C23.4544 62.4089 22.6816 61.8635 22.5453 60.7725C22.4089 59.9544 22.8634 59.3635 23.0907 59.1816Z" fill="url(#paint15_linear_852_29361)"/>
<path d="M23 60.2726C23.1364 60.3181 23.5 61.0453 23.2273 61.1817C22.9546 61.3635 22.7273 60.7726 22.7273 60.5453C22.7273 60.3181 22.8182 60.1817 23 60.2726Z" fill="url(#paint16_linear_852_29361)"/>
<path opacity="0.3" d="M35.7272 59.5001C35.409 59.6819 34.8181 59.9547 34.6363 60.8183C34.1817 62.5456 34.8636 63.0001 34.8181 63.2274C34.7272 63.5456 34.2727 63.4092 34.1363 62.5456C33.9999 61.8183 33.9999 60.6819 34.7272 59.9092C35.3181 59.2729 36.3181 59.091 36.409 59.1365C36.4999 59.3183 35.9999 59.3638 35.7272 59.5001Z" fill="url(#paint17_linear_852_29361)"/>
<path opacity="0.3" d="M24.2266 64.4092C24.2266 65.3183 23.0902 68.1819 22.5447 68.7728C21.9993 69.3183 20.1357 70.8183 19.8629 71.0001C20.0902 70.8183 20.272 70.6365 20.4538 70.4546C21.5447 69.3183 22.6357 66.1365 23.4538 62.9092C23.4993 62.7274 23.4993 62.591 23.4538 62.4092C23.4993 62.5001 24.2266 63.5455 24.2266 64.4092Z" fill="url(#paint18_linear_852_29361)"/>
<path d="M27.0469 52.0457C27.0469 52.0457 26.6832 52.3638 26.2741 52.9547C25.8196 53.5457 25.2287 54.4547 24.8651 55.5457C21.7741 54.9093 21.0469 52.5002 21.456 50.7729C21.5469 50.2729 21.7741 49.7729 22.0469 49.4547C23.2287 48.0002 25.3196 48.2275 25.456 49.4547C25.5923 50.682 27.0469 52.0457 27.0469 52.0457Z" fill="url(#paint19_linear_852_29361)"/>
<path opacity="0.3" d="M54.3178 47.5453C55.7269 48.318 56.9997 48.318 58.4087 52.5453C60.0451 57.6362 58.2269 70.318 59.0451 69.7726C60.136 68.9999 62.4542 59.1817 60.0906 52.1362C58.0451 46.1362 53.0906 46.8635 54.3178 47.5453Z" fill="url(#paint20_linear_852_29361)"/>
<path opacity="0.5" d="M65.4539 46.1818C63.9993 46.4546 61.1357 47.1364 61.4539 50.4546C61.7721 53.7727 69.1812 60.1364 86.7266 60.5C104.272 60.9091 107.818 49.5909 103.136 45.2727C98.4993 41 77.4084 43.7273 65.4539 46.1818Z" fill="url(#paint21_linear_852_29361)"/>
<path opacity="0.5" d="M123 55.9547C122.5 54.091 121.5 52.4547 120.09 51.182C117.727 49.0001 113.045 45.4092 108.863 46.2274C102.909 47.4092 109.045 59.8183 117.409 61.0001C123.227 61.8183 123.727 58.7729 123 55.9547Z" fill="url(#paint22_linear_852_29361)"/>
<path d="M42.1826 49.5907C41.5917 49.0453 40.819 48.9089 40.0462 49.0453C39.7281 49.0907 39.3644 49.2271 39.0462 49.4089C38.1371 49.9544 38.2281 52.4998 37.819 53.4544C37.4099 54.4089 37.7735 55.0453 38.4553 55.0907C39.1371 55.1362 39.1826 54.4998 39.4099 54.6816C39.6371 54.8635 41.0008 54.9089 41.6826 54.3635C42.4553 53.6816 43.7281 50.9998 42.1826 49.5907Z" fill="url(#paint23_linear_852_29361)"/>
<path opacity="0.3" d="M126.363 96.5909C126.181 97.3637 126 98.1818 125.863 98.9091C125.318 101.455 124.863 103.545 124.863 103.545C125.454 104.591 125.227 106.409 125.227 106.409H115.863C115.909 104.636 116.681 103.318 116.681 103.318C116.681 103.318 117.136 100.182 117.227 97.1818C117.318 94.8637 117.136 92.5909 116.409 91.9091C116.045 91.5909 115.636 91.1818 115.181 90.6818C112.727 88 108.954 87.1364 105.545 88.4091C100.636 90.2728 93.3633 92.5 86.5906 92.4546C79.8633 92.4091 74.3178 91.4091 70.8633 90.5909C68.8633 90.1364 66.8633 91.1364 66.0451 93C65.6815 93.8637 65.136 94.7728 64.4542 95.6818C64.136 98.2273 63.7724 103.727 63.7724 103.727C64.3178 105.318 63.7724 106.318 63.7724 106.318H55.5451C55.4996 104.591 56.1815 103.227 56.1815 103.227L55.9087 96.5909L55.8633 95.3182C55.7724 93.0455 54.2724 91.0909 52.136 90.3637C46.9087 88.5455 44.7269 84.9546 41.9087 83.5C41.636 83.3637 41.3633 83.2273 41.136 83.1364C41.0451 83.0909 40.9542 83.0455 40.8633 83C40.8178 82.9546 40.7269 82.9546 40.6815 82.9091C40.5906 82.8637 40.4996 82.8182 40.3633 82.7728C40.2724 82.7273 40.1815 82.7273 40.136 82.6818C40.0906 82.6818 40.0451 82.6364 39.9996 82.6364C39.8633 82.5909 39.6815 82.5455 39.5451 82.5C37.9542 82.0455 37.2269 82.3182 37.2269 82.3182C37.2269 82.3182 37.8178 80.2273 38.136 78.3637C38.136 78.3637 38.9542 78.9546 40.5906 78.3637C42.2269 77.7728 43.4087 70.9546 43.7724 69.3182C44.136 67.6818 44.636 69.7728 44.0451 72.5C43.4542 75.2273 42.4087 78.0455 42.9087 78.8182C43.3633 79.5909 44.7724 79.9546 45.7724 79.0909C46.7269 78.2728 47.2724 76.1818 47.636 75.0455C47.9996 73.9091 48.1815 72.0455 48.4996 72C48.8178 71.9546 48.5905 74.9091 48.136 77.1818C47.6815 79.4091 47.2269 82.0455 48.636 82.4546C51.0906 83.1364 52.5905 80.0909 57.4542 82.6818C62.3178 85.2728 70.5906 87.4546 81.0906 87.9091C91.5451 88.3637 100.5 86.2728 105.5 84.8182C110.5 83.3637 112.272 84.6818 115.318 87C118.363 89.3182 118.772 91.6364 119.772 93.7273C120.727 95.9546 122.591 98.9546 126.363 96.5909Z" fill="url(#paint24_linear_852_29361)"/>
<path opacity="0.3" d="M35.592 83.6819C35.1374 83.6819 34.8193 83.2729 35.0465 82.4092C35.2738 81.591 36.4556 78.0001 36.0011 76.5456C35.5465 75.0456 34.3193 72.7274 33.3193 72.6819C32.3647 72.6365 33.4102 74.5456 33.3193 76.2274C33.2283 77.9092 32.5465 81.2274 31.0011 82.0001C29.5465 82.7274 28.0465 81.6365 27.8192 81.5001C27.1829 81.0001 26.592 80.591 25.592 80.4092C24.5011 80.2274 23.4102 80.6819 22.2738 81.1819C22.2738 81.1819 21.2283 81.5456 20.3647 80.8183C19.5011 80.091 19.092 75.1819 19.2738 74.4092C19.4556 73.6365 20.5465 72.4092 20.1829 72.182C19.8192 71.9547 18.1829 73.2274 17.7738 74.1819C17.3647 75.1365 17.6829 80.3183 17.7738 80.9092C17.8647 81.5001 17.0465 81.9547 16.6829 81.6365C16.3192 81.3183 16.0011 80.9547 15.9102 80.5456C16.2283 82.5456 17.092 84.4092 18.9102 85.4092C18.9102 85.4092 20.4102 85.9092 22.0465 85.4092C24.1829 84.7729 24.5465 84.0001 25.1829 84.0001C25.8192 84.0001 26.6829 85.3638 28.8192 86.091C30.9102 86.8638 33.592 86.5456 34.7738 86.091C35.6374 85.7729 36.4556 84.091 36.9102 83.091C36.9102 83.1365 36.5011 83.4547 35.592 83.6819Z" fill="url(#paint25_linear_852_29361)"/>
<path opacity="0.2" d="M28.8182 51.409C28.8182 51.409 27.2273 51.9999 26.5909 53.909C25.9546 55.8181 25.4546 56.5454 26.1364 57.5454C26.8636 58.5454 27.1818 59.9545 26.7727 62.0454C26.3182 64.3181 25 66.5908 25.2727 68.909C25.5909 71.7726 28.9546 71.4545 29.8636 69.4545C30.9091 67.1363 31.0455 62.9999 31.7273 61.6817C32.4091 60.3635 33.6364 59.1817 34.9091 58.1817C36.1818 57.1817 36.1818 53.1363 34.6364 52.0454C33.1364 50.909 30.3182 50.9999 28.8182 51.409Z" fill="url(#paint26_linear_852_29361)"/>
<path opacity="0.3" d="M26.2734 52.9543C25.8189 53.5452 25.228 54.4543 24.8643 55.5452C21.7734 54.9088 21.0462 52.4997 21.4553 50.7725C21.9553 51.727 22.6371 52.7725 23.5462 53.0906C25.2734 53.727 26.2734 52.9543 26.2734 52.9543Z" fill="url(#paint27_linear_852_29361)"/>
<path opacity="0.3" d="M20.9557 74.3638C20.9557 74.3638 21.4103 74.5911 21.4103 75.0002C21.4557 75.3638 21.6375 75.8638 21.9103 76.1365C22.1375 76.3638 22.2739 76.5002 23.0012 76.5911C23.1375 76.5911 22.7739 77.182 22.0012 77.0456C21.3648 76.9547 21.0921 76.5456 20.9557 76.0456C20.8194 75.5002 20.8648 75.182 20.683 74.9092C20.5012 74.5456 20.6375 74.182 20.9557 74.3638Z" fill="url(#paint28_linear_852_29361)"/>
<path opacity="0.3" d="M31.2738 74.8177C31.2738 74.8177 30.8193 75.045 30.7284 75.4086C30.6375 75.7722 30.4102 76.2722 30.1375 76.4995C29.8647 76.7268 29.7284 76.8177 29.0011 76.8177C28.8647 76.8177 29.1829 77.4086 29.9556 77.3631C30.592 77.3177 30.9102 76.9541 31.092 76.4541C31.2738 75.9541 31.2738 75.5904 31.5011 75.3177C31.7284 75.045 31.6375 74.6813 31.2738 74.8177Z" fill="url(#paint29_linear_852_29361)"/>
<path opacity="0.3" d="M63.7727 103.863C64.3182 105.454 63.7727 106.454 63.7727 106.454H55.5455C55.5 104.727 56.1818 103.363 56.1818 103.363L55.9091 96.727C55.9091 96.8179 56.1818 98.4543 59.1364 98.7725C62.1364 99.0906 64.5 95.7725 64.5 95.7725C64.1818 98.3634 63.7727 103.863 63.7727 103.863Z" fill="url(#paint30_linear_852_29361)"/>
<path opacity="0.3" d="M124.865 103.59C125.456 104.636 125.229 106.454 125.229 106.454H115.865C115.911 104.681 116.683 103.363 116.683 103.363C116.683 103.363 117.138 100.227 117.229 97.2266C117.274 97.3175 117.865 98.9084 119.502 99.8629C121.183 100.817 124.32 100.499 125.865 98.9084C125.32 101.499 124.865 103.59 124.865 103.59Z" fill="url(#paint31_linear_852_29361)"/>
<defs>
<linearGradient id="paint0_linear_852_29361" x1="109.873" y1="108.036" x2="109.873" y2="76.3964" gradientUnits="userSpaceOnUse">
<stop stop-color="#A75F61"/>
<stop offset="1" stop-color="#B89293"/>
</linearGradient>
<linearGradient id="paint1_linear_852_29361" x1="115.859" y1="101.145" x2="111.471" y2="87.9816" gradientUnits="userSpaceOnUse">
<stop stop-color="#D8C2B4"/>
<stop offset="1" stop-color="#B89293"/>
</linearGradient>
<linearGradient id="paint2_linear_852_29361" x1="26.7695" y1="80.092" x2="26.7695" y2="89.6328" gradientUnits="userSpaceOnUse">
<stop stop-color="#A75F61"/>
<stop offset="1" stop-color="#B89293"/>
</linearGradient>
<linearGradient id="paint3_linear_852_29361" x1="22.2384" y1="91.1597" x2="29.2838" y2="81.2613" gradientUnits="userSpaceOnUse">
<stop stop-color="#A75F61"/>
<stop offset="1" stop-color="#B89293"/>
</linearGradient>
<linearGradient id="paint4_linear_852_29361" x1="131.143" y1="70.8179" x2="124.952" y2="56.6675" gradientUnits="userSpaceOnUse">
<stop stop-color="#A75F61"/>
<stop offset="1" stop-color="#B89293"/>
</linearGradient>
<linearGradient id="paint5_linear_852_29361" x1="51.6063" y1="108.036" x2="51.6063" y2="76.3978" gradientUnits="userSpaceOnUse">
<stop stop-color="#A75F61"/>
<stop offset="1" stop-color="#B89293"/>
</linearGradient>
<linearGradient id="paint6_linear_852_29361" x1="54.6499" y1="100.355" x2="50.7509" y2="88.6579" gradientUnits="userSpaceOnUse">
<stop stop-color="#D8C2B4"/>
<stop offset="1" stop-color="#B89293"/>
</linearGradient>
<linearGradient id="paint7_linear_852_29361" x1="72.8584" y1="42.4015" x2="72.8584" y2="100.048" gradientUnits="userSpaceOnUse">
<stop stop-color="#D8C2B4"/>
<stop offset="1" stop-color="#B89293"/>
</linearGradient>
<linearGradient id="paint8_linear_852_29361" x1="42.0473" y1="48.1824" x2="37.9859" y2="55.9263" gradientUnits="userSpaceOnUse">
<stop stop-color="#D8C2B4"/>
<stop offset="1" stop-color="#B89293"/>
</linearGradient>
<linearGradient id="paint9_linear_852_29361" x1="41.8193" y1="48.3627" x2="37.7579" y2="56.1065" gradientUnits="userSpaceOnUse">
<stop stop-color="#D8C2B4"/>
<stop offset="1" stop-color="#B89293"/>
</linearGradient>
<linearGradient id="paint10_linear_852_29361" x1="81.5522" y1="49.5307" x2="81.5522" y2="100.76" gradientUnits="userSpaceOnUse">
<stop stop-color="#D8C2B4"/>
<stop offset="1" stop-color="#B89293"/>
</linearGradient>
<linearGradient id="paint11_linear_852_29361" x1="22.2857" y1="74.2092" x2="22.1882" y2="75.9626" gradientUnits="userSpaceOnUse">
<stop stop-color="#272725"/>
<stop offset="1" stop-color="#181519"/>
</linearGradient>
<linearGradient id="paint12_linear_852_29361" x1="29.96" y1="74.6358" x2="29.8625" y2="76.3893" gradientUnits="userSpaceOnUse">
<stop stop-color="#272725"/>
<stop offset="1" stop-color="#181519"/>
</linearGradient>
<linearGradient id="paint13_linear_852_29361" x1="36.8666" y1="60.1546" x2="36.2321" y2="62.3503" gradientUnits="userSpaceOnUse">
<stop stop-color="#272725"/>
<stop offset="1" stop-color="#513325"/>
</linearGradient>
<linearGradient id="paint14_linear_852_29361" x1="36.1755" y1="60.6525" x2="36.2617" y2="61.3275" gradientUnits="userSpaceOnUse">
<stop stop-color="#FAF7E6"/>
<stop offset="1" stop-color="#FBF0B2"/>
</linearGradient>
<linearGradient id="paint15_linear_852_29361" x1="22.6665" y1="59.3511" x2="23.4768" y2="63.0161" gradientUnits="userSpaceOnUse">
<stop stop-color="#272725"/>
<stop offset="1" stop-color="#513325"/>
</linearGradient>
<linearGradient id="paint16_linear_852_29361" x1="22.9912" y1="60.2575" x2="23.0921" y2="61.4086" gradientUnits="userSpaceOnUse">
<stop stop-color="#FAF7E6"/>
<stop offset="1" stop-color="#FBF0B2"/>
</linearGradient>
<linearGradient id="paint17_linear_852_29361" x1="35.2302" y1="59.1972" x2="35.2302" y2="62.9753" gradientUnits="userSpaceOnUse">
<stop stop-color="#D8C2B4"/>
<stop offset="1" stop-color="#B89293"/>
</linearGradient>
<linearGradient id="paint18_linear_852_29361" x1="22.0257" y1="62.4476" x2="22.0257" y2="70.1573" gradientUnits="userSpaceOnUse">
<stop stop-color="#D8C2B4"/>
<stop offset="1" stop-color="#B89293"/>
</linearGradient>
<linearGradient id="paint19_linear_852_29361" x1="24.1816" y1="48.4518" x2="24.1816" y2="54.8024" gradientUnits="userSpaceOnUse">
<stop stop-color="#D8C2B4"/>
<stop offset="1" stop-color="#B89293"/>
</linearGradient>
<linearGradient id="paint20_linear_852_29361" x1="57.5088" y1="48.4005" x2="57.8706" y2="67.5768" gradientUnits="userSpaceOnUse">
<stop stop-color="#D8C2B4" stop-opacity="0"/>
<stop offset="1" stop-color="#B89293"/>
</linearGradient>
<linearGradient id="paint21_linear_852_29361" x1="83.5332" y1="62.291" x2="83.0365" y2="41.7728" gradientUnits="userSpaceOnUse">
<stop stop-color="#EEDFD5" stop-opacity="0"/>
<stop offset="1" stop-color="#FFDAC1"/>
</linearGradient>
<linearGradient id="paint22_linear_852_29361" x1="109.571" y1="60.9843" x2="118.308" y2="48.7096" gradientUnits="userSpaceOnUse">
<stop stop-color="#EEDFD5" stop-opacity="0"/>
<stop offset="1" stop-color="#FFDAC1"/>
</linearGradient>
<linearGradient id="paint23_linear_852_29361" x1="36.889" y1="56.7099" x2="42.3127" y2="49.0898" gradientUnits="userSpaceOnUse">
<stop stop-color="#A75F61"/>
<stop offset="1" stop-color="#B89293"/>
</linearGradient>
<linearGradient id="paint24_linear_852_29361" x1="92.3951" y1="71.9988" x2="69.7409" y2="115.193" gradientUnits="userSpaceOnUse">
<stop stop-color="#D8C2B4"/>
<stop offset="1" stop-color="#B89293"/>
</linearGradient>
<linearGradient id="paint25_linear_852_29361" x1="27.4556" y1="71.0177" x2="26.0115" y2="85.9639" gradientUnits="userSpaceOnUse">
<stop stop-color="#D8C2B4" stop-opacity="0"/>
<stop offset="1" stop-color="#B89293"/>
</linearGradient>
<linearGradient id="paint26_linear_852_29361" x1="31.8761" y1="51.5053" x2="26.755" y2="74.6668" gradientUnits="userSpaceOnUse">
<stop stop-color="#EEDFD5" stop-opacity="0"/>
<stop offset="1" stop-color="#FFDAC1"/>
</linearGradient>
<linearGradient id="paint27_linear_852_29361" x1="23.785" y1="50.7627" x2="23.785" y2="55.0329" gradientUnits="userSpaceOnUse">
<stop stop-color="#D8C2B4"/>
<stop offset="1" stop-color="#B89293"/>
</linearGradient>
<linearGradient id="paint28_linear_852_29361" x1="21.1924" y1="74.2583" x2="22.0453" y2="76.3838" gradientUnits="userSpaceOnUse">
<stop stop-color="#D8C2B4" stop-opacity="0"/>
<stop offset="1" stop-color="#C57A82"/>
</linearGradient>
<linearGradient id="paint29_linear_852_29361" x1="31.0732" y1="74.6909" x2="30.0185" y2="76.7239" gradientUnits="userSpaceOnUse">
<stop stop-color="#D8C2B4" stop-opacity="0"/>
<stop offset="1" stop-color="#C57A82"/>
</linearGradient>
<linearGradient id="paint30_linear_852_29361" x1="58.0559" y1="96.2688" x2="61.3118" y2="104.383" gradientUnits="userSpaceOnUse">
<stop stop-color="#D8C2B4"/>
<stop offset="1" stop-color="#B89293"/>
</linearGradient>
<linearGradient id="paint31_linear_852_29361" x1="118.621" y1="97.1134" x2="121.748" y2="104.908" gradientUnits="userSpaceOnUse">
<stop stop-color="#D8C2B4"/>
<stop offset="1" stop-color="#B89293"/>
</linearGradient>
</defs>
</svg>
