<svg width="150" height="150" viewBox="0 0 150 150" fill="none" xmlns="http://www.w3.org/2000/svg">
<path d="M30.2846 50.4289L29.9989 47.3574L29.0703 45.0003L29.7132 43.8574L32.4989 45.786L35.6417 49.3574L30.2846 50.4289Z" fill="#393836"/>
<path d="M60.5703 88.643L61.9989 95.2859L63.2132 100.786L63.4989 105L62.7132 108L60.2846 108.572L59.1417 110.072L59.0703 111.714L61.5703 112.357L65.5703 112.286L66.2132 110.429L67.7846 107.572L67.356 105.572L67.1417 99.143L66.9989 88.8573L66.4989 82.4287L61.4275 83.0716L60.5703 88.643Z" fill="#403F3B"/>
<path d="M67.0709 107.571L66.1423 109L65.7137 110.714L65.2852 110.286L65.8566 107.071L67.0709 107.571Z" fill="#393836"/>
<path d="M67.0008 88.8573L66.5008 82.4287L61.4294 83.0716L60.5723 88.643L62.0008 95.2859L62.9294 99.5716L63.5008 95.7144L65.1437 90.9287L67.0008 90.5001V88.8573Z" fill="#403F3B"/>
<path d="M63.3583 110.214V109.929L62.5725 110.072L61.4297 111.072L60.9297 112.214L61.4297 112.286L61.5725 111.857L62.0725 110.857L63.3583 110.214Z" fill="#393836"/>
<path d="M59.7146 110.643L59.3574 111.786L59.6431 111.857L59.8574 111.143L60.3574 110.214L61.1431 109.5L60.5003 109.571L59.7146 110.643Z" fill="#393836"/>
<path d="M67.1423 99.143L66.9994 88.8573L66.4994 82.4287L64.7852 82.643L65.7852 92.143L66.3566 98.643L66.428 104.5L67.7137 107.786L67.7852 107.572L67.3566 105.572L67.1423 99.143Z" fill="#3B3A37"/>
<path d="M112.5 64.9287L116.643 65.2859L122.714 69.2859L129.929 80.3573L132.929 88.643L133.214 94.2859L131.429 98.0716L129.143 97.9287L122.429 90.5001L119.214 78.0716L116.429 71.4287L114.143 69.2859L112.5 64.9287Z" fill="#403F3B"/>
<path d="M131.284 92.8567L128.356 90.7853L125.213 87.4996L123.07 82.7139L119.713 75.071L117.213 69.571L113.713 68.2139L114.141 69.2853L116.427 71.4282L119.141 78.071L122.427 90.4996L129.141 97.9282L131.427 98.071L133.213 94.2853L133.141 92.2139C132.856 92.071 132.713 91.9282 132.713 91.9282L131.284 92.8567Z" fill="#3B3A37"/>
<path d="M131.787 85.571L129.93 80.3567L122.715 69.2853L116.644 65.2853L115.93 65.2139L120.43 68.571L124.215 74.2139L126.93 80.2139L130.001 84.7853L131.787 85.571Z" fill="#403F3B"/>
<path d="M90.4277 81.8563L91.9277 88.9992L95.2849 95.0706L98.142 99.3563V101.356L95.2135 106.642L93.7849 108.856L92.9277 109.642L90.0706 110.428L87.9277 112.999L88.4992 113.571L93.142 113.499L95.8563 112.999L96.4992 109.928L100.499 105.428L103.642 101.571L104.642 99.642L104.499 97.7849L102.571 95.142L103.142 86.7849L99.2849 80.4277L90.4277 81.8563Z" fill="#403F3B"/>
<path d="M102.571 95.142L103.142 86.7849L99.2849 80.4277L90.4277 81.8563L91.9277 88.9992L94.8563 94.2849L96.7849 92.5706L100.142 92.0706L101.428 95.2135L103.642 98.9277L102.713 102.713L103.642 101.571L104.642 99.642L104.499 97.7849L102.571 95.142Z" fill="#403F3B"/>
<path d="M103.643 101.572L104.643 99.6431L104.501 97.786L102.643 95.1431L103.215 86.786L102.643 85.8574C101.715 86.5003 100.858 87.2146 100.858 87.2146C100.786 87.5003 100.858 94.2146 100.858 94.2146L102.001 98.4289L101.858 101.857L99.1434 105.643L96.4291 109.143L95.7148 111.143L96.2148 111.857L96.6434 109.929L100.572 105.429L103.643 101.572Z" fill="#3B3A37"/>
<path d="M20.3571 65.7139L23.7143 61.9996L25.3571 59.4282L25.5714 57.1424L26.7857 53.7853L29.7857 49.9996L33.0714 48.7139L40 49.4996L44.1429 51.571L46.7857 52.4996L58.7143 53.8567L62.6429 53.1424L65.1429 52.9996L69.0714 55.071L79.1429 56.6424H91L98.5 55.9282L105.643 57.6424L113.857 63.9282L115.857 72.2853L116.429 82.4996L114.643 91.571L115.429 95.3567L117.5 98.1424L118.571 99.1424L117.786 104.571L115.214 112.571L114.071 113.714L113 116.357L109.929 117.285L108.571 117.071L108.214 116.142L106.214 116.428L105.071 115.428L107.071 112.571L110.429 112.071L111.429 110.571L113.786 101.285L109.429 97.8567L106.143 93.9996L99.6429 86.9996L96.6429 82.7139L93.2857 83.071L82.1429 84.1424L69.8571 84.571L62.9286 84.6424L60.8571 90.9282L59.2143 98.3567L58.2857 103.214L58.5714 105.785L58.5 107L56.2143 109.785L55 113.071L54.1429 113.714L48.8571 113.428L47.5 113L48.1429 111.142L51.1429 109.285L53.7143 104.071L54.0714 99.571L52.6429 85.071L51.5714 82.2139L47.2143 79.071L43.1429 73.6424L41.5714 73.071L39.5 74.7139L37.2143 72.8567L33.7143 67.7139L31.0714 66.6424L27.1429 68.7139L25.0714 69.4282L22.2143 68.6424L20 67.1424L20.3571 65.7139Z" fill="#403F3B"/>
<path d="M118.5 99.5713L116.143 99.2856L114.214 97.4284L111.571 93.9999L108.286 88.2141L104.429 85.2141L98 77.857L96.3571 73.357L93.8571 72.5713L90.6429 74.7856L86.7857 75.2856L79 76.0713L73 75.9284L66.7143 74.7856L62.6429 74.0713L61 75.4999L61.8571 79.7856L63 82.6427L63.1429 84.6427L69.8571 84.5713L82.1429 84.1427L93.2857 83.0713L96.6429 82.7141L99.6429 86.9999L106.143 93.9999L109.429 97.857L113.786 101.286L111.429 110.571L110.429 112.071L107.071 112.571L105.071 115.428L106.214 116.428L108.214 116.143L108.571 117.071L109.929 117.286L113 116.357L114.071 113.714L115.214 112.571L117.786 104.571L118.5 99.5713Z" fill="#3B3A37"/>
<path d="M51.5717 82.5707L51.7146 83.0707L51.9289 79.8564L50.6431 76.285L51.286 71.9279L49.7146 67.7136L48.2146 66.8564L47.286 68.9993L44.9289 72.7136L44.8574 76.2136L47.1431 79.3564L51.5717 82.5707Z" fill="#3B3A37"/>
<path d="M38.7143 72.5003L38.4286 69.286L36.4286 66.5003L34.8571 64.286L35.4286 62.8574L38.2143 61.0003L38.2857 58.8574L33.1429 58.3574L31 61.1431L29.2143 61.5003L26.0714 62.9288L25.0714 62.3574L23.5714 62.2146L20.3571 65.7146L20 67.1431L22.2143 68.6431L25.0714 69.4289L27.1429 68.7146L31.0714 66.6431L33.7143 67.7146L37.2143 72.8574L38.7857 74.0717L38.7143 72.5003Z" fill="#3B3A37"/>
<path d="M53.4289 76.7143L52.3574 73.5714C52.3574 73.5714 53.0717 69.5 53.1431 69.0714C53.1431 68.6429 53.7146 65.0714 53.7146 65.0714L54.1431 59.2143L56.5717 56L55.286 60.7143L56.1431 67L57.0003 71.0714L55.786 73.9286L53.4289 76.7143Z" fill="#403F3B"/>
<path d="M28.1423 57.4287L26.7852 59.143C27.0709 59.2859 28.5709 57.9287 28.5709 57.9287L28.1423 57.4287Z" fill="#403F3B"/>
<path d="M27.5703 56.9284L28.1417 57.7141L28.356 58.357L29.1417 57.7856L29.7846 56.5713L28.7132 56.7856L27.5703 56.9284Z" fill="black"/>
<path d="M28.3574 57.0713L28.5717 57.5713L28.786 57.357L28.7146 57.0713H28.3574Z" fill="#403F3B"/>
<path d="M20 67.1431L21.7143 68.286L21.5714 67.0003L22.2857 66.6431L22.2143 65.8574L21.4286 65.7146L21.1429 64.8574L20.3571 65.7146L20 67.1431Z" fill="black"/>
<path d="M28.1437 66.8569L25.5008 68.3569L23.5723 68.9997L24.0723 69.1426L25.7151 68.4283L27.1437 67.714L29.1437 66.6426L30.7151 66.1426L30.9294 65.7854L30.1437 65.6426L28.1437 66.8569Z" fill="black"/>
<path d="M27.9277 55.071L28.7134 53.2139L31.4992 50.9282L33.142 50.7139L32.7134 52.9282L34.142 54.9282L37.9277 56.2139V57.8567L36.4277 57.2139L33.3563 56.1424L32.0706 56.4282L30.9277 55.2853L27.9277 55.071Z" fill="#403F3B"/>
<path d="M36.6426 63.7857L37.4997 65.7143L38.714 65.6429L37.4997 63.9286L37.2854 63L36.6426 63.7857Z" fill="#403F3B"/>
<path d="M38.5006 64.0714L41.2148 66.0714L43.0006 68.6429L44.4291 69.2143L45.2863 69L43.572 67.5L42.2863 64.3571L38.2148 62L38.5006 64.0714Z" fill="#403F3B"/>
<path d="M39.2868 68.4286L39.644 71H41.5725L42.9297 71.5714L43.5011 71.0714L41.9297 70L41.0725 67.3571L39.5011 66L38.4297 66.3571L39.2868 68.4286Z" fill="#403F3B"/>
<path d="M44.4992 70.7852L45.2134 70.0709L43.0706 69.2852L42.9277 69.7852L44.4992 70.7852Z" fill="#403F3B"/>
<path d="M103.356 58.2143L109.142 62.2143L110.928 66.2857L110.642 71.7143L110.213 74.0714L113.785 79.0714L113.856 81.2857L114.285 85.2143L115.428 87.2857L116.356 82.5L115.785 72.3571L113.785 64L105.571 57.7143L98.4277 56L90.9277 56.7143L79.0706 56.6429L68.9992 55.0714L65.0706 53L62.4992 53.1429L58.5706 53.8571L46.9277 52.5L47.3563 53.2857C47.3563 53.2857 50.4277 54.1429 50.7134 54.0714C50.9992 54 55.9992 54.7143 55.9992 54.7143L59.9277 56.5L64.7134 57.4286L68.642 57.1429L69.0706 59V60.7143L70.4277 61.3571L72.9992 59.5L76.5706 58.5L85.2849 58.2143L90.3563 58.2857L95.7849 57.8571L103.356 58.2143Z" fill="#403F3B"/>
<path d="M57.4997 107.286L56.4283 108.5L55.214 109L55.1426 108.643L56.6426 107.357L57.2854 106L57.4997 107.286Z" fill="#393836"/>
<path d="M49.8563 112.072L51.7849 111.357L51.7134 110.929L49.5706 111.643L48.9277 113.429H49.5706C49.7134 113 49.8563 112.072 49.8563 112.072Z" fill="#393836"/>
<path d="M49.4277 110.929L48.2849 111.786L47.9277 113.143L48.2134 113.214L48.4277 112L49.4277 111.072V110.929Z" fill="#393836"/>
<path d="M58.5003 78.4287L58.4288 83.143L56.1431 85.9287L54.5003 86.5001L53.8574 85.2144L55.8574 83.2144L57.5003 79.2859L58.5003 78.4287Z" fill="#403F3B"/>
<path d="M64.2854 80.714L62.6426 80.6426L61.5711 85.1426L59.6426 91.9283L57.9283 98.8569L57.6426 102.643L58.3569 103.928L58.2854 103.214L59.214 98.3569L60.8569 90.9283L62.9283 84.6426H65.214L65.5711 83.2854L64.2854 80.714Z" fill="#3B3A37"/>
<path d="M115.857 100L116.5 102.429L116.286 105.357L117.215 102.071L117.072 100.071L115.857 100Z" fill="#403F3B"/>
<path d="M117.786 104.572L118.5 99.5716L117.5 99.4287L117.929 100.357L117.214 104.357L116.071 108L114.571 111.429L113.071 113.5L112.5 116.5L113 116.357L114.071 113.714L115.214 112.572L117.786 104.572Z" fill="#403F3B"/>
<path d="M108.071 113.357L106.357 115.142L106 116.214L106.214 116.357L106.5 116.285C106.714 115.785 107 115.071 107 115.071L108.857 113.214L109.5 113.071L109.429 112.714L108.071 113.357Z" fill="#403F3B"/>
<path d="M110.572 113.785L109.143 115.071L108.357 116.357L108.643 117.142H108.715C108.929 116.571 109.215 115.714 109.215 115.714L110.715 114.285L110.572 113.785Z" fill="#403F3B"/>
<path d="M42.644 53.1429L44.4297 51.6429L44.144 51.5714L41.0725 50L40.644 52.9286L39.9297 54.9286L41.2154 56.0714L42.644 53.1429Z" fill="#403F3B"/>
<path d="M33.0714 48.7139L29.7857 49.9996L26.7857 53.7139L25.5714 57.1424L25.3571 59.4282L23.7857 61.9996L20.3571 65.7139L20 67.1424L20.2857 67.3567L20.8571 65.8567L22 64.571L24.4286 62.3567L25.8571 59.9282L26 57.9996C26 57.9996 26.9286 54.9282 26.9286 54.7139C26.9286 54.4996 28.7857 51.6424 28.7857 51.6424L30.6429 50.1424L32.5714 49.1424L34.2857 48.9282L34.3571 48.7853L33.0714 48.7139Z" fill="#3B3A37"/>
<path d="M38.9289 54.1427L36.7146 53.4284L35.5003 52.9999L34.3574 51.857L33.286 51.7141L32.8574 50.7856L34.286 47.2856L34.8574 44.0713L35.4289 43.5713L37.8574 46.9284L39.1431 51.2141L38.9289 54.1427Z" fill="#CF867C"/>
<path d="M36.072 47.4282L34.9291 49.4996L34.2148 51.8567H34.3577L35.5006 52.9996L36.7148 53.4282H36.7863L37.5006 52.2853L37.7148 49.8567L36.4291 46.2139L36.072 47.4282Z" fill="#3B3A37"/>
<path d="M35.4289 43.5713L34.8574 44.0713L34.286 47.2856L32.8574 50.7856L33.286 51.7141L33.3574 51.7856L33.7146 49.9999L34.4289 48.1427L35.0003 45.0713L35.5717 45.4999L36.7146 48.0713L36.9289 50.4999L36.2146 52.0713L35.4289 52.9284L35.5003 52.9999L36.7146 53.4284L38.9289 54.1427L39.1431 51.2141L37.8574 46.9284L35.4289 43.5713Z" fill="#393836"/>
<path d="M93.2852 83.0713L96.6423 82.7141L99.6423 86.9999L106.142 93.9999L108.928 97.357L107.214 93.6427L101.571 86.1427L98.6423 81.2141L95.0709 79.5713L87.3566 81.4284L70.7852 81.7141L64.2852 81.1427H61.7852L62.2137 83.5713L62.2852 86.6427L62.928 84.6427L69.8566 84.5713L82.1423 84.1427L93.2852 83.0713Z" fill="#383836"/>
</svg>
