<svg width="150" height="150" viewBox="0 0 150 150" fill="none" xmlns="http://www.w3.org/2000/svg">
<path fill-rule="evenodd" clip-rule="evenodd" d="M103.436 75.5908C103.267 78.7598 106.69 85.5627 106.521 88.6894C106.352 91.8584 98.5773 102.295 97.2674 103.943C95.9576 105.591 95.1547 107.492 94.4787 107.873C93.8026 108.253 93.3378 108.549 93.2956 108.042C93.2533 107.534 93.2533 107.07 93.1266 107.196C92.9998 107.281 93.2111 108.802 91.7745 109.056C90.3378 109.309 86.0702 109.478 86.2393 108.802C86.4083 108.084 89.4928 106.985 89.7463 106.351C89.9998 105.76 90.1688 105.126 91.2674 104.323C92.3238 103.52 93.2111 102.844 93.3801 102.675C93.5069 102.506 97.4787 96.8021 97.7322 94.6894C97.9857 92.5767 97.7745 91.9429 97.7745 91.9429C97.7745 91.9429 97.3097 89.45 95.1125 86.1965C92.9153 82.9429 92.9998 77.8303 92.9998 77.8303L103.436 75.5908Z" fill="#493920"/>
<path fill-rule="evenodd" clip-rule="evenodd" d="M59.7891 83.1546C58.6905 86.8729 54.1271 88.0982 50.6623 93.3799C47.2398 98.6616 47.5778 99.5912 47.9581 101.028C48.2961 102.464 48.0426 102.676 48.5496 102.845C49.0567 103.014 49.775 103.605 50.1553 104.324C50.5355 105.042 50.9581 105.591 50.5355 105.633C50.113 105.676 49.1834 105.507 49.1834 105.507C49.1834 105.507 50.9581 108.929 50.9581 109.479C51.0003 110.028 46.2679 108 45.0003 106.859C43.6905 105.76 43.0989 104.704 43.0144 103.521C42.9299 102.295 43.4792 95.0701 44.3243 93.2532C45.1693 91.4363 45.3384 90.0842 45.9722 87.718C46.5637 85.3518 49.775 81.887 50.9158 81.8447C51.9299 81.887 59.7891 83.1546 59.7891 83.1546Z" fill="#493920"/>
<path fill-rule="evenodd" clip-rule="evenodd" d="M30.5506 49.1404C35.3675 44.8728 42.6774 38.7883 49.9872 36.5911C56.3675 34.6474 71.7478 34.8165 77.0717 35.7038C77.8745 35.8305 78.4661 35.9996 78.7196 36.1263C86.1985 40.5207 90.0858 34.9432 100.565 38.9996C108.001 41.8728 109.607 44.577 115.058 46.5207C120.551 48.4643 121.649 50.7883 122.579 53.3235C123.508 55.8165 123.889 58.5629 125.283 60.5911C126.677 62.577 127.48 64.0136 128.706 67.6474C129.973 71.2812 129.255 72.6756 131.283 74.1122C133.269 75.5488 134.41 74.6193 135.297 75.1263C136.184 75.6334 136.565 76.3517 136.565 76.3517C136.565 76.3517 135.044 76.0981 135.128 76.1827C135.255 76.2249 135.846 77.07 135.846 77.07C135.846 77.07 134.875 76.7742 134.41 76.8165C133.945 76.8587 134.579 77.3657 132.593 77.6615C130.607 77.9573 128.283 76.0981 127.565 74.6193C126.804 73.1404 128.663 70.7319 127.522 67.8165C126.339 64.901 122.79 59.1967 122.917 59.4503C123.044 59.7038 120.339 75.1263 121.142 77.915C121.945 80.7038 125.579 82.9432 126.044 84.8869C126.508 86.8305 126.128 89.7038 126.551 91.6474C126.973 93.5488 128.579 98.577 129.001 100.563C129.424 102.549 129.846 105.464 129.804 106.309C129.762 107.154 129.804 107.366 129.382 106.816C128.959 106.225 128.706 105.549 128.41 105.507C128.114 105.464 127.903 105.633 127.903 105.76C127.903 105.887 128.241 107.957 127.987 108.38C127.734 108.802 127.903 109.394 127.734 109.69C127.565 109.985 124.987 110.493 123.931 110.704C122.875 110.873 121.945 110.788 121.945 110.535C121.945 110.281 121.691 110.324 121.522 110.112C121.353 109.901 121.396 109.605 121.565 109.394C121.734 109.183 123.72 108.338 124.184 107.45C124.607 106.605 124.818 101.746 124.184 99.4643C123.551 97.1827 121.691 92.408 120.424 91.0981C119.156 89.7883 116.241 89.1122 113.198 86.6193C110.156 84.1686 107.072 81.6334 105.382 80.7038C103.691 79.7742 99.5929 79.0136 96.8041 80.9573C94.0154 82.901 83.4943 84.6756 79.0576 84.3798C74.5788 84.0841 67.8182 83.8305 67.8182 83.8305C67.8182 83.8305 64.8605 91.5629 63.8041 95.07C62.79 98.6193 63.6774 102.422 63.1703 105.211C62.6633 108 61.9872 108.549 61.7337 109.563C61.4379 110.577 60.6774 112.267 60.0858 112.436C59.5365 112.563 60.0858 109.352 60.0858 109.352C59.8745 109.563 58.4802 112.267 57.5506 112.732C56.621 113.197 54.1281 113.535 53.4098 113.493C52.6492 113.45 52.6914 113.154 52.5647 113.112C52.4379 113.112 51.3816 113.197 51.3816 112.859C51.3816 112.521 52.3534 111.549 53.1985 110.662C54.0436 109.774 55.0154 109.352 55.9027 108.042C56.79 106.732 58.6914 103.943 58.1422 100.309C57.5929 96.6756 56.9168 92.7883 56.7478 89.7038C56.5788 86.6193 55.7337 85.6897 55.7337 85.6897C55.7337 85.6897 47.3675 88.4784 42.8041 88.6474C38.2407 88.8165 36.9309 88.5629 34.7337 89.9573C32.4943 91.3517 28.5224 94.3939 26.114 94.6897C23.7478 95.0277 22.5647 94.8165 21.5929 95.408C20.621 95.9573 17.0295 97.6897 15.0013 98.1967C12.9731 98.7038 12.0436 97.7319 11.7055 96.9714C11.3675 96.2108 11.114 95.5348 10.945 95.4503C10.776 95.3657 9.21257 94.3939 9.33933 93.5488C9.46609 92.7038 9.88863 93.1686 10.4379 91.7742C10.9872 90.3798 10.9872 87.5066 15.0858 80.8728C19.1844 74.3657 20.4098 71.0277 20.621 68.3235C20.79 65.6193 20.79 65.1967 20.79 65.1967C20.79 65.1967 20.3252 64.6052 21.1703 60.6756C22.0154 56.7883 23.4098 56.408 23.114 53.9996C22.8182 51.5911 23.7055 49.2249 25.0576 48.0418C26.4098 46.901 30.5506 49.1404 30.5506 49.1404Z" fill="#54432E"/>
<path d="M127.649 73.605C127.564 74.2388 127.564 74.9149 127.776 75.6332C127.945 76.3092 128.283 76.9008 128.663 77.3233C129.085 77.7458 129.55 78.0416 129.93 78.2106C130.057 78.2529 130.142 78.2951 130.268 78.2951C130.395 78.4219 130.522 78.5064 130.649 78.5909C130.945 78.7599 131.198 78.9289 131.367 78.9712C131.536 79.0557 131.621 79.098 131.621 79.098C131.621 79.098 131.536 79.0135 131.409 78.9289C131.24 78.8022 131.071 78.6332 130.818 78.4219C130.86 78.4219 130.945 78.4219 130.987 78.4219H131.029C131.367 78.6332 131.663 78.8022 131.916 78.8867C132.128 78.9712 132.297 79.0134 132.466 79.0557C132.466 79.0557 132.508 79.0557 132.508 79.098C132.888 79.2247 133.099 79.267 133.099 79.267C133.099 79.267 132.846 79.0557 132.635 78.8867C132.804 78.8867 132.93 78.8867 132.93 78.8867C132.93 78.8867 132.804 78.8444 132.55 78.8022C132.55 78.8022 132.55 78.8022 132.508 78.8022C132.423 78.7177 132.339 78.6754 132.254 78.5909C132.381 78.6332 132.508 78.7177 132.635 78.7599C133.184 79.0557 133.733 79.267 134.156 79.3092C134.494 79.3515 134.79 79.3515 134.959 79.3515C135.17 79.3515 135.254 79.3092 135.254 79.3092C135.254 79.3092 135.128 79.3092 134.959 79.267C134.79 79.2247 134.536 79.1825 134.198 79.098C134.367 79.098 134.452 79.098 134.452 79.098C134.452 79.098 134.198 78.9712 133.902 78.8444C133.987 78.8444 134.114 78.8867 134.198 78.8867C134.832 79.0134 135.297 79.0135 135.297 79.0135C135.297 79.0135 135.254 78.9712 135.17 78.9289C135.635 78.9289 135.93 78.8444 135.93 78.8444C135.93 78.8444 135.592 78.7599 135.212 78.6754C135.085 78.6332 134.959 78.6332 134.79 78.5909C134.747 78.5487 134.705 78.5064 134.663 78.4642C134.832 78.4642 135.043 78.4642 135.17 78.4642C135.381 78.5064 135.55 78.5487 135.677 78.6332C135.761 78.7177 135.888 78.7599 135.973 78.8444C136.015 78.8867 136.057 78.8867 136.057 78.9289C136.142 79.0135 136.184 79.098 136.226 79.1825C136.268 79.2247 136.268 79.267 136.268 79.267C136.268 79.267 136.268 79.2247 136.268 79.1825C136.268 79.1402 136.226 79.0557 136.184 79.0135C136.522 79.267 136.818 79.436 136.818 79.436C136.818 79.436 136.733 79.3092 136.606 79.098C136.649 79.1402 136.691 79.1402 136.691 79.1402C136.691 79.1402 136.564 78.9712 136.311 78.7599C136.226 78.6754 136.142 78.5487 136.057 78.4642C136.268 78.6332 136.437 78.7599 136.522 78.8022C136.649 78.9712 136.691 79.0557 136.691 79.0557C136.691 79.0557 136.649 78.9712 136.649 78.8444C136.606 78.7599 136.564 78.6332 136.522 78.4642C136.564 78.5064 136.606 78.5487 136.606 78.5487C136.776 78.7599 136.945 78.9289 136.945 78.9289C136.945 78.9289 136.902 78.6754 136.733 78.2951C136.733 78.2529 136.691 78.2106 136.691 78.1684C136.776 78.2106 136.818 78.2106 136.818 78.2106C136.818 78.2106 136.607 77.6191 136.142 77.112C136.057 76.9853 135.93 76.9008 135.804 76.8163C135.804 76.8163 135.846 76.8163 135.846 76.8585C136.226 77.0275 136.522 77.2811 136.691 77.5346C136.902 77.7881 136.987 78.0416 137.071 78.2106C137.114 78.3796 137.156 78.5064 137.156 78.5064C137.156 78.5064 137.198 78.4219 137.156 78.2106C137.156 77.9994 137.071 77.7458 136.902 77.4078C136.776 77.1543 136.522 76.8585 136.226 76.6473C136.311 76.6895 136.353 76.7318 136.437 76.774C136.691 76.9853 136.86 77.1965 136.945 77.3656C137.029 77.5346 137.071 77.6191 137.071 77.6191C137.071 77.6191 137.071 77.4923 137.029 77.3233C136.987 77.1543 136.86 76.8585 136.606 76.605C136.353 76.3092 136.015 76.0557 135.592 75.8867C135.339 75.7599 135.043 75.6754 134.747 75.5487C134.916 75.5487 135.043 75.5487 135.17 75.5487C135.761 75.5064 136.099 75.4219 136.099 75.4219C136.099 75.4219 135.677 75.3796 135.17 75.2951C135.128 75.2951 135.085 75.2951 135.043 75.2951C135.085 75.2951 135.17 75.2529 135.212 75.2529C135.339 75.2106 135.466 75.1684 135.466 75.1684C135.466 75.1684 135.381 75.1684 135.212 75.2106C135.085 75.2106 134.959 75.2529 134.79 75.2529C134.747 75.2529 134.747 75.2106 134.705 75.2106C134.874 75.1684 134.959 75.1261 134.959 75.1261C134.959 75.1261 134.79 75.0416 134.536 74.9149C134.832 74.8726 135.043 74.8304 135.043 74.8304C135.043 74.8304 134.663 74.7881 134.24 74.7036C134.198 74.7036 134.156 74.7036 134.114 74.6613C134.621 74.6613 134.959 74.6613 134.959 74.6613C134.959 74.6613 133.015 74.112 132.17 73.8585C132.001 73.8163 131.79 73.7318 131.578 73.6895C131.494 73.605 131.325 73.4782 131.198 73.3515C130.86 73.0134 130.395 72.5487 129.973 71.9571C129.55 71.4078 129.212 70.8163 129.001 70.3937C129.001 70.1402 129.001 69.8867 129.001 69.6754C128.959 69.1684 128.832 68.7881 128.705 68.5346C128.621 68.4078 128.578 68.3233 128.536 68.2388C128.578 68.3233 128.621 68.4078 128.663 68.5346C128.747 68.7881 128.79 69.1684 128.79 69.6754C128.79 69.7177 128.79 69.7599 128.79 69.8022C128.747 69.7177 128.705 69.6332 128.705 69.6332C128.705 69.6332 128.705 69.7177 128.705 69.8444C128.705 69.9289 128.705 70.0135 128.747 70.1402C128.747 70.2247 128.705 70.3515 128.705 70.436C128.663 70.2247 128.578 70.0557 128.536 69.8867C128.452 69.5909 128.409 69.3374 128.409 69.1684C128.367 68.9994 128.367 68.9149 128.367 68.9149C128.367 68.9149 128.367 68.9994 128.325 69.1684C128.283 69.3374 128.283 69.5909 128.283 69.9289C128.283 70.0557 128.283 70.2247 128.325 70.3937C128.325 70.3937 128.325 70.3937 128.325 70.436C128.198 70.6473 128.071 70.9853 127.945 71.4078C127.606 71.6613 127.48 72.5909 127.649 73.605ZM130.522 78.0839L130.48 78.0416C130.522 78.0839 130.564 78.0839 130.607 78.1261C130.564 78.1261 130.564 78.0839 130.522 78.0839ZM128.536 74.2388C128.536 74.1543 128.494 74.0275 128.494 73.943C128.452 73.7318 128.409 73.5205 128.409 73.3515C128.409 73.267 128.409 73.2247 128.409 73.1402C128.452 72.8867 128.494 72.6332 128.536 72.3796C128.536 72.4642 128.536 72.5909 128.536 72.6754C128.536 73.1402 128.494 73.6473 128.536 74.2388ZM130.353 77.0698H130.395C130.395 77.112 130.437 77.1543 130.437 77.1965C130.437 77.1543 130.395 77.112 130.353 77.0698ZM131.705 77.2811C131.747 77.3233 131.832 77.3656 131.874 77.3656C132.381 77.6191 132.846 77.7881 133.311 77.8726C133.311 77.9149 133.353 77.9149 133.395 77.9571C132.93 77.9149 132.466 77.7881 132.043 77.5768C131.916 77.4923 131.832 77.3656 131.705 77.2811ZM128.705 71.6613C128.747 71.7458 128.79 71.8726 128.874 71.9571C129.043 72.2529 129.212 72.5064 129.423 72.7177C129.381 72.7177 129.381 72.7177 129.381 72.7177C129.381 72.7177 129.423 72.7599 129.466 72.8022C129.55 72.8867 129.592 72.9712 129.677 73.0557C129.592 73.0135 129.508 72.9712 129.508 72.9712C129.508 72.9712 129.592 73.0557 129.761 73.1825C129.677 73.098 129.635 73.0557 129.635 73.0557C129.635 73.0557 129.677 73.1402 129.761 73.267C129.846 73.3937 130.015 73.605 130.226 73.8163C130.184 73.8163 130.142 73.774 130.142 73.774C130.142 73.774 130.226 73.8163 130.311 73.9008C130.606 74.1543 130.945 74.4501 131.409 74.6613C131.409 74.6613 131.409 74.6613 131.367 74.6613C131.24 74.6191 131.156 74.6191 131.156 74.6191C131.156 74.6191 131.198 74.6191 131.24 74.6613C130.733 74.6613 130.437 74.7036 130.437 74.7036C130.437 74.7036 130.945 74.7881 131.536 74.9149C131.663 74.9571 131.832 74.9571 132.001 74.9994C132.297 75.1261 132.635 75.2529 133.015 75.4219C132.677 75.3374 132.466 75.3374 132.466 75.3374C132.466 75.3374 132.677 75.4642 132.973 75.6754C133.099 75.7599 133.268 75.8444 133.48 75.9712C133.184 75.9289 132.973 75.9289 132.973 75.9289C132.973 75.9289 133.057 75.9712 133.142 76.0135C132.888 75.9712 132.677 75.9289 132.508 75.9289L132.212 75.8867L132.466 75.9712C132.635 76.0557 132.888 76.1825 133.142 76.3092C133.099 76.3092 133.057 76.267 132.973 76.267C131.959 75.9712 131.071 75.6754 130.649 75.5064C130.733 75.4219 130.776 75.3796 130.776 75.3796C130.776 75.3796 130.691 75.4219 130.564 75.4642V75.6332L130.607 75.6754C130.86 75.8867 131.452 76.3092 132.212 76.6473C132.339 76.7318 132.466 76.8163 132.592 76.9008C132.466 76.9008 132.381 76.9008 132.339 76.9008C132.297 76.9008 132.254 76.8585 132.212 76.8585C132.128 76.8163 132.043 76.8163 132.043 76.8163C132.043 76.8163 132.085 76.8585 132.17 76.943C132.17 76.943 132.17 76.943 132.212 76.9853C132.17 76.9853 132.17 76.943 132.128 76.943C131.452 76.605 130.86 76.2247 130.437 75.8444C130.395 75.8022 130.353 75.7177 130.311 75.6754C130.184 75.5487 130.099 75.3796 130.015 75.2951C129.973 75.2529 129.973 75.1684 129.973 75.1261C129.973 74.9571 130.015 74.8726 130.015 74.8726C130.015 74.8726 129.93 74.9571 129.888 75.1261C129.888 75.1261 129.888 75.1261 129.888 75.1684C129.719 74.9571 129.635 74.8726 129.635 74.8726C129.635 74.8726 129.719 75.0839 129.888 75.4219C129.93 75.5487 129.973 75.7177 130.057 75.8444C130.099 75.9289 130.184 76.0134 130.226 76.098C130.311 76.267 130.437 76.4782 130.607 76.6895C130.099 76.1825 129.719 75.6332 129.508 75.1261C129.339 74.7036 129.212 74.3656 129.17 74.112C129.128 73.9853 129.128 73.9008 129.128 73.8163C129.128 73.7318 129.128 73.7318 129.128 73.7318C129.128 73.7318 129.128 73.774 129.128 73.8163C129.128 73.9008 129.128 73.9853 129.128 74.112C129.128 74.3656 129.17 74.7458 129.297 75.2106C129.423 75.6754 129.677 76.1825 130.057 76.6895C130.142 76.774 130.184 76.8585 130.268 76.943C130.268 76.943 130.226 76.943 130.226 76.9008C129.93 76.5627 129.719 76.1825 129.55 75.9289C129.423 75.7177 129.339 75.5487 129.254 75.4219C129.212 75.3796 129.212 75.3374 129.212 75.2951C129.128 74.9149 129.043 74.5768 129.001 74.2388C128.916 73.6895 128.874 73.1402 128.832 72.7177C128.79 72.3796 128.747 72.0839 128.705 71.8304C128.663 71.7881 128.705 71.7036 128.705 71.6613ZM134.409 77.7881C134.367 77.7881 134.325 77.7458 134.24 77.7458C134.283 77.7458 134.283 77.7458 134.325 77.7458C134.367 77.7881 134.367 77.7881 134.409 77.7881ZM128.409 70.943C128.409 70.9853 128.409 70.9853 128.409 71.0275C128.409 71.112 128.367 71.1965 128.367 71.2388C128.367 71.2811 128.325 71.2811 128.325 71.3233C128.24 71.4923 128.156 71.7458 128.029 72.0839C128.029 71.9994 128.029 71.9149 128.029 71.8726C128.029 71.5768 128.071 71.3233 128.114 71.0698C128.156 70.7318 128.24 70.436 128.325 70.1825C128.283 70.436 128.325 70.6895 128.409 70.943ZM134.705 77.9994C134.747 77.9994 134.79 77.9994 134.832 77.9994C134.832 77.9994 134.832 77.9994 134.874 77.9994C134.832 77.9994 134.79 77.9994 134.705 77.9994ZM130.649 78.2106C130.691 78.2106 130.733 78.2106 130.776 78.2106C130.818 78.2106 130.818 78.2529 130.86 78.2529C130.86 78.2529 130.86 78.2529 130.902 78.2529C130.818 78.2529 130.733 78.2529 130.649 78.2106Z" fill="#54432F"/>
<path d="M44.2403 84.7606L44.2826 84.8028C43.7755 84.9719 43.4375 85.1831 43.4375 85.1831C43.4375 85.1831 43.7755 85.3099 44.2826 85.3521C44.0713 85.3944 43.9445 85.4366 43.9445 85.4366C43.9445 85.4366 44.1981 85.6057 44.5783 85.7747C44.3248 85.7747 44.1558 85.8169 44.1558 85.8169C44.1558 85.8169 44.3671 86.1127 44.7896 86.324C44.4093 86.324 44.1558 86.324 44.1558 86.324C44.1558 86.324 44.1981 86.3662 44.2403 86.3662C44.1981 86.3662 44.1558 86.3662 44.1558 86.3662C44.1558 86.3662 44.2826 86.6197 44.5783 86.8733C44.4516 86.9155 44.4093 86.9155 44.4093 86.9155C44.4093 86.9155 44.4516 86.9578 44.5783 87.0423C44.1981 87 43.9445 87.0423 43.9445 87.0423C43.9445 87.0423 44.5361 87.5916 45.4234 87.8451C45.8037 87.9719 46.184 88.0141 46.4798 88.0141C46.4798 88.0141 46.4798 88.0141 46.522 88.0141C46.5643 88.0564 46.6065 88.1409 46.6488 88.1831C46.691 88.1831 46.7333 88.1831 46.8178 88.1409C47.4516 88.4366 48.1276 88.4789 48.5924 88.4366C48.8459 88.3944 49.015 88.3521 49.1417 88.3099C49.2685 88.2676 49.353 88.2254 49.353 88.2254C49.353 88.2254 49.2685 88.2254 49.1417 88.1831C49.015 88.1831 48.8459 88.1409 48.5924 88.0564C48.3812 88.0141 48.1699 87.9296 47.9586 87.8451C48.2121 87.8028 48.4657 87.7183 48.7192 87.6761C48.9305 87.6761 49.1417 87.6761 49.2685 87.6338C49.3952 87.6761 49.5643 87.6761 49.691 87.7183C50.7896 87.8451 51.7192 87.6338 51.7192 87.6338C51.7192 87.6338 51.6347 87.5916 51.5079 87.5493C52.353 87.5071 52.9445 87.2113 52.9445 87.2113C52.9445 87.2113 52.9023 87.2113 52.9023 87.169C53.2403 87.0845 53.4516 87 53.4516 87C53.4516 87 53.2403 86.9155 52.9023 86.7888C53.4938 86.7465 53.9586 86.6197 54.2121 86.5352C54.2544 86.5352 54.3389 86.5775 54.3812 86.5775C55.2262 86.7043 55.9868 86.4507 55.9868 86.4507C55.9868 86.4507 55.6488 86.2395 55.0995 86.0704C55.4375 86.1127 55.7755 85.9859 55.9445 85.9014C56.1981 86.3662 56.6629 87.4648 56.7896 89.6198C56.9586 92.7043 57.6347 96.5916 58.184 100.225C58.522 102.296 58.015 104.113 57.3812 105.507C58.353 107.282 59.1136 108.845 59.6206 110.07C59.9164 109.606 60.0854 109.268 60.1699 109.183C60.1699 109.183 60.0009 110.155 59.9586 111C60.1276 111.549 60.2121 111.972 60.1699 112.31C60.7614 112.183 61.522 110.493 61.8178 109.437C62.1136 108.423 62.7474 107.873 63.2544 105.085C63.7614 102.296 62.8741 98.493 63.8882 94.9437C64.7755 91.8169 67.2262 85.4789 67.7755 84C67.9868 84.1268 68.1558 84.2536 68.3248 84.2958C68.7051 84.4648 69.0009 84.5071 69.0009 84.5071C69.0009 84.5071 68.7896 84.2958 68.5361 84.0423C68.7896 84.2113 69.0009 84.3381 69.2122 84.4226C69.5924 84.5916 69.846 84.6338 69.846 84.6338C69.846 84.6338 69.4234 84.2113 69.0431 83.7888C69.1699 83.9155 69.2967 84.0423 69.4657 84.169C69.8459 84.4648 70.2685 84.5916 70.6488 84.6761C70.7333 84.7183 70.7755 84.7183 70.7755 84.7183C70.7755 84.7183 70.7755 84.7183 70.7755 84.6761C70.86 84.6761 70.9023 84.7183 70.9868 84.7183C71.3671 84.7606 71.6206 84.7183 71.6206 84.7183C71.6206 84.7183 71.4516 84.5916 71.2403 84.4648C71.6206 84.6338 72.0009 84.7183 72.2967 84.7183C72.3389 84.7183 72.3389 84.7183 72.3812 84.7183C72.7614 84.8451 73.0995 84.9296 73.3952 85.0141C73.86 85.0986 74.1558 85.0564 74.1558 85.0564C74.1558 85.0564 72.8037 84.2958 72.1276 83.8733C72.1699 83.8733 72.2544 83.8733 72.2967 83.8733C72.5502 84 72.8037 84.169 73.0995 84.2958C74.1558 84.7606 75.1276 84.8451 75.1276 84.8451C75.1276 84.8451 75.0854 84.8028 75.0009 84.7183C75.0431 84.7183 75.1276 84.7606 75.1699 84.7606C75.3812 84.9296 75.5924 85.0986 75.8037 85.1831C76.4798 85.5212 77.1558 85.5634 77.6629 85.4789C77.9164 85.4366 78.0854 85.3944 78.2122 85.3521C78.3389 85.3099 78.4234 85.2676 78.4234 85.2676C78.4234 85.2676 78.3389 85.2676 78.2122 85.2254C78.0854 85.2254 77.9164 85.1831 77.7051 85.0986C77.2826 85.0141 76.7333 84.8028 76.1417 84.5071C75.7614 84.2958 75.4234 84.0845 75.1276 83.9155C75.5079 83.9155 75.8882 83.9578 76.2685 83.9578C76.4798 84.169 76.7755 84.3381 77.1136 84.4648C77.6629 84.6761 78.2122 84.7183 78.5924 84.6761C78.9727 84.6338 79.184 84.5493 79.184 84.5493C79.184 84.5493 79.184 84.5493 79.1417 84.5493C80.1981 84.6761 80.9586 84.5916 80.9586 84.5916C80.9586 84.5916 80.6629 84.4226 80.1558 84.2535C80.3671 84.2535 80.5361 84.2535 80.5361 84.2535C80.5361 84.2535 80.4938 84.2113 80.4093 84.169C80.5361 84.169 80.7051 84.169 80.8741 84.169C80.9164 84.2113 81.0009 84.2113 81.0431 84.2535C82.015 84.6761 82.9445 84.7183 82.9445 84.7183C82.9445 84.7183 82.6488 84.4226 82.184 84.1268C82.353 84.1268 82.5643 84.0845 82.7333 84.0845C83.4516 84.169 83.9164 84.169 83.9164 84.169C83.9164 84.169 83.8741 84.1268 83.7896 84.0845C84.1699 84.169 84.5502 84.2536 84.846 84.2958C85.7333 84.5493 86.4938 84.5071 86.4938 84.5071C86.4938 84.5071 86.0713 84.1268 85.3953 83.831C85.5643 83.7888 85.7755 83.7888 85.9445 83.7465C86.2403 83.9155 86.6206 84.0423 87.0431 84.0845C87.7614 84.169 88.3952 84.0845 88.8178 83.9155C88.9445 83.8733 89.029 83.831 89.1136 83.7888C89.4938 83.7888 89.8741 83.7465 90.1699 83.662C90.6769 83.5775 90.9727 83.4507 90.9727 83.4507C90.9727 83.4507 90.6769 83.4085 90.1699 83.324H90.1276C90.846 83.2817 91.3107 83.1972 91.3107 83.1972C91.3107 83.1972 91.015 83.0705 90.5502 82.9437C90.6347 82.9437 90.6769 82.9437 90.7614 82.9437C92.3248 82.8592 93.5924 82.4789 93.5924 82.4789C93.5924 82.4789 93.4234 82.4366 93.1276 82.3944C93.8037 82.3944 94.3952 82.2676 94.5643 82.1831C95.3248 82.1409 95.8741 81.9719 95.8741 81.9719C95.8741 81.9719 95.5361 81.8028 94.9868 81.6761C95.0291 81.6338 95.1136 81.6338 95.1558 81.5916C95.1981 81.5916 95.1981 81.5916 95.2403 81.5916C96.2967 81.6338 97.184 81.2958 97.184 81.2958C97.184 81.2958 97.1417 81.2958 97.1417 81.2536C97.2262 81.2536 97.2685 81.2536 97.353 81.2536C98.4938 81.169 99.3812 80.7888 99.3812 80.7888C99.3812 80.7888 98.4516 80.493 97.3107 80.5775C97.2262 80.5775 97.184 80.5775 97.0995 80.5775C97.2262 80.493 97.353 80.4085 97.4798 80.3662C97.9023 80.4085 98.5361 80.4507 99.2122 80.4085C99.4234 80.4085 99.5924 80.3662 99.8037 80.324C99.9727 80.324 100.184 80.324 100.353 80.3662C100.945 80.4085 101.494 80.4085 101.874 80.4085C102.254 80.4085 102.55 80.4085 102.55 80.4085C102.55 80.4085 102.339 80.2395 101.959 80.0705C101.578 79.9014 101.029 79.7324 100.395 79.6902C100.184 79.6902 99.9727 79.6902 99.8037 79.7324C99.5924 79.7324 99.3812 79.7324 99.1699 79.7747C99.1276 79.7747 99.1276 79.7747 99.0854 79.7747C99.3812 79.6902 99.6769 79.6479 99.9305 79.6057C100.057 79.6057 100.226 79.6479 100.438 79.6479C100.86 79.6902 101.409 79.7747 102.043 79.8592C102.339 79.9014 102.635 79.9437 102.888 79.9859C103.099 80.0282 103.268 80.0704 103.48 80.1127C104.367 80.324 105.17 80.493 105.761 80.6197C105.804 80.6197 105.888 80.662 105.93 80.662C107.663 81.7183 110.578 84.0845 113.452 86.4085C116.494 88.8592 119.409 89.5775 120.677 90.8874C121.945 92.1972 123.804 96.9719 124.438 99.2535C125.071 101.535 124.86 106.394 124.438 107.239C124.015 108.085 121.987 108.972 121.818 109.183C121.649 109.394 121.564 109.69 121.776 109.901C121.945 110.113 122.198 110.07 122.198 110.324C122.198 110.577 123.17 110.704 124.184 110.493C125.24 110.324 127.818 109.775 127.987 109.479C128.156 109.183 127.987 108.592 128.24 108.169C128.494 107.747 128.156 105.676 128.156 105.549C128.156 105.423 128.325 105.254 128.663 105.296C128.959 105.338 129.212 106.056 129.635 106.606C130.057 107.197 130.015 106.944 130.057 106.099C130.099 105.254 129.677 102.338 129.254 100.352C128.832 98.3662 127.226 93.3381 126.804 91.4366C126.381 89.5352 126.761 86.662 126.297 84.6761C125.832 82.7324 122.198 80.493 121.395 77.7043C120.677 75.1268 122.916 61.7324 123.128 59.5352C123.128 59.4085 123.128 59.324 123.128 59.2395C123.254 58.2676 122.832 57.5916 122.114 57.0423C122.24 57.0423 122.367 57.0423 122.367 57.0423C122.367 57.0423 122.367 56.8733 122.283 56.7043C122.198 56.5352 121.945 56.2817 121.607 56.2395C121.395 56.1972 121.226 56.2817 121.057 56.3662C120.804 56.2395 120.55 56.0705 120.254 55.9437C120.635 55.9859 120.888 55.9859 120.888 55.9859C120.888 55.9859 120.677 55.7747 120.297 55.5634C119.916 55.3099 119.325 55.0564 118.649 55.0141C118.564 55.0141 118.522 55.0141 118.438 55.0141C118.438 55.0141 118.395 55.0141 118.395 54.9719C118.564 54.9296 118.691 54.8451 118.691 54.8451C118.691 54.8451 118.395 54.7606 117.93 54.6338C117.804 54.5493 117.719 54.5071 117.592 54.4226C117.508 54.3803 117.423 54.3381 117.339 54.2535C117.508 54.2958 117.719 54.3381 117.846 54.3803C118.142 54.4648 118.353 54.5071 118.522 54.5916C118.691 54.6338 118.776 54.6761 118.776 54.6761C118.776 54.6761 118.691 54.5916 118.607 54.4648C118.48 54.3381 118.311 54.169 118.057 54C117.55 53.662 116.747 53.2817 115.776 53.1972C115.522 53.1972 115.268 53.1972 115.015 53.1972C114.888 53.155 114.719 53.1127 114.592 53.0704C114.804 53.0282 115.057 53.0282 115.226 53.0282C115.649 52.9859 116.029 52.9859 116.029 52.9859C116.029 52.9859 115.945 52.9437 115.818 52.8592C115.691 52.7747 115.48 52.6902 115.268 52.6057C115.015 52.5212 114.719 52.4366 114.339 52.3944C114.297 52.3944 114.254 52.3521 114.254 52.3521C114.001 52.2676 113.705 52.1831 113.367 52.1409C113.747 51.9296 113.959 51.8028 113.959 51.8028C113.959 51.8028 113.409 51.7606 112.607 51.8451C112.987 51.6338 113.198 51.5071 113.198 51.5071C113.198 51.5071 112.438 51.4648 111.423 51.5916C111.719 51.4648 111.93 51.3803 111.93 51.3803C111.93 51.3803 111.592 51.2958 111.085 51.2958C110.747 51.2958 110.367 51.3381 109.945 51.4226C109.818 51.4226 109.691 51.4226 109.564 51.3803C108.973 51.3803 108.128 51.5071 107.325 51.9296C107.367 51.9296 107.367 51.8874 107.409 51.8874C107.79 51.7183 108.128 51.5493 108.128 51.5493C108.128 51.5493 108.043 51.5493 107.916 51.5071C107.79 51.4648 107.578 51.4648 107.325 51.4648C107.198 51.4648 107.071 51.4648 106.945 51.5071C107.283 51.2535 107.621 51.0423 107.916 50.9155C108.17 50.7888 108.381 50.662 108.508 50.5775C108.635 50.493 108.761 50.4507 108.761 50.4507C108.761 50.4507 108.677 50.4507 108.508 50.4507C108.339 50.4507 108.085 50.4507 107.79 50.493C107.198 50.5775 106.353 50.8733 105.592 51.4648C105.466 51.5493 105.381 51.6338 105.297 51.7606C105.254 51.7606 105.17 51.8028 105.128 51.8028C104.874 51.8874 104.578 51.9719 104.283 52.1409C104.325 52.0986 104.325 52.0564 104.325 52.0564C104.325 52.0564 104.156 52.0564 103.902 52.1409C104.029 51.8874 104.071 51.6761 104.071 51.6761C104.071 51.6761 103.902 51.7606 103.691 51.8874C103.776 51.7606 103.902 51.6761 103.987 51.5916C104.283 51.2535 104.578 50.9578 104.578 50.9578C104.578 50.9578 104.24 51.0423 103.733 51.2535C103.226 51.4648 102.55 51.8874 102.001 52.5212L101.959 52.5634C101.959 52.4789 101.959 52.3944 101.959 52.3944C101.959 52.3944 101.24 53.0282 100.649 54.0423C100.818 53.4085 100.86 52.9437 100.86 52.9437C100.86 52.9437 100.395 53.4507 99.9727 54.2113C99.7614 54.5071 99.4657 54.9719 99.1699 55.5212C99.1699 55.4789 99.1276 55.4366 99.1276 55.4366C99.0431 55.3099 99.0009 55.2676 99.0009 55.2676C99.0009 55.2676 98.9586 55.6057 98.9164 55.9859C98.9164 56.0282 98.9164 56.1127 98.8741 56.155C98.8741 56.1972 98.8319 56.2395 98.8319 56.2817C98.8319 56.0282 98.8319 55.8592 98.8319 55.8592C98.8319 55.8592 98.7896 55.9014 98.7051 56.0282C98.7051 54.9296 98.4516 54.0845 98.4516 54.0845C98.4516 54.0845 98.2403 54.5071 98.0291 55.1409L97.9868 55.0986C97.9868 55.0986 97.9868 55.1409 97.9868 55.2254C97.9023 55.5212 97.7755 55.9014 97.7333 56.2817C97.691 56.1127 97.691 56.0282 97.691 56.0282C97.691 56.0282 97.6488 56.0705 97.6488 56.155C97.6488 56.155 97.522 56.4085 97.4375 56.7465C97.353 57.0423 97.2685 57.3803 97.2262 57.8028C97.2262 57.8874 97.2262 57.9719 97.2262 58.0564C97.0995 57.8451 97.015 57.7183 97.015 57.7183C97.015 57.7183 96.8882 57.9719 96.7192 58.3099C96.6769 58.4366 96.5924 58.5634 96.5502 58.6902C96.5502 58.6057 96.5502 58.5634 96.5502 58.5634C96.5502 58.5634 96.4657 58.6902 96.3389 58.9014C96.3389 58.7747 96.3389 58.6902 96.3389 58.6902C96.3389 58.6902 95.7896 59.3662 95.4516 60.3381C95.4093 60.5071 95.3671 60.6761 95.3248 60.8451C95.2826 60.8874 95.2403 60.9719 95.1981 61.0141C95.5361 60.169 95.5361 59.4085 95.5361 59.4085C95.5361 59.4085 94.9023 60.0423 94.4798 60.9719C94.4375 61.0986 94.3952 61.2254 94.353 61.3099C94.1417 61.5634 93.8037 61.9014 93.5924 62.324C93.5502 62.4085 93.5079 62.4507 93.4657 62.5352C93.5502 62.155 93.5924 61.9014 93.5924 61.9014C93.5924 61.9014 93.2967 62.1127 92.9586 62.5352C93.1699 62.0282 93.2544 61.6902 93.2544 61.6902C93.2544 61.6902 93.0009 61.9014 92.6629 62.2817C92.9586 61.6057 93.0854 61.0986 93.0854 61.0986C93.0854 61.0986 92.1136 62.155 91.2262 63.7183C90.9305 63.8028 90.5924 63.8874 90.2544 64.0141C90.2967 63.9296 90.2967 63.8451 90.2967 63.7606C90.3389 63.3381 90.2967 63.0845 90.2967 63.0845C90.2967 63.0845 89.4093 64.1831 89.0713 64.6479C89.0291 64.6902 88.9445 64.7324 88.9023 64.7747C89.4093 64.1409 89.6206 63.5493 89.6206 63.5493C89.6206 63.5493 88.7333 63.8451 87.9727 64.5634C87.9305 64.6057 87.8882 64.6479 87.846 64.6902C87.8882 64.5212 87.9305 64.4366 87.9305 64.4366C87.9305 64.4366 87.1276 64.6479 86.4938 65.2817C86.3671 65.4085 86.2403 65.5775 86.1558 65.7043C85.9868 65.7888 85.86 65.831 85.691 65.9155C85.8178 65.831 85.9445 65.7043 86.0713 65.6197C87.0854 64.7324 87.5924 63.6761 87.5924 63.6761C87.5924 63.6761 86.6206 64.0564 85.691 64.8592C85.522 64.8592 85.1417 64.9014 84.6347 64.9859C84.7614 64.8592 84.846 64.7747 84.9305 64.6479C85.2685 64.2254 85.4375 63.9296 85.4375 63.9296C85.4375 63.9296 85.0995 64.1409 84.7192 64.3944C84.2967 64.6479 83.7051 64.9859 83.029 65.324C83.9164 64.6057 84.4234 63.8874 84.4234 63.8874C84.4234 63.8874 83.2403 64.1831 82.0572 64.9859C81.7614 65.1972 81.5079 65.4085 81.2967 65.5775C81.2121 65.6197 81.1276 65.6197 81.0431 65.662C81.0009 65.662 81.0009 65.662 80.9586 65.7043C81.0431 65.6197 81.1276 65.5352 81.2121 65.4507C81.3812 65.2817 81.4657 65.1127 81.5502 64.9859C81.5924 64.8592 81.6347 64.8169 81.6347 64.8169C81.6347 64.8169 81.5502 64.8592 81.4657 64.9014C81.3389 64.9859 81.2121 65.0704 81.0009 65.155C80.7051 65.324 80.2826 65.493 79.8178 65.7043C80.0713 65.5352 80.3248 65.324 80.4938 65.155C80.8741 64.7747 81.0854 64.4789 81.0854 64.4789C81.0854 64.4789 80.7896 64.6479 80.3248 64.8592C80.2826 64.8592 80.2403 64.9014 80.1981 64.9437V64.9014C80.1981 64.9014 80.1136 64.9437 79.9868 64.9859C79.9445 65.0282 79.86 65.0282 79.8178 65.0704C79.5643 65.1972 79.2685 65.324 78.9305 65.4085C78.8882 65.4085 78.846 65.4085 78.8037 65.4507C78.846 65.4507 78.846 65.4085 78.8882 65.4085C79.8178 65.1127 80.4516 64.7324 80.4516 64.7324C80.4516 64.7324 80.1136 64.6902 79.5643 64.7324C79.7755 64.4789 79.9023 64.2676 79.9868 64.1409C80.1981 63.9719 80.2826 63.8874 80.2826 63.8874C80.2826 63.8874 79.86 64.0141 79.3952 64.1409C78.6769 64.3521 78.0431 64.5634 77.5361 64.7324C77.7474 64.5212 77.9586 64.3099 78.1276 64.1409C78.4234 63.8451 78.6347 63.6338 78.6347 63.6338C78.6347 63.6338 78.3812 63.6761 77.9586 63.8874C77.7474 63.9719 77.5361 64.0986 77.2826 64.2254C77.4938 63.8451 77.6206 63.5493 77.6206 63.5493C77.6206 63.5493 77.2403 63.7606 76.7755 64.0986C77.3248 63.6338 77.6629 63.2958 77.6629 63.2958C77.6629 63.2958 76.7333 63.5493 75.6769 64.1409C75.6347 64.1409 75.5924 64.1409 75.5924 64.1831C75.6347 64.1409 75.6347 64.0986 75.6769 64.0564L75.7192 64.0141C75.7614 63.9719 75.7614 63.9296 75.8037 63.8874C75.9305 63.7183 76.0995 63.5071 76.184 63.3803C76.3952 63.1268 76.6065 62.831 76.6065 62.831C76.6065 62.831 76.3952 62.8733 76.0995 63.0423C76.0995 63 76.0995 62.9578 76.0995 62.9578C76.0995 62.9578 76.015 62.9578 75.9305 63C76.015 62.662 76.0572 62.4507 76.0572 62.4507C76.0572 62.4507 75.9727 62.493 75.846 62.6197L75.8037 62.662C75.7614 62.7043 75.6769 62.7465 75.5924 62.831C75.5502 62.7043 75.5502 62.662 75.5502 62.662C75.5502 62.662 75.2967 63.0423 75.0431 63.4648C74.9164 63.4648 74.7896 63.4648 74.6629 63.4648C74.7051 63.4226 74.7051 63.3803 74.7474 63.3803C74.8741 63.2958 74.9586 63.2113 74.9586 63.2113C74.9586 63.2113 74.9164 63.2113 74.8319 63.2113C75.1276 62.7043 75.2544 62.2395 75.2544 62.2395C75.2544 62.2395 75.1699 62.2817 75.0854 62.324C75.0009 62.3662 74.8741 62.4507 74.7051 62.5775C74.6206 62.6197 74.5783 62.662 74.4938 62.7465C74.4516 62.7888 74.3671 62.831 74.2826 62.8733C74.2826 62.7888 74.2826 62.7043 74.3248 62.6197C74.4093 62.4507 74.4938 62.2395 74.6206 62.1127C74.7474 61.9014 74.8319 61.7324 74.9164 61.6057C75.0009 61.4789 75.0431 61.4366 75.0431 61.4366C75.0431 61.4366 74.9586 61.4789 74.8741 61.5634C74.7474 61.6479 74.5783 61.7747 74.4093 61.9014C74.3671 61.9437 74.3248 61.9859 74.2826 62.0282C74.4093 61.3521 74.3248 60.8028 74.3248 60.8028C74.3248 60.8028 73.6488 61.4366 73.3107 62.4085C73.1417 62.831 73.0995 63.2535 73.0572 63.5916C72.9727 63.6338 72.9305 63.6338 72.8459 63.6761C72.8459 63.6338 72.8459 63.5493 72.8459 63.4648C72.9305 63.2113 73.015 62.9578 73.0995 62.7043C73.3107 62.0705 73.4798 61.4789 73.6488 61.0564C73.7755 60.6338 73.86 60.3381 73.86 60.3381C73.86 60.3381 73.6488 60.5071 73.353 60.8874C73.3107 60.9296 73.2685 60.9719 73.2262 61.0564C73.2262 60.9296 73.2262 60.8028 73.184 60.7606C73.2262 60.5916 73.3107 60.3803 73.353 60.2113C73.5643 59.6197 73.7333 59.1127 73.7333 59.1127C73.7333 59.1127 73.4375 59.4507 73.0572 60.0845C73.0572 60.1268 73.015 60.1268 73.015 60.169C73.0572 59.7465 73.0995 59.4085 73.0995 59.4085C73.0995 59.4085 73.0572 59.5352 72.9727 59.7043C72.8882 59.9155 72.7614 60.169 72.6347 60.5493C72.5502 60.7606 72.5079 61.0141 72.4234 61.2676C72.3812 61.3521 72.3389 61.4366 72.2967 61.5212C72.2544 61.5634 72.2544 61.5634 72.2121 61.6057C72.1699 60.9296 72.1276 60.2958 72.0854 59.831C72.0854 59.7888 72.0854 59.7888 72.0854 59.7465C72.1276 59.662 72.1699 59.5775 72.2121 59.493C72.2967 59.324 72.3389 59.2395 72.3389 59.2395C72.3389 59.2395 72.2544 59.324 72.1276 59.4507L72.0854 59.493C72.0854 59.493 72.0854 59.493 72.0854 59.4507C72.0854 59.324 72.1276 59.1972 72.1276 59.0704C72.1699 58.7324 72.2121 58.3944 72.2121 58.3944C72.2121 58.3944 72.0009 58.6057 71.7896 58.9859C71.6206 59.2395 71.4938 59.5775 71.3671 60C71.3671 59.0704 71.1136 58.3099 71.1136 58.3099C71.1136 58.3099 71.0713 58.3521 71.0291 58.4366C71.0291 58.3521 70.9868 58.3099 70.9868 58.3099C70.9868 58.3099 70.9023 58.3944 70.7333 58.6057C70.7755 58.3521 70.8178 58.1409 70.9023 57.9296C70.9868 57.5916 71.0713 57.3381 71.1558 57.169C71.1981 57 71.2403 56.8733 71.2403 56.8733C71.2403 56.8733 71.1558 56.9578 71.0291 57.0845C70.9023 57.2535 70.7333 57.4648 70.5643 57.7606C70.522 57.8451 70.4375 57.9719 70.3953 58.0564C70.353 57.8874 70.353 57.8028 70.353 57.8028C70.353 57.8028 70.3107 57.8874 70.3107 58.0564C70.2262 57.7183 70.1417 57.4226 70.0572 57.169C70.0572 57.0845 70.0572 56.9578 70.0572 56.8733C70.015 56.493 69.7614 56.155 69.5502 55.9859C69.3389 55.8169 69.1699 55.7747 69.1699 55.7747C69.1699 55.7747 69.1699 55.9859 69.1699 56.1972C69.1699 56.4507 69.1699 56.7043 69.2122 57C69.2122 57 69.2122 57 69.2122 57.0423C69.1699 57.2535 69.1699 57.5493 69.1276 57.8451C69.0431 57.0845 68.8319 56.5352 68.8319 56.5352C68.8319 56.5352 68.7051 56.8733 68.6206 57.3803C68.6206 57.3381 68.5783 57.3381 68.5783 57.2958C68.5783 57.169 68.5783 57.0423 68.5783 56.8733C68.5783 55.8169 68.1981 54.9296 68.1981 54.9296C68.1981 54.9296 68.0291 55.3521 67.9445 55.9859C67.9445 55.9437 67.9023 55.9014 67.9023 55.8592C67.9023 55.6479 67.9445 55.4366 67.9445 55.2254C67.9023 54.1268 67.5643 53.2395 67.5643 53.2395C67.5643 53.2395 67.4798 53.5352 67.3952 54V53.9578C67.353 53.324 67.1417 52.8169 66.9727 52.4366C66.8037 52.0564 66.6347 51.8874 66.6347 51.8874C66.6347 51.8874 66.6347 52.1409 66.6347 52.5212C66.6347 52.8169 66.6769 53.1972 66.6769 53.662C66.5502 53.4507 66.3812 53.2817 66.2121 53.1127C65.8741 51.9719 65.4093 51.2113 65.4093 51.2113C65.4093 51.2113 65.4093 51.7183 65.4938 52.4789C65.1558 52.2254 64.8178 52.0564 64.4375 51.8874C64.015 51.2958 63.5924 50.9578 63.5924 50.9578C63.5924 50.9578 63.6347 51.2535 63.7192 51.6761C63.6769 51.6761 63.6769 51.6761 63.6347 51.6761C63.5079 51.2535 63.2121 50.831 62.7896 50.4507C62.1981 49.9437 61.4798 49.7324 60.9727 49.7324C60.7192 49.7324 60.5079 49.7324 60.3812 49.7747C60.2544 49.8169 60.1699 49.8169 60.1699 49.8169C60.1699 49.8169 60.2544 49.8592 60.3812 49.8592C60.5079 49.9014 60.6769 49.9437 60.8882 50.0282C61.3107 50.1972 61.8178 50.493 62.3248 50.9578C62.5361 51.169 62.7474 51.3381 62.9164 51.5493C62.8319 51.5493 62.7896 51.5493 62.7051 51.5071C62.6206 51.3803 62.5361 51.2113 62.4093 51.0845C62.1136 50.7888 61.7333 50.662 61.4798 50.662C61.2262 50.6197 61.0572 50.7043 61.0572 50.7043C61.0572 50.7043 61.2262 50.831 61.353 51C61.5643 51.2113 61.7755 51.3803 61.86 51.5071C61.7755 51.5071 61.691 51.5071 61.6488 51.5071C61.4798 51.3381 61.2685 51.2113 61.015 51.0423C60.1276 50.493 59.1981 50.324 59.1981 50.324C59.1981 50.324 59.7474 51.0845 60.6769 51.6338H60.7192C60.6347 51.6338 60.5502 51.6761 60.4234 51.6761C60.2967 51.5916 60.1699 51.5071 60.0009 51.4648C59.1558 51.0423 58.3107 51 58.3107 51C58.3107 51 58.7755 51.5493 59.4938 51.9296C59.3671 51.9719 59.1981 52.0564 59.0713 52.0986C58.86 52.0141 58.6488 51.9296 58.3952 51.8874C57.3812 51.6761 56.5361 51.8028 56.5361 51.8028C56.5361 51.8028 57.2121 52.2676 58.184 52.5212C58.0572 52.6057 57.8882 52.6902 57.7614 52.7747C57.7192 52.7747 57.6347 52.7324 57.5924 52.7324C56.9164 52.6057 56.3248 52.7324 55.9023 52.8592C55.4798 52.9859 55.2685 53.155 55.2685 53.155C55.2685 53.155 55.6065 53.1972 55.9445 53.1972C56.029 53.1972 56.1558 53.1972 56.2403 53.2395C56.0713 53.2395 55.9023 53.2395 55.7333 53.2395C55.015 53.324 54.4234 53.5775 54.0431 53.7465L53.8741 53.831L53.9586 53.9155C54.1699 54.169 54.2967 54.2958 54.2967 54.2958C54.2967 54.2958 54.2967 54.169 54.2121 54C54.6347 54 55.1417 53.9578 55.7755 53.9155C55.9023 53.9155 56.029 53.8733 56.1558 53.8733C56.029 53.9578 55.9445 54.0423 55.8178 54.1268C55.4798 54.0845 55.0572 54.0423 54.5924 54.2113C54.1276 54.3803 53.7474 54.6338 53.4938 54.8874C53.2826 55.1409 53.1558 55.3099 53.1558 55.3099C53.1558 55.3099 53.1981 55.3099 53.3248 55.2676C53.2826 55.3099 53.2403 55.3521 53.2403 55.3521C53.0713 55.4366 52.9868 55.4789 52.9868 55.4789C52.9868 55.4789 53.2403 55.5634 53.6629 55.6057C53.6206 55.6479 53.5361 55.7324 53.4938 55.7747C53.2403 56.0704 53.1136 56.324 53.1136 56.324C53.1136 56.324 53.4093 56.1972 53.7051 56.0282C53.8741 55.9437 54.0431 55.8592 54.2121 55.7747C54.1276 55.8169 54.0854 55.9014 54.0009 55.9437C53.8741 56.1127 53.7896 56.2395 53.7474 56.324C53.5361 56.4085 53.3671 56.493 53.1558 56.5775C52.4375 56.9578 51.9305 57.4648 51.5924 57.8874C51.2544 58.3099 51.1276 58.6057 51.1276 58.6057C51.1276 58.6057 51.4657 58.3944 51.8459 58.1409C52.184 57.9296 52.5643 57.6761 53.029 57.4226C52.9023 57.6338 52.7755 57.8028 52.6488 58.0141C52.3107 58.3944 52.015 58.8169 51.8037 59.1127C51.5079 59.2817 51.2544 59.5352 50.9586 59.7888C50.4093 60.3381 50.0713 61.0141 49.86 61.4789C49.691 61.8592 49.6488 62.155 49.6488 62.2395C49.184 62.831 48.9727 63.3381 48.9727 63.3381C48.9727 63.3381 49.4375 63.1268 50.029 62.662C50.029 62.7043 49.9868 62.7465 49.9868 62.7888C49.6488 63 49.2262 63.3381 48.8459 63.8028C48.0854 64.6479 47.7051 65.5775 47.7051 65.5775C47.7051 65.5775 47.7051 65.5775 47.7474 65.5352C47.1981 66.3381 46.9023 67.0564 46.9023 67.0564C46.9023 67.0564 47.8319 66.4648 48.6347 65.4507C48.6347 65.4507 48.6347 65.4507 48.6347 65.4085C48.4234 65.8733 48.2121 66.2958 48.0009 66.7183C47.8741 66.8028 47.7474 66.9296 47.6629 67.0564C46.7333 67.9437 46.2262 68.9155 46.2262 68.9155C46.2262 68.9155 46.2685 68.8733 46.3952 68.831C46.353 68.8733 46.3107 68.9155 46.2685 69C45.6769 69.8451 45.4657 70.7747 45.4657 70.7747C45.4657 70.7747 45.7192 70.6057 46.015 70.3099C45.5502 70.9859 45.3812 71.6197 45.3812 71.6197C45.3812 71.6197 45.5079 71.5352 45.7192 71.4085C45.2967 72.2535 45.1699 73.0141 45.1699 73.0141C45.1699 73.0141 45.2544 72.9296 45.3812 72.8451C45.3812 73.0141 45.3812 73.3521 45.3812 73.7747C45.3389 73.8592 45.3389 73.9014 45.3389 73.9859C45.2121 74.1972 45.1276 74.4507 45.0009 74.7465C44.6629 75.7606 44.7051 76.6479 44.7051 76.6479C44.7051 76.6479 45.0431 76.2676 45.3389 75.6338C45.3389 75.7183 45.3389 75.8028 45.3389 75.8874C45.0854 76.2676 44.7474 76.7747 44.4516 77.3662C43.8178 78.6761 43.6065 79.8592 43.6065 79.8592C43.6065 79.8592 44.4093 78.9719 45.0854 77.662C45.1699 77.493 45.2544 77.324 45.3389 77.155C45.3389 77.3662 45.3389 77.5775 45.2967 77.7888C45.0431 78 44.7051 78.3381 44.4516 78.8028C43.9023 79.6479 43.7755 80.493 43.7755 80.493C43.7755 80.493 44.4938 79.9859 45.0431 79.1831C45.1276 79.0564 45.2121 78.9296 45.2544 78.8028C45.2121 79.1831 45.1699 79.6057 45.1699 79.9859C44.9586 80.1127 44.7474 80.2395 44.5783 80.4507C44.029 81 43.86 81.6338 43.86 81.6338C43.86 81.6338 44.1136 81.5493 44.4093 81.3803C44.1136 81.9296 43.9868 82.3944 43.9868 82.3944C43.9868 82.3944 44.4516 82.1409 44.9586 81.6761C44.9586 81.7606 44.9164 81.8451 44.9164 81.9719C44.5361 82.4366 44.4516 82.9437 44.4516 82.9437C44.4516 82.9437 44.5361 82.9014 44.7051 82.8592C44.6629 82.9437 44.6206 83.0705 44.6206 83.155C43.9023 83.662 43.5643 84.3381 43.5643 84.3381C43.5643 84.3381 44.0713 84.2535 44.6206 83.9578C44.6629 84 44.6629 84.0423 44.7051 84.0845C44.1558 84.4648 43.8178 84.8451 43.8178 84.8451C43.8178 84.8451 43.5643 84.9719 44.2403 84.7606ZM50.1558 61.3521C49.9445 61.5212 49.7333 61.6902 49.4798 61.9014C49.5643 61.8169 49.6488 61.7324 49.7333 61.6479C49.86 61.5212 50.0713 61.3521 50.2403 61.2254C50.1981 61.2254 50.1981 61.2676 50.1558 61.3521ZM73.4798 64.7747C73.6065 64.6902 73.7333 64.6479 73.8178 64.6057C73.7755 64.6902 73.7333 64.7747 73.6488 64.8592C73.5643 64.9014 73.4798 64.9437 73.3952 64.9859C73.3952 64.9014 73.4375 64.8169 73.4798 64.7747ZM76.015 66.0845C76.015 66.0845 75.9727 66.1268 75.9305 66.1268C75.846 66.1268 75.8037 66.1268 75.7192 66.1268C75.846 66.0845 75.9305 66.0845 76.015 66.0845ZM84.5924 65.324C84.7192 65.2817 84.8037 65.1972 84.8882 65.155L84.846 65.1972C84.7614 65.2817 84.6769 65.2817 84.5924 65.324ZM87.2121 65.9578L87.2544 65.9155C87.2544 65.9155 87.2544 65.9578 87.2121 65.9578ZM75.9727 64.5212C75.846 64.6479 75.7192 64.7324 75.5924 64.9014C75.5502 64.9014 75.5079 64.9437 75.4657 64.9437C75.6347 64.7747 75.8037 64.6479 75.9727 64.5212Z" fill="#4F3F2B"/>
<path fill-rule="evenodd" clip-rule="evenodd" d="M39.4646 88.8586C37.352 88.9431 36.2111 89.0699 34.6477 90.0417C32.4083 91.4361 28.4365 94.4783 26.028 94.7741C23.6618 95.1121 22.4787 94.9009 21.5069 95.4924C19.859 94.2671 23.8308 88.3516 23.6196 84.5488C23.4506 80.7459 23.3238 81.2107 25.0985 79.8164C26.8731 78.422 32.2393 77.6614 32.6196 74.7037C32.9999 71.7459 30.1266 69.9713 28.3942 70.4361C26.6618 70.9009 29.8308 68.8727 30.5914 67.5628C31.352 66.253 34.4787 63.8445 36.3379 66.253C38.2393 68.6614 38.028 72.929 37.8168 75.929C37.6477 78.8868 44.5773 72.9713 44.5773 72.9713C44.5773 72.9713 41.9999 81.8868 39.4646 88.8586Z" fill="#4F3F2A"/>
<path fill-rule="evenodd" clip-rule="evenodd" d="M14.7048 98.324C12.8457 98.6621 11.9583 97.7747 11.6626 97.0564C11.3245 96.2959 11.071 95.6198 10.902 95.5353C10.733 95.4508 9.1696 94.479 9.29636 93.6339C9.42312 92.8733 9.76115 93.1691 10.2682 92.1973C11.1978 92.6198 11.8738 93.2114 13.0992 93.5916C14.3245 93.9719 14.6626 93.3381 15.5076 94.6057C16.1837 95.6621 15.5921 96.7606 14.7048 98.324Z" fill="#948369"/>
<path fill-rule="evenodd" clip-rule="evenodd" d="M61.9862 108.887C61.9017 109.098 61.8172 109.31 61.7327 109.563C61.437 110.577 60.6764 112.267 60.0848 112.436C59.6623 112.521 59.8736 110.831 60.0003 109.901C60.0003 109.859 60.0003 109.774 60.0426 109.732C60.0848 109.521 60.0848 109.352 60.0848 109.352C60.1271 109.098 60.2116 108.803 60.3806 108.465C60.8877 107.493 61.1412 106.394 61.606 106.817C61.8595 107.028 61.944 107.958 61.9862 108.887Z" fill="#726149"/>
<path fill-rule="evenodd" clip-rule="evenodd" d="M58.4795 111.802C58.1414 112.225 57.8034 112.605 57.5499 112.732C56.6203 113.197 54.1273 113.535 53.409 113.492C52.6485 113.45 52.6907 113.154 52.564 113.112C52.4372 113.112 51.3809 113.197 51.3809 112.858C51.3809 112.52 52.3527 111.549 53.1978 110.661C53.7893 110.07 54.4231 109.689 55.0569 109.056C55.1414 109.14 55.1837 109.267 55.3104 109.394C55.6062 109.689 55.902 109.732 56.578 109.816C57.2118 109.901 57.7189 110.45 58.3104 111.38C58.3527 111.549 58.4372 111.675 58.4795 111.802Z" fill="#726149"/>
<path fill-rule="evenodd" clip-rule="evenodd" d="M127.901 108.845C127.859 109.141 127.901 109.479 127.817 109.648C127.648 109.944 125.07 110.451 124.014 110.662C122.958 110.831 122.028 110.747 122.028 110.493C122.028 110.239 121.775 110.282 121.606 110.07C121.437 109.859 121.479 109.563 121.648 109.352C121.775 109.183 123.296 108.507 124.014 107.789C124.563 107.578 124.817 108.127 125.366 108.085C125.916 108.042 126.338 108 127.268 108.465C127.479 108.592 127.732 108.718 127.901 108.845Z" fill="#726149"/>
<path fill-rule="evenodd" clip-rule="evenodd" d="M129.381 102.464C129.677 104.07 129.846 105.675 129.804 106.267C129.762 107.112 129.804 107.323 129.381 106.774C128.959 106.182 128.705 105.506 128.409 105.464C128.198 104.915 128.24 104.872 128.156 103.689C128.071 102.506 128.578 102.929 128.747 102.422C128.79 102.253 129.043 102.337 129.381 102.464Z" fill="#726149"/>
<path fill-rule="evenodd" clip-rule="evenodd" d="M29.2394 54.4644C31.4366 51.0419 32.8732 50.2391 36.169 49.563C43.8592 48.0419 41.4085 50.5349 39.7183 60.9715C39.2113 64.0982 36 64.5208 34.9437 64.1405C33.8873 63.7602 33.5493 60.2532 31.2254 59.0278C28.9014 57.8025 28.7324 57.0419 28.7747 56.2391C28.8169 55.4363 29.2394 54.4644 29.2394 54.4644Z" fill="#3D2F1C"/>
<path fill-rule="evenodd" clip-rule="evenodd" d="M96.6771 104.788C96.3391 104.154 95.8743 103.732 95.3672 104.281C94.6067 105.084 94.0574 106.309 93.6771 106.563C93.3391 106.816 92.9588 106.943 93.1278 107.197C93.2546 107.112 93.2968 107.577 93.2968 108.042C93.3391 108.549 93.7616 108.211 94.4799 107.873C95.0715 107.577 95.7053 106.182 96.6771 104.788ZM92.832 108.295C92.8743 108.126 92.9588 107.957 93.001 107.788C93.001 107.915 92.9165 108.126 92.832 108.295Z" fill="#726149"/>
<path fill-rule="evenodd" clip-rule="evenodd" d="M92.2393 108.929C92.1125 109.013 91.9435 109.056 91.7745 109.098C90.3378 109.351 86.0702 109.521 86.2393 108.844C86.4083 108.168 89.1547 107.112 89.704 106.521C90.2956 106.774 90.7181 107.45 91.5632 108.084C91.9435 108.337 92.1547 108.633 92.2393 108.929Z" fill="#726149"/>
<path fill-rule="evenodd" clip-rule="evenodd" d="M48.5488 102.887C49.0559 103.056 49.7742 103.647 50.1544 104.366C50.5347 105.084 50.9573 105.633 50.5347 105.675C50.1122 105.718 49.1826 105.549 49.1826 105.549C49.1826 105.549 50.9573 108.971 50.9573 109.521C50.9573 109.943 48.4643 108.929 46.6052 107.957C46.0559 107.154 45.6333 106.352 45.7178 106.013C45.9291 105.126 47.3657 104.83 47.8728 104.492C48.4221 104.154 48.2108 103.14 48.5488 102.887Z" fill="#726149"/>
<path fill-rule="evenodd" clip-rule="evenodd" d="M25.4796 72.0839C25.5641 71.6614 25.5641 70.7318 26.6204 70.1403C27.6345 69.5487 28.4373 69.8445 28.4796 70.3938C28.5218 70.9431 28.0993 71.2811 27.2965 71.4924C26.4936 71.6614 26.1134 71.7459 25.7753 72.1262C25.4373 72.5065 25.3105 72.8445 25.3105 72.7177C25.3105 72.6332 25.4796 72.0839 25.4796 72.0839Z" fill="#404041"/>
<path fill-rule="evenodd" clip-rule="evenodd" d="M26.5783 70.1408C27.0431 69.8872 27.4233 69.8027 27.7614 69.8027C28.0571 69.9717 28.2684 70.3098 28.2684 70.6901C28.2684 70.7746 28.2684 70.9013 28.2262 70.9858C28.0149 71.1971 27.7191 71.3239 27.2966 71.4506C27.0853 71.4929 26.874 71.5351 26.705 71.5774C26.4092 71.4084 26.2402 71.0703 26.2402 70.6901C26.2402 70.5633 26.2402 70.4365 26.2825 70.352C26.367 70.3098 26.4515 70.2253 26.5783 70.1408Z" fill="#231F20"/>
<path fill-rule="evenodd" clip-rule="evenodd" d="M11.3242 94.8592C12.2538 94.986 13.2679 94.2254 13.8172 94.6902C14.3665 95.1972 14.7045 95.8733 14.0284 96.0001C13.3524 96.1268 12.5496 95.8733 12.0425 95.6198C11.5355 95.3663 11.3242 94.8592 11.3242 94.8592Z" fill="#404041"/>
<path fill-rule="evenodd" clip-rule="evenodd" d="M17.4088 94.2243C17.0707 94.182 17.0707 90.337 15.7186 87.675C14.3665 85.0553 13.1834 84.4637 14.1975 84.675C15.6764 84.9708 19.6482 90.3792 18.9721 93.8018C18.8876 94.182 17.789 94.4778 17.4088 94.2243Z" fill="#F5B661"/>
<path d="M69.7617 83.5769C69.7617 83.5769 69.8885 83.746 70.142 83.915C70.3955 84.1262 70.7335 84.3798 71.1983 84.5065C71.5786 84.6333 71.9166 84.6755 72.2124 84.7178C72.4237 84.8023 72.5927 84.8868 72.8462 84.9713C72.973 85.0136 73.0997 85.0558 73.2265 85.0558C73.8603 85.2671 74.3251 85.3093 74.3251 85.3093C74.3251 85.3093 74.2406 85.2671 74.1138 85.1826C74.3251 85.1826 74.5364 85.1826 74.6631 85.1826H74.8744L74.7054 85.0981C74.6209 85.0558 74.5786 85.0136 74.5364 85.0136C74.7899 85.0558 75.0012 85.0981 75.1702 85.0981C75.4237 85.1826 75.6772 85.2671 75.973 85.3516C76.5223 85.4361 77.0716 85.4361 77.4941 85.3516C77.6631 85.3938 77.8321 85.3938 78.0012 85.4361C78.1279 85.5206 78.2969 85.5629 78.4659 85.6051C79.0575 85.7741 79.6068 85.7741 79.9871 85.7319C80.3674 85.6896 80.5786 85.6051 80.5786 85.6051C80.5786 85.6051 80.3674 85.5629 80.1138 85.5206C80.1983 85.5206 80.2406 85.5206 80.3251 85.5206C80.4941 85.5206 80.6209 85.4784 80.7054 85.4784C81.0012 85.5206 81.2969 85.5206 81.5082 85.4784C81.7195 85.4361 81.8462 85.4361 81.9307 85.3938C82.311 85.4361 82.649 85.4361 82.9448 85.3938C83.4941 85.3516 83.8321 85.2671 83.8321 85.2671C83.8321 85.2671 83.7899 85.2671 83.7476 85.2248C84.1279 85.2248 84.4237 85.2248 84.7195 85.1403C85.0575 85.1826 85.3955 85.1826 85.649 85.1826C85.9871 85.1403 86.1561 85.0981 86.1561 85.0981C86.1561 85.0981 85.9026 85.0136 85.649 84.9291C85.3533 84.8445 84.9307 84.7178 84.5082 84.591C84.2124 84.5065 83.8744 84.422 83.6209 84.3375C83.8744 84.3798 84.1279 84.422 84.3392 84.422C84.5927 84.5488 84.9307 84.6333 85.2688 84.7178C86.1983 84.9291 87.0012 84.8868 87.0012 84.8868C87.0012 84.8868 86.8321 84.8023 86.5786 84.6333C86.6209 84.6333 86.6631 84.6333 86.6631 84.6333C86.6631 84.6333 86.4941 84.5065 86.1983 84.422C86.2406 84.422 86.2828 84.422 86.2828 84.4643C87.0012 84.591 87.6772 84.5065 88.142 84.3798C88.6068 84.253 88.9026 84.1262 88.9026 84.1262C88.9026 84.1262 88.9026 84.1262 88.8603 84.1262C88.9026 84.1262 88.9026 84.1262 88.9448 84.1262H88.9871C89.6631 84.1685 90.1279 84.1262 90.1279 84.1262C90.1279 84.1262 89.6631 83.8727 89.0293 83.6614C89.2406 83.6614 89.4096 83.6614 89.5786 83.6614C89.7476 83.7037 89.9589 83.7882 90.1702 83.8305C91.142 83.9995 91.9448 83.915 91.9448 83.915C91.9448 83.915 91.7758 83.8305 91.48 83.7037C91.8181 83.7037 92.0293 83.7037 92.0293 83.7037C92.0293 83.7037 91.9871 83.6615 91.8603 83.6192C92.2406 83.6192 92.4941 83.5347 92.4941 83.5347C92.4941 83.5347 92.3674 83.4502 92.1561 83.3657C92.2406 83.3234 92.3251 83.3234 92.3251 83.3234C92.3251 83.3234 92.2406 83.2812 92.0716 83.1967C93.2969 83.2812 94.2688 83.0276 94.2688 83.0276C94.2688 83.0276 94.0997 82.9431 93.804 82.8164C94.0152 82.7741 94.2265 82.7319 94.3955 82.6896C94.8181 82.5629 95.0716 82.4361 95.0716 82.4361C95.0716 82.4361 94.8603 82.3516 94.5223 82.2671C95.1983 82.1403 95.6631 81.8868 95.6631 81.8868C95.6631 81.8868 95.4941 81.8023 95.2406 81.7178C95.3251 81.6755 95.4096 81.6333 95.4941 81.6333C95.5364 81.6333 95.5786 81.6755 95.6209 81.6755C96.5082 81.8446 97.311 81.591 97.311 81.591C97.311 81.591 97.1843 81.4643 96.973 81.3375C97.3955 81.2953 97.7758 81.1685 97.9871 81.1262C98.5364 81.2107 99.0434 81.253 99.0434 81.253C99.0434 81.253 98.8744 81.0417 98.5364 80.7882C98.4941 80.7882 98.4941 80.746 98.4519 80.746C98.5364 80.746 98.5786 80.7882 98.6631 80.7882C99.5082 80.9995 100.269 80.8727 100.269 80.8727C100.269 80.8727 100.227 80.8305 100.1 80.7882C100.1 80.7882 99.9307 80.6192 99.635 80.4079C99.4659 80.2812 99.2124 80.1544 98.9589 80.0276C99.0012 80.0276 99.0434 79.9854 99.0857 79.9854C99.3392 80.0276 100.015 80.1967 100.396 80.2812C100.691 80.3657 100.987 80.4924 100.987 80.4924C100.987 80.4924 100.818 80.3234 100.522 80.0699C100.396 79.9854 100.269 79.9009 100.142 79.8164C100.184 79.8164 100.184 79.8164 100.227 79.8164C100.734 79.9854 101.325 80.2389 101.325 80.2389C101.325 80.2389 101.198 80.0699 100.945 79.8164L100.903 79.7741C101.579 79.7741 102.255 79.8164 102.846 79.9009C103.142 80.0699 103.353 80.1967 103.353 80.1967C103.353 80.1967 103.311 80.1544 103.269 80.0699C103.269 80.0276 103.227 80.0276 103.227 79.9854H103.269C103.48 80.1122 103.691 80.1967 103.86 80.3234C104.241 80.5769 104.494 80.746 104.494 80.746C104.494 80.746 104.452 80.6614 104.367 80.5769C104.325 80.4924 104.241 80.4502 104.198 80.3234C104.241 80.3234 104.283 80.3657 104.325 80.3657C104.663 80.4924 104.832 80.5769 104.832 80.5769C104.832 80.5769 104.79 80.4924 104.663 80.3657C104.748 80.4079 104.79 80.4079 104.874 80.4502C104.748 80.3657 104.579 80.2389 104.452 80.1122C104.959 80.2812 105.339 80.3657 105.339 80.3657C105.339 80.3657 104.959 79.9854 104.41 79.6051C104.325 79.4784 104.072 79.2248 103.691 78.9291C103.987 78.9713 104.198 79.0136 104.198 79.0136C104.198 79.0136 103.903 78.7178 103.396 78.422C103.649 78.4643 103.818 78.4643 103.818 78.4643C103.818 78.4643 103.311 77.9572 102.593 77.6192C102.508 77.5769 102.424 77.5347 102.339 77.5347C102.339 77.4924 102.297 77.4924 102.297 77.4502C102.804 77.5769 103.184 77.5769 103.184 77.5769C103.184 77.5769 102.888 77.2812 102.381 76.9854C102.255 76.8586 102.043 76.6896 101.832 76.5629C101.832 76.5206 101.79 76.5206 101.79 76.4784C101.917 76.5206 102.001 76.5206 102.001 76.5206C102.001 76.5206 102.001 76.4784 101.959 76.4361C102.255 76.5206 102.466 76.5629 102.466 76.5629C102.466 76.5629 102.086 76.0558 101.452 75.7178C101.41 75.6755 101.41 75.6333 101.367 75.591C101.79 75.8023 102.128 75.8445 102.128 75.8445C102.128 75.8445 102.001 75.6755 101.832 75.4643C102.086 75.591 102.212 75.6333 102.212 75.6333C102.212 75.6333 101.874 75.0417 101.283 74.5769C101.114 74.4502 100.987 74.3657 100.86 74.2812C100.818 74.2389 100.818 74.2389 100.776 74.1967C100.945 74.2389 101.072 74.2389 101.072 74.2389C101.072 74.2389 100.86 73.8586 100.48 73.5206C100.396 73.3516 100.311 73.1826 100.227 73.0981C100.269 73.0981 100.311 73.0981 100.353 73.0981C100.48 73.0981 100.607 73.1403 100.607 73.1403C100.607 73.1403 100.565 73.0136 100.48 72.8868C100.396 72.76 100.227 72.6333 100.057 72.591C100.1 72.5488 100.1 72.5488 100.1 72.5488C100.1 72.5488 99.973 72.422 99.804 72.3798C99.8885 72.2953 99.9307 72.253 99.973 72.2107C100.057 72.1262 100.1 72.084 100.1 72.084C100.1 72.084 100.015 72.1262 99.9307 72.1685C99.8462 72.2107 99.6772 72.2953 99.5082 72.3798C99.1702 72.3798 98.9167 72.6333 98.9167 72.6333C98.9167 72.6333 98.9589 72.6755 99.0012 72.7178C98.7054 72.9713 98.4519 73.2671 98.1983 73.6474C98.1983 73.6896 98.1561 73.7319 98.1561 73.7741C98.1983 73.5629 98.2828 73.3516 98.3251 73.1826C98.4519 72.8445 98.5364 72.6333 98.5364 72.6333C98.5364 72.6333 98.4096 72.7178 98.2406 72.9291L98.1983 72.8868L98.1138 72.9713C98.0716 73.0136 98.0293 73.0558 97.9871 73.0981C97.9871 73.0136 98.0293 72.9713 98.0293 72.8868L98.0716 72.591L97.8181 72.8445C97.5645 73.0981 97.2265 73.5206 96.973 74.0276C96.9307 74.0699 96.8462 74.1122 96.7617 74.1967C96.635 74.3234 96.4659 74.5347 96.3392 74.7882C96.3814 74.7037 96.4237 74.4924 96.4659 74.1967L96.5505 73.6474L96.1702 74.1544C96.0434 74.3234 95.9166 74.5347 95.8321 74.7882C95.8321 74.746 95.8321 74.746 95.8321 74.7037V74.5347L95.7054 74.7037C95.6209 74.8305 95.5364 74.9572 95.4519 75.1685C95.4519 75.1685 95.4519 75.1685 95.4519 75.1262L95.4096 75.0417L95.3251 75.1262C95.1561 75.2953 94.8603 75.6755 94.6068 76.1826C94.6068 76.1826 94.5223 76.2671 94.48 76.3516C94.48 76.2248 94.4378 76.1403 94.4378 76.1403C94.4378 76.1403 94.4378 76.1826 94.3955 76.2671C94.3533 76.3093 94.0997 76.5629 93.8462 76.9431C93.973 76.6051 94.0152 76.3516 94.0152 76.3516C94.0152 76.3516 93.3814 76.9431 92.8744 77.8305V77.7882C92.9166 77.5347 92.8744 77.3234 92.8744 77.3234C92.8744 77.3234 92.7899 77.4502 92.6209 77.6615C92.4519 77.8727 92.2828 78.1685 92.0716 78.5065C91.9448 78.7178 91.8181 78.9291 91.7336 79.1403C91.7336 79.1403 91.6913 79.1403 91.6913 79.1826C92.1561 78.422 92.3251 77.7037 92.3251 77.7037C92.3251 77.7037 92.0293 77.9572 91.7336 78.3375C91.7336 78.1262 91.7336 78.0417 91.7336 78.0417C91.7336 78.0417 91.6068 78.253 91.48 78.4643C91.3955 78.591 91.3533 78.7178 91.2688 78.8445C91.2688 78.76 91.311 78.6755 91.311 78.6333C91.3533 78.2953 91.3533 78.1262 91.3533 78.1262C91.3533 78.1262 91.2265 78.3375 91.0575 78.5488C90.8885 78.8023 90.6772 79.1826 90.4237 79.5629C90.2969 79.7319 90.2124 79.9431 90.0857 80.1122C90.0012 80.1544 89.9589 80.1967 89.8744 80.2389C90.3392 79.4784 90.4659 78.7178 90.4659 78.7178C90.4659 78.7178 90.0857 79.0558 89.7054 79.6051C89.7054 79.6051 89.7054 79.6051 89.6631 79.6051C89.7054 79.4361 89.7054 79.3093 89.7054 79.1826C89.7054 78.9291 89.6631 78.76 89.6631 78.76C89.6631 78.76 89.5786 78.8868 89.4519 79.1403C89.3673 79.3516 89.1983 79.6051 89.0716 79.8586C89.0293 79.9009 89.0293 79.9009 88.9871 79.9431C88.9026 80.0276 88.8603 80.0699 88.8181 80.1544C89.1138 79.4783 89.2406 78.9291 89.2406 78.9291C89.2406 78.9291 88.7758 79.3516 88.3955 79.9854C88.4378 79.7319 88.3955 79.5629 88.3955 79.5629C88.3955 79.5629 88.142 79.9431 87.9307 80.3234C87.804 80.4079 87.5927 80.4924 87.4237 80.6615C87.4659 80.5769 87.5082 80.4924 87.5082 80.4924C87.5082 80.4924 86.8321 80.8305 86.1983 81.4643C86.0716 81.6333 85.9026 81.76 85.8181 81.9291C85.7758 81.9713 85.7335 82.0136 85.6913 82.0558C85.6068 82.0981 85.5645 82.0981 85.48 82.1403C85.8603 81.591 86.0716 81.1262 86.0716 81.1262C86.0716 81.1262 85.9871 81.1685 85.8603 81.253C85.9026 81.2107 85.9026 81.1685 85.9026 81.1685C85.9026 81.1685 85.6068 81.2953 85.2688 81.5065C85.3533 81.3798 85.3955 81.2953 85.3955 81.2953C85.3955 81.2953 84.973 81.422 84.5082 81.76C84.4237 81.76 84.3392 81.8023 84.2124 81.8445C83.9166 81.9291 83.5364 82.1403 83.1983 82.4361C83.0293 82.6051 82.8603 82.7741 82.7335 82.9431C82.6913 82.9431 82.6913 82.9431 82.649 82.9431C82.7336 82.8586 82.7758 82.8164 82.8603 82.7319C83.1138 82.4784 83.2828 82.2248 83.4519 82.0558C83.5786 81.8868 83.7054 81.76 83.7054 81.76C83.7054 81.76 83.5364 81.76 83.2828 81.8868C83.1983 81.9291 83.0716 81.9713 82.9448 82.0558C83.0716 81.9291 83.1561 81.76 83.1561 81.76C83.1561 81.76 82.9871 81.76 82.7335 81.8868C82.5645 81.9713 82.3533 82.0981 82.142 82.2671C82.0997 82.2671 82.0152 82.3093 81.973 82.3516C81.7617 82.4361 81.4659 82.6474 81.2547 82.9431C81.1279 83.1122 81.0434 83.2389 81.0012 83.4079C80.9589 83.4079 80.9166 83.4079 80.9166 83.4502C81.0857 83.1544 81.2969 82.8586 81.4659 82.6896C81.635 82.4783 81.7617 82.3516 81.7617 82.3516C81.7617 82.3516 81.5927 82.3516 81.3392 82.4783C81.2969 82.4783 81.2969 82.5206 81.2547 82.5206C81.2547 82.4784 81.2969 82.4361 81.2969 82.4361C81.3814 82.2671 81.4659 82.0558 81.4659 82.0558C81.4659 82.0558 81.2969 82.0981 81.0857 82.2671C80.9589 82.3516 80.8321 82.4784 80.7054 82.6474C80.6631 82.6896 80.5364 82.7319 80.4519 82.8164C80.2828 82.9431 80.0716 83.2389 80.0293 83.5769V83.6192C79.9448 83.6192 79.8603 83.6614 79.8181 83.6614C79.8181 83.5769 79.8181 83.4924 79.8181 83.4502C79.8181 83.3234 79.8181 83.0276 79.8181 82.6474C79.8181 82.4784 79.8181 82.2671 79.8181 82.2671C79.8181 82.2671 79.6913 82.3516 79.5645 82.5629C79.48 82.6896 79.3955 82.8586 79.3533 83.0276C79.311 82.9854 79.2688 82.9431 79.2688 82.9431C79.2688 82.9431 79.2688 83.0276 79.2688 83.1544C78.9307 82.8164 78.635 82.6474 78.635 82.6474C78.635 82.6474 78.804 83.1544 79.1842 83.7037C79.0997 83.7037 78.973 83.746 78.8885 83.746C78.8462 83.7037 78.8462 83.7037 78.804 83.6614C78.3392 83.1967 78.0012 82.7319 77.7899 82.4361C77.8744 82.4361 77.9589 82.4361 77.9589 82.4361C77.9589 82.4361 77.8744 82.3938 77.6631 82.3093L77.5364 82.2671L77.5786 82.4361C77.6209 82.6896 77.7899 83.1544 78.0857 83.6192C77.9166 83.4924 77.7476 83.3657 77.5786 83.2812C77.3251 83.1122 77.1138 82.9009 77.1138 82.9009C77.1138 82.9009 77.1983 83.0699 77.3674 83.3234C77.0716 83.1122 76.8603 83.0276 76.8603 83.0276C76.8603 83.0276 76.9026 83.1544 77.0293 83.3657C76.7335 83.1967 76.48 83.1122 76.48 83.1122C76.48 83.1122 76.48 83.1544 76.5223 83.1544C76.311 83.0699 76.142 82.9854 76.142 82.9854C76.142 82.9854 76.2265 83.1967 76.3533 83.4079C76.0575 83.3234 75.8462 83.3234 75.8462 83.3234C75.8462 83.3234 76.0152 83.6192 76.311 83.8727C76.0997 83.7882 75.8885 83.7037 75.7617 83.6192C75.5505 83.5347 75.3814 83.4502 75.2547 83.3657C75.1279 83.3234 75.0857 83.2812 75.0857 83.2812C75.0857 83.2812 75.1279 83.3657 75.2124 83.4502C75.2969 83.5347 75.4237 83.7037 75.635 83.8727C75.7195 83.9572 75.804 83.9995 75.8885 84.084C75.3814 83.8305 74.8744 83.6192 74.5364 83.4502C74.1561 83.2812 73.9448 83.1967 73.9448 83.1967C73.9448 83.1967 74.1138 83.4079 74.4096 83.6614C74.5364 83.7882 74.7054 83.915 74.8744 84.0417C74.3673 83.915 73.9871 83.915 73.9871 83.915C73.9871 83.915 74.1561 84.084 74.4519 84.253C74.1983 84.253 73.9871 84.2953 73.7335 84.2953C73.6068 84.253 73.48 84.2107 73.3533 84.1262C73.0575 83.9995 72.7617 83.8727 72.7617 83.8727C72.7617 83.8727 72.804 83.915 72.8885 84.0417C72.8462 84.0417 72.804 83.9995 72.7195 83.9995C72.3814 83.8727 72.1702 83.7882 72.1702 83.7882C72.1702 83.7882 72.3392 83.9572 72.5927 84.2107C72.635 84.253 72.6772 84.2953 72.7617 84.3375C72.7195 84.3375 72.635 84.3375 72.5927 84.3375C71.9166 84.1685 71.4519 84.1685 71.4519 84.1685C71.4519 84.1685 71.5786 84.253 71.7899 84.3798C71.7054 84.3798 71.6209 84.3798 71.5364 84.3798C71.0293 84.253 70.6913 84.2107 70.6913 84.2107C70.6913 84.2107 70.7335 84.253 70.8603 84.3375C70.649 84.253 70.4378 84.2107 70.2688 84.1685C69.973 83.6192 69.7617 83.5769 69.7617 83.5769ZM96.0857 75.8445C96.0434 75.8445 96.0434 75.8868 96.0012 75.8868C96.0012 75.8023 96.0434 75.6755 96.0434 75.591C96.0857 75.6755 96.0857 75.76 96.0857 75.8445ZM95.0716 76.0981C95.0716 76.0136 95.1138 75.9713 95.1138 75.9291C95.1138 76.0558 95.0716 76.1403 95.0716 76.2671C95.0716 76.2671 95.0716 76.2671 95.0716 76.3093C95.0716 76.1826 95.0716 76.1403 95.0716 76.0981ZM71.8744 83.9995C71.9589 84.0417 72.0434 84.084 72.1702 84.1685C72.0012 84.084 71.7899 84.0417 71.6631 83.9995C71.7054 83.9572 71.7899 83.9572 71.8744 83.9995ZM74.2828 84.084C74.4096 84.084 74.4941 84.084 74.6209 84.084C74.6209 84.084 74.6631 84.1262 74.7476 84.1685C74.6209 84.1262 74.4941 84.1262 74.4096 84.1262C74.3251 84.1262 74.3251 84.1262 74.2828 84.084ZM74.9589 84.1262C74.9166 84.1262 74.9166 84.1262 74.8744 84.1262C74.8744 84.1262 74.9166 84.1262 74.9589 84.1262ZM88.7335 80.1544C88.6913 80.2389 88.6913 80.3234 88.6913 80.3234C88.6913 80.3234 88.7758 80.3234 88.8603 80.2812C88.8181 80.3657 88.8181 80.4079 88.7758 80.4924C88.649 80.5347 88.5645 80.5769 88.4378 80.6192C88.5223 80.4924 88.6068 80.3234 88.7335 80.1544ZM96.2969 74.5769C96.2969 74.6192 96.2547 74.6192 96.2547 74.6614C96.2547 74.6192 96.2969 74.5769 96.2969 74.5769ZM96.635 75.084C96.635 75.0417 96.635 75.0417 96.635 74.9995C96.635 75.1262 96.635 75.2107 96.635 75.2953C96.5927 75.3375 96.5505 75.3375 96.5505 75.3798C96.5927 75.2953 96.5927 75.2107 96.635 75.084ZM97.8603 73.0136L97.8181 73.0558C97.8181 73.0136 97.8181 73.0136 97.8603 73.0136ZM74.4941 84.9713C74.4519 84.9713 74.4096 84.9713 74.3251 84.9291C74.3673 84.9291 74.4096 84.9291 74.4941 84.9713Z" fill="#63523B"/>
<path d="M33.8464 90.5914C33.5928 90.7181 33.4238 90.8449 33.4238 90.8449C33.4238 90.8449 33.6773 90.8449 34.0154 90.7604C34.3957 90.7181 34.8604 90.6336 35.4097 90.5491C35.959 90.4646 36.4238 90.3378 36.7619 90.2111C36.8886 90.1688 37.0154 90.1266 37.0999 90.1266C37.3534 90.0843 37.6492 90.0421 37.9027 89.9998C38.5365 89.9153 39.1281 89.8308 39.5506 89.7463C39.9731 89.7885 40.3112 89.7463 40.3112 89.7463C40.3112 89.7463 40.2266 89.704 40.1421 89.6195C40.2689 89.5773 40.3534 89.5773 40.3534 89.5773C40.3534 89.5773 40.1844 89.535 39.9309 89.4928C39.7196 89.366 39.4238 89.2392 39.1281 89.1547C39.3816 89.1547 39.5928 89.1547 39.7619 89.197C40.3112 89.366 41.114 89.6618 41.114 89.6618C41.114 89.6618 40.9872 89.4928 40.6914 89.2392C40.5224 89.1125 40.3112 88.9435 40.0154 88.8167C40.0999 88.8167 40.1844 88.8167 40.2689 88.8167C40.4802 88.9012 40.8604 89.028 41.283 89.197C41.4943 89.2815 41.7478 89.366 41.7478 89.366C41.7478 89.366 41.6633 89.197 41.452 88.9857C41.4097 88.9012 41.3252 88.859 41.2407 88.7745C41.3252 88.7745 41.4097 88.7745 41.4943 88.7745C41.7055 88.859 41.959 88.9435 42.2548 89.0702C42.5506 89.197 42.8886 89.2815 42.8886 89.2815C42.8886 89.2815 42.8041 89.1547 42.5928 89.028C43.2266 89.197 43.6914 89.197 43.6914 89.197C43.6914 89.197 43.4802 89.028 43.0999 88.8167C44.0717 89.1125 44.9168 89.1547 44.9168 89.1547C44.9168 89.1547 44.7478 89.028 44.452 88.9012C45.0858 89.028 45.6773 89.028 46.0999 89.028C46.5224 88.9857 46.7759 88.9435 46.7759 88.9435C46.7759 88.9435 46.6069 88.9012 46.3112 88.8167C46.4802 88.7745 46.6492 88.7322 46.7759 88.7322C46.8604 88.6899 46.945 88.69 46.9872 88.6477C47.114 88.6477 47.2407 88.6477 47.3252 88.6054C48.0858 88.5209 48.7619 88.3097 49.2266 88.0984C49.3112 88.0561 49.3534 88.0139 49.4379 88.0139C49.9027 87.8871 50.3675 87.7604 50.6633 87.6336C50.7478 87.5914 50.8323 87.5491 50.9168 87.5068C51.9731 87.4646 52.7759 87.2111 52.7759 87.2111C52.7759 87.2111 52.3957 87.1266 51.8464 87.0421H51.8886C52.6492 87.1266 53.283 86.9576 53.283 86.9576C53.283 86.9576 53.1562 86.9153 52.9872 86.8308C53.7478 86.9153 54.4238 86.7463 54.4238 86.7463C54.4238 86.7463 54.2548 86.6618 54.0013 86.5773C54.2548 86.4928 54.4661 86.4505 54.6351 86.3238C54.7196 86.2815 54.8464 86.2392 54.9731 86.197C55.1844 86.1125 55.3534 85.9435 55.4379 85.8167C55.6069 85.7745 55.7337 85.7322 55.7337 85.7322C55.7337 85.7322 55.6492 85.7745 55.4802 85.7745C55.5647 85.6477 55.6492 85.5632 55.6492 85.5632C55.6492 85.5632 55.2689 85.5209 54.8886 85.6899C55.0999 85.5209 55.2266 85.3942 55.2266 85.3942C55.2266 85.3942 54.5506 85.4364 53.79 85.7322C53.4097 85.7745 52.945 85.859 52.4379 85.9857C52.1844 85.9857 51.7619 85.9857 51.3393 86.028C50.5365 86.028 49.3957 86.028 48.1703 85.9435H48.1281C48.1281 85.9435 47.9168 85.9012 47.7055 85.9012C47.79 85.9012 47.8745 85.859 47.8745 85.859C47.8745 85.859 47.5365 85.7745 47.1985 85.6899C47.1562 85.6899 47.114 85.6477 47.0717 85.6477H47.0295C47.0295 85.6477 46.9872 85.6477 46.9872 85.6054C47.5365 85.6054 47.9168 85.5209 47.9168 85.5209C47.9168 85.5209 47.5365 85.3519 46.9872 85.1829C46.9872 85.1829 46.9872 85.1829 46.945 85.1829C46.7337 85.0984 46.4379 84.9716 46.0999 84.8026C46.0154 84.7181 45.9731 84.5914 45.9309 84.5069H45.9731C46.0154 84.5914 46.0576 84.6336 46.1421 84.7181C46.3957 84.9716 46.8182 85.0139 46.8182 85.0139C46.8182 85.0139 46.8182 84.8871 46.7337 84.7181C46.8604 84.7604 46.945 84.7604 46.945 84.7604C46.945 84.7604 46.7759 84.5914 46.4802 84.3378C46.4379 84.2956 46.3534 84.2533 46.3112 84.2111C46.2266 84.1266 46.0999 84.0843 46.0154 83.9998C45.9731 83.9153 45.8886 83.7885 45.8041 83.6195C46.1421 83.9153 46.4802 84.1266 46.7759 84.2533C47.0295 84.3801 47.2407 84.4223 47.2407 84.4223C47.2407 84.4223 47.114 84.2956 46.945 84.0421C46.8182 83.873 46.6492 83.704 46.4379 83.535C46.4802 83.535 46.4802 83.5773 46.4802 83.5773C46.4802 83.5773 46.1844 82.9012 45.6351 82.2252C45.5506 82.0984 45.4238 82.0139 45.3393 81.9294L45.2971 81.8871C45.2971 81.7604 45.2548 81.6759 45.2548 81.5491C45.4661 81.8026 45.6773 82.0139 45.8886 82.1407C46.1421 82.3097 46.3112 82.3942 46.3112 82.3942C46.3112 82.3942 45.8464 81.6336 45.6351 81.2111C45.6774 81.2111 45.6773 81.2533 45.7196 81.2533C45.7619 81.2956 45.8041 81.3378 45.8041 81.3378C45.8041 81.3378 45.8041 81.3378 45.8041 81.2956C45.8886 81.3378 45.9309 81.3378 45.9309 81.3378C45.9309 81.3378 45.8886 81.2111 45.8464 81.0421C45.8464 80.9998 45.8041 80.9153 45.8041 80.873C45.9309 81.0421 46.0999 81.1688 46.1844 81.2533L46.2689 81.2956L46.3112 81.2111C46.3534 81.0843 46.3957 80.9998 46.3957 80.9998C46.3957 80.9998 46.3534 81.0421 46.3112 81.0843C46.2266 80.873 46.0999 80.535 45.8886 80.1547H45.9309C45.9309 80.1547 45.8886 79.9857 45.8041 79.6899C45.7619 79.5209 45.6774 79.3097 45.6351 79.0984C45.8041 79.2252 45.8886 79.2674 45.8886 79.2674C45.8886 79.2674 45.8041 79.0984 45.6773 78.8871C45.7196 78.9294 45.7619 78.9294 45.7619 78.9294C45.7619 78.9294 45.6774 78.7604 45.5928 78.5491C45.4661 78.2956 45.3393 77.9998 45.1281 77.6618C45.0858 77.6195 45.0435 77.535 45.0013 77.4928C45.0013 77.366 45.0013 77.2392 45.0013 77.1125C45.0435 77.1547 45.0858 77.197 45.1281 77.2392C45.3393 77.4505 45.5083 77.535 45.5083 77.535C45.5083 77.535 45.4238 77.3238 45.2971 77.1125C45.1703 76.7745 45.0435 76.4787 44.959 76.2674C44.959 76.1829 44.959 76.1407 44.959 76.0561C45.0858 76.3097 45.2548 76.5209 45.3816 76.6477C45.5928 76.859 45.7196 76.9435 45.7196 76.9435C45.7196 76.9435 45.6774 76.7745 45.5928 76.4787C45.5506 76.3942 45.5506 76.3097 45.5083 76.2252C45.5083 76.2252 45.4661 76.0561 45.4238 75.8449C45.4238 75.7604 45.3816 75.6759 45.3816 75.5914C45.4661 75.6759 45.5506 75.7181 45.5506 75.7181C45.5506 75.7181 45.5506 75.5491 45.5083 75.3378C45.4661 75.1266 45.4238 74.7885 45.3816 74.4928C45.2971 74.1547 45.2126 73.9012 45.1703 73.6477C45.0858 73.4364 45.0435 73.2674 45.0435 73.2674C45.0435 73.2674 45.0013 73.3097 45.0013 73.3942C45.0013 72.9716 45.0435 72.7604 45.0435 72.7604C45.0435 72.7604 44.959 72.9716 44.79 73.3519C44.79 73.2252 44.79 73.0561 44.8323 72.9716C44.8745 72.6336 44.9168 72.3801 44.959 72.1688C45.0013 71.9998 45.0435 71.873 45.0435 71.873C45.0435 71.873 44.959 71.9576 44.8745 72.1266C44.79 72.2956 44.6633 72.5491 44.5788 72.8871C44.4943 73.0984 44.452 73.3519 44.4097 73.6477C44.3675 73.2674 44.3252 73.0561 44.3252 73.0561C44.3252 73.0561 44.2407 73.3519 44.1562 73.8167C44.0717 74.197 43.9872 74.704 43.9027 75.2533H43.8182C43.8182 75.1266 43.8182 74.9998 43.8182 74.873C43.8182 74.5773 43.8182 74.2815 43.8182 74.2815C43.8182 74.2815 43.6914 74.4928 43.5647 74.8308C43.5224 74.9576 43.4802 75.0843 43.4379 75.2111C43.3957 75.2956 43.3957 75.3378 43.3534 75.4223C43.1844 75.8026 43.0154 76.3097 42.9309 76.9435C42.9309 76.859 42.9309 76.8167 42.9309 76.8167C42.9309 76.4787 42.9309 76.2674 42.9309 76.2674C42.9309 76.2674 42.8041 76.4787 42.6774 76.8167C42.5928 77.0702 42.4661 77.4505 42.4238 77.873C42.3816 77.9998 42.2971 78.1266 42.2548 78.2533C42.2548 78.2111 42.2548 78.1688 42.2971 78.0843C42.3816 77.704 42.4238 77.3238 42.4238 77.3238C42.4238 77.3238 42.2548 77.5773 42.0435 77.9998C41.9168 78.2956 41.7478 78.6759 41.6633 79.1407C41.621 78.8026 41.5788 78.5914 41.5788 78.5914C41.5788 78.5914 41.3675 79.0984 41.2407 79.859C41.1985 79.9012 41.1562 79.9857 41.114 80.0702C40.9872 80.2392 40.9027 80.4928 40.7759 80.7885C40.7337 80.873 40.6492 80.9998 40.6069 81.1266C40.6069 80.9576 40.6069 80.873 40.6069 80.873C40.6069 80.873 40.5224 81.0421 40.3957 81.3801C40.4802 80.7885 40.6069 80.2815 40.7337 79.9012C40.8604 79.3519 40.9872 79.0561 40.9872 79.0561C40.9872 79.0561 40.7759 79.3097 40.5224 79.8167C40.3534 80.1125 40.2266 80.4505 40.0999 80.873C40.0576 80.9576 40.0154 81.0843 39.9309 81.2111C39.7619 81.5914 39.5506 82.1829 39.4661 82.859C39.4238 82.9435 39.3816 83.028 39.3816 83.1125C39.3393 83.2815 39.2548 83.4505 39.2126 83.6618C39.2126 83.4928 39.2126 83.366 39.2126 83.366C39.2126 83.366 39.0858 83.535 38.959 83.873C38.8323 84.1688 38.7055 84.6336 38.7055 85.1407C38.7055 85.2674 38.7055 85.3519 38.7055 85.4787C38.6633 85.5209 38.6633 85.5632 38.621 85.6054C38.5788 85.2674 38.5788 84.9716 38.5788 84.7181C38.5788 84.4646 38.5788 84.2111 38.5788 84.2111C38.5788 84.2111 38.452 84.3801 38.3252 84.6336V84.6759C38.3252 84.5914 38.3252 84.5914 38.3252 84.5914C38.3252 84.5914 38.2407 84.7604 38.114 85.0139C38.0717 85.1829 37.9872 85.3519 37.945 85.6054C37.7759 85.859 37.6492 86.197 37.5224 86.5773C37.4802 86.704 37.4802 86.7885 37.4802 86.9153C37.4802 86.9153 37.4379 86.9153 37.3957 86.9576C37.4379 86.8308 37.5224 86.6195 37.5647 86.4083C37.6069 86.2392 37.6914 86.0702 37.6914 86.0702C37.6914 86.0702 37.5647 86.1125 37.3534 86.2815C37.1844 86.4505 36.9309 86.704 36.8464 87.0421C36.8041 87.2111 36.7619 87.3801 36.7619 87.5491C36.7196 87.5914 36.6773 87.6759 36.6351 87.7604C36.5506 87.9716 36.5083 88.1407 36.5083 88.3097C36.4661 88.3519 36.4238 88.3942 36.3816 88.4364C36.4238 88.3519 36.4238 88.3097 36.4661 88.2674C36.5083 88.1407 36.5506 88.0139 36.5506 88.0139C36.5506 88.0139 36.4238 88.0139 36.2971 88.0984C36.1281 88.1829 35.959 88.3097 35.8323 88.5209C35.7478 88.7322 35.7478 88.9435 35.7478 89.0702C35.4097 89.1125 35.1562 89.197 35.0717 89.197V89.2392C35.114 89.2815 35.283 89.3238 35.452 89.366C35.452 89.366 35.452 89.366 35.4097 89.366C35.114 89.4505 34.9027 89.4928 34.9027 89.4928C34.9027 89.4928 34.9872 89.535 35.1562 89.5773C35.114 89.6195 35.114 89.6195 35.0717 89.6618C34.1421 90.0421 33.5083 90.4223 33.5083 90.4223C33.5083 90.4223 33.4238 90.6759 33.8464 90.5914ZM44.79 79.6899V79.7322C44.79 79.6899 44.79 79.6899 44.79 79.6899ZM37.0999 87.2533C37.0999 87.2956 37.0999 87.3378 37.0999 87.3801C37.0999 87.4223 37.0576 87.4223 37.0576 87.4646C37.0576 87.3801 37.0576 87.3378 37.0999 87.2533ZM51.8464 86.2392C51.8041 86.2392 51.7619 86.2815 51.6774 86.2815C51.4238 86.3238 51.2548 86.3238 51.2548 86.3238C51.2548 86.3238 51.2971 86.3238 51.3393 86.366C51.1281 86.366 50.959 86.366 50.7478 86.366C50.9168 86.3238 51.0858 86.3238 51.2548 86.2815C51.4661 86.3238 51.6773 86.2815 51.8464 86.2392Z" fill="#63523C"/>
</svg>
