<svg width="150" height="150" viewBox="0 0 150 150" fill="none" xmlns="http://www.w3.org/2000/svg">
<path d="M38.1557 41.6543C38.1557 41.6543 26.0677 53.6772 28.9638 66.8961C31.8599 80.115 44.2417 100.321 45.7107 104.916C47.2008 109.511 47.2637 110.435 47.2637 110.435C47.2637 110.435 46.0675 110.372 44.2207 111.714C42.3739 113.057 41.8913 114.337 41.8913 114.337C41.8913 114.337 47.4736 114.967 48.7537 114.967C50.0339 114.967 50.5166 114.967 50.5166 114.967L52.6991 114.694C52.6991 114.694 53.6016 109.952 53.1818 107.413C52.7831 104.874 49.3833 94.9076 49.3204 92.2218C49.2574 89.5361 49.7401 88.8227 49.7401 88.8227C49.7401 88.8227 52.93 87.8365 54.7558 87.8995C56.5816 87.9624 57.3581 88.5289 57.3581 88.5289C57.3581 88.5289 60.6739 104.224 59.6246 108.105C58.5753 111.987 57.7778 111.987 56.9803 113.897C56.1828 115.806 56.1829 115.806 56.1829 115.806H66.2982C66.2982 115.806 67.2845 108.105 68.3129 104.434C69.3412 100.762 71.2719 93.0611 71.2719 93.0611C71.2719 93.0611 77.5258 95.1804 83.255 95.8098C88.9842 96.4393 90.6841 95.8098 90.6841 95.8098C90.6841 95.8098 96.5603 100.762 96.6862 104.79C96.8331 108.819 95.5529 110.938 94.4197 112.071C93.2864 113.204 93.0766 114.61 93.0766 114.61L99.939 114.547C99.939 114.547 101.639 107.476 102.898 105.567C104.178 103.657 105.165 100.971 105.165 100.971C105.165 100.971 102.751 95.1804 102.835 92.4107C102.835 92.4107 108.061 95.6 107.998 100.888C107.935 106.196 109.614 108.588 107.578 110.791C105.521 112.973 104.535 113.204 104.535 114.316L112.867 114.379C112.867 114.379 114.986 104.916 116.539 102.44C118.092 99.9643 118.449 99.2509 118.449 99.2509C118.449 99.2509 114.147 92.5995 115.259 85.3186C116.392 78.0377 118.932 67.022 118.785 58.8179C118.638 50.6138 117.169 47.3615 117.169 47.3615C117.169 47.3615 86.0462 43.7106 69.635 43.144C53.2238 42.5775 38.1557 41.6543 38.1557 41.6543Z" fill="#544838"/>
<path d="M117.189 47.3828C117.189 47.3828 119.078 52.5235 120.274 59.5106C121.471 66.4978 126.339 67.2531 130.201 65.3437C134.083 63.4343 134.356 57.8111 133.202 54.6008C132.048 51.3904 127.745 49.4811 127.745 49.4811C127.745 49.4811 128.186 49.544 129.319 49.7538C130.474 49.9636 135.049 51.6003 135.259 59.028C135.468 66.4558 127.934 70.1067 123.632 67.0433C119.33 63.9799 117.903 56.9508 117.903 56.9508L117.189 47.3828Z" fill="#544838"/>
<path d="M62.0375 47.6137C62.0375 47.6137 55.0911 41.8855 48.7952 42.5989C42.4994 43.3123 42.4994 50.824 48.3755 53.1111C54.2517 55.3982 57.3156 55.6919 60.6105 57.0558C63.9053 58.4196 76.4341 56.2584 76.3501 48.0333C76.2871 39.8082 70.474 37.7939 65.6891 39.0948C65.6891 39.0948 70.9776 38.8011 71.985 42.8087C72.9713 46.8373 70.3271 52.0829 62.0375 47.6137Z" fill="#B89D7A"/>
<path d="M18.471 37.5C18.471 37.5 15.2601 38.675 15.5749 43.0393C15.8897 47.4247 16.5822 51.4743 22.1435 49.439C27.6839 47.4037 30.4331 42.5568 36.4561 42.7246C42.4791 42.8715 43.0248 48.9774 38.9535 51.0127C34.8821 53.0479 25.2705 55.8806 22.1435 57.4333C19.0166 58.986 14.1688 57.6641 12.8467 52.1037C11.5035 46.5644 12.6788 38.7589 18.471 37.5Z" fill="#B89D7A"/>
<path d="M45.1865 56.3212C45.1865 56.3212 45.0606 55.5238 44.389 55.6078C43.7175 55.7127 43.5916 56.552 43.9274 56.8247C44.2631 57.0975 45.0186 56.8247 45.1865 56.3212Z" fill="#1F1A14"/>
<path d="M40.7794 56.1537C40.7794 56.1537 40.6745 55.2514 40.0449 55.2934C39.4153 55.3564 39.1635 55.734 39.3524 56.2166C39.5412 56.7412 40.4227 56.951 40.7794 56.1537Z" fill="#1F1A14"/>
<path d="M30.916 62.7418C30.916 62.7418 42.2905 60.9373 44.9348 62.1963C47.579 63.4342 48.7543 67.6517 48.7543 67.6517C48.7543 67.6517 43.9274 69.666 39.2895 69.3093C34.6516 68.9736 33.4134 68.1972 32.2381 66.3298C31.0629 64.4624 30.916 62.7418 30.916 62.7418Z" fill="#1F1A14"/>
<path d="M34.8813 53.1523C34.8813 53.1523 33.0345 57.7055 30.9149 59.3631C28.7953 61.0207 21.2402 60.7899 21.2402 60.7899C21.2402 60.7899 21.7649 57.4537 24.2622 56.5305C26.7596 55.6073 28.8372 55.5024 30.2223 54.8939C31.6074 54.2854 33.727 53.1523 33.727 53.1523H34.8813Z" fill="#362E24"/>
<path d="M56.498 56.4265C56.498 56.4265 59.7719 58.168 61.3459 61.2104C62.9198 64.2529 66.2776 63.8752 68.3972 64.106C70.5168 64.3368 71.2094 64.4837 71.2094 64.4837C71.2094 64.4837 71.6711 61.0636 68.4812 59.8676C65.2913 58.6716 60.1287 57.4126 59.3941 56.6992C58.6596 55.9858 57.4214 55.9648 57.4214 55.9648L56.498 56.4265Z" fill="#362E24"/>
<path d="M50.6857 114.925C50.6857 114.925 50.4759 110.246 48.5451 110.204C46.5934 110.162 44.8516 114.925 44.8516 114.925C44.8516 114.925 49.4265 115.597 50.6857 114.925Z" fill="#B89D7A"/>
<path d="M44.5362 114.589L46.404 110.56C46.404 110.56 44.872 110.371 43.6548 111.148C42.4166 111.924 41.6191 114.589 41.6191 114.589H44.5362Z" fill="#B89D7A"/>
<path d="M66.2988 115.785C66.2988 115.785 67.3691 111.966 65.6273 111.672C63.8854 111.379 62.1855 115.785 62.1855 115.785H66.6346" fill="#B89D7A"/>
<path d="M63.2962 115.786C63.2962 115.786 62.9184 110.897 60.8198 110.855C58.7212 110.813 55.6152 116.1 55.6152 116.1C55.6152 116.1 61.1766 115.786 63.2962 115.786Z" fill="#B89D7A"/>
<path d="M97.0649 114.547C97.0649 114.547 97.3587 110.498 95.8477 110.854C94.3367 111.211 92.8047 114.547 92.8047 114.547C92.8047 114.547 95.6168 114.862 97.0649 114.547Z" fill="#B89D7A"/>
<path d="M99.5834 114.674C99.9612 114.506 97.4219 114.527 97.4219 114.527C97.4219 114.527 98.1564 111.316 99.6254 110.813C101.073 110.33 99.5834 114.674 99.5834 114.674Z" fill="#B89D7A"/>
<path d="M109.446 114.338C109.446 114.338 110.558 109.743 108.795 109.847C107.033 109.952 104.661 112.785 104.535 114.296C104.535 114.296 108.145 114.694 109.446 114.338Z" fill="#B89D7A"/>
<path d="M112.887 114.379C112.887 114.379 110.495 115.093 109.445 114.358C109.445 114.358 110.621 110.938 112.195 110.875C113.747 110.77 112.887 114.379 112.887 114.379Z" fill="#B89D7A"/>
<path d="M49.8666 55.7755C49.8456 55.9014 42.8991 55.5447 42.8991 55.5447C42.8991 55.5447 42.2276 53.7612 44.3262 52.796C46.4458 51.8308 50.2233 53.992 49.8666 55.7755Z" fill="#70604B"/>
<path d="M41.555 55.5871L36.0566 55.0835C36.0566 55.0835 37.2109 52.3558 40.023 52.3139C42.8352 52.2719 41.555 55.5871 41.555 55.5871Z" fill="#70604B"/>
<path d="M47.1585 66.9803C47.1585 66.9803 45.5425 64.3366 44.0106 64.4834C42.4786 64.6303 40.5059 68.3862 40.5059 68.3862C40.5059 68.3862 42.8983 65.2808 43.8217 65.1759C44.7661 65.0709 47.1585 66.9803 47.1585 66.9803Z" fill="black"/>
<path d="M45.8573 63.7486C45.8573 63.7486 44.7451 62.5317 43.2551 63.0772C41.765 63.6228 40.5059 68.113 40.5059 68.113C40.5059 68.113 42.1848 64.2942 43.297 63.7696C44.4093 63.2451 46.6758 64.8817 46.6758 64.8817L45.8573 63.7486Z" fill="black"/>
<path d="M31.6504 64.6095C31.6504 64.6095 32.7836 63.7282 33.9799 64.1898C35.1761 64.6514 37.8623 67.9247 37.8623 67.9247C37.8623 67.9247 35.4069 63.959 34.4416 63.6023C33.4762 63.2246 32.4898 63.4764 32.4898 63.4764C32.4898 63.4764 33.4972 62.9309 34.6514 63.3925C35.8057 63.8751 38.0722 67.3582 38.2401 68.4073C38.2401 68.4073 34.1687 64.4836 33.4972 64.5046C32.8256 64.5046 31.6504 64.6095 31.6504 64.6095Z" fill="black"/>
<path opacity="0.34" d="M37.9867 68.9527C37.9867 68.9527 44.9121 69.2884 48.5008 67.7567C52.0894 66.225 55.5941 62.1754 56.9582 59.2169C58.3223 56.2793 59.1617 57.7061 60.1901 58.6084C61.2184 59.5106 61.9739 61.399 64.1145 61.441C66.2551 61.483 67.1994 60.3289 68.6685 61.399C70.1375 62.4691 70.7251 64.3995 70.7251 64.3995C70.7251 64.3995 69.0672 64.6093 66.0872 64.4625C63.0861 64.3156 62.2257 64.8821 60.8616 63.5602C59.4975 62.2383 58.0285 61.3361 58.0285 61.3361C58.0285 61.3361 53.6214 69.75 50.4315 70.1067C47.2416 70.4634 39.1829 70.7152 37.6089 70.1067C36.035 69.4982 33.5586 68.1134 33.5586 68.1134L37.9867 68.9527Z" fill="#362E24"/>
<path opacity="0.34" d="M49.8653 55.7757C49.8653 55.7757 48.1654 54.3699 45.773 54.3909C43.3806 54.4328 42.793 55.7967 42.793 55.7967C42.793 55.7967 43.0868 58.1677 45.4792 58.0418C47.8926 57.9159 49.8653 55.7757 49.8653 55.7757Z" fill="#362E24"/>
<path opacity="0.34" d="M42.793 55.7969C42.793 55.7969 43.5275 58.5456 46.1927 58.7344C48.858 58.9442 50.6838 56.6572 50.6838 56.6572C50.6838 56.6572 50.0332 58.6505 47.7877 59.0911C45.5212 59.5527 43.0658 58.3567 42.793 55.7969Z" fill="#362E24"/>
<path opacity="0.34" d="M41.5566 55.5871C41.5566 55.5871 40.9061 58.042 38.9543 57.4335C37.0026 56.846 36.373 55.1045 36.373 55.1045L41.5566 55.5871Z" fill="#362E24"/>
<path opacity="0.34" d="M41.5557 55.5869C41.5557 55.5869 40.0656 59.3218 37.9041 58.9231C35.7425 58.5244 35.3438 56.0066 35.3438 56.0066C35.3438 56.0066 36.0573 57.916 37.946 58.0628C39.8558 58.1887 41.5557 55.5869 41.5557 55.5869Z" fill="#362E24"/>
<path opacity="0.34" d="M35.9941 62.091C35.9941 62.091 42.7307 61.6924 44.5985 62.5527C46.4872 63.392 47.5995 68.134 47.5995 68.134L49.5932 67.1898C49.5932 67.1898 47.8513 62.2799 45.8157 61.7553C43.801 61.2098 35.9941 62.091 35.9941 62.091Z" fill="#362E24"/>
<path opacity="0.34" d="M34.8815 53.1523C34.8815 53.1523 32.1953 57.7685 30.4534 57.7685C28.7116 57.7685 26.1932 57.2229 24.3884 57.7685C22.5836 58.314 21.8281 61.0417 21.8281 61.0417C21.8281 61.0417 28.2079 60.9368 30.9151 59.6779C33.6224 58.4189 34.8815 53.1523 34.8815 53.1523Z" fill="#362E24"/>
<path opacity="0.34" d="M58.5125 57.4541C58.5125 57.4541 54.9869 53.5933 53.0142 54.3907C51.0205 55.209 52.5525 58.4403 51.713 59.972C50.8526 61.5037 50.4329 63.3711 50.7057 65.1337C50.9785 66.8962 50.9785 66.8962 50.9785 66.8962C50.9785 66.8962 55.1338 63.1823 56.7707 60.8113C58.4076 58.4403 58.5125 57.4541 58.5125 57.4541Z" fill="#362E24"/>
<path opacity="0.34" d="M35.3436 52.8594C35.3436 52.8594 34.2943 54.0764 34.5881 55.5871C34.8819 57.0978 35.2386 57.5175 34.9448 58.2728C34.651 59.0282 30.9155 62.7421 30.9155 62.7421C30.9155 62.7421 30.4958 61.0425 31.3352 59.8675C32.1956 58.6925 32.7623 57.3286 33.6017 55.7969C34.4412 54.2862 34.0214 53.258 35.3436 52.8594Z" fill="#362E24"/>
<path opacity="0.34" d="M43.8223 56.2164C43.8223 56.2164 43.6964 57.0767 44.4519 57.2655C45.2074 57.4544 45.816 56.8669 45.5012 56.2164C45.2074 55.5659 43.9482 55.7968 43.8223 56.2164Z" fill="#362E24"/>
<path opacity="0.34" d="M39.4997 55.3981C39.4997 55.3981 38.9961 55.3771 38.8701 55.9856C38.7442 56.615 39.3528 57.1606 40.0454 56.9717C40.7379 56.7829 40.8009 56.1534 40.8009 56.1534C40.8009 56.1534 40.0244 55.2722 39.4997 55.3981Z" fill="#362E24"/>
<path opacity="0.34" d="M41.5561 55.587C41.5561 55.587 41.4301 54.4959 40.2339 54.2861C39.0377 54.0762 36.1836 55.1044 36.1836 55.1044L41.5561 55.587Z" fill="#362E24"/>
<path opacity="0.34" d="M49.6135 55.7964C49.6135 55.7964 46.3816 55.125 44.8916 55.104C43.4016 55.083 42.793 55.7964 42.793 55.7964C42.793 55.7964 45.731 55.9223 47.263 55.9852C48.816 56.0482 49.6135 55.7964 49.6135 55.7964Z" fill="#362E24"/>
<path opacity="0.34" d="M41.4923 55.692C41.4923 55.692 40.7158 54.9996 39.7085 54.9157C38.7011 54.8527 36.5605 55.1255 36.5605 55.1255L41.4923 55.692Z" fill="#362E24"/>
<path opacity="0.34" d="M60.1696 64.8398C60.1696 64.8398 55.6366 70.5261 55.8465 74.24C56.0354 77.9538 57.9871 89.0115 57.9871 89.0115C57.9871 89.0115 56.1403 88.0883 54.1886 87.8785C52.2369 87.6477 50.2852 88.6339 50.2852 88.6339C50.2852 88.6339 50.9987 80.6815 51.985 75.7087C52.9504 70.7149 58.176 65.3224 60.1696 64.8398Z" fill="#362E24"/>
<path opacity="0.34" d="M29.5938 69.3301C29.5938 69.3301 30.8529 72.8341 35.9945 76.2752C41.1362 79.7164 47.1382 86.095 48.2505 88.3191C49.3627 90.5642 49.6146 91.0049 49.6146 91.0049C49.6146 91.0049 49.0689 91.7812 49.6146 94.0263C50.1602 96.2715 53.9377 106.616 53.6019 108.546C53.2452 110.477 52.7205 114.631 52.7205 114.631L49.6146 115.198C49.6146 115.198 50.6849 113.078 49.6146 111.631C48.5443 110.183 47.7678 109.826 47.7678 109.826C47.7678 109.826 49.3208 109.448 50.2861 110.183C51.2515 110.917 51.4404 112.533 51.4404 112.533C51.4404 112.533 51.2515 103.049 47.7468 97.992C44.2421 92.9353 40.7584 85.5075 40.7584 85.5075C40.7584 85.5075 44.5359 87.228 45.5642 88.529C46.6135 89.8299 46.6135 89.8299 46.6135 89.8299C46.6135 89.8299 42.836 84.5633 38.2191 81.2271C33.6021 77.8909 29.5938 69.3301 29.5938 69.3301Z" fill="#362E24"/>
<path opacity="0.34" d="M60.17 64.8398C60.17 64.8398 55.8469 69.4979 55.8469 74.24C55.8259 78.982 57.9875 89.0115 57.9875 89.0115C57.9875 89.0115 56.2036 87.5008 54.5457 87.3959C52.8878 87.291 52.1113 88.1932 52.1113 88.1932C52.1113 88.1932 53.7063 75.5828 54.5457 73.0859C55.3852 70.589 60.17 64.8398 60.17 64.8398Z" fill="#362E24"/>
<path opacity="0.34" d="M76.2249 63.1826C76.2249 63.1826 79.4987 70.4215 77.9247 75.4153C76.3718 80.4092 73.1189 87.5432 71.8388 90.5856C70.5586 93.649 70.5586 93.649 70.5586 93.649C70.5586 93.649 84.1576 97.0062 92.8039 95.5794C101.429 94.1526 102.835 92.3901 102.835 92.3901C102.835 92.3901 92.8669 82.7382 92.0484 75.4993C91.23 68.2604 91.6497 65.7844 91.6497 65.7844C91.6497 65.7844 88.9005 76.0238 90.3276 81.815C91.7546 87.6271 94.9445 92.2642 94.9445 92.2642C94.9445 92.2642 79.5826 94.0687 76.6026 92.2642C73.6226 90.4597 80.8628 80.0734 80.8628 75.1845C80.8628 70.3166 76.2249 63.1826 76.2249 63.1826Z" fill="#362E24"/>
<path d="M71.0829 93.7536C71.0829 93.7536 67.1585 88.4031 64.3883 88.1093C61.6181 87.8156 59.4355 90.9419 59.4355 90.9419C59.4355 90.9419 62.9822 88.9486 64.787 89.0325C66.5708 89.0955 71.0829 93.7536 71.0829 93.7536Z" fill="#362E24"/>
<path d="M66.4866 93.7535C66.4866 93.7535 64.5349 89.8927 61.8486 91.1936C59.1624 92.4945 59.4142 95.6419 59.4352 95.7468C59.4562 95.8517 59.813 93.6905 61.5968 92.7044C63.3596 91.7182 66.4866 93.9003 66.4866 93.9003" fill="#362E24"/>
<path d="M64.1997 95.7683C64.1997 95.7683 63.2553 94.1317 62.248 94.5303C61.2407 94.929 61.9542 97.7826 61.9542 97.7826C61.9542 97.7826 61.7653 95.6844 62.3949 95.6214C63.0035 95.5375 64.1997 95.7683 64.1997 95.7683Z" fill="#362E24"/>
<path opacity="0.34" d="M71.084 92.4105C71.084 92.4105 77.5477 87.9832 81.1364 82.7586C84.725 77.534 84.725 71.2812 84.725 71.2812C84.725 71.2812 85.1447 79.1706 81.8499 83.6818C78.576 88.1931 71.084 92.4105 71.084 92.4105Z" fill="#362E24"/>
<path opacity="0.34" d="M44.2419 47.3825C44.2419 47.3825 51.8179 46.9628 54.5462 50.2571C57.2744 53.5513 64.0739 55.2928 69.1735 54.2647C74.2732 53.2366 75.4694 50.1522 75.4064 47.0678C75.3644 43.9833 74.504 41.6543 74.504 41.6543C74.504 41.6543 77.3162 43.3958 76.3298 49.9004C75.3435 56.4049 68.2291 59.3215 64.7035 58.9648C61.1988 58.6081 58.1977 56.6147 55.8053 56.0062C53.4129 55.3978 43.5074 53.1946 44.2419 47.3825Z" fill="#362E24"/>
<path opacity="0.34" d="M37.883 42.913C37.883 42.913 40.9889 45.263 40.5063 47.7809C40.0236 50.2988 37.0226 49.0398 32.3217 51.8725C27.6207 54.7051 21.6187 57.7685 17.7572 56.2578C13.8958 54.7471 12.007 48.9769 12.3428 46.7108C12.3428 46.7108 11.9441 53.7189 15.4278 56.5515C18.9115 59.4051 22.3112 57.4538 23.9692 56.6565C25.6271 55.8591 29.5725 54.7471 31.6501 53.9497C33.7277 53.1524 38.7434 53.2573 41.4926 50.3198C44.2418 47.3822 40.947 42.6612 37.883 42.913Z" fill="#362E24"/>
<path d="M54.7974 43.501C54.7974 43.501 47.0745 44.8438 47.809 53.1319L48.4806 53.5096C48.4806 53.5096 48.1028 49.439 49.5928 47.2988C51.0829 45.1586 55.448 43.7528 55.448 43.7528L54.7974 43.501Z" fill="#362E24"/>
<path d="M58.1982 45.0742C58.1982 45.0742 52.7418 48.9979 53.5602 54.894L54.2738 55.1038C54.2738 55.1038 53.854 52.6698 55.2391 49.8582C56.6242 47.0256 58.513 45.2421 58.513 45.2421L58.1982 45.0742Z" fill="#362E24"/>
<path d="M62.9612 48.0957C62.9612 48.0957 61.2823 49.9841 61.2194 53.1525C61.1564 56.3208 61.2194 57.4329 61.2194 57.4329L62.0798 57.4958C62.0798 57.4958 61.4712 53.5721 61.765 52.3132C62.0588 51.0542 63.5279 48.3475 63.5279 48.3475L62.9612 48.0957Z" fill="#362E24"/>
<path d="M68.8789 49.1659C68.8789 49.1659 70.1171 50.7186 70.7047 52.544C71.2923 54.3695 71.2084 55.7963 71.2084 55.7963L71.838 55.1039C71.838 55.1039 71.5861 52.7958 71.0615 51.8936C70.5368 50.9913 69.5295 48.9561 69.5295 48.9561L68.8789 49.1659Z" fill="#362E24"/>
<path d="M71.6504 46.9214C71.6504 46.9214 73.0984 47.1942 74.1687 48.0964C75.26 48.9986 76.3303 49.9009 76.3303 49.9009L76.2883 48.9567C76.2883 48.9567 74.9662 47.7817 74.3576 47.362C73.749 46.9214 71.9442 46.166 71.9442 46.166L71.6504 46.9214Z" fill="#362E24"/>
<path d="M71.8594 42.4306L72.0902 43.3539C72.0902 43.3539 72.426 43.0811 72.9297 42.9972C73.4333 42.8923 75.0493 42.5985 75.0493 42.5985L74.5036 41.6543L71.8594 42.4306Z" fill="#362E24"/>
<path opacity="0.34" d="M97.2535 85.9902C97.2535 85.9902 95.2808 93.397 97.4214 97.0899C99.583 100.783 101.409 101.412 100.569 103.741C99.7299 106.049 98.4707 107.015 97.7152 109.595C96.9597 112.176 96.4141 114.652 96.4141 114.652L99.9397 114.526C99.9397 114.526 101.304 108.693 102.227 106.952C103.13 105.21 105.081 101.181 105.081 101.181C105.081 101.181 102.605 96.5024 102.836 92.3899L97.2535 85.9902Z" fill="#362E24"/>
<path opacity="0.34" d="M66.634 113.477C66.634 113.477 67.4315 110.162 65.5637 110.54C63.675 110.938 62.9824 114.128 62.9824 114.128C62.9824 114.128 64.5564 112.407 65.2489 112.323C65.9205 112.239 66.634 113.477 66.634 113.477Z" fill="#362E24"/>
<path opacity="0.34" d="M63.2964 113.771C63.2964 113.771 63.947 110.078 62.1841 109.679C60.4213 109.26 58.1758 113.015 58.1758 113.015C58.1758 113.015 59.8547 111.924 60.9879 112.323C62.1422 112.722 61.5755 115.827 61.7015 115.827C61.8274 115.827 63.2754 115.785 63.2754 115.785V113.771H63.2964Z" fill="#362E24"/>
<path opacity="0.34" d="M48.2702 53.4047L49.2355 53.5306C49.2355 53.5306 48.7738 49.7327 49.8651 48.0961C50.9564 46.4595 55.8462 43.9206 55.8462 43.9206L55.1746 43.501C55.1746 43.501 51.1872 44.634 49.8651 46.7742C48.543 48.9144 48.3541 50.1734 48.2702 51.2225C48.2072 52.2716 48.2702 53.4047 48.2702 53.4047Z" fill="#362E24"/>
<path d="M31.6504 43.7733C31.6504 43.7733 33.1194 43.4166 35.344 45.4938C37.5685 47.5711 37.2957 51.8095 37.2957 51.8095L37.6944 51.5577C37.6944 51.5577 37.8413 48.2425 36.729 46.438C35.6168 44.6126 33.0355 43.5215 32.238 43.5215L31.6504 43.7733Z" fill="#362E24"/>
<path d="M26.1309 47.3614C26.1309 47.3614 28.943 47.4034 30.1392 49.2918C31.3354 51.1802 31.6502 53.9499 31.6502 53.9499L32.4897 53.6981C32.4897 53.6981 31.5453 50.0052 30.6009 48.7673C29.6565 47.5293 26.9493 46.7949 26.9493 46.7949L26.1309 47.3614Z" fill="#362E24"/>
<path d="M21.2402 49.7533V57.7895L21.8278 57.5797V49.5645L21.2402 49.7533Z" fill="#362E24"/>
<path d="M17.0229 48.8516C17.0229 48.8516 14.5675 51.9989 12.7207 51.3904L12.8256 52.1248C12.8256 52.1248 14.4626 51.9989 15.4069 51.4534C16.3513 50.9078 17.3586 49.2083 17.3586 49.2083L17.0229 48.8516Z" fill="#362E24"/>
<path opacity="0.34" d="M117.19 47.3828C117.19 47.3828 115.112 64.966 110.558 72.3728C106.004 79.7796 106.298 86.2002 111.292 91.6137C116.266 97.0271 114.566 97.5937 113.139 101.161C111.712 104.728 108.711 114.589 108.711 114.589L112.887 114.38C112.887 114.38 114.503 107.099 115.532 104.77C116.56 102.441 118.47 99.2513 118.47 99.2513C118.47 99.2513 114.545 93.8798 115.259 87.3333C115.972 80.7868 119.456 65.6165 118.826 58.0628C118.197 50.5092 117.19 47.3828 117.19 47.3828Z" fill="#362E24"/>
<path opacity="0.34" d="M111.293 60.2448C111.293 60.2448 102.835 52.9219 97.1059 56.321C91.3767 59.7202 91.6705 65.7841 91.6705 65.7841C91.6705 65.7841 94.0629 58.9648 98.8478 57.4331C103.633 55.9014 111.293 60.2448 111.293 60.2448Z" fill="#362E24"/>
<path d="M92.2165 64.4837C92.2165 64.4837 92.6153 52.8175 101.471 51.8313C110.349 50.8451 113.119 56.3425 113.119 56.3425C113.119 56.3425 109.131 48.1594 100.254 50.4884C91.3771 52.8175 92.2165 64.4837 92.2165 64.4837Z" fill="#362E24"/>
<path d="M130.2 50.9291C130.2 50.9291 127.976 53.0483 125.94 52.7126C123.904 52.3769 122.834 50.4465 123.128 47.8237C123.422 45.2009 123.275 44.4875 121.722 44.0888C120.169 43.7111 117.336 44.9071 117.189 44.7183C117.042 44.5295 118.679 42.683 122.204 42.641C125.73 42.5991 127.094 45.7045 127.388 47.3831C127.682 49.0407 130.347 49.9009 131.187 50.5094C132.047 51.0969 130.2 50.9291 130.2 50.9291Z" fill="#1F1A14"/>
<path d="M118.135 43.7526C118.135 43.7526 122.71 41.5495 124.599 43.7526C126.487 45.9558 125.564 48.4107 127.201 49.25C128.838 50.0893 130.622 50.7397 130.622 50.7397C130.622 50.7397 127.851 50.8237 126.697 49.7326C125.543 48.6415 125.417 45.4732 124.305 44.4241C123.192 43.354 120.716 42.6405 118.135 43.7526Z" fill="#544838"/>
<path d="M123.717 46.7529C123.717 46.7529 122.962 50.4668 125.291 51.1382C127.621 51.7887 129.929 50.7396 129.929 50.7396C129.929 50.7396 128.397 52.3552 126.215 52.0195C124.074 51.6628 122.605 50.194 123.717 46.7529Z" fill="#544838"/>
<path d="M130.495 51.1592C130.495 51.1592 130.432 50.7606 129.403 51.8726C128.375 52.9847 127.599 54.8521 124.493 53.782C121.387 52.7329 121.932 48.7043 122.268 47.4873C122.268 47.4873 122.289 49.04 122.961 49.4177C123.632 49.7954 123.632 50.5717 124.367 51.2641C125.101 51.9775 126.004 52.4182 127.347 52.1874C128.69 51.9356 129.256 50.7396 129.949 50.7396C130.621 50.7396 130.621 51.2432 130.621 51.2432" fill="#1F1A14"/>
<path d="M131.418 50.6348C131.418 50.6348 129.508 50.0682 128.962 48.1588C128.417 46.2494 128.857 44.1302 127.493 43.0391C126.129 41.9481 125.646 41.6543 125.646 41.6543C125.646 41.6543 127.157 42.9972 127.011 44.361C126.864 45.7039 126.255 47.4245 127.011 48.4526C127.766 49.4597 131.418 50.6348 131.418 50.6348Z" fill="#1F1A14"/>
</svg>
