<svg width="150" height="150" viewBox="0 0 150 150" fill="none" xmlns="http://www.w3.org/2000/svg">
<path d="M18.8742 73.7495C16.8742 76.2495 15.1242 78.9995 14.3742 82.2495C13.7492 85.2495 14.1242 88.7495 15.8742 91.3745C17.4992 93.7495 20.1242 95.2495 22.7492 96.3745C35.3742 101.75 49.6242 100.25 63.3742 101.125C79.7492 102.125 96.4992 106.625 112.374 102.25C115.999 101.25 119.749 99.6245 121.999 96.4995C123.874 93.8745 124.499 90.4995 124.374 87.3745C124.249 84.1245 123.249 80.9995 122.374 77.9995C120.499 71.4995 118.624 64.9995 116.749 58.3745C99.8742 56.3745 101.249 55.4995 84.2492 56.2495C75.8742 58.2495 62.6242 53.6245 43.8742 57.8745C35.4992 59.7495 24.3742 67.1245 18.8742 73.7495Z" fill="#B08B6A"/>
<path d="M116.749 58.374C107.874 57.374 103.999 56.624 99.8738 56.249C94.8738 56.374 89.8738 56.624 84.8738 56.249C84.6238 56.249 84.4988 56.249 84.2488 56.249C83.1238 56.499 81.8738 56.624 80.4988 56.749C79.4988 56.749 77.9988 63.624 80.1238 66.874C82.3738 70.124 78.2488 74.124 81.7488 75.874C84.9988 77.499 89.1238 77.124 92.1238 79.249C93.7488 80.374 94.8738 82.124 96.2488 83.624C98.7488 86.374 102.124 88.249 105.874 88.999C106.374 89.124 106.999 89.124 107.624 88.999C108.749 88.749 109.499 87.499 110.124 86.499C111.249 84.374 112.374 82.374 113.624 80.249C114.249 79.124 114.999 77.874 115.999 77.124C116.874 76.499 117.999 76.124 118.874 75.499C119.749 74.874 120.374 73.999 120.999 72.999C119.499 68.249 118.124 63.249 116.749 58.374Z" fill="#E0D7CE"/>
<path d="M79.6242 102.875C77.4992 99.9995 76.1242 96.4995 76.1242 92.9995C76.1242 90.6245 76.6242 88.1245 75.8742 85.8745C74.6242 81.9995 70.1242 79.3745 70.4992 75.3745C70.6242 72.8745 72.7492 70.9995 74.1242 68.9995C76.6242 65.4995 77.7492 61.1245 77.1242 56.8745C68.9992 56.6245 57.9992 54.7495 43.8742 57.9995C35.4992 59.7495 24.3742 67.1245 18.8742 73.7495C16.8742 76.2495 15.1242 78.9995 14.3742 82.2495C13.7492 85.2495 14.1242 88.7495 15.8742 91.3745C17.4992 93.7495 20.1242 95.2495 22.7492 96.3745C35.3742 101.75 49.6242 100.25 63.3742 101.125C68.7492 101.5 74.2492 102.25 79.6242 102.875Z" fill="#685547"/>
<path d="M79.6242 102.874C78.4992 101.374 77.6242 99.749 76.9992 97.999C71.3742 96.499 66.3742 92.374 60.8742 89.749C56.7492 87.874 52.2492 86.749 47.8742 85.374C43.4992 83.874 39.2492 81.874 36.1242 78.499C33.3742 75.499 31.8742 71.374 31.8742 67.374C31.8742 65.749 32.1242 64.124 32.6242 62.624C27.2492 65.749 22.1242 69.874 18.8742 73.749C16.8742 76.249 15.1242 78.999 14.3742 82.249C13.7492 85.249 14.1242 88.749 15.8742 91.374C17.4992 93.749 20.1242 95.249 22.7492 96.374C35.3742 101.749 49.6242 100.249 63.3742 101.124C68.7492 101.499 74.2492 102.249 79.6242 102.874Z" fill="#604C3E"/>
<path d="M84.4991 98.4996C84.8741 100.5 86.4991 102.125 88.2491 103.125C89.9991 104.125 91.9991 104.625 93.9991 105.25C96.2491 106 98.3741 107 100.624 107.5C102.874 108 105.374 108 107.374 106.875C109.374 105.75 110.749 103.25 110.124 101C107.499 100.125 105.249 98.4996 103.124 96.8746C100.999 95.2496 98.7491 93.4996 96.2491 92.4996C93.7491 91.3746 90.8741 90.9996 88.3741 92.1246C85.8741 92.9996 83.9991 95.7496 84.4991 98.4996Z" fill="black"/>
<path d="M125.625 104.25C126.125 104 126.625 103.75 127 103.25C127.5 102.5 127.125 101.375 127 100.5C126.75 98.875 127 97.125 127.125 95.5C127.25 93.875 127.125 92 126.125 90.75C124.75 88.875 122 88.5 119.875 89.375C117.75 90.375 116.375 92.375 115.625 94.5C114.875 96.5 114.75 98.75 115.125 100.875C115.375 102.5 116.125 104.125 117.5 105.125C118.75 106 120.25 106.125 121.625 105.75C123 105.5 124.25 104.875 125.625 104.25Z" fill="black"/>
<path d="M64.7492 119.875C60.6242 119.625 56.3742 118.625 52.9992 116.5C50.8742 115.125 49.2492 113.375 47.3742 111.75C43.3742 108.375 38.6242 106 33.8742 103.5C29.1242 101.125 21.2492 100.125 17.4992 96.5C13.7492 93 12.2492 88.875 12.6242 84.125C13.1242 79.375 19.1242 68.75 24.4992 68.125C22.9992 70.25 21.7492 76.25 20.9992 78.625C20.2492 81 20.1242 83.625 21.2492 85.875C22.2492 88.125 24.3742 89.875 26.4992 91.375C33.1242 95.875 41.3742 98.125 49.2492 100.875C56.9992 103.75 64.9992 107.375 69.3742 113.625C70.3742 115.125 71.2492 117 70.1242 118.5C68.9992 119.875 66.7492 120.125 64.7492 119.875Z" fill="black"/>
<path d="M101.251 104.375C100.751 105 100.376 105.75 100.501 106.5C100.626 107.25 101.126 107.75 101.876 108.125C102.501 108.5 103.251 108.625 104.001 108.625C107.376 109 110.751 108.75 114.001 108C114.751 107.875 115.751 104.75 115.001 103.75C113.876 102.125 112.001 100.875 110.001 100.5C106.626 99.8747 103.126 101.625 101.251 104.375Z" fill="white"/>
<path d="M128.749 101.75C126.999 100.5 124.749 100.125 122.624 100.5C120.499 100.875 118.624 102.25 117.499 104.125C117.124 104.75 116.874 105.5 117.124 106.125C117.374 107 118.374 107.375 119.124 107.625C121.624 108.375 124.249 108.5 126.749 108.25C128.249 108.125 129.874 107.5 130.499 106.125C131.249 104.5 130.124 102.75 128.749 101.75Z" fill="white"/>
<path d="M117.25 66.6245C118.25 65.7495 119.375 64.7495 120 63.3745C120.875 61.4995 120.5 59.3745 119.75 57.4995C119 55.6245 117.875 53.9995 117 52.2495C115.125 48.3745 114.375 43.7495 111.125 41.1245C108.5 38.9995 104.875 38.4995 101.5 38.4995C96.9998 38.3745 92.2498 38.7495 88.6248 41.2495C85.9998 43.1245 84.1248 45.9995 82.8748 48.9995C81.7498 51.9995 81.1248 55.2495 80.6248 58.4995C80.2498 60.3745 79.9998 62.4995 80.6248 64.2495C81.1248 65.4995 82.1248 66.6245 83.1248 67.6245C84.6248 69.1245 85.9998 70.6245 87.8748 71.7495C92.1248 74.3745 97.3748 74.4995 102.25 74.2495C104.625 74.1245 107.125 73.9995 109.25 72.8745C110.625 72.1245 111.875 71.1245 113 70.1245C114.5 68.9995 115.875 67.7495 117.25 66.6245Z" fill="#EDE7E2"/>
<path d="M92 65.7496C96 67.1246 100.375 68.6246 104.375 67.2496C107.375 66.2496 109.5 63.7496 112.375 62.3746C114.5 61.2496 117 60.6246 118.5 58.8746C119 58.3746 119.25 57.7496 119.5 57.1246C118.75 55.4996 117.75 53.9996 117 52.3746C115.125 48.4996 114.375 43.8746 111.125 41.2496C108.5 39.1246 104.875 38.6246 101.5 38.6246C97 38.3746 92.25 38.7496 88.625 41.2496C86 43.1246 84.125 45.9996 82.875 48.9996C81.75 51.9996 81.125 55.2496 80.625 58.4996C80.5 59.4996 80.25 60.4996 80.25 61.4996C84.125 62.8746 88.125 64.3746 92 65.7496Z" fill="#B08B6A"/>
<path d="M116.126 51.8749C111.751 44.9999 106.501 43.8749 104.001 42.8749C101.501 41.7499 114.251 32.9999 116.876 33.8749C118.501 34.3749 117.001 53.2499 116.126 51.8749Z" fill="black"/>
<path d="M83.3766 37.8753C82.6266 37.6253 79.8766 36.5003 79.7516 38.3753C79.5016 40.7503 80.5016 59.7503 81.6266 57.2503C83.1266 53.7503 88.0016 45.5003 93.6266 44.5003C95.5016 44.1253 84.8766 38.2503 83.3766 37.8753Z" fill="black"/>
<path d="M116.125 35.9994C118.25 33.7494 117 46.9994 115.625 51.1244C112.75 47.6244 109.5 45.1244 107.75 44.3744C106 43.4994 113.875 38.2494 116.125 35.9994Z" fill="#645047"/>
<path d="M80.2509 38.9999C80.1259 41.3749 81.1259 58.1249 82.0009 56.3749C84.0009 52.2499 87.0009 48.8749 89.0009 46.7499C90.2509 45.4999 80.3759 36.7499 80.2509 38.9999Z" fill="#645047"/>
<path d="M112.251 63.0004C113.751 61.5004 115.001 59.7504 115.751 57.7504C116.126 56.8754 116.251 55.8754 115.876 55.0004C115.376 53.8754 114.251 53.2504 113.001 52.8754C111.876 52.5004 110.501 52.5004 109.501 51.8754C107.126 50.7504 106.126 47.8754 104.126 46.1254C102.251 44.5004 99.5005 43.8754 97.1255 44.6254C94.7505 45.3754 92.8755 47.5004 92.3755 50.0004C92.1255 50.8754 92.1255 51.8754 91.6255 52.6254C91.2505 53.1254 90.6255 53.3754 90.1255 53.7504C88.7505 54.5004 87.5005 55.3754 86.2505 56.3754C85.2505 57.2504 84.2505 58.2504 84.1255 59.5004C84.0005 60.6254 84.3755 61.7504 85.0005 62.8754C85.7505 64.2504 86.6255 65.3754 87.8755 66.3754C89.1255 67.2504 90.6255 67.8754 92.1255 67.8754C93.8755 67.8754 95.5005 67.0004 97.1255 66.3754C99.3755 65.5004 101.876 65.1254 104.376 65.3754C106.251 65.5004 108.126 65.8754 109.876 65.1254C110.626 64.5004 111.501 63.7504 112.251 63.0004Z" fill="#423227"/>
<path d="M94.7499 60.125C95.6249 59.875 96.6249 59.5 97.1249 58.625C97.6249 57.75 97.2499 56.5 96.4999 55.875C95.9999 55.5 95.2499 55.375 94.6249 55.375C93.8749 55.375 93.2499 55.375 92.4999 55.375C92.1249 55.375 91.6249 55.5 91.2499 55.625C90.3749 56 89.9999 57.125 90.2499 58C90.4999 58.875 91.2499 59.625 91.9999 60C92.8749 60.25 93.8749 60.25 94.7499 60.125Z" fill="#231913"/>
<path d="M96.875 57.875C96.875 57.875 96.625 55.75 93.875 55.625C91.125 55.5 91 57.125 91 57.125C91 57.125 91.5 59.5 93.5 59.625C95.5 59.875 96.375 58.75 96.875 57.875Z" fill="#489FCB"/>
<path d="M93.875 55.75C93.125 55.75 92.625 55.75 92.25 56C92.125 56.25 92 56.625 92 57C92 58.25 93 59.125 94.125 59.125C95.25 59.125 96.25 58.125 96.25 57V56.875C95.875 56.25 95.125 55.75 93.875 55.75Z" fill="black"/>
<path d="M94.25 57.125C94.25 57.375 94 57.625 93.75 57.625C93.5 57.625 93.25 57.375 93.25 57.125C93.25 56.875 93.5 56.625 93.75 56.625C94.125 56.625 94.25 56.875 94.25 57.125Z" fill="white"/>
<path d="M107 59.5001C108.125 59.6251 109.25 59.5001 110.125 58.8751C111 58.2501 111.625 57.1251 111.375 56.1251C111 55.5001 110.375 55.1251 109.75 54.8751C109.125 54.6251 108.375 54.6251 107.625 54.7501C106.875 54.8751 106.125 55.0001 105.5 55.5001C104.875 56.0001 104.375 56.7501 104.5 57.5001C104.5 58.1251 104.875 58.6251 105.375 59.0001C105.75 59.1251 106.375 59.3751 107 59.5001Z" fill="#231913"/>
<path d="M104.748 57.125C104.748 57.125 104.998 55 107.748 54.875C110.498 54.75 110.623 56.375 110.623 56.375C110.623 56.375 110.123 58.75 108.123 58.875C105.998 59 105.123 58 104.748 57.125Z" fill="#489FCB"/>
<path d="M109.748 56.2502C109.748 55.8752 109.623 55.6252 109.498 55.2502C109.123 55.0002 108.498 54.8752 107.623 55.0002C106.623 55.0002 105.873 55.3752 105.498 55.7502C105.498 55.8752 105.373 56.1252 105.373 56.2502C105.373 57.5002 106.373 58.3752 107.498 58.3752C108.873 58.3752 109.748 57.3752 109.748 56.2502Z" fill="black"/>
<path d="M107.748 56.375C107.748 56.625 107.498 56.875 107.248 56.875C106.998 56.875 106.748 56.625 106.748 56.375C106.748 56.125 106.998 55.875 107.248 55.875C107.623 55.875 107.748 56.125 107.748 56.375Z" fill="white"/>
<path d="M96.875 69.751C97.875 71.251 99.625 72.126 101.5 72.251C103.25 72.251 105.125 71.501 106.25 70.126C105.375 69.626 104.5 69.126 103.625 68.626C103.125 68.376 102.625 68.001 102.125 67.876C101.25 67.626 100.25 67.876 99.375 68.251C98.375 68.501 97.625 69.126 96.875 69.751Z" fill="white"/>
<path d="M106.125 70.001C105.25 69.501 104.375 69.001 103.5 68.501C103 68.251 102.5 67.876 102 67.751C101.125 67.501 100.125 67.751 99.25 68.126C98.375 68.501 97.625 69.126 96.875 69.751C97 70.001 97.25 70.251 97.5 70.501C99 70.251 100.5 70.126 102.125 69.751C103.375 69.501 104.375 70.501 105.5 70.751C105.75 70.501 106 70.251 106.125 70.001Z" fill="#E7DFD5"/>
<path d="M99.4991 50.6257C98.9991 52.3757 98.4991 54.5007 98.3741 56.2507C98.2491 57.7507 98.1241 59.1257 97.4991 60.5007C96.9991 61.8757 95.9991 63.1257 94.6241 63.6257C93.7491 64.0007 92.7491 64.1257 92.1241 64.8757C91.6241 65.5007 91.6241 66.5007 91.7491 67.3757C91.8741 68.1257 92.1241 68.8757 92.6241 69.3757C93.4991 70.2507 94.9991 70.2507 96.2491 70.1257C98.2491 69.8757 100.499 69.6257 101.999 68.2507C103.124 69.6257 104.999 70.0007 106.749 70.0007C107.749 70.0007 108.749 69.8757 109.624 69.5007C110.499 69.1257 111.374 68.3757 111.624 67.3757C111.874 66.3757 111.624 65.2507 110.874 64.6257C110.249 64.2507 109.499 64.1257 108.874 63.7507C108.374 63.3757 107.999 62.7507 107.499 62.3757C106.874 61.8757 105.999 61.6257 105.374 61.2507C104.624 60.7507 104.249 59.7507 103.999 58.8757C103.749 58.0007 103.624 57.0007 103.374 56.1257C102.999 55.0007 102.374 51.6257 101.749 50.6257C100.874 49.6257 99.9991 48.5007 99.4991 50.6257Z" fill="white"/>
<path d="M102 66.875C102.375 66.875 104.5 65.5 104.625 64.875C104.75 64.125 104.25 63.375 102.125 63.375C99.9996 63.375 99.3746 64.125 99.4996 65C99.6246 65.875 101.625 67 102 66.875Z" fill="#F76F87"/>
<path d="M99.5 64.5C99.5 64.625 99.5 64.75 99.5 65C99.625 65.875 101.625 67 102 66.875C102.25 66.875 103.375 66.125 104.125 65.5C102.5 66 100.625 65.625 99.5 64.5Z" fill="#E74F61"/>
<path d="M103.25 63.75C102.625 63.625 102 63.625 101.25 63.75C101 63.75 100.875 63.75 100.625 63.875C100.5 63.875 100.375 64 100.375 64C100.375 64.125 100.5 64.125 100.625 64.125C101.75 64.25 102.875 64 104 64.375C104 64.25 103.875 64 103.75 63.875C103.625 63.75 103.375 63.75 103.25 63.75Z" fill="#FCB4C4"/>
<path fill-rule="evenodd" clip-rule="evenodd" d="M133.126 64.625C132.876 64.625 132.626 64.5 132.251 64.5C132.126 64.5 132.001 64.5 131.751 64.5C131.626 64.5 131.376 64.5 131.251 64.5C130.626 64.375 129.876 64.375 129.126 64.25C129.001 64.25 128.751 64.25 128.626 64.25C128.501 64.25 128.501 64.25 128.376 64.25C128.251 64.25 128.251 64.25 128.126 64.25C127.751 64.25 127.376 64.25 127.126 64.125C126.501 64.125 125.876 64 125.251 64C125.126 64 124.876 64 124.751 64C124.626 64 124.501 64 124.251 64C124.001 64 123.626 64 123.376 64C122.751 64 122.251 64 121.626 64C121.001 64 120.501 64 119.876 64C119.251 64 118.626 64 118.001 64C117.376 64 116.626 64.125 115.876 64.125C115.501 64.125 115.126 64.125 114.751 64.25C114.501 64.25 114.376 64.25 114.126 64.25H113.876H113.626C112.876 64.375 112.001 64.375 111.251 64.5C110.876 64.5 110.501 64.625 110.126 64.625C109.751 64.625 109.376 64.75 109.126 64.75C108.626 64.875 107.376 65 106.876 65.125C106.376 65.25 107.251 65.125 109.001 64.875C109.251 64.875 109.501 64.75 109.876 64.75C110.001 64.75 110.126 64.75 110.376 64.625C110.501 64.625 110.751 64.625 110.876 64.625C111.501 64.5 112.251 64.5 113.126 64.375C113.376 64.375 113.501 64.375 113.751 64.25H114.001C114.126 64.25 114.251 64.25 114.251 64.25C114.626 64.25 115.001 64.25 115.501 64.125C115.876 64.125 116.376 64.125 116.751 64C117.126 64 117.626 63.875 118.126 63.875C118.751 63.875 119.376 63.875 120.001 63.875C120.626 63.875 121.251 63.875 121.876 63.875C122.501 63.875 123.126 63.875 123.751 63.875C124.376 63.875 125.001 63.875 125.501 64C126.376 64 127.376 64.125 128.376 64.125C129.376 64.25 130.501 64.375 131.501 64.375C131.751 64.375 132.001 64.375 132.251 64.5C132.501 64.5 132.751 64.625 132.876 64.625C133.376 64.75 133.751 64.75 134.126 64.75C134.876 64.875 135.376 64.875 135.626 65C136.001 65.125 135.251 64.875 133.126 64.625Z" fill="white"/>
<path fill-rule="evenodd" clip-rule="evenodd" d="M133.125 69.5C132.875 69.375 132.625 69.375 132.25 69.25C132.125 69.25 132 69.125 131.75 69.125C131.625 69.125 131.375 69 131.25 69C130.625 68.875 129.875 68.625 129.25 68.5C129.125 68.5 128.875 68.375 128.75 68.375C128.625 68.375 128.625 68.375 128.5 68.25C128.375 68.25 128.375 68.25 128.25 68.25C127.875 68.125 127.5 68.125 127.25 68C126.625 67.875 126 67.75 125.375 67.625C125.25 67.625 125 67.5 124.875 67.5C124.75 67.5 124.625 67.5 124.375 67.375C124.125 67.375 123.75 67.25 123.5 67.25C122.875 67.125 122.375 67.125 121.75 67C121.125 66.875 120.625 66.875 120 66.75C119.375 66.625 118.75 66.625 118.125 66.5C117.5 66.375 116.75 66.375 116 66.375C115.625 66.375 115.25 66.375 114.75 66.25C114.5 66.25 114.375 66.25 114.125 66.25H113.875H113.625C112.75 66.25 112 66.25 111.25 66.25C110.875 66.25 110.5 66.25 110.125 66.25C109.75 66.25 109.375 66.25 109.125 66.25C108.625 66.25 107.375 66.25 106.875 66.25C106.375 66.25 107.25 66.25 109.125 66.25C109.375 66.25 109.625 66.25 110 66.25C110.125 66.25 110.25 66.25 110.5 66.25C110.625 66.25 110.875 66.25 111 66.25C111.625 66.25 112.375 66.25 113.25 66.375C113.5 66.375 113.625 66.375 113.875 66.375H114.125C114.25 66.375 114.375 66.375 114.375 66.375C114.75 66.375 115.125 66.375 115.625 66.5C116 66.5 116.5 66.5 116.875 66.625C117.25 66.625 117.75 66.625 118.25 66.75C118.875 66.875 119.5 66.875 120.125 67C120.75 67.125 121.375 67.125 122 67.25C122.625 67.375 123.25 67.5 123.875 67.5C124.5 67.625 125.125 67.625 125.625 67.75C126.5 67.875 127.5 68.125 128.5 68.25C129.5 68.5 130.625 68.75 131.625 69C131.875 69 132.125 69.125 132.375 69.125C132.625 69.25 132.875 69.25 133 69.25C133.375 69.375 133.875 69.5 134.125 69.625C134.875 69.875 135.375 70 135.5 70C135.875 70.375 135.125 70.125 133.125 69.5Z" fill="white"/>
<path fill-rule="evenodd" clip-rule="evenodd" d="M133.126 75C132.876 74.875 132.626 74.75 132.376 74.625C132.251 74.5 132.126 74.5 132.001 74.375C131.876 74.25 131.751 74.25 131.501 74.125C130.876 73.875 130.251 73.625 129.626 73.25C129.501 73.125 129.251 73.125 129.126 73H128.751C128.626 73 128.626 73 128.501 72.875C128.126 72.75 127.876 72.625 127.501 72.5C126.876 72.25 126.251 72 125.751 71.875C125.626 71.875 125.501 71.75 125.251 71.75C125.126 71.75 125.001 71.625 124.751 71.625C124.501 71.5 124.126 71.5 123.876 71.375C123.376 71.25 122.751 71 122.251 70.875C121.751 70.75 121.126 70.5 120.626 70.375C120.001 70.25 119.501 70 118.876 69.875C118.251 69.75 117.501 69.5 116.751 69.375C116.376 69.25 116.001 69.25 115.626 69.125C115.376 69.125 115.251 69 115.001 69V68.875H114.751C114.001 68.75 113.126 68.625 112.376 68.5C112.001 68.375 111.626 68.375 111.251 68.25C110.876 68.25 110.501 68.125 110.251 68.125C109.751 68 108.501 67.875 108.001 67.875C107.501 67.75 108.376 68 110.126 68.25C110.376 68.25 110.626 68.375 111.001 68.375C111.126 68.375 111.251 68.375 111.501 68.5C111.626 68.5 111.751 68.5 112.001 68.625C112.626 68.75 113.376 68.875 114.126 69C114.376 69 114.501 69.125 114.751 69.125H115.001C115.126 69.125 115.251 69.125 115.251 69.25C115.626 69.375 116.001 69.375 116.376 69.5C116.751 69.625 117.126 69.625 117.626 69.75C118.001 69.875 118.501 69.875 118.876 70.125C119.501 70.25 120.001 70.5 120.626 70.625C121.251 70.75 121.876 71 122.501 71.125C123.126 71.375 123.751 71.5 124.251 71.75C124.876 72 125.376 72.125 125.876 72.375C126.626 72.625 127.626 73 128.626 73.375C129.626 73.75 130.626 74.125 131.501 74.5C131.751 74.625 132.001 74.625 132.126 74.75C132.376 74.875 132.501 75 132.751 75C133.126 75.125 133.501 75.375 133.876 75.5C134.501 75.75 135.001 76 135.251 76.125C135.751 76.25 135.001 75.875 133.126 75Z" fill="white"/>
<path fill-rule="evenodd" clip-rule="evenodd" d="M123.5 78C123.25 77.75 122.875 77.375 122.5 77.125C122.25 77 122.125 76.75 121.875 76.625C121.625 76.5 121.5 76.25 121.25 76.125C120.375 75.5 119.5 74.875 118.875 74.375C118.125 73.875 117.375 73.375 116.625 72.875C116.25 72.625 115.875 72.5 115.5 72.25C115.125 72 114.75 71.875 114.25 71.625C113.875 71.375 113.375 71.125 112.75 70.875C112.5 70.75 112.25 70.625 111.875 70.5C111.625 70.375 111.375 70.25 111 70.125C110.375 69.875 109.875 69.625 109.375 69.5C109.125 69.375 108.875 69.25 108.625 69.25C108.375 69.125 108.125 69.125 107.875 69C107.5 68.875 106.625 68.625 106.25 68.5C106 68.5 106.125 68.5 106.375 68.625C106.5 68.625 106.75 68.75 107 68.75C107.25 68.875 107.5 68.875 107.875 69C108 69 108.25 69.125 108.5 69.25C108.625 69.25 108.75 69.375 108.875 69.375C109 69.375 109.125 69.5 109.25 69.5C109.75 69.625 110.25 69.875 110.75 70.125C111.875 70.5 113 71 114.125 71.625C115.75 72.5 117.5 73.5 118.875 74.5C119.125 74.625 119.375 74.875 119.75 75.125C120 75.375 120.375 75.625 120.625 75.75C121.25 76.25 121.875 76.75 122.5 77.25C122.625 77.375 122.75 77.5 122.875 77.625C123 77.75 123.125 77.875 123.25 78C123.5 78.25 123.75 78.375 123.875 78.625C124.25 79 124.5 79.25 124.625 79.375C124.75 79.5 124.75 79.5 124.5 79.25C124.375 79.125 124.25 79 124.125 78.75C124 78.625 123.875 78.5 123.75 78.375C123.75 78.25 123.625 78.125 123.5 78Z" fill="white"/>
<path fill-rule="evenodd" clip-rule="evenodd" d="M73.75 65.375C74.75 65.25 76 65.125 77.25 65C77.875 64.875 78.5 64.875 79.125 64.875C79.75 64.875 80.25 64.75 80.75 64.75C80.875 64.75 81 64.75 81.125 64.75C81.25 64.75 81.375 64.75 81.5 64.75C81.75 64.75 82 64.75 82.375 64.75C82.875 64.75 83.375 64.75 84 64.625C84.5 64.625 85 64.625 85.625 64.625C86.125 64.625 86.75 64.625 87.25 64.625C87.875 64.625 88.5 64.625 89.25 64.625C90 64.625 90.625 64.625 91.375 64.625C92.125 64.625 92.875 64.625 93.5 64.625C93.875 64.625 94.25 64.625 94.5 64.625C94.875 64.625 95.125 64.625 95.375 64.625C95.875 64.625 97 64.75 97.5 64.75C98 64.75 97.125 64.625 95.5 64.625C95.25 64.625 95 64.625 94.75 64.625C94.625 64.625 94.5 64.625 94.375 64.625C94.25 64.625 94.125 64.625 93.875 64.625C93.25 64.625 92.625 64.625 91.875 64.625C91.5 64.625 91.125 64.625 90.75 64.625C90.375 64.625 90 64.625 89.625 64.625C89.25 64.625 88.875 64.625 88.5 64.625C88.125 64.625 87.75 64.625 87.25 64.625C86.75 64.625 86.125 64.625 85.5 64.625C84.875 64.625 84.375 64.625 83.75 64.625C83.125 64.625 82.625 64.625 82 64.75C81.5 64.75 80.875 64.75 80.375 64.875C79.625 65 78.75 65 77.75 65.125C76.75 65.25 75.875 65.375 74.875 65.5C74.625 65.5 74.375 65.5 74.25 65.625C74 65.625 73.875 65.625 73.625 65.75C73.25 65.75 72.875 65.875 72.5 65.875C71.875 66 71.375 66 71.125 66C71.125 65.625 71.875 65.625 73.75 65.375Z" fill="white"/>
<path fill-rule="evenodd" clip-rule="evenodd" d="M69.3752 68.875C69.6252 68.75 69.8752 68.75 70.2502 68.625C70.3752 68.625 70.5002 68.5 70.7502 68.5C70.8752 68.5 71.1252 68.375 71.2502 68.375C71.8752 68.25 72.6252 68 73.3752 67.875C73.5002 67.875 73.7502 67.75 73.8752 67.75C74.0002 67.75 74.0002 67.75 74.1252 67.75C74.2502 67.75 74.2502 67.75 74.3752 67.75C74.7502 67.625 75.1252 67.625 75.3752 67.5C76.0002 67.375 76.6252 67.25 77.2502 67.125C77.3752 67.125 77.6252 67.125 77.7502 67C77.8752 67 78.1252 67 78.2502 66.875C78.5002 66.875 78.8752 66.75 79.1252 66.75C79.7502 66.625 80.2502 66.625 80.8752 66.5C81.5002 66.375 82.0002 66.375 82.6252 66.25C83.2502 66.25 83.8752 66.125 84.5002 66.125C85.1252 66 85.8752 66 86.7502 66C87.1252 66 87.5002 66 88.0002 65.875C88.2502 65.875 88.3752 65.875 88.6252 65.875H88.8752H89.1252C90.0002 65.875 90.7502 65.875 91.6252 65.875C92.0002 65.875 92.3752 65.875 92.7502 65.875C93.1252 65.875 93.5002 65.875 93.7502 65.875C94.2502 65.875 95.6252 65.875 96.1252 65.875C96.6252 65.875 95.7502 65.75 93.8752 65.75C93.6252 65.75 93.3752 65.75 93.0002 65.75C92.8752 65.75 92.7502 65.75 92.5002 65.75C92.3752 65.75 92.1252 65.75 92.0002 65.75C91.2502 65.75 90.5002 65.75 89.7502 65.75C89.5002 65.75 89.3752 65.75 89.1252 65.75H88.8752C88.7502 65.75 88.6252 65.75 88.6252 65.75C88.2502 65.75 87.7502 65.75 87.3752 65.875C87.0002 65.875 86.5002 65.875 86.1252 66C85.6252 66 85.2502 66 84.7502 66.125C84.1252 66.125 83.5002 66.25 82.8752 66.25C82.2502 66.375 81.6252 66.375 80.8752 66.5C80.2502 66.625 79.6252 66.625 79.0002 66.75C78.3752 66.875 77.7502 66.875 77.2502 67C76.3752 67.125 75.3752 67.375 74.3752 67.5C73.3752 67.75 72.2502 68 71.2502 68.25C71.0002 68.25 70.7502 68.375 70.5002 68.375C70.2502 68.5 70.0002 68.5 69.8752 68.625C69.3752 68.75 69.0002 68.875 68.6252 69C67.8752 69.25 67.3752 69.375 67.1252 69.375C66.5002 69.625 67.2502 69.5 69.3752 68.875Z" fill="white"/>
<path fill-rule="evenodd" clip-rule="evenodd" d="M78.8758 70.875C79.6258 70.625 80.6258 70.375 81.6258 70C82.1258 69.875 82.6258 69.75 83.1258 69.625C83.6258 69.5 84.0008 69.375 84.3758 69.25C84.5008 69.25 84.6258 69.25 84.7508 69.125C84.8758 69.125 85.0008 69.125 85.1258 69C85.3758 69 85.5008 68.875 85.7508 68.875C86.1258 68.75 86.6258 68.75 87.0008 68.625C87.3758 68.5 87.8758 68.5 88.2508 68.375C88.6258 68.25 89.1258 68.25 89.6258 68.125C90.1258 68 90.6258 68 91.1258 67.875C91.3758 67.875 91.7508 67.75 92.0008 67.75C92.1258 67.75 92.2508 67.75 92.5008 67.625C92.6258 67.625 92.7508 67.625 93.0008 67.625C93.6258 67.5 94.1258 67.5 94.7508 67.375C95.0008 67.375 95.2508 67.25 95.6258 67.25C95.8758 67.25 96.1258 67.25 96.3758 67.25C96.7508 67.25 97.6258 67.125 98.0008 67.125C98.3758 67.125 97.7508 67.125 96.3758 67.125C96.1258 67.125 96.0008 67.125 95.7508 67.125C95.6258 67.125 95.5008 67.125 95.3758 67.125C95.2508 67.125 95.1258 67.125 95.0008 67.125C94.5008 67.125 94.0008 67.25 93.3758 67.25C93.1258 67.25 92.7508 67.25 92.5008 67.375C92.2508 67.375 91.8758 67.5 91.6258 67.5C91.3758 67.5 91.0008 67.625 90.7508 67.625C90.3758 67.625 90.1258 67.75 89.7508 67.75C89.2508 67.875 88.8758 67.875 88.3758 68C87.8758 68.125 87.5008 68.125 87.0008 68.25C86.5008 68.375 86.1258 68.5 85.6258 68.5C85.1258 68.625 84.7508 68.625 84.3758 68.75C83.7508 68.875 83.0008 69.125 82.2508 69.25C81.5008 69.5 80.7508 69.75 80.0008 69.875C79.8758 69.875 79.6258 70 79.5008 70C79.3758 70 79.1258 70.125 79.0008 70.125C78.7508 70.25 78.3758 70.375 78.1258 70.375C77.6258 70.5 77.2508 70.625 77.1258 70.75C76.7508 71.5 77.3758 71.375 78.8758 70.875Z" fill="white"/>
<path fill-rule="evenodd" clip-rule="evenodd" d="M76.5001 76.7502C77.2501 76.2502 78.3751 75.7502 79.5001 75.2502C80.0001 75.0002 80.6251 74.7502 81.1251 74.5002C81.6251 74.2502 82.1251 74.0002 82.5001 73.8752C82.6251 73.8752 82.7501 73.7502 82.8751 73.7502C83.0001 73.7502 83.1251 73.6252 83.2501 73.6252C83.5001 73.5002 83.7501 73.3752 84.0001 73.3752C84.5001 73.1252 84.8751 73.0002 85.3751 72.7502C85.8751 72.5002 86.2501 72.3752 86.7501 72.2502C87.2501 72.1252 87.7501 71.8752 88.2501 71.6252C88.7501 71.3752 89.3751 71.2502 90.0001 71.0002C90.6251 70.7502 91.2501 70.5002 91.8751 70.2502C92.5001 70.0002 93.1251 69.7502 93.7501 69.6252C94.0001 69.5002 94.3751 69.3752 94.6251 69.3752C94.8751 69.2502 95.2501 69.2502 95.5001 69.1252C95.8751 69.0002 97.0001 68.6252 97.3751 68.5002C97.8751 68.3752 97.0001 68.5002 95.5001 69.0002C95.2501 69.0002 95.0001 69.1252 94.8751 69.2502C94.7501 69.2502 94.6251 69.3752 94.5001 69.3752C94.3751 69.3752 94.2501 69.5002 94.1251 69.5002C93.6251 69.6252 93.0001 69.8752 92.3751 70.1252C92.0001 70.2502 91.7501 70.3752 91.3751 70.5002C91.0001 70.6252 90.7501 70.7502 90.3751 70.8752C90.0001 71.0002 89.7501 71.1252 89.3751 71.2502C89.0001 71.3752 88.6251 71.5002 88.2501 71.6252C87.7501 71.8752 87.2501 72.0002 86.7501 72.2502C86.2501 72.5002 85.7501 72.6252 85.2501 72.8752C84.7501 73.1252 84.2501 73.2502 83.7501 73.5002C83.2501 73.7502 82.7501 73.8752 82.3751 74.1252C81.7501 74.3752 80.8751 74.7502 80.1251 75.1252C79.3751 75.5002 78.5001 76.0002 77.7501 76.3752C77.5001 76.5002 77.3751 76.6252 77.2501 76.6252C77.1251 76.7502 76.8751 76.8752 76.7501 76.8752C76.3751 77.0002 76.1251 77.2502 75.8751 77.3752C75.3751 77.6252 74.8751 77.8752 74.7501 78.0002C74.2501 77.8752 74.8751 77.6252 76.5001 76.7502Z" fill="white"/>
</svg>
