<svg width="150" height="150" viewBox="0 0 150 150" fill="none" xmlns="http://www.w3.org/2000/svg">
<path d="M23.1908 73.165C23.1908 73.165 24.9079 84.6716 25.4013 88.1848C25.875 91.6979 26.7829 99.494 26.9408 101.882C27.0987 104.053 27.6908 112.244 27.6908 112.244C26.4079 112.126 25.2434 112.362 24.4145 113.112C23.0526 114.356 22.8355 115.303 22.6974 116.487C22.6579 116.843 22.9145 117.139 23.2697 117.158C24.8289 117.257 28.5987 117.158 28.5987 117.158C28.5987 117.158 30.4145 117.237 30.6908 116.902C30.9868 116.566 32.8618 98.5269 33.2961 94.915C33.7105 91.5992 35.2697 82.1058 35.2697 82.1058L23.1908 73.165Z" fill="#DA803B"/>
<path d="M29.5662 101.744C29.3688 102.021 29.3096 102.376 29.2702 102.711C29.2504 102.929 29.2702 103.165 29.4083 103.323C29.5465 103.461 29.7636 103.481 29.9609 103.461C30.1978 103.442 30.4149 103.402 30.6517 103.343C30.8096 103.304 30.9478 103.244 31.0859 103.165C31.382 102.988 31.5399 102.613 31.5004 102.277C31.4609 101.942 31.2241 101.626 30.8886 101.508C30.4149 101.31 29.9412 101.211 29.5662 101.744Z" fill="#231F20"/>
<path d="M27.7107 82.8362C27.5134 82.2638 26.8818 81.9677 26.3094 82.1059C25.8357 82.2243 25.1252 82.6585 25.1449 83.2112C25.1647 83.4283 25.2831 83.6454 25.4607 83.7835C25.5791 83.8625 25.6976 83.902 25.8357 83.9414C26.3489 84.0796 26.9015 84.0006 27.3752 83.7638C27.4541 83.7243 27.5331 83.6651 27.5923 83.6059C27.7699 83.3888 27.7897 83.0927 27.7107 82.8362Z" fill="#231F20"/>
<path d="M28.8153 89.4675C28.6969 89.1319 28.3219 88.9543 27.9864 89.0332C27.6903 89.0925 27.2759 89.3688 27.2956 89.6846C27.2956 89.8227 27.3745 89.9411 27.4732 90.0201C27.5324 90.0596 27.6114 90.099 27.6903 90.1188C27.9864 90.1977 28.3219 90.1582 28.5982 90.0003C28.6377 89.9806 28.6969 89.9411 28.7364 89.9017C28.8351 89.803 28.8548 89.6253 28.8153 89.4675Z" fill="#231F20"/>
<path d="M31.5991 92.5266C31.678 92.3292 31.6583 92.1121 31.5596 91.9345C31.5201 91.8753 31.4806 91.8358 31.4214 91.7963C31.3227 91.7371 31.2043 91.7568 31.0859 91.7766C30.8688 91.816 30.6517 91.895 30.5135 92.0529C30.3754 92.2108 30.3162 92.4674 30.4346 92.645C30.7109 93.02 31.4214 92.941 31.5991 92.5266Z" fill="#231F20"/>
<path d="M29.3285 96.7304C29.3483 96.7502 29.3877 96.7699 29.4075 96.7699C29.5259 96.8094 29.6838 96.7897 29.8022 96.7699C29.8812 96.7502 29.9601 96.7107 29.9996 96.6515C30.0193 96.612 30.0391 96.5528 30.0391 96.5133C30.0391 96.4541 30.0193 96.3752 29.9799 96.3357C29.9404 96.2962 29.8614 96.2765 29.8022 96.2568C29.6838 96.237 29.5654 96.2568 29.4667 96.2962C29.368 96.3554 29.2891 96.4541 29.2891 96.5726C29.2891 96.612 29.2891 96.6515 29.3088 96.6712C29.2891 96.7107 29.3088 96.7107 29.3285 96.7304Z" fill="#231F20"/>
<path d="M30.8489 86.9414C30.8884 86.9809 30.9476 87.0006 31.0068 87.0204C31.2436 87.0993 31.5397 87.0796 31.7963 87.0401C31.9542 87.0006 32.112 86.9414 32.2107 86.8033C32.2699 86.7243 32.2897 86.6256 32.2897 86.527C32.2897 86.3888 32.2502 86.2506 32.1515 86.152C32.0528 86.0533 31.9147 86.0138 31.7765 85.9941C31.5397 85.9546 31.3028 85.9743 31.1055 86.0927C30.9081 86.2112 30.7502 86.4085 30.7305 86.6454C30.7305 86.7243 30.7305 86.8033 30.7699 86.8625C30.7897 86.902 30.8094 86.9217 30.8489 86.9414Z" fill="#231F20"/>
<path d="M29.9008 107.685C29.9205 107.704 29.96 107.724 29.9797 107.724C30.0982 107.763 30.2561 107.744 30.3745 107.724C30.4534 107.704 30.5324 107.665 30.5719 107.606C30.5916 107.566 30.6113 107.507 30.6113 107.467C30.6113 107.408 30.5916 107.329 30.5521 107.29C30.5126 107.25 30.4337 107.231 30.3745 107.211C30.2561 107.191 30.1376 107.211 30.039 107.25C29.9403 107.31 29.8613 107.408 29.8613 107.527C29.8613 107.566 29.8613 107.606 29.8811 107.625C29.8613 107.665 29.8811 107.685 29.9008 107.685Z" fill="#231F20"/>
<path d="M26.27 117.158C26.27 117.158 25.8556 115.934 27.099 114.632C27.099 114.632 25.7569 115.244 25.6582 117.138L26.27 117.158Z" fill="#1B1C1E"/>
<path d="M23.4863 117.139C23.4863 117.139 23.5653 115.027 25.1442 114.514C25.1442 114.514 23.9995 115.264 23.9205 117.178L23.4863 117.139Z" fill="#1B1C1E"/>
<path d="M97.2043 65.3691C97.2043 65.3691 98.3687 73.2836 96.8293 78.0205C95.645 81.6718 92.2108 85.2047 92.1319 86.7441C91.9543 90.277 94.6779 101.113 94.5595 103.205C94.4608 105.06 89.0135 114.198 88.5398 116.744C88.4806 117.04 88.2437 117.238 87.9477 117.238L80.9806 117.218C80.6253 117.218 80.3293 116.902 80.3885 116.547C80.4871 115.659 81.3161 114.711 81.8687 114.099C82.6582 113.211 85.1056 113.428 85.224 113.31C85.52 113.014 88.6779 105.001 88.6187 103.501C88.5793 102.514 81.5924 94.106 80.2503 90.7902C78.6714 86.8823 77.7832 73.777 77.7832 69.8889L97.2043 65.3691Z" fill="#D77C36"/>
<path d="M83.823 117.257C83.823 117.257 83.3493 116.053 84.5335 114.691C84.5335 114.691 83.2111 115.362 83.1914 117.257H83.823Z" fill="#1B1C1E"/>
<path d="M81.2761 117.238C81.2761 117.238 81.1971 115.126 82.7169 114.494C82.7169 114.494 81.6314 115.343 81.7103 117.257L81.2761 117.238Z" fill="#1B1C1E"/>
<path d="M86.0327 93.3367C86.1709 93.3762 86.309 93.4157 86.4472 93.4157C86.9406 93.4552 87.7104 93.2775 87.6709 92.6262C87.6511 92.4288 87.5525 92.2315 87.3946 92.1131C87.2564 92.0144 87.0788 91.9749 86.9011 91.9552C86.6446 91.9354 86.3682 91.9354 86.1117 91.9946C85.934 92.0341 85.7367 92.0933 85.5985 92.2315C85.4011 92.4486 85.4406 92.8236 85.638 93.0604C85.7564 93.1788 85.8946 93.2775 86.0327 93.3367Z" fill="#231F20"/>
<path d="M90.3949 108.139C90.4147 108.158 90.4542 108.178 90.4739 108.178C90.5923 108.218 90.7502 108.198 90.8686 108.178C90.9476 108.158 91.0265 108.119 91.066 108.06C91.0857 108.02 91.1055 107.961 91.1055 107.922C91.1055 107.862 91.0857 107.783 91.0463 107.744C91.0068 107.704 90.9278 107.685 90.8686 107.665C90.7502 107.645 90.6318 107.665 90.5331 107.704C90.4344 107.764 90.3555 107.862 90.3555 107.981C90.3555 108.02 90.3555 108.06 90.3752 108.079C90.3752 108.119 90.3752 108.119 90.3949 108.139Z" fill="#231F20"/>
<path d="M93.4547 99.0398C93.4349 99.0201 93.3955 99.0003 93.3757 99.0003C93.2573 98.9609 93.0994 98.9806 92.981 99.0003C92.902 99.0201 92.8231 99.0595 92.7836 99.1188C92.7639 99.1582 92.7441 99.2174 92.7441 99.2569C92.7441 99.3161 92.7639 99.3951 92.8034 99.4345C92.8428 99.474 92.9218 99.4938 92.981 99.5135C93.0994 99.5332 93.2178 99.5135 93.3165 99.474C93.4152 99.4148 93.4941 99.3161 93.4941 99.1977C93.4941 99.1582 93.4941 99.1188 93.4744 99.099C93.4941 99.0595 93.4744 99.0398 93.4547 99.0398Z" fill="#231F20"/>
<path d="M87.7301 97.1062C87.7103 97.0865 87.6708 97.0667 87.6511 97.0667C87.5327 97.0273 87.3748 97.047 87.2564 97.0667C87.1774 97.0865 87.0985 97.1259 87.059 97.1852C87.0393 97.2246 87.0195 97.2838 87.0195 97.3233C87.0195 97.3825 87.0393 97.4615 87.0787 97.5009C87.1182 97.5404 87.1972 97.5602 87.2564 97.5799C87.3748 97.5996 87.4932 97.5799 87.5919 97.5404C87.6906 97.4812 87.7695 97.3825 87.7695 97.2641C87.7695 97.2246 87.7695 97.1852 87.7498 97.1654C87.7498 97.1259 87.7498 97.1062 87.7301 97.1062Z" fill="#231F20"/>
<path d="M90.5336 104.922C90.6125 104.902 90.6718 104.902 90.731 104.882C90.9086 104.823 91.0862 104.705 91.1652 104.527C91.2836 104.27 91.1652 103.974 90.9481 103.797C90.731 103.619 90.4546 103.58 90.1783 103.599C89.9612 103.619 89.7441 103.678 89.5468 103.797C89.3691 103.915 89.231 104.113 89.1915 104.33C89.1718 104.428 89.1718 104.527 89.231 104.626C89.3099 104.784 89.4678 104.863 89.6257 104.902C89.9218 104.961 90.2573 104.981 90.5336 104.922Z" fill="#231F20"/>
<path d="M80.8234 87.257C80.5865 87.2965 80.3299 87.3952 80.1918 87.5531C79.8562 87.9478 80.0536 88.382 80.5076 88.5597C80.7444 88.6584 81.0602 88.6978 81.297 88.5794C81.4944 88.4807 81.6523 88.3228 81.7115 88.1057C81.7905 87.9084 81.7707 87.6518 81.6326 87.4939C81.5141 87.336 81.3168 87.257 81.0997 87.2373C81.0405 87.2373 80.9418 87.2373 80.8234 87.257Z" fill="#231F20"/>
<path d="M81.9677 79.9745C81.6322 80.2311 81.4151 80.6456 81.4348 81.0798C81.4348 81.218 81.4743 81.3561 81.5335 81.4745C81.6519 81.6719 81.8888 81.7903 82.1059 81.8693C82.5204 82.0272 82.994 82.1061 83.4085 81.968C83.823 81.8298 84.1783 81.4153 84.1388 80.9811C84.0401 80.014 82.698 79.4416 81.9677 79.9745Z" fill="#231F20"/>
<path d="M115.678 77.9407C108.454 77.9407 103.342 75.2763 100.066 72.6513C95.3486 68.8815 93.3552 64.4802 93.2763 64.3026C92.9408 63.5526 93.2763 62.6644 94.046 62.3289C94.796 61.9934 95.6842 62.3289 96.0197 63.0986C96.0592 63.1776 97.8552 67.1249 102.039 70.4013C107.605 74.7828 114.612 76.0263 122.822 74.0723C129.474 72.4934 133.579 69.8684 135.02 66.296C136.816 61.8947 133.914 57.2763 133.895 57.217C133.46 56.5263 133.658 55.5986 134.349 55.1644C135.039 54.7302 135.967 54.9276 136.401 55.6184C136.559 55.8552 140.151 61.5394 137.803 67.4013C135.967 71.9407 131.171 75.1776 123.513 76.9934C120.651 77.6644 118.046 77.9407 115.678 77.9407Z" fill="#F2903D"/>
<mask id="mask0_846_26961" style="mask-type:luminance" maskUnits="userSpaceOnUse" x="93" y="54" width="46" height="24">
<path d="M115.678 77.9407C108.454 77.9407 103.342 75.2763 100.066 72.6513C95.3486 68.8815 93.3552 64.4802 93.2763 64.3026C92.9408 63.5526 93.2763 62.6644 94.046 62.3289C94.796 61.9934 95.6842 62.3289 96.0197 63.0986C96.0592 63.1776 97.8552 67.1249 102.039 70.4013C107.605 74.7828 114.612 76.0263 122.822 74.0723C129.474 72.4934 133.579 69.8684 135.02 66.296C136.816 61.8947 133.914 57.2763 133.895 57.217C133.46 56.5263 133.658 55.5986 134.349 55.1644C135.039 54.7302 135.967 54.9276 136.401 55.6184C136.559 55.8552 140.151 61.5394 137.803 67.4013C135.967 71.9407 131.171 75.1776 123.513 76.9934C120.651 77.6644 118.046 77.9407 115.678 77.9407Z" fill="white"/>
</mask>
<g mask="url(#mask0_846_26961)">
<path d="M128.269 71.7632C128.249 71.8027 128.21 71.8224 128.19 71.8619C127.795 72.5132 128.467 73.204 129.098 73.3224C129.67 73.4211 130.322 73.2632 130.776 72.908C131.309 72.4738 131.21 71.7435 130.598 71.4277C129.907 71.0527 128.782 71.0922 128.269 71.7632Z" fill="#231F20"/>
<path d="M123.04 75.9475C122.942 76.1646 122.942 76.4607 123.06 76.6975C123.297 77.1712 123.889 77.3883 124.383 77.2896C124.698 77.2304 124.975 76.9738 125.034 76.6581C125.172 75.7502 123.475 75.0396 123.04 75.9475Z" fill="#231F20"/>
<path d="M114.454 73.4209C114.217 73.4998 114.02 73.5985 113.842 73.7564C113.566 74.013 113.428 74.4077 113.428 74.8025C113.428 75.1775 113.526 75.5722 113.803 75.8485C114.138 76.2038 114.671 76.3025 115.145 76.3222C115.717 76.342 116.329 76.2827 116.842 75.9867C117.533 75.592 118.105 74.5459 117.375 73.9143C117.197 73.7564 116.961 73.6577 116.724 73.5788C116.092 73.342 115.165 73.2038 114.454 73.4209Z" fill="#231F20"/>
<path d="M102.553 75.1188C102.691 75.4938 103.145 75.6714 103.54 75.7306C104.211 75.8491 104.902 75.8491 105.553 75.632C106.836 75.1977 105.671 73.678 104.823 73.4806C104.033 73.303 102.198 74.1122 102.553 75.1188Z" fill="#231F20"/>
<path d="M138.001 56.6052C138.179 56.3486 138.317 56.0723 138.376 55.8157C136.837 54.9078 134.883 54.4342 133.146 54.0986C132.909 54.3157 132.751 54.5921 132.732 54.8881C132.672 55.4407 133.008 55.8947 133.225 56.3684C133.442 56.8223 133.422 57.3749 133.778 57.7697C134.093 58.1249 134.587 58.2434 135.06 58.2631C135.81 58.2828 136.541 58.0065 137.133 57.5526C137.409 57.3157 137.745 56.9802 138.001 56.6052Z" fill="#231F20"/>
<path d="M137.962 63.4342C137.902 63.4736 137.843 63.5131 137.804 63.5723C137.725 63.671 137.705 63.8092 137.705 63.9276C137.725 64.2039 138.001 64.3618 138.258 64.4013C138.573 64.4408 138.889 64.3618 139.166 64.2039C139.304 64.125 139.442 64.0065 139.56 63.8684C139.6 63.8289 139.62 63.7894 139.639 63.7302C139.659 63.671 139.659 63.5921 139.639 63.5329C139.6 63.4342 139.541 63.3552 139.462 63.296C139.284 63.1776 139.027 63.1973 138.83 63.2171C138.514 63.2565 138.198 63.296 137.962 63.4342Z" fill="#231F20"/>
</g>
<path d="M96.0379 62.7439C93.0971 58.5203 85.8932 55.9545 78.1169 56.8229C67.4787 57.9874 61.8537 59.586 53.1892 59.2505C49.8735 59.1321 47.6037 58.086 43.1432 56.8624C40.6564 56.1913 37.6958 54.4545 34.9524 53.9018C31.5774 53.211 28.9919 53.961 26.8603 53.4281C24.709 52.8953 22.5379 52.2637 22.5379 52.2637L20.584 61.3426C22.6169 63.0795 21.2156 66.5926 21.6892 68.9808C21.8866 70.165 22.7353 71.7045 23.1892 72.6716C25.2616 77.1124 26.8208 78.2374 31.8537 79.6189C36.9656 81.0202 52.1235 84.336 62.209 81.8492C67.8735 80.4479 70.6366 79.9545 73.5774 78.4545C75.4524 77.5071 84.5906 76.0268 86.13 74.2703C87.0182 73.2637 87.3142 73.4018 88.3208 72.1387C92.9985 66.2176 99.9656 68.4084 96.0379 62.7439Z" fill="#F2903D"/>
<path d="M88.5779 74.4876C87.6503 74.1718 86.9595 74.4481 86.0911 74.4086C85.2029 74.3494 84.4529 73.6783 83.5253 73.6981C82.6766 73.7178 81.9661 74.3099 81.2161 74.7047C79.4792 75.5928 77.3674 75.4152 75.5516 76.0862C74.92 76.3231 74.3279 76.6586 73.7161 76.9744C72.1174 77.8033 70.4595 78.4941 68.7424 79.027C67.1042 79.5402 65.3082 79.6586 63.7884 80.4481C61.0845 81.8889 57.8674 82.3231 54.8674 81.6718C54.0779 81.4941 53.3082 81.2573 52.499 81.2968C51.5713 81.356 50.7029 81.7902 49.795 82.027C48.4332 82.3626 47.0121 82.2047 45.6108 82.0665C42.0977 81.6718 38.9003 80.7836 35.5845 79.6783C32.6437 78.6915 30.6306 76.1257 28.2424 74.2704C26.9003 73.2244 25.3411 72.2573 24.5516 70.7573C24.2161 70.106 23.999 69.3954 23.8213 68.6849C23.6437 67.9547 23.4661 67.2639 23.2884 66.5336C22.874 64.9547 23.1108 63.277 22.9134 61.6586C22.7358 60.2178 22.2029 58.8362 21.374 57.652C21.0977 57.2573 20.7819 56.8823 20.3871 56.6257C20.0121 56.3889 18.9463 55.9547 18.749 56.6257C18.5911 57.0994 17.6832 57.4547 17.3279 57.8099C17.2292 57.9086 16.5977 57.6323 16.5977 57.6126C17.7029 57.8297 19.0056 58.9349 19.4003 60.6718C19.7556 62.2704 19.3608 63.9283 19.874 66.1981C20.4858 68.902 21.8477 71.2507 22.1634 71.9612C23.0516 73.8757 24.3937 75.652 25.9727 77.0928C27.6503 78.6126 29.0713 79.9941 31.4792 81.0994C33.8871 82.2047 36.67 83.7836 42.2161 84.4547C45.3937 84.8494 50.3871 84.8691 52.6371 84.7902C58.6371 84.6126 67.2819 81.7902 72.5319 78.9283C74.0319 78.1389 86.4858 75.8297 88.5779 74.4876Z" fill="#FFD5BA"/>
<path d="M42.0004 60.1386C42.0201 60.1583 42.0399 60.1583 42.0596 60.178C42.632 60.4346 43.2833 60.553 43.9346 60.4938C44.132 60.4741 44.3688 60.4346 44.507 60.2767C44.6846 60.0596 44.6056 59.7241 44.428 59.507C44.053 58.9938 43.2635 58.7965 42.6517 58.8359C42.0399 58.8952 41.0925 59.6452 42.0004 60.1386Z" fill="#231F20"/>
<path d="M27.3561 60.5137C27.3758 60.5137 27.3955 60.5137 27.4153 60.5137C28.0469 60.5729 28.6982 60.4743 29.2903 60.2177C29.4876 60.1387 29.685 60.0203 29.764 59.8427C29.8626 59.5861 29.685 59.29 29.4482 59.1322C28.9153 58.7769 28.1258 58.8164 27.5534 59.0729C26.9811 59.3295 26.3297 60.3361 27.3561 60.5137Z" fill="#231F20"/>
<path d="M41.3477 71.783C41.3674 71.783 41.3674 71.783 41.3871 71.783C41.7621 71.8422 42.1371 71.783 42.4924 71.6645C42.6108 71.6251 42.7292 71.5659 42.7687 71.4474C42.8279 71.2895 42.7292 71.1316 42.6108 71.0132C42.3148 70.7961 41.8411 70.7961 41.5056 70.9343C41.17 71.0922 40.7556 71.6645 41.3477 71.783Z" fill="#231F20"/>
<path d="M65.8022 65.9412C65.9404 65.9807 66.0786 66.0202 66.2167 66.0202C66.7101 66.0597 67.4799 65.882 67.4404 65.2307C67.4207 65.0333 67.322 64.836 67.1641 64.7176C67.0259 64.6189 66.8483 64.5794 66.6707 64.5597C66.4141 64.5399 66.1378 64.5399 65.8812 64.5991C65.7036 64.6386 65.5062 64.6978 65.368 64.836C65.1707 65.0531 65.2101 65.4281 65.4075 65.6649C65.5259 65.8031 65.6641 65.882 65.8022 65.9412Z" fill="#231F20"/>
<path d="M53.6833 59.2695C53.6241 59.3485 53.5846 59.4274 53.5648 59.5064C53.5254 59.7037 53.6043 59.9208 53.7425 60.0787C53.8806 60.2366 54.078 60.3353 54.2754 60.4143C54.8872 60.6511 56.2491 60.7301 56.4464 59.8814C56.4662 59.8024 56.4662 59.7235 56.4464 59.6445C56.4267 59.5261 56.3675 59.4077 56.2885 59.309C55.4398 59.2893 54.5714 59.2893 53.6833 59.2695Z" fill="#231F20"/>
<path d="M61.4018 73.4605C60.8689 73.5395 60.3557 73.9737 59.9807 74.2697C59.7636 74.4276 59.5662 74.625 59.4675 74.8618C59.3689 75.1184 59.4281 75.4342 59.6649 75.5724C59.7636 75.6316 59.882 75.6513 59.9807 75.6513C60.4149 75.6908 60.8689 75.5921 61.2833 75.4539C61.5597 75.3553 61.836 75.2368 62.0531 75.0395C62.2702 74.8421 62.4478 74.5658 62.4281 74.2697C62.4281 74.0132 62.2899 73.7763 62.0925 73.6184C61.8754 73.4605 61.6386 73.4211 61.4018 73.4605Z" fill="#231F20"/>
<path d="M49.2427 82.5791C49.6572 82.6186 50.1506 82.4015 50.5059 82.2634C50.7032 82.1844 50.9006 82.0857 51.019 81.9081C51.1374 81.7305 51.1572 81.4739 51.019 81.316C50.9598 81.2568 50.8809 81.2173 50.8019 81.1778C50.4664 81.0594 50.1111 81.0397 49.7559 81.0594C49.519 81.0791 49.2822 81.0989 49.0651 81.2173C48.848 81.316 48.6703 81.4936 48.6111 81.7305C48.5519 81.9278 48.6111 82.1449 48.7295 82.3028C48.8874 82.4805 49.0651 82.5594 49.2427 82.5791Z" fill="#231F20"/>
<path d="M34.0065 69.2959C34.5986 69.4933 35.2499 69.5327 35.842 69.3749C36.0394 69.3354 36.2565 69.2564 36.3946 69.0985C36.5525 68.9406 36.6315 68.7038 36.6315 68.467C36.6315 68.2104 36.5525 67.9538 36.3749 67.7959C36.2367 67.6577 36.0394 67.5788 35.842 67.5393C35.467 67.4604 35.092 67.4999 34.717 67.5591C34.4209 67.5985 34.1249 67.638 33.8683 67.7762C33.4736 67.9735 33.0591 68.5262 33.3946 68.9604C33.5131 69.0985 33.6907 69.1972 33.8683 69.2564C33.9275 69.2762 33.967 69.2762 34.0065 69.2959Z" fill="#231F20"/>
<path d="M23.9399 64.1846C23.9596 64.2043 23.9991 64.224 24.0188 64.224C24.1372 64.2635 24.2951 64.2438 24.4135 64.224C24.4925 64.2043 24.5714 64.1648 24.6109 64.1056C24.6307 64.0661 24.6504 64.0069 24.6504 63.9674C24.6504 63.9082 24.6307 63.8293 24.5912 63.7898C24.5517 63.7503 24.4728 63.7306 24.4135 63.7109C24.2951 63.6911 24.1767 63.7109 24.078 63.7503C23.9793 63.8096 23.9004 63.9082 23.9004 64.0267C23.9004 64.0661 23.9004 64.1056 23.9201 64.1253C23.9201 64.1451 23.9201 64.1648 23.9399 64.1846Z" fill="#231F20"/>
<path d="M49.7367 61.4404C49.7565 61.4601 49.7959 61.4799 49.8157 61.4799C49.9341 61.5194 50.092 61.4996 50.2104 61.4799C50.2894 61.4601 50.3683 61.4207 50.4078 61.3615C50.4275 61.322 50.4473 61.2628 50.4473 61.2233C50.4473 61.1641 50.4275 61.0851 50.3881 61.0457C50.3486 61.0062 50.2696 60.9865 50.2104 60.9667C50.092 60.947 49.9736 60.9667 49.8749 61.0062C49.7762 61.0654 49.6973 61.1641 49.6973 61.2825C49.6973 61.322 49.6973 61.3615 49.717 61.3812C49.6973 61.4207 49.717 61.4404 49.7367 61.4404Z" fill="#231F20"/>
<path d="M61.7172 61.8359C61.7369 61.8557 61.7764 61.8754 61.7962 61.8754C61.9146 61.9149 62.0725 61.8951 62.1909 61.8754C62.2698 61.8557 62.3488 61.8162 62.3883 61.757C62.408 61.7175 62.4277 61.6583 62.4277 61.6188C62.4277 61.5596 62.408 61.4807 62.3685 61.4412C62.3291 61.4017 62.2501 61.382 62.1909 61.3622C62.0725 61.3425 61.954 61.3622 61.8554 61.4017C61.7567 61.4609 61.6777 61.5596 61.6777 61.678C61.6777 61.7175 61.6777 61.757 61.6975 61.7767C61.6777 61.8162 61.6975 61.8162 61.7172 61.8359Z" fill="#231F20"/>
<path d="M79.6977 63.9472C79.7174 63.967 79.7569 63.9867 79.7766 63.9867C79.895 64.0262 80.0529 64.0065 80.1714 63.9867C80.2503 63.967 80.3293 63.9275 80.3687 63.8683C80.3885 63.8288 80.4082 63.7696 80.4082 63.7301C80.4082 63.6709 80.3885 63.592 80.349 63.5525C80.3095 63.513 80.2306 63.4933 80.1714 63.4736C80.0529 63.4538 79.9345 63.4736 79.8358 63.513C79.7371 63.5722 79.6582 63.6709 79.6582 63.7894C79.6582 63.8288 79.6582 63.8683 79.6779 63.888C79.6779 63.9275 79.6977 63.9275 79.6977 63.9472Z" fill="#231F20"/>
<path d="M35.684 74.3096C35.7037 74.3293 35.7432 74.349 35.763 74.349C35.8814 74.3885 36.0393 74.3688 36.1577 74.349C36.2366 74.3293 36.3156 74.2898 36.3551 74.2306C36.3748 74.1911 36.3945 74.1319 36.3945 74.0924C36.3945 74.0332 36.3748 73.9543 36.3353 73.9148C36.2958 73.8753 36.2169 73.8556 36.1577 73.8359C36.0393 73.8161 35.9208 73.8359 35.8222 73.8753C35.7235 73.9346 35.6445 74.0332 35.6445 74.1517C35.6445 74.1911 35.6445 74.2306 35.6643 74.2503C35.6445 74.2898 35.6643 74.3096 35.684 74.3096Z" fill="#231F20"/>
<path d="M78.8676 64.914C78.8873 64.9338 78.9268 64.9535 78.9465 64.9535C79.065 64.993 79.2229 64.9733 79.3413 64.9535C79.4202 64.9338 79.4992 64.8943 79.5387 64.8351C79.5584 64.7956 79.5781 64.7364 79.5781 64.6969C79.5781 64.6377 79.5584 64.5588 79.5189 64.5193C79.4794 64.4798 79.4005 64.4601 79.3413 64.4404C79.2229 64.4206 79.1044 64.4404 79.0058 64.4798C78.9071 64.539 78.8281 64.6377 78.8281 64.7561C78.8281 64.7956 78.8281 64.8351 78.8479 64.8548C78.8479 64.8746 78.8479 64.8943 78.8676 64.914Z" fill="#231F20"/>
<path d="M76.6977 72.6318C76.7174 72.6516 76.7569 72.6713 76.7766 72.6713C76.895 72.7108 77.0529 72.691 77.1714 72.6713C77.2503 72.6516 77.3293 72.6121 77.3687 72.5529C77.3885 72.5134 77.4082 72.4542 77.4082 72.4147C77.4082 72.3555 77.3885 72.2766 77.349 72.2371C77.3095 72.1976 77.2306 72.1779 77.1714 72.1581C77.0529 72.1384 76.9345 72.1581 76.8358 72.1976C76.7371 72.2568 76.6582 72.3555 76.6582 72.4739C76.6582 72.5134 76.6582 72.5529 76.6779 72.5726C76.6779 72.6121 76.6977 72.6318 76.6977 72.6318Z" fill="#231F20"/>
<path d="M38.3676 57.4736C38.3873 57.4934 38.4268 57.5131 38.4465 57.5131C38.565 57.5526 38.7229 57.5328 38.8413 57.5131C38.9202 57.4934 38.9992 57.4539 39.0387 57.3947C39.0584 57.3552 39.0781 57.296 39.0781 57.2565C39.0781 57.1973 39.0584 57.1184 39.0189 57.0789C38.9794 57.0394 38.9005 57.0197 38.8413 56.9999C38.7229 56.9802 38.6044 56.9999 38.5058 57.0394C38.4071 57.0986 38.3281 57.1973 38.3281 57.3157C38.3281 57.3552 38.3281 57.3947 38.3479 57.4144C38.3479 57.4341 38.3676 57.4539 38.3676 57.4736Z" fill="#231F20"/>
<path d="M87.4926 62.5068C87.5123 62.5266 87.5518 62.5463 87.5715 62.5463C87.69 62.5858 87.8479 62.566 87.9663 62.5463C88.0452 62.5266 88.1242 62.4871 88.1637 62.4279C88.1834 62.3884 88.2031 62.3292 88.2031 62.2897C88.2031 62.2305 88.1834 62.1516 88.1439 62.1121C88.1044 62.0726 88.0255 62.0529 87.9663 62.0331C87.8479 62.0134 87.7294 62.0331 87.6308 62.0726C87.5321 62.1318 87.4531 62.2305 87.4531 62.3489C87.4531 62.3884 87.4531 62.4279 87.4729 62.4476C87.4729 62.4871 87.4729 62.5068 87.4926 62.5068Z" fill="#231F20"/>
<path d="M76.4203 60.2763C76.4401 60.2961 76.4795 60.3158 76.4993 60.3158C76.6177 60.3553 76.7756 60.3356 76.894 60.3158C76.973 60.2961 77.0519 60.2566 77.0914 60.1974C77.1111 60.1579 77.1309 60.0987 77.1309 60.0592C77.1309 60 77.1111 59.9211 77.0716 59.8816C77.0322 59.8421 76.9532 59.8224 76.894 59.8027C76.7756 59.7829 76.6572 59.8027 76.5585 59.8421C76.4598 59.9013 76.3809 60 76.3809 60.1185C76.3809 60.1579 76.3809 60.1974 76.4006 60.2171C76.4006 60.2566 76.4006 60.2763 76.4203 60.2763Z" fill="#231F20"/>
<path d="M47.5649 67.9346C47.5846 67.9543 47.6241 67.974 47.6438 67.974C47.7622 68.0135 47.9201 67.9938 48.0385 67.974C48.1175 67.9543 48.1964 67.9148 48.2359 67.8556C48.2557 67.8161 48.2754 67.7569 48.2754 67.7174C48.2754 67.6582 48.2557 67.5793 48.2162 67.5398C48.1767 67.5003 48.0978 67.4806 48.0385 67.4609C47.9201 67.4411 47.8017 67.4609 47.703 67.5003C47.6043 67.5596 47.5254 67.6582 47.5254 67.7767C47.5254 67.8161 47.5254 67.8556 47.5451 67.8753C47.5451 67.9148 47.5451 67.9346 47.5649 67.9346Z" fill="#231F20"/>
<path d="M38.6246 63.9275C38.6049 63.9078 38.5654 63.888 38.5456 63.888C38.4272 63.8486 38.2693 63.8683 38.1509 63.888C38.072 63.9078 37.993 63.9472 37.9535 64.0064C37.9338 64.0459 37.9141 64.1051 37.9141 64.1446C37.9141 64.2038 37.9338 64.2828 37.9733 64.3222C38.0127 64.3617 38.0917 64.3814 38.1509 64.4012C38.2693 64.4209 38.3877 64.4012 38.4864 64.3617C38.5851 64.3025 38.6641 64.2038 38.6641 64.0854C38.6641 64.0459 38.6641 64.0064 38.6443 63.9867C38.6641 63.9472 38.6443 63.9275 38.6246 63.9275Z" fill="#231F20"/>
<path d="M69.5133 62.4275C69.4935 62.4078 69.454 62.388 69.4343 62.388C69.3159 62.3486 69.158 62.3683 69.0396 62.388C68.9606 62.4078 68.8817 62.4472 68.8422 62.5064C68.8225 62.5459 68.8027 62.6051 68.8027 62.6446C68.8027 62.7038 68.8225 62.7828 68.8619 62.8222C68.9014 62.8617 68.9804 62.8814 69.0396 62.9012C69.158 62.9209 69.2764 62.9012 69.3751 62.8617C69.4738 62.8025 69.5527 62.7038 69.5527 62.5854C69.5527 62.5459 69.5527 62.5064 69.533 62.4867C69.533 62.4472 69.533 62.4275 69.5133 62.4275Z" fill="#231F20"/>
<path d="M33.8677 58.9735C33.8282 58.9538 33.7888 58.9341 33.7493 58.9143C33.5914 58.8551 33.394 58.8748 33.2164 58.9143C33.1177 58.9341 32.9993 58.9735 32.9401 59.0722C32.9006 59.1314 32.8809 59.1906 32.8809 59.2696C32.8809 59.3683 32.9006 59.4472 32.9795 59.5064C33.0388 59.5656 33.1374 59.6051 33.2361 59.6051C33.394 59.6248 33.5519 59.6051 33.6901 59.5459C33.8282 59.467 33.9269 59.3288 33.9466 59.1709C33.9466 59.1117 33.9466 59.0722 33.9269 59.0327C33.9072 59.013 33.8874 58.9933 33.8677 58.9735Z" fill="#231F20"/>
<path d="M26.9204 68.1903C26.881 68.1706 26.8415 68.1509 26.802 68.1311C26.6441 68.0719 26.4468 68.0916 26.2691 68.1311C26.1704 68.1509 26.052 68.1903 25.9928 68.289C25.9533 68.3482 25.9336 68.4074 25.9336 68.4864C25.9336 68.5851 25.9533 68.664 26.0323 68.7232C26.0915 68.7824 26.1902 68.8219 26.2889 68.8219C26.4468 68.8416 26.6046 68.8219 26.7428 68.7627C26.881 68.6838 26.9796 68.5456 26.9994 68.3877C26.9994 68.3285 26.9994 68.289 26.9796 68.2495C26.9599 68.2298 26.9402 68.2101 26.9204 68.1903Z" fill="#231F20"/>
<path d="M74.8034 64.1842C74.8428 64.1645 74.8626 64.1447 74.8823 64.125C75.0994 63.9276 75.2178 63.6316 75.2573 63.3553C75.2968 63.1382 75.277 62.9013 75.1389 62.7434C75.0402 62.625 74.9218 62.5658 74.7836 62.5066C74.3691 62.3289 73.8955 62.25 73.4415 62.25C73.2047 62.25 72.9876 62.2895 72.7705 62.3684C72.0007 62.7039 72.0994 63.6908 72.7112 64.125C73.1257 64.4013 73.6389 64.4605 74.1323 64.3816C74.3889 64.3618 74.606 64.3026 74.8034 64.1842Z" fill="#231F20"/>
<path d="M96.0398 62.7438C95.7635 62.3293 95.4279 61.9346 95.0529 61.5596C94.9345 61.5793 94.7964 61.6188 94.6977 61.6583C93.8687 62.0135 93.9674 63.099 94.6385 63.553C95.0727 63.849 95.645 63.9083 96.1779 63.8293C96.3358 63.8096 96.5135 63.7701 96.6516 63.7109C96.4937 63.4346 96.2964 63.099 96.0398 62.7438Z" fill="#231F20"/>
<path d="M74.4477 69.1776C74.5266 69.1578 74.5858 69.1578 74.645 69.1381C74.8227 69.0789 75.0003 68.9605 75.0792 68.7828C75.1977 68.5263 75.0792 68.2302 74.8621 68.0526C74.645 67.8749 74.3687 67.8355 74.0924 67.8552C73.8753 67.8749 73.6582 67.9342 73.4608 68.0526C73.2832 68.171 73.145 68.3684 73.1056 68.5855C73.0858 68.6842 73.0858 68.7828 73.145 68.8815C73.224 69.0394 73.3819 69.1184 73.5398 69.1578C73.8161 69.1973 74.1516 69.217 74.4477 69.1776Z" fill="#231F20"/>
<path d="M75.592 57.5721C75.9275 57.7102 76.2828 57.8484 76.6381 57.8879C76.9933 57.9273 77.3881 57.8681 77.6841 57.6313C77.9209 57.4339 78.0394 57.1378 77.9999 56.8418C76.8946 56.9602 75.8288 57.0984 74.8223 57.2168C75.0986 57.3747 75.4341 57.4931 75.592 57.5721Z" fill="#231F20"/>
<path d="M63.5322 66.4347C63.394 66.4544 63.2756 66.5136 63.1572 66.5728C62.94 66.711 62.7624 66.9873 62.8414 67.2439C62.9006 67.4215 63.0387 67.5597 63.2164 67.6386C63.7098 67.8557 64.6572 67.7965 64.8743 67.1649C64.9335 66.9873 64.894 66.7899 64.7953 66.6518C64.5979 66.3952 64.2427 66.3557 63.9269 66.3755C63.7887 66.4149 63.6506 66.4149 63.5322 66.4347Z" fill="#231F20"/>
<path d="M66.7296 66.9279C66.4928 66.9674 66.2362 67.0661 66.098 67.224C65.7625 67.6187 65.9599 68.0529 66.4138 68.2306C66.6507 68.3293 66.9664 68.3687 67.2033 68.2503C67.4007 68.1516 67.5585 67.9937 67.6178 67.7766C67.6967 67.5793 67.677 67.3227 67.5388 67.1648C67.4204 67.0069 67.223 66.9279 67.0059 66.9082C66.927 66.9082 66.8283 66.9082 66.7296 66.9279Z" fill="#231F20"/>
<path d="M48.1573 73.4406C47.9205 73.4801 47.6639 73.5788 47.5258 73.7367C47.1902 74.1314 47.3876 74.5656 47.8415 74.7433C48.0784 74.842 48.3942 74.8814 48.631 74.763C48.8284 74.6643 48.9863 74.5064 49.0455 74.2893C49.1244 74.0919 49.1047 73.8354 48.9665 73.6775C48.8481 73.5196 48.6508 73.4406 48.4336 73.4209C48.3744 73.4209 48.2758 73.4209 48.1573 73.4406Z" fill="#231F20"/>
<path d="M44.1111 65.4084C43.9137 64.8361 43.2822 64.54 42.7098 64.6782C42.2361 64.7966 41.5256 65.2308 41.5453 65.7834C41.5651 66.0005 41.6835 66.2176 41.8611 66.3558C41.9795 66.4347 42.098 66.4742 42.2361 66.5137C42.7493 66.6519 43.3019 66.5729 43.7756 66.3361C43.8545 66.2966 43.9335 66.2374 43.9927 66.1782C44.1703 65.9611 44.1901 65.665 44.1111 65.4084Z" fill="#231F20"/>
<path d="M30.7706 55.5593C30.6719 55.2632 30.3364 55.1053 30.0403 55.1843C29.7837 55.2435 29.4087 55.4803 29.4285 55.7567C29.4285 55.8751 29.4877 55.9935 29.5864 56.0527C29.6456 56.0922 29.7048 56.1119 29.7837 56.1317C30.0601 56.2106 30.3561 56.1711 30.593 56.033C30.6324 56.0132 30.6719 55.9935 30.7114 55.954C30.8101 55.8553 30.8298 55.6974 30.7706 55.5593Z" fill="#231F20"/>
<path d="M67.5789 58.875C67.5986 58.9539 67.6578 59.0329 67.717 59.0921C67.796 59.1513 67.8946 59.2105 67.9933 59.2303C68.9012 59.5855 70.0262 59.4868 70.8552 58.9737C71.3289 58.6776 71.2499 58.1053 70.8157 57.8092C70.796 57.7895 70.7565 57.7697 70.717 57.75C69.6907 57.8882 68.7039 58.0461 67.7368 58.1842C67.5986 58.3816 67.4999 58.6382 67.5789 58.875Z" fill="#231F20"/>
<path d="M53.7831 69.8091C53.191 69.9078 52.6779 70.1446 52.7371 70.717C52.7766 71.1314 53.2502 71.467 53.6252 71.5854C54.4542 71.842 55.7173 71.6051 56.2305 70.8157C56.4081 70.5196 56.3489 70.1643 56.0726 69.967C55.7963 69.7696 55.4608 69.7893 55.145 69.7696C54.8489 69.7499 54.2963 69.7301 53.7831 69.8091Z" fill="#231F20"/>
<path d="M31.3017 63.3945C30.9662 63.651 30.7491 64.0655 30.7688 64.4997C30.7688 64.6379 30.8083 64.776 30.8675 64.8945C30.9859 65.0918 31.2228 65.2103 31.4399 65.2892C31.8543 65.4471 32.328 65.526 32.7425 65.3879C33.157 65.2497 33.5122 64.8353 33.4728 64.401C33.3938 63.4339 32.0517 62.8616 31.3017 63.3945Z" fill="#231F20"/>
<path d="M51.1181 63.829C50.7826 64.0856 50.5655 64.5001 50.5852 64.9343C50.5852 65.0725 50.6247 65.2106 50.6839 65.329C50.8023 65.5264 51.0392 65.6448 51.2563 65.7238C51.6708 65.8817 52.1444 65.9606 52.5589 65.8225C52.9734 65.6843 53.3286 65.2698 53.2892 64.8356C53.1905 63.8685 51.8484 63.2961 51.1181 63.829Z" fill="#231F20"/>
<path d="M23.4077 62.2893C23.4866 62.0919 23.4669 61.8748 23.3682 61.6972C23.3287 61.638 23.2892 61.5985 23.23 61.559C23.1313 61.4998 23.0129 61.5195 22.8945 61.5393C22.6774 61.5787 22.4603 61.6577 22.3221 61.8156C22.184 61.9735 22.1248 62.2301 22.2432 62.4077C22.4998 62.7827 23.2103 62.7037 23.4077 62.2893Z" fill="#231F20"/>
<path d="M41.9995 75.0588C42.0784 74.8614 42.0587 74.6443 41.96 74.4667C41.9205 74.4075 41.881 74.368 41.8218 74.3285C41.7231 74.2693 41.6047 74.2891 41.4863 74.3088C41.2692 74.3483 41.0521 74.4272 40.9139 74.5851C40.7758 74.743 40.7166 74.9996 40.835 75.1772C41.0916 75.5522 41.8021 75.4733 41.9995 75.0588Z" fill="#231F20"/>
<path d="M56.9604 65.3293C57.0393 65.1319 57.0196 64.9148 56.9209 64.7372C56.8814 64.678 56.842 64.6385 56.7828 64.599C56.6841 64.5398 56.5657 64.5596 56.4472 64.5793C56.2301 64.6188 56.013 64.6977 55.8749 64.8556C55.7367 65.0135 55.6775 65.2701 55.7959 65.4477C56.0722 65.803 56.7828 65.724 56.9604 65.3293Z" fill="#231F20"/>
<path d="M69.1967 78.6711C69.2757 78.4737 69.2559 78.2566 69.1572 78.079C69.1178 78.0198 69.0783 77.9803 69.0191 77.9408C68.9204 77.8816 68.802 77.9014 68.6836 77.9211C68.4665 77.9606 68.2493 78.0395 68.1112 78.1974C67.973 78.3553 67.9138 78.6119 68.0322 78.7895C68.3086 79.1645 69.0191 79.0856 69.1967 78.6711Z" fill="#231F20"/>
<path d="M54.7299 77.0529C54.8089 76.8556 54.7891 76.6385 54.6904 76.4608C54.651 76.4016 54.6115 76.3621 54.5523 76.3227C54.4536 76.2635 54.3352 76.2832 54.2168 76.3029C53.9997 76.3424 53.7826 76.4214 53.6444 76.5793C53.5062 76.7372 53.447 76.9937 53.5654 77.1714C53.822 77.5464 54.5326 77.4674 54.7299 77.0529Z" fill="#231F20"/>
<path d="M28.3215 74.487C28.2425 74.7239 28.282 75.0397 28.4202 75.2568C28.9925 76.1055 30.1965 75.8489 30.986 75.5726C31.2228 75.4936 31.4004 75.316 31.4399 75.0791C31.5189 74.6055 31.2425 74.3291 30.8281 74.191C30.532 74.0923 30.2162 74.0134 29.9004 73.9936C29.6044 73.9739 29.2886 73.9147 28.9925 73.9739C28.7557 74.0134 28.4399 74.1712 28.3412 74.4081C28.3215 74.4476 28.3215 74.4673 28.3215 74.487Z" fill="#231F20"/>
<path d="M80.5257 61.0852C80.5651 61.2036 80.6441 61.3023 80.7822 61.4207C80.9599 61.5589 81.177 61.6181 81.3941 61.6576C81.927 61.7563 82.4599 61.7563 82.9928 61.6576C83.2099 61.6181 83.4467 61.5392 83.6046 61.3813C83.9204 61.0457 83.7428 60.4734 83.4072 60.1378C82.973 59.7234 82.3415 59.5457 81.7493 59.6839C81.2362 59.8023 80.3283 60.5128 80.5257 61.0852Z" fill="#231F20"/>
<path d="M80.408 67.8355C80.2501 68.0131 80.1119 68.25 80.1909 68.4671C80.2698 68.7236 80.5659 68.8421 80.8224 68.9013C81.1777 68.9802 81.533 69.0197 81.8882 69C82.204 68.9802 82.5396 68.9407 82.7961 68.7631C83.5461 68.2894 83.1514 67.3815 82.4803 67.046C81.7895 66.6907 80.8619 67.3026 80.408 67.8355Z" fill="#231F20"/>
<path d="M88.5385 65.4669C88.4398 65.5064 88.3411 65.5459 88.2424 65.6248C88.1635 65.684 88.124 65.7827 88.0648 65.8617C88.0253 65.9209 88.0056 65.9801 88.0253 66.059C88.0451 66.1972 88.2227 66.2564 88.3608 66.2762C88.5977 66.3156 88.8543 66.3551 89.0911 66.3354C89.4464 66.3156 89.7819 66.1577 90.0582 65.9209C90.3148 65.684 90.1372 65.3288 89.8411 65.2301C89.4858 65.1314 88.8937 65.3485 88.5385 65.4669Z" fill="#231F20"/>
<path d="M68.4072 71.625C68.348 71.6645 68.2888 71.6842 68.2493 71.7237C67.8546 72.0395 67.7757 72.6316 68.2691 72.8684C68.9007 73.1645 69.4928 72.9671 69.9664 72.5132C70.1243 72.375 70.2625 72.2171 70.3217 72C70.3809 71.8027 70.3217 71.5461 70.1441 71.4474C70.0651 71.3882 69.9467 71.3882 69.848 71.3684C69.5125 71.3487 69.1572 71.3684 68.8414 71.4474C68.6836 71.5066 68.5454 71.5658 68.4072 71.625Z" fill="#231F20"/>
<path d="M86.9997 58.026C86.9405 58.0457 86.9011 58.0457 86.8616 58.0655C86.4866 58.2234 86.3089 58.6773 86.6445 58.9734C87.0787 59.3286 87.5918 59.3089 88.0655 59.0326C88.2037 58.9536 88.3616 58.855 88.4405 58.6971C88.5195 58.5589 88.5392 58.3418 88.4208 58.2234C88.3616 58.1642 88.2826 58.1247 88.2037 58.105C87.9471 58.0063 87.6708 57.9668 87.3747 57.9668C87.2563 57.9865 87.1182 58.0063 86.9997 58.026Z" fill="#231F20"/>
<path opacity="0.2" d="M26.8406 53.4477C24.6892 52.9148 22.5182 52.2832 22.5182 52.2832L21.3537 57.6319C21.0774 57.2569 20.7814 56.9016 20.3866 56.645C20.0116 56.4082 18.9458 55.974 18.7485 56.645C18.5906 57.1187 17.6827 57.474 17.3274 57.8293C17.3077 57.849 17.2682 57.849 17.209 57.849C18.0774 58.2635 18.9656 59.1714 19.3208 60.474C20.13 60.2766 20.8998 59.7635 21.3537 59.1911C22.459 57.8095 25.755 58.2832 27.0971 57.099C28.3208 56.0332 28.6564 55.145 28.9524 53.645C28.2616 53.5661 27.63 53.645 26.8406 53.4477Z" fill="black"/>
<path d="M33.7487 80.9612C34.696 84.6718 37.1039 91.2836 38.15 95.902C39.0973 100.106 41.6434 108.573 42.1368 112.678C42.1368 112.678 39.8079 113.093 38.5052 114.376C37.5973 115.284 37.7947 115.994 37.9131 116.744C37.9526 117.04 38.2092 117.257 38.5052 117.257L46.4987 117.297C46.8145 117.297 47.0908 117.04 47.1105 116.724C47.1105 116.724 46.321 102.711 45.1566 94.9349C44.8408 92.8231 44.9 90.3757 44.4066 87.4152C44.0316 85.1652 44.1105 79.3626 43.4592 78.3757C42.9066 77.5073 32.7618 70.2244 31.4395 71.8034C31.4592 71.7836 32.7421 77.0336 33.7487 80.9612Z" fill="#F2903D"/>
<path d="M41.8222 117.257C41.8222 117.257 41.4077 116.191 42.4537 114.968C42.4537 114.968 41.2893 115.56 41.2695 117.257H41.8222Z" fill="#1B1C1E"/>
<path d="M38.7431 117.237C38.7431 117.237 38.6641 115.343 40.0062 114.79C40.0062 114.79 39.0391 115.54 39.1181 117.257L38.7431 117.237Z" fill="#1B1C1E"/>
<path d="M36.334 86.1716C36.3537 86.1716 36.3537 86.1716 36.3735 86.1716C36.7485 86.2308 37.1235 86.1716 37.4787 86.0532C37.5972 86.0137 37.7156 85.9545 37.7551 85.8361C37.8143 85.6782 37.7156 85.5203 37.5972 85.4019C37.3011 85.1848 36.8274 85.1848 36.4919 85.3229C36.1564 85.4611 35.7419 86.0335 36.334 86.1716Z" fill="#231F20"/>
<path d="M42.018 90.2578C42.0377 90.2775 42.0772 90.2973 42.0969 90.2973C42.2154 90.3367 42.3733 90.317 42.4917 90.2973C42.5706 90.2775 42.6496 90.2381 42.689 90.1788C42.7088 90.1394 42.7285 90.0802 42.7285 90.0407C42.7285 89.9815 42.7088 89.9025 42.6693 89.8631C42.6298 89.8236 42.5509 89.8038 42.4917 89.7841C42.3733 89.7644 42.2548 89.7841 42.1561 89.8236C42.0575 89.8828 41.9785 89.9815 41.9785 90.0999C41.9785 90.1394 41.9785 90.1788 41.9983 90.1986C41.9785 90.2381 41.9983 90.2381 42.018 90.2578Z" fill="#231F20"/>
<path d="M44.2094 105.731C44.2291 105.751 44.2686 105.771 44.2883 105.771C44.4068 105.81 44.5647 105.791 44.6831 105.771C44.762 105.751 44.841 105.712 44.8804 105.652C44.9002 105.613 44.9199 105.554 44.9199 105.514C44.9199 105.455 44.9002 105.376 44.8607 105.337C44.8212 105.297 44.7423 105.277 44.6831 105.258C44.5647 105.238 44.4462 105.258 44.3476 105.297C44.2489 105.356 44.1699 105.455 44.1699 105.574C44.1699 105.613 44.1699 105.652 44.1897 105.672C44.1897 105.692 44.1897 105.712 44.2094 105.731Z" fill="#231F20"/>
<path d="M42.8481 94.6582C42.8678 94.6779 42.9073 94.6977 42.927 94.6977C43.0454 94.7371 43.2033 94.7174 43.3218 94.6977C43.4007 94.6779 43.4796 94.6384 43.5191 94.5792C43.5389 94.5398 43.5586 94.4806 43.5586 94.4411C43.5586 94.3819 43.5389 94.3029 43.4994 94.2634C43.4599 94.224 43.381 94.2042 43.3218 94.1845C43.2033 94.1648 43.0849 94.1845 42.9862 94.224C42.8875 94.2832 42.8086 94.3819 42.8086 94.5003C42.8086 94.5398 42.8086 94.5792 42.8283 94.599C42.8086 94.6384 42.8283 94.6582 42.8481 94.6582Z" fill="#231F20"/>
<path d="M41.8409 100.204C41.6041 100.244 41.3475 100.342 41.2093 100.5C40.8738 100.895 41.0712 101.329 41.5251 101.507C41.762 101.606 42.0778 101.645 42.3146 101.527C42.512 101.428 42.6699 101.27 42.7291 101.053C42.808 100.856 42.7883 100.599 42.6501 100.441C42.5317 100.283 42.3343 100.204 42.1172 100.185C42.0383 100.185 41.9396 100.204 41.8409 100.204Z" fill="#231F20"/>
<path d="M39.7478 79.0666C39.5505 78.4943 38.9189 78.1982 38.3465 78.3364C37.8728 78.4548 37.1623 78.889 37.182 79.4416C37.2018 79.6587 37.3202 79.8758 37.4978 80.014C37.6163 80.0929 37.7347 80.1324 37.8728 80.1719C38.386 80.3101 38.9386 80.2311 39.4123 79.9943C39.4913 79.9548 39.5702 79.8956 39.6294 79.8364C39.807 79.639 39.8268 79.3232 39.7478 79.0666Z" fill="#231F20"/>
<path d="M37.7353 90.2773C37.3998 90.5339 37.1827 90.9483 37.2024 91.3825C37.2024 91.5207 37.2419 91.6589 37.3011 91.7773C37.4195 91.9746 37.6564 92.0931 37.8735 92.172C38.2879 92.3299 38.7616 92.4089 39.1761 92.2707C39.5906 92.1325 39.9458 91.7181 39.9064 91.2839C39.8274 90.3167 38.4853 89.7444 37.7353 90.2773Z" fill="#231F20"/>
<path d="M43.4389 88.6584C43.5179 88.461 43.4981 88.2439 43.3994 88.0663C43.36 88.0071 43.3205 87.9676 43.2613 87.9281C43.1626 87.8689 43.0442 87.8887 42.9257 87.9084C42.7086 87.9479 42.4915 88.0268 42.3534 88.1847C42.2152 88.3426 42.156 88.5992 42.2744 88.7768C42.531 89.1518 43.2415 89.0729 43.4389 88.6584Z" fill="#231F20"/>
<path d="M43.0834 107.113C43.1624 106.915 43.1426 106.698 43.044 106.52C43.0045 106.461 42.965 106.422 42.9058 106.382C42.8071 106.323 42.6887 106.343 42.5703 106.363C42.3532 106.402 42.1361 106.481 41.9979 106.639C41.8598 106.797 41.8005 107.053 41.919 107.231C42.1953 107.606 42.9058 107.507 43.0834 107.113Z" fill="#231F20"/>
<path d="M42.9858 82.8166C43.0647 82.6192 43.045 82.4021 42.9463 82.2245C42.9068 82.1653 42.8674 82.1258 42.8081 82.0863C42.7095 82.0271 42.591 82.0469 42.4726 82.0666C42.2555 82.1061 42.0384 82.185 41.9003 82.3429C41.7621 82.5008 41.7029 82.7574 41.8213 82.935C42.0779 83.31 42.7884 83.2114 42.9858 82.8166Z" fill="#231F20"/>
<path d="M97.2033 65.3691C97.2033 65.3691 98.0125 68.7441 98.2494 72.6718C98.4073 75.5731 97.6573 78.7507 99.0981 81.1191C102.513 86.6849 111.138 96.3362 111.947 98.2705C112.716 100.086 114.216 114.159 113.723 116.705C113.664 117.001 113.407 117.198 113.131 117.198L106.736 117.159C106.381 117.159 106.085 116.843 106.144 116.488C106.263 115.599 106.815 114.553 107.368 113.961C108.177 113.093 109.914 113.231 110.032 113.113C110.328 112.817 106.776 102.099 105.927 100.856C105.374 100.027 91.4599 92.7244 89.0915 90.356C86.7231 87.9876 79.9336 69.731 79.9336 69.731L97.2033 65.3691Z" fill="#F2903D"/>
<path d="M92.1502 74.6256C92.0712 74.5664 91.9528 74.5071 91.8541 74.4874C91.6173 74.4282 91.3805 74.4479 91.1633 74.5664C90.8081 74.7637 90.6502 75.2769 90.9462 75.6124C91.2028 75.8887 91.7555 76.0664 92.091 75.8295C92.2291 75.7308 92.3081 75.5729 92.3476 75.415C92.4068 75.2374 92.4068 75.0203 92.3081 74.8427C92.2884 74.744 92.2291 74.665 92.1502 74.6256Z" fill="#231F20"/>
<path d="M89.8422 81.4744C89.9211 81.4547 89.9804 81.4547 90.0396 81.435C90.2172 81.3758 90.3948 81.2573 90.4738 81.0797C90.5922 80.8231 90.4738 80.5271 90.2567 80.3494C90.0396 80.1718 89.7632 80.1323 89.4869 80.1521C89.2698 80.1718 89.0527 80.231 88.8554 80.3494C88.6777 80.4679 88.5396 80.6652 88.5001 80.8823C88.4803 80.981 88.4804 81.0797 88.5396 81.1784C88.6185 81.3363 88.7764 81.4152 88.9343 81.4547C89.2106 81.4942 89.5461 81.5139 89.8422 81.4744Z" fill="#231F20"/>
<path d="M103.262 97.8162C103.341 97.7965 103.4 97.7965 103.459 97.7768C103.637 97.7176 103.815 97.5991 103.894 97.4215C104.012 97.1649 103.894 96.8689 103.677 96.6912C103.459 96.5136 103.183 96.4741 102.907 96.4939C102.69 96.5136 102.473 96.5728 102.275 96.6912C102.098 96.8097 101.959 97.007 101.92 97.2241C101.9 97.3228 101.9 97.4215 101.959 97.5202C102.038 97.6781 102.196 97.757 102.354 97.7965C102.65 97.836 102.986 97.8557 103.262 97.8162Z" fill="#231F20"/>
<path d="M93.8279 91.2832C93.8674 91.2832 93.9069 91.2635 93.9463 91.2635C94.045 91.224 94.1437 91.1648 94.2029 91.0661C94.2621 90.9279 94.2029 90.7503 94.0845 90.6516C93.9661 90.5529 93.8082 90.5332 93.6503 90.5332C93.5319 90.5332 93.3937 90.5727 93.295 90.6516C93.1963 90.7306 93.1174 90.8293 93.0977 90.9477C93.0977 91.0069 93.0977 91.0661 93.1174 91.1056C93.1569 91.1845 93.2555 91.2437 93.3345 91.2635C93.4727 91.2832 93.67 91.3029 93.8279 91.2832Z" fill="#231F20"/>
<path d="M100.579 87.8692C100.441 87.889 100.322 87.9482 100.204 88.0074C99.9869 88.1456 99.8093 88.4219 99.8882 88.6785C99.9474 88.8561 100.086 88.9943 100.263 89.0732C100.757 89.2903 101.704 89.2311 101.921 88.5995C101.98 88.4219 101.941 88.2245 101.842 88.0864C101.645 87.8298 101.29 87.7903 100.974 87.81C100.836 87.8298 100.697 87.8495 100.579 87.8692Z" fill="#231F20"/>
<path d="M103.578 92.6853C103.597 92.8235 103.657 92.9419 103.775 93.0011C103.834 93.0406 103.894 93.0406 103.972 93.0406C104.15 93.0406 104.328 92.9419 104.426 92.7642C104.505 92.6064 104.486 92.3892 104.347 92.2511C104.229 92.1327 103.953 92.0142 103.795 92.1129C103.716 92.1524 103.657 92.2314 103.637 92.3103C103.578 92.4485 103.558 92.5669 103.578 92.6853Z" fill="#231F20"/>
<path d="M95.4469 82.2244C95.4666 82.3625 95.5258 82.4809 95.6442 82.5402C95.7034 82.5796 95.7626 82.5796 95.8416 82.5796C96.0192 82.5796 96.1969 82.4809 96.2955 82.3033C96.3745 82.1454 96.3547 81.9283 96.2166 81.7902C96.0982 81.6717 95.8219 81.5533 95.664 81.652C95.585 81.6915 95.5258 81.7704 95.5061 81.8494C95.4469 81.9875 95.4271 82.1059 95.4469 82.2244Z" fill="#231F20"/>
<path d="M95.4078 67.738C95.4275 67.8762 95.4867 67.9946 95.6052 68.0538C95.6644 68.0933 95.7236 68.0933 95.8025 68.0933C95.9802 68.0933 96.1578 67.9946 96.2565 67.817C96.3354 67.6591 96.3157 67.442 96.1775 67.3038C96.0591 67.1854 95.7828 67.067 95.6249 67.1657C95.546 67.2051 95.4867 67.2841 95.467 67.363C95.4078 67.5012 95.3881 67.6196 95.4078 67.738Z" fill="#231F20"/>
<path d="M88.8342 87.5734C88.696 87.3169 88.4 87.1787 88.1039 87.1787C87.8079 87.1787 87.5316 87.2971 87.3145 87.4748C87.4131 87.6524 87.5908 88.0077 87.5908 88.0077L88.1237 88.9945C88.1237 88.9945 88.3802 89.409 88.4789 89.5866C88.4987 89.5471 88.5381 89.5274 88.5579 89.4879C88.8737 89.0142 88.9921 88.4024 88.8934 87.8498C88.8934 87.7708 88.8737 87.6721 88.8342 87.5734Z" fill="#231F20"/>
<path d="M89.4273 73.797C89.5655 73.7575 89.6839 73.6983 89.8023 73.6194C90.1971 73.3825 90.4734 72.9089 90.3944 72.4549C90.3155 72.0207 89.9207 71.7049 89.5063 71.5865C89.0918 71.4681 88.6378 71.5273 88.2036 71.6062C87.9076 71.6654 87.5918 71.7444 87.355 71.922C86.7826 72.3168 86.8221 73.126 87.3155 73.5602C87.8681 74.0536 88.776 74.0141 89.4273 73.797Z" fill="#231F20"/>
<path d="M108.927 96.3958C108.789 96.4155 108.65 96.455 108.532 96.5142C108.118 96.6918 107.762 97.126 107.782 97.58C107.802 98.0142 108.137 98.3892 108.532 98.5668C108.927 98.7444 109.381 98.7642 109.815 98.7444C110.111 98.7247 110.427 98.6852 110.703 98.5668C111.335 98.2708 111.394 97.4616 110.979 96.9484C110.506 96.376 109.618 96.2773 108.927 96.3958Z" fill="#231F20"/>
<path d="M109.677 117.198C109.677 117.198 109.223 115.994 110.407 114.632C110.407 114.632 109.084 115.283 109.045 117.178L109.677 117.198Z" fill="#1B1C1E"/>
<path d="M107.19 117.139C107.19 117.139 107.111 115.027 108.651 114.396C108.651 114.396 107.565 115.244 107.624 117.139H107.19Z" fill="#1B1C1E"/>
<path d="M15.2558 44.9412C15.2558 44.9412 13.5979 42.6912 12.5914 42.8294C11.0322 43.0267 10.9532 47.0333 13.0256 48.7109C15.1374 50.3688 15.2558 44.9412 15.2558 44.9412Z" fill="#F2903D"/>
<path d="M21.3932 43.5796C24.788 43.8362 26.3866 44.5467 27.6893 46.323C28.9919 48.119 29.4064 50.3888 29.0906 52.2046C28.7748 54.0204 28.4393 54.7506 27.1169 55.9348C25.7748 57.0993 22.4787 56.6256 21.3735 58.0269C20.7419 58.8164 19.5182 59.4875 18.413 59.4085C17.3077 59.3098 16.1827 58.8559 15.7485 58.2243C15.0182 57.1783 14.9787 55.7967 14.5248 55.1059C13.8143 53.9809 13.3011 53.8033 12.7485 50.9612C12.4327 49.3427 12.4524 47.0138 13.7748 45.4348C15.6893 43.1651 19.0445 43.4019 21.3932 43.5796Z" fill="#F2903D"/>
<path d="M12.6309 48.3163C12.6901 47.7439 12.8282 47.1518 13.0651 46.6189C13.2427 46.54 13.5782 46.6979 13.7164 46.8163C13.8545 46.9544 13.9335 47.1518 14.1111 47.2505C14.269 47.3294 14.4861 47.3294 14.6045 47.4676C14.7032 47.586 14.644 47.7636 14.5848 47.9215C14.5256 48.0992 14.4466 48.2768 14.2888 48.3952C14.1506 48.4939 13.9532 48.5136 13.7756 48.5334C13.4795 48.5334 13.1638 48.5531 12.8677 48.5531C12.7888 48.4742 12.7098 48.3952 12.6309 48.3163Z" fill="#231F20"/>
<path d="M16.0841 59.0139C15.2354 58.4415 15.2354 57.5336 15.2354 57.5336C15.2354 57.5336 14.742 57.0205 14.6828 56.8231C14.4657 56.0928 14.5644 55.481 14.6631 55.1652C14.8407 54.652 15.117 54.1191 15.6894 53.8428C16.2618 53.5665 16.5578 53.5862 16.5578 53.5862C17.2683 53.606 17.6631 55.5797 17.6631 55.5797L18.7486 53.6652C19.3999 53.606 20.8604 53.7047 21.6499 54.8691C21.6499 54.8691 21.8473 55.1257 21.9657 55.5797C22.3604 56.9218 21.4131 57.5336 21.4131 57.5336C21.4131 57.5336 21.4328 58.4612 20.5249 58.9941C19.6368 59.5468 16.9328 59.606 16.0841 59.0139Z" fill="#FFD5BA"/>
<path d="M23.8017 50.5665C23.4859 50.5073 23.1504 50.3297 22.657 50.3889C22.3214 50.4283 21.8083 50.6454 21.5122 51.2376C21.3938 51.4744 21.2951 51.9876 21.3741 52.027C21.4333 52.0665 21.4728 51.9481 21.907 52.0468C22.3214 52.1454 22.5978 52.3033 23.1307 52.0468C23.6438 51.7902 23.9201 51.2376 24.078 50.981C24.157 50.7836 24.0978 50.6257 23.8017 50.5665Z" fill="#231F20"/>
<path d="M23.3666 50.8422C23.1693 50.8027 22.9719 50.704 22.6758 50.7435C22.4785 50.7633 22.1627 50.9014 21.9851 51.2567C21.9061 51.3948 21.8666 51.7106 21.9061 51.7304C21.9456 51.7501 21.9653 51.6712 22.2219 51.7304C22.4785 51.7896 22.6561 51.8883 22.9522 51.7304C23.268 51.5725 23.4258 51.2369 23.5245 51.079C23.5837 50.9804 23.564 50.8817 23.3666 50.8422Z" fill="#FFD5BA"/>
<path d="M14.3672 49.8955C14.3672 49.7771 14.6632 49.8166 14.9396 49.7179C15.3343 49.5995 16.0448 49.639 16.4198 50.0337C16.7553 50.3692 16.6172 51.4942 16.479 51.6127C16.3409 51.7311 16.1238 51.4548 15.6698 51.4942C15.2948 51.514 14.9198 51.2574 14.8211 51.0403C14.683 50.7048 14.7422 50.389 14.604 50.2311C14.4659 50.0929 14.3672 50.0337 14.3672 49.8955Z" fill="#231F20"/>
<path d="M14.7617 50.1514C14.7617 50.0724 14.9394 50.0922 15.1367 50.0527C15.3933 49.9737 15.8472 49.9935 16.0841 50.25C16.3012 50.4672 16.2025 51.1777 16.1236 51.2566C16.0446 51.3356 15.8867 51.1579 15.6104 51.1777C15.3736 51.1974 15.1367 51.0198 15.0775 50.8816C14.9788 50.6645 15.0183 50.4672 14.9394 50.3685C14.8209 50.2698 14.7617 50.2303 14.7617 50.1514Z" fill="#FFD5BA"/>
<path d="M17.6449 53.8423C17.8423 53.8423 18.0397 53.6647 18.4936 53.566C18.8883 53.4673 19.2436 53.6449 19.3028 53.8818C19.3818 54.2173 19.0265 54.5923 18.5725 55.0462C18.2173 55.3818 17.9015 56.0331 17.6054 56.0133C17.3094 55.9936 16.9541 55.1844 16.7765 54.9673C16.4015 54.5528 15.7897 54.0791 16.2239 53.5857C16.5989 53.1515 17.4475 53.8423 17.6449 53.8423Z" fill="#231F20"/>
<path d="M26.6836 45.79C26.6836 45.79 27.6112 43.6978 29.427 43.6584C30.4533 43.6386 30.9073 45.3557 30.8678 46.1255C30.8283 47.0136 30.5718 49.0071 28.5783 49.9347L26.9994 50.1123L26.6836 45.79Z" fill="#F2903D"/>
<path d="M28.4396 45.0207C28.558 44.8825 28.6765 44.7641 28.8146 44.6654C29.7028 44.1128 30.058 45.5733 30.058 46.2049C30.0383 46.797 29.8015 47.4089 29.3672 47.8233C29.308 47.8825 29.2291 47.9417 29.1501 47.9417C29.0712 47.9417 29.0317 47.8825 28.9725 47.8431C28.4199 47.2707 27.8278 46.6194 28.0251 45.7904C28.0843 45.4746 28.2225 45.2773 28.4396 45.0207Z" fill="#D57B36"/>
<path d="M19.5587 57.6718C18.9469 57.6126 17.5061 56.6455 17.5061 56.6455C17.5061 56.6455 16.3811 57.4942 15.2363 57.5337L15.2561 57.6126C15.2561 57.6126 15.71 57.6718 16.2626 57.5731C16.9337 57.435 17.5061 57.1587 17.5061 57.1587C17.5061 57.1587 18.5719 57.8692 19.539 57.8692C20.6837 57.8889 21.4534 57.5534 21.4534 57.5534C21.4534 57.5534 20.5258 57.7508 19.5587 57.6718Z" fill="#231F20"/>
<path d="M17.8026 55.915C17.8026 55.915 17.5658 56.6256 17.7237 56.8229L17.25 56.8427C17.4079 56.6848 17.4671 56.2111 17.3487 55.915H17.8026Z" fill="#231F20"/>
<path d="M21.493 53.6847C21.2364 52.6189 21.3351 51.9479 21.3351 51.9479L21.5522 51.8887V51.9676C21.4732 52.4808 21.5522 53.1124 21.7495 53.7045C21.9272 54.2571 22.2035 54.4742 22.2232 55.4413C22.243 56.0137 22.0851 56.4676 22.0851 56.4676C22.0851 56.4676 22.1048 56.0334 22.0259 55.5992C21.8482 54.4347 21.6509 54.3163 21.493 53.6847Z" fill="#231F20"/>
<path d="M16.618 51.1191C16.618 51.1191 16.5588 51.731 16.3022 52.3034C16.0654 52.856 15.6706 53.1323 15.3746 53.6257C15.0983 54.0797 14.6641 55.1849 14.6641 55.1849C14.6641 55.1849 14.7035 54.5139 14.9996 53.8428C15.3154 53.1126 15.7891 52.8165 16.0851 52.2836C16.3417 51.8099 16.3417 51.5534 16.3417 51.5534L16.618 51.1191Z" fill="#231F20"/>
<path d="M21.9474 47.4277C21.9671 47.3487 21.9671 47.25 22.0066 47.1711C22.0461 47.0921 22.1053 47.0329 22.1843 47.0527C22.2829 47.0724 22.3224 47.1908 22.3421 47.2895C22.4606 47.7434 22.4408 48.2566 22.4211 48.75C22.4211 48.9474 22.4014 49.1448 22.4014 49.3421C22.3816 49.8948 21.8882 50.2698 21.7698 49.579C21.6908 48.9277 21.8685 48.079 21.9474 47.4277Z" fill="#231F20"/>
<path d="M16.2617 48.5928C16.3604 48.2375 16.4788 47.8625 16.5972 47.5072C16.6564 47.3099 16.7354 47.0928 16.8735 46.9151C16.913 46.8559 16.9722 46.8165 17.0314 46.8362C17.1104 46.8559 17.1104 46.9743 17.1104 47.0533C17.0512 47.5665 16.992 48.0796 16.913 48.5928C16.8933 48.7704 16.8735 48.948 16.7551 49.1059C16.6564 49.2441 16.3999 49.3822 16.242 49.2441C16.1038 49.1059 16.2025 48.7507 16.2617 48.5928Z" fill="#231F20"/>
<path d="M26.1301 44.8231C26.1499 45.3165 25.7946 45.8889 25.2617 45.8297C24.9459 45.7902 24.7683 45.4744 24.6893 45.1586C24.6104 44.8626 24.5907 44.527 24.413 44.2705C24.3341 44.152 24.2354 44.0731 24.1367 43.9941C24.9262 44.1915 25.5775 44.4678 26.1301 44.8231Z" fill="#231F20"/>
<path d="M15.6693 45.178C15.5903 45.0004 15.61 44.803 15.6693 44.6254C15.689 44.5464 15.7285 44.4477 15.7285 44.3688C15.7285 44.2701 15.7087 44.1714 15.6693 44.0727C15.8074 44.0135 15.9456 43.974 16.0837 43.9148L17.11 43.6583C17.3074 43.6188 17.5245 43.599 17.7219 43.5596C17.9193 43.7175 18.0377 43.8951 17.9785 44.0925C17.939 44.2306 17.8403 44.349 17.7416 44.4477C17.5443 44.6451 17.2877 44.7833 17.0311 44.8622C16.8337 44.9214 16.6364 44.9411 16.4785 45.0793C16.36 45.178 16.2811 45.3359 16.1429 45.3951C15.9653 45.4543 15.7679 45.3359 15.6693 45.178Z" fill="#231F20"/>
<path d="M22.6179 50.6648C22.3811 50.3293 21.9271 50.9411 21.7495 51.0596C21.5719 51.178 21.5521 51.3951 21.7692 51.7503C22.0061 52.0859 22.4008 52.0859 22.5784 51.9675C22.7758 51.8293 22.8547 51.0003 22.6179 50.6648Z" fill="#231F20"/>
<path d="M14.6837 50.1714C14.6442 50.5859 15.1968 51.2569 15.4139 51.2767C15.631 51.2964 15.8481 50.9609 15.8679 50.5464C15.9073 50.1319 15.7494 49.7569 15.5323 49.7569C15.3152 49.7174 14.7231 49.7372 14.6837 50.1714Z" fill="#231F20"/>
<path d="M27.0592 52.4415C26.5658 51.9481 26.3289 51.3757 25.6974 51.0402C25.0066 50.6652 24.375 50.8034 24.375 50.8034C24.375 50.8034 25.2039 50.527 25.9737 50.7639C26.7632 51.0007 26.7829 51.4942 27.1776 51.9678C27.5329 52.3823 28.4211 52.6981 28.4211 52.6981C28.4211 52.6981 27.5724 52.9547 27.0592 52.4415Z" fill="black"/>
<path d="M12.6504 50.3489C13.0254 50.2502 13.6372 50.0726 14.1109 50.1515C14.1109 50.1515 12.9662 50.3489 12.7096 50.8028C12.6899 50.6449 12.6701 50.487 12.6504 50.3489Z" fill="black"/>
<path d="M20.7031 45.928C20.5847 45.9872 20.5057 46.1056 20.407 46.1846C20.3084 46.2635 20.1899 46.3425 20.0518 46.3622C19.9136 46.3819 19.7755 46.3425 19.6768 46.2438C19.5978 46.1648 19.5584 46.0267 19.5386 45.9082C19.4991 45.6319 19.5584 45.3161 19.7952 45.178C19.9136 45.1188 20.032 45.099 20.1702 45.0596C20.2689 45.0398 20.3478 45.0004 20.4268 44.9609C20.486 44.9214 20.5649 44.8819 20.6241 44.8622C20.8018 44.803 20.9991 44.8819 21.157 44.9806C21.3741 45.1385 21.3544 45.474 21.1768 45.6714C21.0584 45.7898 20.861 45.8293 20.7031 45.928Z" fill="#231F20"/>
<path d="M26.5259 47.6055C26.6048 47.6647 26.664 47.7634 26.743 47.8226C26.8811 47.941 27.0588 48.0002 27.2167 48.0594C27.3746 48.1384 27.5325 48.2371 27.6114 48.4147C27.6904 48.6318 27.5522 48.9081 27.3548 49.0265C27.1575 49.145 26.9009 49.1647 26.6443 49.1647C26.5061 49.1647 26.368 49.145 26.2298 49.0857C25.993 49.0068 25.8154 48.8292 25.5785 48.7305C25.3417 48.6318 25.0654 48.6318 24.8877 48.4542C24.6706 48.2173 24.7496 47.8028 25.0061 47.5857C25.4009 47.2502 26.1311 47.27 26.5259 47.6055Z" fill="#231F20"/>
<path opacity="0.2" d="M13.3406 46.3424C13.3209 46.3424 13.3011 46.3424 13.3011 46.3227C13.2616 46.303 13.2419 46.2437 13.2616 46.2043C13.6761 45.4543 14.1695 44.8819 14.7222 44.5266C14.7616 44.5069 14.8209 44.5069 14.8406 44.5464C14.8603 44.5858 14.8603 44.6451 14.8209 44.6648C14.288 45.0003 13.8143 45.553 13.4195 46.2832C13.3998 46.3227 13.3801 46.3424 13.3406 46.3424Z" fill="black"/>
<path d="M13.1828 43.7966C13.1039 43.7177 13.0052 43.6387 12.9065 43.5992C12.7289 43.54 12.5513 43.619 12.4328 43.7374C12.3144 43.8756 12.2355 44.0532 12.2157 44.2111C12.1565 44.5466 12.196 44.8624 12.2355 45.1979C12.275 45.4742 12.3144 45.7506 12.3342 46.0466C12.3342 46.1058 12.3539 46.1848 12.3934 46.2242C12.4328 46.2834 12.4921 46.3229 12.5513 46.3032C12.6105 46.2834 12.6302 46.244 12.6697 46.1848C12.9263 45.7308 13.2223 45.2966 13.5381 44.8624C13.6565 44.7045 13.7552 44.5861 13.6565 44.3887C13.5578 44.1716 13.3407 43.9545 13.1828 43.7966Z" fill="#D57B36"/>
</svg>
