<svg width="150" height="150" viewBox="0 0 150 150" fill="none" xmlns="http://www.w3.org/2000/svg">
<path d="M94.1091 104.674C94.1091 104.674 100.892 110.935 107.805 110.739C114.718 110.543 121.631 107.739 123.326 109.956C125.022 112.174 125.935 117.717 120.326 121.956C114.718 126.196 103.826 125.152 96.4569 121.435C86.5439 116.413 94.1091 104.674 94.1091 104.674Z" fill="#EABC96"/>
<mask id="mask0_834_26233" style="mask-type:luminance" maskUnits="userSpaceOnUse" x="91" y="104" width="34" height="21">
<path d="M94.1091 104.674C94.1091 104.674 100.892 110.935 107.805 110.739C114.718 110.543 121.631 107.739 123.326 109.956C125.022 112.174 125.935 117.717 120.326 121.956C114.718 126.196 103.826 125.152 96.4569 121.435C86.5439 116.413 94.1091 104.674 94.1091 104.674Z" fill="white"/>
</mask>
<g mask="url(#mask0_834_26233)">
<path d="M111.132 124.892H111.067C108.85 123.392 107.741 118.761 107.676 118.566C107.676 118.501 107.741 118.37 107.806 118.37C107.871 118.37 108.002 118.435 108.002 118.501C108.002 118.566 109.111 123.261 111.263 124.631C111.328 124.696 111.328 124.761 111.328 124.827C111.198 124.827 111.198 124.892 111.132 124.892Z" fill="#EFD7C3"/>
<path d="M115.892 124.5H115.827C112.175 121.892 110.479 115.5 110.414 115.24C110.414 115.174 110.414 115.044 110.544 115.044C110.61 115.044 110.74 115.044 110.74 115.174C110.74 115.24 112.436 121.761 116.023 124.24C116.088 124.305 116.088 124.37 116.088 124.435C116.023 124.5 115.958 124.5 115.892 124.5Z" fill="#EFD7C3"/>
<path d="M120.329 122.087C120.263 122.087 120.263 122.087 120.263 122.087C118.372 120.783 117.459 116.478 117.459 116.348C117.459 116.283 117.524 116.152 117.589 116.152C117.655 116.152 117.785 116.218 117.785 116.283C117.785 116.348 118.698 120.587 120.459 121.826C120.524 121.891 120.524 121.957 120.524 122.022C120.394 122.087 120.329 122.087 120.329 122.087Z" fill="#EFD7C3"/>
</g>
<path d="M84.8471 93.197C84.8471 93.197 92.2819 85.2405 97.5645 92.6753C102.912 100.24 96.7167 124.306 96.7167 124.306L84.3906 123.654L84.8471 93.197Z" fill="#EACAAF"/>
<path d="M96.716 122.936C96.716 122.936 104.086 124.762 102.716 129.458C102.129 131.61 92.4117 130.306 88.6943 128.61C84.9769 126.914 88.3682 122.545 88.3682 122.545L96.716 122.936Z" fill="#EACAAF"/>
<path d="M98.5416 130.698C98.4764 130.698 98.4112 130.632 98.4112 130.567L97.8242 126.785C97.8242 126.719 97.8894 126.589 97.9547 126.589C98.0199 126.589 98.1503 126.654 98.1503 126.719L98.7373 130.502C98.7373 130.567 98.672 130.632 98.5416 130.698Z" fill="#E59E66"/>
<path d="M101.346 130.371C101.281 130.371 101.216 130.306 101.216 130.241L100.955 126.785C100.955 126.719 101.02 126.589 101.086 126.589C101.151 126.589 101.281 126.654 101.281 126.719L101.542 130.176C101.477 130.306 101.412 130.371 101.346 130.371Z" fill="#E59E66"/>
<path d="M51.3254 93.1966C51.3254 93.1966 43.4993 84.9792 38.608 92.6748C33.3906 100.957 39.4558 124.305 39.4558 124.305L51.7819 123.653L51.3254 93.1966Z" fill="#EACAAF"/>
<path d="M39.4568 122.935C39.4568 122.935 32.0873 124.761 33.4568 129.457C34.0438 131.609 43.7612 130.305 47.4786 128.609C51.196 126.914 47.8046 122.544 47.8046 122.544L39.4568 122.935Z" fill="#EACAAF"/>
<path d="M37.6306 130.826C37.5002 130.826 37.435 130.696 37.5002 130.631L38.0872 126.848C38.0872 126.783 38.1524 126.718 38.2828 126.718C38.348 126.718 38.4132 126.848 38.4132 126.913L37.8263 130.696C37.7611 130.761 37.6958 130.826 37.6306 130.826Z" fill="#E59E66"/>
<path d="M35.0232 130.044C34.8928 130.044 34.8276 129.978 34.8928 129.848L35.1536 126.391C35.1536 126.326 35.2189 126.196 35.3493 126.261C35.4145 126.261 35.4797 126.326 35.4797 126.457L35.2189 129.913C35.2189 129.978 35.1536 130.044 35.0232 130.044Z" fill="#E59E66"/>
<path d="M56.4139 39.2611C56.4139 39.2611 53.4139 46.5654 50.74 56.6089C47.74 67.8915 46.8922 73.1741 46.6313 81.9133C46.3704 90.6524 49.3704 121.696 49.3704 121.696C52.1096 127.435 82.1748 131.674 86.6748 121.631C86.6748 121.631 91.5009 92.348 90.653 81.848C90.1313 75.7176 89.6748 69.1306 86.74 57.848C84.653 49.8915 79.1096 34.5654 79.1096 34.5654L56.4139 39.2611Z" fill="#EFD7C3"/>
<path d="M81.7844 42.1306C80.48 46.0437 76.5018 55.3046 67.9583 54.848C59.8061 54.3915 56.154 46.9567 54.8496 43.3698C55.7627 40.7611 56.4148 39.1959 56.4148 39.1959L79.1105 34.5654C79.1105 34.5654 80.2844 37.8263 81.7844 42.1306Z" fill="#EABC96"/>
<path d="M77.7392 121.827C77.674 121.827 77.6088 121.761 77.6088 121.696C75.7827 116.218 74.4131 105.261 73.174 95.6092C72.9131 93.3266 72.587 91.1744 72.3262 89.1527C72.3262 89.0875 72.3914 88.957 72.4566 88.957C72.5218 88.957 72.6523 89.0222 72.6523 89.0875C72.9131 91.044 73.174 93.2614 73.5001 95.544C74.7392 105.196 76.1088 116.087 77.9349 121.566C77.8696 121.696 77.8696 121.761 77.7392 121.827Z" fill="#E59E66"/>
<path d="M58.4353 121.827C58.3049 121.762 58.2397 121.696 58.3049 121.631C60.131 116.153 61.5005 105.262 62.7397 95.6094C63.0005 93.3268 63.3266 91.1746 63.5875 89.1529C63.5875 89.0877 63.6527 89.0225 63.7831 89.0225C63.8484 89.0225 63.9136 89.0877 63.9136 89.2181C63.6527 91.1746 63.3918 93.392 63.0658 95.6746C61.8266 105.327 60.4571 116.283 58.631 121.762C58.5658 121.762 58.5005 121.827 58.4353 121.827Z" fill="#E59E66"/>
<path d="M78.0007 121.696C78.0007 121.696 74.8702 128.217 78.0007 129.913C81.4572 131.739 89.5442 130.891 90.7181 129.065C92.2181 126.783 89.4789 121.826 86.0876 121.174L78.0007 121.696Z" fill="#EFD7C3"/>
<path d="M86.2177 130.825C86.0873 130.825 86.0221 130.76 86.0873 130.63C86.283 128.999 85.9569 127.499 85.109 126.064C85.0438 125.999 85.109 125.869 85.1743 125.869C85.2395 125.804 85.3699 125.869 85.3699 125.934C86.2177 127.434 86.5438 128.999 86.3482 130.695C86.3482 130.76 86.283 130.825 86.2177 130.825Z" fill="#E59E66"/>
<path d="M89.5442 129.979C89.479 129.979 89.4137 129.913 89.3485 129.848C89.2181 127.109 87.9137 124.696 87.9137 124.631C87.8485 124.566 87.9137 124.435 87.9789 124.435C88.0442 124.37 88.1746 124.435 88.1746 124.5C88.2398 124.631 89.5442 127.044 89.6746 129.848C89.6746 129.848 89.6094 129.913 89.5442 129.979Z" fill="#E59E66"/>
<path d="M58.1751 121.696C58.1751 121.696 61.3055 128.217 58.1751 129.913C54.7186 131.739 46.6316 130.891 45.4577 129.065C43.9577 126.783 46.6968 121.826 50.0881 121.174L58.1751 121.696Z" fill="#EFD7C3"/>
<path d="M49.9569 130.825C49.8917 130.825 49.8265 130.76 49.8265 130.695C49.6309 128.999 49.9569 127.434 50.8048 125.934C50.87 125.869 50.9352 125.804 51.0004 125.869C51.0656 125.934 51.1309 125.999 51.0656 126.064C50.2178 127.499 49.9569 128.999 50.0874 130.63C50.1526 130.695 50.0874 130.76 49.9569 130.825Z" fill="#E59E66"/>
<path d="M46.6957 129.978C46.6304 129.978 46.5 129.913 46.5 129.783C46.6304 126.978 47.9348 124.565 48 124.435C48.0652 124.37 48.1304 124.305 48.1957 124.37C48.2609 124.435 48.3261 124.5 48.2609 124.565C48.2609 124.565 46.9565 127.044 46.8261 129.783C46.8261 129.848 46.7609 129.978 46.6957 129.978Z" fill="#E59E66"/>
<path d="M52.7599 26.4785C52.7599 26.4785 53.9991 22.1742 56.8034 19.8915C59.7382 17.5437 67.4991 15.5872 70.5643 16.5655C73.8251 17.5437 76.6947 19.8263 78.0643 22.435C80.5425 27.1959 81.1295 34.7611 80.2164 40.1089C79.4991 44.7394 76.5643 50.6089 71.3469 52.1089C66.7164 53.4785 61.5643 49.9568 58.3686 46.3698C55.1078 42.7176 52.8904 37.5002 52.0425 33.8481C51.2599 30.1959 52.7599 26.4785 52.7599 26.4785Z" fill="#EFD7C3"/>
<path d="M76.4984 37.0437C77.4767 40.435 74.4767 43.8263 70.1071 45.0654C65.7375 46.3045 61.6288 45.0002 60.6506 41.6089C59.6723 38.2176 62.8027 35.6089 67.1723 34.3698C71.4767 33.0654 75.5201 33.6524 76.4984 37.0437Z" fill="white"/>
<path d="M71.6716 49.5649H71.6064C70.3021 49.891 69.1934 49.8258 68.2151 49.1736C66.5194 48.0649 66.1934 45.8475 66.1934 45.7171C66.1934 45.5214 66.2586 45.391 66.4542 45.391C66.6499 45.391 66.7803 45.4562 66.7803 45.6519C66.7803 45.6519 67.1064 47.7388 68.5412 48.6519C69.3238 49.1736 70.2368 49.2388 71.4108 48.9127C72.3238 48.6519 72.976 48.1953 73.3673 47.5432C73.889 46.6301 73.889 45.3258 73.3673 43.5649C73.3021 43.3692 73.4325 43.2388 73.5629 43.1736C73.7586 43.1084 73.889 43.2388 73.9542 43.3692C74.476 45.2606 74.476 46.7606 73.889 47.804C73.4977 48.6519 72.7803 49.2388 71.6716 49.5649Z" fill="black"/>
<path d="M66.5859 45.4561C66.5859 45.4561 67.4338 48.3257 67.499 50.3474C67.5642 52.3039 68.412 54.2605 69.9772 54.0648C71.6077 53.8692 75.1946 50.6083 73.499 43.4996C73.499 43.4996 71.2816 44.217 69.3251 42.13C69.3251 42.0648 69.3903 44.8692 66.5859 45.4561Z" fill="#FF805D"/>
<path d="M69.1953 42.7822C69.1953 42.7822 70.3692 46.9561 70.2388 49.9561C70.2388 49.9561 71.2823 47.4778 70.304 42.9126L69.2605 41.8691L69.1953 42.7822Z" fill="#E57353"/>
<path d="M73.1724 43.6954C70.4985 44.478 68.9333 41.6084 68.9333 41.6084C68.868 41.5432 68.9333 41.4128 68.9985 41.4128C69.0637 41.3476 69.1941 41.4128 69.1941 41.478C69.2593 41.6084 70.7594 44.3476 73.368 43.3041C76.042 42.2606 76.3028 39.7171 76.3028 39.6519C76.3028 39.5867 76.368 39.5215 76.4985 39.5215C76.5637 39.5215 76.6289 39.5867 76.6289 39.7171C76.6289 39.7171 76.368 42.5215 73.4985 43.6302C73.4333 43.6302 73.3028 43.6954 73.1724 43.6954Z" fill="black"/>
<path d="M66.9769 45.5216C66.8465 45.5216 66.7812 45.5868 66.6508 45.5868C63.6508 46.1737 61.9552 43.9564 61.9552 43.9564C61.8899 43.8911 61.8899 43.7607 61.9552 43.7607C62.0204 43.6955 62.1508 43.6955 62.1508 43.7607C62.1508 43.7607 63.7812 45.8477 66.5204 45.3259C69.2595 44.8042 69.0639 41.6737 69.0639 41.5433C69.0639 41.4781 69.1291 41.4129 69.1943 41.3477C69.2595 41.3477 69.3247 41.4129 69.3899 41.4781C69.4552 41.4781 69.6508 44.739 66.9769 45.5216Z" fill="black"/>
<path d="M73.8895 36.7823C73.9547 36.978 73.8242 37.1084 73.6938 37.1736C73.4982 37.2389 73.3677 37.1084 73.3025 36.978C73.2373 36.7823 73.3677 36.6519 73.4982 36.5867C73.6938 36.5215 73.8895 36.6519 73.8895 36.7823Z" fill="#E59E66"/>
<path d="M74.6063 38.8038C74.6715 38.9995 74.541 39.1299 74.4106 39.1951C74.215 39.2603 74.0845 39.1299 74.0193 38.9995C73.9541 38.869 74.0845 38.6734 74.215 38.6082C74.4106 38.5429 74.6063 38.6734 74.6063 38.8038Z" fill="#E59E66"/>
<path d="M75.7801 37.173C75.8453 37.3686 75.7149 37.499 75.5844 37.5643C75.3888 37.6295 75.2583 37.499 75.1931 37.3686C75.1279 37.173 75.2583 37.0425 75.3888 36.9773C75.5844 36.9121 75.7149 37.0425 75.7801 37.173Z" fill="#E59E66"/>
<path d="M63.7156 39.1303C63.7809 39.3259 63.6504 39.4564 63.52 39.5216C63.3243 39.5868 63.1939 39.4564 63.1287 39.3259C63.0635 39.1303 63.1939 38.9998 63.3243 38.9346C63.52 38.8694 63.6504 38.9346 63.7156 39.1303Z" fill="#E59E66"/>
<path d="M64.1063 41.6739C64.1715 41.8696 64.041 42 63.9106 42.0652C63.715 42.1305 63.5845 42 63.5193 41.8696C63.4541 41.6739 63.5845 41.5435 63.715 41.4783C63.9106 41.4131 64.1063 41.5435 64.1063 41.6739Z" fill="#E59E66"/>
<path d="M62.0203 41.0216C62.0855 41.2172 61.9551 41.3477 61.8247 41.4129C61.629 41.4781 61.4986 41.3477 61.4334 41.2172C61.3681 41.0216 61.4986 40.8912 61.629 40.8259C61.8247 40.7607 61.9551 40.8912 62.0203 41.0216Z" fill="#E59E66"/>
<path d="M72.0635 37.4998C72.52 39.1302 71.4113 41.5432 69.3243 42.1302C67.2374 42.7172 65.02 41.2824 64.5635 39.6519C64.107 38.0215 65.5417 36.8476 67.6287 36.2606C69.7157 35.6085 71.607 35.8693 72.0635 37.4998Z" fill="black"/>
<path opacity="0.4" d="M70.1725 37.1738C70.3029 37.6303 69.5203 38.3477 68.3464 38.6738C67.1725 38.9999 66.129 38.8694 65.9985 38.4129C65.8681 37.826 66.6507 37.1738 67.8246 36.8477C68.9985 36.5216 70.042 36.652 70.1725 37.1738Z" fill="white"/>
<path d="M75.5195 28.6961C74.9978 28.8265 74.4108 28.5656 74.2804 28.0439C74.2804 27.9787 73.7587 26.6091 72.8456 26.8048C72.8456 26.8048 72.8456 26.8048 72.7804 26.8048C71.8673 27.0656 71.9978 28.6961 71.9978 28.6961C72.063 29.283 71.6717 29.7396 71.0847 29.8048C70.4978 29.87 70.0413 29.4787 69.976 28.8917C69.8456 27.7178 70.1717 25.3048 72.3239 24.783C74.5413 24.2613 75.7804 26.2178 76.1717 27.3265C76.3673 27.9787 76.1065 28.5004 75.5195 28.6961Z" fill="#EACAAF"/>
<path d="M74.2155 27.5878C74.4112 28.24 74.0199 28.9574 73.3677 29.153C72.7155 29.3487 71.9981 28.9574 71.8025 28.3052C71.6068 27.653 71.9981 26.9356 72.6503 26.74C73.3677 26.5443 74.0199 26.9356 74.2155 27.5878Z" fill="black"/>
<path d="M57.1287 33.9783C56.5418 34.1087 55.9548 33.7826 55.8244 33.2609C55.5635 32.1522 55.5635 29.8044 57.7157 29.0217C59.8026 28.3044 61.3679 30.1957 61.8896 31.2391C62.1505 31.7609 61.8896 32.3478 61.4331 32.6087C60.9113 32.8696 60.3244 32.6087 60.0635 32.1522C60.0635 32.087 59.3461 30.7174 58.4331 30.9783C58.4331 30.9783 58.4331 30.9783 58.3678 30.9783C57.4548 31.3044 57.7809 32.7391 57.7809 32.7391C57.9765 33.2609 57.6505 33.8478 57.1287 33.9783Z" fill="#EACAAF"/>
<path d="M57.585 32.3472C57.7806 32.9994 58.498 33.3907 59.1502 33.195C59.8024 32.9994 60.1937 32.282 59.998 31.6298C59.8024 30.9776 59.085 30.5863 58.4328 30.782C57.7806 30.9776 57.4545 31.695 57.585 32.3472Z" fill="black"/>
<path d="M42.2603 33.5876C42.3255 31.2398 51.782 24.9789 53.0211 26.2833C54.2603 27.5876 55.4994 35.0876 54.8472 39.0007C54.3255 42.0007 56.1516 45.5224 54.3907 46.305C53.0211 46.892 49.9559 42.392 48.4559 41.0224C47.2168 39.9137 42.1298 36.7181 42.2603 33.5876Z" fill="#E59E66"/>
<path d="M54.8472 39.0006C54.3907 41.5441 55.6951 44.6093 54.9125 45.8485C54.782 44.5441 54.1951 43.305 53.9994 42.7832C53.7385 42.0659 52.6298 38.0224 52.9559 33.5876C53.2168 29.8702 52.6298 27.3919 51.7168 26.218C52.369 26.0224 52.8255 26.0224 53.0864 26.218C54.3255 27.5876 55.4994 35.0876 54.8472 39.0006Z" fill="#E19050"/>
<path d="M50.8698 32.0876C51.5872 33.5224 51.0002 36.2615 50.0872 36.6528C49.1741 37.0442 46.6959 35.8702 45.9785 34.4355C45.2611 33.0007 46.1741 32.0224 47.4785 31.3702C48.8481 30.7181 50.1524 30.6528 50.8698 32.0876Z" fill="#E19050"/>
<path d="M76.3687 20.2179C75.586 21.4571 78.3252 26.544 79.6295 29.2832C81.1947 32.6092 81.9121 38.544 83.6078 38.6092C85.3034 38.6745 87.26 30.9136 87.3904 27.8484C87.4556 24.8484 87.3252 22.3701 86.3469 21.7832C85.1078 21.0658 82.76 21.3266 80.4774 20.0875C78.7165 19.1745 77.1513 19.044 76.3687 20.2179Z" fill="#E59E66"/>
<path d="M83.7382 38.6095C83.673 38.6095 83.673 38.6095 83.6078 38.6095C81.9121 38.5442 81.1947 32.6095 79.6295 29.2182C78.3252 26.479 75.586 21.3921 76.3687 20.1529C76.6295 19.8269 76.9556 19.566 77.3469 19.4355C77.2165 19.9573 77.1513 21.1964 77.9991 22.8269C79.173 25.1095 81.7817 27.979 82.3687 30.4573C82.8252 32.6095 82.5643 37.2399 83.7382 38.6095Z" fill="#E19050"/>
<path d="M80.999 24.6523C81.4555 26.9349 82.9555 29.5436 83.9337 29.5436C84.8468 29.4784 86.0859 26.2175 86.0859 24.6523C86.0859 23.1523 84.9772 22.6958 83.5424 22.6958C82.1076 22.6306 80.7381 23.1523 80.999 24.6523Z" fill="#E19050"/>
<path d="M81.1945 22.0444C81.3249 22.5009 81.0641 22.9574 80.5423 23.0878C80.0858 23.2183 79.5641 22.9574 79.4336 22.5009C79.3032 22.0444 79.5641 21.5878 80.0858 21.4574C80.6075 21.327 81.0641 21.5878 81.1945 22.0444Z" fill="#E19050"/>
</svg>
