<svg width="150" height="150" viewBox="0 0 150 150" fill="none" xmlns="http://www.w3.org/2000/svg">
<path d="M45.847 38.2467C46.3876 35.0641 46.9282 31.8689 47.3179 28.6612C47.6196 26.1327 47.8333 23.5288 47.2047 21.0758C46.8653 19.7298 46.1362 18.3083 44.8539 17.9057C43.7727 17.5535 42.5659 18.0567 41.7864 18.8995C41.007 19.7423 40.5796 20.8745 40.2904 22.0192C38.455 29.3908 41.8116 37.19 41.1076 44.8006C41.0196 45.6938 40.8813 46.5743 40.8436 47.4675C40.8058 48.1216 40.8436 48.8386 41.2458 49.3544C42.8927 51.4551 44.8539 48.348 44.7533 46.7127C44.5773 43.9075 45.3819 41.0142 45.847 38.2467Z" fill="#60666D"/>
<path d="M64.2637 129.083C63.1197 129.398 61.9631 129.7 60.8191 130.014C59.7379 122.152 58.1413 114.353 56.0293 106.705C54.1562 99.9116 51.8933 93.2194 50.5733 86.3133C50.4224 85.5082 50.2841 84.6653 50.4853 83.8728C50.875 82.3633 52.4213 81.4324 53.9425 81.1054C56.9973 80.4638 60.2785 81.7721 62.4282 84.049C67.9974 89.9613 65.5208 96.49 64.5025 103.396C63.2454 111.9 63.7608 120.542 64.2637 129.083Z" fill="#60666D"/>
<path d="M97.038 103.22C95.0769 105.32 92.5877 107.258 92.0723 110.075C91.9717 110.629 91.9591 111.195 91.7454 111.723C91.4563 112.466 90.8151 113.006 90.2243 113.547C86.0379 117.422 83.4608 122.982 83.2093 128.68C81.7008 128.831 80.1796 128.769 78.6836 128.504C79.2996 122.441 81.2105 116.516 84.2402 111.233C84.6802 110.465 85.1454 109.698 85.3465 108.83C85.4974 108.151 85.4722 107.434 85.4219 106.742C84.9945 101.572 82.7945 96.7035 81.9648 91.5711C81.1225 86.4513 82.0779 80.4005 86.3899 77.5324C91.2803 74.2743 99.8289 75.5071 101.765 81.4195C104.179 88.7659 102.331 97.5463 97.038 103.22Z" fill="#60666D"/>
<path d="M37.0723 40.8888C35.9912 41.2788 34.9226 41.7316 34.03 42.4612C32.6471 43.5934 31.8426 45.2665 30.7111 46.6502C28.7751 49.0026 25.934 50.3989 23.7088 52.4871C22.9168 53.2293 22.1751 54.1098 21.9111 55.1665C21.4962 56.827 21.7979 58.7265 22.8791 60.0473C24.5888 62.1355 26.638 63.0915 29.1523 62.9028C33.8917 62.5632 43.5341 61.6826 48.0724 58.0849C50.2473 56.3615 52.3216 52.4493 53.013 49.7573C53.629 47.3546 53.1513 44.6752 51.7307 42.6374C48.1101 37.442 42.1009 39.0396 37.0723 40.8888Z" fill="#7A828C"/>
<path d="M65.1058 70.8899C65.6086 71.1415 59.5743 76.7645 59.2474 77.2551C58.8577 77.8338 58.0029 78.035 57.236 78.1986C52.6977 79.1294 48.1468 80.0603 43.6085 80.9912C42.6027 79.7962 42.1753 78.3495 41.8359 76.9155C40.189 70.2232 39.6233 63.3674 39.4347 56.5368C39.3593 53.7064 39.3719 50.7628 40.7799 48.184C42.8039 44.4605 50.7239 39.3406 52.7228 45.6052C54.6463 51.6433 54.4703 65.682 65.1058 70.8899Z" fill="#7A828C"/>
<path d="M68.0482 70.916C76.4711 71.7839 84.9443 72.2242 93.4175 72.2242C95.5924 72.2242 97.8176 72.1991 99.8542 72.8658C103.915 74.1866 106.417 77.9479 107.573 81.7091C108.918 86.0994 108.881 90.8167 107.447 95.1817C106.882 96.9051 106.077 98.6159 104.719 99.9368C101.74 102.83 96.925 103.233 92.5627 103.434C81.2483 103.95 69.8333 104.352 58.6824 102.553C54.3829 101.861 49.7063 100.566 47.4309 97.1819C46.5257 95.8484 46.0983 94.3012 45.696 92.7791C44.7154 89.0052 43.8731 85.2062 43.1943 81.3695C42.7794 78.992 42.44 76.4258 43.672 74.2873C44.904 72.1488 47.4309 70.9285 49.8069 69.8341C51.6298 68.9913 53.5658 67.7711 55.5144 67.205C57.6641 66.5886 57.4252 67.1044 59.1098 68.2994C61.6241 70.0983 64.9556 70.6141 68.0482 70.916Z" fill="#7A828C"/>
<path d="M55.4014 98.1247C66.5524 99.9236 77.9673 99.521 89.2817 99.0053C93.644 98.804 98.4589 98.4014 101.438 95.5082C102.796 94.1873 103.601 92.4765 104.166 90.7531C105.6 86.3881 105.637 81.6582 104.292 77.2806C104.204 77.0038 104.116 76.7271 104.016 76.4629C105.26 78.0227 106.165 79.8845 106.744 81.7337C108.089 86.1239 108.051 90.8412 106.618 95.2063C106.052 96.9297 105.248 98.6405 103.89 99.9613C100.91 102.855 96.0955 103.257 91.7332 103.458C80.4188 103.974 69.0038 104.377 57.8529 102.578C53.5534 101.886 48.8768 100.59 46.6014 97.2064C45.9351 96.2252 45.5202 95.1182 45.1934 93.9986C47.6825 96.4768 51.6803 97.5335 55.4014 98.1247Z" fill="#6D747C"/>
<path d="M51.3658 38.2719C52.0572 35.1019 52.7486 31.9444 53.2892 28.7493C53.7041 26.2334 54.0309 23.642 53.4778 21.1639C53.1761 19.8053 52.4721 18.3586 51.1646 17.9058C50.0583 17.5158 48.776 17.9687 47.9337 18.7738C47.0789 19.5914 46.6012 20.6984 46.2492 21.8306C44.024 29.1518 47.2046 37.0769 46.1612 44.6497C46.0354 45.5428 45.8594 46.4108 45.7714 47.304C45.7086 47.9581 45.7211 48.6751 46.1109 49.2035C47.7452 51.3671 49.92 48.3481 49.8698 46.7001C49.8069 43.8823 50.7623 41.0142 51.3658 38.2719Z" fill="#7A828C"/>
<path d="M86.3152 90.4258C86.29 88.7276 86.4283 86.9162 87.3963 85.5199C87.6352 85.1802 88.0249 84.8406 88.402 84.9789C88.666 85.0796 88.8043 85.3689 88.9175 85.6205C90.69 89.7466 92.3495 94.0865 95.4672 97.3194C95.7187 97.5835 95.9952 97.8477 96.1335 98.1999C96.3221 98.678 96.1964 99.2189 95.9324 99.6592C95.6684 100.087 95.2661 100.427 94.8512 100.716C93.6569 101.546 90.4386 103.408 89.2317 101.873C87.7609 99.9988 87.1072 97.0426 86.7049 94.7532C86.466 93.3317 86.3403 91.8851 86.3152 90.4258Z" fill="#6D747C"/>
<path d="M106.617 100.364C105.322 102.93 103.474 105.484 103.776 108.339C103.839 108.893 103.977 109.446 103.927 110.013C103.852 110.805 103.386 111.509 102.984 112.189C100.055 117.082 99.1372 123.145 100.508 128.68C99.0995 129.247 97.6286 129.624 96.1201 129.775C95.0138 123.787 95.1772 117.56 96.5978 111.635C96.7989 110.78 97.0378 109.899 96.9875 109.019C96.9498 108.327 96.7235 107.648 96.4721 106.993C94.6115 102.15 91.1417 98.0872 88.8914 93.4077C86.6411 88.7281 85.8617 82.6648 89.1931 78.6897C92.9772 74.1863 101.526 72.9661 105.046 78.0985C109.421 84.4762 110.112 93.4328 106.617 100.364Z" fill="#7A828C"/>
<path d="M64.2652 99.3826C60.5189 97.9486 59.4377 92.4011 59.5383 91.3066C58.872 94.1244 56.0057 96.7158 55.5531 99.5336C55.3143 101.018 56.4331 102.867 58.7337 102.037C61.3109 101.119 66.0126 100.062 64.2652 99.3826Z" fill="#6D747C"/>
<path d="M52.2588 129.36C51.0771 129.498 49.8953 129.637 48.7136 129.775C48.8016 121.837 48.3742 113.887 47.4187 106.012C46.5764 99.0183 42.0256 83.5708 41.7364 76.5388C41.6987 75.7212 55.3011 81.9857 57.0862 84.552C61.7126 91.2191 58.3057 97.3075 56.2817 104C53.7799 112.214 53.0131 120.831 52.2588 129.36Z" fill="#7A828C"/>
<path d="M39.6738 61.8337C40.315 61.5947 41.0944 61.5443 41.6727 61.3808C44.0487 60.7267 46.4373 59.6952 48.0716 57.7705C47.619 59.1542 46.7767 60.3619 45.8967 61.5192C44.3253 63.6074 42.4773 65.6956 40.0635 66.5761C39.9001 65.0163 39.7744 63.4313 39.6738 61.8337Z" fill="#6D747C"/>
<path d="M40.9313 47.0904C41.2708 46.9017 41.5976 46.6753 41.8365 46.3231C42.0628 45.9708 42.1759 45.4802 42.025 45.0651C41.8365 44.5368 41.2833 44.3229 40.8056 44.3607C40.3279 44.3984 39.8753 44.6374 39.4102 44.738C38.6182 44.9267 37.7382 44.7884 37.0342 45.2664C36.4056 45.6941 36.041 46.5998 36.1416 47.4552C36.1541 47.5684 36.1793 47.6816 36.2296 47.7697C36.2924 47.8578 36.3804 47.9207 36.4684 47.9584C36.8581 48.1471 37.2982 48.0968 37.713 48.0339C38.8445 47.8955 39.8502 47.6062 40.9313 47.0904Z" fill="#6D747C"/>
<path d="M22.8791 60.0088C21.7979 58.688 21.4962 56.7885 21.9111 55.128C22.1751 54.0713 22.9168 53.1908 23.7088 52.4486C24.2619 51.9328 24.8402 51.4674 25.4437 51.002C25.6071 51.0397 25.758 51.1152 25.9088 51.2158C26.8014 51.8448 27.2791 53.1908 27.6688 54.1594C28.6368 56.5998 29.63 59.0654 29.982 61.6567C30.0323 62.0216 30.0574 62.4241 30.0197 62.8015C29.718 62.8266 29.4288 62.8518 29.1648 62.8644C26.638 63.0405 24.5888 62.097 22.8791 60.0088Z" fill="#929BA5"/>
<path d="M49.6059 38.5862C49.8573 35.9319 50.2344 33.2902 50.7373 30.6863C51.2402 28.0949 51.8687 25.4532 51.4664 22.8493C51.3407 22.0442 50.863 21.063 50.0584 21.151C49.367 21.2265 49.0401 22.0442 48.9018 22.7235C48.2356 26.0948 48.575 29.5541 48.6756 32.9631C48.7258 34.6865 48.7258 36.4099 48.4996 38.1207C48.4367 38.561 48.0596 39.5296 48.5373 39.8189C49.2664 40.2844 49.5556 39.0264 49.6059 38.5862Z" fill="#EFAF93"/>
<path d="M39.6708 47.3146C39.9648 46.8105 39.7947 46.1635 39.291 45.8694C38.7873 45.5752 38.1406 45.7454 37.8467 46.2495C37.5527 46.7535 37.7228 47.4005 38.2265 47.6947C38.7303 47.9888 39.3769 47.8186 39.6708 47.3146Z" fill="#231F20"/>
<path d="M38.7324 46.5992C38.7324 46.8005 38.8959 46.964 39.097 46.964C39.2981 46.964 39.4616 46.8005 39.4616 46.5992C39.4616 46.3979 39.2981 46.2344 39.097 46.2344C38.8959 46.2344 38.7324 46.3979 38.7324 46.5992Z" fill="white"/>
<path d="M23.6827 55.7952C23.4942 56.4997 23.469 57.2418 23.6073 57.9589C23.3056 57.4557 23.029 56.9399 22.7776 56.4242C22.5639 55.9965 22.4507 55.3675 23.0667 55.1033C23.6576 54.8517 23.7959 55.3927 23.6827 55.7952Z" fill="#231F20"/>
<path d="M24.627 61.6944C24.8155 61.8202 25.6452 61.3421 26.3115 60.9773C26.9778 60.6 27.8076 59.8955 27.8076 59.8955L28.0213 60.1848C28.0213 60.1848 27.1915 61.0151 26.7767 61.2667C26.3618 61.5183 25.2681 62.0969 25.2681 62.0969L24.627 61.6944Z" fill="#231F20"/>
<path d="M113.834 82.3876C116.726 86.2495 118.486 90.8536 119.881 95.4703C120.786 98.4767 121.578 101.559 121.566 104.704C121.566 105.081 121.44 105.584 121.063 105.609C120.661 105.634 120.497 105.106 120.447 104.704C119.844 98.6403 117.933 92.7028 114.89 87.432C113.332 84.7274 111.358 82.0983 108.567 80.6894C106.178 79.4818 103.362 79.2679 100.999 78.01C100.71 77.859 100.433 77.6829 100.257 77.4187C99.9177 76.903 100.119 76.1734 100.546 75.7205C102.432 73.733 105.751 75.645 107.662 76.7646C110.076 78.1861 112.162 80.1485 113.834 82.3876Z" fill="#7A828C"/>
<path d="M123.062 103.232C123.062 104.289 122.685 105.308 122.308 106.302C121.83 107.585 121.34 108.868 120.862 110.151C120.447 109.157 120.032 108.163 119.617 107.182C118.863 105.383 117.43 101.987 119.416 100.44C121.201 99.0308 123.062 101.559 123.062 103.232Z" fill="#60666D"/>
<path d="M52.4731 126.944C52.4731 126.944 53.0137 131.397 52.4731 131.687C51.9325 131.976 47.4696 132.064 47.4193 131.687C47.3691 131.309 48.7142 126.944 48.7142 126.944H52.4731Z" fill="#231F20"/>
<path d="M64.1386 126.944C64.1386 126.944 64.7798 130.97 64.6415 131.158C64.5032 131.347 60.4175 131.636 60.078 131.397C59.7512 131.158 60.3672 126.944 60.3672 126.944H64.1386Z" fill="#231F20"/>
<path d="M100.119 126.667C100.119 126.667 100.748 129.711 100.522 130.29C100.283 130.869 95.3799 130.605 95.1536 130.29C94.7765 129.774 95.6439 126.378 95.6439 126.378L100.119 126.667Z" fill="#231F20"/>
<path d="M83.4475 126.378C83.4475 126.378 83.9001 129.246 83.6612 129.775C83.4224 130.316 78.3938 130.492 78.2555 130.014C78.1172 129.548 78.1172 129.548 78.1172 129.548L79.1229 125.46L83.4475 126.378Z" fill="#231F20"/>
<path opacity="0.13" d="M103.211 80.438C103.45 81.0921 103.614 81.8217 103.425 82.501C103.236 83.1803 102.62 83.7715 101.929 83.7338C101.024 83.6835 100.508 82.7274 100.043 81.9475C98.8112 79.8845 96.7243 78.3372 94.386 77.746C93.1037 77.4315 89.1688 77.0919 90.2877 75.2049C90.8785 74.1986 94.474 73.947 95.5426 74.0602C98.7483 74.425 102.143 77.4944 103.211 80.438Z" fill="white"/>
<path opacity="0.13" d="M50.4856 44.6744C50.5233 44.8254 50.5484 44.9889 50.5107 45.1398C50.473 45.3411 50.3221 45.5172 50.1587 45.6304C49.4924 46.1085 48.5496 45.8066 47.9084 45.316C47.2547 44.8254 46.7393 44.1586 46.0101 43.7938C45.4695 43.5171 44.8535 43.4416 44.2752 43.2655C41.6604 42.4982 42.8169 39.3156 45.2055 40.1458C47.2547 40.8754 49.945 42.4227 50.4856 44.6744Z" fill="white"/>
</svg>
