<svg width="150" height="150" viewBox="0 0 150 150" fill="none" xmlns="http://www.w3.org/2000/svg">
<path d="M32.9835 36.359C32.0554 35.93 31.0559 35.787 30.1277 36.1445C29.1282 36.5735 28.4143 37.6459 28.2715 38.7898C28.1287 39.9338 28.4857 41.0062 29.1282 42.0071C29.5566 42.6506 30.2705 43.294 31.0559 43.151C31.4128 43.0795 31.7698 42.8651 32.0554 42.6506C33.1263 41.7926 34.697 40.5057 35.1967 39.2188C35.7679 37.8604 34.0544 36.8595 32.9835 36.359Z" fill="#362038"/>
<path d="M46.6191 72.3926C46.6191 72.3926 36.1955 74.037 35.6244 78.1122C35.0532 82.1874 40.1936 106.925 40.1936 106.925C40.1936 106.925 36.5525 108.212 36.4811 109.642C36.3383 111.143 40.9789 111.358 42.4068 110.5C43.8347 109.642 60.3982 86.9776 51.9023 73.2505L46.6191 72.3926Z" fill="#362038"/>
<path d="M103.806 97.416C103.806 97.416 127.866 97.845 127.223 103.064C126.652 108.283 102.164 106.71 102.164 106.71L103.806 97.416Z" fill="#362038"/>
<path d="M56.0438 93.841C56.0438 93.841 57.1147 102.277 64.04 102.778C64.04 102.778 54.5445 103.064 52.3313 105.995C50.1181 108.855 52.3313 109.713 52.3313 109.713H87.1003L83.0308 91.3387L61.7553 86.8345L56.0438 93.841Z" fill="#362038"/>
<path d="M27.2006 47.5838C27.2006 47.5838 29.1996 32.7128 42.122 34.7147C55.0443 36.7166 55.7583 46.5829 58.5426 51.0871C61.327 55.5913 60.5417 57.8077 70.6796 54.1614C80.8176 50.5151 110.161 55.8773 111.446 96.5581C111.446 96.5581 114.302 108.927 101.879 109.928C90.9556 110.786 70.751 110.142 65.9676 109.999C65.3251 109.999 64.8253 109.499 64.7539 108.855C64.5397 107.139 64.6825 104.137 68.395 104.137C73.6068 104.208 75.6772 102.564 71.7506 101.348C67.8239 100.133 30.2705 97.4161 33.4119 74.6806C36.5532 52.0166 27.8431 61.7399 25.3443 58.4511C22.7741 55.2338 20.8465 53.3035 27.2006 47.5838Z" fill="#C3A48F"/>
<path d="M59.3984 72.3926C59.3984 72.3926 48.9748 74.037 48.4037 78.1122C47.8325 82.1874 52.9729 106.925 52.9729 106.925C52.9729 106.925 49.3318 108.212 49.2604 109.642C49.1176 111.143 53.7582 111.358 55.1861 110.5C56.614 109.642 73.1775 86.9776 64.6816 73.2505L59.3984 72.3926Z" fill="#8A5D5C"/>
<path d="M47.4051 37.6461C48.9043 37.7891 50.4036 38.5755 51.3317 39.791C52.2599 41.0064 52.5454 42.7223 51.9743 44.1522C51.3317 45.8681 49.6183 46.869 48.476 48.2989C48.6188 47.7984 48.6902 47.298 48.6902 46.726C48.6902 46.297 48.6902 45.7966 48.3332 45.6536C47.9048 45.4391 47.4051 45.8681 47.1195 46.2255C47.3337 45.4391 47.1909 44.5811 46.6911 44.0092C46.1914 43.4372 45.1918 43.2227 44.5493 43.6517C44.6207 43.0082 44.6921 42.2933 44.4065 41.7213C44.1209 41.1494 43.407 40.7919 42.7644 41.0779C42.4789 39.791 42.5503 39.219 43.764 38.504C44.8349 37.7891 46.12 37.5031 47.4051 37.6461Z" fill="#8A5D5C"/>
<path d="M33.2684 75.6817C37.0523 75.6817 40.8362 74.7523 44.1203 72.8934C49.4035 69.9621 55.9717 68.3892 58.6133 62.4551C59.6842 60.0242 60.0412 57.3789 60.7551 54.8051V54.7336C62.1116 56.378 64.0393 56.5209 70.6789 54.0901C71.1073 53.9471 71.6071 53.8041 72.1068 53.6611C72.7494 60.7392 74.32 67.7457 74.9626 74.8237C75.8193 83.3317 75.3196 92.3401 70.9645 99.6326C70.6789 100.062 70.3934 100.491 70.1078 100.92C62.183 99.5611 31.5549 95.7004 33.2684 75.6817Z" fill="#8A5D5C"/>
<path d="M33.1984 49.1567C33.4126 49.9431 34.9119 50.1576 36.6253 49.6572C38.2674 49.1567 39.4097 48.1557 39.1955 47.3693C38.9813 46.5829 37.482 46.3684 35.7686 46.8688C34.1979 47.3693 32.9842 48.3702 33.1984 49.1567Z" fill="#523241"/>
<path d="M49.9043 90.4812C50.9038 94.199 52.5459 97.7738 53.2598 101.563C53.831 100.348 54.4021 99.1322 54.9733 97.8453C55.4016 96.9158 55.83 95.8434 55.2588 94.9854C54.9019 94.4135 54.1879 94.056 54.1879 93.3411C54.2593 92.8406 54.6877 92.5546 54.9019 92.1256C55.2588 91.3392 54.4735 90.3383 53.6168 90.5527C53.831 89.7663 54.3307 89.0513 54.4021 88.2649C54.4735 87.4784 53.7596 86.4775 53.0456 86.7635C53.3312 85.1906 53.3312 83.6177 53.117 82.1163C53.0456 81.6873 52.9742 81.1869 52.6173 80.8294C52.2603 80.5434 51.6177 80.5434 51.475 81.0439C51.9033 79.7569 52.4745 76.3252 51.0466 75.6102C49.4759 74.8238 48.762 76.6826 48.5478 77.8266C47.9766 81.8303 48.8334 86.549 49.9043 90.4812Z" fill="#C3A48F"/>
<path d="M24.416 56.7356C25.2727 57.0216 25.7725 56.8071 26.4864 56.3781C26.4864 56.3781 26.5578 56.3781 26.5578 56.3066C25.3441 56.1636 24.2732 55.2342 24.2018 53.9473C24.059 52.0169 26.0581 52.4459 27.3431 52.4459C27.5573 52.4459 27.7001 52.4459 27.9143 52.4459C28.9852 52.5174 30.1989 52.7319 29.9847 54.0903C29.8419 55.2342 28.6282 56.0207 27.5573 56.2351C28.9138 56.8071 29.6278 57.5936 31.1984 56.8071C31.9124 56.4496 32.3407 55.7347 33.1261 55.5917C33.1975 55.5917 33.2689 55.7347 33.1975 55.8062C31.9838 57.0216 31.2698 58.094 29.5564 57.951C28.8424 57.8795 28.2713 57.5221 27.6287 57.2361C26.9862 56.9501 27.2004 57.0216 26.6292 57.3076C26.3436 57.4506 26.0581 57.5936 25.7011 57.665C25.4155 57.7365 25.0585 57.7365 24.7016 57.665C24.3446 57.2361 24.059 56.8071 23.7734 56.3781L24.416 56.7356Z" fill="#523241"/>
</svg>
