<svg width="150" height="150" viewBox="0 0 150 150" fill="none" xmlns="http://www.w3.org/2000/svg">
<path d="M114.065 121.044C106.435 122.414 78.9132 124.566 63.9784 123.196C62.348 123.066 60.5871 122.87 58.6958 122.609C42.9784 120.653 19.4349 115.761 17.2176 113.348C14.7393 110.674 17.5436 107.348 26.7393 100.044C34.1741 94.1092 45.848 93.7179 50.0219 93.8484C51.0002 93.8484 51.5219 93.9136 51.5219 93.9136C46.0436 86.4136 46.0436 72.7832 46.0436 72.7832C39.3262 68.4788 36.3262 61.4353 36.9784 58.9571C37.6306 56.4788 40.6306 55.9571 40.6306 55.9571C40.6306 55.9571 40.1089 54.6527 40.761 52.5005C41.4132 50.1527 47.2828 45.5875 47.2828 45.5875C47.2828 45.5875 47.1523 45.3919 46.9567 45.0005C46.3697 43.9571 45.1958 41.4788 44.9349 37.7614C44.5436 32.7397 46.6958 21.9788 48.848 21.5223C51.4567 21.0005 53.1523 23.3484 54.3262 25.044C55.4349 26.6092 59.6089 34.631 61.4349 38.1527C61.9567 39.1962 62.2828 39.8484 62.2828 39.8484C62.2828 39.8484 63.1306 40.1092 65.8697 40.6962C68.6741 41.2832 71.7393 42.7832 71.7393 42.7832C71.7393 42.7832 71.9349 42.6527 72.3263 42.3919C73.1741 41.8049 74.8045 40.5658 76.6958 39.1962C79.4349 37.2397 82.5002 34.9571 83.8697 33.9788C86.6089 32.0223 88.1089 32.9353 88.1089 32.9353C90.1958 33.131 92.4784 39.131 89.7393 47.7397C89.1523 49.5658 88.4349 51.1962 87.5871 52.5658C85.8262 55.5658 83.8045 57.6527 82.5654 58.7614C81.848 59.4136 81.3915 59.7397 81.3915 59.7397C81.9132 61.8266 81.848 64.5658 81.848 64.5658C81.848 64.5658 83.0219 65.4136 85.3697 65.544C87.7176 65.7397 94.0436 63.0658 109.696 65.544C125.348 68.0223 129.326 81.7179 131.022 92.8701C132.587 104.088 121.761 119.74 114.065 121.044Z" fill="#BF4D34"/>
<path d="M80.3475 72.7826C77.8693 76.1739 75.4562 76.7609 75.4562 76.7609C75.4562 76.7609 72.4562 85.1739 64.891 89.5435C57.3258 93.8478 56.478 94.1087 56.478 94.1087L51.4562 93.913C50.5432 92.6739 49.7606 91.1739 49.1084 89.6739C46.1084 82.5 45.978 73.5652 45.978 72.7826C45.978 72.7174 45.978 72.7174 45.978 72.7174C39.3258 68.4783 36.3258 61.5 36.978 58.9565C37.6301 56.4783 40.6301 55.9565 40.6301 55.9565C40.6301 55.9565 40.1084 54.6522 40.7606 52.5C41.0214 53.4783 41.8041 54.3261 42.7823 54.587C43.6301 54.8478 44.478 54.7174 45.3258 54.7826C47.2823 54.9783 48.9128 56.413 49.891 58.1087C50.478 59.1522 50.9345 60.2609 51.7823 61.1087C53.2171 62.6087 55.4345 62.8696 57.5214 63C61.9562 63.3261 66.4562 63.3261 70.6954 64.6304C74.8693 66 82.891 69.3261 80.3475 72.7826Z" fill="#F2DCB3"/>
<path d="M61.3711 38.2177C56.2841 39.8481 51.4581 42.1307 47.0233 45.0003C47.0233 45.0003 46.9581 45.0003 46.9581 45.0655C46.3711 44.022 45.1972 41.5438 44.9363 37.8264C44.8711 37.2394 44.8711 36.522 44.8711 35.8046C45.0667 30.3916 46.9581 22.0438 48.7841 21.6525C51.3928 21.0655 53.0885 23.4786 54.2624 25.1742C54.9146 26.022 56.4146 28.8916 57.9798 31.8916C59.2841 34.1742 60.5233 36.6525 61.3711 38.2177Z" fill="url(#paint0_linear_834_26091)"/>
<path d="M58.045 31.8262C56.4798 32.4131 54.7189 32.6088 53.0885 33.0653C50.3494 33.9131 47.6754 35.7392 44.8711 35.7392C45.0667 30.3262 46.9581 21.9783 48.7841 21.587C51.3928 21.0001 53.0885 23.4131 54.2624 25.1088C54.9146 26.0218 56.4798 28.8914 58.045 31.8262Z" fill="#40180A"/>
<path d="M45.1319 36.7174C45.1971 33.7826 45.9145 30.9131 46.7623 28.1739C46.8927 27.7826 47.0232 27.3261 47.4145 27.2609C47.8058 27.1305 48.1971 27.4565 48.458 27.7826C51.458 31.0435 53.5449 35.1522 54.458 39.5218C54.5232 39.8479 54.5884 40.2392 54.458 40.5652C54.3275 41.0218 53.871 41.3478 53.4145 41.6087C52.1754 42.3261 50.9362 43.1087 49.6971 43.7609C49.1101 44.087 48.458 44.5435 47.871 44.8044C47.0232 45.1305 47.0232 45 46.6319 44.1522C45.458 41.8696 45.0667 39.2609 45.1319 36.7174Z" fill="#F2A172"/>
<path d="M52.5657 37.8911C52.1092 37.6955 51.6527 37.565 51.1961 37.6302C50.7396 37.6955 50.2831 38.0868 50.2179 38.5433C50.2179 38.8694 50.3483 39.1302 50.4787 39.3911C50.9353 40.0433 51.5874 40.4998 52.2396 40.9563C51.6527 40.8259 51.0657 40.8259 50.4787 40.9563C50.0222 41.0868 49.5657 41.3476 49.4353 41.7389C49.3048 42.1955 49.7614 42.7172 50.1527 42.5216C49.5657 42.652 48.9135 42.7824 48.457 43.1737C48.0005 43.565 47.8048 44.3476 48.1961 44.8042C48.3918 44.9998 48.6527 45.1302 48.9135 45.1955C51.2614 45.8476 53.8048 44.6737 55.2396 42.7172C55.8918 41.8042 56.3483 40.6955 55.5005 39.8476C54.6527 38.9998 53.6744 38.3476 52.5657 37.8911Z" fill="#BF4D34"/>
<path d="M56.2832 39.7825C56.2832 39.7825 58.8267 39.3912 62.218 39.9129" stroke="#40180A" stroke-width="0.2279" stroke-miterlimit="10" stroke-linecap="round" stroke-linejoin="round"/>
<path d="M89.6748 47.8052C89.0878 49.6313 88.3704 51.2617 87.5226 52.6313C85.7617 55.6313 83.74 57.7183 82.5008 58.827C82.3704 58.6313 82.24 58.4357 82.1095 58.1748C81.3922 56.9357 80.8052 55.5661 80.153 54.327C78.0661 50.4791 75.0008 47.2835 72.7835 43.5009C72.5878 43.1748 72.3922 42.8487 72.2617 42.4574C73.1095 41.8704 74.74 40.6313 76.6313 39.2617C79.3704 37.3052 82.4356 35.0226 83.8052 34.0444C86.5443 32.0878 88.0443 33.0009 88.0443 33.0009C90.1313 33.1313 92.4139 39.1313 89.6748 47.8052Z" fill="url(#paint1_linear_834_26091)"/>
<path d="M89.6755 47.8052C89.0886 49.6313 88.3712 51.2617 87.5234 52.6313C85.0451 49.9574 82.6973 47.1531 80.4147 44.2835C79.1103 42.6531 77.7407 41.0226 76.6973 39.2617C79.4364 37.3052 82.5016 35.0226 83.8712 34.0444C86.6103 32.0878 88.1103 33.0009 88.1103 33.0009C90.132 33.1313 92.4147 39.1313 89.6755 47.8052Z" fill="#40180A"/>
<path d="M75.7172 43.501C78.7825 40.8923 82.1738 38.6749 85.7607 36.9141C86.152 36.7184 86.5433 36.5228 86.9999 36.588C87.5868 36.6532 88.0433 37.1097 88.239 37.6315C88.4346 38.1532 88.4999 38.7402 88.4999 39.3271C88.4346 44.1532 86.739 48.9793 83.8042 52.7619C83.3477 53.3489 82.8259 54.001 82.1738 54.3923C81.5216 54.8489 80.739 55.1097 79.9564 55.0445C78.7172 54.9141 77.8042 53.9358 76.9564 53.0228C76.4999 52.501 76.0433 51.9793 75.5216 51.4576C74.8694 50.7402 74.152 49.9576 73.6955 49.1097C73.3042 48.3271 72.8477 47.0228 73.1738 46.1749C73.4999 45.1315 74.9346 44.1532 75.7172 43.501Z" fill="#F2A172"/>
<path d="M76.8257 43.8265C76.6952 44.0874 76.4344 44.2831 76.1735 44.4135C75.5865 44.8048 74.8691 45.0657 74.217 45.2613C74.8691 45.2613 75.5213 45.457 76.0431 45.8483C76.5648 46.2396 76.9561 46.8918 76.8909 47.5439C76.7604 48.5222 75.7822 49.1744 74.8691 49.6309C75.3257 49.5005 75.7822 49.6309 76.1083 49.957C76.4344 50.2831 76.63 50.7396 76.6952 51.1961C76.8257 52.0439 76.4996 53.0874 75.6518 53.2831C74.9996 53.4787 74.3474 53.0222 73.8257 52.5657C71.6735 50.6092 70.3039 46.6961 71.217 43.8265C71.9996 41.2831 77.8691 41.7396 76.8257 43.8265Z" fill="#BF4D34"/>
<path d="M53.8046 78.7172C53.2176 82.1085 52.109 85.3694 50.4785 88.3042C50.2176 88.8259 49.8916 89.3477 49.3698 89.6085C49.3046 89.6737 49.2394 89.6737 49.109 89.739C46.1089 82.565 45.9785 73.6303 45.9785 72.8477C46.3698 73.0433 46.7611 73.4998 46.9568 73.6303C47.609 74.0868 48.1959 74.5433 48.9133 74.9346C49.7611 75.4564 50.609 75.8477 51.522 76.1085C51.9785 76.3042 52.5003 76.4346 52.8916 76.6303C53.3481 76.8911 53.7394 77.2824 53.8046 77.8042C53.8698 78.0651 53.8698 78.3911 53.8046 78.7172Z" fill="url(#paint2_linear_834_26091)"/>
<path d="M67.5005 75.1309C72.2189 75.1309 76.044 71.3059 76.044 66.5874C76.044 61.869 72.2189 58.0439 67.5005 58.0439C62.7821 58.0439 58.957 61.869 58.957 66.5874C58.957 71.3059 62.7821 75.1309 67.5005 75.1309Z" fill="url(#paint3_linear_834_26091)"/>
<path d="M40.6309 55.9564C40.6309 55.8912 44.9352 56.0217 49.5656 52.1738" stroke="#40180A" stroke-width="0.2279" stroke-miterlimit="10" stroke-linecap="round" stroke-linejoin="round"/>
<path d="M43.8263 59.8693C43.8263 60.3258 43.6959 60.7824 43.435 61.1084C43.1089 61.565 42.5872 61.8258 42.0655 62.0215C42.0003 62.0215 41.935 62.0867 41.8698 62.0867C41.6742 62.1519 41.5437 62.1519 41.3481 62.2171C40.8263 62.2824 40.1742 62.4128 39.522 62.3476C39.4568 62.3476 39.3916 62.3476 39.3263 62.3476C39.0003 62.2824 38.7394 62.2171 38.4785 62.0867C38.1524 61.8911 37.8263 61.565 37.5655 61.2389C37.5003 61.1737 37.5003 61.1737 37.435 61.1084C37.1742 60.6519 36.9785 60.065 36.9785 59.5432C36.9785 59.478 36.9785 59.4128 36.9785 59.3476C36.9785 59.3476 36.9785 59.3476 36.9785 59.2824C37.0437 58.6302 37.2394 57.9128 37.7611 57.4563C38.1524 57.065 38.5437 56.6737 39.1307 56.6084C39.6524 56.5432 40.109 56.6084 40.5655 56.8041C41.2829 57.1302 42.0003 57.5215 42.5872 58.1084C43.1089 58.565 43.6307 59.1519 43.6959 59.8693C43.8263 59.8041 43.8263 59.8693 43.8263 59.8693Z" fill="#40180A"/>
<path d="M41.9993 62.0866C41.9341 62.0866 41.8689 62.1518 41.8037 62.1518C41.8037 61.7605 41.7384 61.4344 41.608 61.1084C41.4124 60.7823 41.1515 60.5214 40.8254 60.391C40.695 60.3257 40.5645 60.3257 40.4993 60.3257C40.4341 60.3257 40.3037 60.391 40.2385 60.4562C39.9776 60.6518 39.7819 60.9127 39.6515 61.2388C39.5863 61.4997 39.5211 61.891 39.5211 62.2823C39.5211 62.2823 39.5211 62.2823 39.5211 62.3475C39.5211 62.4127 39.4558 62.4127 39.4558 62.4127C39.3906 62.4127 39.3906 62.3475 39.3906 62.3475C39.3906 61.891 39.3906 61.5649 39.5211 61.2388C39.6515 60.8475 39.9124 60.5214 40.1732 60.3257C40.3037 60.2605 40.4341 60.1953 40.4993 60.1953C40.6298 60.1953 40.7602 60.1953 40.9558 60.2605C41.2819 60.391 41.608 60.6518 41.8037 61.0431C41.9341 61.304 41.9993 61.6953 41.9993 62.0866Z" fill="#F2DCB3"/>
<path d="M38.2169 59.5439C38.2169 59.7395 38.2169 59.9352 38.1517 60.1308C38.0212 60.5221 37.8908 60.8482 37.6299 61.1743C37.5647 61.1091 37.5647 61.1091 37.4995 61.0439C37.6951 60.7178 37.8256 60.3917 37.956 60.0656C38.0212 59.9352 38.0212 59.7395 38.0212 59.5439C38.0212 59.3482 37.8908 59.2178 37.7604 59.1526C37.6299 59.0873 37.4343 59.0873 37.3038 59.2178C37.2386 59.283 37.1082 59.3482 37.043 59.4134C37.043 59.3482 37.043 59.283 37.043 59.2178C37.043 59.2178 37.043 59.2178 37.043 59.1526C37.1082 59.0873 37.1734 59.0873 37.1734 59.0221C37.3691 58.8917 37.6299 58.8917 37.8256 58.9569C38.0212 59.0873 38.1517 59.283 38.2169 59.5439Z" fill="#F2DCB3"/>
<path d="M38.413 61.8252C38.413 61.8252 37.7608 62.9339 38.5434 65.0208" stroke="#40180A" stroke-width="0.2279" stroke-miterlimit="10" stroke-linecap="round" stroke-linejoin="round"/>
<path d="M61.5011 58.109C61.5011 59.022 60.7837 59.7394 59.8707 59.7394C58.9576 59.7394 58.2402 59.022 58.2402 58.109C58.2402 57.1959 58.9576 56.4785 59.8707 56.4785C60.7837 56.5437 61.5011 57.2611 61.5011 58.109Z" fill="#40180A"/>
<path d="M47.2177 52.4349C46.9569 53.2827 46.109 53.674 45.3264 53.4131C44.5438 53.1523 44.1525 52.2392 44.4786 51.4566C44.7395 50.6088 45.5873 50.2175 46.3699 50.4783C47.1525 50.7392 47.5438 51.587 47.2177 52.4349Z" fill="#40180A"/>
<path d="M60.8472 52.6306C60.8472 53.2828 61.4342 53.6741 61.9559 54.0654C62.8037 54.5871 63.6515 55.1089 64.3689 55.8263C64.5646 56.0219 64.8255 56.2828 65.0863 56.2176C65.4776 56.1523 65.6081 55.6306 65.5428 55.2393C65.4124 53.935 64.6298 52.761 63.5863 52.0437C62.8689 51.4567 60.782 51.0002 60.8472 52.6306Z" fill="#40180A"/>
<path d="M51.1956 48.3914C50.739 48.7175 50.1521 48.5871 49.6303 48.3914C48.7825 48.1305 47.9999 47.8044 47.0869 47.7392C46.826 47.7392 46.5651 47.674 46.4347 47.4784C46.239 47.1523 46.5651 46.8262 46.826 46.6305C47.739 46.0436 48.9782 45.9131 50.0216 46.174C50.8695 46.3697 52.3695 47.5436 51.1956 48.3914Z" fill="#40180A"/>
<path d="M76.4352 63.9128C76.5656 63.978 76.696 63.8476 76.7612 63.7172C77.0221 63.3911 77.6091 61.1085 76.6308 61.565C76.3047 61.8259 76.1091 63.7824 76.4352 63.9128Z" fill="#40180A"/>
<path d="M77.6099 67.1732C77.7404 67.2384 77.8708 67.108 78.0012 66.9776C78.2621 66.6515 78.9143 64.2384 77.8708 64.695C77.4795 64.9558 77.2839 67.0428 77.6099 67.1732Z" fill="#40180A"/>
<path d="M78.9137 63.6521C79.0441 63.7173 79.1745 63.5869 79.2398 63.4564C79.5006 63.1304 80.0876 60.8477 79.1093 61.3043C78.7832 61.4999 78.5876 63.5217 78.9137 63.6521Z" fill="#40180A"/>
<path d="M123.586 97.1746C123.716 97.2398 123.847 97.1093 123.912 96.9789C124.173 96.6528 124.76 94.3702 123.782 94.8267C123.456 95.0876 123.325 97.0441 123.586 97.1746Z" fill="#40180A"/>
<path d="M124.76 100.435C124.891 100.5 125.021 100.37 125.152 100.239C125.413 99.9132 126.065 97.5002 125.021 97.9567C124.63 98.2175 124.434 100.305 124.76 100.435Z" fill="#40180A"/>
<path d="M126.064 96.9138C126.194 96.979 126.325 96.8486 126.39 96.7182C126.651 96.3921 127.238 94.1095 126.26 94.566C125.934 94.7616 125.738 96.7834 126.064 96.9138Z" fill="#40180A"/>
<path d="M58.957 96.2621C58.957 96.3925 59.0875 96.4578 59.2179 96.523C59.6092 96.6534 61.957 96.3273 61.1744 95.6099C60.9136 95.3491 58.957 95.936 58.957 96.2621Z" fill="#40180A"/>
<path d="M56.3477 98.5448C56.3477 98.6752 56.4781 98.8056 56.6737 98.8056C57.065 98.9361 59.5433 98.61 58.7607 97.8926C58.3694 97.5665 56.3477 98.2187 56.3477 98.5448Z" fill="#40180A"/>
<path d="M60.1953 98.4144C60.1953 98.5449 60.3257 98.6101 60.4562 98.6753C60.8475 98.8058 63.1953 98.4797 62.4127 97.7623C62.0866 97.5014 60.1953 98.0884 60.1953 98.4144Z" fill="#40180A"/>
<path d="M59.348 118.5C59.348 119.935 59.1523 121.37 58.6958 122.674C42.9784 120.718 19.4349 115.826 17.2176 113.413C14.7393 110.74 17.5436 107.413 26.7393 100.109C34.1741 94.1743 45.848 93.783 50.0219 93.9134C54.3915 98.4786 56.6089 104.74 58.2393 110.87C58.8263 113.348 59.348 115.892 59.348 118.5Z" fill="#F2DCB3"/>
<path d="M75.3262 98.7399C75.3262 98.7399 78.5218 82.7616 94.3044 78.5225" stroke="#40180A" stroke-width="0.2279" stroke-miterlimit="10" stroke-linecap="round" stroke-linejoin="round"/>
<path d="M49.957 93.8487C49.957 93.8487 63.7831 93.327 79.8918 100.762C96.0005 108.197 102.196 110.284 105.327 110.284" stroke="#40180A" stroke-width="0.2279" stroke-miterlimit="10" stroke-linecap="round" stroke-linejoin="round"/>
<path d="M45.9785 72.7832C45.9785 72.7832 48.9785 75.4571 53.4133 76.8919" stroke="#40180A" stroke-width="0.2279" stroke-miterlimit="10" stroke-linecap="round" stroke-linejoin="round"/>
<path d="M64.957 79.0439C64.957 79.0439 70.5657 79.4352 75.457 76.8917C80.3483 74.4135 81.5223 70.9569 81.8483 69.5222C82.1744 68.0874 81.7831 64.6309 81.7831 64.6309" stroke="#40180A" stroke-width="0.2279" stroke-miterlimit="10" stroke-linecap="round" stroke-linejoin="round"/>
<path d="M84.7188 65.4141C86.6753 66.8488 88.2405 68.8054 89.1535 71.088" stroke="#40180A" stroke-width="0.2279" stroke-miterlimit="10" stroke-linecap="round" stroke-linejoin="round"/>
<defs>
<linearGradient id="paint0_linear_834_26091" x1="54.0232" y1="43.467" x2="49.6939" y2="18.4901" gradientUnits="userSpaceOnUse">
<stop offset="0.0186192" stop-color="#BF4D34" stop-opacity="0"/>
<stop offset="0.2532" stop-color="#9A3D28" stop-opacity="0.2369"/>
<stop offset="0.5935" stop-color="#692918" stop-opacity="0.5807"/>
<stop offset="0.8534" stop-color="#4B1D0E" stop-opacity="0.8433"/>
<stop offset="1" stop-color="#40180A" stop-opacity="0.9914"/>
</linearGradient>
<linearGradient id="paint1_linear_834_26091" x1="77.0124" y1="51.1392" x2="91.4827" y2="35.6641" gradientUnits="userSpaceOnUse">
<stop offset="0.0186192" stop-color="#BF4D34" stop-opacity="0"/>
<stop offset="0.1277" stop-color="#A4422B" stop-opacity="0.1102"/>
<stop offset="0.3016" stop-color="#80331F" stop-opacity="0.2859"/>
<stop offset="0.4768" stop-color="#642716" stop-opacity="0.4629"/>
<stop offset="0.6517" stop-color="#501F0F" stop-opacity="0.6396"/>
<stop offset="0.8262" stop-color="#441A0B" stop-opacity="0.8158"/>
<stop offset="1" stop-color="#40180A" stop-opacity="0.9914"/>
</linearGradient>
<linearGradient id="paint2_linear_834_26091" x1="53.8887" y1="89.4424" x2="44.6751" y2="67.5738" gradientUnits="userSpaceOnUse">
<stop offset="0.0186183" stop-color="#BF4D34" stop-opacity="0"/>
<stop offset="0.2832" stop-color="#AF4A34" stop-opacity="0.1348"/>
<stop offset="0.7987" stop-color="#854436" stop-opacity="0.3974"/>
<stop offset="1" stop-color="#734136" stop-opacity="0.5"/>
</linearGradient>
<linearGradient id="paint3_linear_834_26091" x1="75.8647" y1="79.7061" x2="58.3637" y2="52.2692" gradientUnits="userSpaceOnUse">
<stop offset="0.0223422" stop-color="#BF6956" stop-opacity="0"/>
<stop offset="0.3419" stop-color="#CC785D" stop-opacity="0.1634"/>
<stop offset="0.9496" stop-color="#EF9E70" stop-opacity="0.4742"/>
<stop offset="1" stop-color="#F2A172" stop-opacity="0.5"/>
</linearGradient>
</defs>
</svg>
