<svg width="150" height="150" viewBox="0 0 150 150" fill="none" xmlns="http://www.w3.org/2000/svg">
<path d="M121.187 127.436C121.329 128.265 121.499 129.134 121.997 129.808C122.496 130.482 123.442 130.922 124.208 130.57C123.103 121.846 123.005 113.025 123.916 104.279C124.284 100.756 124.811 97.1482 123.944 93.7128C123.541 92.1133 122.589 90.3849 120.959 90.1259C116.365 89.3913 115.343 96.8311 116.077 99.907C117.417 105.512 118.288 111.231 119.303 116.906C119.932 120.416 120.56 123.926 121.187 127.436Z" fill="#CCBDB0"/>
<path d="M104.234 127.245C104.075 128.073 103.919 128.936 104.143 129.75C104.367 130.564 105.093 131.307 105.935 131.249C108.018 122.706 111.077 114.432 115.052 106.588C116.654 103.429 118.435 100.247 118.853 96.7279C119.047 95.0901 118.775 93.1368 117.345 92.3115C113.315 89.9859 109.699 96.5708 109.291 99.7061C108.541 105.42 107.309 111.074 106.233 116.736C105.567 120.24 104.901 123.743 104.234 127.245Z" fill="#CCBDB0"/>
<path d="M54.2837 130.774L58.0627 131.252C57.5563 124.461 58.065 117.632 59.5721 110.991C60.28 107.899 61.1947 104.845 61.5657 101.697C61.8319 99.4318 61.6804 96.8386 59.9558 95.358C58.4096 94.0302 55.5665 94.2808 54.2313 95.852C53.0065 97.2986 53.7796 99.6314 53.9254 101.336C54.455 107.536 54.6966 113.751 54.6504 119.983C54.6221 123.582 54.4998 127.178 54.2837 130.774Z" fill="#CCBDB0"/>
<path d="M70.0138 131.252L72.9872 131.238C70.6943 123.154 69.6023 114.777 69.7462 106.376C69.7802 104.394 69.8736 102.356 69.1869 100.499C68.5002 98.6418 66.7926 96.9955 64.8132 97.0677C64.0798 97.096 63.3194 97.389 62.906 97.9963C62.7053 98.3202 62.5706 98.6805 62.5095 99.0565C61.5382 103.791 64.4083 109.547 65.6741 113.996C67.3024 119.702 68.7489 125.454 70.0138 131.252Z" fill="#CCBDB0"/>
<path d="M58.5111 13.5535C59.2389 13.9612 50.4107 17.6231 48.0023 32.6486C47.947 32.9897 47.9485 33.3564 47.7616 33.6395C47.358 34.2694 46.4434 34.2594 45.7071 34.1278C41.6307 33.3974 44.8901 27.6901 46.0568 25.4451C47.773 22.1476 50.1547 19.2417 53.0514 16.9111C54.7221 15.5706 57.6205 13.1062 58.5111 13.5535Z" fill="#7C6A4C"/>
<path d="M39.0116 35.0554C34.6223 39.9856 29.2263 44.9427 22.8972 44.6808C22.3025 44.6554 21.6399 44.6058 21.1868 45.0206C20.5581 45.5952 20.7181 46.6753 20.9857 47.5175C21.3946 48.877 21.9994 50.1697 22.7811 51.3549C25.3481 55.1017 29.9569 56.6942 34.2768 56.5399C38.5968 56.3856 42.734 54.7436 46.7849 53.12L52.1059 50.9883C53.9225 50.2607 55.858 49.4312 56.9412 47.7001C58.0739 45.8826 57.9975 43.4706 57.4807 41.3502C56.532 37.466 53.6988 32.7156 50.2596 30.8174C45.8575 28.3814 41.9227 31.78 39.0116 35.0554Z" fill="#F9E6D5"/>
<path d="M46.3355 74.3659C46.6994 77.0794 47.1454 79.9741 48.9903 81.9969C52.0104 85.3077 57.4291 84.8279 61.5126 82.9877C63.7709 81.9657 65.9599 80.5276 67.1833 78.3718C68.2452 76.4991 68.476 74.2668 68.442 72.1153C68.4054 69.8658 68.106 67.6283 67.55 65.4483C66.9242 62.9924 65.9769 60.6356 65.0339 58.2773L58.1102 40.9927C56.884 37.9338 55.4624 34.6456 52.5881 33.0418C44.3348 28.4443 38.4617 39.3224 40.9466 46.172C44.2513 55.302 45.0371 64.7136 46.3355 74.3659Z" fill="#F9E6D5"/>
<path d="M43.5417 54.5757C43.4822 54.6181 43.4227 54.6634 43.3633 54.7087C43.805 56.6692 44.1746 58.641 44.496 60.6255L44.6093 60.4641C47.2584 56.6805 49.8722 52.5741 50.1469 47.9639C48.3685 50.5854 46.113 52.7454 43.5417 54.5757Z" fill="#E8D7C8"/>
<path d="M52.665 113.293L54.2919 111.028C54.9243 112.409 55.5563 113.791 56.1877 115.173C56.6153 114.435 57.0439 113.697 57.4734 112.96L60.2018 115.1C60.3812 114.477 60.5652 113.851 60.754 113.222C61.7414 114.1 62.7292 114.976 63.7175 115.852C64.2272 115.154 64.7374 114.455 65.2481 113.757C66.0033 114.64 66.7561 115.523 67.5065 116.405C67.6849 116.616 67.9143 116.844 68.1705 116.789C68.3702 116.745 68.5047 116.544 68.6165 116.364L71.6806 111.331C73.2926 114.419 75.2216 117.331 77.4362 120.021C77.65 120.278 77.8978 120.553 78.215 120.571C78.6397 120.595 78.9456 120.176 79.1806 119.797C81.732 115.64 83.7005 111.153 85.0311 106.462C88.0286 112.19 93.0437 116.615 98.7937 118.601L98.4369 114.182C99.1269 115.634 100.23 116.852 101.609 117.681C101.619 116.616 101.628 115.552 101.637 114.489C105.45 117.531 109.976 119.552 114.788 120.36C114.058 118.708 113.662 116.928 113.622 115.123C115.574 117.316 118.278 118.687 121.067 118.9C120.663 117.356 120.405 115.779 120.297 114.187C121.535 115.751 123.205 116.916 125.1 117.539C124.74 114.861 124.38 112.183 124.019 109.506C125.331 111.281 127.232 112.52 129.281 112.935C127.548 109.708 126.426 106.189 125.971 102.555C125.475 98.6281 125.75 94.6279 125.278 90.6957C123.933 79.492 116.18 69.7053 106.447 65.9542C94.4667 61.3439 80.8981 65.2747 68.7511 61.2023C64.2032 59.6779 59.8719 57.5631 55.324 60.3276C52.5659 62.0049 49.3518 64.9039 47.7065 67.9161C46.1957 70.6777 46.2099 73.8215 46.4846 76.9356C46.9745 82.4971 47.9656 88.0558 48.8817 93.5493C49.988 100.168 51.2491 106.749 52.665 113.293Z" fill="#F9E6D5"/>
<path d="M67.9148 106.63L64.8593 111.665C64.746 111.85 64.6129 112.051 64.4133 112.089C64.157 112.145 63.9276 111.915 63.7492 111.706L61.4909 109.057L59.9589 111.152C58.9725 110.275 57.9846 109.398 56.9954 108.522L56.4418 110.409L53.7133 108.269L52.4263 110.481L51.6914 108.892C51.9925 110.362 52.3021 111.831 52.6202 113.298L54.2471 111.033L56.1416 115.178L57.4286 112.966L60.1557 115.106C60.3445 114.476 60.5295 113.846 60.7107 113.218L63.6742 115.848C64.1858 115.149 64.696 114.451 65.2048 113.753L67.4617 116.407C67.6416 116.618 67.8695 116.846 68.1272 116.79C68.3269 116.746 68.46 116.545 68.5732 116.366L71.1955 112.055C69.9905 110.317 68.8949 108.505 67.9148 106.63Z" fill="#E8D7C8"/>
<path d="M125.054 117.539C124.694 114.86 124.334 112.183 123.974 109.506C125.284 111.281 127.185 112.519 129.236 112.934C127.502 109.707 126.379 106.188 125.924 102.554C125.43 98.6274 125.703 94.6272 125.231 90.695C124.417 83.9105 121.253 77.6455 116.72 72.9248C119.293 76.8614 120.932 81.3335 121.512 85.9998C121.983 89.9292 121.709 93.9266 122.204 97.8588C122.658 101.493 123.78 105.012 125.515 108.239C123.466 107.825 121.563 106.585 120.253 104.81C120.613 107.488 120.973 110.166 121.333 112.843C119.438 112.221 117.767 111.054 116.531 109.489C116.638 111.08 116.896 112.658 117.301 114.201C114.512 113.99 111.807 112.618 109.855 110.426C109.895 112.231 110.292 114.011 111.021 115.663C106.21 114.855 101.684 112.835 97.8704 109.793C97.861 110.855 97.8516 111.919 97.8421 112.983C96.4645 112.154 95.3618 110.938 94.6719 109.486C94.7909 110.959 94.9103 112.432 95.0301 113.905C91.666 112.739 88.5538 110.744 85.957 108.135C89.0055 113.046 93.5831 116.808 98.7568 118.594L98.4 114.175C99.0874 115.629 100.187 116.848 101.563 117.68C101.572 116.616 101.581 115.552 101.591 114.488C105.404 117.53 109.93 119.551 114.741 120.36C114.012 118.707 113.616 116.928 113.576 115.122C115.528 117.315 118.231 118.686 121.022 118.899C120.617 117.356 120.359 115.778 120.252 114.187C121.489 115.75 123.16 116.916 125.054 117.539Z" fill="#E8D7C8"/>
<path d="M81.2663 101.761C79.9358 106.453 77.9668 110.94 75.4144 115.096C75.1808 115.477 74.8679 115.896 74.4502 115.87C74.4019 115.867 74.3543 115.857 74.3086 115.841C75.2642 117.286 76.2955 118.679 77.3981 120.015C77.6105 120.273 77.8597 120.547 78.1754 120.566C78.5931 120.59 78.9075 120.171 79.1411 119.791C81.6016 115.784 83.5198 111.467 84.8458 106.956C83.448 105.374 82.2462 103.63 81.2663 101.761Z" fill="#E8D7C8"/>
<path d="M121.871 72.4088C124.157 73.3678 126.613 73.8569 129.092 73.847C128.086 74.4074 126.986 74.7814 125.846 74.951L128.665 76.7346C128.005 76.7538 127.371 76.9929 126.862 77.414C127.618 78.6474 128.431 79.8444 129.302 81.0051C129.109 80.7475 125.431 80.6513 124.874 80.5125C123.266 80.0889 121.709 79.4903 120.23 78.7276C117.785 77.506 113.829 75.6461 112.185 73.3898C110.706 71.3571 111.63 69.9246 113.983 69.6104C116.842 69.2296 119.389 71.3642 121.871 72.4088Z" fill="#F9E6D5"/>
<path d="M68.0105 17.8875C68.5528 18.5216 59.0039 18.9222 51.569 32.2024C51.4005 32.5039 51.2759 32.8465 51.0027 33.0517C50.4066 33.5032 49.5514 33.1805 48.9057 32.8026C45.3291 30.7147 50.3542 26.4781 52.2218 24.771C54.9676 22.2637 58.2042 20.3536 61.7267 19.1614C63.7571 18.4706 67.3266 17.1542 68.0105 17.8875Z" fill="#99855C"/>
<path d="M53.4024 40.5512C55.2054 42.178 57.2341 43.5358 59.4256 44.5825C58.8451 42.9887 58.265 41.3958 57.6855 39.8038C57.5297 39.3721 57.3612 38.9234 57.0271 38.6091C56.6929 38.2949 56.2866 38.1717 55.8731 38.0429C55.1652 37.8193 51.9327 36.4151 51.4427 37.0846C50.7603 38.0132 52.8374 40.0416 53.4024 40.5512Z" fill="#E8D7C8"/>
<path d="M60.6124 32.7238C63.7826 33.7444 66.5819 35.6426 69.3344 37.5167C68.1125 37.6115 67.27 38.7524 66.1797 39.313C65.1999 39.8169 64.0488 39.8311 62.9458 39.8098C60.0007 39.7532 57.0273 39.5182 54.2196 38.6279C51.746 37.8423 48.8873 35.7799 51.4458 33.3594C53.6589 31.263 58.0227 31.8915 60.6124 32.7238Z" fill="#F9E6D5"/>
<path d="M53.5159 34.6631C55.3977 33.7685 57.6065 33.7685 59.6326 34.2498C61.6588 34.7311 63.549 35.6653 65.4166 36.5854C64.6917 36.9662 63.8591 37.0836 63.0435 37.1516C61.9448 37.2408 60.8418 37.2478 59.7388 37.2549L53.9449 37.2931C53.4508 37.2931 52.8221 37.2026 52.7004 36.7269C52.6253 36.4311 52.7924 36.0829 52.6253 35.8281C52.4837 35.6073 52.1694 35.5861 51.94 35.4558C51.3524 35.1246 51.9712 35.0156 52.1198 34.9746C52.5857 34.8401 53.0189 34.8995 53.5159 34.6631Z" fill="#E8D7C8"/>
<path d="M43.2329 37.2911C42.8619 37.7497 42.7033 38.3386 42.4471 38.8708C42.2024 39.3825 41.8665 39.8454 41.4559 40.2368C41.1175 40.5581 40.7012 40.8851 40.6715 41.3494C40.646 41.7429 40.9306 42.1066 41.2832 42.285C41.6462 42.4424 42.0405 42.5145 42.4357 42.4959C43.4835 42.5072 44.5737 42.3544 45.4488 41.7882C46.3238 41.222 46.9241 40.1264 46.6806 39.1086C46.3649 37.788 44.5044 35.7227 43.2329 37.2911Z" fill="#E8D7C8"/>
<path d="M45.8131 40.7425C45.8134 41.0956 45.7089 41.4408 45.5129 41.7346C45.3169 42.0283 45.0381 42.2573 44.7119 42.3926C44.3857 42.5279 44.0266 42.5635 43.6802 42.4947C43.3337 42.426 43.0155 42.2561 42.7656 42.0066C42.5158 41.757 42.3456 41.439 42.2766 41.0927C42.2076 40.7464 42.2429 40.3874 42.378 40.0612C42.5131 39.7349 42.7419 39.4561 43.0355 39.2599C43.3292 39.0637 43.6745 38.959 44.0276 38.959C44.5008 38.9594 44.9545 39.1473 45.2892 39.4817C45.624 39.816 45.8123 40.2695 45.8131 40.7425Z" fill="#231F20"/>
<path d="M44.0639 40.4312C44.0639 40.553 44.0277 40.672 43.9601 40.7733C43.8924 40.8745 43.7962 40.9534 43.6837 41C43.5711 41.0466 43.4473 41.0588 43.3278 41.0351C43.2083 41.0113 43.0986 40.9527 43.0124 40.8666C42.9263 40.7805 42.8676 40.6707 42.8439 40.5513C42.8201 40.4319 42.8323 40.308 42.8789 40.1955C42.9255 40.083 43.0045 39.9869 43.1058 39.9192C43.2071 39.8515 43.3261 39.8154 43.4479 39.8154C43.5289 39.8152 43.6091 39.831 43.6839 39.8619C43.7587 39.8928 43.8267 39.9381 43.8839 39.9954C43.9411 40.0526 43.9865 40.1205 44.0174 40.1953C44.0483 40.2701 44.0641 40.3503 44.0639 40.4312Z" fill="white"/>
<path d="M21.5653 44.7269C21.9027 44.6252 22.2558 44.5858 22.6074 44.6108C22.9557 44.6589 23.3054 44.8656 23.4173 45.1982C23.5192 45.4969 23.4173 45.8253 23.2643 46.1041C23.1114 46.383 22.9245 46.642 22.8396 46.9435C22.7192 47.3554 22.8056 47.7928 22.8934 48.2175C22.9812 48.6421 23.0732 49.0753 22.9613 49.4914C22.8495 49.9076 22.4629 50.2784 22.0382 50.2218C21.67 50.1737 21.4123 49.8368 21.2311 49.5141C20.5515 48.2911 19.617 45.1926 21.5653 44.7269Z" fill="#231F20"/>
<path d="M25.7871 54.295C25.9287 54.3899 27.785 53.8704 29.2249 53.3042C30.6649 52.738 32.718 51.7344 32.718 51.7344L32.936 51.9524C31.8873 52.5184 30.8092 53.0282 29.7063 53.4797C28.306 54.0317 26.4639 54.714 26.4639 54.714L25.7871 54.295Z" fill="#231F20"/>
<path d="M54.4429 127.74C54.4429 127.74 52.2214 131.439 52.1548 131.977C52.0883 132.515 58.6057 132.174 58.5391 131.709C58.4726 131.245 57.9161 128.778 57.9161 128.778L54.4429 127.74Z" fill="#231F20"/>
<path d="M69.188 127.164C69.188 127.164 66.781 131.435 66.7173 131.965C66.6535 132.496 73.1993 132.331 73.1327 131.866C73.0662 131.402 72.1416 128.028 72.1416 128.028L69.188 127.164Z" fill="#231F20"/>
<path d="M104.311 126.121C104.311 126.121 101.904 130.392 101.838 130.922C101.773 131.453 108.322 131.288 108.255 130.823C108.189 130.359 107.264 126.985 107.264 126.985L104.311 126.121Z" fill="#231F20"/>
<path d="M120.961 126.418C120.961 126.418 118.554 130.689 118.491 131.219C118.427 131.75 124.974 131.585 124.908 131.12C124.841 130.656 123.916 127.281 123.916 127.281L120.961 126.418Z" fill="#231F20"/>
<path d="M56.3882 103.808C56.3572 102.655 56.4235 101.502 56.5865 100.36L58.7485 103.065L58.8462 102.033C60.0885 103.424 61.3307 104.815 62.5729 106.205C62.1481 102.808 61.8848 99.3735 61.7842 95.9438C63.6249 98.8073 65.5675 101.763 68.4489 103.587C66.5176 97.4121 64.5859 91.2358 62.6536 85.0586C62.3777 87.7369 62.5018 90.4413 63.0217 93.0831C61.9957 91.5354 60.9696 89.9874 59.9436 88.4388C59.8163 91.3078 59.9519 94.1824 60.3485 97.0266C59.2923 96.3387 58.59 95.2374 57.9202 94.1716L54.6637 88.9908C54.5037 92.2552 54.9738 95.5197 56.0484 98.6063C54.3819 97.4385 53.3384 95.8659 52.3996 94.1079C51.9437 95.3818 53.2846 97.7117 53.8155 98.9206C54.3465 100.129 56.3543 102.584 56.3882 103.808Z" fill="#E8D7C8"/>
<path d="M109.639 102.676C109.608 101.524 109.674 100.37 109.838 99.2283L111.998 101.933L112.096 100.901L115.824 105.074C115.399 101.669 115.136 98.2478 115.035 94.8119C116.876 97.6755 118.819 100.631 121.7 102.456C119.771 96.2803 117.839 90.104 115.905 83.9268C115.629 86.605 115.753 89.3094 116.273 91.9512L113.195 87.307C113.067 90.1759 113.202 93.0506 113.6 95.8948C112.543 95.2083 111.841 94.107 111.171 93.0397L107.915 87.859C107.755 91.1232 108.225 94.3876 109.298 97.4745C107.63 96.3081 106.584 94.7341 105.644 92.976C105.188 94.25 106.529 96.5799 107.06 97.7887C107.591 98.9976 109.603 101.452 109.639 102.676Z" fill="#E8D7C8"/>
<path d="M94.2385 107.289C94.2061 106.136 94.2724 104.983 94.4368 103.841L96.5974 106.546L96.6951 105.514C97.9383 106.904 99.1805 108.295 100.422 109.686C99.998 106.28 99.7351 102.859 99.6331 99.4235C101.474 102.288 103.418 105.244 106.299 107.067C104.368 100.893 102.436 94.7184 100.504 88.5439C100.227 91.2222 100.351 93.9267 100.872 96.5684C99.846 95.017 98.8199 93.4671 97.7939 91.9185C97.6652 94.7875 97.8007 97.6622 98.1988 100.506C97.1426 99.8198 96.4346 98.7129 95.7691 97.6513L92.5125 92.472C92.3527 95.7357 92.8224 98.9997 93.8959 102.086C92.2279 100.92 91.1816 99.3456 90.2414 97.5876C89.7855 98.8615 91.1264 101.191 91.6573 102.407C92.1883 103.623 94.2045 106.065 94.2385 107.289Z" fill="#E8D7C8"/>
<path opacity="0.49" d="M80.8846 67.2645C80.6651 68.0614 81.1607 68.9192 81.8559 69.3665C82.5511 69.8138 83.4021 69.9327 84.2261 70.0106C87.831 70.3432 91.4727 70.0106 95.0776 70.3475C98.4089 70.6596 101.662 71.5401 104.696 72.9506C105.361 73.2606 106.045 73.6031 106.78 73.6045C107.515 73.6059 108.311 73.136 108.397 72.407C108.495 71.579 107.702 70.9434 106.981 70.5287C102.806 68.1379 98.0411 67.0876 93.2907 66.6431C91.4104 66.4662 81.5118 64.9912 80.8846 67.2645Z" fill="white"/>
<path opacity="0.49" d="M34.5937 40.4234C34.0854 40.7065 33.5445 40.9896 33.216 41.4652C33.1298 41.5704 33.0872 41.7047 33.0971 41.8403C33.1137 41.904 33.1435 41.9634 33.1844 42.0148C33.2254 42.0663 33.2767 42.1086 33.335 42.139C33.9183 42.4957 34.6617 42.1546 35.2535 41.812C38.5101 39.9195 41.7837 37.9038 44.2969 35.0898C44.9581 34.3495 45.9592 33.0614 45.2555 32.0479C44.6042 31.1123 43.6059 31.5483 43.058 32.2956C41.5416 34.3651 40.1412 36.3213 38.1476 37.9859C37.0429 38.9091 35.8529 39.7253 34.5937 40.4234Z" fill="white"/>
</svg>
