<svg width="150" height="150" viewBox="0 0 150 150" fill="none" xmlns="http://www.w3.org/2000/svg">
<path d="M38.7116 43.7285C38.3367 39.9944 36.275 29.5272 43.1954 31.2069C47.8667 32.144 56.2577 39.0572 53.8428 44.2908L38.7116 43.7285Z" fill="#895C37"/>
<path d="M45.8133 93.0654C46.0007 96.6194 45.4384 100.916 45.0924 104.462C44.7175 107.267 42.4756 108.579 40.6085 110.633C38.9217 112.5 37.9918 114.555 41.3294 114.958C44.3211 115.146 51.2343 112.529 53.296 110.475C55.9128 107.483 55.9128 99.0775 55.9128 95.5236L45.8133 93.0654Z" fill="#895C37"/>
<path d="M123.178 68.022C126.919 70.8262 134.95 77.9268 132.895 83.5352C131.965 85.9646 129.161 87.8605 126.544 87.082C123.553 86.152 122.428 82.5981 121.498 79.7939L123.178 68.022Z" fill="#895C37"/>
<path d="M82.86 110.677C81.0361 111.52 77.5327 113.762 81.1803 114.886C82.9839 115.218 84.8112 115.403 86.6446 115.442C88.7495 115.723 90.9698 116.162 93.2334 115.723C96.5927 115.16 96.5927 113.063 96.1746 110.114L82.86 110.677Z" fill="#895C37"/>
<path d="M21.7495 63.7259C21.0287 62.2841 19.1255 62.0174 17.2729 62.1688C16.7228 63.421 16.5091 64.7951 16.6529 66.1553C16.7964 67.6511 17.2585 69.0989 18.0082 70.4012C20.0627 68.5125 22.6146 65.456 21.7495 63.7259Z" fill="#FFBBD0"/>
<path d="M125.607 72.6933C123.927 63.3219 118.131 53.8207 108.789 50.6417C101.688 48.3997 94.5874 49.3369 87.2994 48.5872C83.9329 48.2123 69.3568 44.1033 67.8357 43.541L59.0771 42.0488C54.9689 40.1417 50.5256 39.0615 46.0004 38.8697C42.259 38.6823 37.9626 41.8614 34.971 44.1033C31.0148 47.2152 27.27 50.5867 23.7613 54.1956C21.4906 56.5961 18.5638 59.0975 17.2734 62.1685C19.1261 62.0171 21.0652 62.2694 21.7501 63.7256C22.6151 65.4557 20.0632 68.5122 18.0087 70.4009C19.6091 73.1835 22.334 75.0433 25.0661 76.9969C29.1751 79.7939 33.4787 82.973 36.6506 86.7143C40.3919 91.0396 43.3836 95.1197 47.8674 98.6737C51.7076 101.641 55.8404 104.208 60.2016 106.337C65.0603 108.579 84.7114 113.992 90.1036 113.062C100.917 111.383 112.71 108.578 118.881 98.8611C123.365 91.7605 127.294 80.9185 125.607 72.6933Z" fill="#C18752"/>
<path d="M112.155 74.748C102.437 76.2475 95.7044 81.4882 92.5326 90.8596C91.0332 94.9686 91.2206 98.5226 92.1577 102.632C92.8786 105.811 94.7745 107.865 95.7044 110.669C93.6499 111.599 91.0332 111.044 88.9787 112.724C85.987 115.528 89.5409 116.645 91.9703 116.278C95.7044 116.09 112.335 113.517 116.076 112.399C121.31 110.713 122.708 104.686 123.646 99.6399C124.366 95.1561 124.302 94.0387 124.857 89.5476C125.044 87.4931 126.378 78.5254 126.003 76.6512" fill="#C18752"/>
<path d="M112.156 74.748C108.223 75.3215 104.472 76.7861 101.191 79.0301C97.9838 81.3492 95.453 84.4823 93.8602 88.1059C93.4565 88.9998 93.096 89.9153 92.7788 90.8524C92.448 91.7727 92.1901 92.7176 92.0075 93.6783C91.6566 95.6062 91.6225 97.5785 91.9066 99.5174C92.0363 100.491 92.2166 101.457 92.4328 102.401C92.6573 103.343 92.9811 104.259 93.3988 105.133C94.2278 106.899 95.3668 108.572 96.0156 110.518L96.1093 110.792L95.8426 110.914C94.7036 111.347 93.5142 111.633 92.3031 111.765C91.1798 111.889 90.1111 112.315 89.2105 112.998C88.7977 113.353 88.4742 113.8 88.2662 114.303C88.1876 114.515 88.1905 114.749 88.2744 114.959C88.3583 115.17 88.5171 115.341 88.7203 115.442C89.7094 115.953 90.8398 116.123 91.9354 115.925H91.9715C94.5594 115.73 97.1834 115.348 99.7786 114.987C102.374 114.627 104.983 114.209 107.578 113.776C110.174 113.344 112.769 112.89 115.306 112.291C116.551 112.015 117.709 111.439 118.68 110.612C119.641 109.763 120.433 108.741 121.016 107.598C122.128 105.225 122.898 102.706 123.301 100.116C123.805 97.5422 124.094 94.9326 124.353 92.3086C124.613 89.6846 125.009 87.0822 125.37 84.4727C125.543 83.1679 125.708 81.8631 125.845 80.5511C125.918 79.8951 125.975 79.2463 126.018 78.5903C126.087 77.9337 126.087 77.2717 126.018 76.6151C126.105 77.2698 126.126 77.9314 126.083 78.5903C126.083 79.2463 126.018 79.9023 125.968 80.5655C125.86 81.8775 125.73 83.1895 125.586 84.4943C125.298 87.1111 125.009 89.7351 124.75 92.3446C124.49 94.9542 124.267 97.5998 123.791 100.202C123.404 102.837 122.641 105.403 121.527 107.822C120.926 109.042 120.093 110.133 119.076 111.037C118.039 111.926 116.803 112.552 115.472 112.861C112.891 113.481 110.296 113.935 107.694 114.389C105.091 114.843 102.496 115.247 99.8867 115.636C97.2771 116.025 94.682 116.415 92.0147 116.595C91.3905 116.681 90.7574 116.681 90.1332 116.595C89.4839 116.529 88.858 116.317 88.3022 115.975C87.9829 115.782 87.7311 115.495 87.5813 115.153C87.4442 114.796 87.4442 114.4 87.5813 114.043C87.8261 113.443 88.2089 112.91 88.6987 112.486C89.6975 111.703 90.8968 111.219 92.1589 111.087C93.318 110.985 94.4605 110.743 95.5614 110.367L95.3812 110.763C94.7757 108.925 93.6655 107.274 92.8149 105.443C92.3783 104.521 92.0447 103.554 91.8201 102.559C91.6038 101.579 91.4164 100.599 91.2938 99.5967C90.8807 96.5914 91.2277 93.5304 92.3031 90.6938C92.6336 89.748 93.0113 88.8193 93.4348 87.9113C95.0894 84.244 97.7141 81.0984 101.026 78.8138C104.38 76.6324 108.186 75.2421 112.156 74.748Z" fill="#895C37"/>
<path d="M24.5391 76.6222C26.6008 77.1773 28.2804 75.4976 29.3978 74.1928C31.6469 71.9509 31.8271 69.8676 30.8972 66.9048" fill="#C18752"/>
<path d="M24.5391 76.6222C25.0071 76.6873 25.4837 76.6529 25.9376 76.5213C26.3735 76.3827 26.7847 76.1759 27.1558 75.9085C27.8979 75.3481 28.5643 74.6938 29.1383 73.9622C30.0637 73.0972 30.7196 71.9832 31.027 70.7543C31.1561 70.1311 31.1949 69.4926 31.1423 68.8584C31.0908 68.203 31.0042 67.5509 30.8828 66.9048C31.1643 67.5125 31.3817 68.1479 31.5316 68.8007C31.6807 69.4749 31.7149 70.1696 31.6325 70.8552C31.526 71.555 31.2809 72.2265 30.9116 72.8304C30.5434 73.4232 30.0973 73.9638 29.5852 74.4379C28.9746 75.1876 28.2438 75.8307 27.4226 76.3411C26.9784 76.594 26.4883 76.7557 25.9808 76.8168C25.4915 76.8707 24.9965 76.8039 24.5391 76.6222Z" fill="#895C37"/>
<path d="M35.0625 60.6401C35.0625 59.8503 35.2967 59.0781 35.7356 58.4214C36.1744 57.7646 36.7981 57.2528 37.5278 56.9505C38.2576 56.6482 39.0606 56.5691 39.8353 56.7232C40.61 56.8773 41.3216 57.2577 41.8801 57.8162C42.4386 58.3747 42.819 59.0863 42.9731 59.861C43.1272 60.6357 43.0481 61.4387 42.7458 62.1684C42.4435 62.8982 41.9317 63.5219 41.2749 63.9607C40.6182 64.3996 39.846 64.6338 39.0562 64.6338C37.997 64.6338 36.9812 64.213 36.2322 63.4641C35.4833 62.7151 35.0625 61.6993 35.0625 60.6401Z" fill="#594B3D"/>
<path d="M45.0117 81.2429C45.7326 82.2233 50.0579 84.7463 50.9013 83.3478C51.6222 82.3674 49.6397 80.6806 48.9405 79.9813C50.1876 80.5148 53.9866 82.9658 54.8228 80.7022C55.104 79.5849 52.444 78.1791 51.7447 77.9052C53.0062 78.1791 57.5117 79.866 58.1893 78.1791C58.7516 77.0618 56.5097 75.6561 55.6663 75.238C57.209 74.9568 58.4705 75.238 59.9915 74.5171" fill="#C18752"/>
<path d="M45.0117 81.2433C45.4057 81.6418 45.8548 81.9817 46.3453 82.2525C46.8225 82.5279 47.3188 82.7689 47.8303 82.9734C48.3318 83.1964 48.8564 83.3632 49.3946 83.4708C49.9065 83.5717 50.5192 83.5645 50.7139 83.1968C50.7809 83.0794 50.8161 82.9464 50.8161 82.8112C50.8161 82.6759 50.7809 82.543 50.7139 82.4255C50.5761 82.1341 50.3964 81.8645 50.1804 81.6253C49.727 81.1184 49.2456 80.637 48.7386 80.1836L47.4627 78.9941L49.0558 79.715C49.5965 79.9529 50.0651 80.2124 50.5697 80.4359C51.0527 80.6756 51.5512 80.8827 52.0619 81.0558C52.5379 81.2363 53.0453 81.3197 53.5541 81.3009C53.7663 81.2946 53.971 81.2215 54.1393 81.0921C54.3075 80.9627 54.4307 80.7835 54.4912 80.5801C54.4936 80.4525 54.4685 80.3259 54.4175 80.209C54.3664 80.092 54.2908 79.9875 54.1957 79.9024C53.9791 79.6526 53.7375 79.4256 53.4748 79.2248C52.9047 78.8122 52.2935 78.4595 51.651 78.1723L51.8528 77.5308C52.7828 77.7686 53.6262 78.057 54.5129 78.2516C55.3589 78.4882 56.2382 78.5832 57.1152 78.5328C57.3002 78.5326 57.4813 78.4804 57.6381 78.3823C57.7949 78.2841 57.9209 78.144 58.0019 77.9777C58.1533 77.6893 58.0019 77.2568 57.7208 76.9613C57.1274 76.2971 56.4192 75.7452 55.6302 75.3321L55.1977 75.087L55.6735 75.0149C56.4133 74.9349 57.1568 74.894 57.901 74.8923C58.64 74.8796 59.3714 74.7406 60.0636 74.4814C59.3861 74.8132 58.6527 75.0161 57.901 75.0798C57.1757 75.1282 56.4537 75.2173 55.7384 75.3465L55.7816 75.0293C56.6473 75.4268 57.43 75.9845 58.0884 76.6729C58.255 76.8676 58.3911 77.0863 58.4921 77.3217C58.6002 77.5974 58.6002 77.9038 58.4921 78.1795C58.3935 78.4482 58.2084 78.6764 57.9659 78.8283C57.7468 78.9679 57.5015 79.0611 57.245 79.1023C56.2779 79.2102 55.2991 79.1319 54.3615 78.8716C53.4532 78.6697 52.5521 78.3814 51.6942 78.1507L51.8961 77.5091C52.5968 77.8075 53.2638 78.1796 53.8857 78.6193C54.2073 78.8448 54.5023 79.106 54.7652 79.3978C54.9348 79.5675 55.0622 79.7746 55.1373 80.0024C55.2124 80.2303 55.2331 80.4725 55.1977 80.7098C55.0866 81.0364 54.8808 81.3224 54.6066 81.5316C54.3279 81.7334 53.9983 81.8533 53.655 81.8776C53.0549 81.8971 52.4569 81.7966 51.8961 81.5821C51.3614 81.391 50.8389 81.1671 50.3318 80.9117C49.8344 80.6666 49.337 80.3854 48.89 80.1908L49.2288 79.6934C49.7404 80.1803 50.2219 80.6979 50.6706 81.2433C50.9085 81.5264 51.1007 81.8451 51.2401 82.1876C51.3348 82.3795 51.378 82.5927 51.3654 82.8063C51.3528 83.0199 51.2847 83.2266 51.168 83.4059C51.0703 83.5488 50.9406 83.667 50.7891 83.7508C50.6377 83.8347 50.4687 83.882 50.2957 83.8889C49.9955 83.9104 49.6937 83.8836 49.4019 83.8096C48.8445 83.6711 48.3068 83.4628 47.8015 83.1896C47.3031 82.9294 46.8216 82.6381 46.3598 82.3174C45.8585 82.0299 45.4039 81.6677 45.0117 81.2433Z" fill="#895C37"/>
<path d="M70.5234 66.9485C71.1866 68.7147 73.6448 71.6487 75.1515 70.315C76.413 69.3274 74.7261 66.9485 74.0269 66.2493C74.8703 66.3863 77.5304 67.5108 78.0926 66.3863C78.9361 65.1247 76.6509 64.0074 75.8507 63.582C76.9681 63.4451 78.9361 64.1443 80.0534 63.4451C81.5961 62.4647 80.3346 61.3401 78.9361 60.7778" fill="#C18752"/>
<path d="M70.5234 66.9485C70.9251 67.7759 71.461 68.531 72.1094 69.1833C72.4273 69.5023 72.7776 69.7874 73.1546 70.0339C73.4962 70.2757 73.9039 70.4065 74.3225 70.4087C74.5095 70.3957 74.6892 70.3308 74.8415 70.2213L75.0794 70.0195C75.134 69.9561 75.1801 69.8858 75.2163 69.8104C75.3557 69.4485 75.3557 69.0477 75.2163 68.6858C74.9044 67.8762 74.4283 67.1399 73.8178 66.5232L73.097 65.7375L74.1494 65.9321C74.5531 66.0114 74.8703 66.1195 75.2308 66.2132C75.5912 66.307 75.9084 66.3935 76.2472 66.4583C76.569 66.5285 76.8984 66.5575 77.2276 66.5448C77.3462 66.5563 77.4657 66.5355 77.5735 66.4848C77.6814 66.434 77.7735 66.3552 77.8403 66.2565C77.9095 66.1676 77.9528 66.0614 77.9655 65.9494C77.9782 65.8375 77.9599 65.7243 77.9124 65.6221C77.7866 65.37 77.6099 65.1466 77.3934 64.9661C76.8843 64.5299 76.3224 64.1593 75.721 63.8632L74.7478 63.3586L75.8219 63.2793C76.5136 63.2741 77.2041 63.3369 77.8836 63.4667C78.5145 63.5921 79.1669 63.5548 79.7795 63.3586C80.0657 63.2424 80.3149 63.0505 80.5004 62.8035C80.5825 62.6836 80.6265 62.5416 80.6265 62.3962C80.6265 62.2508 80.5825 62.1089 80.5004 61.9889C80.098 61.4571 79.5638 61.0396 78.9505 60.7778C79.6227 60.9649 80.2263 61.343 80.6878 61.8664C80.8061 62.0229 80.8765 62.2104 80.8906 62.4061C80.9046 62.6018 80.8617 62.7974 80.7671 62.9693C80.5696 63.2821 80.287 63.5322 79.9525 63.6902C79.2969 63.954 78.5859 64.0507 77.8836 63.9713C77.231 63.8892 76.5727 63.8626 75.9156 63.892L76.0165 63.3081C76.6581 63.5926 77.2632 63.9532 77.8187 64.3822C78.1274 64.6238 78.3745 64.935 78.5396 65.2905C78.6313 65.4981 78.6681 65.7258 78.6467 65.9517C78.6252 66.1776 78.5461 66.3943 78.417 66.5809C78.2938 66.7952 78.1075 66.9663 77.8836 67.0711C77.6799 67.1661 77.4594 67.22 77.2348 67.2297C76.8428 67.2481 76.45 67.2142 76.067 67.1288C75.6993 67.0567 75.3461 66.963 74.9929 66.862C74.6396 66.7611 74.272 66.653 73.9909 66.5881L74.2936 66.0042C74.9668 66.7212 75.4738 67.5777 75.7786 68.5128C75.8716 68.7664 75.9131 69.036 75.9008 69.3059C75.8884 69.5757 75.8224 69.8403 75.7065 70.0843C75.6341 70.2156 75.5417 70.3348 75.4326 70.4376C75.3461 70.5025 75.2452 70.589 75.1298 70.6683C74.8932 70.8139 74.6219 70.8935 74.3441 70.8989C73.8208 70.8825 73.3161 70.7008 72.9023 70.3799C72.5255 70.0916 72.1886 69.7547 71.9003 69.3779C71.2955 68.6599 70.8287 67.8363 70.5234 66.9485Z" fill="#895C37"/>
<path d="M78.6562 91.8974C78.7932 92.7336 81.4605 96.7993 82.4409 95.1197C82.859 94.3988 81.0351 91.1981 80.4729 90.4916C81.3163 91.3351 84.5386 94.1393 85.382 91.9334C85.8001 90.953 83.7024 88.9922 82.9959 88.4299C83.8394 89.1508 85.519 89.6915 86.5066 88.8481C87.9051 87.5865 85.6632 86.188 84.6828 85.4888" fill="#C18752"/>
<path d="M78.6562 91.8973C78.8178 92.319 79.036 92.7168 79.305 93.0795C79.5612 93.448 79.838 93.8018 80.134 94.1392C80.4262 94.4684 80.7524 94.7656 81.1072 95.0259C81.4533 95.2782 81.8858 95.4296 82.0948 95.1989C82.1499 95.1412 82.1961 95.0756 82.2318 95.0043C82.2404 94.9736 82.2404 94.9412 82.2318 94.9105C82.2354 94.8674 82.2354 94.824 82.2318 94.7808C82.2096 94.576 82.1612 94.3749 82.0876 94.1825C81.9368 93.7674 81.7586 93.3628 81.5542 92.9714C81.1633 92.1805 80.7076 91.4234 80.1917 90.7078L80.6963 90.2537C81.2985 90.8403 81.9605 91.3622 82.6715 91.8108C83.0092 92.0287 83.3755 92.1986 83.7601 92.3154C83.912 92.3774 84.0761 92.4038 84.2398 92.3926C84.4035 92.3813 84.5624 92.3327 84.7044 92.2505C84.8274 92.1534 84.924 92.027 84.9855 91.8829C85.0615 91.7575 85.0849 91.6072 85.0504 91.4647C84.9407 91.0958 84.7622 90.7509 84.5242 90.4483C84.0134 89.7788 83.4308 89.1672 82.7869 88.6245L83.1689 88.1631C83.6582 88.5798 84.251 88.8563 84.8846 88.9633C85.1853 89.0371 85.5005 89.0278 85.7963 88.9364C86.0922 88.845 86.3576 88.6749 86.5643 88.4443C86.6581 88.3333 86.7219 88.2002 86.7496 88.0576C86.7774 87.915 86.7682 87.7677 86.7229 87.6297C86.6124 87.3204 86.438 87.038 86.211 86.8007C85.7301 86.3119 85.2119 85.8612 84.6612 85.4526C85.2683 85.7941 85.8384 86.1976 86.3624 86.6565C86.6381 86.8963 86.8572 87.1942 87.004 87.5288C87.091 87.7159 87.1262 87.923 87.106 88.1284C87.0857 88.3338 87.0106 88.5301 86.8887 88.6966C86.6484 88.9982 86.332 89.23 85.972 89.3682C85.612 89.5063 85.2217 89.5458 84.8414 89.4823C84.1019 89.3924 83.4 89.1061 82.8085 88.6533L83.1906 88.1848C83.8934 88.7306 84.5318 89.3546 85.0937 90.0446C85.4055 90.42 85.634 90.8574 85.7641 91.3278C85.8244 91.6131 85.7863 91.9104 85.656 92.1712C85.5468 92.4275 85.3729 92.6511 85.1513 92.82C84.9238 92.969 84.6648 93.0635 84.3947 93.096C84.1247 93.1285 83.8507 93.0982 83.5943 93.0074C83.1484 92.8697 82.7239 92.6707 82.3327 92.4163C81.5743 91.9377 80.8729 91.3742 80.2422 90.7367L80.7468 90.2825C81.2747 91.0525 81.733 91.8679 82.1165 92.7191C82.3102 93.1428 82.4763 93.5787 82.6139 94.0239C82.6868 94.2578 82.7304 94.5 82.7436 94.7447C82.7506 94.8142 82.7506 94.8843 82.7436 94.9538C82.7327 95.0342 82.7084 95.1122 82.6715 95.1845C82.6045 95.315 82.5112 95.4304 82.3976 95.5233C82.2817 95.6159 82.1446 95.6783 81.9986 95.7047C81.8526 95.7311 81.7024 95.7208 81.5614 95.6747C81.3185 95.6 81.093 95.4775 80.8982 95.3142C80.5391 95.0145 80.2194 94.6705 79.9466 94.2906C79.3707 93.5804 78.9331 92.7687 78.6562 91.8973Z" fill="#895C37"/>
<path d="M98.832 63.7261C100.094 64.62 103.467 66.7682 104.44 64.447C104.722 63.4666 102.617 61.6428 101.917 61.0805C102.898 61.2247 104.859 61.6428 105.565 60.6624C107.108 58.7016 103.323 57.8582 102.199 57.2959" fill="#C18752"/>
<path d="M98.832 63.7257C99.7362 64.288 100.704 64.7406 101.716 65.0737C102.181 65.2237 102.675 65.2608 103.157 65.1818C103.374 65.1256 103.573 65.0155 103.735 64.8617C103.898 64.7079 104.019 64.5155 104.087 64.3024V64.3384C104.091 64.0637 103.999 63.7962 103.828 63.5815C103.642 63.2948 103.432 63.0247 103.201 62.7741C102.715 62.2585 102.195 61.7768 101.643 61.3323L100.634 60.4961L101.917 60.698C102.666 60.8562 103.43 60.9287 104.195 60.9142C104.53 60.9074 104.854 60.7994 105.125 60.6043C105.247 60.494 105.354 60.3679 105.442 60.2294C105.529 60.099 105.585 59.9514 105.608 59.7969C105.614 59.636 105.581 59.4761 105.512 59.3306C105.443 59.1852 105.34 59.0583 105.212 58.9607C104.925 58.7111 104.611 58.4957 104.275 58.3191C103.597 57.9298 102.833 57.6703 102.112 57.2666C102.833 57.5261 103.633 57.7135 104.383 58.0235C104.768 58.173 105.13 58.377 105.457 58.6291C105.654 58.7605 105.815 58.9384 105.927 59.1471C106.039 59.3558 106.098 59.5889 106.098 59.8257C106.092 60.0782 106.026 60.3254 105.904 60.5466C105.748 60.8594 105.508 61.1231 105.212 61.3088C104.916 61.4944 104.574 61.5949 104.224 61.5991C103.406 61.651 102.584 61.5952 101.78 61.4333L102.054 60.8061C102.638 61.2675 103.183 61.7762 103.684 62.3272C103.953 62.6107 104.195 62.9197 104.404 63.2499C104.664 63.6236 104.768 64.0841 104.693 64.533C104.568 64.8248 104.381 65.0857 104.145 65.2972C103.898 65.5043 103.599 65.6391 103.28 65.6864C102.697 65.7565 102.106 65.6745 101.564 65.4486C101.058 65.2461 100.574 64.99 100.122 64.6844C99.6707 64.3949 99.2396 64.0746 98.832 63.7257Z" fill="#895C37"/>
<path d="M53.1433 89.2376C52.2998 93.4403 51.8817 98.0683 51.4636 102.271C51.54 103.686 51.3966 105.103 51.0383 106.474C50.4832 108.435 48.9406 108.997 47.4339 109.84C45.9767 110.738 44.5734 111.72 43.2312 112.781C41.2632 114.18 39.4466 115.867 42.8059 116.703C45.4731 117.265 48.5729 116.422 50.9374 115.723C54.1597 115.002 57.2451 115.002 59.487 112.5C61.7098 109.936 63.537 107.055 64.908 103.951C67.1129 98.9307 68.0321 93.4405 67.5824 87.9761" fill="#C18752"/>
<mask id="mask0_833_25493" style="mask-type:luminance" maskUnits="userSpaceOnUse" x="40" y="87" width="28" height="30">
<path d="M53.1433 89.2376C52.2998 93.4403 51.8817 98.0683 51.4636 102.271C51.54 103.686 51.3966 105.103 51.0383 106.474C50.4832 108.435 48.9406 108.997 47.4339 109.84C45.9767 110.738 44.5734 111.72 43.2312 112.781C41.2632 114.18 39.4466 115.867 42.8059 116.703C45.4731 117.265 48.5729 116.422 50.9374 115.723C54.1597 115.002 57.2451 115.002 59.487 112.5C61.7098 109.936 63.537 107.055 64.908 103.951C67.1129 98.9307 68.0321 93.4405 67.5824 87.9761" fill="white"/>
</mask>
<g mask="url(#mask0_833_25493)">
<path d="M44.4561 113.48C43.7925 113.919 43.1869 114.44 42.6539 115.03C42.3955 115.314 42.1816 115.634 42.0196 115.982C41.86 116.342 41.7978 116.737 41.8393 117.128C41.6324 116.744 41.5833 116.294 41.7024 115.874C41.8219 115.457 42.0338 115.073 42.3223 114.749C42.6 114.43 42.923 114.153 43.2811 113.927C43.642 113.707 44.0403 113.556 44.4561 113.48Z" fill="#895C37"/>
<path d="M47.3031 113.805C46.8839 113.924 46.5066 114.159 46.2146 114.482C45.9431 114.809 45.7287 115.18 45.5802 115.578C45.4245 115.988 45.2945 116.407 45.191 116.832C45.0901 117.265 45.0108 117.705 44.917 118.152C44.8354 117.7 44.8184 117.239 44.8666 116.782C44.9054 116.315 45.0097 115.857 45.1766 115.419C45.3488 114.969 45.6255 114.567 45.9839 114.244C46.1629 114.086 46.3719 113.965 46.5986 113.89C46.8253 113.814 47.065 113.785 47.3031 113.805Z" fill="#895C37"/>
</g>
<path d="M45.5745 49.2862C45.4448 45.7827 46.5549 40.1743 49.6403 38.0766C53.1437 35.8346 58.1899 34.9912 62.2556 34.9912C65.4779 34.9912 69.9546 35.2724 70.6755 38.9128C71.2701 42.644 70.6828 46.4677 68.9958 49.8485C67.457 53.0297 65.2604 55.848 62.5512 58.1169" fill="#C18752"/>
<path d="M45.5756 49.2867C45.5001 48.0835 45.5484 46.8757 45.7198 45.6823C45.8736 44.4865 46.1515 43.31 46.5488 42.1717C46.9506 41.0155 47.5534 39.9393 48.3293 38.9926C48.7214 38.5079 49.1887 38.0893 49.7134 37.7527C50.2206 37.4286 50.7453 37.1326 51.2849 36.866C53.4968 35.8615 55.8506 35.205 58.263 34.9196C60.6532 34.5993 63.0726 34.5606 65.4718 34.8043C66.7186 34.9344 67.9231 35.3301 69.0041 35.9649C69.5519 36.3146 70.0168 36.7796 70.3665 37.3274C70.6971 37.8793 70.9129 38.4922 71.0009 39.1296C71.3632 41.5387 71.2009 43.9977 70.5251 46.3383C69.1418 50.9961 66.3364 55.1046 62.5018 58.0886C64.2828 56.4988 65.8376 54.6724 67.1226 52.6604C68.4326 50.6703 69.4068 48.4785 70.0061 46.1725C70.6036 43.8934 70.7263 41.5158 70.3665 39.1872C70.3052 38.6368 70.1179 38.1079 69.8191 37.6416C69.5203 37.1752 69.1181 36.7841 68.6436 36.4984C67.6471 35.9503 66.5471 35.6163 65.4141 35.518C63.063 35.2573 60.6894 35.2742 58.3423 35.5684C55.9925 35.8406 53.6936 36.4474 51.5156 37.3706C50.9777 37.6065 50.4552 37.8762 49.9513 38.178C49.4592 38.475 49.0185 38.8499 48.6465 39.2881C47.889 40.185 47.2938 41.2072 46.8876 42.3086C46.0192 44.5325 45.5742 46.8992 45.5756 49.2867Z" fill="#895C37"/>
<path d="M50.9023 50.8295C52.1639 50.1086 53.4254 48.3065 54.5067 48.1695C54.3698 49.568 53.3894 50.9737 53.1082 52.228C54.932 51.6729 56.4747 50.4114 58.4355 50.1303C58.2913 51.3918 56.6117 52.5092 55.6313 53.3526C57.0298 53.6337 58.5725 52.7903 59.834 53.0714C59.697 54.333 58.5725 55.0322 57.5921 55.7387C63.4816 57.2742 69.0901 47.1891 69.364 42.143C69.9551 34.1484 57.9093 35.1288 54.4058 39.7569C52.7262 41.7176 52.1639 44.666 51.6016 47.0449L50.9023 50.8295Z" fill="#FFBBD0"/>
</svg>
