<svg width="150" height="150" viewBox="0 0 150 150" fill="none" xmlns="http://www.w3.org/2000/svg">
<path d="M37.0008 60.4502C39.0008 56.1502 45.5008 48.2002 45.5008 48.2002C45.5008 48.2002 43.9008 54.2002 45.8008 54.8002C48.8508 46.6002 54.7008 44.7002 55.7008 43.8502C54.5508 44.9002 53.7008 47.1502 53.1508 49.3002C55.3508 46.8502 57.6008 44.3002 59.7008 43.1002C62.8008 41.3502 68.7008 38.7002 68.7008 38.7002C67.4008 40.1502 66.8508 42.1002 66.5508 43.8002C75.9008 38.2502 89.7508 40.2002 91.6508 40.2502C89.9508 40.3002 87.6508 41.7502 85.7008 43.2002C94.8008 41.2002 104.951 44.5002 104.951 44.5002C102.951 44.8002 101.201 46.0502 99.9008 47.2502C111.451 46.0502 118.601 55.0002 118.601 55.0002C118.601 55.0002 113.901 53.6502 111.101 53.6502C125.651 59.5002 128.101 68.1002 128.101 68.1002C126.451 67.2502 124.551 67.0502 122.801 67.0502C125.251 69.0502 128.201 72.0502 129.501 75.8002C129.501 75.8002 126.501 73.6002 123.401 72.2002C128.551 79.3002 127.901 87.7502 127.901 87.7502C127.101 85.9502 125.751 84.6002 124.301 83.5502C125.751 86.9502 126.301 90.8002 126.001 93.9502C125.451 92.8502 123.801 90.7002 122.001 88.5502C123.151 91.5502 123.651 94.8502 123.601 97.7502C122.951 96.6502 118.151 94.3002 117.601 94.9502C118.901 96.3502 120.451 97.6502 122.101 98.4502C122.101 98.4502 117.301 99.7002 110.751 99.4002C112.551 100 116.251 101.6 118.051 101.55C118.051 101.55 102.351 103 99.8508 103.1C70.6508 104.35 51.7508 105.15 42.3508 96.8002C33.0008 88.4502 31.5508 75.2502 31.5508 75.2502C31.5508 75.2502 32.9508 66.4002 37.0008 60.4502Z" fill="#6E604F"/>
<path d="M56.1012 43.5503C56.1012 43.5503 55.9512 43.6503 55.7012 43.8503C55.8512 43.7503 56.0012 43.6003 56.1012 43.5503Z" fill="#6E604F"/>
<path d="M118.602 55C118.752 55.1 118.902 55.2 119.052 55.35C119.052 55.35 118.902 55.2 118.602 55Z" fill="#6E604F"/>
<path d="M102.35 101.301C99.5502 100.501 96.8002 100.151 95.0002 104.101C93.2002 108.051 96.2002 107.801 98.6002 107.451C101.05 107.151 105.1 102.101 102.35 101.301Z" fill="#E5AE7F"/>
<path d="M96.9008 104.25C96.9008 104.25 96.7008 104.45 96.4508 104.7C96.3508 104.85 96.2008 105 96.0508 105.15C95.9508 105.25 95.9008 105.3 95.8508 105.4C95.7508 105.5 95.7008 105.6 95.6508 105.65C95.6008 105.75 95.5508 105.85 95.5008 105.9C95.4508 106 95.4008 106.1 95.3508 106.2C95.3008 106.3 95.3008 106.4 95.2508 106.5C95.2508 106.6 95.2008 106.7 95.2008 106.75C95.2008 106.85 95.2008 106.9 95.1508 107C95.1508 107.05 95.1508 107.15 95.1508 107.2C95.1508 107.3 95.1508 107.4 95.1508 107.4C95.1508 107.4 95.1008 107.35 95.0508 107.25C95.0008 107.15 94.9008 107 94.8508 106.8C94.8008 106.7 94.8008 106.6 94.8008 106.45C94.8008 106.35 94.8008 106.2 94.8008 106.05C94.8508 105.8 94.9508 105.55 95.1008 105.3C95.2508 105.1 95.4508 104.9 95.6508 104.75C95.8508 104.6 96.0508 104.5 96.2508 104.4C96.6008 104.3 96.9008 104.25 96.9008 104.25Z" fill="#BD7D61"/>
<path d="M98.4992 105.051C98.4992 105.051 98.3492 105.201 98.0992 105.451C97.8992 105.701 97.5992 105.951 97.3492 106.251C97.2992 106.351 97.2492 106.401 97.1992 106.451C97.1492 106.551 97.0992 106.601 97.0492 106.701C96.9992 106.801 96.9492 106.851 96.8992 106.901C96.8492 106.951 96.7992 107.051 96.7992 107.101C96.7992 107.151 96.7492 107.251 96.6992 107.301C96.6992 107.351 96.6492 107.401 96.6492 107.451C96.5992 107.551 96.5992 107.601 96.5992 107.601C96.5992 107.601 96.5492 107.551 96.5492 107.451C96.4992 107.351 96.4492 107.201 96.4492 107.051C96.4492 106.951 96.4492 106.851 96.4492 106.751C96.4492 106.651 96.4992 106.551 96.4992 106.451C96.5492 106.251 96.6992 106.051 96.8492 105.851C96.9992 105.701 97.1492 105.501 97.3492 105.401C97.4992 105.301 97.6992 105.201 97.8492 105.151C98.2492 105.001 98.4992 105.051 98.4992 105.051Z" fill="#BD7D61"/>
<path d="M59.0502 100.75C59.0502 100.75 54.3502 100.25 53.5502 103.95C52.7502 107.65 54.9502 107.65 57.3502 107.5C59.7502 107.4 67.7002 101.85 59.0502 100.75Z" fill="#E5AE7F"/>
<path d="M55.8016 104.1C55.8016 104.1 55.6016 104.25 55.3016 104.5C55.0016 104.75 54.6516 105.05 54.5016 105.45C54.4516 105.55 54.4016 105.65 54.4016 105.75C54.3516 105.85 54.3516 105.95 54.3516 106.05C54.3016 106.15 54.3516 106.25 54.3516 106.35C54.3516 106.45 54.3516 106.55 54.4016 106.65C54.4016 106.85 54.4516 107 54.5016 107.1C54.5016 107.2 54.5516 107.3 54.5516 107.3C54.5516 107.3 54.5016 107.25 54.4016 107.15C54.3016 107.05 54.2016 106.95 54.1016 106.75C54.0516 106.65 54.0016 106.55 53.9516 106.45C53.9516 106.35 53.8516 106.2 53.8516 106.05C53.8516 105.9 53.8516 105.75 53.9016 105.6C53.9516 105.45 54.0016 105.3 54.0516 105.2C54.2016 104.95 54.4016 104.7 54.6016 104.55C54.8016 104.4 55.0516 104.3 55.2016 104.2C55.5016 104.1 55.8016 104.1 55.8016 104.1Z" fill="#BD7D61"/>
<path d="M57.5008 104.8C57.5008 104.8 57.2508 104.9 57.0008 105.1C56.9508 105.15 56.8508 105.2 56.8008 105.25C56.7508 105.3 56.6508 105.35 56.6008 105.45C56.5508 105.5 56.5008 105.6 56.4508 105.7C56.4008 105.8 56.3508 105.85 56.3008 105.95C56.2508 106.05 56.2008 106.15 56.1508 106.25C56.1008 106.35 56.0508 106.45 56.0508 106.55C56.0508 106.65 56.0008 106.75 55.9508 106.85C55.9508 106.95 55.9008 107.05 55.9008 107.1C55.8508 107.25 55.8008 107.4 55.8008 107.5C55.7508 107.6 55.7508 107.65 55.7508 107.65C55.7508 107.65 55.7008 107.6 55.7008 107.5C55.6508 107.4 55.6008 107.25 55.6008 107.05C55.6008 106.95 55.6008 106.85 55.5508 106.75C55.5508 106.65 55.5508 106.55 55.5508 106.4C55.5508 106.15 55.6508 105.9 55.7508 105.7C55.8508 105.45 56.0508 105.25 56.2508 105.1C56.3508 105 56.4508 104.95 56.5508 104.9C56.6508 104.85 56.7508 104.8 56.8508 104.8C57.2508 104.7 57.5008 104.8 57.5008 104.8Z" fill="#BD7D61"/>
<path d="M20.9501 89.05C23.4501 88.1 20.5501 84.25 27.9001 76.7C29.8001 74.75 31.8001 73.35 33.8501 72.5C33.7501 70.1 34.0501 66.65 36.8501 66.95C39.1001 67.2 39.2001 70.6 38.7501 72.65C40.4501 70.6 43.6501 71.25 43.6501 71.25C43.6501 71.25 40.2501 73.7 41.5001 74.6C43.3501 73.9 46.6501 73.65 46.6501 73.65C46.6501 73.65 45.2501 75.85 46.6001 77.05C48.0501 76 49.9001 75.6 50.5501 76.1C50.8001 76.3 49.6501 79 49.6501 79L52.7501 77.85C52.7501 77.85 57.0501 75.2 58.4501 78.35C61.5501 85.5 53.3001 84.15 53.3001 84.15C53.3001 84.15 52.9001 93.9 44.3501 96C35.8001 98.1 22.9001 96.15 21.0501 93.85C19.2001 91.55 18.4501 90 20.9501 89.05Z" fill="#E5AE7F"/>
<path d="M33.1508 86.0002C33.0508 86.9002 33.7008 87.7002 34.6008 87.8002C35.5008 87.9002 36.3008 87.2502 36.4008 86.3502C36.5008 85.4502 35.8508 84.6502 34.9508 84.5502C34.0508 84.4502 33.2508 85.1002 33.1508 86.0002Z" fill="#4F2727"/>
<path d="M21.9996 89.9498C21.5496 89.2498 18.6496 88.3498 18.0996 89.5498C17.4996 90.6998 20.0496 92.2498 21.4496 91.6998C22.8996 91.1498 22.4496 90.6498 21.9996 89.9498Z" fill="#4F2727"/>
<path d="M53.4493 81.0999C53.4493 81.0999 54.6493 78.7999 56.2993 79.9499C57.9993 81.1499 54.2993 81.5999 53.5993 82.3999C52.9493 83.2499 53.4493 81.0999 53.4493 81.0999Z" fill="#E58861"/>
<path d="M35.9504 72.1001C35.9504 72.1001 37.2004 69.9501 36.5504 68.9501C35.9004 67.9501 34.8504 69.0501 35.1504 69.8501C35.4504 70.6001 35.4004 72.1001 35.9504 72.1001Z" fill="#E58861"/>
<path d="M47.4996 49.4499C47.4996 49.4499 47.4496 50.0999 47.3996 51.0499C47.3496 51.5499 47.3496 52.0999 47.2996 52.6999C47.2996 52.9999 47.2996 53.2999 47.2496 53.5999C47.2496 53.8999 47.1996 54.1999 47.1996 54.5499C47.1996 54.8499 47.1996 55.1999 47.2496 55.4999C47.2996 55.7999 47.2496 56.0999 47.2496 56.3999C47.2496 56.6999 47.1996 56.9499 47.1496 57.1999C47.0996 57.4499 46.9996 57.6999 46.9496 57.9499C46.7996 58.3999 46.6496 58.7999 46.4996 59.0999C46.3496 59.3999 46.2496 59.5499 46.2496 59.5499H46.0496C46.0496 59.5499 45.9496 59.3999 45.7996 59.0999C45.6496 58.7999 45.4496 58.3999 45.3496 57.8999C45.2996 57.6499 45.2496 57.3999 45.1996 57.0999C45.1496 56.7999 45.1496 56.4999 45.1996 56.1999C45.1996 55.8999 45.2996 55.5999 45.3996 55.2499C45.4996 54.9499 45.5996 54.5999 45.6496 54.2999C45.7996 53.6499 45.9496 53.0499 46.1496 52.4499C46.3496 51.8499 46.4996 51.3499 46.6996 50.8999C47.0496 49.9999 47.2996 49.3999 47.2996 49.3999L47.4996 49.4499Z" fill="#937257"/>
<path d="M51.9008 60.8002C51.9008 60.8002 51.8008 60.9002 51.7008 61.0502C51.6008 61.2002 51.4508 61.4002 51.2508 61.6502C51.1508 61.7502 51.0508 61.9002 50.9508 62.0502C50.8508 62.2002 50.7508 62.3502 50.6508 62.5002C50.5508 62.6502 50.4508 62.8502 50.3508 63.0002C50.2508 63.1502 50.1508 63.3502 50.1008 63.5502C50.0008 63.7502 49.9508 63.9002 49.9008 64.1002C49.8008 64.3002 49.8008 64.5002 49.7008 64.6502C49.6008 64.8002 49.5008 64.9502 49.4008 65.1002C49.3008 65.2502 49.2008 65.3502 49.1008 65.5002C48.9008 65.7502 48.7008 65.9502 48.5008 66.0502C48.3008 66.2002 48.2008 66.2502 48.2008 66.2502L48.0008 66.3002C48.0008 66.3002 47.9508 66.1502 47.9008 65.9502C47.8508 65.7502 47.8008 65.4002 47.8008 65.0502C47.8008 64.8502 47.8008 64.6502 47.8508 64.5002C47.9008 64.3002 47.9508 64.1002 48.0508 63.9002C48.1508 63.7002 48.2508 63.5002 48.4508 63.3502C48.6008 63.2002 48.7508 63.0002 48.9008 62.8502C49.0508 62.6502 49.2008 62.5002 49.3508 62.3502C49.5008 62.2002 49.7008 62.0502 49.8508 61.9002C50.0008 61.7502 50.2008 61.6502 50.3508 61.5502C50.5008 61.4502 50.6508 61.3502 50.8008 61.2502C51.1008 61.0502 51.3508 60.9502 51.5008 60.8502C51.6508 60.7502 51.8008 60.7002 51.8008 60.7002L51.9008 60.8002Z" fill="#937257"/>
<path d="M57.2988 64.1498C57.2988 64.1498 57.0488 64.5498 56.6988 65.0998C56.4988 65.3998 56.3488 65.7498 56.0988 66.0998C55.8988 66.4498 55.6988 66.8498 55.4988 67.2498C55.3988 67.4498 55.3488 67.6498 55.2988 67.8498C55.2488 68.0498 55.1988 68.2498 55.1488 68.3998C55.0488 68.5498 54.9988 68.6998 54.8988 68.8498C54.7988 68.9998 54.7488 69.0998 54.6488 69.2498C54.5488 69.3998 54.4988 69.4998 54.4488 69.5998C54.3488 69.6998 54.2988 69.7998 54.2488 69.8998C54.1488 70.0998 54.0988 70.2498 54.0988 70.2498L53.9488 70.2998C53.9488 70.2998 53.8488 70.1998 53.6488 69.9998C53.5988 69.9498 53.5488 69.8998 53.4988 69.7998C53.4488 69.7498 53.4488 69.6498 53.3988 69.5998C53.3488 69.4498 53.2488 69.2498 53.2488 69.0498C53.2488 68.8498 53.1988 68.5998 53.2488 68.3998C53.2988 68.1498 53.3488 67.8998 53.4488 67.6998C53.5488 67.4498 53.6988 67.2498 53.8488 67.0998C53.9988 66.8998 54.1488 66.6998 54.2988 66.5498C54.4488 66.3498 54.5988 66.1998 54.7488 65.9998C54.8988 65.8498 55.0988 65.6498 55.2488 65.4998C55.5988 65.1998 55.8988 64.9498 56.1488 64.6998C56.6988 64.2498 57.0988 64.0498 57.0988 64.0498L57.2988 64.1498Z" fill="#937257"/>
<path d="M39.05 53.4502C39.05 53.4502 38.95 54.2002 38.8 55.2502C38.75 55.8002 38.7 56.4502 38.65 57.1002C38.65 57.4502 38.65 57.8002 38.65 58.1502C38.65 58.5002 38.65 58.8502 38.7 59.2002C38.7 59.5502 38.8 59.9002 38.85 60.2502C38.9 60.6002 39 60.9002 39.05 61.2002C39.1 61.5002 39.15 61.8002 39.15 62.1002C39.2 62.3502 39.2 62.6502 39.2 62.9002C39.25 63.1502 39.25 63.3502 39.25 63.6002C39.25 63.8502 39.3 64.0002 39.3 64.1502C39.35 64.5002 39.35 64.7002 39.35 64.7002L39.2 64.8502C39.2 64.8502 39 64.7502 38.7 64.5502C38.55 64.4502 38.35 64.3002 38.2 64.1502C38.05 63.9502 37.85 63.7502 37.65 63.5002C37.5 63.2502 37.35 62.9502 37.2 62.6002C37.1 62.2502 37 61.9002 36.95 61.5502C36.95 61.2002 36.9 60.8002 36.95 60.4002C37 60.0002 37.05 59.6002 37.1 59.2502C37.15 58.8502 37.2 58.5002 37.3 58.1002C37.35 57.7502 37.45 57.3502 37.55 57.0502C37.75 56.3502 37.95 55.7502 38.15 55.2002C38.55 54.1502 38.9 53.5002 38.9 53.5002L39.05 53.4502Z" fill="#937257"/>
<path d="M76.9992 37.65C76.9992 37.65 76.3492 38.25 75.4492 39.15C74.9992 39.6 74.4492 40.15 73.8992 40.7C73.3492 41.3 72.7492 41.9 72.1992 42.55C71.6492 43.2 71.1492 43.9 70.6992 44.5C70.4492 44.8 70.1992 45.05 69.9492 45.3C69.6992 45.55 69.4992 45.8 69.2492 46C68.9992 46.2 68.8492 46.4 68.6492 46.6C68.4492 46.8 68.2992 46.95 68.1992 47.1C67.9492 47.4 67.7492 47.55 67.7492 47.55H67.4992C67.4992 47.55 67.4492 47.3 67.4492 46.9C67.4492 46.8 67.4492 46.65 67.4492 46.55C67.4492 46.45 67.4992 46.3 67.5492 46.15C67.5992 45.85 67.6992 45.55 67.8492 45.2C67.9992 44.9 68.1492 44.5 68.3492 44.2C68.5492 43.85 68.7992 43.5 69.0492 43.2C69.3492 42.9 69.6492 42.6 69.9992 42.3C70.3492 42 70.6992 41.75 71.0492 41.45C71.3992 41.15 71.7492 40.9 72.0992 40.6C72.4492 40.35 72.7992 40.1 73.1492 39.85C73.8492 39.35 74.4492 38.95 75.0492 38.6C76.1492 37.9 76.9492 37.5 76.9492 37.5L76.9992 37.65Z" fill="#937257"/>
<path d="M107.45 47.35C107.45 47.35 106.65 47.45 105.4 47.6C104.8 47.7 104.1 47.8 103.35 47.95C102.6 48.1 101.8 48.3 101.05 48.5C100.65 48.6 100.3 48.75 99.95 48.9C99.6 49.05 99.25 49.2 98.9 49.35C98.55 49.45 98.25 49.6 97.95 49.65C97.65 49.75 97.35 49.85 97.1 49.9C96.85 50 96.6 50.05 96.35 50.15C96.1 50.25 95.95 50.3 95.75 50.4C95.6 50.45 95.45 50.55 95.35 50.55C95.25 50.6 95.2 50.6 95.2 50.6L95 50.5C95 50.5 95 50.45 95.05 50.35C95.1 50.25 95.1 50.1 95.2 49.9C95.3 49.7 95.4 49.5 95.55 49.25C95.65 49.1 95.75 49 95.85 48.9C95.95 48.8 96.05 48.65 96.2 48.55C96.7 48.1 97.4 47.65 98.2 47.35C99 47.1 99.9 47.05 100.75 46.9C101.6 46.8 102.45 46.75 103.25 46.75C104.05 46.75 104.75 46.8 105.4 46.85C106.65 46.95 107.45 47.1 107.45 47.1V47.35Z" fill="#937257"/>
<path d="M85.1492 52.0001C85.1492 52.0001 84.5992 52.3001 83.8492 52.7501C83.4492 53.0001 83.0492 53.2501 82.5492 53.6001C82.0992 53.9001 81.6492 54.2501 81.1992 54.6501C80.9992 54.8501 80.7992 55.0501 80.5992 55.2501C80.3992 55.4501 80.2492 55.6501 80.0492 55.8501C79.8992 56.0501 79.6992 56.2001 79.4992 56.3001C79.3492 56.4501 79.1492 56.6001 78.9492 56.7001C78.7992 56.8501 78.6492 56.9501 78.4992 57.0501C78.3992 57.1001 78.3492 57.1501 78.2992 57.2001C78.2492 57.2501 78.1492 57.3001 78.0992 57.3501C77.8492 57.5001 77.6992 57.6001 77.6992 57.6001L77.4992 57.5501C77.4992 57.5501 77.4492 57.3501 77.4492 57.0501C77.4492 56.9001 77.4492 56.7001 77.4492 56.5001C77.4992 56.3001 77.5492 56.0501 77.6492 55.8001C77.7492 55.5501 77.8992 55.3001 78.0492 55.0501C78.1992 54.8001 78.3992 54.5501 78.6492 54.3501C78.8992 54.1501 79.1492 53.9501 79.4492 53.8001C79.7492 53.6501 80.0492 53.5001 80.2992 53.3501C80.8492 53.0501 81.4492 52.8001 81.9992 52.6001C82.5492 52.4001 83.0992 52.2501 83.5492 52.1501C84.4492 51.9501 85.0992 51.8501 85.0992 51.8501L85.1492 52.0001Z" fill="#937257"/>
<path d="M105.351 63.1502C105.351 63.1502 104.651 63.0002 103.651 62.9002C103.151 62.8502 102.551 62.7502 101.901 62.7002C101.251 62.6502 100.601 62.6002 99.9508 62.6002C99.6008 62.6002 99.3008 62.6502 99.0008 62.7002C98.7008 62.7502 98.4008 62.8002 98.1008 62.8002C97.8008 62.8502 97.5508 62.8502 97.3008 62.8502C97.0508 62.8502 96.8008 62.8502 96.6008 62.8502C96.3508 62.8502 96.1508 62.8502 95.9508 62.9002C95.7508 62.9002 95.6008 62.9502 95.4508 62.9502C95.3008 62.9502 95.2008 63.0002 95.1008 63.0002C95.0008 63.0002 94.9508 63.0002 94.9508 63.0002L94.8008 62.8502C94.8008 62.8502 94.8008 62.8002 94.8508 62.7002C94.9008 62.6002 94.9508 62.4502 95.0008 62.3002C95.0508 62.2002 95.1008 62.1502 95.1508 62.0502C95.2008 61.9502 95.3008 61.9002 95.4008 61.8002C95.5508 61.6002 95.8008 61.4502 96.0508 61.3002C96.3008 61.1502 96.6008 61.0002 96.9508 60.9002C97.2508 60.8002 97.6008 60.7002 98.0008 60.7002C98.3508 60.7002 98.7508 60.7002 99.1008 60.8002C99.4508 60.8502 99.8008 60.9502 100.201 61.0002C100.901 61.1502 101.601 61.3002 102.251 61.5502C102.901 61.7502 103.451 62.0002 103.951 62.2002C104.901 62.6002 105.551 63.0002 105.551 63.0002L105.351 63.1502Z" fill="#937257"/>
<path d="M124.25 59.7C124.25 59.7 123.3 59.45 121.9 59.1C121.2 58.95 120.35 58.75 119.45 58.6C118.55 58.45 117.6 58.3 116.65 58.2C115.7 58.1 114.75 58.15 113.9 58.15C113.45 58.15 113.05 58.1 112.7 58.1C112.3 58.1 111.95 58.05 111.65 58.05C111.5 58.05 111.35 58.05 111.15 58.05C111 58.05 110.85 58.1 110.7 58.1C110.45 58.15 110.2 58.15 110 58.2C109.8 58.25 109.65 58.3 109.5 58.3C109.4 58.35 109.3 58.35 109.3 58.35L109.15 58.2C109.15 58.2 109.2 58.15 109.25 58.05C109.3 57.95 109.4 57.75 109.6 57.6C109.7 57.5 109.75 57.4 109.9 57.3C110 57.2 110.15 57.1 110.3 57C110.6 56.8 110.9 56.65 111.3 56.5C111.5 56.45 111.7 56.35 111.9 56.3C112.1 56.25 112.35 56.2 112.55 56.15C113 56 113.5 56 114 56C114.5 56.05 115 56.1 115.5 56.2C116 56.3 116.5 56.45 116.95 56.55C117.95 56.8 118.9 57.1 119.75 57.4C120.65 57.7 121.45 58.05 122.1 58.35C123.45 58.95 124.3 59.45 124.3 59.45L124.25 59.7Z" fill="#937257"/>
<path d="M84.0508 67.2002C84.0508 67.2002 83.1508 67.0502 81.7508 66.9002C81.4008 66.9002 81.0508 66.8502 80.6508 66.8502C80.2508 66.8502 79.8508 66.8002 79.4008 66.8002C78.9508 66.8002 78.5508 66.8002 78.1008 66.8502C77.6508 66.8502 77.2008 66.9002 76.7508 66.9502C76.3008 67.0002 75.9008 67.1002 75.4508 67.2002C75.0508 67.3502 74.6508 67.4002 74.2508 67.5002C73.8508 67.6002 73.5008 67.6502 73.1508 67.7502C72.8008 67.8502 72.4508 67.9002 72.1508 67.9502C71.8508 68.0502 71.5508 68.1002 71.2508 68.1502C71.1008 68.1502 71.0008 68.2002 70.9008 68.2502C70.8008 68.3002 70.6508 68.3002 70.6008 68.3502C70.2008 68.4502 69.9508 68.5002 69.9508 68.5002L69.8008 68.3502C69.8008 68.3502 69.9008 68.1002 70.1508 67.7502C70.3008 67.5502 70.4508 67.3502 70.6508 67.1002C70.9008 66.9002 71.1508 66.6502 71.4508 66.4002C71.7508 66.2002 72.1508 66.0002 72.5508 65.8002C72.9508 65.6002 73.4008 65.5002 73.8508 65.3502C74.3008 65.2502 74.8008 65.2502 75.3008 65.2002C75.8008 65.2002 76.3008 65.2002 76.7508 65.2502C77.2508 65.3002 77.7008 65.3002 78.2008 65.3502C78.4508 65.4002 78.6508 65.4002 78.9008 65.4502C79.1508 65.5002 79.3508 65.5502 79.5508 65.5502C80.4508 65.7002 81.2508 65.9502 81.9008 66.1502C82.6008 66.3502 83.1508 66.5502 83.5008 66.7002C83.9008 66.8502 84.1008 66.9502 84.1008 66.9502L84.0508 67.2002Z" fill="#937257"/>
<path d="M117.05 74.35C117.05 74.35 116.45 74 115.45 73.55C114.95 73.35 114.4 73.1 113.8 72.9C113.5 72.8 113.15 72.7 112.85 72.6C112.5 72.5 112.2 72.45 111.85 72.35C111.5 72.3 111.2 72.25 110.85 72.25C110.5 72.25 110.2 72.2 109.9 72.2C109.6 72.15 109.3 72.1 109.05 72.05C108.8 72 108.5 71.95 108.25 71.9C108 71.85 107.75 71.8 107.55 71.75C107.35 71.7 107.15 71.7 107 71.65C106.7 71.55 106.45 71.5 106.45 71.5L106.4 71.3C106.4 71.3 106.55 71.15 106.85 70.95C107 70.85 107.2 70.75 107.4 70.6C107.6 70.5 107.85 70.4 108.15 70.3C108.45 70.2 108.75 70.15 109.1 70.1C109.45 70.05 109.8 70.05 110.15 70.1C110.5 70.15 110.9 70.25 111.25 70.4C111.6 70.5 111.95 70.7 112.3 70.8C112.65 70.95 113 71.1 113.35 71.25C113.7 71.45 114 71.6 114.3 71.8C114.9 72.15 115.4 72.55 115.85 72.9C116.7 73.6 117.2 74.15 117.2 74.15L117.05 74.35Z" fill="#937257"/>
<path d="M106.35 87.9998C106.35 87.9998 106.2 87.8498 105.9 87.5498C105.6 87.2998 105.2 86.8998 104.7 86.4498C104.2 85.9998 103.6 85.5498 102.9 85.0498C102.55 84.7998 102.2 84.5998 101.85 84.3498C101.5 84.1498 101.1 83.8998 100.75 83.6998C100.35 83.4998 100 83.2998 99.6004 83.1998C99.2004 83.0498 98.8504 82.8998 98.4504 82.7998C98.1004 82.6498 97.7504 82.4998 97.4004 82.3498C97.0504 82.1998 96.7504 82.0498 96.4504 81.8998C96.1504 81.7498 95.9004 81.6498 95.6504 81.4998C95.4004 81.3998 95.2004 81.2998 95.0004 81.1998C94.6504 81.0498 94.4004 80.8998 94.4004 80.8998V80.6998C94.4004 80.6998 94.6504 80.5998 95.0504 80.4998C95.2504 80.4498 95.5004 80.3998 95.8004 80.3498C96.1004 80.3498 96.4504 80.2998 96.8004 80.2998C97.1504 80.2998 97.5504 80.3498 97.9504 80.4498C98.1504 80.4998 98.3504 80.5498 98.6004 80.5998C98.8004 80.6498 99.0004 80.7498 99.2504 80.8498C99.6504 80.9998 100.05 81.2998 100.45 81.5498C100.85 81.7998 101.2 82.0998 101.6 82.3998C102 82.6998 102.35 82.9998 102.7 83.2998C103.05 83.5998 103.4 83.8998 103.65 84.2498C103.95 84.5498 104.25 84.8498 104.5 85.1998C104.75 85.4998 105 85.7998 105.2 86.0998C105.6 86.6498 105.95 87.1498 106.15 87.4998C106.35 87.8498 106.45 88.0498 106.45 88.0498L106.35 87.9998Z" fill="#937257"/>
<path d="M67.85 57.0001C67.85 57.0001 67.55 57.5001 67.05 58.2001C66.8 58.5501 66.55 59.0001 66.25 59.4501C65.95 59.9001 65.65 60.3501 65.35 60.8501C65.2 61.1001 65.1 61.3501 64.95 61.6001C64.85 61.8501 64.7 62.1001 64.6 62.3001C64.45 62.5001 64.3 62.7001 64.15 62.8501C64 63.0001 63.85 63.1501 63.7 63.3001C63.55 63.4501 63.4 63.5501 63.3 63.6501C63.2 63.7501 63.05 63.8501 62.95 63.9501C62.75 64.1501 62.65 64.2501 62.65 64.2501H62.5C62.5 64.2501 62.4 64.1001 62.3 63.8001C62.25 63.6501 62.25 63.4501 62.25 63.2501C62.25 63.0001 62.25 62.8001 62.3 62.5501C62.35 62.3001 62.4 62.0501 62.5 61.8001C62.6 61.5501 62.7 61.3001 62.9 61.0501C63.25 60.6001 63.7 60.2001 64.15 59.8001C64.55 59.4001 65 59.0001 65.4 58.6501C65.8 58.3001 66.2 57.9501 66.55 57.7001C67.25 57.1501 67.75 56.8501 67.75 56.8501L67.85 57.0001Z" fill="#937257"/>
<path d="M79.7008 88.8502C79.7008 88.8502 79.1508 88.5502 78.3508 88.1502C77.9508 87.9502 77.4508 87.7002 76.9508 87.5002C76.4508 87.3002 75.9008 87.0502 75.3508 86.8502C75.1008 86.7502 74.8008 86.7002 74.5508 86.6002C74.3008 86.5502 74.0008 86.5002 73.7508 86.4002C73.5008 86.3002 73.3008 86.2502 73.1008 86.1502C72.9008 86.0502 72.7008 86.0002 72.5008 85.8502C72.3008 85.7502 72.1508 85.7002 72.0008 85.6002C71.8508 85.5002 71.7008 85.4502 71.5508 85.4002C71.3008 85.3002 71.1008 85.2002 71.1008 85.2002L71.0508 85.0002C71.0508 85.0002 71.1508 84.8502 71.4508 84.7002C71.5008 84.6502 71.6008 84.6002 71.7008 84.5502C71.8008 84.5002 71.9008 84.4502 72.0008 84.4502C72.2008 84.4002 72.4508 84.3002 72.7008 84.2502C72.9508 84.2502 73.2508 84.2002 73.5508 84.2002C73.8508 84.2502 74.1508 84.2502 74.4508 84.4002C74.7508 84.5002 75.0508 84.6502 75.3008 84.8502C75.6008 85.0002 75.8508 85.2002 76.1008 85.4002C76.3508 85.5502 76.6508 85.7502 76.9008 85.9502C77.1508 86.1002 77.4008 86.3502 77.6008 86.5002C78.0508 86.9002 78.4508 87.2502 78.8008 87.6002C79.4508 88.2502 79.8508 88.7502 79.8508 88.7502L79.7008 88.8502Z" fill="#937257"/>
<path d="M70.2508 95.7001C70.2508 95.7001 69.6508 95.7001 68.7008 95.6001C68.2508 95.5501 67.7008 95.5001 67.1008 95.4001C66.5008 95.3001 65.9008 95.2001 65.3008 95.0501C65.0008 94.9501 64.7008 94.9001 64.3508 94.8501C64.0508 94.8001 63.7508 94.7001 63.4508 94.6001C63.1508 94.4501 62.9008 94.3501 62.7008 94.1501C62.4508 93.9501 62.2508 93.8001 62.1008 93.6001C61.9008 93.4001 61.7508 93.2001 61.6508 93.0001C61.5508 92.8001 61.4508 92.6501 61.4008 92.4501C61.3008 92.1001 61.3008 91.9501 61.3008 91.9501L61.4508 91.8501C61.4508 91.8501 61.6508 91.9001 61.9008 92.0001C61.9508 92.0001 62.0508 92.0501 62.1008 92.0501C62.2008 92.0501 62.2508 92.1001 62.3508 92.1001C62.5008 92.1501 62.7008 92.2001 62.9008 92.2501C63.1008 92.3001 63.3508 92.3501 63.5508 92.4501C63.7508 92.5001 64.0508 92.6001 64.2508 92.7001C64.5008 92.8001 64.7508 92.9501 64.9508 93.1001C65.2008 93.2501 65.4508 93.4001 65.7008 93.5501C66.2508 93.8001 66.8008 94.0501 67.3008 94.3001C67.8008 94.5501 68.3008 94.7501 68.7508 94.9001C69.6008 95.2501 70.1508 95.5001 70.1508 95.5001L70.2508 95.7001Z" fill="#937257"/>
<path d="M96.6 93.5001C96.6 93.5001 96.15 93.6501 95.4 93.7001C95.05 93.7501 94.6 93.8001 94.15 93.7501C93.7 93.7501 93.2 93.7001 92.65 93.6501C92.4 93.6001 92.15 93.5501 91.85 93.5501C91.6 93.5001 91.35 93.4501 91.1 93.3501C90.85 93.2501 90.65 93.1001 90.5 92.9001C90.35 92.7001 90.15 92.5501 90.05 92.3501C89.95 92.1501 89.85 91.9501 89.8 91.8001C89.75 91.6501 89.7 91.4501 89.7 91.3501C89.65 91.1001 89.7 90.9501 89.7 90.9501L89.85 90.8501C89.85 90.8501 90 90.8501 90.25 90.9501C90.35 90.9501 90.5 91.0001 90.65 91.0501C90.8 91.1001 90.95 91.1001 91.1 91.1501C91.25 91.2001 91.45 91.2001 91.6 91.3001C91.75 91.3501 91.95 91.4001 92.1 91.5001C92.25 91.6001 92.45 91.7001 92.6 91.8501C92.8 91.9501 92.95 92.1001 93.15 92.2001C93.55 92.4001 93.95 92.5501 94.35 92.7001C94.75 92.8501 95.15 92.9501 95.5 93.0501C96.2 93.2501 96.65 93.3501 96.65 93.3501L96.6 93.5001Z" fill="#937257"/>
<path d="M116.35 84.1498C116.35 84.1498 115.85 83.6998 115.1 83.0998C114.7 82.7998 114.25 82.4498 113.75 82.0998C113.25 81.7498 112.75 81.3998 112.2 81.0498C111.95 80.8998 111.65 80.7498 111.35 80.5998C111.05 80.4998 110.8 80.3498 110.55 80.2498C110.3 80.1498 110.1 79.9998 109.85 79.7998C109.65 79.6498 109.45 79.4998 109.25 79.3498C109.05 79.2498 108.9 79.0998 108.75 78.9498C108.65 78.8998 108.6 78.7998 108.5 78.7998C108.45 78.7498 108.35 78.6998 108.3 78.6498C108.05 78.4498 107.9 78.2998 107.9 78.2998V78.0998C107.9 78.0998 108.05 77.9998 108.4 77.8998C108.55 77.8498 108.75 77.7998 109 77.7998C109.25 77.7998 109.5 77.7998 109.8 77.7998C110.05 77.8498 110.35 77.8998 110.7 77.9498C111 78.0498 111.3 78.1498 111.6 78.3498C111.9 78.5498 112.15 78.7498 112.4 78.9998C112.65 79.2498 112.9 79.4998 113.15 79.6998C113.65 80.1998 114.15 80.6498 114.55 81.1498C114.95 81.6498 115.3 82.0998 115.6 82.5498C116.15 83.3998 116.5 83.9998 116.5 83.9998L116.35 84.1498Z" fill="#937257"/>
<path d="M115.45 96.8502C115.45 96.8502 114.75 96.9002 113.75 96.9002C113.25 96.9002 112.65 96.8502 112 96.8002C111.35 96.7502 110.7 96.6502 110 96.5002C109.65 96.4502 109.3 96.3502 109 96.3002C108.65 96.2502 108.35 96.1502 108 96.0502C107.4 95.8002 106.85 95.4002 106.5 95.0002C106.3 94.8002 106.15 94.6002 106 94.4002C105.85 94.2002 105.75 94.0502 105.7 93.8502C105.55 93.5502 105.5 93.3502 105.5 93.3502L105.65 93.2002C105.65 93.2002 105.85 93.2502 106.15 93.3002C106.3 93.3502 106.45 93.4002 106.65 93.4002C106.85 93.4502 107.05 93.5002 107.3 93.5502C107.55 93.6002 107.75 93.7002 108 93.7502C108.25 93.8002 108.5 93.9002 108.8 94.0502C109.05 94.1502 109.3 94.3502 109.6 94.5002C109.9 94.6502 110.15 94.8002 110.45 94.9502C111.05 95.2002 111.65 95.4502 112.2 95.6502C112.8 95.8502 113.3 96.0502 113.8 96.2002C114.75 96.5002 115.4 96.7002 115.4 96.7002L115.45 96.8502Z" fill="#937257"/>
<path d="M91.5496 84.1501C91.5496 84.1501 90.8496 83.7001 89.7496 83.1001C89.4496 82.9501 89.1996 82.8001 88.8496 82.6501C88.5496 82.5001 88.1996 82.3001 87.8496 82.1501C87.4996 82.0001 87.1496 81.8501 86.7496 81.6501C86.3996 81.5001 85.9996 81.3501 85.6496 81.2001C85.2496 81.0501 84.8996 80.9501 84.4996 80.8501C84.0996 80.7501 83.7496 80.6501 83.3996 80.5501C83.0496 80.4501 82.6996 80.3001 82.3996 80.1501C82.0996 80.0501 81.7996 79.9001 81.4996 79.7501C81.2496 79.6501 80.9496 79.5001 80.7496 79.4001C80.6496 79.3501 80.5496 79.3001 80.4496 79.2501C80.3496 79.2001 80.2496 79.1501 80.1496 79.1001C79.7996 78.9501 79.5996 78.8001 79.5996 78.8001V78.6001C79.5996 78.6001 79.7996 78.5001 80.1996 78.3501C80.3996 78.3001 80.6496 78.2001 80.8996 78.2001C81.1496 78.1501 81.4996 78.1501 81.8496 78.1001C82.1996 78.1001 82.5496 78.1501 82.9496 78.2001C83.3496 78.2501 83.6996 78.3501 84.0996 78.5001C84.4996 78.6501 84.8496 78.8501 85.2496 79.0501C85.5996 79.2501 85.9996 79.5001 86.3496 79.7001C86.6996 79.9501 87.0996 80.1501 87.4496 80.4001C87.7996 80.6501 88.1496 80.8501 88.4496 81.1001C89.0996 81.5501 89.6496 82.0501 90.1496 82.5001C91.0996 83.3501 91.6496 83.9501 91.6496 83.9501L91.5496 84.1501Z" fill="#937257"/>
<path d="M101.749 74.0001C101.749 74.0001 100.999 74.1501 99.8492 74.3001C99.2992 74.3501 98.5992 74.4501 97.8992 74.5001C97.1992 74.5501 96.3992 74.6001 95.6492 74.6501C94.8992 74.6501 94.0992 74.8001 93.3492 74.7001C92.9992 74.6501 92.6492 74.6001 92.2992 74.5001C91.9492 74.4001 91.6492 74.3001 91.3992 74.1501C91.0992 74.0501 90.8492 73.9001 90.6492 73.7501C90.4492 73.6001 90.2492 73.5001 90.0992 73.3501C89.7992 73.1001 89.6992 72.9501 89.6992 72.9501L89.7992 72.7501C89.7992 72.7501 89.9992 72.7001 90.3492 72.6501C90.4992 72.6501 90.6992 72.6001 90.9492 72.6001C91.1992 72.6001 91.4492 72.5501 91.6992 72.5501C92.2492 72.5501 92.8992 72.5001 93.5992 72.6001C94.2992 72.7001 94.9992 72.9001 95.7492 73.0001C96.4992 73.1001 97.2492 73.2001 97.9492 73.3001C98.6492 73.4001 99.2992 73.4501 99.8492 73.5501C100.999 73.7001 101.749 73.8001 101.749 73.8001V74.0001Z" fill="#937257"/>
<path d="M76.6504 73.0001C76.6504 73.0001 76.0504 73.5001 75.0504 74.2001C74.5504 74.5501 74.0004 74.9501 73.3504 75.3001C73.0504 75.5001 72.7004 75.7001 72.3504 75.9001C72.0004 76.1001 71.6504 76.3001 71.3004 76.4501C70.9504 76.6501 70.6004 76.8501 70.2504 77.0001C69.9004 77.2001 69.5504 77.3501 69.1504 77.5001C68.8004 77.6001 68.4004 77.7001 68.0504 77.7501C67.7004 77.8001 67.3504 77.8001 67.0004 77.8001C66.7004 77.8001 66.4004 77.7501 66.1004 77.7001C65.9504 77.6501 65.8504 77.6501 65.7504 77.6001C65.6504 77.5501 65.5504 77.5001 65.4504 77.5001C65.1004 77.3501 64.9004 77.2001 64.9004 77.2001L64.9504 77.0001C64.9504 77.0001 65.1504 76.9001 65.5004 76.7501C65.6504 76.7001 65.8504 76.6001 66.0504 76.5001C66.1504 76.4501 66.2504 76.4001 66.4004 76.3501C66.5004 76.3001 66.6504 76.2501 66.7504 76.2001C67.0004 76.1001 67.3004 75.9501 67.6004 75.8501C67.9004 75.7501 68.2004 75.6001 68.5504 75.5001C68.9004 75.4001 69.2504 75.3501 69.6004 75.2501C69.9504 75.2001 70.3504 75.1001 70.7004 74.9501C71.4504 74.7501 72.1504 74.4501 72.8504 74.2501C73.5504 74.0001 74.2004 73.7501 74.7504 73.5501C75.8504 73.1001 76.6004 72.8501 76.6004 72.8501L76.6504 73.0001Z" fill="#937257"/>
<path d="M87.7988 100.85C87.7988 100.85 87.5988 100.9 87.2488 101C86.8988 101.05 86.3988 101.15 85.7988 101.15C85.1988 101.15 84.4988 101.15 83.7488 101.05C83.3488 101 82.9988 100.95 82.5988 100.85C82.1988 100.75 81.7988 100.65 81.3988 100.55C80.9988 100.4 80.5988 100.3 80.1988 100.2C79.7988 100.05 79.4488 99.95 79.0988 99.75C78.7488 99.55 78.4988 99.3 78.1988 99.1C77.9488 98.85 77.6988 98.6 77.5488 98.35C77.3488 98.1 77.1988 97.85 77.0488 97.65C76.9488 97.4 76.8488 97.2 76.7488 97.05C76.5988 96.7 76.5488 96.45 76.5488 96.45L76.6988 96.25C76.6988 96.25 76.9488 96.25 77.2988 96.35C77.4988 96.4 77.6988 96.45 77.9488 96.5C78.1988 96.6 78.4488 96.65 78.6988 96.75C78.9488 96.85 79.2488 96.95 79.5488 97.1C79.8488 97.2 80.1488 97.35 80.3988 97.55C80.6988 97.7 80.9488 97.95 81.2488 98.15C81.5488 98.35 81.8488 98.55 82.1488 98.75C82.4488 98.9 82.7988 99.1 83.0988 99.25C83.4488 99.4 83.7488 99.55 84.0488 99.7C84.3488 99.85 84.6988 99.95 84.9988 100.05C85.2988 100.15 85.5988 100.25 85.8488 100.3C86.0988 100.35 86.3488 100.45 86.5988 100.5C86.7988 100.55 86.9988 100.6 87.1988 100.6C87.5488 100.65 87.6988 100.65 87.6988 100.65L87.7988 100.85Z" fill="#594E46"/>
<path d="M99.0488 88.5502C99.0488 88.5502 98.3488 88.4002 97.3488 88.2502C96.8488 88.1502 96.2488 88.0502 95.5988 87.9502C94.9488 87.8502 94.2988 87.7502 93.6488 87.7002C93.2988 87.6502 92.9988 87.6502 92.6488 87.6502C92.2988 87.6502 91.9988 87.6502 91.6988 87.6502C91.3988 87.6002 91.1488 87.5502 90.8488 87.5002C90.5988 87.4002 90.3488 87.4002 90.0988 87.3002C89.8488 87.2002 89.6488 87.1502 89.4488 87.1002C89.2488 87.0002 89.0488 86.9502 88.8988 86.9002C88.5988 86.8002 88.3988 86.7002 88.3988 86.7002L88.2988 86.4502C88.2988 86.4502 88.3988 86.2502 88.6988 86.0002C88.7488 85.9502 88.8488 85.8502 88.9488 85.8002C89.0488 85.7502 89.1488 85.7002 89.2488 85.6002C89.4488 85.5002 89.7488 85.3502 89.9988 85.2502C90.2988 85.1502 90.5988 85.0502 90.9488 85.0502C91.2988 85.0002 91.6488 85.0002 91.9988 85.0502C92.3488 85.1002 92.6988 85.2002 93.0488 85.3502C93.3988 85.5002 93.7488 85.6002 94.0988 85.7502C94.4488 85.8502 94.7988 86.0002 95.0988 86.1502C95.4488 86.2502 95.7488 86.4502 96.0488 86.5502C96.6488 86.8502 97.1988 87.1502 97.6488 87.4002C98.5488 87.9502 99.1488 88.3502 99.1488 88.3502L99.0488 88.5502Z" fill="#594E46"/>
<path d="M116.698 90.3501C116.698 90.3501 116.198 90.1001 115.398 89.7001C114.998 89.5001 114.548 89.3001 114.098 89.0501C113.598 88.8501 113.098 88.5501 112.598 88.3501C112.348 88.2501 112.098 88.1501 111.798 88.0501C111.548 87.9501 111.298 87.9001 111.048 87.8001C110.848 87.7001 110.648 87.5501 110.448 87.4001C110.248 87.2501 110.098 87.1001 109.948 87.0001C109.898 86.9501 109.798 86.8501 109.748 86.8001C109.698 86.7501 109.598 86.7001 109.548 86.6001C109.448 86.4501 109.298 86.3501 109.248 86.2501C109.048 86.0501 108.898 85.9001 108.898 85.9001V85.6501C108.898 85.6501 109.048 85.5001 109.348 85.3501C109.498 85.2501 109.698 85.2001 109.898 85.1501C109.998 85.1001 110.148 85.1001 110.248 85.1001C110.348 85.1001 110.498 85.1001 110.598 85.1001C110.748 85.1001 110.848 85.1001 110.998 85.1001C111.148 85.1001 111.248 85.1501 111.398 85.2001C111.698 85.2501 111.948 85.3501 112.198 85.5001C112.698 85.8001 113.098 86.3001 113.598 86.6501C114.048 87.0501 114.498 87.4501 114.898 87.8501C115.298 88.2501 115.648 88.6501 115.898 88.9501C116.448 89.6501 116.798 90.1001 116.798 90.1001L116.698 90.3501Z" fill="#594E46"/>
<path d="M127.349 78.1502C127.349 78.1502 126.849 77.7502 126.099 77.1502C125.749 76.8502 125.299 76.5502 124.849 76.2002C124.399 75.8502 123.899 75.5002 123.349 75.2002C123.099 75.0502 122.799 74.9001 122.549 74.8001C122.299 74.7001 121.999 74.6002 121.799 74.4502C121.549 74.3002 121.399 74.1502 121.199 74.0002C120.999 73.8502 120.849 73.7002 120.699 73.5002C120.549 73.3502 120.399 73.2001 120.249 73.0501C120.099 72.9001 119.999 72.8002 119.899 72.6502C119.699 72.4002 119.549 72.2502 119.549 72.2502L119.599 72.0002C119.599 72.0002 119.799 71.9001 120.099 71.8001C120.249 71.7501 120.499 71.7002 120.699 71.6502C120.949 71.6502 121.199 71.6002 121.449 71.6502C121.699 71.7002 121.999 71.7501 122.299 71.8501C122.599 71.9501 122.899 72.1002 123.149 72.2502C123.399 72.4502 123.649 72.6502 123.899 72.9502C124.099 73.2002 124.349 73.4502 124.599 73.7002C125.049 74.2002 125.499 74.7002 125.849 75.2002C126.199 75.7002 126.499 76.2001 126.749 76.6001C127.249 77.4501 127.499 78.0501 127.499 78.0501L127.349 78.1502Z" fill="#594E46"/>
<path d="M98.1496 41.55C98.1496 41.55 97.9996 41.6 97.6996 41.75C97.5496 41.8 97.3996 41.9 97.1996 42C96.9996 42.1 96.7996 42.2 96.5496 42.35C96.0496 42.6 95.5496 42.9 94.9496 43.2C94.6496 43.35 94.3996 43.55 94.0996 43.7C93.7996 43.9 93.4996 44.05 93.1996 44.25C92.8996 44.45 92.6496 44.65 92.3496 44.85C92.1996 44.95 92.0996 45.05 91.9496 45.15C91.7996 45.25 91.6996 45.35 91.5496 45.45C90.9996 45.8 90.3996 45.95 89.9496 46.15C89.6996 46.25 89.4496 46.3 89.2496 46.35C88.9996 46.4 88.7996 46.45 88.6496 46.45C88.2496 46.5 87.9996 46.5 87.9996 46.5L87.8496 46.3C87.8496 46.3 87.8996 46.1 88.0496 45.75C88.0996 45.6 88.1996 45.4 88.3496 45.2C88.4496 45 88.5996 44.75 88.7996 44.5C88.9496 44.25 89.1996 44.05 89.4496 43.8C89.6996 43.6 89.9496 43.35 90.2496 43.2C90.3996 43.1 90.5496 43.05 90.7496 42.95C90.8996 42.9 91.0996 42.85 91.2996 42.8C91.6496 42.7 91.9996 42.6 92.3496 42.45C92.6996 42.3 93.0496 42.2 93.3996 42.1C93.7496 42 94.0996 41.9 94.4496 41.8C95.1496 41.65 95.7496 41.5 96.2996 41.45C96.8496 41.35 97.2996 41.3 97.5996 41.3C97.8996 41.25 98.0996 41.25 98.0996 41.25L98.1496 41.55Z" fill="#594E46"/>
<path d="M98.2484 55.8501C98.2484 55.8501 97.6984 55.9001 96.8984 56.0501C96.4984 56.1001 96.0484 56.2501 95.5984 56.4001C95.1484 56.5501 94.6484 56.7001 94.2484 56.9501C94.1484 57.0001 94.0484 57.0501 93.9484 57.1001L93.6484 57.3001C93.4484 57.4501 93.2984 57.6001 93.0984 57.7001C92.8984 57.8001 92.6984 57.8501 92.4984 57.9001C92.2984 57.9501 92.0984 58.0001 91.8984 58.0501C91.6984 58.1001 91.4984 58.1001 91.3484 58.1501C91.1984 58.2001 90.9984 58.2001 90.8484 58.2001C90.5484 58.2001 90.3484 58.2001 90.3484 58.2001L90.1484 58.0001C90.1484 58.0001 90.1484 57.8001 90.1984 57.5001C90.2484 57.3501 90.2984 57.2001 90.3484 57.0001C90.3984 56.8001 90.5484 56.6001 90.6984 56.4001C90.7484 56.3001 90.8484 56.2001 90.8984 56.1001C90.9984 56.0001 91.0984 55.9001 91.1984 55.8001C91.3984 55.6001 91.6484 55.4501 91.8984 55.3001C92.1484 55.2001 92.4484 55.1001 92.7984 55.0501C93.0984 55.0001 93.3984 54.9501 93.6984 54.9501C93.9984 54.9001 94.2984 54.9001 94.5984 54.8501C94.8984 54.8501 95.1984 54.8501 95.4484 54.8501C95.7484 54.9001 95.9984 54.9001 96.2484 54.9501C96.4984 55.0001 96.7484 55.0501 96.9484 55.1001C97.7984 55.3001 98.2984 55.5501 98.2984 55.5501L98.2484 55.8501Z" fill="#594E46"/>
<path d="M69.9484 80.3498C69.9484 80.3498 69.4484 80.5998 68.6484 80.8998C68.2484 81.0498 67.7484 81.1998 67.2484 81.3498C66.9984 81.3998 66.6984 81.4998 66.4484 81.5498C66.1484 81.5998 65.8984 81.6498 65.5984 81.6998C65.2984 81.7498 64.9984 81.7998 64.6984 81.8498C64.3984 81.8998 64.0984 81.8998 63.7984 81.8998C63.4984 81.8998 63.2484 81.7498 62.9984 81.6498C62.7484 81.5498 62.4984 81.3498 62.2984 81.2498C62.0984 81.0998 61.9484 80.8998 61.7984 80.7498C61.7484 80.6498 61.6984 80.5998 61.6484 80.4998C61.5984 80.3998 61.5484 80.2998 61.5484 80.2498C61.3984 79.9498 61.3984 79.7498 61.3984 79.7498L61.4984 79.4998C61.4984 79.4998 61.6984 79.4498 61.9984 79.4498C62.1484 79.4498 62.2984 79.3998 62.4484 79.3998C62.5984 79.3498 62.7984 79.3498 62.9484 79.3498C63.1484 79.2998 63.2984 79.2998 63.5484 79.2998C63.7484 79.2998 63.9484 79.2998 64.1984 79.3498C64.3984 79.3998 64.6484 79.4998 64.8984 79.5498C65.1484 79.6498 65.3984 79.6998 65.6484 79.7498C66.1484 79.8498 66.6984 79.8998 67.1984 79.9498C67.6984 79.9998 68.1984 80.0498 68.5984 80.0998C69.3984 80.1498 69.9984 80.1998 69.9984 80.1998L69.9484 80.3498Z" fill="#594E46"/>
<path d="M116.25 63.3498C116.25 63.3498 115.45 63.4498 114.3 63.6998C113.75 63.7998 113.05 63.9498 112.35 64.1498C112 64.2498 111.65 64.3498 111.3 64.4498C110.95 64.5498 110.6 64.6998 110.25 64.7998C109.9 64.9498 109.55 65.0998 109.25 65.2498C108.95 65.4498 108.6 65.5998 108.3 65.7498C108 65.8998 107.65 65.9498 107.4 66.0498C107.1 66.1498 106.8 66.1998 106.55 66.2498C106.3 66.2998 106 66.3998 105.75 66.3998C105.5 66.4498 105.3 66.4998 105.1 66.4998C104.75 66.5498 104.5 66.5498 104.5 66.5498L104.35 66.3498C104.35 66.3498 104.4 66.0998 104.6 65.7498C104.7 65.5498 104.8 65.3498 104.95 65.1498C105.1 64.9498 105.3 64.6998 105.55 64.4498C105.75 64.1998 106.05 63.9998 106.35 63.7998C106.65 63.5498 107 63.3998 107.35 63.2498C107.7 63.0998 108.15 63.0498 108.55 62.9498C108.95 62.8498 109.4 62.8498 109.8 62.7498C110.6 62.6498 111.45 62.5498 112.2 62.5498C112.95 62.5498 113.7 62.5998 114.3 62.6498C115.5 62.7498 116.3 62.9498 116.3 62.9498L116.25 63.3498Z" fill="#594E46"/>
<path d="M63.35 47.8499C63.35 47.8499 63 48.3499 62.55 49.1499C62.3 49.5499 62.1 49.9999 61.85 50.4999C61.6 50.9999 61.35 51.5499 61.15 52.0499C61.05 52.2999 60.95 52.5999 60.9 52.8499C60.85 53.0999 60.75 53.3999 60.7 53.6499C60.6 53.8999 60.45 54.0999 60.35 54.2999C60.2 54.4999 60.05 54.6999 59.95 54.8499C59.8 55.0499 59.65 55.1999 59.55 55.3499C59.4 55.4999 59.3 55.6499 59.2 55.7499C58.95 55.9499 58.8 56.0999 58.8 56.0999L58.5 56.0499C58.5 56.0499 58.4 55.8999 58.25 55.5499C58.2 55.3999 58.15 55.1999 58.1 54.9999C58.05 54.7999 58.05 54.5499 58 54.2999C58 54.0499 58 53.7499 58.05 53.4999C58.1 53.1999 58.15 52.8999 58.3 52.6499C58.45 52.3499 58.6 52.0999 58.8 51.8499C59 51.5999 59.2 51.3499 59.4 51.0999C59.6 50.8499 59.8 50.5999 60 50.3499C60.2 50.0999 60.4 49.8999 60.65 49.6499C60.85 49.4499 61.05 49.2499 61.3 49.0499C61.5 48.8499 61.7 48.6999 61.9 48.5499C62.65 47.9499 63.2 47.6499 63.2 47.6499L63.35 47.8499Z" fill="#594E46"/>
<path d="M78.1996 44.8498C78.1996 44.8498 77.8996 45.3498 77.4496 46.0998C77.2496 46.4998 76.9996 46.9498 76.7996 47.3998C76.5996 47.8998 76.3496 48.3998 76.1496 48.8998C76.0496 49.1498 75.9996 49.3998 75.9496 49.6998C75.8996 49.9498 75.8496 50.1998 75.7496 50.4498C75.6496 50.6998 75.5496 50.8998 75.3996 51.0498C75.2996 51.2498 75.1496 51.3998 74.9996 51.5998C74.8496 51.7498 74.7496 51.8998 74.5996 52.0498C74.4996 52.1998 74.3496 52.2998 74.2496 52.3998C74.0496 52.5998 73.8496 52.7498 73.8496 52.7498L73.5996 52.6998C73.5996 52.6998 73.4996 52.5498 73.3496 52.2498C73.2996 52.0998 73.1996 51.9498 73.1496 51.6998C73.0996 51.4998 73.0496 51.2498 73.0496 50.9998C72.9996 50.7498 73.0496 50.4998 73.0496 50.1998C73.0496 49.8998 73.1496 49.6498 73.2496 49.3498C73.3496 49.0498 73.5496 48.7998 73.7496 48.5498C73.9496 48.2998 74.1496 48.0498 74.3496 47.7998C74.7496 47.2998 75.1496 46.8498 75.5496 46.4498C75.9496 46.0498 76.3496 45.6998 76.6996 45.3998C77.3996 44.8498 77.9496 44.5498 77.9496 44.5498L78.1996 44.8498Z" fill="#594E46"/>
<path d="M66.2 67.6501C66.2 67.6501 66.15 68.1501 65.95 68.9001C65.85 69.2501 65.7 69.7001 65.5 70.1501C65.3 70.6001 65.05 71.0501 64.75 71.5001C64.6 71.7001 64.45 71.9501 64.3 72.2001C64.15 72.4501 64 72.6501 63.75 72.8501C63.55 73.0001 63.3 73.1501 63.05 73.2501C62.8 73.3501 62.6 73.4001 62.35 73.4001C62.1 73.4001 61.9 73.4001 61.7 73.4001C61.5 73.3501 61.35 73.3001 61.2 73.2501C60.95 73.1501 60.8 73.0501 60.8 73.0501L60.75 72.8001C60.75 72.8001 60.85 72.6001 60.95 72.4001C61 72.3001 61.1 72.1501 61.2 72.0501C61.3 71.9001 61.35 71.7501 61.45 71.6501C61.55 71.5001 61.65 71.3501 61.75 71.2501C61.85 71.1001 62 70.9501 62.15 70.8501C62.3 70.7501 62.5 70.6501 62.7 70.5501C62.9 70.4501 63.1 70.3501 63.25 70.2001C63.4 70.0501 63.6 69.9501 63.75 69.8001C63.9 69.6501 64.1 69.5001 64.25 69.3501C64.4 69.2001 64.55 69.0501 64.7 68.9001C64.85 68.7501 65 68.6001 65.1 68.5001C65.6 67.9501 65.9 67.6001 65.9 67.6001L66.2 67.6501Z" fill="#594E46"/>
<path d="M42.5492 59.4498C42.5492 59.4498 42.5992 59.9998 42.6492 60.8498C42.6992 61.6998 42.7992 62.7998 42.8492 63.8998C42.8992 64.4498 43.0992 64.9998 43.0492 65.4998C43.0492 65.9998 42.8992 66.4498 42.7492 66.8498C42.6492 67.0498 42.5992 67.2498 42.4992 67.3998C42.3992 67.5498 42.3492 67.6998 42.2492 67.8498C42.0992 68.0998 41.9492 68.2498 41.9492 68.2498L41.6992 68.2998C41.6992 68.2998 41.5492 68.1998 41.3492 67.9498C41.2492 67.8498 41.1492 67.6998 41.0492 67.4998C40.9492 67.3498 40.7992 67.1498 40.7492 66.8998C40.6492 66.6998 40.5992 66.4498 40.5492 66.1998C40.4992 65.9498 40.4492 65.6998 40.4492 65.3998C40.4492 65.1498 40.5492 64.8498 40.5992 64.5498C40.6992 64.2498 40.7492 63.9998 40.7992 63.6998C40.8492 63.3998 40.9492 63.1498 40.9992 62.8498C41.0492 62.5998 41.1492 62.2998 41.1992 62.0498C41.3492 61.5498 41.4992 61.0498 41.6492 60.6498C41.9492 59.8498 42.1992 59.2998 42.1992 59.2998L42.5492 59.4498Z" fill="#594E46"/>
<path d="M95.3 68.5499C95.3 68.5499 94.85 68.8499 94.1 69.2499C93.75 69.4499 93.3 69.6499 92.8 69.8999C92.35 70.1499 91.8 70.2999 91.3 70.5499C91.05 70.6499 90.75 70.7499 90.5 70.8999C90.25 70.9999 90 71.0999 89.7 71.1999C89.15 71.2999 88.65 71.1999 88.2 71.0999C88 71.0499 87.75 70.9499 87.6 70.8499C87.4 70.7499 87.25 70.6999 87.15 70.5999C86.9 70.4499 86.75 70.2999 86.75 70.2999V70.0499C86.75 70.0499 86.9 69.8999 87.1 69.6999C87.2 69.5999 87.35 69.4999 87.5 69.3999C87.65 69.2999 87.8 69.1999 88 69.0999C88.35 68.8999 88.8 68.6999 89.25 68.6499C89.75 68.5499 90.3 68.6999 90.8 68.6499C91.85 68.5499 92.95 68.4999 93.8 68.4499C94.65 68.3999 95.2 68.3999 95.2 68.3999L95.3 68.5499Z" fill="#594E46"/>
<path d="M55.5992 97.0504C55.5992 97.0504 55.0992 97.2504 54.3992 97.4504C54.0492 97.5504 53.5992 97.6504 53.1492 97.7504C52.6992 97.8504 52.1492 97.9004 51.6492 97.9504C51.1492 98.0004 50.5992 98.1504 50.0992 98.1004C49.8492 98.0504 49.5992 98.0004 49.3992 97.9004C49.1992 97.8004 48.9492 97.6504 48.7992 97.5504C48.5992 97.4004 48.4492 97.2504 48.3492 97.1004C48.2992 97.0004 48.2492 96.9504 48.1992 96.9004C48.1492 96.8504 48.0992 96.7504 48.0992 96.7004C47.9492 96.4004 47.9492 96.2504 47.9492 96.2504L47.9992 96.0004C47.9992 96.0004 48.1992 95.9504 48.4492 95.8504C48.5492 95.8004 48.6992 95.7504 48.8492 95.7504C48.9992 95.7004 49.1492 95.6504 49.3492 95.6504C49.6992 95.6004 50.0492 95.5004 50.4992 95.6004C50.6992 95.6504 50.8992 95.7004 51.0992 95.8004C51.2992 95.9004 51.5492 95.9504 51.7492 96.0004C52.1992 96.1004 52.6992 96.2004 53.0992 96.3004C53.5492 96.4004 53.9492 96.5004 54.3492 96.5504C55.0992 96.7004 55.5492 96.8004 55.5492 96.8004L55.5992 97.0504Z" fill="#594E46"/>
</svg>
