<svg width="150" height="150" viewBox="0 0 150 150" fill="none" xmlns="http://www.w3.org/2000/svg">
<path d="M40.1778 70.7746C40.5304 72.3909 40.9602 74.0623 42.0182 75.3377C43.8916 77.5918 47.2859 77.9766 50.1512 77.3499C52.3222 76.8661 54.416 75.8765 55.9368 74.2602C57.8213 72.248 58.6699 69.4332 58.736 66.6733C58.8132 63.9245 60.0805 64.2653 58.747 61.8573C53.854 53.061 52.4875 43.1211 49.6002 35.5563C49.3136 34.7866 48.994 33.9949 48.41 33.4341C47.4181 32.4775 45.7981 32.4116 44.5308 32.9503C43.2635 33.4891 42.2827 34.5447 41.4561 35.6442C38.0178 40.2183 37.3125 44.5285 37.5219 50.0482C37.7864 57.0193 38.679 63.9684 40.1778 70.7746Z" fill="#CA7233"/>
<path d="M44.3107 47.1023C44.7846 46.4536 45.2364 45.7499 45.4017 44.9692C44.7075 44.7603 43.9801 45.1121 43.3299 45.431C41.8863 46.1347 40.3875 46.7394 38.8446 47.2342C38.492 47.3552 37.963 47.3882 37.4451 47.4761C37.423 48.3338 37.434 49.2134 37.4671 50.126C37.5002 51.0826 37.5553 52.0392 37.6104 52.9958C40.2332 51.5334 42.5364 49.5213 44.3107 47.1023Z" fill="#B2642F"/>
<path d="M124.119 69.2358C126.411 71.05 128.318 73.3481 129.662 75.943C133.409 83.178 132.737 92.2492 137.222 99.0554C136.319 98.9014 135.47 98.4506 134.82 97.7909C136.914 104.19 137.134 111.194 135.437 117.715C135.415 115.164 134.765 112.657 133.861 110.26C133.552 112.272 133.079 114.262 132.439 116.208C132.329 110.908 130.676 105.642 127.723 101.232C127.701 103.41 127.69 105.587 127.668 107.764C125.981 103.838 124.736 96.5264 124.615 93.5686C124.251 94.8111 123.976 97.1642 123.601 98.4066C123.072 97.626 123.127 93.9755 123.105 93.0299C122.973 87.994 122.466 84.5744 121.915 81.4847C121.397 78.5489 119.557 70.7091 114.983 69.2138C113.925 68.8729 110.443 69.6426 110.079 68.4661C109.275 65.8052 114.278 65.6403 115.876 65.7722C118.884 66.0361 121.772 67.3775 124.119 69.2358Z" fill="#543F30"/>
<path d="M37.7855 21.9443C39.4936 22.4941 40.5957 28.7505 40.9924 32.434C41.0806 33.2256 41.1247 34.1053 40.6177 34.71C40.0887 35.3588 39.0859 35.4467 38.3034 35.1279C37.521 34.82 36.9259 34.1932 36.3639 33.5665C34.6116 31.5983 34.4133 30.6857 35.1627 28.2777C35.3831 27.563 36.959 21.9443 37.7855 21.9443Z" fill="#A35B2B"/>
<path d="M29.674 93.0845C29.2442 93.4583 28.7924 93.8542 28.5389 94.3709C28.0871 95.3055 28.3626 96.4051 28.6711 97.3837C30.3462 102.826 33.7515 110.952 36.716 115.801C36.8923 116.087 37.0796 116.384 37.3772 116.516C37.6858 116.659 38.0494 116.593 38.38 116.516C39.3829 116.296 40.3747 115.988 41.3335 115.603C38.8759 111.348 37.1237 103.068 35.6139 98.4063C40 95.4375 43.0857 93.3484 47.4718 90.3906C49.3342 89.1371 51.384 87.5538 51.4942 85.3107C51.5714 83.8373 50.7118 82.4299 49.5326 81.5503C45.6975 78.6805 43.5375 80.9895 40.54 83.5954C36.9143 86.7621 33.2886 89.9178 29.674 93.0845Z" fill="#A35B2B"/>
<path d="M90.4729 97.362C92.5998 99.638 97.1953 101.078 98.4516 103.915C99.3333 105.905 95.0684 123.773 93.7459 129.963C95.1455 129.963 96.5561 129.974 97.9557 129.974C99.73 120.518 103.488 111.447 108.921 103.497C109.196 103.091 109.483 102.673 109.527 102.189C109.659 100.826 107.984 100.122 106.981 99.1762C105.427 97.7028 105.383 95.2399 105.868 93.1617C106.684 89.6322 108.656 86.3995 109.02 82.804C109.494 78.054 107.047 73.4579 103.929 69.8294C103.168 68.9498 102.342 68.0811 101.306 67.5534C100.072 66.9266 98.628 66.8387 97.2394 66.8826C95.2778 66.9486 93.2941 67.2675 91.5529 68.1471C86.3403 70.775 85.624 76.0308 85.5138 81.1547C85.3815 87.4551 85.8003 92.3481 90.4729 97.362Z" fill="#A35B2B"/>
<path d="M34.6668 28.3986C31.7354 30.0589 29.4101 32.5768 26.7322 34.6C24.3848 36.3702 21.762 37.7557 18.9739 38.7013C18.0151 39.0311 16.9682 39.35 16.3731 40.1747C15.9874 40.7244 15.8551 41.4062 15.8331 42.0769C15.7229 45.6284 18.6653 49.015 22.2138 49.3998C23.4151 49.5318 24.6163 49.3558 25.8175 49.1799C29.7848 48.6082 34.8762 49.004 38.8325 48.4322C41.3672 48.0694 42.8108 46.7279 45.1251 45.6504C47.4394 44.5728 49.5112 42.6816 50.1724 40.2186C50.7785 37.9536 50.1173 35.5016 48.9051 33.4894C45.6431 28.0907 40.6839 24.99 34.6668 28.3986Z" fill="#CA7233"/>
<path d="M40.5508 70.3238C40.8483 79.0761 44.7385 87.6636 51.1303 93.6671C52.6511 95.0965 54.3152 96.3829 56.1886 97.2956C59.66 98.9779 63.6384 99.2417 67.4955 99.3407C78.3836 99.6156 89.2716 98.8019 100.116 97.7354C102.86 97.4605 105.637 97.1746 108.26 96.317C110.882 95.4593 113.395 93.9969 115.026 91.7758C117.451 88.4662 117.605 84.0351 117.208 79.9448C116.944 77.2289 116.47 74.524 115.787 71.8741C115.379 70.2798 114.883 68.6745 113.913 67.355C112.084 64.881 108.899 63.8475 105.868 63.3307C99.9063 62.3191 93.801 62.8139 87.7619 63.0668C78.5599 63.4626 69.3359 63.3087 60.1449 62.627C56.0343 62.3191 51.6923 61.9453 47.9895 63.7595C45.6532 64.903 43.7467 66.8932 42.6997 69.2792L40.5508 70.3238Z" fill="#CA7233"/>
<path d="M117.187 79.8242C116.9 81.8914 116.261 83.8705 115.027 85.5528C113.396 87.7739 110.894 89.2473 108.26 90.0939C105.637 90.9516 102.86 91.2375 100.116 91.5124C89.2722 92.5789 78.3842 93.3926 67.4961 93.1177C63.639 93.0187 59.6606 92.7548 56.1892 91.0725C54.3158 90.1599 52.6517 88.8735 51.1309 87.444C46.1828 82.793 44.7391 87.664 51.1309 93.6675C52.6517 95.0969 54.3158 96.3833 56.1892 97.2959C59.6606 98.9783 63.639 99.2421 67.4961 99.3411C78.3842 99.616 89.2722 98.8023 100.116 97.7358C102.86 97.4609 105.637 97.175 108.26 96.3174C110.883 95.4597 113.396 93.9973 115.027 91.7762C117.451 88.4666 117.605 84.0355 117.209 79.9452C117.198 79.9122 117.187 79.8682 117.187 79.8242Z" fill="#B2642F"/>
<path d="M44.2984 31.631C45.5657 33.8851 45.9845 36.513 46.1167 39.0859C46.26 41.8678 46.0727 44.6716 45.5657 47.4205C45.9074 47.0906 46.238 46.7717 46.5796 46.4419C45.9074 52.8082 47.0094 59.3505 49.7204 65.1561C49.9408 64.4744 50.1722 63.8037 50.3926 63.1219C51.2522 68.6197 54.4261 73.7325 58.9775 76.9432C58.4044 74.6451 58.0738 72.2921 57.9856 69.9281C59.1979 72.1382 61.1154 73.9634 63.3856 75.063C62.2505 72.8639 61.0934 70.6098 60.7407 68.1578C60.4432 66.0797 60.7407 63.9576 60.5754 61.8575C60.2117 57.3383 57.7101 53.303 56.3436 48.9708C55.473 46.211 55.0763 43.3302 54.3269 40.5373C53.4012 37.0628 51.9355 33.7202 49.9959 30.6854C48.6404 28.5523 46.9433 26.4742 44.5959 25.5066C43.4939 25.0448 42.2376 24.9128 41.0584 25.1217C40.3201 25.2537 38.105 25.8584 38.5458 26.903C38.8654 27.6617 41.0584 28.1675 41.7527 28.6843C42.7996 29.4759 43.6702 30.4985 44.2984 31.631Z" fill="#543F30"/>
<path d="M42.9437 22.252C44.6518 22.8017 45.7539 29.0581 46.1506 32.7416C46.2388 33.5333 46.2829 34.4129 45.7759 35.0176C45.2469 35.6664 44.2441 35.7543 43.4617 35.4355C42.6792 35.1276 42.0841 34.5009 41.5221 33.8741C39.7698 31.9059 39.5715 30.9933 40.3209 28.5853C40.5523 27.8816 42.1172 22.252 42.9437 22.252Z" fill="#CA7233"/>
<path d="M34.359 27.9258C33.9843 28.3986 33.6977 28.9264 33.4443 29.4762C32.5296 31.4443 32.1108 33.7644 32.8712 35.7985C33.0696 35.2048 33.3561 34.644 33.7308 34.1492C34.1826 35.7216 35.3728 37.03 36.8055 37.8327C38.2381 38.6243 39.9022 38.9432 41.5552 38.9652C40.7177 37.3489 40.2328 35.5566 40.1226 33.7314C40.6075 34.567 41.4671 35.1718 42.4148 35.3587C40.7067 32.9617 40.1005 29.817 40.7838 26.9582C40.9271 26.3644 41.5552 25.2099 40.5965 25.1C39.8691 25.023 38.9104 25.3309 38.2161 25.5398C36.7393 25.9466 35.3177 26.7053 34.359 27.9258Z" fill="#543F30"/>
<path d="M53.1801 91.8427C53.6209 90.0944 54.9874 88.4891 56.5743 87.0487C57.3127 86.3779 58.1282 85.7072 58.3045 84.8936C58.5029 85.6193 59.2082 86.169 59.638 86.9057C61.0265 89.2917 63.991 91.8976 66.6469 93.0961C67.9253 93.6679 65.7873 94.7235 64.8726 95.834C64.1783 96.6807 62.7898 97.1974 61.3571 97.4064C60.2771 97.5713 59.1531 97.5713 58.0621 97.4393C57.3788 97.3514 56.4641 97.3404 55.858 97.0985C54.2931 96.4937 53.4445 95.0643 53.158 93.9538C53.0037 93.2501 53.0037 92.5354 53.1801 91.8427Z" fill="#B2642F"/>
<path d="M42.8008 81.2096C50.4709 95.9325 55.6946 113.833 57.3917 130.337C58.7141 130.535 60.0366 130.744 61.348 130.942C61.7447 120.969 59.7611 111.051 59.6839 101.078C59.6398 95.3168 60.1909 89.3243 57.9537 84.0135C57.5129 82.9689 56.9619 81.9573 56.1464 81.1657C54.835 79.8902 52.9725 79.3184 51.1432 79.2305C49.3138 79.1425 47.5065 79.4944 45.7101 79.8462L42.8008 81.2096Z" fill="#CA7233"/>
<path d="M92.3358 88.137C92.2476 84.7284 93.7133 81.1549 96.3472 78.3291C95.9284 80.891 97.4272 83.2331 99.3778 84.9593C101.251 86.6197 103.643 87.9721 104.612 90.1822C104.888 90.8199 105.042 91.5346 104.844 92.2383C104.612 93.096 103.907 93.8327 103.136 94.4594C101.979 95.383 100.612 96.1087 99.1684 96.5815C98.1655 96.9004 97.1737 97.1423 96.3692 96.6145C95.4766 96.0317 94.7823 94.9982 94.2313 94.1625C93.0521 92.3703 92.3799 90.2921 92.3358 88.137Z" fill="#B2642F"/>
<path d="M100.491 98.3401C102.618 100.616 107.213 102.057 108.469 104.893C109.351 106.884 105.086 124.751 103.764 130.942C105.163 130.942 106.574 130.953 107.974 130.953C109.748 121.496 113.506 112.425 118.939 104.476C119.214 104.069 119.501 103.651 119.545 103.167C119.677 101.804 118.002 101.1 116.999 100.154C115.434 98.692 115.401 96.229 115.886 94.1399C116.702 90.6103 118.674 87.3777 119.038 83.7822C119.512 79.0321 117.021 70.9945 113.913 67.377C113.153 66.4974 112.371 69.0593 111.324 68.5315C110.089 67.9048 108.646 67.8168 107.257 67.8608C105.296 67.9268 103.312 68.2456 101.571 69.1253C96.3581 71.7532 95.6418 77.009 95.5316 82.1329C95.3994 88.4332 95.8071 93.3372 100.491 98.3401Z" fill="#CA7233"/>
<path d="M41.4767 30.5757C41.5648 29.927 41.7191 29.2892 41.8844 28.6625C42.193 27.442 42.5016 26.2325 42.8101 25.012C42.8212 24.957 42.8432 24.9021 42.8873 24.8691C42.9534 24.8141 43.0526 24.8471 43.1297 24.9021C43.3171 25.045 43.3722 25.2979 43.4163 25.5398C43.5705 26.3425 43.7138 27.1561 43.8681 27.9588C44.0114 28.7395 44.1546 29.5201 44.2869 30.3118C44.5073 31.6203 44.6836 32.9617 44.4522 34.2702C44.4081 34.5011 44.3089 34.776 44.0775 34.8089C43.9563 34.8309 43.835 34.765 43.7248 34.71C43.0746 34.3361 42.182 33.7864 41.8183 33.1046C41.4216 32.335 41.3775 31.4114 41.4767 30.5757Z" fill="#B2652E"/>
<path d="M17.0561 41.3074C16.9349 41.4393 16.8687 41.6042 16.8467 41.7692C16.7696 42.198 16.9018 42.6268 17.0781 43.0226C17.4087 43.7483 17.9047 44.3971 18.5218 44.8919C18.1912 44.54 18.0479 44.0452 18.0038 43.5724C17.9598 43.0886 18.0149 42.6048 18.0589 42.132C18.07 41.9231 18.081 41.7142 18.0149 41.5163C17.8606 41.1314 17.3536 40.9885 17.0561 41.3074Z" fill="#543F30"/>
<path d="M25.067 46.453C25.1882 46.409 25.3756 46.387 25.4086 46.5079C23.6564 47.2996 21.7499 47.6735 19.8434 47.9813C19.5018 48.0363 19.072 48.1243 18.7524 47.9593C18.532 47.8494 18.3556 47.6735 18.6091 47.5195C18.8075 47.3986 19.4577 47.5195 19.7001 47.5085C20.0638 47.4975 20.4275 47.4645 20.7911 47.4316C22.2568 47.2886 23.7005 46.9588 25.067 46.453Z" fill="#543F30"/>
<path opacity="0.35" d="M21.1 40.8129C21.9927 40.45 22.742 39.8233 23.5465 39.3175C25.0343 38.3829 26.7424 37.8331 28.2302 36.9095C28.9024 36.4917 29.5526 35.9639 29.8722 35.2382C29.9824 34.9743 30.0375 34.6224 29.8171 34.4355C29.5306 34.1826 29.0898 34.4465 28.7922 34.6994C27.4918 35.8209 26.0481 36.7666 24.4612 37.4043C22.9955 37.998 21.4527 38.3829 20.0421 39.1086C19.5902 39.3395 19.3147 39.6254 19.3808 40.1751C19.4911 41.0658 20.4168 41.0878 21.1 40.8129Z" fill="white"/>
<path opacity="0.35" d="M108.271 72.3032C109.979 73.2158 111.28 74.8541 111.787 76.7233C112.04 77.6689 112.095 78.6585 112.36 79.6041C112.47 80.011 112.646 80.4288 113.01 80.6267C113.473 80.8686 114.09 80.6267 114.398 80.2089C114.718 79.7911 114.806 79.2413 114.839 78.7135C115.038 76.1406 114.343 73.5127 112.9 71.3796C111.577 69.4224 108.48 66.4316 105.78 66.9814C104.634 67.2123 104.017 67.96 104.238 69.1805C104.579 71.0497 106.849 71.5445 108.271 72.3032Z" fill="white"/>
<path d="M36.2207 114.966C36.2207 114.966 37.6644 119.738 38.557 119.914C39.4607 120.09 43.428 118.023 43.3068 117.44C43.1855 116.857 40.0227 112.844 40.0227 112.844L36.2207 114.966Z" fill="#231F20"/>
<path d="M57.1148 127.874C57.1148 127.874 56.1781 132.03 56.7842 132.932C57.3903 133.834 62.1952 133.295 62.1952 132.932C62.1952 132.569 61.4127 127.874 61.4127 127.874H57.1148Z" fill="#231F20"/>
<path d="M104.239 128.787C104.239 128.787 102.475 132.097 102.531 133.054C102.586 134.01 108.426 134.153 108.482 133.427C108.537 132.691 108.482 128.479 108.482 128.479L104.239 128.787Z" fill="#231F20"/>
<path d="M94.2309 127.567C94.2309 127.567 92.4676 130.876 92.5227 131.833C92.5779 132.789 98.4186 132.932 98.4737 132.207C98.5288 131.47 98.4737 127.259 98.4737 127.259L94.2309 127.567Z" fill="#231F20"/>
<path opacity="0.35" d="M46.4474 76.4928C45.9956 77.5264 45.8743 78.6699 45.8413 79.8024C45.7972 81.6826 46.0176 83.5958 46.8331 85.2891C47.1417 85.9269 47.6376 86.5866 48.3429 86.6086C49.1363 86.6416 49.7204 85.8059 49.7865 85.0142C49.8637 84.2226 49.5882 83.4529 49.478 82.6722C49.3127 81.4737 49.5331 80.2092 50.1723 79.1867C50.8555 78.1091 52.0127 77.1745 52.0016 75.899C51.9906 74.4696 50.3706 73.601 49.0702 73.8979C47.9131 74.1728 46.8992 75.4592 46.4474 76.4928Z" fill="white"/>
<path d="M48.4098 43.5176C48.6082 43.1217 48.7955 42.7369 48.9939 42.341C49.2253 45.3758 49.1923 48.4325 48.8837 51.4563C49.4678 50.4227 49.8755 49.2792 50.0629 48.1136C50.8453 51.0274 51.198 54.0512 51.1098 57.0639C51.2751 56.1843 51.5396 55.3157 51.9143 54.502C52.2449 55.7335 52.3992 57.0199 52.3771 58.2954C52.4984 57.9216 52.6196 57.5477 52.7408 57.1739C53.2698 59.8568 53.7216 62.5506 54.1183 65.2555C54.1404 63.7931 54.3167 62.3307 54.6694 60.9123C55.2755 63.6062 55.7604 66.3331 56.102 69.0709C56.4326 63.9141 56.7412 58.6253 55.1983 53.6993C55.1102 53.9522 55.022 54.2051 54.9228 54.447C54.1955 52.6218 53.5453 50.7745 52.9502 48.8943C52.8951 49.587 52.851 50.2797 52.7959 50.9725C52.4432 47.4979 51.7049 44.0673 50.6029 40.7577C50.6469 41.4504 50.691 42.1431 50.7351 42.8358C50.1731 39.4053 49.1041 36.0517 47.5723 32.918C47.6935 34.5343 47.958 36.1176 48.0461 37.734C48.1343 39.1854 49.071 42.1761 48.4098 43.5176Z" fill="#705441"/>
<path d="M33.4004 33.2149C33.5437 32.6542 33.7751 32.1154 34.0837 31.6206C34.4804 33.3249 35.5494 34.8533 37.0151 35.8209C36.8277 35.2931 36.7285 34.7323 36.7285 34.1716C37.3787 35.491 38.4587 36.5905 39.7701 37.2723C38.8555 35.447 38.3706 33.4129 38.3485 31.3787C38.624 32.0274 39.0759 32.6102 39.6489 33.039C39.3293 32.1374 39.2081 31.1588 39.2852 30.2022C39.4175 30.686 39.5938 31.1588 39.8252 31.6096C39.5057 30.0483 39.2081 28.355 39.8693 26.8926C39.4946 27.3214 39.2522 27.8712 39.1861 28.4429C39.1089 27.9371 39.131 27.4094 39.2412 26.9146C38.1281 27.8822 37.4779 29.3665 37.533 30.8399C37.4448 29.7074 37.5 28.5639 37.6983 27.4423C36.9049 28.4319 36.3979 29.6414 36.2547 30.8949C36.1885 29.9713 36.2326 29.0367 36.3759 28.1241C35.9351 28.9817 35.5714 29.8833 35.2849 30.796C35.4392 30.2792 35.351 29.5865 35.4502 29.0367C35.5714 28.4209 35.7698 27.8492 35.9681 27.2554C34.1608 28.6958 33.4004 30.9609 33.4004 33.2149Z" fill="#705441"/>
<path d="M124.614 80.9238C124.659 80.0661 124.703 79.1975 124.747 78.3399C126.256 81.6605 127.292 85.201 127.799 88.8185C127.821 87.642 127.832 86.4545 127.854 85.278C128.361 87.3121 128.868 89.3463 129.386 91.3804C129.199 90.7867 129.155 90.1489 129.254 89.5332C129.816 91.7873 130.378 94.0413 130.94 96.2844C130.599 92.8098 130.257 89.3353 129.915 85.8607C130.092 86.7733 130.411 87.664 130.841 88.4886C130.334 85.5419 129.673 82.6171 128.857 79.7363C129.441 80.506 129.926 81.3526 130.279 82.2542C129.144 77.988 126.962 74.0077 123.975 70.764C124.372 71.6876 124.769 72.6112 125.165 73.5349C123.424 71.5667 121.077 70.1373 118.531 69.4775C120.25 69.9174 121.628 73.0401 122.344 74.4475C123.369 76.4926 124.141 78.6807 124.614 80.9238Z" fill="#705441"/>
</svg>
