<svg width="150" height="150" viewBox="0 0 150 150" fill="none" xmlns="http://www.w3.org/2000/svg">
<path d="M105.8 75.5136C104.094 80.5942 99.3735 85.4408 94.846 89.1721C92.8644 90.7968 90.9102 92.215 89.2589 93.3303C87.0845 94.8035 85.4194 95.7673 84.8827 96.0565C84.1534 96.442 82.268 97.2957 80.1625 98.6725C76.791 100.889 72.8277 104.497 72.1258 109.839C72.0433 110.486 71.8919 111.119 71.6855 111.767C69.0708 119.794 57.5662 127.504 58.8735 128.22C60.2772 128.991 69.9653 129.239 72.0157 129.239C72.6212 129.239 73.1442 129.074 73.6671 128.854C74.9194 128.317 76.0754 127.449 77.8781 127.711C78.8001 127.848 79.3919 128.523 79.7634 129.335C80.4653 130.836 79.3644 132.571 77.6992 132.571H60.6488C53.2451 132.571 46.6121 132.64 47.1901 131.043C47.5203 130.148 47.4653 129.074 47.1763 127.89C47.0249 127.298 46.5433 126.871 45.9378 126.774C34.0616 124.985 28.9836 120.73 27.3598 115.608C25.5708 109.99 23.5341 96.2079 31.6946 79.8782C39.8552 63.5485 44.0662 59.7208 46.7497 56.4026C48.2084 54.5851 50.135 50.3719 51.4699 46.1587C51.6212 45.663 51.7726 45.1535 51.924 44.6579C51.924 44.6303 51.9378 44.6166 51.9378 44.589C52.268 43.4049 52.5433 42.2346 52.7359 41.1469C52.846 40.5273 52.9286 39.9352 52.9836 39.3707C53.0662 38.4757 53.08 37.6634 52.9836 37.0025C52.9011 36.438 52.8598 35.8872 52.8598 35.364C52.846 34.827 52.8735 34.3038 52.9286 33.8219C53.2589 30.8754 54.7313 29.0304 56.5616 29.2232C58.0066 29.3746 59.5891 30.5312 60.3047 33.2574C60.4561 33.8357 60.5662 34.4966 60.635 35.2263C60.7176 36.259 60.7176 37.4293 60.58 38.7786C60.5112 39.4671 60.4148 40.1968 60.2772 40.9816C60.2772 41.0229 60.2634 41.0642 60.2634 41.1055C60.1121 41.9867 59.8644 42.9093 59.5616 43.8593C59.5203 43.9694 59.4928 44.0796 59.4515 44.1897C59.2864 44.6854 59.1075 45.1811 58.9011 45.7043C55.7359 53.7315 48.3735 63.6862 41.9056 71.8648C34.1167 81.6406 30.5524 102.693 31.1855 109.453C31.8185 116.214 34.6258 121.955 38.5891 120.813C41.2726 120.028 41.2864 117.88 41.0249 116.586C41.0249 116.572 41.0249 116.558 41.0249 116.544C40.8598 115.498 40.5295 114.479 40.1167 113.501C39.3185 111.601 38.8368 109.825 38.9882 108.297C39.6212 101.784 52.8873 76.3948 54.924 74.0954C56.9607 71.796 58.4882 71.0387 63.7176 67.4589C68.9469 63.8928 73.9148 57.5041 76.213 52.272C78.5112 47.0399 84.1258 43.0882 86.2864 40.2794C86.5203 39.9765 86.6992 39.6185 86.8368 39.233C87.6212 36.9474 86.9056 33.3262 86.3277 30.9718C86.08 29.9391 85.846 29.1543 85.7772 28.8101C85.7772 28.8101 86.2313 28.6862 86.9745 28.5209C90.3873 27.7361 99.9653 25.9462 100.062 30.3384C100.185 35.6944 105.167 43.4875 105.8 45.7731C106.433 48.0587 109.241 65.3109 105.8 75.5136Z" fill="#CF8C0E"/>
<path d="M111.759 129.06C112.915 130.258 112.089 132.268 110.424 132.31C108.814 132.365 106.97 132.365 106.171 132.172C105.015 131.883 103.337 129.983 102.098 128.344C101.699 127.821 101.355 127.339 101.08 126.94C99.9375 125.288 95.0659 92.9035 94.8182 89.5715C94.8044 89.4476 94.8182 89.3099 94.832 89.1722C95.3687 85.4684 105.786 75.5137 105.786 75.5137C105.786 75.5137 104.135 88.2773 103.749 92.3528C103.364 96.4421 103.364 124.888 107.699 126.554C107.713 126.568 107.74 126.568 107.754 126.582C109.653 127.312 110.919 128.179 111.759 129.06Z" fill="#A87007"/>
<path d="M105.8 75.5133C102.36 85.7159 86.7956 95.0374 84.8828 96.0562C82.97 97.0751 73.2819 101.164 72.1259 109.839C72.0433 110.486 71.892 111.119 71.6855 111.766C71.6855 111.766 72.1947 104.538 73.2131 102.569C77.4241 94.404 86.3966 88.6487 91.8323 82.976C95.1489 79.52 98.9195 75.9952 101.273 71.7545C103.062 68.5051 104.039 64.7324 104.039 61.0286C104.039 58.6742 103.296 56.5813 101.699 54.8327C99.6626 52.5747 96.9791 51.1978 95.08 48.7056C90.6764 42.9228 90.5525 36.7406 92.1076 29.9251C92.1626 29.7048 92.2177 29.4708 92.369 29.3055C92.5204 29.1541 92.7268 29.0715 92.9333 29.0164C94.1305 28.6309 95.3278 28.2867 96.5525 27.9975C97.5021 27.7772 98.6305 27.6258 99.3599 28.2867C100.007 28.8787 100.048 29.8701 100.117 30.7513C100.351 33.7528 101.534 36.603 102.842 39.3292C103.819 41.3394 104.864 43.3359 105.58 45.4562C106.268 47.5353 106.626 49.7245 106.874 51.9C107.768 59.4865 108.291 68.1608 105.8 75.5133Z" fill="#EBD4A2"/>
<path d="M97.4892 132.75C96.0855 132.791 94.1039 132.695 91.8883 132.172C91.8883 132.172 90.0442 130.244 88.8057 128.62C88.4479 128.151 88.1451 127.697 87.9387 127.325C87.2506 126.045 82.5855 108.421 80.1635 98.6726C79.4479 95.8224 78.925 93.6332 78.7598 92.7382C77.9892 88.7866 83.0947 83.4168 80.5488 77.3035C78.0029 71.1765 100.379 72.8425 100.379 72.8425C100.379 72.8425 96.6222 77.4412 94.0626 82.5356C92.8516 84.9589 89.9754 89.9432 89.3424 92.4904C89.3011 92.6694 89.2736 92.9586 89.2598 93.3303C89.1084 98.1356 91.6543 117.549 91.8883 121.584C92.0947 125.081 93.4571 127.504 94.847 128.441C95.1772 128.661 95.5213 128.812 95.8378 128.854C96.746 128.991 97.7231 129.514 98.4662 130.272C99.3745 131.18 98.769 132.709 97.4892 132.75Z" fill="#CF8C0E"/>
<path d="M83.7406 28.5621C83.5204 27.8323 80.8094 25.6293 80.5479 22.8205C80.2864 20.0117 82.8461 19.6262 84.1121 19.2544C85.3919 18.8689 88.7085 20.9067 88.7085 20.9067C88.7085 20.9067 92.7956 18.8689 94.9562 18.7312C97.1305 18.6073 96.7452 18.7312 97.1305 18.6073C97.5158 18.4834 99.814 15.1651 100.832 15.0412C101.851 14.9173 104.273 15.0412 104.782 17.9739C105.291 20.9067 103.502 22.5727 103.502 22.8205C103.502 23.0821 103.763 26.7722 103.241 28.5621C102.731 30.352 101.328 33.0231 100.557 36.3414C100.172 38.0074 98.2314 38.5306 96.2222 38.6408C93.8002 38.7647 92.658 38.0074 90.3598 35.0747C89.4516 33.8906 84.7589 32.0043 83.7406 28.5621Z" fill="#CF8C0E"/>
<path d="M98.4377 132.695C97.0616 132.791 94.6533 132.819 91.8873 132.172C91.8873 132.172 90.0432 130.244 88.8047 128.619C90.6212 128.922 93.6625 129.253 94.846 128.44C95.1762 128.661 95.5203 128.812 95.8368 128.853C97.0891 129.046 98.4928 129.969 99.2084 131.249C99.5799 131.869 99.1533 132.64 98.4377 132.695Z" fill="#EBD4A2"/>
<path d="M112.529 130.024C113.12 130.974 112.474 132.227 111.359 132.269C109.625 132.351 107.148 132.406 106.198 132.172C105.042 131.883 103.364 129.983 102.125 128.345C102.689 128.551 106.708 129.859 107.795 126.568C110.341 127.573 111.786 128.84 112.529 130.024Z" fill="#EBD4A2"/>
<path d="M79.1315 132.557H71.5352C72.4572 131.703 73.8884 130.133 73.6544 128.853C74.9067 128.316 76.0627 127.449 77.8654 127.71C79.4893 127.958 80.081 129.844 80.2874 131.194C80.4113 131.91 79.8608 132.557 79.1315 132.557Z" fill="#EBD4A2"/>
<path d="M87.373 28.5625C87.373 28.5625 88.2675 29.9669 89.7951 30.6002C91.3226 31.2336 91.8318 30.8618 91.8318 31.743C91.8318 32.638 90.8685 33.2851 90.9373 35.1852C91.0198 37.2781 91.9419 38.5585 93.2905 39.3158C93.373 39.3571 94.1987 39.0542 94.2951 39.0955C96.4556 40.1833 99.0703 40.0043 100.501 38.0491C100.873 37.5397 101.864 37.6636 101.836 37.1266L101.685 36.4519C101.451 35.3642 101.451 34.2214 101.699 33.1337C101.809 32.6242 101.919 32.1286 101.988 31.8945C102.139 31.2749 100.006 29.9669 100.529 29.0719C101.038 28.1769 103.46 27.0341 102.442 24.7348L101.781 24.6797L99.896 25.5058L98.5611 25.9464L98.162 26.7725L98.5474 29.0168L100.309 31.8532C100.309 31.8532 100.35 32.7068 98.8088 33.8496C97.2813 34.9924 93.9648 34.9925 93.1942 34.1113C92.4235 33.2163 93.318 31.4264 93.318 31.4264L93.5519 29.898L92.8088 28.6175L91.6942 27.6537L90.2492 27.3508L88.6253 27.5711L87.373 28.5625Z" fill="#EBD4A2"/>
<path d="M97.1441 35.3778C96.401 35.6807 93.7037 34.4278 93.8138 33.8633C93.9927 32.9545 97.1854 32.8168 98.7404 32.3625C99.979 32.0045 99.8551 34.2488 97.1441 35.3778Z" fill="#2E3838"/>
<path d="M93.331 29.6222C93.331 28.7135 92.7531 27.5431 91.8448 27.254C90.7164 26.8822 89.4778 27.1714 88.3769 27.5156C88.2118 27.5707 88.143 27.791 88.2806 27.9149C89.5054 29.0714 91.5008 31.1781 93.2485 29.5809C93.4411 29.4019 93.1659 29.0577 92.9595 29.2229C91.3081 30.4483 89.7118 28.6722 88.6109 27.5707C88.5833 27.7083 88.5421 27.846 88.5145 27.9699C89.3953 27.7221 90.3586 27.5018 91.2806 27.6808C92.4228 27.9011 92.5604 28.8511 93.1109 29.691C93.1797 29.7874 93.331 29.7461 93.331 29.6222Z" fill="#2E3838"/>
<path d="M98.6856 28.5482C98.548 27.6394 98.3003 26.7032 99.1535 26.056C99.8691 25.519 100.722 25.1611 101.589 24.8995C101.479 24.8306 101.383 24.748 101.273 24.6792C101.3 25.5466 101.355 26.414 100.736 27.1162C100.144 27.7771 99.2773 28.0525 98.4516 28.2866C98.1764 28.3692 98.314 28.7547 98.5755 28.6996C99.5526 28.4793 100.557 28.0938 101.19 27.2814C101.796 26.5104 101.768 25.6017 101.754 24.6654C101.754 24.5002 101.589 24.4038 101.438 24.4451C100.461 24.7205 99.2636 25.1748 98.548 25.9459C97.8874 26.6481 97.9425 27.7771 98.314 28.617C98.3966 28.7822 98.7269 28.7822 98.6856 28.5482Z" fill="#2E3838"/>
<path d="M91.5016 27.3502C91.13 27.3365 90.786 27.5568 90.6346 27.901C90.2768 28.2727 90.5795 28.8923 90.9511 29.1264C91.3089 29.3605 91.8456 29.2916 92.1346 28.9749C92.6713 28.4104 92.3135 27.3778 91.5016 27.3502Z" fill="#2E3838"/>
<path d="M100.075 25.6159C100.007 25.5608 99.9378 25.5195 99.8552 25.5057C99.5937 25.4782 99.4011 25.5333 99.2084 25.7123C99.0983 25.8086 99.0157 25.9188 98.9607 26.0565C98.8368 26.3732 98.8368 26.7174 99.0295 26.9927C99.4286 27.571 100.461 27.5848 100.695 26.8413C100.86 26.3594 100.571 25.6985 100.075 25.6159Z" fill="#2E3838"/>
<path d="M97.5578 36.3826C97.5991 36.1898 97.5715 36.0246 97.5853 35.8181C97.5991 35.5565 97.6816 35.3224 97.7229 35.0746C97.7917 34.6615 97.8605 34.3173 97.5578 33.9868C97.4064 33.8216 97.1725 33.8767 97.0211 34.0006C96.677 34.2898 96.7596 34.7717 96.8422 35.1847C96.8972 35.405 96.9936 35.6115 97.0624 35.8318C97.1312 36.0521 97.1587 36.2449 97.2825 36.4377C97.3376 36.5341 97.5303 36.5203 97.5578 36.3826Z" fill="#2E3838"/>
<path d="M92.8372 26.9231C92.672 26.3173 91.8601 25.8354 91.3372 25.5737C91.4197 25.7527 91.4885 25.9317 91.5711 26.1245C91.7362 25.7114 91.7638 24.4447 91.0344 24.4998C90.8005 24.5136 90.5941 24.8165 90.5252 25.023C90.4014 25.4085 90.5252 25.9042 90.6766 26.2622C90.7454 26.4136 90.9518 26.4825 91.1032 26.4963C91.4197 26.51 91.7775 26.5513 92.0803 26.689C92.3142 26.7992 92.5069 26.9506 92.7684 27.0195C92.8096 27.0195 92.8509 26.9644 92.8372 26.9231Z" fill="#2E3838"/>
<path d="M97.8333 26.0558C98.0535 25.9319 98.136 25.6703 98.2736 25.4638C98.4525 25.216 98.6727 25.037 98.8516 24.8167C99.2094 24.3761 98.8103 23.9355 98.6039 23.5224C98.37 23.0543 97.6131 23.3159 97.6406 23.8115C97.6544 24.0318 97.6957 24.2108 97.8333 24.4036C97.8883 24.4724 97.9571 24.5413 98.0259 24.5964C98.0535 24.6101 98.2186 24.7616 98.1636 24.679C98.1498 24.5688 98.1223 24.4449 98.1085 24.3348C98.0947 24.4724 97.9159 24.6514 97.847 24.7891C97.7782 24.9406 97.7094 25.092 97.6819 25.2435C97.6131 25.5051 97.5443 25.8218 97.7232 26.0558C97.7507 26.0696 97.792 26.0834 97.8333 26.0558Z" fill="#2E3838"/>
<path d="M86.8082 22.5312C86.3403 22.3935 85.9137 22.2282 85.4734 22.008C85.1706 21.8565 84.8403 21.6637 84.4963 21.5949C83.7807 21.4572 83.2027 22.1043 82.9413 22.7102C82.611 23.4674 82.8312 24.3899 83.3541 24.9958C83.7669 25.4777 84.7578 26.1248 85.377 25.6567C85.8312 25.3124 85.8862 24.4725 85.1981 24.3349C84.1523 24.1146 84.0559 23.0544 84.6339 22.2558C84.5101 22.3246 84.3724 22.4072 84.2486 22.4761C85.1293 22.3797 85.9 23.1094 86.7945 22.8341C86.9596 22.779 86.9596 22.5725 86.8082 22.5312Z" fill="#2E3838"/>
<path d="M99.69 19.5161C100.034 19.406 100.296 19.2132 100.571 18.9929C100.929 18.7038 101.218 18.2632 101.589 18.0016C101.438 18.0016 101.286 18.0016 101.149 18.0016C101.837 18.4146 102.662 19.1168 101.837 19.8879C101.121 20.5626 102.195 21.6365 102.91 20.9619C103.626 20.2872 103.915 19.2545 103.516 18.3183C103.185 17.5334 102.222 16.7899 101.328 17.0378C101.149 17.0928 100.984 17.2305 100.956 17.4095C100.887 17.7262 100.433 18.1117 100.227 18.3596C99.979 18.6625 99.7175 18.9516 99.5524 19.3096C99.4973 19.4335 99.5661 19.5574 99.69 19.5161Z" fill="#2E3838"/>
<path d="M88.8741 27.5984C88.5163 27.4745 88.131 27.626 87.7732 27.7223C87.4842 27.7912 87.1401 27.8463 86.9199 28.0528C86.7273 28.2318 86.686 28.4245 86.7273 28.6724C86.8236 29.1543 86.8236 29.471 86.6585 29.9391C86.4521 30.5036 87.3878 30.7514 87.5667 30.1594C87.6631 29.8703 87.6768 29.5811 87.6355 29.2782C87.608 29.1405 87.5805 29.0028 87.5392 28.8789C87.5254 28.8514 87.3741 28.5485 87.3741 28.5209C87.4016 28.397 88.0346 28.1629 88.1447 28.1216C88.4199 27.9977 88.6952 27.9151 88.8878 27.6673C88.9154 27.6397 88.9016 27.6122 88.8741 27.5984Z" fill="#2E3838"/>
<path d="M101.025 24.8442C101.507 24.7203 101.975 24.6377 102.47 24.6928C102.387 24.5964 102.319 24.5 102.236 24.4036C102.222 25.1058 101.961 25.8769 102.58 26.4139C103.021 26.7994 103.598 26.1798 103.199 25.753C102.855 25.395 102.965 24.7479 102.842 24.2935C102.787 24.1283 102.621 24.0594 102.456 24.087C101.933 24.1971 101.397 24.3899 100.97 24.7065C100.915 24.7754 100.943 24.8718 101.025 24.8442Z" fill="#2E3838"/>
<path d="M92.741 28.7135C92.8924 29.3469 93.0851 29.8976 93.0438 30.5585C93.0025 31.1506 92.9612 31.7564 92.7686 32.3209C92.5897 32.8579 91.9842 33.326 92.0255 33.8906C92.0667 34.5101 92.3282 35.171 92.631 35.7218C93.1401 36.6581 93.9933 37.7458 95.1631 37.7045C96.1126 37.6632 97.2548 37.0849 97.4888 36.1073C97.5576 35.8182 97.1172 35.708 97.0484 35.9972C96.897 36.5892 96.3741 36.9059 95.8374 37.0987C95.0392 37.374 94.8053 36.961 94.4475 36.3552C93.9383 35.4602 93.5254 34.5928 93.2227 33.6014C93.2089 33.7529 93.1952 33.9181 93.1677 34.0696C93.6906 33.2297 94.0484 32.1557 93.9796 31.1644C93.9245 30.3245 93.4704 29.223 92.8236 28.6722C92.7823 28.6447 92.7273 28.6722 92.741 28.7135Z" fill="#2E3838"/>
<path d="M98.2312 27.1159C98.1487 27.9558 98.2588 28.9334 98.4652 29.7595C98.5753 30.1725 98.7542 30.5994 98.9744 30.9574C99.0982 31.1639 99.2634 31.3566 99.4285 31.5356C99.5523 31.6733 99.8 31.811 99.8826 31.9762C100.089 32.4031 99.9652 33.2154 99.979 33.6973C99.9927 34.2068 100.048 34.7713 99.8826 35.267C99.7037 35.8177 99.3322 36.1895 98.7542 36.2858C98.1211 36.3822 97.7771 36.038 97.2404 35.8452C97.1578 35.8177 97.0478 35.9141 97.089 35.9967C97.4331 36.8091 98.7542 36.9192 99.4835 36.6163C100.571 36.1619 100.984 35.2807 101.011 34.1379C101.025 33.4082 101.025 32.6647 101.011 31.9349C100.997 31.2603 100.557 30.9987 100.144 30.5168C99.745 30.0624 99.401 29.5667 99.0982 29.0435C98.7404 28.4377 98.589 27.7355 98.3689 27.0746C98.3276 27.0333 98.245 27.0608 98.2312 27.1159Z" fill="#2E3838"/>
<path d="M91.0888 33.6426C91.0888 33.6426 89.3961 38.9848 92.4512 44.6575C95.5062 50.3303 96.6897 40.94 96.6897 40.94L92.7814 37.8145L91.0888 33.6426Z" fill="#EBD4A2"/>
<path d="M101.878 32.1831C101.548 33.3948 101.534 34.6064 101.314 35.8318C101.177 36.5616 100.612 36.9884 100.117 37.4978C99.6766 37.9522 99.25 38.4892 98.7133 38.8334C97.5711 39.5494 96.305 38.8196 95.094 38.7646C94.3096 38.7233 93.7867 38.6269 93.2087 38.0486C92.8922 37.7181 92.6307 37.3602 92.2179 37.1536C92.1491 37.1261 92.094 37.1949 92.1353 37.2638C92.8922 38.1174 93.539 38.9711 94.7638 39.0262C96.0023 39.0812 97.4885 39.811 98.672 39.1776C99.2225 38.8885 99.6491 38.4066 100.089 37.9798C100.53 37.5392 101.149 37.0986 101.493 36.5616C101.81 36.0521 101.7 35.2673 101.741 34.7028C101.796 33.8767 101.851 33.0368 101.933 32.2107C101.933 32.1556 101.892 32.1556 101.878 32.1831Z" fill="#2E3838"/>
<path d="M87.4022 21.5539C87.4159 20.5763 85.9297 19.764 85.1178 20.2183C84.6361 20.4799 84.6499 21.0858 84.9526 21.4713C85.2141 21.788 85.737 21.8568 86.1224 21.9257C86.4251 21.9807 86.7691 22.0633 87.0719 21.9807C87.2783 21.9257 87.4022 21.7467 87.4022 21.5539Z" fill="#EBD4A2"/>
<path d="M98.9334 18.7456C99.5527 18.305 99.9793 17.6716 100.53 17.1484C101.121 16.5839 100.199 15.6614 99.6352 16.2535C99.0985 16.818 98.4793 17.4651 98.3004 18.2499C98.2178 18.5941 98.6031 18.9797 98.9334 18.7456Z" fill="#EBD4A2"/>
<path d="M60.2634 41.0637C60.0845 42.0413 59.8092 43.074 59.4514 44.1479C56.9469 43.7349 54.3459 43.9001 51.9102 44.6298C52.7496 41.6558 53.2313 38.8057 52.9835 36.9744C52.3505 32.2518 54.1258 28.9335 56.5478 29.1951C58.9973 29.4567 61.8047 32.5134 60.2634 41.0637Z" fill="#2E3838"/>
<path d="M59.5605 43.8175C59.5192 43.9277 59.4917 44.0378 59.4504 44.148C59.2853 44.6436 59.1064 45.1393 58.8999 45.6625C57.8265 45.6488 56.7669 45.6763 55.6935 45.7314C54.2899 45.814 52.8724 46.0481 51.4688 46.1307C51.6201 45.635 51.7715 45.1256 51.9229 44.6299C51.9229 44.6023 51.9366 44.5886 51.9366 44.561C53.0788 44.2581 54.2761 44.1067 55.4458 43.9828C56.822 43.8313 58.1981 43.79 59.5605 43.8175Z" fill="#D9C395"/>
<path d="M60.594 38.7373C60.5252 39.4257 60.4289 40.1555 60.2913 40.9403C60.195 40.9403 60.1124 40.9403 60.0161 40.9403C59.0252 40.9541 58.0206 40.9678 57.0298 40.9954C55.6124 41.0367 54.1674 41.1881 52.75 41.1193C52.8601 40.4997 52.9427 39.9076 52.9977 39.3431C54.2775 39.0815 55.6124 39.0127 56.8922 38.9163C57.9243 38.8337 58.9702 38.7648 60.0023 38.7373C60.2087 38.7511 60.4014 38.7511 60.594 38.7373Z" fill="#D9C395"/>
<path d="M60.6498 35.1983C59.2462 35.102 57.8425 35.1157 56.4526 35.1708C55.2691 35.2259 54.0718 35.3911 52.8746 35.3498C52.8608 34.8128 52.8884 34.2896 52.9434 33.8077C54.0306 33.4773 55.214 33.3946 56.3287 33.312C57.6636 33.2019 58.9985 33.2019 60.3196 33.2432C60.4709 33.8077 60.581 34.4686 60.6498 35.1983Z" fill="#D9C395"/>
<path d="M97.639 76.5596C96.5381 77.8677 95.6986 79.4648 94.8041 80.9105C93.8821 82.4251 92.9738 83.9397 92.0656 85.4542C91.2261 86.8586 90.3729 88.2906 89.7537 89.8189C89.4647 90.5486 89.2445 91.2922 89.1757 92.0632C89.1206 92.6828 89.0381 93.564 89.4371 94.0872C89.4784 94.1423 89.5748 94.1423 89.6023 94.0597C89.8087 93.3988 89.6711 92.6277 89.8362 91.9255C90.0289 91.1132 90.3179 90.3283 90.6619 89.5711C91.3362 88.0978 92.1757 86.6796 92.9463 85.2477C93.7307 83.802 94.5151 82.3563 95.327 80.9243C96.1252 79.5061 97.061 78.088 97.694 76.5734C97.7078 76.5596 97.6665 76.5321 97.639 76.5596Z" fill="#2E3838"/>
<path d="M90.1817 36.9612C90.1266 36.7822 90.0441 36.6445 89.9202 36.5069C89.8514 36.4518 89.7826 36.3967 89.7138 36.3416C89.6037 36.2728 89.4661 36.2315 89.3422 36.2177C89.2597 36.2039 89.1771 36.1902 89.0945 36.2039C88.5716 36.1902 88.1587 36.617 88.2 37.154C88.1725 37.3192 88.2138 37.4707 88.2826 37.6084C88.3239 37.7323 88.3927 37.8424 88.489 37.9388C88.5853 38.0352 88.6954 38.104 88.8193 38.1453C88.9431 38.2142 89.067 38.2417 89.2046 38.2279C89.3422 38.2279 89.4798 38.2004 89.5899 38.1453C89.9615 38.0214 90.2367 37.5808 90.2092 37.2228C90.2092 37.1402 90.1954 37.0576 90.1817 36.9612Z" fill="#434952"/>
<path d="M90.1809 58.7162C90.1258 58.4821 89.9332 58.2205 89.713 58.1104C89.4102 57.9451 89.0937 57.9451 88.8185 58.0553C88.3644 57.9727 88.0478 58.2067 87.8827 58.6336C87.635 59.2669 88.0341 60.1344 88.6946 60.3134C89.1212 60.4235 89.5616 60.2307 89.8644 59.9416C90.2084 59.6249 90.2772 59.1568 90.1809 58.7162Z" fill="#434952"/>
<path d="M95.4932 73.4622C95.4656 73.3382 95.3968 73.2419 95.3143 73.1455C95.1766 72.994 95.1629 72.9527 95.2455 73.0491C95.3005 73.1042 95.3005 73.1042 95.2592 73.0353C95.2317 72.9802 95.2042 72.9252 95.1766 72.8701C94.9289 72.4157 94.3097 72.1541 93.8143 72.3193C93.5666 72.402 93.3739 72.5397 93.2363 72.7049C93.2088 72.7186 93.1812 72.7324 93.1537 72.7462C91.8326 73.1179 91.3372 74.8253 92.7546 76.5463C93.1262 77.0007 93.8555 77.1246 94.3922 76.9732C94.984 76.808 95.3693 76.3674 95.562 75.8028C95.8372 75.0318 95.7821 74.1231 95.4932 73.4622Z" fill="#434952"/>
<path d="M88.2685 68.1063C88.0208 67.9962 87.663 67.9824 87.4428 68.1476C87.2639 68.2853 87.1263 68.4092 87.03 68.6157C86.8924 68.9324 86.8924 68.9737 86.8511 69.2078C86.8098 69.5107 86.796 69.7861 86.9612 70.0752C87.4428 70.9014 88.8878 70.9151 89.4107 70.0339C89.9336 69.139 89.2731 67.9549 88.2685 68.1063Z" fill="#434952"/>
<path d="M94.1574 56.9529C95.3822 56.9529 95.3959 55.0391 94.1574 55.0391C92.9189 55.0391 92.9189 56.9529 94.1574 56.9529Z" fill="#434952"/>
<path d="M79.4192 57.0499C79.2403 57.0637 79.0751 57.0775 78.91 57.1188C78.5247 57.0637 78.1394 57.1325 77.8366 57.3528C76.9972 57.9724 76.3641 58.8536 76.4467 59.9414C76.5155 60.9327 77.0247 61.7726 77.9467 62.1581C78.5247 62.406 79.2265 62.461 79.832 62.2407C80.4926 61.9929 81.0981 61.5936 81.4421 60.9602C82.5155 59.0051 81.0293 56.9949 79.4192 57.0499Z" fill="#434952"/>
<path d="M79.8466 66.9222C79.2961 66.4816 78.6906 66.275 78.0025 66.5779C77.8236 66.6468 77.6722 66.7569 77.5346 66.8671C77.2319 66.9222 76.9566 67.1287 76.8741 67.4867C76.6401 68.4367 76.5576 69.4005 76.5163 70.3781C76.4888 71.2042 77.342 71.81 78.1126 71.6035C78.4429 71.5071 78.7594 71.3557 79.0484 71.1767C79.2273 71.0665 79.6952 70.7636 79.6952 70.7636C79.8741 70.5984 80.053 70.3919 80.1631 70.1991C80.7273 69.3041 80.7273 67.6106 79.8466 66.9222Z" fill="#434952"/>
<path d="M79.1167 71.1357C79.0892 71.1495 79.0755 71.1633 79.0479 71.177C78.9654 71.2321 78.9516 71.2459 79.1167 71.1357Z" fill="#434952"/>
<path d="M86.423 77.7307C86.3955 77.4278 86.3542 77.1662 86.2304 76.9321C86.1065 76.464 85.8863 76.0234 85.5836 75.6516C85.501 75.5415 85.4185 75.4451 85.3221 75.3487C85.1019 75.1422 84.8267 74.8806 84.524 74.798C84.0836 74.6741 83.5607 74.9219 83.4919 75.4589C83.0102 76.0647 82.8313 76.7531 83.0377 77.5104C83.2166 78.1438 83.6707 78.6394 84.2074 79.0112C85.1019 79.6033 86.5056 78.8184 86.423 77.7307Z" fill="#434952"/>
<path d="M89.0926 84.3398C89.01 84.0506 88.8724 83.8303 88.6797 83.61C88.4733 83.376 88.088 83.2383 87.7852 83.2383C87.4412 83.2383 87.0559 83.3897 86.8082 83.7064C86.7256 83.7477 86.643 83.8028 86.5742 83.8716C86.0788 84.4224 86.0926 85.3036 86.877 85.7855C87.1109 86.0058 87.455 86.1022 87.7715 86.1022C88.6385 86.1159 89.3541 85.2623 89.0926 84.3398Z" fill="#434952"/>
<path d="M83.0234 87.4238C82.8582 87.2173 82.6931 87.1209 82.4454 87.0245C82.3766 86.997 82.2803 86.9832 82.1977 86.9832C81.716 86.7491 81.1105 86.9419 80.7665 87.3412C80.3399 87.8093 80.2298 88.5528 80.5601 89.1174C80.739 89.4203 81.0142 89.6681 81.3582 89.7783C81.716 89.8884 82.1426 89.7783 82.4454 89.5993C82.9683 89.2964 83.2573 88.6905 83.2573 88.0985C83.2711 87.8506 83.1748 87.6166 83.0234 87.4238Z" fill="#434952"/>
<path d="M70.1995 87.9882C68.4242 86.6389 64.7086 88.2498 65.8508 91.8435C65.6995 92.463 65.9059 93.1928 66.3325 93.6472C67.6123 95.0791 69.9517 94.3081 70.7774 92.7935C71.5343 91.4029 71.5343 89.0071 70.1995 87.9882ZM68.493 90.7006C68.5343 90.563 68.6031 90.618 68.493 90.7006V90.7006ZM68.5343 90.7282C68.5618 90.7282 68.5756 90.7282 68.5343 90.7282V90.7282Z" fill="#434952"/>
<path d="M62.602 80.3464C62.4093 79.837 62.079 79.4239 61.5148 79.2862C60.7579 79.0935 59.8497 79.6718 59.9047 80.5116C59.9185 80.6493 59.9323 80.7733 59.946 80.9109C59.9598 81.0073 59.9598 81.1175 59.9873 81.2138C60.0148 81.2965 60.0561 81.3791 60.0974 81.4617C60.0974 81.5856 60.1249 81.6958 60.18 81.8197C60.3726 82.274 60.8405 82.4943 61.3222 82.3842C61.4185 82.3567 61.5011 82.3291 61.5836 82.2878C61.9414 82.219 62.313 81.9574 62.4644 81.6544C62.657 81.2414 62.7671 80.787 62.602 80.3464Z" fill="#434952"/>
<path d="M83.0925 94.5831C82.9824 94.4041 82.8035 94.2251 82.5971 94.1287C82.4457 94.0461 82.3081 93.991 82.1154 94.0048C81.9778 93.991 81.8539 94.0048 81.7301 94.0736C81.5925 94.1149 81.4824 94.1838 81.4411 94.2526C81.4136 94.2664 81.3861 94.2802 81.3585 94.2802C80.9457 94.4179 80.6429 94.9135 80.6567 95.3128C80.6705 95.602 80.7668 95.9186 80.987 96.1114C81.2072 96.3042 81.4962 96.4694 81.7851 96.4419C82.2117 96.4143 82.5695 96.2766 82.8723 95.9875C83.2576 95.6433 83.3677 94.9961 83.0925 94.5831Z" fill="#434952"/>
<path d="M84.7301 91.8157C84.7025 91.8845 84.6888 91.9533 84.6612 92.0222C84.5924 92.2425 84.675 92.5041 84.8264 92.6556C84.8264 92.6556 84.8264 92.6555 84.8401 92.6693C85.0741 92.9172 85.5145 92.9172 85.7484 92.6693C85.7484 92.6693 85.7484 92.6693 85.7622 92.6556C85.9135 92.4903 86.0099 92.2425 85.9273 92.0222C85.8998 91.9533 85.886 91.8845 85.8585 91.8157C85.8172 91.6917 85.7484 91.5954 85.6521 91.5127C85.5557 91.4301 85.4319 91.3751 85.2943 91.3888C85.1842 91.3888 85.0879 91.4164 85.0053 91.4714C84.8677 91.5265 84.7851 91.678 84.7301 91.8157Z" fill="#434952"/>
<path d="M84.2643 108.214C85.3927 108.214 85.3927 106.466 84.2643 106.466C83.1359 106.466 83.1359 108.214 84.2643 108.214Z" fill="#434952"/>
<path d="M85.2957 115.594C85.8461 115.594 85.8461 114.727 85.2957 114.727C84.7452 114.727 84.7452 115.594 85.2957 115.594Z" fill="#434952"/>
<path d="M54.8137 86.6247C54.7036 86.074 54.2495 85.5783 53.6715 85.5921C53.355 85.5921 52.9972 85.7711 52.8183 86.0602C52.6807 86.2254 52.5843 86.432 52.5706 86.6798C52.5431 87.0516 52.6531 87.4509 52.8596 87.7675C53.0385 88.0291 53.2724 88.1944 53.5889 88.2494C53.8779 88.2907 54.2357 88.2081 54.4284 87.9741C54.7311 87.5748 54.91 87.1342 54.8137 86.6247Z" fill="#434952"/>
<path d="M62.7941 88.498C62.4363 88.0161 62.2024 88.0299 61.8996 87.9886C61.8583 87.9886 61.817 87.9886 61.7895 88.0023C61.7345 87.9886 61.6932 87.9886 61.6381 87.9748C61.5969 87.961 61.5556 87.961 61.5143 87.961C61.1978 87.906 60.8675 88.0161 60.6336 88.2915C59.9042 89.0075 60.2482 90.1503 61.1427 90.4119C61.6244 90.5909 62.2436 90.4256 62.6014 90.0676C62.8491 89.8198 62.9868 89.5169 62.9868 89.1589C62.973 88.9524 62.9042 88.6495 62.7941 88.498Z" fill="#434952"/>
<path d="M58.3094 105.186C57.7864 104.8 56.8094 105.048 56.5204 105.626C55.9562 106.067 55.4607 106.948 55.8874 107.526L55.8736 107.513C56.0112 107.774 56.2727 107.884 56.4791 107.857C57.002 108.518 58.1029 108.573 58.6809 107.967C59.4516 107.127 59.369 105.957 58.3094 105.186Z" fill="#434952"/>
<path d="M65.493 113.818C65.3554 113.281 65.0664 112.702 64.5434 112.455C64.048 112.221 63.6077 112.234 63.1122 112.455C63.0297 112.496 63.0434 112.482 63.0847 112.468C62.9609 112.523 62.837 112.565 62.7269 112.62C62.0939 112.937 61.5572 113.418 61.337 114.079C60.9379 114.272 60.6077 114.616 60.4425 115.14C60.415 115.222 60.3875 115.318 60.3737 115.415C60.1948 116.351 60.6214 117.384 61.626 117.632C63.7866 118.141 66.0434 116.007 65.493 113.818Z" fill="#434952"/>
<path d="M67.2269 99.0444C66.9241 98.4248 66.3737 98.177 65.7131 98.3284C64.6672 98.5625 63.9517 99.6365 63.9792 100.655C63.6076 101.068 63.6076 101.798 64.0342 102.184C64.5159 102.638 65.0801 102.748 65.7131 102.569C66.3049 102.404 66.6076 102.06 66.9241 101.564C67.4058 100.793 67.6397 99.9256 67.2269 99.0444Z" fill="#434952"/>
<path d="M47.6175 111.326C46.9569 109.123 44.5074 109.66 43.9982 111.298C43.8331 111.849 43.8744 112.496 44.012 112.964C43.9982 113.116 44.012 113.281 44.0533 113.446C44.2046 113.969 44.5762 114.272 45.0716 114.465C45.4432 114.617 45.911 114.575 46.2826 114.465C46.7505 114.314 47.0533 114.052 47.2597 113.68C47.7276 112.978 47.8652 112.124 47.6175 111.326Z" fill="#434952"/>
<path d="M50.0809 91.0447C49.8332 90.5215 49.1313 90.4389 48.6634 90.6729C46.9295 91.5541 46.2689 94.6934 48.2506 95.6847C48.4983 95.8087 48.7598 95.7949 48.9799 95.6847C49.1726 95.671 49.3653 95.6159 49.5442 95.5333C51.2093 94.7898 50.6864 92.3389 50.0809 91.0447Z" fill="#434952"/>
<path d="M51.2087 122.272C51.0298 121.886 50.4793 121.707 50.094 121.817C49.3646 122.038 48.7178 122.396 48.1261 122.877C47.8509 123.111 47.8509 123.566 48.0573 123.827C48.0573 123.924 48.0848 124.006 48.1123 124.103C48.3188 124.75 49.0068 125.218 49.6949 125.012C50.2178 124.846 50.9059 124.599 51.25 124.158C51.6903 123.593 51.4701 122.864 51.2087 122.272Z" fill="#434952"/>
<path d="M57.7035 121.515C57.6759 121.432 57.6347 121.364 57.6071 121.281C57.4145 120.95 56.9603 120.703 56.4925 120.716C55.2126 120.758 54.6622 122.465 55.9007 123.305C56.1209 123.456 56.4787 123.484 56.7264 123.415C56.9741 123.346 57.2493 123.153 57.3732 122.919C57.4558 122.754 57.5108 122.575 57.5108 122.396C57.7035 122.162 57.7998 121.79 57.7035 121.515ZM56.6989 122.727C56.6576 122.727 56.6714 122.727 56.6989 122.727V122.727Z" fill="#434952"/>
<path d="M45.3323 122.368C45.0571 122.134 45.002 122.107 45.1947 122.286C44.9332 122.052 44.6442 121.886 44.2727 121.831C44.2176 121.79 44.1763 121.749 44.1075 121.707C43.5984 121.308 42.8828 121.57 42.4424 121.928C41.6993 122.52 41.8782 123.621 41.9057 124.461C41.9195 125.067 42.3598 125.838 43.0341 125.934C43.6121 126.017 44.1213 126.017 44.658 125.742C45.0433 125.535 45.3736 125.218 45.5938 124.833C46.0341 124.076 45.9653 122.974 45.3323 122.368Z" fill="#434952"/>
<path d="M37.777 121.887C37.7494 121.86 37.7357 121.832 37.7082 121.818C37.6806 121.791 37.6531 121.777 37.6256 121.763C37.5843 121.694 37.5293 121.626 37.4467 121.557C37.1852 121.323 36.8962 121.185 36.5384 121.157C35.9742 121.13 35.465 121.612 35.3274 122.149C35.1072 123.03 35.8228 123.925 36.6485 124.145C37.2678 124.31 37.9146 123.994 38.1623 123.402C38.3687 122.892 38.2311 122.231 37.777 121.887Z" fill="#434952"/>
<path d="M29.6296 110.885C29.1617 110.142 27.758 110.376 27.8543 111.367C27.9231 112.207 27.9369 113.157 28.1296 114.025C27.8406 114.823 28.047 115.553 28.68 116.186C29.4782 116.999 30.6479 116.186 30.5241 115.195C30.7305 113.694 30.4553 112.193 29.6296 110.885Z" fill="#434952"/>
<path d="M28.3228 103.919C28.0888 104.015 27.9925 104.029 27.731 104.263C27.6897 104.29 27.731 104.249 27.5108 104.524C27.4696 104.621 27.4283 104.717 27.387 104.814C27.3732 104.924 27.3595 105.02 27.3457 105.13C27.3457 105.296 27.3732 105.447 27.442 105.585C27.4696 105.681 27.5246 105.777 27.5934 105.846C27.6485 105.943 27.7173 106.011 27.8136 106.067C27.8824 106.135 27.9787 106.19 28.0751 106.218C28.3365 106.356 28.543 106.314 28.598 106.314C28.1852 106.259 28.2677 106.273 28.309 106.273C28.7081 106.397 29.2173 106.273 29.5063 105.956C29.9053 105.516 29.9466 104.965 29.754 104.607C29.6989 104.456 29.6163 104.318 29.5063 104.208C28.9833 103.712 28.3365 103.919 28.3228 103.919Z" fill="#434952"/>
<path d="M30.4425 93.0411C30.0572 92.3802 29.2866 92.2288 28.626 92.5179C28.3508 92.6418 28.1719 93.0136 28.1719 93.3027C28.1719 93.7295 28.1856 94.1426 28.1856 94.5694C28.1856 95.01 28.571 95.4231 29.0251 95.4093C29.4104 95.3956 29.6856 95.1753 29.7957 94.8448C30.4976 94.5419 30.8554 93.7571 30.4425 93.0411Z" fill="#434952"/>
<path d="M33.1816 85.0142C33.0853 84.1193 32.0807 83.5685 31.3651 84.2569C30.911 84.6975 30.6082 85.2483 30.4981 85.8266C29.5073 87.4238 31.0899 88.8282 32.3972 88.3049C33.7045 87.7817 33.3055 86.102 33.1816 85.0142Z" fill="#434952"/>
<path d="M36.9372 77.0691C36.8408 76.7799 36.6757 76.5183 36.4005 76.3669C36.1252 76.2292 35.795 76.1466 35.4922 76.2429C35.0243 76.3944 34.7353 76.7524 34.6528 77.1654C34.4739 77.4821 34.4463 77.7437 34.5151 78.1017C34.5564 78.2807 34.7216 78.501 34.8867 78.5836C35.1757 78.7351 35.4922 78.7075 35.7399 78.5423C35.8775 78.5423 36.0014 78.5423 36.1115 78.501C36.4005 78.4184 36.6619 78.2119 36.8133 77.964C36.9647 77.7162 37.0197 77.3444 36.9372 77.0691Z" fill="#434952"/>
<path d="M41.3135 67.2249C41.107 66.743 40.3226 66.564 39.9098 66.8531C39.2905 67.3075 38.5612 67.8995 38.6162 68.7532C38.63 68.9735 38.7125 69.1938 38.8502 69.3728C38.8364 69.5793 38.8502 69.7996 38.8639 70.0199C38.974 71.1627 40.419 71.6722 41.0795 70.6257C41.7263 69.5793 41.7814 68.3401 41.3135 67.2249Z" fill="#434952"/>
<path d="M46.8734 62.3091C46.8321 62.2402 46.8046 62.1576 46.7633 62.075C46.5293 61.6482 46.0752 61.5656 45.6486 61.6206C45.566 61.6344 45.4835 61.6619 45.4146 61.7032C44.9055 61.8134 44.4651 62.1989 44.3413 62.6946C44.0935 62.9424 43.9559 63.3004 43.9697 63.6446C43.9835 64.3055 44.4789 64.8563 45.1119 65.0353C45.9789 65.2693 46.9009 64.8012 47.1899 63.9338C47.3275 63.4106 47.2174 62.7497 46.8734 62.3091Z" fill="#434952"/>
<path d="M50.5886 53.9377C50.3547 53.3732 49.5703 53.3044 49.1024 53.5522C48.0703 54.0754 47.5886 55.5762 48.2217 56.5676C48.2354 56.8705 48.3318 57.1596 48.4831 57.4212C48.9097 58.1097 50.1345 58.2611 50.5198 57.4212C51.0428 56.2647 51.0841 55.1081 50.5886 53.9377Z" fill="#434952"/>
<path d="M54.5659 50.8537C55.6531 50.8537 55.6668 49.1602 54.5659 49.1602C53.465 49.1602 53.465 50.8537 54.5659 50.8537Z" fill="#434952"/>
<path d="M46.5428 105.653C46.1162 104.442 45.8547 103.505 46.6391 102.128C47.4235 100.765 49.2813 100.958 49.763 103.891C50.2584 106.824 47.3272 107.898 46.5428 105.653Z" fill="#434952"/>
<path d="M48.8001 115.429C48.7313 113.666 49.7772 112.111 50.8506 112.303C51.9239 112.496 52.8047 114.548 52.1166 115.622C51.4285 116.696 48.8964 117.769 48.8001 115.429Z" fill="#434952"/>
<path d="M52.3088 95.7814C52.7905 94.074 54.7446 91.7747 56.8088 91.9674C58.8593 92.1602 58.5703 96.8553 56.4235 98.3148C54.263 99.788 51.6345 98.2184 52.3088 95.7814Z" fill="#434952"/>
<path d="M74.3963 83.9534C73.3504 82.4801 72.5385 79.9467 73.5156 79.0655C74.4926 78.1843 77.2312 77.7024 77.6165 80.3322C78.0018 82.9758 76.0477 86.294 74.3963 83.9534Z" fill="#434952"/>
<path d="M67.4611 73.2001C66.7455 71.0659 67.0758 68.8078 69.1262 68.023C71.1767 67.2382 72.5391 69.4825 72.3464 71.0521C72.14 72.608 68.4381 76.1328 67.4611 73.2001Z" fill="#434952"/>
<path d="M60.1253 73.2005C60.5244 71.1076 62.2721 70.1713 63.3455 71.1489C64.4189 72.1265 64.8042 74.3708 63.3455 75.252C61.8867 76.1332 59.451 76.8216 60.1253 73.2005Z" fill="#434952"/>
<path d="M92.753 63.7144C92.6016 62.3375 93.2346 61.5665 94.019 61.0708C94.8034 60.5889 96.0695 61.952 96.1658 63.618C96.2622 65.284 95.9732 66.358 95.0924 66.1652C94.2255 65.9725 92.9456 65.4768 92.753 63.7144Z" fill="#434952"/>
<path d="M81.8133 100.862C81.7169 99.4849 82.2949 98.5211 82.983 98.8102C83.6711 99.0993 85.4188 99.7878 84.8408 100.958C84.2628 102.128 82.0059 103.505 81.8133 100.862Z" fill="#434952"/>
<path d="M53.9745 113.075C54.0433 111.519 54.6626 110.335 56.3139 110.142C57.9791 109.949 58.5571 112.483 57.0983 114.053C55.6396 115.622 53.8782 115.429 53.9745 113.075Z" fill="#434952"/>
<path d="M28.9688 98.7136C28.9688 97.02 29.3541 96.2765 30.2348 96.1664C31.1155 96.07 32.3816 98.1215 31.4045 99.2919C30.4275 100.462 28.9688 100.462 28.9688 98.7136Z" fill="#434952"/>
<path d="M95.974 60.5881C96.0428 58.9221 96.8547 57.8481 97.9281 58.5366C99.0015 59.225 100.268 60.6845 99.0978 61.5657C97.9281 62.4469 95.8776 62.9426 95.974 60.5881Z" fill="#434952"/>
<path d="M79.2808 52.1891C79.0881 51.2253 80.2579 50.1376 81.2349 50.9224C82.212 51.7072 82.1156 52.3819 81.1386 52.9739C80.1478 53.5522 79.4734 53.1667 79.2808 52.1891Z" fill="#434952"/>
<path d="M87.0848 45.539C86.8095 43.9006 87.1811 41.436 88.5435 42.1244C89.9059 42.8128 91.0894 43.7904 90.305 44.9607C89.5343 46.1311 87.3875 47.3014 87.0848 45.539Z" fill="#434952"/>
<path d="M93.0434 50.8122C92.8233 49.5041 92.782 48.2374 93.9242 48.4715C95.0664 48.7055 96.9517 50.6194 96.2636 51.7897C95.5893 52.9738 93.3462 52.5745 93.0434 50.8122Z" fill="#434952"/>
</svg>
