<svg width="150" height="150" viewBox="0 0 150 150" fill="none" xmlns="http://www.w3.org/2000/svg">
<path d="M65.4375 122.156C66.1875 125.156 67.3594 127.5 66.6562 129.609H39.6094C39.6094 129.609 40.4531 126 44.5781 125.109C48.6562 124.219 56.9531 127.031 59.3906 125.953C60.5625 125.391 55.6406 107.109 55.6406 107.109C55.6406 107.109 54.5625 103.219 54.0938 100.828C53.9531 100.219 53.8594 99.6562 53.8125 99.0937C53.7656 98.9062 53.1094 96.9375 54.1406 94.5469C54.2813 94.2656 54.4219 93.9844 54.5625 93.7031C56.1563 90.8906 59.8594 87.9844 59.8594 87.9844L73.4531 96.8906L66.4688 104.438C66.375 105.75 66.2344 108.141 66.0938 108.937C65.9063 110.062 65.5312 111.187 65.4375 112.453C65.4375 112.453 65.2969 113.953 65.2031 115.828C65.0625 117.844 65.0625 120.516 65.4375 122.156Z" fill="url(#paint0_linear_852_27862)"/>
<path opacity="0.5" d="M73.4531 96.7969L66.4688 104.344C66.375 105.656 66.2344 108.047 66.0938 108.844C65.9063 109.969 65.5313 111.094 65.4375 112.359C65.4375 112.359 65.2969 113.859 65.2031 115.734C65.2031 115.734 61.9219 102.703 58.6875 98.8125C55.4531 94.875 54.1875 94.5469 54.1875 94.5469C54.3281 94.2656 54.4688 93.9844 54.6094 93.7031C56.2031 90.8906 59.9063 87.9844 59.9063 87.9844L73.4531 96.7969Z" fill="url(#paint1_linear_852_27862)"/>
<path d="M40.6872 87.375C40.6872 87.375 41.9997 94.3594 41.6247 94.875C41.2497 95.3906 39.5154 95.6719 38.5779 94.8281C38.2029 94.5 37.8279 93.4219 37.4997 92.2031C36.9372 90.1406 36.6091 87.6094 36.9372 87.0938C38.9997 83.4375 41.6247 75.8906 41.6247 75.8906L45.8904 81.8906L40.6872 87.375Z" fill="url(#paint2_linear_852_27862)"/>
<path d="M41.5781 94.875C41.2031 95.3906 39.4687 95.6719 38.5312 94.8281C38.1562 94.5 37.7812 93.4219 37.4531 92.2031C37.4531 92.2031 38.3437 92.25 38.7656 92.2031C39.1875 92.1562 40.2656 91.125 40.3125 90.9844C40.3594 90.8438 40.1719 88.7813 40.2187 88.5469C40.2656 88.3125 40.6406 87.4219 40.6406 87.4219C40.6406 87.4219 41.9531 94.3594 41.5781 94.875Z" fill="url(#paint3_linear_852_27862)"/>
<path d="M132.609 119.203C131.906 118.453 128.766 123.703 119.859 124.172C116.203 124.359 107.953 123.797 104.438 121.781C97.3125 117.703 93.7031 109.359 92.0625 104.859C90.4219 100.359 89.0625 82.9219 84.5156 73.9688C79.9688 64.9688 69.1875 60.0469 61.0312 60.0469C52.875 60.0469 49.5 60.6094 45.6563 56.5781C41.8594 52.5938 38.625 44.4844 38.625 44.4844L33 51.5156C33 51.5156 36.75 61.3594 36.7969 66.2813C36.8438 71.2031 35.1563 74.4844 41.7188 81.6094C48.2812 88.7344 52.8281 93.5625 62.7656 99.375C63.3281 104.109 64.7344 109.969 64.7344 109.969C64.7344 109.969 68.4844 125.391 67.3594 125.906C64.9687 127.031 56.6719 124.219 52.5469 125.062C48.4219 125.953 47.5781 129.563 47.5781 129.563H74.5781C75.2812 127.453 74.1094 125.109 73.3594 122.109C72.6094 119.109 73.1719 112.313 73.1719 112.313C73.1719 112.313 73.5 108.797 73.6875 108.234C73.7344 108 75.1406 107.391 76.9219 106.547C78.6562 108.047 80.6719 110.062 82.5469 112.406C87.1406 118.312 95.0625 126.516 100.781 128.672C107.719 131.297 122.25 129.469 122.25 129.469C129.844 129.047 133.312 119.953 132.609 119.203Z" fill="url(#paint4_linear_852_27862)"/>
<path d="M122.25 129.469C122.25 129.469 107.719 131.297 100.781 128.672C95.0625 126.516 87.1406 118.312 82.5469 112.406C80.7188 110.062 78.6563 108.047 76.9219 106.547C75.1406 107.438 73.7812 108.047 73.6875 108.234C73.5469 108.797 73.1719 112.313 73.1719 112.313C73.1719 112.313 72.6094 119.063 73.3594 122.109C74.1094 125.109 75.2344 127.453 74.5781 129.563H47.5781C47.5781 129.563 48.4219 125.953 52.5469 125.062C56.6719 124.172 64.9688 126.984 67.3594 125.906C68.5312 125.344 64.7344 109.969 64.7344 109.969C64.7344 109.969 63.4219 104.438 62.8125 99.7969C62.8125 99.6562 62.7656 99.5156 62.7656 99.375C52.875 93.5625 48.3281 88.7344 41.7188 81.6094C35.1563 74.4844 36.8438 71.2031 36.75 66.2813C36.6563 61.3594 32.9531 51.5156 32.9531 51.5156L35.25 48.6562L38.5781 44.4844C38.5781 44.4844 41.7656 52.5938 45.6094 56.5781C49.4063 60.5625 52.7812 60 60.9844 60.0469C69.1406 60.0469 79.9219 64.9688 84.5156 73.9688C89.0625 82.9688 90.4219 100.406 92.0625 104.906C93.7031 109.406 97.3594 117.703 104.438 121.828C107.953 123.844 116.203 124.406 119.859 124.219C128.766 123.75 131.859 118.5 132.609 119.25C133.312 119.953 129.844 129.047 122.25 129.469Z" fill="url(#paint5_linear_852_27862)"/>
<path opacity="0.5" d="M71.2969 85.7812C67.0781 89.0625 61.5938 94.5 62.7656 99.375C52.875 93.5625 48.3281 88.7344 41.7188 81.6094C35.1563 74.4844 36.8438 71.2031 36.75 66.2813C36.6563 61.3594 32.9531 51.5156 32.9531 51.5156L35.25 48.6562L38.2969 48.9844C38.2969 48.9844 36.9844 51.1406 36.8437 53.4844C36.7031 55.3125 40.875 62.7187 40.4531 72.0469C40.0781 79.3594 56.625 76.5469 55.0313 72.0938C54.75 71.2969 53.8125 69.6563 54.7031 69.5625C56.1094 69.375 59.2969 80.1563 64.0313 84.0938C66.5156 86.1563 68.8125 85.8281 70.9688 84.6094C75.7031 82.0312 79.7813 83.5313 80.1094 83.8594C80.625 84.5156 75.5625 82.5 71.2969 85.7812Z" fill="url(#paint6_linear_852_27862)"/>
<path d="M31.4521 38.6715C31.4521 38.6715 31.2646 37.8278 30.2334 35.6715C29.2021 33.5622 25.2178 30.0465 24.7021 29.9528C24.1865 29.859 24.6553 33.8903 25.6396 35.859C26.624 37.8278 28.6865 38.2028 29.2021 38.6715C29.7646 39.1403 29.8584 39.4684 30.0459 39.7497C30.4678 40.3122 31.9209 39.984 31.4521 38.6715Z" fill="url(#paint7_linear_852_27862)"/>
<path d="M39.5156 37.5938C37.7812 39.0938 37.8281 39.8438 37.7812 41.5781C37.7343 43.3125 39.4687 45.3281 38.9531 47.5313C38.8593 47.9063 38.7187 48.2813 38.4843 48.7031C37.5 50.5781 35.1562 52.3594 31.875 52.7344C27.8906 53.2031 28.6875 52.6406 27.75 53.1094C26.8125 53.5781 26.6718 54.8906 25.5 54.8906C24.4218 54.8906 23.2031 54.7969 22.5937 53.7188C22.5468 53.625 22.5 53.4844 22.4531 53.3906C21.9375 52.0313 20.7187 49.3594 21.375 48.8906C22.0312 48.4219 22.4062 48.2812 23.0625 47.7188C23.7187 47.1562 25.125 44.4844 25.3125 43.5469C25.4531 42.5625 25.2656 42.1406 26.625 41.2969C27.9375 40.4531 28.5 39.5156 29.7187 38.6719C30.9375 37.8281 31.875 38.0625 31.875 38.0625C32.7187 38.0156 34.2187 38.9062 34.4531 38.6719C35.0625 38.1094 34.3593 35.3438 34.8281 34.4531C35.2968 33.5625 37.1718 31.6875 38.3906 30.5156C39.1875 29.7188 39.75 29.3438 40.0312 29.2031C40.2656 29.0625 40.5468 29.1094 40.7343 29.3438C43.2187 32.0156 41.2031 36.0938 39.5156 37.5938Z" fill="url(#paint8_linear_852_27862)"/>
<path opacity="0.5" d="M37.2656 45.0943C37.125 46.4068 34.7344 44.2506 31.5469 46.4068C29.4375 47.8131 28.2188 45.235 29.3906 43.5943C30.375 42.1881 30.1406 41.4381 29.4375 41.0162C28.7812 40.5943 27.8906 40.2193 27.0938 40.9225C28.125 40.1725 28.6406 39.3756 29.7188 38.6256C30.9375 37.7818 31.875 38.0162 31.875 38.0162C32.7188 37.9693 34.2188 38.86 34.4531 38.6725C34.4063 38.7193 34.125 39.1881 33.5625 39.5162C32.9531 39.8443 34.4062 40.5006 35.4375 41.3912C36.4219 42.235 37.4063 43.7818 37.2656 45.0943Z" fill="url(#paint9_linear_852_27862)"/>
<path d="M58.5924 82.7347C58.0299 85.5941 49.2643 91.2191 45.983 93.1878C42.7018 95.1566 40.6393 96.8441 40.0299 97.9691C40.2174 98.9066 40.4518 103.032 40.6862 103.547C40.9674 104.063 39.2799 104.391 38.4362 104.063C38.0143 103.922 37.3112 102.422 36.7487 100.922C36.233 99.6097 35.858 98.3441 35.8112 97.9691C35.7174 97.1253 46.2174 84.8441 46.2174 84.8441C46.2174 84.8441 38.7174 75.2347 40.7799 69.9378C43.358 63.1878 50.9518 66.3753 53.9518 70.4535C55.5455 72.7035 59.2018 79.641 58.5924 82.7347Z" fill="url(#paint10_linear_852_27862)"/>
<path opacity="0.5" d="M122.25 129.469C122.25 129.469 107.719 131.297 100.781 128.672C95.0625 126.516 87.1406 118.313 82.5469 112.407C80.7188 110.063 78.6562 108.047 76.9219 106.547C76.9219 106.547 78.5625 106.453 80.2969 106.032C81.8906 105.657 83.625 106.219 84.5625 107.578C88.1719 112.594 96.4687 123.469 101.672 125.391C108.469 127.922 119.719 127.969 124.172 126.563C128.625 125.157 131.906 121.5 132.563 119.157C133.313 119.953 129.844 129.047 122.25 129.469Z" fill="url(#paint11_linear_852_27862)"/>
<path d="M21.7027 48.6562C21.7027 48.6562 22.1246 48.8438 22.9215 48.9375C23.7184 49.0313 24.7965 48.7969 24.984 48.9375C25.4527 49.3594 25.0777 50.2031 24.5152 50.6719C24.234 50.9062 23.859 50.9531 23.6715 51C23.3902 51.0937 23.2027 51.3281 23.2027 51.6094C23.2027 51.9375 23.109 52.3125 23.0152 52.3125C22.8746 52.3125 22.734 52.0312 22.6402 51.7031C22.4996 51.375 22.2184 51.0938 21.8902 50.9531C21.7496 50.9063 21.609 50.8125 21.4684 50.7188C21.1402 50.4844 20.9996 49.2187 21.1402 49.0312C21.2809 48.8437 21.609 48.6562 21.7027 48.6562Z" fill="url(#paint12_linear_852_27862)"/>
<path d="M30.2811 43.3591C30.2811 43.3591 30.4686 42.7966 31.3124 42.7029C32.0624 42.6091 32.6249 43.0779 33.2343 42.9841C33.8436 42.8904 33.5155 43.1716 33.2343 43.3123C32.953 43.4529 32.6249 44.2029 31.828 44.4373C31.0311 44.6716 29.953 44.2029 30.2811 43.3591Z" fill="url(#paint13_linear_852_27862)"/>
<path d="M31.5932 42.8433C31.5932 42.8433 30.8901 42.7965 30.6557 43.2183C30.4214 43.6402 31.5933 43.734 31.9214 43.4527C32.2026 43.1715 31.9682 42.8902 31.5932 42.8433Z" fill="url(#paint14_linear_852_27862)"/>
<path d="M36.6549 39.6091C36.8893 39.2341 37.0768 39.0934 36.8424 37.8747C36.608 36.6559 35.5299 35.4372 36.1393 34.0309C36.7486 32.6247 39.7486 29.2497 40.3111 29.4372C40.8736 29.6247 41.8111 31.0778 41.3424 33.4216C40.8736 35.8122 39.1393 37.1716 38.5299 37.5934C37.9674 38.0153 37.9674 39.2341 37.2174 39.9841C36.983 40.2653 36.233 40.3122 36.6549 39.6091Z" fill="url(#paint15_linear_852_27862)"/>
<path opacity="0.5" d="M38.4844 48.6562C37.5 50.5312 35.1562 52.3125 31.875 52.6875C27.8906 53.1563 28.6875 52.5938 27.75 53.0625C26.8125 53.5313 26.6719 54.8438 25.5 54.8438C24.4219 54.8438 23.2031 54.75 22.5938 53.6719C22.5938 53.6719 22.9219 53.625 22.9687 53.25C23.0156 52.9687 22.9687 52.5938 23.0625 52.5938C23.1562 52.5938 23.4844 53.4375 23.9062 53.6719C24.3281 53.9063 25.875 53.9531 26.1563 53.8594C26.4375 53.8125 27 52.5 27.75 52.3594C28.5 52.2188 29.625 52.3125 31.3125 52.1719C33 52.0312 37.125 50.8125 38.4844 48.6562Z" fill="url(#paint16_linear_852_27862)"/>
<path opacity="0.5" d="M78.1412 84.3275C78.1412 84.3275 75.1412 84.3275 72.7506 85.5931C70.8756 86.5775 67.0318 89.5775 65.3443 93.3744C63.7037 97.1712 64.0318 99.2806 64.6881 99.8431C65.2974 100.406 67.6881 97.265 71.5787 96.1869C75.4693 95.1087 80.3443 94.5931 81.9849 92.5306C84.6099 89.2493 83.1099 84.2806 78.1412 84.3275Z" fill="url(#paint17_linear_852_27862)"/>
<path d="M38.4844 104.063C38.0625 103.922 37.3594 102.422 36.7969 100.922C36.7969 100.922 37.3125 101.109 38.1094 101.109C38.25 101.109 39.3281 100.594 39.6562 100.172C39.75 100.078 39.5625 98.9531 39.5625 98.7656C39.5625 98.625 40.0781 97.9219 40.0781 97.9219C40.2656 98.8594 40.5 102.984 40.7344 103.5C40.9688 104.063 39.2812 104.391 38.4844 104.063Z" fill="url(#paint18_linear_852_27862)"/>
<path opacity="0.5" d="M28.2181 46.4531C28.2181 46.4531 28.0775 47.25 27.2806 47.7656C26.5306 48.3281 26.2494 48.6562 26.2494 49.0312C26.2494 49.4062 25.7806 50.9531 26.1088 51.1406C26.4369 51.2812 27.515 51.1875 27.6556 50.5312C27.7963 49.875 27.3275 48.5625 27.7494 48C28.1713 47.4375 28.4994 46.7813 28.5463 46.4063C28.5931 46.0313 28.4056 45.9844 28.2181 46.4531Z" fill="url(#paint19_linear_852_27862)"/>
<path opacity="0.5" d="M53.2029 60.3753C53.2029 60.3753 60.0466 59.9535 66.281 61.0785C72.5154 62.2503 78.5154 66.7972 81.0466 69.7035C83.6247 72.6097 86.4841 79.3128 85.9685 80.0628C85.4529 80.8128 83.5779 81.2816 81.3747 78.5628C79.1716 75.8441 72.7966 72.2816 69.4216 71.1566C66.0466 69.9847 57.8904 67.7816 54.1872 65.766C50.4372 63.7503 50.0622 60.1878 53.2029 60.3753Z" fill="url(#paint20_linear_852_27862)"/>
<path opacity="0.5" d="M49.9688 129.562C49.9688 129.562 50.0625 128.297 51.1875 127.078C52.0312 126.188 53.7188 126.047 53.7188 126.047C53.7188 126.047 52.125 126.516 51.5625 127.219C51 127.969 50.7188 129.562 50.7188 129.562H49.9688Z" fill="url(#paint21_linear_852_27862)"/>
<path opacity="0.5" d="M42.2812 129.562C42.2812 129.562 42.375 128.297 43.5 127.078C44.3437 126.188 46.0312 126.047 46.0312 126.047C46.0312 126.047 44.4375 126.516 43.875 127.219C43.3125 127.969 43.0312 129.562 43.0312 129.562H42.2812Z" fill="url(#paint22_linear_852_27862)"/>
<defs>
<linearGradient id="paint0_linear_852_27862" x1="56.5436" y1="132.079" x2="56.5436" y2="96.8196" gradientUnits="userSpaceOnUse">
<stop stop-color="#C17300"/>
<stop offset="1" stop-color="#C15D00"/>
</linearGradient>
<linearGradient id="paint1_linear_852_27862" x1="61.903" y1="86.9475" x2="68.4231" y2="116.596" gradientUnits="userSpaceOnUse">
<stop stop-color="#D08200"/>
<stop offset="1" stop-color="#FDBD24"/>
</linearGradient>
<linearGradient id="paint2_linear_852_27862" x1="40.7141" y1="96.0839" x2="41.4978" y2="81.1929" gradientUnits="userSpaceOnUse">
<stop stop-color="#D08200"/>
<stop offset="1" stop-color="#C15D00"/>
</linearGradient>
<linearGradient id="paint3_linear_852_27862" x1="38.6095" y1="87.6701" x2="40.4002" y2="95.813" gradientUnits="userSpaceOnUse">
<stop stop-color="#272725"/>
<stop offset="1" stop-color="#513325"/>
</linearGradient>
<linearGradient id="paint4_linear_852_27862" x1="82.8275" y1="130.217" x2="82.8275" y2="50.3648" gradientUnits="userSpaceOnUse">
<stop stop-color="#D08200"/>
<stop offset="1" stop-color="#FDBD24"/>
</linearGradient>
<linearGradient id="paint5_linear_852_27862" x1="82.8285" y1="130.218" x2="82.8285" y2="50.3654" gradientUnits="userSpaceOnUse">
<stop stop-color="#D08200"/>
<stop offset="1" stop-color="#FDBD24"/>
</linearGradient>
<linearGradient id="paint6_linear_852_27862" x1="56.5452" y1="102.405" x2="56.5452" y2="59.5255" gradientUnits="userSpaceOnUse">
<stop stop-color="#D08200"/>
<stop offset="1" stop-color="#FDBD24"/>
</linearGradient>
<linearGradient id="paint7_linear_852_27862" x1="28.0123" y1="40.1367" x2="28.0123" y2="29.8279" gradientUnits="userSpaceOnUse">
<stop stop-color="#D08200"/>
<stop offset="1" stop-color="#FDBD24"/>
</linearGradient>
<linearGradient id="paint8_linear_852_27862" x1="31.5493" y1="59.6671" x2="31.5493" y2="41.3018" gradientUnits="userSpaceOnUse">
<stop stop-color="#D08200"/>
<stop offset="1" stop-color="#FDBD24"/>
</linearGradient>
<linearGradient id="paint9_linear_852_27862" x1="32.1795" y1="47.3421" x2="32.1795" y2="39.8592" gradientUnits="userSpaceOnUse">
<stop stop-color="#EEDFD5" stop-opacity="0"/>
<stop offset="1" stop-color="#FFDAC1"/>
</linearGradient>
<linearGradient id="paint10_linear_852_27862" x1="47.2452" y1="130.236" x2="47.2452" y2="50.3248" gradientUnits="userSpaceOnUse">
<stop stop-color="#D08200"/>
<stop offset="1" stop-color="#FDBD24"/>
</linearGradient>
<linearGradient id="paint11_linear_852_27862" x1="96.7638" y1="107.019" x2="124.979" y2="132.256" gradientUnits="userSpaceOnUse">
<stop stop-color="#D08200"/>
<stop offset="1" stop-color="#FDBD24"/>
</linearGradient>
<linearGradient id="paint12_linear_852_27862" x1="23.162" y1="48.7127" x2="23.162" y2="51.6216" gradientUnits="userSpaceOnUse">
<stop stop-color="#272725"/>
<stop offset="1" stop-color="#513325"/>
</linearGradient>
<linearGradient id="paint13_linear_852_27862" x1="31.8226" y1="44.5977" x2="31.8958" y2="43.2054" gradientUnits="userSpaceOnUse">
<stop stop-color="#272725"/>
<stop offset="1" stop-color="#513325"/>
</linearGradient>
<linearGradient id="paint14_linear_852_27862" x1="31.3046" y1="43.6376" x2="31.3353" y2="43.0551" gradientUnits="userSpaceOnUse">
<stop stop-color="#FAF7E6"/>
<stop offset="1" stop-color="#FBF0B2"/>
</linearGradient>
<linearGradient id="paint15_linear_852_27862" x1="36.6335" y1="38.5637" x2="41.3753" y2="28.2181" gradientUnits="userSpaceOnUse">
<stop stop-color="#B13F20"/>
<stop offset="1" stop-color="#CE8148"/>
</linearGradient>
<linearGradient id="paint16_linear_852_27862" x1="30.5532" y1="55.2577" x2="30.5532" y2="50.0021" gradientUnits="userSpaceOnUse">
<stop stop-color="#D08200"/>
<stop offset="1" stop-color="#FDBD24"/>
</linearGradient>
<linearGradient id="paint17_linear_852_27862" x1="74.9634" y1="98.1024" x2="71.5148" y2="85.4838" gradientUnits="userSpaceOnUse">
<stop stop-color="#EEDFD5" stop-opacity="0"/>
<stop offset="1" stop-color="#FFDAC1"/>
</linearGradient>
<linearGradient id="paint18_linear_852_27862" x1="38.14" y1="98.2796" x2="39.5246" y2="104.576" gradientUnits="userSpaceOnUse">
<stop stop-color="#272725"/>
<stop offset="1" stop-color="#513325"/>
</linearGradient>
<linearGradient id="paint19_linear_852_27862" x1="26.7794" y1="46.3926" x2="27.8439" y2="51.2331" gradientUnits="userSpaceOnUse">
<stop stop-color="#D08200"/>
<stop offset="1" stop-color="#FDBD24"/>
</linearGradient>
<linearGradient id="paint20_linear_852_27862" x1="67.4628" y1="73.6941" x2="72.2698" y2="60.7359" gradientUnits="userSpaceOnUse">
<stop stop-color="#EEDFD5" stop-opacity="0"/>
<stop offset="1" stop-color="#FFDAC1"/>
</linearGradient>
<linearGradient id="paint21_linear_852_27862" x1="51.0937" y1="129.734" x2="52.8909" y2="124.889" gradientUnits="userSpaceOnUse">
<stop stop-color="#D08200"/>
<stop offset="1" stop-color="#FDBD24"/>
</linearGradient>
<linearGradient id="paint22_linear_852_27862" x1="43.3779" y1="129.734" x2="45.1752" y2="124.889" gradientUnits="userSpaceOnUse">
<stop stop-color="#D08200"/>
<stop offset="1" stop-color="#FDBD24"/>
</linearGradient>
</defs>
</svg>
