<svg width="150" height="150" viewBox="0 0 150 150" fill="none" xmlns="http://www.w3.org/2000/svg">
<path d="M66.0805 66.0809C64.7021 66.4457 63.4048 67.0944 62.1886 67.8646C60.6481 68.8376 59.0264 69.4863 57.2832 70.0944C53.8778 71.27 50.4318 72.1214 46.9859 73.0944C43.9859 73.9457 41.1886 75.2836 39.2427 77.7971C37.3778 80.2295 36.4048 83.27 37.2156 86.27C37.4589 87.2025 38.594 88.0133 39.6075 87.6079C41.7562 86.7565 42.9724 84.9322 44.7967 83.5944C46.9454 82.0133 49.7427 81.1619 52.2156 80.27C56.8372 78.5673 61.9454 76.9863 65.1481 72.9322C66.2427 71.5133 65.9183 69.4052 64.6616 68.5133C65.2697 68.0673 65.9183 67.6214 66.6075 67.2565C67.2562 66.9322 66.8102 65.8782 66.0805 66.0809Z" fill="#728078"/>
<path d="M72.4858 102.284C72.5263 102.203 72.5668 102.162 72.6074 102.081C73.1344 101.027 71.675 99.6895 70.8641 100.744C69.1209 102.933 66.8506 104.514 64.4182 105.892C62.1074 107.149 59.3101 107.676 57.202 109.257C56.0668 110.108 55.7425 111.244 56.3506 112.541C57.6885 115.541 61.702 117 64.6614 115.5C66.1614 114.73 67.2966 113.473 68.3912 112.216C69.7695 110.676 71.4723 109.622 73.0939 108.365C73.9858 107.635 74.0263 106.622 73.6614 105.771C74.5939 104.433 73.7831 102.73 72.4858 102.284Z" fill="#728078"/>
<path d="M75.3642 142.297C70.9048 128.27 66.6886 114.324 60.5669 100.946C60.6075 100.703 60.6075 100.46 60.5264 100.176C58.3372 92.9596 55.0534 86.0677 52.7832 78.8109C51.4453 74.5136 50.0264 70.1352 48.4453 65.919C48.6075 65.2704 48.7291 64.6217 48.9318 64.0136C49.3372 62.5541 49.7832 61.0541 50.5534 59.7163C50.7967 59.2704 51.0805 58.8244 51.5669 58.5406C51.6886 58.4596 52.5399 58.2163 52.2967 58.2974C52.5399 58.2569 52.5805 57.9325 52.4183 57.7704C52.3777 57.6082 52.2156 57.4055 52.0129 57.365C49.4994 56.9596 48.2832 60.7704 47.6345 62.5136C47.5534 62.7163 47.4723 62.9596 47.4318 63.1623C47.1075 62.392 46.7832 61.5812 46.4588 60.8109C43.4994 53.919 43.9048 46.5812 42.5669 39.2028C41.7561 34.5812 40.621 30.1217 39.7696 25.6623C41.0669 22.3785 42.7291 19.2569 44.4723 16.2163C44.7156 15.7704 44.1075 15.446 43.8237 15.8514C42.1615 18.0812 40.621 20.392 39.2426 22.7839C38.9183 20.9596 38.675 19.0947 38.5129 17.1893C38.4318 16.1352 37.3372 15.7298 36.5669 16.3785C33.3237 18.9731 32.2696 14.392 30.121 19.419C29.9588 19.7433 30.121 20.1487 30.3642 20.3514C29.8372 25.6623 31.094 31.3379 31.6615 36.5677C32.3913 43.3379 33.3642 50.1082 34.3372 56.8379C33.7291 55.946 33.121 55.0541 32.5129 54.1623C29.5129 49.946 26.1886 45.5677 22.2156 42.2433C21.8913 41.9596 21.4453 42.365 21.7291 42.7298C25.175 46.946 27.8507 51.2839 30.3642 56.1082C31.621 58.4596 32.8777 60.8514 34.175 63.1623C34.9048 64.5001 35.7156 66.3244 36.8507 67.5812C37.7426 70.419 38.8372 73.2163 39.9318 76.0541C43.9048 86.1893 46.7021 96.6487 49.621 107.027C49.4183 106.987 49.2156 106.946 49.0129 106.905C45.648 106.257 42.2832 106.054 38.9183 105.851C35.5129 105.649 33.5264 104.108 31.8642 101.23C30.648 99.1623 29.675 96.9325 27.8507 95.3109C27.4453 94.946 26.8372 95.5136 27.2426 95.919C29.0669 97.7839 29.9183 100.338 31.094 102.649C32.3102 105 34.0534 106.703 36.5669 107.595C37.8237 108.041 39.1615 108.162 40.4994 108.324C40.4183 108.365 40.3372 108.405 40.2561 108.446C37.5399 109.662 35.3913 111.77 33.0804 113.554C32.7156 113.838 33.2021 114.406 33.5669 114.162C35.7967 112.703 37.8642 111.081 40.4183 110.23C42.5669 109.5 45.121 109.987 47.3102 109.5C48.4048 109.743 49.4588 110.068 50.5534 110.351C53.2291 119.757 56.148 129.041 60.2021 138.041C60.1615 138.041 60.1615 138 60.121 138C57.9318 137.027 55.5399 136.46 53.2291 135.689C52.621 135.487 52.175 136.46 52.7832 136.743C55.0534 137.838 57.4048 138.73 59.594 140.068C60.2832 140.473 60.9723 141.203 61.7021 141.851C61.8642 142.257 62.148 142.662 62.5129 142.824C62.5534 142.905 62.6345 142.987 62.7156 143.027C63.0804 143.433 63.4048 143.797 63.7696 144.203C64.3778 145.419 66.3642 145.419 66.9723 144.203C67.3372 143.473 67.5804 143.027 67.7832 142.541C69.2021 143.27 70.5805 144.162 71.9994 144.892C73.6615 145.743 76.0129 144.324 75.3642 142.297Z" fill="#D97E58"/>
<path d="M123.284 95.3919C123.284 94.8243 123.243 94.2973 123.243 93.7297C122.595 81.6892 115.662 73.6216 108.446 64.9054C108.487 64.6216 108.365 64.2973 108.122 64.0135C105.568 61.1351 104.23 58.0946 104.473 54.2027C104.514 53.4324 104.635 52.6622 104.798 51.9324C104.757 52.2162 108.568 51.6486 108.892 51.527C121.5 47.7162 128.514 24.973 114.203 18.8513C107.838 16.1351 99.5678 19.2162 95.5543 24.6486C88.7435 21.0405 80.5948 20.2297 73.1354 21.8108C71.5543 22.1351 69.8111 22.7027 68.0273 23.473C64.8651 20.2703 59.1894 19.5 54.9732 19.2568C50.0678 18.973 45.8516 24 44.4732 28.1757C42.73 33.4865 42.4057 39.7703 44.7165 45C47.6759 51.6892 53.0273 53.2297 60.0408 52.9459C60.3651 52.9459 60.6084 52.8243 60.8111 52.6622C63.0408 56.9595 64.2975 59.9594 63.0002 64.9459C62.1894 68.1486 61.2975 70.2162 61.5408 73.4595C58.4597 74.5946 55.4597 75.7703 52.5408 76.9054C47.0678 79.0135 41.2705 79.6622 38.9192 85.5811C37.8651 88.2162 36.9327 95.473 40.0543 97.2973C41.8381 98.3513 43.2165 96.4054 44.0678 94.6622C44.6354 94.9459 45.4462 95.027 46.0138 94.7432C47.0273 94.2162 47.7165 92.9189 48.1219 91.7838C50.5138 89.7162 54.8516 90.1622 57.7705 89.7973C59.7165 89.554 61.7029 89.3108 63.6489 88.9865C65.23 92.0676 66.5678 95.2297 67.5813 98.5135C68.4327 101.23 68.5138 104.108 69.4056 106.784C67.5813 108.486 65.6759 110.149 63.6489 111.649C61.7435 113.068 59.7975 114 57.6894 114.811C57.5273 113.595 56.23 112.581 55.1759 112.135C53.6354 111.446 51.3651 112.095 51.5678 114.122C51.5678 114.162 51.6084 114.203 51.6084 114.284C49.257 113.23 47.6759 116.757 48.1219 118.824C48.73 121.743 50.9597 124.905 53.4327 126.486C53.8381 126.73 54.284 126.527 54.5273 126.203C60.7705 132.527 67.2975 135.405 77.5138 134.797C90.0408 134.108 99.4462 128.23 109.5 121.176C111.973 119.432 114.081 117.689 115.865 115.865C117.203 118.216 120.852 117.324 123.162 116.676C127.014 115.622 129.892 111.851 131.757 108.568C134.716 103.419 129.406 94.2973 123.284 95.3919Z" fill="#8D9D93"/>
<path d="M101.878 29.2296C101.026 28.3377 101.067 26.7566 101.959 25.9052C102.445 25.4593 103.053 25.216 103.702 25.0133C105.486 24.4458 107.391 24.0404 109.256 24.2025C111.121 24.3647 113.026 25.0944 114.283 26.4728C115.094 27.3647 115.621 28.4998 115.945 29.635C117.04 33.2025 116.634 37.1755 114.891 40.4593C113.107 43.7431 109.986 46.2566 106.418 47.2701C107.472 44.635 108.202 41.8782 108.567 39.0809C107.594 39.5269 106.702 40.135 105.851 40.8647C106.702 39.162 107.148 37.2566 107.229 35.3512C106.094 35.8782 104.999 36.4863 103.905 37.135C104.432 33.6079 104.675 30.0404 104.634 26.4728C103.499 27.162 102.567 28.0944 101.878 29.2296Z" fill="#D7D8BE"/>
<path d="M58.7038 48.7296C59.2308 45.7296 58.7038 42.5674 57.2038 39.9323C57.8119 40.6215 58.7038 41.108 59.6362 41.189C59.2308 39.0404 58.6633 36.8917 58.0146 34.7836C59.2308 34.8647 60.4065 35.3107 61.3795 35.9593C60.4065 33.5674 59.4741 31.135 58.5011 28.7431C59.8389 28.7431 61.2173 28.7836 62.5552 28.7836C63.2038 27.689 62.6362 26.189 61.6633 25.3782C60.6497 24.5674 59.3525 24.3242 58.0552 24.162C55.866 23.9188 53.5146 23.9998 51.6903 25.2161C49.4606 26.7161 48.5687 29.5539 47.92 32.1485C47.4741 34.0134 47.0281 35.8782 47.1903 37.7836C47.4335 40.6215 48.9335 43.2161 51.0822 45.0809C53.2308 47.0269 55.947 48.162 58.7038 48.7296Z" fill="#D7D8BE"/>
<path d="M84.8506 54.8107C85.8641 54.2432 86.5127 53.2297 86.9992 52.1756C88.4181 49.0134 88.4181 45.2432 86.9992 42.081C86.5533 41.108 85.9451 40.1351 85.0127 39.6891C83.8776 39.1216 82.4587 39.4053 81.4046 40.1351C80.3506 40.8648 79.6614 41.9594 79.0938 43.0945C78.3235 44.6756 77.756 46.3783 77.7154 48.1621C77.6749 49.9053 78.1208 51.7297 79.1749 53.1486C80.4722 54.8513 82.9857 55.8243 84.8506 54.8107Z" fill="#323B37"/>
<path d="M72.8504 38.3921C71.6342 38.0678 70.418 39.0002 70.418 40.257C70.418 40.7434 70.418 41.2299 70.499 41.7164C70.6612 43.0948 72.8099 43.9867 73.7018 42.4056C73.8639 42.1218 73.945 41.838 74.0261 41.5137C74.1072 41.2705 74.1477 41.0272 74.1882 40.7434C74.3099 39.6894 73.945 38.6759 72.8504 38.3921Z" fill="#323B37"/>
<path d="M94.1356 38.3921C92.9193 38.0678 91.7031 39.0002 91.7031 40.257C91.7031 40.7434 91.7031 41.2299 91.7842 41.7164C91.9464 43.0948 94.095 43.9867 94.9869 42.4056C95.1491 42.1218 95.2302 41.838 95.3112 41.5137C95.3923 41.2705 95.4329 41.0272 95.4734 40.7434C95.6356 39.6894 95.2302 38.6759 94.1356 38.3921Z" fill="#323B37"/>
<path d="M73.418 102.122C72.8099 102.892 72.2829 103.662 71.6342 104.392C71.0261 105 70.2153 105.567 69.7694 106.297C69.6883 106.459 69.8504 106.703 70.0532 106.662C70.864 106.378 71.6748 105.608 72.2829 105.04C73.0126 104.351 73.7423 103.5 74.0667 102.527C74.1072 102.122 73.6207 101.838 73.418 102.122Z" fill="#728078"/>
<path d="M68.4334 72.6083C68.0685 72.5678 67.7442 72.5273 67.4199 72.4462C67.501 72.284 67.5415 72.1218 67.6226 71.9597C67.7847 71.6759 67.582 71.311 67.2577 71.311C65.6766 71.3516 63.3658 72.0408 62.3523 73.2975C62.2712 73.3786 62.2307 73.5002 62.3118 73.6219C62.3118 73.6219 62.3523 73.6624 62.3523 73.7029C62.3523 73.7029 62.3929 73.7029 62.3929 73.7435C62.4739 73.784 62.555 73.784 62.6361 73.7435C63.8118 73.0137 65.1496 72.4056 66.5685 72.2435C66.528 72.3651 66.4469 72.4867 66.4064 72.6083C66.2442 72.8516 66.4064 73.1759 66.6902 73.2975C67.3793 73.5002 67.8658 73.5002 68.555 73.3381C68.9199 73.1759 68.7983 72.6489 68.4334 72.6083Z" fill="#728078"/>
<path d="M71.1903 85.0944C70.5417 85.6619 69.893 86.189 69.0822 86.5538C69.0822 86.5133 69.0822 86.4728 69.0822 86.3917C69.1633 85.9052 68.7579 85.5809 68.3119 85.7836C66.7308 86.5538 65.2714 87.5673 63.7308 88.4592C63.4471 88.6214 63.6498 89.1079 63.9741 88.9863C65.4335 88.5403 66.6092 87.5268 67.9876 86.9592C67.9876 87.0403 67.9876 87.1619 67.9876 87.2836C67.9471 87.6484 68.3525 87.8917 68.6768 87.8106C70.0957 87.4863 70.9876 86.6755 71.8389 85.5403C72.1227 85.216 71.5146 84.8511 71.1903 85.0944Z" fill="#728078"/>
<path d="M123.447 96.9732C123.447 96.811 123.203 96.811 123.163 96.9732C122.96 99.7705 123.893 103.095 122.757 105.811C122.352 105.527 121.947 105.203 121.541 104.919C121.298 104.757 120.893 104.879 120.771 105.122C120.203 106.216 119.757 107.352 119.311 108.487C118.703 110.108 117.852 111.446 117.001 112.946C116.717 113.433 117.325 113.838 117.73 113.514C119.757 111.77 120.284 108.689 121.42 106.298C121.825 106.622 122.23 106.946 122.676 107.23C123.001 107.433 123.447 107.23 123.528 106.865C124.582 103.581 123.649 100.338 123.447 96.9732Z" fill="#728078"/>
<path d="M102.567 56.7569C101.189 57.7299 99.7295 59.4326 98.0268 59.9191V59.8785C98.1079 59.2299 97.4998 58.865 97.0133 59.2704C95.7971 60.2434 93.4052 62.3515 91.6214 62.2299C91.6214 62.0677 91.6214 61.9055 91.6214 61.7028C91.6214 61.3785 91.2565 61.0542 90.9322 61.1758C89.0673 61.865 87.6079 63.3245 85.7836 64.0947C83.6349 64.9866 81.5673 62.7163 79.3376 62.838C78.9322 62.8785 78.6484 63.2839 78.8511 63.6488C78.8917 63.7299 78.9727 63.8109 79.0133 63.892C75.0403 62.9596 71.7971 60.5677 68.189 58.7028C67.743 58.4596 67.0944 58.9866 67.4592 59.4326C67.6619 59.6758 67.7836 59.9596 67.9052 60.2028C65.3917 58.4596 64.2565 55.2974 61.743 53.5136C61.5403 53.3515 61.2971 53.6758 61.4592 53.8785C63.8106 56.392 65.27 60.0407 68.3917 61.7028C68.7565 61.9055 69.1619 61.6623 69.2025 61.2569C69.2025 60.9326 69.1619 60.6488 69.1214 60.365C72.6484 62.2704 75.8917 64.5001 79.9863 65.1488C80.4322 65.2299 80.9187 64.7839 80.5944 64.338C80.5133 64.2163 80.4322 64.0542 80.3511 63.9326C82.0538 64.2974 83.5133 65.838 85.2971 65.392C87.2836 64.9055 88.743 63.4055 90.5268 62.5136C90.4863 62.7974 90.6079 63.0812 90.9322 63.1623C92.8376 63.7704 95.1484 62.1893 96.8511 60.892C96.9727 61.0542 97.1349 61.1758 97.3781 61.1758C99.4863 61.1353 102.648 59.2299 103.297 57.1623C103.297 56.8785 102.851 56.5136 102.567 56.7569Z" fill="#728078"/>
<path d="M112.135 18.9323C111.649 18.8107 111.04 18.9323 110.594 19.135C110.027 19.4188 110.23 20.2296 110.757 20.3918C111.405 20.5945 112.946 21.3647 113.189 20.2296C113.392 19.5404 112.743 19.0945 112.135 18.9323Z" fill="#A3B2AB"/>
<path d="M115.257 23.5947C115.176 23.392 115.136 23.2298 114.973 23.1082C114.852 23.0271 114.771 22.9461 114.649 22.8244C114.446 22.6217 114.244 22.419 114.082 22.2163C113.919 22.0136 113.595 22.0136 113.392 22.1352C113.109 22.2974 113.068 22.6217 113.19 22.9055C113.311 23.1488 113.473 23.392 113.636 23.5947C113.879 23.919 114.082 24.2434 114.487 24.3244C114.933 24.4866 115.419 24.0407 115.257 23.5947Z" fill="#A3B2AB"/>
<path d="M117.731 24.1216C117.65 23.9594 117.528 23.8378 117.366 23.7162C117.406 23.7567 117.406 23.7567 117.325 23.6757C117.285 23.6351 117.244 23.5946 117.163 23.554C117.001 23.3919 116.839 23.2703 116.717 23.1081C116.393 22.7432 115.825 23.1486 115.906 23.554C116.028 24.1216 116.393 24.8108 117.001 25.0135C117.568 25.1757 117.974 24.6081 117.731 24.1216Z" fill="#A3B2AB"/>
<path d="M118.42 28.2971C118.176 28.0944 117.974 27.8511 117.771 27.6079C117.649 27.4457 117.487 27.3241 117.244 27.4052C117.001 27.4863 116.838 27.7295 116.92 27.9728C117.041 28.3376 117.203 28.7025 117.406 29.0674C117.528 29.2701 117.73 29.3917 117.933 29.3511H117.974C118.217 29.3511 118.46 29.189 118.501 28.9457V28.9052C118.622 28.7025 118.582 28.4593 118.42 28.2971Z" fill="#A3B2AB"/>
<path d="M51.487 21.9731C51.3248 22.0947 51.1221 22.1758 50.9599 22.2569C50.6761 22.3785 50.3924 22.7839 50.6761 23.0677C51.1221 23.5136 51.8113 22.9461 52.1356 22.5812C52.5005 22.1758 51.9329 21.6082 51.487 21.9731Z" fill="#A3B2AB"/>
<path d="M49.7429 24.2431C49.7429 24.2836 49.7024 24.2836 49.7024 24.3242C49.7024 24.3242 49.7024 24.3242 49.7024 24.3647C49.7024 24.3647 49.7024 24.3647 49.6618 24.4052C49.6213 24.4458 49.5808 24.4863 49.5808 24.4863C49.6618 24.4052 49.5402 24.5269 49.5402 24.5269C49.4591 24.5674 49.3781 24.6079 49.297 24.6485C49.1754 24.689 49.0943 24.7701 49.0132 24.8512C48.77 25.0539 48.9321 25.4593 49.2159 25.5404C49.8646 25.7431 50.4321 25.1755 50.5943 24.5674C50.6348 24.1215 49.9862 23.8377 49.7429 24.2431Z" fill="#A3B2AB"/>
<path d="M47.1085 25.6621C46.6626 26.027 45.9734 26.6351 46.1355 27.2837C46.2166 27.608 46.5409 27.6891 46.8247 27.5675C47.068 27.4459 47.1896 27.2026 47.3112 26.9594C47.4328 26.7161 47.5545 26.5134 47.7572 26.3107C48.122 25.8648 47.5545 25.2972 47.1085 25.6621Z" fill="#A3B2AB"/>
<path d="M47.4327 28.2563C47.1084 28.0536 46.703 28.1752 46.5003 28.4996C46.257 28.905 45.8516 29.3509 46.0138 29.8374C46.0949 30.0806 46.2976 30.2834 46.5814 30.2834C46.7841 30.2834 46.9868 30.2428 47.1489 30.0807C47.2706 29.9996 47.3516 29.8779 47.4327 29.7563C47.5543 29.5942 47.6354 29.3915 47.7165 29.1888C47.8381 28.8644 47.7976 28.459 47.4327 28.2563Z" fill="#A3B2AB"/>
<path d="M87.8918 23.7162C87.5269 23.0675 86.5945 23.0675 85.9458 23.027C85.2566 22.9864 85.135 24.081 85.7836 24.2027C86.3918 24.3243 87.0809 24.6486 87.689 24.4054C87.9728 24.2837 88.0134 23.9594 87.8918 23.7162Z" fill="#A3B2AB"/>
<path d="M89.555 25.2568C89.109 25.0136 88.6225 25.0541 88.136 24.9325C87.4063 24.7704 87.1225 25.7839 87.8117 26.0271C88.3793 26.2298 89.0279 26.392 89.555 26.0676C89.8387 25.8649 89.8793 25.419 89.555 25.2568Z" fill="#A3B2AB"/>
<path d="M92.8369 24.8511C92.5126 24.77 92.1883 24.7295 91.864 24.7295C91.5396 24.7295 91.2559 25.0133 91.2559 25.3376C91.2559 25.7025 91.5396 25.9052 91.864 25.9457C92.1478 25.9862 92.3504 26.1079 92.5937 26.189C93.0396 26.3106 93.5261 26.2295 93.6072 25.7025C93.6072 25.216 93.1613 24.9727 92.8369 24.8511Z" fill="#A3B2AB"/>
<path d="M95.311 27.5676C94.9867 27.2028 94.4597 27.1217 94.0543 26.919C93.7299 26.7568 93.3245 26.8379 93.1218 27.1622C92.9191 27.5271 93.0813 27.8514 93.3651 28.0946C93.8516 28.4595 94.4597 28.8244 95.0678 28.6217C95.4732 28.4595 95.6353 27.9325 95.311 27.5676Z" fill="#A3B2AB"/>
<path d="M41.2301 85.6218C41.1896 85.3785 40.8653 85.2975 40.6626 85.3786C40.2166 85.6218 40.0545 86.1488 39.9329 86.5948C39.8112 87.0002 40.3788 87.4056 40.6626 87.0407C40.9869 86.5948 41.3112 86.1894 41.2301 85.6218Z" fill="#A3B2AB"/>
<path d="M43.0539 84.8916C43.0539 84.7295 42.9323 84.6079 42.8107 84.5673C42.608 84.4862 42.3242 84.6079 42.2026 84.77C42.0404 84.9727 41.9999 85.1754 42.1215 85.4187C42.2026 85.5808 42.4053 85.6619 42.608 85.6214C42.7296 85.5808 42.8512 85.4997 42.8918 85.3781C42.8918 85.3376 42.9323 85.3376 42.9323 85.3376C43.0134 85.1349 43.0539 85.0133 43.0539 84.8916Z" fill="#A3B2AB"/>
<path d="M43.176 81.9322C42.7301 81.8512 42.4463 81.9728 42.0814 82.216C41.8382 82.4187 41.6355 82.7025 41.4733 82.9863C41.1895 83.4322 41.7977 83.8782 42.2031 83.5539C42.5679 83.2295 43.0544 83.1079 43.3787 82.7025C43.5814 82.4593 43.5409 81.9728 43.176 81.9322Z" fill="#A3B2AB"/>
<path d="M46.0939 82.1754C45.9722 82.0538 45.8101 82.0132 45.6479 82.0538C45.6884 82.0538 45.6884 82.0538 45.6074 82.0538C45.5263 82.0538 45.4857 82.0538 45.4047 82.0943C45.4857 82.0943 45.4452 82.0943 45.283 82.0943C45.2425 82.0943 44.9587 82.2159 45.1209 82.1754C44.9182 82.2565 44.7155 82.297 44.5128 82.4186C44.1885 82.5808 44.1885 83.1484 44.5128 83.3105C44.8371 83.4727 45.1614 83.4727 45.4857 83.3916C45.8506 83.27 46.0939 82.9862 46.2155 82.6619C46.256 82.4997 46.1749 82.297 46.0939 82.1754Z" fill="#A3B2AB"/>
<path d="M55.3792 113.757C55.1765 113.392 54.6089 113.108 54.2035 113.27C54.0008 113.351 53.8387 113.554 53.9198 113.797C54.0414 114.203 54.5684 114.527 55.0144 114.487C55.3387 114.405 55.5819 114.081 55.3792 113.757Z" fill="#A3B2AB"/>
<path d="M57.1616 115.865C56.9589 115.622 56.6345 115.622 56.3508 115.622C56.1075 115.622 55.8643 115.622 55.621 115.581C55.0535 115.46 54.8508 116.23 55.3778 116.433C55.9048 116.635 56.7967 116.96 57.2021 116.392C57.3237 116.23 57.2832 116.027 57.1616 115.865Z" fill="#A3B2AB"/>
<path d="M60.6892 115.5C60.2027 115.013 59.3108 115.256 58.7432 115.5C58.4189 115.621 58.4189 116.027 58.7432 116.189C59.3108 116.392 60.2027 116.635 60.6892 116.189C60.8919 115.986 60.8919 115.662 60.6892 115.5Z" fill="#A3B2AB"/>
<path d="M61.9054 116.433C61.5406 116.514 61.2973 116.717 61.0135 116.879C60.7703 117.001 60.4865 117.041 60.2433 117.001C59.473 116.96 59.3108 118.176 60.0811 118.338C60.973 118.501 62.5135 118.298 62.6757 117.163C62.7162 116.717 62.3919 116.311 61.9054 116.433Z" fill="#A3B2AB"/>
<path d="M64.0138 114.364C63.8517 114.081 63.5679 113.959 63.2436 113.959H62.7165C62.3517 113.959 62.0273 114.283 62.0273 114.648C62.0273 115.013 62.3517 115.337 62.7165 115.337H63.2436C63.5679 115.337 63.8111 115.216 64.0138 114.932C64.0949 114.77 64.0949 114.527 64.0138 114.364Z" fill="#A3B2AB"/>
<path d="M129.568 99.4051C129.446 98.878 128.797 98.5943 128.392 98.3105C127.946 98.0267 127.5 98.6348 127.865 98.9997C128.23 99.3645 128.595 99.8916 129.203 99.9321C129.446 99.9321 129.649 99.6483 129.568 99.4051Z" fill="#A3B2AB"/>
<path d="M129.284 102.04C129.202 101.797 129.04 101.675 128.878 101.473C128.757 101.351 128.675 101.229 128.554 101.067C128.432 100.865 128.067 100.905 128.027 101.148C127.946 101.716 127.986 102.486 128.635 102.689C129.04 102.77 129.405 102.405 129.284 102.04Z" fill="#A3B2AB"/>
<path d="M130.906 103.216C130.784 102.973 130.622 102.811 130.419 102.689C130.095 102.486 129.77 102.77 129.73 103.095C129.73 103.176 129.73 103.176 129.73 103.095C129.73 103.176 129.689 103.216 129.689 103.297C129.689 103.338 129.689 103.338 129.689 103.378C129.689 103.378 129.689 103.378 129.689 103.419C129.608 103.743 129.77 104.027 129.973 104.27C130.176 104.514 130.541 104.473 130.743 104.27C130.987 103.946 131.108 103.541 130.906 103.216Z" fill="#A3B2AB"/>
<path d="M129.69 106.216C129.649 106.095 129.609 105.973 129.568 105.852C129.649 105.973 129.568 105.852 129.568 105.811V105.771C129.528 105.162 128.717 105.041 128.514 105.608C128.393 106.014 128.393 106.5 128.757 106.784C128.96 106.946 129.203 107.027 129.447 106.865C129.649 106.744 129.771 106.46 129.69 106.216Z" fill="#A3B2AB"/>
<path d="M118.824 80.7571C118.581 80.3111 117.851 80.5949 117.973 81.122C118.054 81.4057 118.094 81.6895 118.135 81.9733C118.175 82.3382 118.175 82.703 118.54 82.9463C118.662 83.0274 118.905 83.0274 119.027 82.9463C119.716 82.4193 119.148 81.3652 118.824 80.7571Z" fill="#A3B2AB"/>
<path d="M118.581 84.0402C118.5 83.8781 118.459 83.797 118.378 83.6348C118.297 83.5538 118.256 83.4727 118.175 83.3916C118.013 83.1889 117.648 83.1483 117.446 83.3105C117.162 83.4727 117.081 83.8375 117.243 84.1213C117.324 84.2835 117.405 84.4862 117.567 84.6078C117.77 84.8105 118.094 84.9321 118.378 84.77C118.581 84.6889 118.702 84.324 118.581 84.0402Z" fill="#A3B2AB"/>
<path d="M120.81 85.7839C120.729 85.5406 120.648 85.3379 120.567 85.0947C120.485 84.892 120.161 84.8109 119.958 84.8514C119.675 84.9325 119.553 85.2163 119.594 85.5001C119.634 85.6623 119.634 85.7839 119.634 85.946C119.634 86.1082 119.634 86.2298 119.715 86.392C119.756 86.4731 119.796 86.5541 119.837 86.6352C120.039 86.919 120.485 86.9595 120.648 86.6352C120.688 86.5541 120.769 86.4325 120.81 86.3109C120.891 86.1487 120.85 85.9866 120.81 85.7839Z" fill="#A3B2AB"/>
<path d="M119.271 87.689C118.784 87.689 118.379 88.0944 118.379 88.5809C118.379 88.743 118.379 88.9052 118.419 89.0673C118.663 89.8782 119.798 89.8782 120.041 89.0673C120.082 88.9052 120.082 88.743 120.082 88.5809C120.122 88.0944 119.717 87.689 119.271 87.689Z" fill="#A3B2AB"/>
<path d="M123.121 90.8919C122.999 90.527 122.918 90.2027 122.797 89.8379C123.121 90.0811 123.445 90.3243 123.77 90.5676C124.337 90.973 125.026 90.0406 124.499 89.5946C122.918 88.2568 122.391 85.4189 121.743 83.473C121.702 83.3919 121.702 83.2703 121.662 83.1487C122.189 83.3919 122.959 82.8243 122.716 82.2162C121.418 78.9324 118.54 76.8649 116.067 74.5135C116.189 74.5541 116.351 74.6351 116.472 74.6757C117.243 75 117.932 74.3514 117.608 73.5406C116.918 71.9595 114.932 70.7433 113.675 69.6892C112.905 69.0406 112.094 68.3919 111.364 67.6622C111.162 67.4595 110.999 67.2162 110.837 66.973C111.567 66.9324 111.81 65.9595 111.364 65.4324C109.783 63.6081 107.716 62.2297 106.459 60.1622C104.918 57.6487 105.243 54.6487 104.675 51.8919C104.635 51.6487 104.27 51.6487 104.229 51.8919C103.702 54.6081 103.945 57.6487 104.918 60.2433C105.608 62.0676 106.945 63.4054 108.283 64.7838C108.243 64.7838 108.202 64.7838 108.202 64.7838C107.635 64.7027 106.905 65.4324 107.553 65.9189C108.243 66.446 108.972 66.7703 109.743 66.8919C109.986 67.8243 111.405 69.1622 111.648 69.446C112.337 70.1757 113.067 70.8649 113.797 71.5541C113.391 71.3919 112.986 71.2297 112.54 71.1081C112.013 70.9865 111.526 71.6757 111.972 72.0811C112.743 72.7297 113.635 73.2973 114.567 73.7838C115.945 75.6487 117.729 77.2703 119.189 79.0541C118.986 78.9324 118.743 78.7703 118.54 78.6487C118.053 78.3649 117.526 79.0135 117.932 79.4189C118.743 80.2297 119.594 80.9595 120.405 81.7703C120.81 82.8243 121.175 83.8379 121.499 84.973C121.783 85.946 122.026 86.9595 122.391 87.973C122.148 87.8514 121.905 87.7703 121.662 87.6892C121.216 87.5676 120.729 88.2162 121.175 88.5406C121.459 88.7433 121.743 88.9865 122.026 89.1892C122.067 89.5946 122.107 90 122.148 90.3649C121.986 90.4865 121.864 90.6892 122.026 90.8919C122.148 91.0541 122.229 91.2162 122.351 91.3379C122.594 92.2297 122.999 93.0811 123.77 93.6487C124.256 94.0541 124.986 93.5676 124.662 92.9595C124.135 92.2297 123.729 91.5 123.121 90.8919Z" fill="#8D9D93"/>
<path d="M115.621 114.203C114.811 115.135 114.081 116.149 113.351 117.162C113.108 117.122 112.865 117.162 112.703 117.405C112.621 117.568 112.5 117.689 112.419 117.851C112.338 117.73 112.135 117.649 111.973 117.811C107.878 121.865 102 123.811 98.0269 127.986C97.9458 127.824 97.7431 127.703 97.5404 127.824C95.9593 129 94.2971 130.135 92.5539 131.149C92.5539 130.946 92.4323 130.784 92.3106 130.662C92.189 130.5 91.9863 130.419 91.7431 130.5C91.662 130.54 91.5809 130.581 91.4998 130.581C91.3377 130.419 91.0944 130.378 90.8917 130.5C90.6079 130.662 90.4052 130.865 90.2836 131.149C89.9998 131.311 89.7161 131.432 89.4323 131.635C89.3106 131.716 89.2296 131.838 89.189 131.959C89.1079 132 89.0269 132.081 88.9052 132.122C87.1215 133.013 85.3377 133.824 83.635 134.838C82.9052 135.284 83.3917 136.419 84.2025 136.216C88.8647 135.122 93.2025 132.405 96.8512 129.324C96.6079 129.608 96.4052 129.932 96.2025 130.216C95.7566 130.905 96.8512 131.554 97.2971 130.865C100.703 125.513 107.148 123.365 111.567 119.027C111.284 119.473 111 119.878 110.716 120.324C110.311 120.973 111.284 121.743 111.77 121.135C113.432 119.108 114.608 116.757 116.148 114.649C116.513 114.324 115.905 113.878 115.621 114.203Z" fill="#8D9D93"/>
<path d="M87.04 132C85.013 132.69 83.067 133.257 80.9589 133.622C78.8914 133.987 76.7833 134.23 74.8373 134.919C73.9454 135.244 74.3103 136.541 75.2427 136.338C75.6076 136.257 75.9724 136.136 76.2968 136.055C79.986 135.122 84.2427 134.798 87.3238 132.568C87.567 132.406 87.4049 131.879 87.04 132Z" fill="#8D9D93"/>
<path d="M68.5531 102.081C68.5125 102 68.3504 101.392 68.3504 101.27C68.2693 101.027 68.0666 100.946 67.8639 101.027C67.6206 100.176 67.6206 99.0405 67.5801 98.554C67.499 97.7026 67.499 96.8513 67.3369 95.9999C67.4179 95.7567 67.4585 95.5134 67.5396 95.2702C67.6612 94.8242 67.0936 94.4999 66.7693 94.8242C66.6477 94.9864 66.5261 95.108 66.4044 95.2702C66.1206 94.2972 65.8774 93.3648 65.5125 92.4323C65.7963 92.0675 66.0396 91.6621 66.2017 91.2161C66.4044 90.6891 65.7152 90.4864 65.3909 90.7296C65.2288 90.8513 65.1071 90.9729 64.9855 91.0945C64.9044 90.9323 64.7828 90.9323 64.6612 90.9729C64.5801 90.5675 64.4585 90.1621 64.2963 89.7567C64.1747 89.4323 63.6477 89.6756 63.7288 89.9999C63.972 90.8918 63.9315 92.108 63.5261 92.9594C63.2423 93.5269 64.0125 94.2161 64.4585 93.6891C64.5396 93.5675 64.6612 93.4459 64.7423 93.3242C65.0666 94.8648 65.4315 96.4053 65.7152 97.9459C65.7963 98.3918 66.2828 98.5134 66.6477 98.3513C66.6477 98.8378 66.6477 99.3242 66.6882 99.8107C66.7693 100.905 66.8504 102.04 67.7828 102.649C67.8233 102.689 67.8639 102.689 67.9044 102.73C68.472 103.054 68.8369 102.446 68.5531 102.081Z" fill="#8D9D93"/>
<path d="M91.8245 21.3651C90.2028 21.2435 88.5812 21.4867 86.9191 21.5678C87.3245 21.3245 87.7299 21.0408 88.0947 20.6759C88.5812 20.2299 88.0542 19.5813 87.5272 19.6624C85.5812 19.9867 83.6758 20.4732 81.7704 20.9191C81.7299 20.8786 81.6488 20.8786 81.5677 20.8786C81.0407 20.9191 80.4731 21.0002 79.9461 21.0408C80.5542 20.6759 81.0812 20.2299 81.4866 19.5813C81.7299 19.2164 81.3245 18.7299 80.9191 18.8516C78.0812 19.6624 75.2434 20.4732 72.4055 21.1624C70.5812 21.6083 68.4731 22.2164 67.3785 23.8381C67.2164 24.0813 67.5812 24.3651 67.7434 24.1218C69.1218 22.5408 71.4326 22.1759 73.3785 21.7705C73.6623 21.6894 73.9866 21.6489 74.2704 21.5678C74.0272 21.9732 74.4326 22.5813 74.9596 22.4597C75.0812 22.4191 75.2028 22.3786 75.365 22.3786C75.4866 22.5002 75.6488 22.6218 75.8515 22.5813C75.892 22.6624 75.9326 22.7435 76.0542 22.784C76.2974 22.8245 76.4596 22.8245 76.7028 22.784C76.8245 22.7435 76.8245 22.5408 76.7028 22.5408C76.7839 22.5408 76.9055 22.5002 76.9866 22.5002C77.0272 22.5408 77.0677 22.5408 77.1488 22.5408C79.7028 22.6624 82.2164 22.0137 84.7299 21.4867C84.6082 21.5678 84.5272 21.6083 84.4055 21.6894C83.838 22.0543 84.1218 22.784 84.7299 22.8651C86.5137 23.0678 88.3785 22.9056 90.1623 22.6218C90.0812 22.7029 89.9596 22.784 89.8785 22.8651C89.6758 23.0678 89.8785 23.4732 90.1623 23.3516C90.7704 23.1083 91.2974 22.6624 91.8245 22.3381H91.865C92.4731 22.1354 92.3109 21.4056 91.8245 21.3651Z" fill="#8D9D93"/>
<path d="M39.4046 13.9865C39.3641 12.7703 39.4452 11.3513 40.3371 10.5405C41.1073 12.7703 41.5938 15.0811 41.756 17.3919C41.7965 18.3243 41.7965 19.2973 41.31 20.0676C39.8911 18.4459 39.4857 16.1757 39.4046 13.9865Z" fill="#82B46A"/>
<path d="M47.7562 18.6486C45.9724 19.2973 44.0265 19.2567 42.1211 19.1351C42.1211 18.8919 42.2833 18.6892 42.486 18.527C44.9184 16.2973 48.3238 15.2027 51.6076 15.4865C50.7157 16.9459 49.3373 18.0811 47.7562 18.6486Z" fill="#82B46A"/>
<path d="M43.2969 16.9053C43.2969 15.5674 43.7428 14.2296 44.5131 13.1755C45.3239 12.1215 46.459 11.3107 47.7563 10.9458C47.878 11.7161 47.4725 12.4863 47.0266 13.1755C46.7428 13.662 46.4185 14.1485 46.0536 14.5944C45.405 15.4053 44.6347 16.0944 43.7428 16.5809C43.6212 16.7431 43.459 16.8242 43.2969 16.9053Z" fill="#82B46A"/>
<path d="M24.2848 33.2028C24.4065 33.0406 24.5686 32.8784 24.7713 32.8379C25.0146 34.6217 25.2984 36.446 25.0146 38.2703C24.7308 40.0541 23.8794 41.8784 22.3389 42.8109C22.2578 41.1487 22.1767 39.446 22.42 37.7838C22.6227 36.1217 23.1902 34.4595 24.2848 33.2028Z" fill="#82B46A"/>
<path d="M18.7703 50.5133C21.2838 49.0944 23.6351 46.9052 24.1216 44.0269C20.1486 44.8377 16.6216 47.6755 15 51.4052C16.2973 51.689 17.6351 51.162 18.7703 50.5133Z" fill="#82B46A"/>
<path d="M28.7028 49.9055C28.1352 47.4731 27.0001 45.1622 26.5947 42.6893C26.1487 40.2163 26.5541 37.3785 28.4596 35.7568C29.0271 38.2298 29.5541 40.7433 30.0406 43.2163C30.2028 44.1082 30.365 45.0406 30.2839 45.9731C30.1623 47.392 29.4325 48.6487 28.7028 49.9055Z" fill="#82B46A"/>
<path d="M31.3368 53.7565C29.5125 52.216 26.9179 51.6889 24.5666 52.0538C22.1747 52.4187 19.9855 53.5943 18.0801 55.0538C19.9449 56.5538 22.499 57.0808 24.8909 56.7565C27.2828 56.4322 29.472 55.297 31.3368 53.7565Z" fill="#82B46A"/>
<path d="M48.8104 60.5273C48.851 61.0138 48.8915 61.5408 48.6077 61.9462C47.9996 61.5813 47.7564 60.8516 47.5537 60.1624C46.9861 58.3381 46.4185 56.5138 46.4591 54.6083C46.4996 53.5948 46.7429 52.5002 47.4726 51.7705C48.0807 54.6489 48.5267 57.5678 48.8104 60.5273Z" fill="#82B46A"/>
<path d="M54.4046 61.8242C52.5397 62.2297 50.4721 61.6215 49.0938 60.2837C49.6208 59.7567 50.3505 59.5134 51.0397 59.3513C53.4721 58.8242 56.0262 58.9459 58.3775 59.6756C57.1613 60.5675 55.864 61.4999 54.4046 61.8242Z" fill="#82B46A"/>
<path d="M51.6069 57.77C52.2556 55.6214 54.4853 53.9998 56.7151 54.0403C56.3502 56.3511 54.2015 58.216 51.8502 58.216C51.7691 58.216 51.688 58.216 51.6475 58.1754C51.5259 58.1349 51.5664 57.9322 51.6069 57.77Z" fill="#82B46A"/>
<path d="M26.3099 92.9999C26.2694 91.9459 26.2289 90.8918 26.4721 89.8783C26.6748 88.8648 27.1208 87.8513 27.891 87.1621C27.7289 88.6216 28.0532 90.081 28.2559 91.5405C28.4586 92.9999 28.4586 94.581 27.6478 95.8378C27.1208 95.6351 26.7559 95.1486 26.5937 94.6216C26.3505 94.0945 26.3099 93.527 26.3099 92.9999Z" fill="#82B46A"/>
<path d="M35.229 90.8109C35.0263 92.5947 34.783 94.419 33.8101 95.9595C32.8371 97.4595 31.0533 98.5947 29.2695 98.1893C29.7155 95.5541 31.4587 93.3244 33.4452 91.5406C33.9317 91.1352 34.5803 90.6893 35.229 90.8109Z" fill="#82B46A"/>
<path d="M22.0945 100.905C23.0675 102.486 25.0134 103.5 26.8783 103.216C28.0945 103.013 29.1891 102.365 30.2026 101.675C30.4053 101.554 30.608 101.392 30.5675 101.148C30.5269 100.986 30.3648 100.865 30.2431 100.743C28.8242 99.7699 27.3242 98.797 25.6215 98.5942C24.081 98.4321 22.4594 98.9591 21.3242 100.054C21.6891 100.175 21.8918 100.581 22.0945 100.905Z" fill="#82B46A"/>
<path d="M38.229 102.892C37.9047 103.54 37.2965 103.986 36.6884 104.392C36.1209 104.797 35.5128 105.203 34.8236 105.203C34.4992 103.094 35.0668 100.824 36.4047 99.1215C36.9317 98.4729 37.6209 97.8648 38.4317 97.8242C38.4317 98.8377 38.4722 99.8918 38.4722 100.905C38.5128 101.635 38.5533 102.324 38.229 102.892Z" fill="#82B46A"/>
<path d="M30.9727 110.838C32.1889 110.392 33.4456 109.906 34.3781 109.014C35.2294 108.203 35.7564 107.108 36.2429 106.014C32.8375 106.216 29.5943 108.243 27.9727 111.243C28.9456 111.568 29.9997 111.203 30.9727 110.838Z" fill="#82B46A"/>
<path d="M37.2562 111.162C36.8913 112.338 36.7697 113.635 37.1751 114.811C37.5805 115.986 38.5129 117 39.7292 117.284C39.9319 116.311 39.6075 115.297 39.2427 114.324C38.9994 113.595 38.7156 112.865 38.4724 112.176C38.3913 111.892 38.2697 111.608 38.067 111.405C37.8643 111.203 37.54 111.081 37.2562 111.162Z" fill="#82B46A"/>
<path d="M29.0687 118.743C30.5687 118.621 31.9876 117.972 33.0822 116.918C34.1363 115.864 34.8254 114.445 34.9876 112.945C33.1633 113.189 31.6633 114.567 30.4471 115.945C29.7173 116.756 28.9876 117.689 29.0687 118.743Z" fill="#82B46A"/>
<path d="M42.8925 108.364C42.8925 107.918 42.6492 107.513 42.4465 107.148C41.7573 105.891 41.2709 104.472 41.1898 103.054C41.1087 101.594 41.5141 100.094 42.4871 99.04C42.8519 100.499 43.2168 101.999 43.6222 103.459C43.7033 103.864 43.8249 104.27 43.7844 104.675C43.6627 105.648 43.3384 107.472 42.8925 108.364Z" fill="#82B46A"/>
<path d="M46.1752 112.337C46.2563 111.486 46.3374 110.675 46.459 109.824C46.5401 109.216 46.5806 108.567 46.4995 107.959C45.0806 108.891 44.0266 110.31 43.5401 111.891C43.0536 113.513 43.1347 115.297 43.8239 116.837C43.8644 116.959 43.986 117.121 44.1077 117.121C44.2293 117.121 44.3104 117 44.3509 116.878C44.7158 116.189 45.0806 115.54 45.4455 114.851C45.6482 114.486 45.8104 114.162 45.9725 113.756C46.0536 113.31 46.1347 112.824 46.1752 112.337Z" fill="#82B46A"/>
<path d="M34.3777 35.1084C34.0128 32.23 33.7696 29.2706 33.7696 26.3516C33.7696 26.0273 33.2426 26.0273 33.2426 26.3516C33.0804 29.2706 33.202 32.1895 33.4858 35.1084C33.7696 37.9868 34.0534 41.1084 34.9858 43.8652C35.1074 44.2706 35.8371 44.23 35.7966 43.7435C35.5128 40.8652 34.7426 37.9868 34.3777 35.1084Z" fill="#F7A06F"/>
<path d="M37.2164 39.9325C37.1353 39.6487 36.7299 39.7704 36.7704 40.0541C37.2569 43.0541 38.2299 45.9325 38.5947 48.9325C38.6353 49.2568 39.1623 49.2974 39.1218 48.9325C39.1218 45.8109 37.9866 42.9325 37.2164 39.9325Z" fill="#F7A06F"/>
<path d="M46.2165 72.9326C45.6895 72.2434 45.0003 71.7164 44.5138 70.9461C44.0273 70.2164 43.5409 69.4055 43.0544 68.6758C42.5679 67.9866 41.7571 66.9326 40.8652 66.8109C39.8111 64.4191 38.9598 62.0677 38.4327 59.4731C38.3922 59.2704 38.0273 59.311 38.0273 59.5137C38.0679 61.9866 39.0814 64.4191 40.0138 66.6893C40.5003 67.9055 41.0679 69.1623 41.5138 70.4191C42.0409 71.838 42.2841 73.2974 42.73 74.7164C42.8922 75.2028 43.6219 75.1218 43.6219 74.5947C43.5409 72.3245 42.3246 70.0136 41.3922 67.9866C41.2706 67.7434 41.1895 67.5407 41.1084 67.2974C41.5138 67.5407 41.8382 67.8245 42.1625 68.2299C42.649 68.838 42.9733 69.5677 43.3382 70.2164C43.9057 71.2704 44.6355 73.0542 45.8922 73.5001C46.2165 73.6623 46.4192 73.1758 46.2165 72.9326Z" fill="#F7A06F"/>
<path d="M39.325 51.7299C39.2845 51.5272 38.9196 51.5678 38.9602 51.7705C39.4872 56.1083 41.5548 60.2029 42.8521 64.3381C42.9737 64.7029 43.4602 64.5408 43.4196 64.1759C42.8115 59.8381 40.0548 56.0678 39.325 51.7299Z" fill="#F7A06F"/>
<path d="M55.2969 102.243C53.9996 99.2838 52.7023 96.3649 51.6483 93.3243C51.5266 92.9595 50.9996 93.1216 51.0807 93.4865C51.3239 94.6622 51.6483 95.8378 52.0942 96.973C51.9321 98.7162 51.9321 100.5 52.0131 102.243C52.0942 103.824 52.1753 105.811 53.2699 107.068C53.4726 107.311 53.9591 107.068 53.8375 106.743C52.7023 103.986 52.6618 101.108 52.5807 98.1892C53.0266 99.3243 53.5131 100.419 53.9591 101.514C55.0537 104.149 55.7429 106.946 56.8375 109.541C56.9996 109.986 57.7294 109.986 57.7294 109.419C57.6077 106.946 56.2699 104.473 55.2969 102.243Z" fill="#F7A06F"/>
<path d="M58.4991 102.284C58.3775 101.919 57.7694 102.081 57.891 102.446C58.3775 103.905 58.7423 105.405 59.1477 106.905C59.2288 107.189 59.6748 107.108 59.6342 106.824C59.4721 105.243 59.0261 103.784 58.4991 102.284Z" fill="#F7A06F"/>
<path d="M70.6212 140.838C67.9861 139.297 65.1482 138.405 62.7158 136.54C62.3915 135.689 62.0671 134.838 61.6617 134.027C61.5807 133.865 61.2969 133.946 61.2969 134.108C61.378 135.324 61.905 136.581 62.3509 137.716C62.7969 138.973 63.1212 140.432 63.7699 141.608C63.932 141.932 64.459 141.811 64.459 141.405C64.378 140.108 63.6888 138.811 63.1617 137.635C65.2293 139.338 67.8644 141.081 70.3374 141.567C70.7428 141.689 71.0266 141.081 70.6212 140.838Z" fill="#F7A06F"/>
<path d="M50.1087 141C51.933 140.067 53.1087 138.202 53.5141 136.216C51.3654 136.297 49.2573 136.783 47.3114 137.635C45.5681 138.364 43.7844 139.743 43.8249 141.608C45.933 141.77 48.2033 141.973 50.1087 141Z" fill="#82B46A"/>
<path d="M54.4041 145.175C56.9987 143.391 58.0122 139.702 56.7554 136.864C55.0933 137.391 53.7554 138.729 53.0257 140.351C52.296 141.932 52.1338 143.756 52.2554 145.499C52.8635 145.945 53.796 145.621 54.4041 145.175Z" fill="#82B46A"/>
<path d="M82.5406 40.3782C81.5676 40.662 80.7568 41.4323 80.1487 42.2431C79.5406 43.0944 78.6082 44.3917 79.0946 45.4458C79.2568 45.8106 79.7838 46.0944 80.1082 45.7296C81.2028 44.3106 81.1217 42.1215 82.8649 41.1079C83.2298 40.8647 82.9865 40.2566 82.5406 40.3782Z" fill="#4D5853"/>
<path d="M80.0274 47.311C79.9869 46.9866 79.8653 46.5002 79.4599 46.5812C79.1355 46.6623 79.095 46.9866 79.0139 47.2299C78.9328 47.5542 78.8518 47.9596 79.1761 48.2434C79.3788 48.4461 79.622 48.4056 79.8247 48.2434C80.068 48.0002 80.068 47.6353 80.0274 47.311Z" fill="#4D5853"/>
<path d="M72.9719 38.8784C72.6475 38.8784 72.4043 39.1622 72.4043 39.446C72.4043 39.7298 72.6881 40.0136 72.9719 40.0136C73.2962 40.0136 73.5394 39.7298 73.5394 39.446C73.5394 39.1622 73.2962 38.8784 72.9719 38.8784Z" fill="#D7D8BE"/>
<path d="M94.8247 39.2841L94.7842 39.2436C94.5815 38.9598 94.1761 38.9598 93.9734 39.2436L93.9328 39.2841C93.7301 39.6085 94.0139 40.0544 94.3788 40.0544C94.7436 40.0544 95.068 39.6085 94.8247 39.2841Z" fill="#D7D8BE"/>
</svg>
