<svg width="150" height="150" viewBox="0 0 150 150" fill="none" xmlns="http://www.w3.org/2000/svg">
<path d="M23.0416 74.7354L24.7763 108.98C24.7763 108.98 22.9191 108.674 21.5722 110.001C20.6334 110.939 20.3477 112.205 20.4701 112.98C20.511 113.286 20.7763 113.49 21.0824 113.49H28.4905C28.8171 113.49 29.1028 113.225 28.9803 112.96C28.9803 112.96 31.3477 93.5721 31.613 90.9803C31.8783 88.3884 33.1028 88.3884 33.3069 84.1639C33.511 79.9394 33.1436 76.5721 33.1436 76.5721L23.0416 74.7354Z" fill="#D77C36"/>
<path d="M21.0824 113.491C20.7763 113.491 20.511 113.266 20.4701 112.98C20.3477 112.205 20.6334 110.94 21.5722 110.001C22.2865 109.287 23.1232 109.062 23.7763 108.98C23.9803 109.042 24.164 109.123 24.3681 109.225C25.6946 109.858 27.8579 111.756 27.8579 113.511H21.0824V113.491Z" fill="#FFD5BA"/>
<path d="M24.8386 113.47C24.8386 113.47 24.3488 112.226 25.5529 110.817C25.5529 110.817 24.1855 111.511 24.1855 113.47H24.8386Z" fill="#772638"/>
<path d="M21.267 113.47C21.267 113.47 21.1649 111.287 22.7364 110.613C22.7364 110.613 21.6139 111.491 21.716 113.47H21.267Z" fill="#772638"/>
<path d="M26.5715 79.3474C26.1022 79.0617 25.4899 79.1433 24.9389 79.225C24.3879 79.3066 23.7756 79.3474 23.3471 79.0005C23.3062 78.9597 23.2654 78.9188 23.2246 78.8984L23.2858 80.2862C23.9185 80.7148 24.7552 80.8168 25.2654 81.429C25.5511 81.776 25.7144 82.3066 26.1634 82.429C26.4695 82.5107 26.7756 82.3474 26.9593 82.1025C27.143 81.8576 27.2246 81.5515 27.245 81.2454C27.3266 80.5311 27.1838 79.7148 26.5715 79.3474Z" fill="#B66629"/>
<path d="M30.3058 86.164C29.8365 86.2252 29.3671 86.7354 28.9589 86.9599C28.4487 87.2456 28.1222 87.3476 27.8161 87.9191C27.714 88.1232 27.6324 88.368 27.7548 88.5517C27.8365 88.6538 27.9385 88.715 28.061 88.7558C28.6528 88.9803 29.2854 89.0823 29.9181 89.0619C30.3263 89.0415 30.7752 88.9599 31.061 88.6538C31.2854 88.3885 31.3467 88.0211 31.3671 87.6742C31.3671 87.3272 31.3467 86.9599 31.163 86.6742C30.9793 86.3476 30.6528 86.1232 30.3058 86.164Z" fill="#B66629"/>
<path d="M25.4091 103.878C25.4907 104.184 25.7968 104.347 26.103 104.408C26.4499 104.47 26.8376 104.388 27.1234 104.184C27.3683 104.021 27.5723 103.715 27.5111 103.429C27.4499 103.184 27.2254 103 27.0009 102.898C26.4907 102.715 25.8785 102.857 25.5519 103.306C25.4295 103.449 25.3683 103.674 25.4091 103.878Z" fill="#B66629"/>
<path d="M26.3469 96.7555C26.3061 96.5718 26.1224 96.429 25.9388 96.3881C25.7143 96.3269 25.4898 96.3677 25.2857 96.4698C25.1224 96.5718 24.9796 96.7351 25 96.9188C25.0204 97.082 25.1429 97.2045 25.2857 97.2657C25.5918 97.4086 25.9796 97.3473 26.2041 97.1024C26.3061 97.0004 26.3673 96.8779 26.3469 96.7555Z" fill="#B66629"/>
<path d="M25.5107 94.0207C25.6739 94.1023 25.8576 94.1023 26.0413 94.1227C26.3882 94.1431 26.7352 94.1431 27.0617 94.0411C27.3882 93.939 27.6944 93.6941 27.776 93.3676C27.8168 93.2247 27.8168 93.0819 27.7352 92.9594C27.5515 92.6125 27.0005 92.6737 26.7556 92.3676C26.6127 92.2043 26.6127 91.9798 26.5311 91.7758C26.4086 91.4492 26.1433 91.2247 25.878 91.0003C25.3678 90.5717 24.6331 90.1023 23.8984 90.1431L24.0005 92.5513C24.225 92.6737 24.4291 92.7962 24.5923 92.9798C24.9393 93.3268 25.0821 93.837 25.5107 94.0207Z" fill="#B66629"/>
<path d="M30.2854 98.1842C30.1834 98.1026 30.0609 98.0618 29.9385 98.021C29.3466 97.8577 27.0201 97.0822 27.5507 98.572C27.7344 99.0618 28.163 99.4495 28.6528 99.572C29.163 99.6944 29.714 99.572 30.1017 99.2251C30.4283 98.9802 30.5915 98.4495 30.2854 98.1842Z" fill="#B66629"/>
<path d="M130.817 92.7147C133.245 92.7147 136.674 91.7555 139.368 87.1637C139.939 86.1841 139.613 84.9392 138.633 84.3677C137.654 83.7963 136.409 84.1228 135.837 85.1024C134.449 87.4698 132.796 88.633 130.817 88.633C126.429 88.633 119.878 83.3881 112.388 73.8371C106.409 66.2249 101.878 58.5106 101.837 58.429C101.266 57.4494 100.021 57.1228 99.0413 57.6943C98.0617 58.2657 97.7351 59.5106 98.3066 60.4902C98.4902 60.8167 103.021 68.5106 109.143 76.3269C117.694 87.1841 124.98 92.7147 130.817 92.7147Z" fill="#F2903D"/>
<path d="M109.163 76.3069C108.49 75.4497 107.837 74.5926 107.225 73.7559C107.959 74.2865 108.837 74.6334 109.633 75.062C109.837 75.164 110.082 75.2865 110.265 75.164C110.572 74.9804 110.449 74.4089 110.776 74.2661C111.021 74.164 111.265 74.3885 111.408 74.613C111.837 75.2661 112.143 76.0212 112.347 76.7763C112.429 77.062 112.51 77.3681 112.735 77.5722C112.98 77.7967 113.347 77.8375 113.674 77.7763C114.021 77.715 114.327 77.5722 114.612 77.3681C114.776 77.2457 114.918 77.1028 115.143 77.2048C115.286 77.2661 115.429 77.5314 115.531 77.6538C115.98 78.164 116.429 78.6742 116.898 79.1844C117.755 80.1232 118.633 81.0212 119.531 81.9191C121.041 83.3885 122.633 84.8171 124.388 86.0212C126.245 87.3273 128.49 88.6334 130.816 88.6334C132.816 88.6334 134.449 87.4701 135.837 85.1028C136.408 84.1232 137.653 83.7967 138.633 84.3681C139.612 84.9395 139.939 86.1844 139.367 87.164C136.694 91.7559 133.245 92.715 130.816 92.715C124.98 92.715 117.694 87.1844 109.163 76.3069Z" fill="#FFD5BA"/>
<path d="M133.817 90.1027C134.572 89.5925 135 88.4904 134.49 87.7149C134.388 87.5516 134.245 87.4292 134.082 87.3271C133.102 88.1843 132.021 88.6129 130.817 88.6129C130.551 88.6129 130.266 88.5925 130 88.5516C129.592 89.3067 129.939 90.3884 130.817 90.6741C131.633 90.9598 133.164 90.5516 133.817 90.1027Z" fill="#B66629"/>
<path d="M138.633 84.3674C138.51 84.3061 138.388 84.2449 138.265 84.2041C137.082 84.551 135.816 85.449 136.184 86.5102C136.388 87.0817 137.041 87.3061 137.633 87.4082C138.123 87.4898 138.633 87.551 139.143 87.5306C139.225 87.4082 139.286 87.2857 139.367 87.1633C139.939 86.1837 139.612 84.9388 138.633 84.3674Z" fill="#B66629"/>
<path d="M119.551 87.4286C119.653 87.449 119.755 87.449 119.857 87.4286C120.388 87.3674 120.673 86.796 120.837 86.2857C120.959 85.8572 121.041 85.4082 120.918 85C120.837 84.6939 120.632 84.4286 120.408 84.2041C119.183 82.9796 117.816 83.9184 116.959 85.0817C117.837 85.9388 118.694 86.7143 119.551 87.4286Z" fill="#B66629"/>
<path d="M106.776 71.0615C106.796 71.2043 106.796 71.388 106.674 71.4696C106.613 71.5105 106.551 71.5309 106.47 71.5309C106.245 71.5309 106.062 71.4084 105.878 71.2656C105.674 71.1227 105.47 70.9594 105.266 70.7962C105.082 70.6329 104.919 70.4288 104.817 70.2043C104.755 70.0615 104.735 69.8778 104.837 69.7758C104.919 69.6737 105.082 69.6533 105.225 69.6533C106.102 69.7145 106.653 70.1839 106.776 71.0615Z" fill="#B66629"/>
<path d="M109.102 69.6533C108.327 69.7349 107.551 69.3676 107.021 68.8166C106.49 68.2655 106.164 67.5104 106.041 66.7553C105.98 66.4084 105.959 66.0411 106.123 65.7349C106.184 65.6125 106.266 65.5309 106.327 65.4492C107.204 66.7349 108.184 68.1431 109.225 69.6125C109.184 69.6329 109.143 69.6533 109.102 69.6533Z" fill="#B66629"/>
<path d="M107.346 73.4284C108.306 72.8365 109.51 74.0406 109.285 75.0202C109.244 75.2039 109.102 75.3875 108.918 75.4692C108.795 75.51 108.673 75.51 108.551 75.4896C108.551 75.4896 108.53 75.4896 108.51 75.4896C108.04 74.8773 107.571 74.2447 107.102 73.6324C107.183 73.5712 107.244 73.4896 107.346 73.4284Z" fill="#B66629"/>
<path d="M113.184 78.5509C113.429 78.7346 113.613 79.204 113.756 79.4693C113.837 79.6325 113.898 79.8366 113.776 79.9795C113.674 80.1019 113.49 80.1019 113.347 80.0611C113.184 79.9999 113.021 79.9182 112.898 79.7958C112.735 79.6325 112.633 79.4285 112.572 79.204C112.531 79.0815 112.511 78.9387 112.552 78.8162C112.592 78.4693 112.919 78.3672 113.184 78.5509Z" fill="#B66629"/>
<path d="M119.756 82.1223C119.736 82.1427 119.715 82.1631 119.695 82.204C119.613 82.2856 119.511 82.3264 119.389 82.3468C119.123 82.3876 118.838 82.2856 118.674 82.1019C118.572 81.9999 118.511 81.8774 118.429 81.7754C118.246 81.5917 117.98 81.5101 117.736 81.3876C117.327 81.1836 116.96 80.7142 117.083 80.2652C117.144 80.0611 117.266 79.8978 117.45 79.7754C118.246 80.6121 119.001 81.408 119.756 82.1223Z" fill="#B66629"/>
<path d="M123.919 88.4694C124.164 88.6327 124.286 88.9796 124.47 89.2245C124.572 89.3674 124.694 89.5511 124.613 89.7143C124.531 89.8572 124.347 89.8776 124.184 89.8776C123.551 89.8368 122.98 89.4898 122.429 89.1633C122.327 89.1021 122.204 89.0409 122.123 88.9388C122.041 88.8368 121.98 88.7143 122.021 88.5919C122.062 88.3878 122.307 88.2858 122.531 88.2654C122.939 88.2245 123.592 88.2245 123.919 88.4694Z" fill="#B66629"/>
<path d="M126.185 88.3677C125.981 88.2657 125.756 88.1432 125.613 87.98C125.45 87.8167 125.328 87.5922 125.348 87.3473C125.348 87.2657 125.368 87.1841 125.409 87.1228C125.47 87.0208 125.552 86.9596 125.654 86.8983C125.674 86.8983 125.695 86.8779 125.715 86.8779C126.389 87.2861 127.062 87.633 127.695 87.8983C127.879 88.6126 126.613 88.5718 126.185 88.3677Z" fill="#B66629"/>
<path d="M102.409 60.2451C102.409 60.2451 103.694 68.9798 101.98 74.2247C100.654 78.2655 96.878 82.1635 96.7964 83.8574C96.5923 87.7553 97.5719 96.5104 97.429 98.8166C97.3066 100.878 93.3474 110.123 92.8168 112.939C92.7556 113.266 92.4699 113.49 92.1637 113.49L84.4699 113.47C84.0617 113.47 83.7556 113.123 83.7964 112.715C83.9188 111.735 84.8372 110.694 85.4291 110.021C86.3066 109.041 89.0005 109.266 89.1229 109.143C89.4495 108.817 90.8984 100.817 90.8168 99.1431C90.776 98.041 85.1025 92.0002 83.6127 88.3268C81.8576 84.0002 80.8984 69.5308 80.8984 65.2451L102.409 60.2451Z" fill="#D77C36"/>
<path d="M84.4701 113.47C84.0619 113.47 83.7558 113.123 83.7966 112.715C83.9191 111.735 84.8374 110.694 85.4293 110.021C85.8374 109.572 86.6129 109.388 87.3476 109.286C88.1436 109.572 88.8578 110.082 89.4293 110.715C89.8987 111.225 90.8374 112.49 91.0823 113.49L84.4701 113.47Z" fill="#FFD5BA"/>
<path d="M87.6118 113.511C87.6118 113.511 87.1016 112.164 88.4078 110.674C88.4078 110.674 86.9384 111.409 86.918 113.511H87.6118Z" fill="#1B1C1E"/>
<path d="M84.7961 113.47C84.7961 113.47 84.6941 111.123 86.3879 110.429C86.3879 110.429 85.1839 111.367 85.2859 113.47H84.7961Z" fill="#1B1C1E"/>
<path d="M84.9998 81.5102C84.9794 81.3266 84.8569 81.1633 84.7549 81.0204C84.3263 80.4898 83.2447 78.9796 82.3876 79.347C82.2651 79.4082 82.1018 79.5715 81.959 79.7959C82.0814 80.7551 82.2039 81.6939 82.3467 82.5919C83.1631 82.7755 84.061 82.6735 84.6937 82.1225C84.8569 81.9796 85.0202 81.7551 84.9998 81.5102Z" fill="#B66629"/>
<path d="M91.0615 94.9386C91.041 95.4284 91.3676 95.857 91.6737 96.2448C91.8574 96.4692 92.0819 96.7346 92.3676 96.7346C92.6737 96.755 92.9186 96.5101 93.1839 96.3672C93.939 95.9386 94.8778 96.1631 95.7145 95.8978C95.9594 95.8162 96.2043 95.6937 96.3268 95.4692C96.4084 95.3264 96.4084 95.1427 96.4084 94.9794C96.4084 94.3876 96.1635 93.7345 95.6533 93.4284C94.8778 92.959 93.6329 93.3264 92.7962 93.4692C92.0615 93.5917 91.0819 94.0611 91.0615 94.9386Z" fill="#B66629"/>
<path d="M101.122 57.3265C97.877 52.6734 89.9178 49.8367 81.3259 50.7754C69.5708 52.0612 63.3463 53.8163 53.7749 53.4693C48.1014 53.2652 38.2647 49.755 32.53 49.5918C25.5912 49.4081 20.7545 50.6326 18.4076 51.3673C17.7953 51.551 16.9586 51.7754 15.979 51.9999L14.877 58.5918C14.877 58.5918 16.7341 66.2448 18.2851 69.5714C20.5708 74.4897 24.3259 76.653 29.8974 78.1632C35.5504 79.7142 52.6933 78.9591 64.1831 78.9387C70.5504 78.9183 75.0402 77.3061 78.2851 75.653C80.3463 74.6122 87.7341 73.4081 89.4484 71.4693C90.428 70.3469 91.428 69.102 92.5504 67.7142C97.7749 61.1836 105.469 63.5918 101.122 57.3265Z" fill="#F2903D"/>
<path d="M18.2864 70.0412C17.5108 68.5514 17.0415 66.3881 16.5312 64.6738C17.4292 65.8167 18.2864 66.98 18.8782 68.2861C19.0619 68.6942 19.2251 69.1228 19.47 69.5106C20.5108 71.2044 22.6537 71.7351 24.5721 72.2657C26.0823 72.6738 27.5925 73.184 29.0619 73.7555C29.4904 73.9187 29.9394 74.1024 30.2864 74.4289C30.5925 74.7146 30.817 75.082 31.1027 75.4085C31.6129 76.0004 32.3476 76.3473 33.0619 76.633C36.2047 77.8779 39.6945 77.9595 43.0619 77.6738C46.5313 77.3881 50.021 76.7351 53.5108 76.8575C54.9394 76.8983 56.368 77.1024 57.817 77.1636C59.1435 77.2248 60.47 77.2044 61.817 77.1636C65.919 77.0412 70.021 76.7759 74.021 75.8983C77.0619 75.2248 79.1843 72.9799 82.021 71.8167C83.021 71.4085 84.0823 71.2044 85.1435 70.98C86.4496 70.7146 87.6741 69.9595 88.9802 70.5106C90.368 71.082 91.1843 72.8167 90.7966 74.2453C90.368 75.8167 88.817 76.7759 87.3476 77.4902C80.0415 81.0208 71.5925 81.8983 63.5517 82.1228C53.9598 82.3881 44.2659 82.4085 34.8986 80.3065C31.6945 79.5922 28.5108 78.6126 25.6741 77.0004C22.3476 75.1228 19.8986 73.1228 18.2864 70.0412Z" fill="#FFD5BA"/>
<path d="M20.7545 50.7348C22.8565 50.245 25.7545 49.7348 29.3872 49.6123C30.0402 52.3266 29.5912 54.4694 28.1627 56.8572C27.7137 57.6123 27.1219 58.2858 26.6525 59.0205C26.1627 59.7756 25.877 60.6939 25.5096 61.5307C25.2443 62.1837 24.9586 62.8572 24.428 63.3266C23.8157 63.8572 22.9994 64.0409 22.2035 64.2041C21.428 64.3674 20.6321 64.5307 19.8361 64.4694C19.2851 64.4286 18.7545 64.3062 18.2443 64.1225C17.4688 63.8776 16.6729 63.4899 16.0402 63.0001C15.3667 60.6123 14.877 58.6123 14.877 58.6123L15.3463 55.796L15.979 52.0001C16.9586 51.7756 17.7953 51.5511 18.4076 51.3674C18.53 51.3266 18.6729 51.2858 18.7953 51.245C19.3259 51.1021 19.9994 50.9184 20.7545 50.7348Z" fill="#D77830"/>
<path d="M11.3469 43.5106C11.3469 43.5106 10.3877 40.8371 8.16323 40.6126C6.89793 40.4901 6.16323 42.5718 6.12242 43.531C6.0816 44.633 6.22446 47.1432 8.59181 48.4697L10.5102 48.8371L11.3469 43.5106Z" fill="#F2903D"/>
<path d="M9.46918 42.0205C9.28551 41.8369 9.10183 41.6532 8.89775 41.5308C7.63244 40.7961 7.63244 43.2042 7.83653 44.2042C8.04061 45.1634 8.50999 46.0818 9.16306 46.694C9.2651 46.7756 9.36714 46.8777 9.46918 46.8369C9.55081 46.8165 9.61204 46.7144 9.65285 46.6328C10.1835 45.6328 10.6937 44.4899 10.2039 43.1838C10.0202 42.694 9.79571 42.3675 9.46918 42.0205Z" fill="#FFD5BA"/>
<path d="M25.5514 43.5514C25.5514 43.5514 27.8167 40.9392 29.0412 41.2045C30.9596 41.6126 30.6739 46.5718 27.9392 48.429C25.1841 50.2657 25.5514 43.5514 25.5514 43.5514Z" fill="#F2903D"/>
<path d="M27.062 42.7349C27.2457 42.6124 27.4498 42.49 27.6742 42.4695C28.0212 42.4287 28.3681 42.6124 28.5722 42.8777C28.7763 43.143 28.8375 43.4695 28.8579 43.7757C28.8783 44.3675 28.6947 44.9389 28.5314 45.49C28.3885 45.9797 28.2253 46.4695 28.0824 46.9389C28.0416 47.041 28.0008 47.1634 27.9191 47.2451C27.8375 47.3267 27.6947 47.3879 27.5722 47.3267C27.4702 47.2859 27.4294 47.1838 27.3885 47.0818C27.0008 46.1838 26.5314 45.3267 26.0416 44.49C25.8579 44.1634 25.6742 43.9185 25.9396 43.592C26.1845 43.2655 26.6947 42.9797 27.062 42.7349Z" fill="#FFD5BA"/>
<path d="M18.0807 41.2861C13.8562 41.2861 11.8154 42.0004 10.0195 44.0821C8.24394 46.1637 7.83578 48.1841 7.85619 50.6739C7.85619 53.1637 8.3868 55.2045 10.0195 56.6535C11.5705 58.0208 14.795 59.1229 16.0399 60.9392C16.7337 61.98 18.1827 62.9188 19.5501 62.9188C20.9174 62.9188 22.346 62.4698 22.9582 61.7351C23.9582 60.531 23.8358 59.3269 24.4684 58.5106C24.9582 57.8372 26.346 56.5514 27.0603 55.3474C27.8154 54.0616 28.448 52.7147 28.6317 50.9392C28.8562 48.8576 28.8154 46.3882 27.3256 44.3269C25.1827 41.3269 20.999 41.2861 18.0807 41.2861Z" fill="#F2903D"/>
<path d="M18.5306 52.2246C18.5306 52.2246 17.9592 49.5919 16 49.1429C14.3469 48.7552 13.4081 49.0205 13.2245 49.9184C13.0816 50.694 13.8163 52.1429 15.4286 52.1838C16.9388 52.2246 18.4694 52.2858 18.5918 52.9184L18.5306 52.2246Z" fill="#FFD5BA"/>
<path d="M22.3477 52.3676C22.3477 52.3676 22.3477 49.2247 23.8987 48.8166C25.4497 48.4084 26.4497 48.8166 26.7966 49.6737C27.1028 50.4084 26.5721 51.7554 25.0007 52.1227C23.5313 52.49 22.4293 52.7554 22.4497 53.4084L22.3477 52.3676Z" fill="#FFD5BA"/>
<path d="M18.0822 41.2861C20.1843 41.2861 22.9394 41.3065 25.123 42.429C25.0006 46.6127 22.3475 47.2453 22.2047 49.5514C22.0618 51.9392 22.7353 54.531 22.7353 54.531L23.6128 56.8576L18.7353 57.8372L18.6945 54.7351C18.6945 54.7351 18.7557 51.6535 17.9394 49.6127C17.2251 47.7759 15.021 47.429 13.6333 45.7963C12.2251 44.1433 12.1435 42.4086 12.123 42.3474C13.5312 41.5923 15.3475 41.2861 18.0822 41.2861Z" fill="#D77830"/>
<path d="M23.1018 61.9394C24.7957 60.4904 24.5916 58.4496 24.4079 57.3272C24.4079 57.3272 24.3467 56.7353 23.8365 55.8578C23.3263 54.9802 22.7345 54.5312 22.7345 54.5312C22.7345 54.5312 23.2243 56.7149 22.8569 56.6945C21.9794 56.6333 20.8569 58.3068 20.8569 58.3068L19.2447 56.7761C18.9386 56.7353 18.6937 54.7353 18.6937 54.7353C18.6937 54.7353 17.3467 55.2864 16.7141 56.0006C16.0814 56.7149 15.612 57.5925 15.4692 58.4496C15.3263 59.3272 16.7345 60.5108 16.7345 60.5108C16.7345 60.5108 16.7957 61.4904 17.4079 62.1639C17.8365 62.6333 18.6732 62.8374 19.2243 62.8986C20.7141 63.0619 22.0814 62.8374 23.1018 61.9394Z" fill="#FFD5BA"/>
<path d="M14.4493 49.6738C14.837 49.6125 15.286 49.4493 15.8779 49.5717C16.286 49.6534 16.9187 49.9799 17.2248 50.735C17.3472 51.0411 17.4085 51.6942 17.3268 51.7146C17.2452 51.7554 17.2044 51.5921 16.6738 51.6942C16.1432 51.7758 15.7758 51.9391 15.1636 51.5717C14.5513 51.2044 14.2656 50.5105 14.1023 50.1432C14.0003 49.9187 14.0615 49.735 14.4493 49.6738Z" fill="#231F20"/>
<path d="M14.9387 50.0617C15.1836 50.0209 15.4489 49.9189 15.7959 50.0005C16.0408 50.0617 16.4285 50.2454 16.6122 50.7148C16.6938 50.8985 16.7142 51.2862 16.6734 51.3066C16.6326 51.327 16.5918 51.2454 16.2857 51.2862C15.9591 51.3474 15.7551 51.4291 15.3673 51.2046C15 50.9801 14.8163 50.5515 14.7347 50.3474C14.6734 50.2046 14.7142 50.1025 14.9387 50.0617Z" fill="#FFD5BA"/>
<path d="M26.1643 49.7755C26.1847 49.6326 25.8174 49.653 25.4704 49.5102C25.001 49.3265 24.1235 49.3061 23.6133 49.7551C23.1643 50.1428 23.2459 51.5306 23.4092 51.6939C23.5725 51.8571 23.8582 51.5306 24.4092 51.6326C24.8582 51.7143 25.348 51.4081 25.4908 51.1428C25.6949 50.7551 25.6541 50.3469 25.8378 50.1632C26.0419 49.9796 26.1439 49.9184 26.1643 49.7755Z" fill="#231F20"/>
<path d="M25.6537 50.0408C25.6742 49.9388 25.4293 49.9592 25.2048 49.8775C24.8986 49.7551 24.3272 49.7551 24.0007 50.0408C23.715 50.2857 23.7558 51.1837 23.8578 51.2857C23.9599 51.3877 24.1435 51.1837 24.5109 51.2449C24.7966 51.2857 25.1231 51.102 25.2048 50.9388C25.3476 50.6939 25.3068 50.4285 25.4293 50.3061C25.5721 50.1837 25.6333 50.1428 25.6537 50.0408Z" fill="#FFD5BA"/>
<path d="M21.0405 56.143C20.816 56.1226 20.5711 55.8981 20.0405 55.7144C19.5711 55.5511 19.0201 55.8573 18.918 56.1634C18.7956 56.5715 19.265 56.9593 19.816 57.5307C20.2242 57.9593 20.5507 58.8164 20.918 58.8368C21.265 58.8368 21.7956 57.8573 22.0609 57.6328C22.5507 57.143 23.3874 56.6328 22.8772 55.9797C22.4078 55.3879 21.2854 56.143 21.0405 56.143Z" fill="#231F20"/>
<path d="M18.2659 60.796C19.021 60.6939 20.9597 59.6123 20.9597 59.6123C20.9597 59.6123 22.1026 60.5511 23.5108 60.7143L23.4087 60.9797C23.4087 60.9797 22.8985 61.0205 22.2863 60.8776C21.7148 60.7348 21.1434 60.3878 20.9597 60.3674C20.6128 60.3266 19.2863 61.0001 18.3067 61.0205C17.3271 61.0409 16.7148 60.5103 16.7148 60.5103C16.7148 60.5103 17.4087 60.9184 18.2659 60.796Z" fill="#231F20"/>
<path d="M20.8359 58.8163C20.8359 58.8163 20.8972 59.3265 20.8359 59.9183L21.04 59.9388C21.04 59.9388 21.0196 59.3265 21.04 58.7959L20.8359 58.8163Z" fill="#231F20"/>
<path d="M16.9379 51.1022C16.9379 51.6124 16.1828 51.5104 15.9175 51.5104C15.6522 51.5104 15.4277 51.1022 15.4277 50.5716C15.4277 50.0614 15.6522 49.6328 15.9175 49.6328C16.1828 49.6736 16.9379 50.592 16.9379 51.1022Z" fill="#231F20"/>
<path d="M25.7554 50.0614C25.7554 50.592 25.0207 51.3471 24.7554 51.3471C24.4901 51.3471 24.2656 50.9185 24.2656 50.3879C24.2656 49.8573 24.4901 49.4287 24.7554 49.4287C25.0207 49.4491 25.7554 49.5308 25.7554 50.0614Z" fill="#231F20"/>
<path d="M30.6537 75.0205C31.715 79.1225 36.3068 86.1225 36.5721 87.3878C36.8374 88.6531 41.0211 103.878 41.5517 108.408C41.5517 108.408 38.9599 108.857 37.5313 110.286C36.5109 111.286 36.7558 112.082 36.8782 112.898C36.919 113.225 37.2048 113.449 37.5313 113.449L46.368 113.49C46.715 113.49 47.0211 113.225 47.0415 112.857C47.0415 112.857 46.4905 87.2654 45.9394 83.9797C45.5313 81.5103 42.5721 76.7348 41.8578 75.6531C41.2456 74.6939 31.1843 65.5511 29.7354 67.3062C29.7558 67.3266 29.5517 70.694 30.6537 75.0205Z" fill="#F2903D"/>
<path d="M39.6328 109C39.7553 109.02 39.8777 109.061 40.0002 109.102C40.8982 109.367 41.7349 109.837 42.4696 110.408C43.1226 110.939 43.6941 111.571 44.1635 112.265C44.3471 112.551 44.6737 113.02 44.8573 113.49L37.5512 113.469C37.2247 113.469 36.939 113.224 36.8982 112.918C36.7757 112.102 36.5308 111.306 37.5512 110.306C38.1226 109.714 38.9186 109.286 39.6328 109Z" fill="#FFD5BA"/>
<path d="M41.206 113.491C41.206 113.491 40.7366 112.307 41.8999 110.96C41.8999 110.96 40.5938 111.613 40.5938 113.491H41.206Z" fill="#1B1C1E"/>
<path d="M37.8179 113.47C37.8179 113.47 37.7158 111.389 39.2056 110.756C39.2056 110.756 38.1444 111.593 38.2261 113.47H37.8179Z" fill="#1B1C1E"/>
<path d="M35.042 77.9595C34.838 78.2656 34.7563 78.6534 34.7155 79.0207C34.6951 79.2656 34.7155 79.5309 34.8788 79.6942C35.042 79.837 35.2869 79.8575 35.491 79.8575C35.7563 79.837 36.0012 79.7962 36.2461 79.735C36.4094 79.6942 36.5727 79.633 36.7359 79.5309C37.0625 79.3268 37.2461 78.9187 37.2053 78.5513C37.1645 78.1636 36.8992 77.837 36.5318 77.6942C35.9808 77.4697 35.4502 77.3677 35.042 77.9595Z" fill="#B66629"/>
<path d="M29.3272 58.1431C29.1231 58.4492 29.0415 58.837 29.0007 59.2043C28.9803 59.4492 29.0007 59.7145 29.1639 59.8778C29.3272 60.0206 29.5721 60.041 29.7762 60.041C30.0415 60.0206 30.2864 59.9798 30.5313 59.9186C30.6945 59.8778 30.8578 59.8166 31.0211 59.7145C31.3476 59.5104 31.5313 59.1023 31.4905 58.7349C31.4497 58.3472 31.1843 58.0206 30.817 57.8778C30.2456 57.6533 29.7354 57.5512 29.3272 58.1431Z" fill="#B66629"/>
<path d="M39.8582 91.2659C40.0215 91.3883 40.2052 91.4904 40.3888 91.5516C40.5929 91.6128 40.797 91.6128 41.0011 91.572C41.5521 91.4292 41.7358 90.8577 41.6337 90.3475C41.5929 90.1843 41.5317 90.021 41.3888 89.8985C41.2664 89.7965 41.1031 89.7353 40.9399 89.7149C40.6745 89.6536 40.3888 89.6536 40.1235 89.6945C39.899 89.7353 39.6745 89.7965 39.5317 89.9802C39.4092 90.123 39.3888 90.3475 39.4092 90.5312C39.4705 90.8169 39.6337 91.0822 39.8582 91.2659Z" fill="#B66629"/>
<path d="M102.409 60.2451C102.409 60.2451 103.307 63.9798 103.552 68.3268C103.735 71.5308 102.878 75.0614 104.49 77.6533C108.266 83.7961 115.756 92.4288 116.654 94.5716C117.511 96.5921 121.205 110.082 120.654 112.898C120.592 113.225 120.307 113.449 119.98 113.449L112.919 113.388C112.511 113.388 112.205 113.041 112.266 112.633C112.388 111.653 113.001 110.51 113.613 109.837C114.511 108.857 116.429 109.021 116.552 108.919C116.878 108.592 110.898 98.7961 109.98 97.4084C109.368 96.49 96.0413 90.4492 93.4291 87.837C90.8168 85.2247 83.3066 65.041 83.3066 65.041L102.409 60.2451Z" fill="#F2903D"/>
<path d="M112.265 112.633C112.388 111.654 113 110.511 113.612 109.837C114 109.409 114.592 109.205 115.143 109.103C116 109.266 116.816 109.694 117.51 110.225C118.469 110.96 119.551 112.164 119.775 113.449L112.918 113.388C112.531 113.388 112.204 113.021 112.265 112.633Z" fill="#FFD5BA"/>
<path d="M116.206 113.429C116.206 113.429 115.695 112.082 117.002 110.592C117.002 110.592 115.532 111.326 115.512 113.408L116.206 113.429Z" fill="#1B1C1E"/>
<path d="M113.45 113.367C113.45 113.367 113.368 111.02 115.062 110.347C115.062 110.347 113.858 111.285 113.94 113.387L113.45 113.367Z" fill="#1B1C1E"/>
<path d="M96.2446 70.5307C96.0609 70.3062 95.6936 70.1838 95.4078 70.2246C95.265 70.245 95.1629 70.3266 95.0609 70.4287C94.8364 70.694 94.7344 71.1021 94.7344 71.4287C94.7344 71.5511 94.7344 71.6736 94.7956 71.7756C94.8976 71.9593 95.1425 72.0205 95.3466 72.0613C95.6323 72.1225 95.9385 72.1429 96.1629 71.9797C96.2446 71.9184 96.3058 71.8164 96.3466 71.7144C96.5303 71.3266 96.5099 70.8572 96.2446 70.5307Z" fill="#B66629"/>
<path d="M112.613 91.4492C112.511 91.1634 112.246 90.9798 111.981 90.8369C111.756 91.5716 111.573 92.3063 111.45 93.0818C111.409 93.3879 111.368 93.7145 111.43 94.041C111.511 94.3471 111.715 94.6532 112.022 94.7349C112.695 94.9185 113.348 94.1839 113.266 93.5512C113.226 93.2043 112.94 92.939 112.817 92.6328C112.654 92.2451 112.736 91.8369 112.613 91.4492Z" fill="#B66629"/>
<path d="M100.45 91.2446C100.511 90.2038 101.307 89.265 101.205 88.2446C101.124 87.2855 100.287 86.4283 99.348 86.265C98.9195 86.1834 98.4297 86.2242 98.0827 85.9589C97.9399 85.8569 97.8378 85.714 97.695 85.6528C97.3276 85.4895 96.9195 85.8161 96.695 86.1426C96.4705 86.4895 96.3072 86.9181 96.3684 87.3263C96.4093 87.7344 96.695 88.1426 97.1031 88.2446C97.348 88.3059 97.5929 88.2446 97.8174 88.265C98.0623 88.2855 98.3276 88.4079 98.3888 88.6324C97.9807 89.1018 97.5317 89.6324 97.5317 90.265C97.5317 90.3671 97.5521 90.4691 97.5725 90.5712C98.4705 91.0814 99.4501 91.612 100.47 92.163C100.47 91.8569 100.43 91.5099 100.45 91.2446Z" fill="#B66629"/>
<path d="M106.41 80.4902C106.287 80.5923 106.165 80.7147 106.042 80.8576C105.654 81.3066 104.94 81.7351 104.797 82.3474C104.716 82.6943 104.838 83.0617 105.022 83.3474C105.124 83.5106 105.267 83.6535 105.471 83.7147C105.675 83.7759 105.899 83.6943 106.083 83.5923C106.491 83.3678 106.858 83.0208 107.063 82.6127C107.124 82.4902 107.185 82.3678 107.287 82.2862C107.389 82.2045 107.491 82.1637 107.614 82.1229C107.185 81.5719 106.777 81.0208 106.41 80.4902Z" fill="#B66629"/>
<path d="M109.449 90.4088C109.47 90.5517 109.531 90.6946 109.653 90.7558C109.715 90.7966 109.796 90.7966 109.857 90.7966C110.061 90.7966 110.266 90.6742 110.347 90.5109C110.429 90.3272 110.408 90.1027 110.266 89.9599C110.123 89.817 109.837 89.715 109.653 89.7966C109.572 89.8374 109.51 89.9191 109.47 90.0211C109.449 90.1435 109.449 90.3068 109.449 90.4088Z" fill="#B66629"/>
<path d="M93.1637 84.7762C93.0208 84.4905 92.6739 84.3477 92.3474 84.3477C92.0208 84.3477 91.7147 84.4701 91.4902 84.6946C91.5923 84.8987 91.7964 85.2864 91.7964 85.2864L92.3882 86.3681C92.3882 86.3681 92.6535 86.817 92.7964 87.0211C92.8168 86.9803 92.8576 86.9599 92.878 86.9191C93.2249 86.3885 93.3678 85.7354 93.2657 85.1028C93.2453 84.9803 93.2045 84.8783 93.1637 84.7762Z" fill="#B66629"/>
<path d="M91.6121 68.8982C91.6325 69.6125 92.1632 70.3472 92.8774 70.3268C93.3877 70.3268 93.8366 69.939 94.0407 69.4697C94.2652 69.0207 94.306 68.4901 94.3264 67.9799C94.3468 67.735 94.3468 67.4901 94.2652 67.2452C94.0407 66.5105 93.0611 66.2044 92.4693 66.6942C91.9591 67.1227 91.5917 68.2656 91.6121 68.8982Z" fill="#B66629"/>
<path d="M36.3885 51.7966C36.3681 51.9599 36.3477 52.1028 36.3477 52.266C36.3477 52.8375 36.4293 53.4089 36.715 53.8987C37.0007 54.3681 37.5517 54.7354 38.1028 54.6946C38.7354 54.6538 39.2456 54.1028 39.4905 53.5109C39.715 52.9599 39.613 52.3681 39.817 51.8375C39.8783 51.6538 40.3272 50.8579 40.5517 50.9191C39.6538 50.715 38.7558 50.5109 37.8987 50.3477C37.4293 50.6334 36.6946 50.8987 36.4701 51.4293C36.4293 51.5313 36.4089 51.6538 36.3885 51.7966Z" fill="#B66629"/>
<path d="M39.1226 73.4502C39.7961 73.389 40.3471 73.0829 40.9798 72.6951C41.2655 72.5115 41.6124 72.2666 41.592 71.94C41.592 71.4911 39.4696 71.7972 39.2247 71.7972C38.2247 71.8584 37.6124 71.2666 36.8165 70.7155C36.5716 70.5523 36.2655 70.3686 35.9798 70.4911C35.8573 70.5523 35.7757 70.6543 35.7145 70.7768C35.5308 71.1441 35.6124 71.6339 35.8369 71.9809C36.0614 72.3278 36.4287 72.5931 36.7961 72.7972C37.3063 73.1033 37.8777 73.3278 38.4696 73.4094C38.694 73.4706 38.9185 73.4706 39.1226 73.4502Z" fill="#B66629"/>
<path d="M39.4489 65.6329C39.2857 65.6737 39.1224 65.7758 39.0204 65.8982C38.7347 66.2247 38.6122 66.7554 38.5918 67.1839C38.5918 67.3268 38.5918 67.4901 38.6734 67.6125C38.8163 67.8574 39.1224 67.9186 39.3877 67.9799C39.7347 68.0411 40.1428 68.1023 40.4285 67.8574C40.5306 67.7758 40.6122 67.6329 40.6734 67.5105C40.8775 67.0207 40.8775 66.4288 40.5306 66.0207C40.2857 65.735 39.8163 65.5717 39.4489 65.6329Z" fill="#B66629"/>
<path d="M81.3474 71.2862C81.1841 71.327 81.0208 71.4291 80.9188 71.5515C80.6331 71.8781 80.5106 72.4087 80.4902 72.8373C80.4902 72.9801 80.4902 73.1434 80.5719 73.2658C80.7147 73.5107 81.0208 73.5719 81.2862 73.6332C81.6331 73.6944 82.0413 73.7556 82.327 73.5107C82.429 73.4291 82.5106 73.2862 82.5719 73.1638C82.776 72.674 82.7759 72.0821 82.429 71.674C82.1637 71.3883 81.6943 71.225 81.3474 71.2862Z" fill="#B66629"/>
<path d="M64.9385 65.0616C64.6936 65.1024 64.4895 65.2453 64.3262 65.4289C63.9181 65.8983 63.7548 66.633 63.7344 67.2249C63.7344 67.4289 63.7344 67.6534 63.8364 67.8371C64.0201 68.1841 64.4487 68.2861 64.8364 68.3473C65.3262 68.4289 65.918 68.5106 66.3058 68.1841C66.4487 68.0616 66.5507 67.8779 66.6323 67.6943C66.9385 67.0208 66.9181 66.1636 66.4283 65.5922C66.1017 65.2045 65.4487 64.98 64.9385 65.0616Z" fill="#B66629"/>
<path d="M99.5713 63.2048C99.3264 63.2457 99.1223 63.3885 98.959 63.5722C98.5509 64.0416 98.3876 64.7763 98.3672 65.3681C98.3672 65.5722 98.3672 65.7967 98.4692 65.9804C98.6529 66.3273 99.0815 66.4293 99.4692 66.4906C99.959 66.5722 100.551 66.6538 100.939 66.3273C101.081 66.2048 101.184 66.0212 101.265 65.8375C101.571 65.164 101.551 64.3069 101.061 63.7355C100.735 63.3477 100.081 63.1028 99.5713 63.2048Z" fill="#B66629"/>
<path d="M72.6529 75.7764C72.4897 75.8172 72.3264 75.9193 72.204 76.0417C71.9182 76.3682 71.7958 76.8989 71.7754 77.3274C71.7754 77.4703 71.7754 77.6335 71.857 77.756C71.9999 78.0009 72.306 78.0621 72.5713 78.1233C72.9387 78.1846 73.3468 78.2458 73.6121 78.0009C73.7142 77.9193 73.7958 77.7764 73.857 77.654C74.0815 77.1642 74.0611 76.5519 73.7142 76.1438C73.4897 75.8784 73.0203 75.6948 72.6529 75.7764Z" fill="#B66629"/>
<path d="M32.7151 51.246C32.6335 51.0827 32.4906 50.9807 32.3478 50.899C31.96 50.7154 31.409 50.7358 31.0008 50.8378C30.858 50.8786 30.7151 50.9195 30.6131 51.0215C30.409 51.2256 30.4294 51.5317 30.4498 51.797C30.4906 52.1644 30.5518 52.5725 30.8376 52.7562C30.96 52.8378 31.1029 52.8786 31.2253 52.899C31.7559 52.9807 32.3274 52.797 32.6131 52.348C32.858 52.0623 32.8988 51.5725 32.7151 51.246Z" fill="#B66629"/>
<path d="M85.1646 65.9392C86.0014 66.429 87.1646 66.2453 87.8585 65.5718C88.1646 65.2657 88.4095 64.8575 88.8381 64.7147C89.0014 64.6739 89.1646 64.6535 89.3279 64.5718C89.6748 64.3677 89.6544 63.8371 89.4912 63.4698C89.3279 63.082 89.083 62.7147 88.7157 62.5106C88.3483 62.3065 87.8585 62.3065 87.532 62.5718C87.3483 62.7351 87.2463 62.9596 87.083 63.1433C86.9197 63.3269 86.6748 63.4698 86.4504 63.3882C86.3075 62.7759 86.1442 62.1024 85.634 61.7351C85.4299 61.5922 85.1851 61.5106 84.9402 61.4494C84.2055 61.2657 82.2871 61.1024 81.9606 62.1024C81.7157 62.8167 82.6953 63.2045 83.1646 63.5718C83.981 64.2453 84.2871 65.429 85.1646 65.9392Z" fill="#B66629"/>
<path d="M55.7556 55.633C56.6127 55.2044 57.3474 54.4289 57.4699 53.4901C56.327 53.5105 55.1433 53.5105 53.8984 53.4697C54.0005 54.0616 54.3882 55.0207 54.5311 55.3269C54.5923 55.4697 54.6739 55.6126 54.7964 55.6942C55.0821 55.8983 55.4699 55.7963 55.7556 55.633Z" fill="#B66629"/>
<path d="M95.2249 53.776C95.4902 53.5923 95.6738 53.3066 95.7759 53.0005C94.0616 52.1638 92.1024 51.5107 89.98 51.1025C89.7351 51.3474 89.5514 51.6332 89.5106 51.9801C89.4494 52.6944 90.0004 53.327 90.2249 54.0209C90.3677 54.4291 90.3677 54.8985 90.6126 55.2658C90.98 55.878 91.9391 56.0005 92.4698 55.5311C92.7963 55.2454 92.9596 54.7964 93.2861 54.5311C93.8167 54.0821 94.6534 54.1842 95.2249 53.776Z" fill="#B66629"/>
<path d="M61.0416 71.2048C60.409 71.0823 60.1029 71.4089 59.7355 71.817C59.3478 72.266 58.6335 72.6946 58.4906 73.3068C58.409 73.6538 58.5314 74.0211 58.7151 74.3068C58.8171 74.4701 58.96 74.6129 59.1641 74.6742C59.3682 74.7354 59.5927 74.6538 59.7763 74.5517C60.1845 74.3272 60.5518 73.9803 60.7559 73.5721C60.8171 73.4497 60.8784 73.3272 60.9804 73.2456C61.1029 73.1436 61.2661 73.1027 61.4294 73.0415C61.7967 72.8578 62.0008 72.4089 61.8988 72.0211C61.7967 71.5925 61.4498 71.2864 61.0416 71.2048Z" fill="#B66629"/>
<path d="M45.9594 60.1437C46.2655 60.1641 46.5104 59.9192 46.7757 59.7764C47.5308 59.3478 48.4696 59.5723 49.3063 59.307C49.5512 59.2254 49.7961 59.1029 49.9186 58.8784C50.0002 58.7356 50.0002 58.5519 50.0002 58.3886C50.0002 57.7968 49.7553 57.1437 49.2451 56.8376C48.4696 56.3682 47.2247 56.7356 46.3879 56.8784C45.6328 57.0009 44.6737 57.4703 44.6533 58.3478C44.6328 58.8376 44.9594 59.2662 45.2655 59.6539C45.4492 59.8784 45.6737 60.1233 45.9594 60.1437Z" fill="#B66629"/>
<path d="M59.817 80.0619C60.0007 79.8986 60.0211 79.6333 60.0823 79.4088C60.2864 78.7557 60.9599 78.3476 61.2864 77.7557C61.3884 77.5721 61.4497 77.368 61.4088 77.1639C61.368 77.0415 61.2864 76.9394 61.1844 76.8374C60.8578 76.4904 60.368 76.2455 59.8986 76.3476C59.1844 76.5108 58.6742 77.3884 58.2456 77.9394C57.8782 78.4292 57.5721 79.2251 58.0415 79.7557C58.3068 80.0415 58.715 80.1231 59.1027 80.1639C59.368 80.2047 59.6333 80.2251 59.817 80.0619Z" fill="#B66629"/>
<path d="M79.1836 78.7146C78.4081 78.2452 77.1632 78.6125 76.3265 78.7554C75.5714 78.8778 74.6122 79.3472 74.5918 80.2248C74.5918 80.5717 74.7551 80.8982 74.9591 81.1839C76.6326 80.9186 78.3061 80.5921 79.9591 80.1635C79.8775 79.5921 79.653 79.0003 79.1836 78.7146Z" fill="#B66629"/>
<path d="M46.5308 94.0414C45.5512 93.817 43.9593 94.2047 43.4287 94.8782C43.1838 95.1639 43.0818 95.5721 43.2042 95.919C43.3063 96.2659 43.6124 96.5312 43.9593 96.6537C44.0614 96.6945 44.1634 96.7149 44.2655 96.7557C44.8573 96.8986 45.5512 96.8374 46.1022 96.6741C46.245 96.6333 46.4491 96.5721 46.6328 96.5108C46.592 95.6741 46.5716 94.8578 46.5308 94.0414Z" fill="#B66629"/>
<path d="M54.5316 62.8577C54.5111 63.2454 54.5111 63.674 54.756 63.9801C54.9397 64.225 55.2663 64.3679 55.5724 64.3475C55.8785 64.3271 56.1846 64.1638 56.3683 63.9189C56.6132 63.6128 56.7356 63.1638 57.0826 62.9801C57.3275 62.8577 57.6336 62.8781 57.8785 62.7556C58.3071 62.5311 58.3683 61.9597 58.3275 61.4903C58.3071 61.1026 58.2254 60.6944 58.0009 60.3883C57.8377 60.1638 57.5928 60.0005 57.3275 59.8781C55.4703 59.0209 54.5928 61.4291 54.5316 62.8577Z" fill="#B66629"/>
<path d="M94.8165 81.0826C94.7961 81.5112 94.7961 82.0009 95.0614 82.3479C95.2655 82.6336 95.6328 82.7765 95.9798 82.756C96.3267 82.7356 96.6532 82.552 96.8777 82.2867C97.1634 81.9397 97.2859 81.4499 97.694 81.2458C97.9798 81.103 98.3267 81.1438 98.592 80.9805C99.0614 80.7356 99.143 80.103 99.1022 79.552C99.0614 79.1234 99.0002 78.654 98.7349 78.3071C98.5512 78.0622 98.2655 77.8785 97.9798 77.7356C95.8777 76.7969 94.8981 79.5112 94.8165 81.0826Z" fill="#B66629"/>
<path d="M80.7559 67.6534C80.7559 67.8575 80.7559 68.1024 80.8783 68.2656C81.0824 68.5717 81.5722 68.5717 81.8579 68.3472C82.1436 68.1024 82.2457 67.7146 82.2457 67.3472C82.2252 66.8779 81.9599 66.2044 81.3885 66.2656C80.7763 66.3268 80.7763 67.184 80.7559 67.6534Z" fill="#B66629"/>
<path d="M67.4492 76.4493C67.4492 76.6534 67.4492 76.8982 67.5717 77.0615C67.7758 77.3676 68.2655 77.3676 68.5513 77.1431C68.837 76.8982 68.939 76.5105 68.939 76.1431C68.9186 75.6738 68.6533 75.0003 68.0819 75.0615C67.4492 75.1227 67.4492 75.9799 67.4492 76.4493Z" fill="#B66629"/>
<path d="M70.0625 61.1231C70.0625 61.3272 70.0625 61.5721 70.185 61.7353C70.389 62.0415 70.8788 62.0415 71.1645 61.817C71.4503 61.5721 71.5523 61.1843 71.5523 60.817C71.5319 60.3476 71.2666 59.6741 70.6952 59.7353C70.0625 59.817 70.0625 60.6537 70.0625 61.1231Z" fill="#B66629"/>
<path d="M62.6336 80.3473C62.7357 80.3473 62.8377 80.3269 62.9194 80.2657C63.0622 80.1637 63.0418 79.9392 62.9194 79.7963C62.7969 79.6739 62.6132 79.633 62.45 79.6534C62.2255 79.6739 61.9194 79.8167 61.9806 80.082C62.001 80.3881 62.4092 80.3677 62.6336 80.3473Z" fill="#B66629"/>
<path d="M93.8778 76.0417C93.9798 76.0417 94.0819 76.0213 94.1635 75.96C94.3064 75.858 94.286 75.6335 94.1635 75.4906C94.0411 75.3682 93.8574 75.3274 93.6941 75.3478C93.4696 75.3682 93.1635 75.5111 93.2247 75.7764C93.2655 76.0825 93.6533 76.0621 93.8778 76.0417Z" fill="#B66629"/>
<path d="M84.1649 76.3678C84.2669 76.3678 84.369 76.3474 84.4506 76.2862C84.5935 76.1842 84.5731 75.9597 84.4506 75.8168C84.3282 75.6944 84.1445 75.6535 83.9812 75.674C83.7567 75.6944 83.4506 75.8372 83.5118 76.1025C83.5527 76.4086 83.9404 76.3678 84.1649 76.3678Z" fill="#B66629"/>
<path d="M46.3887 71.3067C46.3887 71.5108 46.3887 71.7557 46.5111 71.9189C46.7152 72.2251 47.205 72.2251 47.4907 72.0006C47.7764 71.7557 47.8785 71.3679 47.8785 71.0006C47.8581 70.5312 47.5928 69.8577 47.0213 69.9189C46.3887 69.9802 46.3887 70.8373 46.3887 71.3067Z" fill="#B66629"/>
<path d="M47.5308 81.5514C47.5104 81.082 47.2451 80.4085 46.6737 80.4697C46.041 80.5309 46.041 81.3881 46.041 81.8575C46.041 81.8779 46.041 81.8983 46.041 81.9187C46.5104 81.9595 47.0002 81.9799 47.4696 82.0207C47.5104 81.8575 47.5308 81.6942 47.5308 81.5514Z" fill="#B66629"/>
<path d="M78.531 51.6132C78.8983 51.7561 79.2861 51.9193 79.6942 51.9601C80.1024 52.001 80.531 51.9193 80.8371 51.6744C81.082 51.4703 81.2248 51.1234 81.184 50.7969C79.9595 50.9397 78.7963 51.0826 77.6738 51.2254C77.98 51.4091 78.3473 51.552 78.531 51.6132Z" fill="#B66629"/>
<path d="M65.4702 72.0216C65.1233 72.1849 65.1845 72.7155 65.2049 73.0421C65.2049 73.1441 65.2253 73.2461 65.2661 73.3278C65.3682 73.5114 65.6131 73.5727 65.8376 73.5523C66.0825 73.5318 66.3274 73.4502 66.5519 73.3482C66.6947 73.2869 66.8172 73.2053 66.9192 73.1033C67.0212 73.0012 67.1029 72.8584 67.1029 72.6951C67.1029 72.4502 66.8988 72.2665 66.6947 72.1441C66.3274 71.94 65.8376 71.838 65.4702 72.0216Z" fill="#B66629"/>
<path d="M89.3277 72.2863C88.9807 72.4496 89.0419 72.9802 89.0623 73.3067C89.0623 73.4087 89.0828 73.5108 89.1236 73.5924C89.2256 73.7761 89.4705 73.8373 89.695 73.8169C89.9399 73.7965 90.1848 73.7149 90.4093 73.6128C90.5521 73.5516 90.6746 73.47 90.7766 73.3679C90.8787 73.2659 90.9603 73.123 90.9603 72.9598C90.9603 72.7149 90.7562 72.5312 90.5521 72.4087C90.1848 72.2047 89.7154 72.1026 89.3277 72.2863Z" fill="#B66629"/>
<path d="M43.1851 86.2459C42.8381 86.4091 42.8994 86.9397 42.9198 87.2663C42.9198 87.3683 42.9402 87.4704 42.981 87.552C43.083 87.7357 43.3279 87.7969 43.5524 87.7765C43.7973 87.7561 44.0422 87.6744 44.2667 87.5724C44.4096 87.5112 44.532 87.4295 44.634 87.3275C44.7361 87.2255 44.8177 87.0826 44.8177 86.9193C44.8177 86.6744 44.6136 86.4908 44.4096 86.3683C44.0422 86.1846 43.5728 86.0826 43.1851 86.2459Z" fill="#B66629"/>
<path d="M75.8585 57.8983C75.7156 57.98 75.6136 58.1024 75.5728 58.2453C75.5116 58.429 75.4912 58.6534 75.5116 58.8371C75.532 59.0616 75.6544 59.2861 75.8381 59.4085C75.9401 59.4698 76.0626 59.4902 76.1646 59.4902C76.4912 59.4902 76.7973 59.3065 76.9401 59.0208C77.083 58.7351 77.0422 58.3677 76.8177 58.1432C76.6136 57.9188 76.1442 57.7351 75.8585 57.8983Z" fill="#B66629"/>
<path d="M63.2872 59.8984C62.5729 59.8984 62.0015 60.5107 61.9199 61.2046C61.8586 61.7964 62.0831 62.776 62.7158 62.9597C62.9811 63.0413 63.2668 62.9801 63.4913 62.8168C63.6137 62.7148 63.7158 62.5923 63.8178 62.4699C64.1648 61.9393 64.3076 61.2862 64.2056 60.6535C64.1852 60.5515 64.1648 60.429 64.1035 60.3474C63.9607 60.0413 63.6137 59.8984 63.2872 59.8984Z" fill="#B66629"/>
<path d="M42.5918 101.776C42.3673 101.347 41.8367 101.184 41.4081 101.347C41.0408 101.49 40.5306 101.919 40.6122 102.347C40.653 102.531 40.7551 102.674 40.9183 102.756C41.0204 102.796 41.1224 102.837 41.2245 102.837C41.653 102.878 42.0816 102.776 42.4285 102.511C42.4898 102.47 42.551 102.409 42.5918 102.368C42.7143 102.205 42.6939 101.96 42.5918 101.776Z" fill="#B66629"/>
<path d="M36.51 87.1846C37.0407 87.1846 37.5917 86.9397 37.959 86.5315C38.4896 85.9601 38.9794 84.7356 38.4488 84.0418C38.2243 83.756 37.8774 83.5928 37.5305 83.5928C37.3264 83.5928 37.1019 83.654 36.9182 83.7152C36.306 83.9601 35.7549 84.3887 35.3672 84.9193C35.9182 85.9397 36.3468 86.7356 36.51 87.1846Z" fill="#B66629"/>
<path d="M74.0216 70.5723C73.3073 70.5723 72.7359 71.1845 72.6542 71.8784C72.593 72.4702 72.8175 73.4498 73.4501 73.6335C73.7154 73.7151 74.0012 73.6539 74.2257 73.4906C74.3481 73.3886 74.4501 73.2661 74.5522 73.1437C74.8991 72.6131 75.042 71.96 74.9399 71.3274C74.9195 71.2253 74.8991 71.1029 74.8379 71.0212C74.6746 70.7151 74.3481 70.5723 74.0216 70.5723Z" fill="#B66629"/>
<path d="M68.5715 53.2453C69.2042 53.4493 69.8573 53.5718 70.5103 53.6534C71.1634 53.7146 71.8777 53.7555 72.3471 54.2248C72.4287 54.3065 72.5103 54.4289 72.6328 54.4697C72.7756 54.5514 72.9593 54.5106 73.1022 54.4493C73.6328 54.2248 73.9389 53.6534 74.143 53.1228C74.3266 52.6534 74.4695 52.1432 74.3675 51.6738C71.796 52.0412 69.4695 52.3881 67.2246 52.6942C67.5307 53.0004 68.2246 53.1432 68.5715 53.2453Z" fill="#B66629"/>
<path d="M47.2856 63.756C46.8979 63.8989 46.5305 64.2254 46.4489 64.6335C46.4285 64.7356 46.4285 64.858 46.3877 64.9601C46.2652 65.2458 45.9183 65.3478 45.7142 65.5723C45.3469 65.9601 45.5509 66.6336 45.9387 67.0009C46.5509 67.5927 47.4693 67.7356 48.306 67.7356C49.4081 67.7356 50.5305 67.5111 51.5509 67.1029C51.9795 66.9397 52.4693 66.5927 52.3673 66.1438C52.306 65.8784 52.0407 65.7152 51.7754 65.6131C51.5101 65.5315 51.2244 65.4907 50.9999 65.3274C50.7754 65.1642 50.5918 64.858 50.7346 64.6131C50.7754 64.5315 50.8571 64.4499 50.8979 64.3682C50.9795 64.1846 50.8775 63.9805 50.7142 63.858C50.5509 63.756 50.3469 63.7152 50.1632 63.6948C49.204 63.5927 48.2244 63.4295 47.2856 63.756Z" fill="#B66629"/>
<path d="M36.5931 58.552C36.2054 58.8173 35.9809 59.3071 36.0013 59.756C36.0013 59.8989 36.0421 60.0622 36.1237 60.1846C36.2666 60.4091 36.5115 60.5315 36.7564 60.6132C37.2258 60.7764 37.736 60.8785 38.185 60.7152C38.6339 60.552 39.0421 60.103 38.9809 59.6336C38.8992 58.5928 37.4094 57.9601 36.5931 58.552Z" fill="#B66629"/>
<path d="M113.429 98.8986C113.041 99.1639 112.817 99.6537 112.837 100.103C112.837 100.246 112.878 100.409 112.96 100.531C113.103 100.756 113.347 100.878 113.592 100.96C114.062 101.123 114.572 101.225 115.021 101.062C115.49 100.919 115.878 100.45 115.817 99.9803C115.735 98.9394 114.245 98.3068 113.429 98.8986Z" fill="#B66629"/>
<path d="M26.021 66.1032C25.6129 65.9399 25.2659 65.695 25.021 65.3073C24.8782 65.0828 24.7557 64.8379 24.8169 64.5726C24.8374 64.4501 24.8986 64.3277 24.9802 64.2256C25.3271 63.7767 25.9598 63.6134 26.5108 63.695C27.0822 63.7767 27.5925 64.042 28.0822 64.3073C28.47 64.5114 28.8782 64.7358 29.3067 64.8379C29.6741 64.9195 30.1843 64.8583 30.2251 65.3685C30.2863 65.8583 29.7353 65.9195 29.3476 66.0216C28.3884 66.3073 27.0414 66.5114 26.021 66.1032Z" fill="#B66629"/>
<path d="M99.6945 74.7351C100.715 75.1433 102.062 74.9392 103.041 74.6739C103.205 74.6331 103.388 74.5923 103.552 74.531C103.531 74.2249 103.511 73.8984 103.49 73.5923C103.327 73.5515 103.123 73.531 102.96 73.4902C102.531 73.3882 102.123 73.1637 101.735 72.9596C101.225 72.6943 100.715 72.429 100.164 72.3474C99.5925 72.2657 98.9802 72.429 98.6333 72.878C98.5516 72.98 98.4904 73.1025 98.47 73.2249C98.4292 73.4902 98.5312 73.7351 98.6741 73.9596C98.9394 74.327 99.2863 74.5719 99.6945 74.7351Z" fill="#B66629"/>
<path d="M27.0005 70.6131C26.9393 70.7764 26.8984 70.9397 26.8984 71.1029C26.9188 71.4295 27.1637 71.7152 27.4699 71.8784C27.776 72.0213 28.1025 72.0825 28.429 72.1029C28.5515 72.1233 28.6739 72.1233 28.776 72.0825C28.878 72.0417 28.9597 71.9601 29.0413 71.858C29.3474 71.4499 29.4086 70.858 29.1637 70.3886C28.9597 69.9805 28.5923 69.3682 28.0617 69.4703C27.5719 69.5723 27.1637 70.1846 27.0005 70.6131Z" fill="#B66629"/>
<path d="M80.8575 56.3881C81.0003 56.8167 81.5105 56.98 81.9391 57.0616C82.6738 57.1841 83.4493 57.2045 84.1636 56.9596C85.5717 56.4902 84.286 54.7963 83.3677 54.5718C82.4901 54.3881 80.4697 55.2861 80.8575 56.3881Z" fill="#B66629"/>
<path d="M70.388 65.6744C70.2247 65.9397 70.0818 66.2663 70.2247 66.552C70.3675 66.8785 70.7961 66.9806 71.1431 67.001C71.6124 67.0418 72.1022 67.001 72.5716 66.9193C72.9798 66.8377 73.4084 66.7152 73.7349 66.4295C74.6124 65.6744 73.939 64.5316 73.0002 64.2254C72.0002 63.9193 70.8982 64.8989 70.388 65.6744Z" fill="#B66629"/>
<path d="M92.8371 60.3474C92.7146 60.3882 92.6126 60.429 92.5105 60.5106C92.4289 60.5923 92.3677 60.6739 92.3268 60.7759C92.286 60.8372 92.2656 60.9188 92.2656 60.98C92.286 61.1433 92.4901 61.2045 92.633 61.2249C92.8983 61.2657 93.1636 61.3066 93.4493 61.2861C93.8371 61.2657 94.2248 61.1025 94.5105 60.8372C94.7962 60.5719 94.5922 60.1841 94.2656 60.0821C93.8779 59.9596 93.2248 60.2045 92.8371 60.3474Z" fill="#B66629"/>
<path d="M104.552 90.3677C104.429 90.4085 104.327 90.4493 104.225 90.531C104.144 90.6126 104.083 90.6942 104.042 90.7963C104.001 90.8575 103.98 90.9391 103.98 91.0004C104.001 91.1636 104.205 91.2249 104.348 91.2453C104.613 91.2861 104.878 91.3269 105.164 91.3065C105.552 91.2861 105.94 91.1228 106.225 90.8575C106.511 90.5922 106.307 90.2044 105.98 90.1024C105.593 90.0004 104.94 90.2453 104.552 90.3677Z" fill="#B66629"/>
<path d="M101.123 57.3271C100.837 56.8986 100.49 56.5108 100.144 56.123C99.7966 56.3271 99.5517 56.7149 99.4905 57.0822C99.3884 57.6333 99.5721 58.2047 99.715 58.7353C99.8578 59.2863 99.9599 59.8781 99.7558 60.3884C99.6946 60.5108 99.6538 60.6741 99.7558 60.7557C99.7762 60.7761 99.817 60.7761 99.8578 60.7965C100.531 60.9802 101.246 61.021 101.939 60.9394C102.062 60.919 102.184 60.8986 102.307 60.8781C102.593 60.1026 102.307 59.0414 101.123 57.3271Z" fill="#B66629"/>
<path d="M65.532 56.388C65.3483 56.4696 65.2054 56.6125 65.1442 56.7962C65.1238 56.8778 65.1238 56.9798 65.1442 57.0615C65.2463 57.5513 65.7156 58.2043 66.2667 58.2451C66.4707 58.2656 66.6544 58.1839 66.8381 58.1227C67.3891 57.8778 68.4707 57.0819 67.6136 56.4492C67.4299 56.3268 67.2054 56.2655 66.9809 56.2451C66.4707 56.2247 65.9809 56.1839 65.532 56.388Z" fill="#B66629"/>
<path d="M57.1838 67.1845C57.041 67.2457 56.9389 67.3478 56.8981 67.4906C56.8777 67.5519 56.8777 67.6335 56.8981 67.6947C56.9798 68.0621 57.3267 68.5519 57.7349 68.5927C57.8777 68.6131 58.0206 68.5519 58.1634 68.4906C58.592 68.307 59.4083 67.6947 58.7553 67.2253C58.6124 67.1233 58.4491 67.0825 58.2859 67.0825C57.8981 67.0417 57.5104 67.0212 57.1838 67.1845Z" fill="#B66629"/>
<path d="M65.7557 80.8169C65.7353 81.0618 65.7966 81.2862 65.9598 81.4495C66.0415 81.5311 66.1231 81.572 66.2251 81.6128C66.7761 81.7964 67.7149 81.674 68.0415 81.1638C68.1639 80.9801 68.2047 80.7556 68.2251 80.5311C68.3068 79.8373 68.1027 78.2862 66.9802 78.7964C66.7353 78.8985 66.5721 79.1026 66.4292 79.3271C66.1231 79.7556 65.7966 80.2454 65.7557 80.8169Z" fill="#B66629"/>
<path d="M77.1849 63.4906C77.0625 63.5518 76.9604 63.6335 76.9196 63.7559C76.8992 63.8171 76.8992 63.8784 76.9196 63.9396C76.9808 64.2661 77.3074 64.6947 77.6543 64.7355C77.7767 64.7355 77.9196 64.6947 78.0216 64.6539C78.389 64.4906 79.1033 63.96 78.5523 63.5518C78.4298 63.4702 78.2869 63.4294 78.1237 63.409C77.8176 63.3682 77.4706 63.3477 77.1849 63.4906Z" fill="#B66629"/>
<path d="M52.8568 80.0004C52.7343 80.0616 52.6323 80.1432 52.5915 80.2657C52.5711 80.3269 52.5711 80.3881 52.5915 80.4493C52.6527 80.7759 52.9792 81.2045 53.3262 81.2453C53.4486 81.2453 53.5915 81.2045 53.6935 81.1636C54.0609 81.0004 54.7752 80.4698 54.2241 80.0616C54.1017 79.98 53.9588 79.9391 53.7956 79.9187C53.4894 79.8779 53.1629 79.8575 52.8568 80.0004Z" fill="#B66629"/>
<path d="M51.5506 75.1229C51.5302 74.878 51.469 74.6331 51.367 74.3882C51.2853 74.1841 51.1221 73.98 50.918 73.878C50.7139 73.7759 50.4486 73.7963 50.2241 73.8372C49.3874 73.98 48.1017 74.6739 47.9384 75.6127C47.918 75.7759 47.918 75.9392 48.02 76.0616C48.1221 76.1637 48.2649 76.2045 48.3874 76.2657C48.6527 76.429 48.7751 76.7759 48.7955 77.082C48.8364 77.4086 48.7955 77.7351 48.8976 78.0208C48.9996 78.3269 49.2649 78.6127 49.5915 78.5718C49.7955 78.5514 49.9384 78.429 50.0813 78.2861C50.9384 77.4698 51.6527 76.3065 51.5506 75.1229Z" fill="#B66629"/>
<path d="M90.5917 87.1024C90.5712 86.8575 90.51 86.6126 90.408 86.3677C90.3264 86.1636 90.1631 85.9595 89.959 85.8575C89.7549 85.7554 89.4896 85.7758 89.2651 85.8166C88.4284 85.9595 87.1427 86.6534 86.9794 87.5922C86.959 87.7554 86.959 87.9187 87.061 88.0411C87.1631 88.1432 87.3059 88.184 87.4284 88.2452C87.6937 88.4085 87.8161 88.7554 87.8366 89.0615C87.8774 89.3881 87.8366 89.7146 87.9386 90.0003C88.0406 90.3064 88.3059 90.5922 88.6325 90.5513C88.8366 90.5309 88.9794 90.4085 89.1223 90.2656C89.9794 89.4289 90.6937 88.2656 90.5917 87.1024Z" fill="#B66629"/>
<path d="M21.9804 50.3068C21.9396 50.3272 21.8784 50.3272 21.8376 50.3272C21.5518 50.2864 21.3069 49.7149 21.6947 49.6741C21.9804 49.6333 22.2661 50.1639 21.9804 50.3068Z" fill="#B66629"/>
<path d="M22.0419 48.8375C21.9807 48.8579 21.9195 48.8579 21.8583 48.8579C21.4705 48.7967 21.1644 48.062 21.6746 48.0008C22.0623 47.9396 22.4297 48.6538 22.0419 48.8375Z" fill="#B66629"/>
<path d="M22.2461 47.2858C22.1644 47.3267 22.0828 47.3267 22.0012 47.3063C21.491 47.2246 21.0828 46.245 21.7767 46.1634C22.2665 46.1226 22.7563 47.0614 22.2461 47.2858Z" fill="#B66629"/>
<path d="M18.5924 50.3268C18.6332 50.3268 18.6944 50.3268 18.7352 50.3063C19.0005 50.1839 19.1026 49.5921 18.7148 49.6329C18.4087 49.6737 18.2658 50.2655 18.5924 50.3268Z" fill="#B66629"/>
<path d="M18.1645 48.919C18.2258 48.9394 18.287 48.919 18.3482 48.8986C18.6951 48.7353 18.8176 47.9598 18.3074 48.021C17.9196 48.0618 17.736 48.8373 18.1645 48.919Z" fill="#B66629"/>
<path d="M17.5918 47.4694C17.6734 47.4898 17.7551 47.4694 17.8367 47.4286C18.3061 47.2245 18.4694 46.1837 17.7755 46.2653C17.2857 46.3469 17.0408 47.3673 17.5918 47.4694Z" fill="#B66629"/>
<path d="M20.0211 46.1641C20.0007 45.8784 19.9803 45.5723 19.9191 45.2866C19.8579 44.8172 19.7558 44.3478 19.613 43.8988C19.5926 43.858 19.5721 43.7968 19.5517 43.7764C19.5109 43.7355 19.4701 43.7151 19.4293 43.7355C19.3885 43.756 19.3477 43.7968 19.3477 43.8376C19.3477 43.8784 19.3477 43.9396 19.3681 43.9804C19.5109 44.6947 19.6538 45.4294 19.6946 46.1641C19.715 46.3682 19.715 46.5519 19.7966 46.7355C19.817 46.7968 19.8579 46.858 19.9191 46.858C19.9599 46.858 20.0007 46.8172 20.0211 46.7764C20.0415 46.7355 20.0415 46.6947 20.0415 46.6539C20.0211 46.5111 20.0211 46.3478 20.0211 46.1641Z" fill="#B66629"/>
<path d="M20.1426 48.6123C20.1426 48.6736 20.1426 48.7348 20.1222 48.7756C20.1018 48.8368 20.061 48.8572 20.0202 48.8368C19.9998 48.8368 19.9794 48.796 19.9794 48.7756C19.9182 48.6532 19.8773 48.4899 19.8569 48.3266C19.8365 48.1225 19.7957 47.8981 19.8161 47.6736C19.8161 47.6328 19.8161 47.5919 19.8365 47.5511C19.9181 47.3674 20.0406 47.694 20.061 47.796C20.1222 48.0613 20.1222 48.347 20.1426 48.6123Z" fill="#B66629"/>
<path d="M23.8992 45.1228C23.9604 45.2452 24.0012 45.3881 23.94 45.4901C23.8787 45.6126 23.7155 45.6534 23.5726 45.6534C23.2461 45.6534 22.9196 45.4901 22.6338 45.3065C22.5114 45.2248 22.389 45.1432 22.3073 45.0208C22.2257 44.8983 22.2257 44.7146 22.3073 44.6126C22.389 44.531 22.5114 44.5106 22.6338 44.4901C23.1849 44.4697 23.6543 44.6126 23.8992 45.1228Z" fill="#B66629"/>
<path d="M21.9595 42.8368C22.0207 43.0205 22.0003 43.2042 21.9391 43.3879C21.8778 43.5715 21.7758 43.7144 21.6533 43.8777C21.5921 43.9593 21.5513 44.0409 21.4901 44.1226C21.4084 44.245 21.3064 44.3675 21.1635 44.4083C20.9799 44.4695 20.7758 44.3266 20.6533 44.1838C20.4697 43.9593 20.3472 43.694 20.3268 43.4083C20.3064 43.3062 20.3268 43.2042 20.3472 43.1021C20.4289 42.8777 20.6533 42.7348 20.8982 42.6532C21.286 42.5103 21.7758 42.3879 21.9595 42.8368Z" fill="#B66629"/>
<path d="M14.9813 45.2244C14.92 45.3468 14.8792 45.4897 14.9404 45.5917C15.0017 45.7142 15.1649 45.755 15.3078 45.755C15.6343 45.755 15.9609 45.5917 16.2466 45.408C16.369 45.3264 16.4915 45.2448 16.5731 45.1223C16.6547 44.9999 16.6547 44.8162 16.5731 44.7142C16.4915 44.6325 16.369 44.6121 16.2466 44.5917C15.716 44.5713 15.2466 44.7142 14.9813 45.2244Z" fill="#B66629"/>
<path d="M16.9198 42.9392C16.8586 43.1229 16.879 43.3066 16.9402 43.4902C17.0014 43.6739 17.1035 43.8168 17.2259 43.98C17.2871 44.0617 17.3279 44.1433 17.3892 44.2249C17.4708 44.3474 17.5728 44.4698 17.7157 44.5106C17.8994 44.5719 18.1035 44.429 18.2259 44.2862C18.4096 44.0617 18.532 43.7964 18.5524 43.5106C18.5728 43.4086 18.5524 43.3066 18.532 43.2045C18.4504 42.98 18.2259 42.8372 17.981 42.7555C17.6137 42.6331 17.1035 42.4902 16.9198 42.9392Z" fill="#B66629"/>
<path d="M18.0617 53.368C18.0821 53.4292 18.0821 53.5108 18.0617 53.5721C18.0005 53.7149 17.7964 53.7149 17.6536 53.6741C17.4291 53.5925 17.2862 53.3272 17.2454 53.1027C17.2454 53.0415 17.225 52.9802 17.2454 52.919C17.2658 52.8578 17.3066 52.817 17.3678 52.7966C17.4291 52.7761 17.4699 52.7761 17.5311 52.7966C17.8168 52.8578 18.0005 53.0619 18.0617 53.368Z" fill="#B66629"/>
<path d="M16.8175 54.7558C16.7767 54.7558 16.7154 54.7558 16.6746 54.7354C16.5726 54.6742 16.5726 54.5313 16.6134 54.4293C16.695 54.266 16.8787 54.164 17.0624 54.1436C17.1032 54.1436 17.144 54.1436 17.2052 54.164C17.246 54.1844 17.2869 54.2048 17.3073 54.266C17.3277 54.3068 17.3073 54.3476 17.2869 54.3885C17.2052 54.5925 17.042 54.715 16.8175 54.7558Z" fill="#B66629"/>
<path d="M23.2868 53.5721C23.2664 53.6333 23.2664 53.7149 23.2868 53.7762C23.348 53.919 23.5521 53.919 23.695 53.8782C23.9194 53.7966 24.0623 53.5313 24.1031 53.3068C24.1031 53.2456 24.1235 53.1843 24.1031 53.1231C24.0827 53.0619 24.0419 53.0211 23.9807 53.0007C23.9194 52.9802 23.8786 52.9802 23.8174 53.0007C23.5317 53.0619 23.348 53.266 23.2868 53.5721Z" fill="#B66629"/>
<path d="M25.0002 55.4492C25.041 55.4492 25.1022 55.4492 25.1431 55.4288C25.2451 55.3675 25.2451 55.2247 25.2043 55.1226C25.1227 54.9594 24.939 54.8573 24.7553 54.8369C24.7145 54.8369 24.6737 54.8369 24.6124 54.8573C24.5716 54.8777 24.5308 54.8981 24.5104 54.9594C24.49 55.0002 24.5104 55.041 24.5308 55.0818C24.6124 55.2859 24.7757 55.4083 25.0002 55.4492Z" fill="#B66629"/>
<path d="M15.123 53.4697C15.0414 53.4289 14.9598 53.3676 14.9189 53.286C14.8781 53.184 14.9598 53.0615 15.0618 53.0003C15.1638 52.9391 15.2863 52.9391 15.4087 52.9595C15.5108 52.9595 15.6332 52.9799 15.7353 53.0207C15.9189 53.1023 16.0822 53.3676 15.8781 53.5309C15.6944 53.6738 15.2863 53.5513 15.123 53.4697Z" fill="#B66629"/>
<path d="M15.3269 54.898C15.4086 54.898 15.4698 54.9184 15.531 54.9593C15.633 55.0409 15.633 55.1837 15.6126 55.3062C15.5514 55.5307 15.4086 55.7144 15.2045 55.8164C15.0004 55.9184 14.7555 55.9184 14.5514 55.8164C13.7555 55.4082 14.9188 54.8776 15.3269 54.898Z" fill="#B66629"/>
<path d="M13.8368 53.6331C13.898 53.6944 13.898 53.7964 13.8572 53.878C13.8572 53.8984 13.8368 53.9189 13.8164 53.9393C13.7755 53.9801 13.6939 54.0005 13.6327 54.0209C13.5919 54.0209 13.5511 54.0209 13.5102 54.0209C13.4082 53.9801 13.347 53.878 13.3878 53.776C13.4286 53.5719 13.6939 53.5107 13.8368 53.6331Z" fill="#B66629"/>
<path d="M25.9998 53.3064C26.0814 53.2656 26.163 53.184 26.163 53.1023C26.1834 52.9799 26.0814 52.8779 25.9794 52.837C25.8773 52.7962 25.7549 52.8166 25.6324 52.837C25.5304 52.8575 25.4079 52.8779 25.3263 52.9391C25.163 53.0411 25.0406 53.3472 25.2651 53.4697C25.4692 53.5921 25.8365 53.4085 25.9998 53.3064Z" fill="#B66629"/>
<path d="M26.5728 54.7559C26.7565 54.7151 27.083 54.7559 27.3483 54.8579C27.1851 55.1436 27.0218 55.3885 26.8585 55.6334C26.634 55.5722 26.4504 55.4089 26.3483 55.2049C26.2871 55.0824 26.2871 54.9395 26.3687 54.8579C26.43 54.7967 26.5116 54.7763 26.5728 54.7559Z" fill="#B66629"/>
<path d="M27.1222 53.3066C27.0814 53.3679 27.0814 53.4699 27.1426 53.5515C27.163 53.5719 27.163 53.5924 27.1834 53.6128C27.2446 53.6536 27.3059 53.6536 27.3671 53.6536C27.4079 53.6536 27.4487 53.6536 27.4895 53.6332C27.5712 53.5924 27.612 53.4699 27.5712 53.3679C27.5304 53.1842 27.2446 53.1638 27.1222 53.3066Z" fill="#B66629"/>
<path d="M12.4492 49.47C12.5308 49.3067 12.6329 49.1435 12.6533 48.9802C12.6737 48.7965 12.6125 48.5925 12.4288 48.5312C12.2247 48.4496 12.0002 48.6129 11.8982 48.8169C11.6737 49.2251 11.7757 49.7149 11.8778 50.1639C11.8982 50.2455 11.939 50.3476 12.0206 50.368C12.3063 50.4292 12.388 49.6129 12.4492 49.47Z" fill="#B66629"/>
<path d="M14.1436 47.3271C14.3681 47.3884 14.5517 47.5516 14.6742 47.7557C14.715 47.8169 14.7354 47.8782 14.7354 47.9394C14.7354 48.0823 14.613 48.1843 14.4905 48.2455C14.164 48.368 13.7558 48.1435 13.613 47.8169C13.5722 47.7149 13.5517 47.5925 13.5926 47.4904C13.6742 47.3271 13.8987 47.3271 14.0824 47.3271H14.1436Z" fill="#B66629"/>
<path d="M16.4501 48.3884C16.5725 48.4496 16.6133 48.6333 16.5113 48.7353C16.4297 48.8374 16.2664 48.8782 16.1439 48.817C16.0623 48.7761 16.0011 48.7149 15.9603 48.6129C15.9194 48.5108 15.9603 48.4292 16.0011 48.368C16.1031 48.2455 16.3072 48.2659 16.4297 48.3476L16.4501 48.3884Z" fill="#B66629"/>
<path d="M12.6124 46.5723C12.5103 46.307 12.2858 46.1029 12.0409 45.9805C11.8369 45.858 11.5716 45.7968 11.3471 45.858C11.3062 45.8784 11.245 45.8784 11.2042 45.9192C11.0818 45.9805 11.0205 46.1233 11.0001 46.2458C10.8981 46.6335 11.0205 47.0825 11.3267 47.3274C11.8981 47.7764 12.9185 47.3886 12.6124 46.5723Z" fill="#B66629"/>
<path d="M12.8176 51.8985C12.7564 51.8372 12.6747 51.7964 12.5931 51.8168C12.5115 51.8372 12.4503 51.9189 12.4094 52.0005C12.3482 52.1842 12.3686 52.3883 12.4707 52.5515C12.5523 52.6944 12.6952 52.7964 12.8584 52.7964C13.3686 52.7964 13.0217 52.0821 12.8176 51.8985Z" fill="#B66629"/>
<path d="M10.9587 52.1846C10.775 52.2662 10.571 52.3478 10.3873 52.2866C10.2648 52.2458 10.1628 52.1234 10.122 51.9805C10.0812 51.8376 10.1016 51.6948 10.1832 51.5723C10.224 51.4703 10.3056 51.3887 10.4077 51.3274C10.5301 51.2662 10.6934 51.2662 10.8363 51.2866C10.9179 51.2866 10.9995 51.307 11.0607 51.3274C11.224 51.3887 11.4485 51.5927 11.4077 51.7968C11.3873 51.9805 11.122 52.1029 10.9587 52.1846Z" fill="#B66629"/>
<path d="M11.8579 54.0821C11.8579 54.1637 11.8375 54.2658 11.7967 54.3474C11.6946 54.5719 11.4702 54.7556 11.2253 54.8168C10.9804 54.878 10.6946 54.7964 10.5314 54.6127C10.3681 54.429 10.3273 54.1025 10.4702 53.8984C10.5722 53.7556 10.7355 53.6535 10.9191 53.6127C11.2661 53.5515 11.8375 53.5923 11.8579 54.0821Z" fill="#B66629"/>
<path d="M27.1434 48.3064C27.0209 48.1635 26.8985 48.0411 26.8372 47.8778C26.776 47.7145 26.7964 47.4901 26.9393 47.388C27.1229 47.2656 27.3678 47.3676 27.5107 47.5309C27.8168 47.8778 27.8576 48.388 27.8372 48.837C27.8372 48.9186 27.8168 49.0207 27.7556 49.0615C27.5311 49.2247 27.2658 48.4288 27.1434 48.3064Z" fill="#B66629"/>
<path d="M25.0008 46.6334C24.7968 46.7559 24.6539 46.9396 24.5927 47.1641C24.5723 47.2253 24.5723 47.2865 24.5723 47.3477C24.6131 47.4906 24.7355 47.5722 24.8784 47.5926C25.2253 47.6334 25.5723 47.3273 25.6131 46.96C25.6335 46.8375 25.6131 46.7151 25.5519 46.6334C25.4294 46.4906 25.2049 46.5518 25.0417 46.5926L25.0008 46.6334Z" fill="#B66629"/>
<path d="M23.0202 48.2255C22.9182 48.3071 22.9386 48.4908 23.0406 48.5724C23.1427 48.654 23.3059 48.6336 23.408 48.552C23.4692 48.4908 23.5304 48.4091 23.5304 48.3275C23.5304 48.2459 23.4896 48.1438 23.4284 48.103C23.3059 48.0214 23.1223 48.0622 23.0202 48.1846V48.2255Z" fill="#B66629"/>
<path d="M26.7156 44.8375C26.8993 44.6742 27.1237 44.5518 27.3686 44.5518C27.4095 44.5518 27.4503 44.5518 27.4911 44.5722C27.6544 44.8375 27.7972 45.1232 27.9197 45.4089C27.9197 45.613 27.8584 45.8171 27.736 45.9803C27.3074 46.5518 26.2054 46.4089 26.3074 45.5722C26.3482 45.266 26.5115 45.0211 26.7156 44.8375Z" fill="#B66629"/>
<path d="M27.1642 50.9593C27.2051 50.898 27.2867 50.8164 27.3683 50.8164C27.45 50.8164 27.5316 50.8776 27.5928 50.9389C27.6949 51.1021 27.7153 51.3062 27.6745 51.4899C27.6336 51.6531 27.5112 51.796 27.3683 51.8368C26.8377 51.9797 27.001 51.1838 27.1642 50.9593Z" fill="#B66629"/>
<path d="M24.8383 42.3265C24.8179 42.6122 24.6546 43 24.3893 43.1632C24.1648 43.3061 23.7158 43.2041 23.573 42.9592C23.5322 42.8979 23.5118 42.8163 23.4913 42.7551C23.4301 42.5102 23.4505 42.2653 23.4505 42.0204C23.4505 41.9388 23.4709 41.8571 23.4913 41.7959C23.9607 41.9183 24.4097 42.0816 24.8383 42.2857C24.8179 42.3061 24.8383 42.3265 24.8383 42.3265Z" fill="#B66629"/>
<path d="M18.5508 41.2861C18.8773 41.2861 19.2038 41.2861 19.5508 41.3065C19.5916 41.4494 19.6324 41.5923 19.6528 41.7351C19.6732 41.98 19.612 42.4494 19.3671 42.5923C19.2038 42.6739 18.9998 42.5923 18.8977 42.4494C18.7753 42.3065 18.7345 42.1229 18.6936 41.9596C18.6324 41.7351 18.5712 41.5106 18.5508 41.2861Z" fill="#B66629"/>
<path d="M13.3685 42.8166C13.1236 42.6533 12.9603 42.4084 12.8583 42.1431C12.8379 42.1023 12.8379 42.0615 12.8379 42.0207C13.2052 41.8778 13.6134 41.7554 14.042 41.6533C14.144 41.8778 14.144 42.1839 14.1032 42.4084C14.0828 42.5309 14.042 42.6533 13.9807 42.7554C13.8991 42.8574 13.7971 42.939 13.6746 42.939C13.5522 42.939 13.4501 42.8778 13.3685 42.8166Z" fill="#B66629"/>
<path d="M8.53161 46.4492C8.73569 46.4084 8.93977 46.4492 9.12345 46.5513C9.55202 46.7962 9.57243 47.2043 9.47038 47.6329C9.44998 47.7349 9.42957 47.8166 9.36834 47.8982C9.28671 48.0003 9.16426 48.0207 9.04181 48.0207C8.73569 48.0207 8.40916 47.8166 8.20508 47.5309C8.28671 47.1635 8.38875 46.8166 8.53161 46.4492Z" fill="#B66629"/>
<path d="M9.83824 48.9803C9.94028 48.9599 10.0627 48.9395 10.1852 48.9395C10.3076 48.9599 10.4097 49.0007 10.4709 49.1027C10.5729 49.2456 10.5117 49.4701 10.3893 49.6129C10.1852 49.8374 9.85865 49.8986 9.57293 49.9599C9.45048 49.9803 9.32804 50.0007 9.20559 50.0211C9.14436 50.0211 9.10355 50.0415 9.04232 50.0007C9.0015 49.9803 8.9811 49.9395 8.96069 49.8986C8.91987 49.7762 8.94028 49.6333 9.0015 49.5313C9.20559 49.1844 9.47089 49.0619 9.83824 48.9803Z" fill="#B66629"/>
<path d="M7.98015 52.2042C8.46995 52.0409 8.73525 52.5103 8.71484 52.9185C8.69444 53.1634 8.67403 53.4083 8.55158 53.6123C8.51076 53.6736 8.46995 53.7144 8.42913 53.7348C8.38831 53.7552 8.32709 53.7552 8.28627 53.7552H8.26586C8.14342 53.2858 8.04137 52.7756 7.98015 52.2246C7.95974 52.2246 7.95974 52.2246 7.98015 52.2042Z" fill="#B66629"/>
<path d="M14.4902 57.796C14.4902 57.8369 14.4902 57.8573 14.4698 57.8981C14.4494 57.9389 14.3882 57.9593 14.3474 57.9797C14.1229 58.0409 13.878 57.9593 13.7351 57.7756C13.6535 57.6532 13.6127 57.5103 13.5923 57.3675C13.5719 57.2858 13.5719 57.1838 13.6331 57.1226C13.6535 57.1022 13.6943 57.0818 13.7351 57.0818C14.2658 56.9593 14.5311 57.245 14.4902 57.796Z" fill="#B66629"/>
<path d="M25.4902 57.1027C25.4902 57.1435 25.4902 57.1639 25.4698 57.2047C25.4494 57.2455 25.3882 57.266 25.3474 57.2864C25.1229 57.3476 24.878 57.266 24.7351 57.0823C24.6535 56.9598 24.6127 56.817 24.5923 56.6741C24.5719 56.5925 24.5719 56.4904 24.6331 56.4292C24.6535 56.4088 24.6943 56.3884 24.7351 56.3884C25.2658 56.266 25.5311 56.5517 25.4902 57.1027Z" fill="#B66629"/>
<path d="M12.797 55.6328C12.8582 55.6328 12.9399 55.6328 12.9807 55.694C13.0011 55.7349 13.0011 55.7757 13.0011 55.8165C12.9807 56.0614 12.7766 56.2247 12.6133 56.3879C12.4296 56.5308 12.246 56.694 12.0011 56.694C11.9603 56.694 11.9194 56.694 11.8786 56.6532C11.8582 56.6328 11.8378 56.6124 11.8378 56.592C11.6337 56.0206 12.3684 55.6736 12.797 55.6328Z" fill="#B66629"/>
<path d="M23.5704 57.6121C23.55 57.6938 23.6112 57.755 23.6725 57.7754C23.7541 57.7958 23.8153 57.7346 23.8357 57.6733C23.8561 57.5917 23.7949 57.5305 23.7337 57.5101C23.6725 57.4897 23.5908 57.5305 23.5704 57.6121Z" fill="#D0A27D"/>
<path d="M23.5099 58.5719C23.4895 58.6535 23.5507 58.7147 23.6119 58.7351C23.6731 58.7555 23.7548 58.6943 23.7752 58.6331C23.7956 58.5719 23.7344 58.4902 23.6731 58.4698C23.5915 58.4494 23.5099 58.5106 23.5099 58.5719Z" fill="#D0A27D"/>
<path d="M23.9181 59.0613C23.8977 59.143 23.9589 59.2042 24.0201 59.2246C24.0813 59.245 24.163 59.1838 24.1834 59.1226C24.2038 59.0409 24.1426 58.9797 24.0813 58.9593C24.0201 58.9389 23.9385 58.9797 23.9181 59.0613Z" fill="#D0A27D"/>
<path d="M22.5911 57.8572C22.5707 57.9389 22.6115 58.0001 22.6932 58.0205C22.7748 58.0409 22.836 58.0001 22.8564 57.9185C22.8769 57.8368 22.836 57.7756 22.7544 57.7552C22.6932 57.7348 22.6115 57.7756 22.5911 57.8572Z" fill="#D0A27D"/>
<path d="M21.9583 58.7957C21.9379 58.8774 21.9787 58.9386 22.0604 58.959C22.142 58.9794 22.2032 58.9386 22.2236 58.8569C22.244 58.7753 22.2032 58.7141 22.1216 58.6937C22.0604 58.6733 21.9787 58.7141 21.9583 58.7957Z" fill="#D0A27D"/>
<path d="M22.8568 59.327C22.8364 59.4086 22.8772 59.4698 22.9588 59.4902C23.0404 59.5106 23.1017 59.4698 23.1221 59.3882C23.1425 59.3066 23.1017 59.2453 23.02 59.2249C22.9384 59.2045 22.8772 59.2453 22.8568 59.327Z" fill="#D0A27D"/>
<path d="M19.4699 59.0206C19.429 58.9594 19.429 58.8778 19.4903 58.8165C19.5515 58.7757 19.6331 58.7757 19.6943 58.8369C19.7352 58.8982 19.7352 58.9798 19.6739 59.041C19.6127 59.1022 19.5107 59.0818 19.4699 59.0206Z" fill="#D0A27D"/>
<path d="M18.3878 59.1632C18.347 59.102 18.347 59.0203 18.4082 58.9591C18.4695 58.9183 18.5511 58.9183 18.6123 58.9795C18.6531 59.0407 18.6531 59.1224 18.5919 59.1836C18.5103 59.2448 18.4286 59.2244 18.3878 59.1632Z" fill="#D0A27D"/>
<path d="M18.9796 57.9796C18.9388 57.9184 18.9388 57.8367 19 57.7755C19.0613 57.7347 19.1429 57.7347 19.2041 57.7959C19.2449 57.8571 19.2449 57.9388 19.1837 58C19.1021 58.0408 19.0204 58.0408 18.9796 57.9796Z" fill="#D0A27D"/>
<path d="M17.5499 59.9191C17.5091 59.8578 17.5091 59.7762 17.5703 59.715C17.6316 59.6742 17.7132 59.6742 17.7744 59.7354C17.8152 59.7966 17.8152 59.8782 17.754 59.9395C17.6928 59.9803 17.6112 59.9803 17.5499 59.9191Z" fill="#D0A27D"/>
<path d="M17.1222 58.6124C17.0814 58.5512 17.0814 58.4696 17.1426 58.4083C17.2038 58.3675 17.2855 58.3675 17.3467 58.4287C17.3875 58.49 17.3875 58.5716 17.3263 58.6328C17.2651 58.6736 17.1834 58.6736 17.1222 58.6124Z" fill="#D0A27D"/>
<path d="M17.9191 57.4901C17.8783 57.4288 17.8783 57.3472 17.9395 57.286C18.0007 57.2248 18.0823 57.2452 18.1436 57.3064C18.1844 57.3676 18.1844 57.4493 18.1232 57.5105C18.0619 57.5717 17.9803 57.5513 17.9191 57.4901Z" fill="#D0A27D"/>
</svg>
