<svg width="150" height="150" viewBox="0 0 150 150" fill="none" xmlns="http://www.w3.org/2000/svg">
<path d="M95.497 74.3418C95.497 74.3418 91.0841 81.3676 92.3422 87.6579C93.5809 93.9289 95.7873 98.2837 96.426 100.219C97.0067 101.961 92.4002 111.832 91.9551 114.329C91.897 114.619 91.6647 114.813 91.3744 114.813L84.1744 114.871C83.826 114.871 83.5357 114.561 83.5744 114.213C83.6712 113.342 83.9035 111.851 84.4454 111.251C85.2196 110.381 88.1422 110.593 88.2583 110.477C88.5486 110.187 90.6776 103.258 90.3293 101.826C90.097 100.877 87.968 96.445 85.8002 93.6773C84.8712 92.4966 82.5293 91.7999 80.1293 90.2515C77.1293 88.316 76.3164 86.3031 76.3164 86.3031L95.497 74.3418Z" fill="#C3743C"/>
<path d="M87.4847 114.871C87.4847 114.871 87.0202 113.69 88.1621 112.354C88.1621 112.354 86.8653 113.013 86.8653 114.871H87.4847Z" fill="#772638"/>
<path d="M84.0967 114.871C84.0967 114.871 83.9999 112.8 85.4902 112.161C85.4902 112.161 84.4257 112.993 84.5225 114.871H84.0967Z" fill="#772638"/>
<path d="M32.0908 77.9805L33.3876 109.703C33.3876 109.703 30.194 110.11 28.9359 111.387C28.0456 112.277 28.1037 113.651 28.2198 114.387C28.2585 114.677 28.5101 114.871 28.8005 114.871H38.5553C38.865 114.871 39.1359 114.619 39.1553 114.31L43.3359 81.5611L32.0908 77.9805Z" fill="#C3743C"/>
<path d="M32.3616 114.871C32.3616 114.871 31.8971 113.69 33.0391 112.354C33.0391 112.354 31.7423 113.013 31.7423 114.871H32.3616Z" fill="#772638"/>
<path d="M28.9756 114.851C28.9756 114.851 28.8788 112.78 30.3691 112.142C30.3691 112.142 29.3046 112.974 29.4014 114.851H28.9756Z" fill="#772638"/>
<path d="M48.9289 54.1162C48.9289 54.1162 51.1354 58.7807 60.8128 59.8452C71.3999 61.0065 75.987 60.5227 82.858 59.4001C89.0322 58.3936 96.058 57.7743 101.168 62.9614C105.91 67.8001 105.077 76.9549 98.0709 81.4065C90.3096 86.342 82.1805 88.3549 65.0709 87.484C47.9612 86.613 39.058 85.4517 32.6709 79.6452C26.2838 73.8388 48.9289 54.1162 48.9289 54.1162Z" fill="#EC945B"/>
<path d="M47.7869 81.445C47.8063 81.3289 47.845 81.1934 47.9031 81.0772C48.1353 80.6127 48.6966 80.3998 49.2192 80.4192C49.7418 80.4385 50.2256 80.6708 50.6902 80.8837C51.4256 81.2321 52.1611 81.5805 52.9353 81.8127C53.4579 81.9676 54.0192 82.0643 54.5611 82.0256C54.6773 82.0256 55.8385 81.9869 55.8966 81.8901C55.7418 82.2385 55.4515 82.5482 55.1031 82.703C56.6515 83.3224 58.4902 83.3998 60.1547 83.574C60.8321 83.6514 61.5289 83.7095 62.2063 83.7676C62.7289 83.8063 63.2902 83.9611 63.7934 83.9418C65.1095 83.8837 66.5031 83.4966 67.7418 83.1095C67.645 83.4385 67.4515 83.7289 67.1998 83.9611C67.7031 83.903 68.1676 83.7095 68.5934 83.4192C68.516 83.5934 68.4192 83.7482 68.3418 83.9224C70.1418 83.9418 71.9418 83.8643 73.7418 83.7095C75.3482 83.574 76.8579 83.3224 78.0386 82.1418C77.9805 82.4901 77.9224 82.8385 77.8644 83.1869C77.9031 82.974 80.0902 83.1095 80.2644 83.1289C80.3418 83.1289 80.4385 83.1482 80.516 83.1869C80.574 83.2256 80.6321 83.303 80.6708 83.3611C81.5611 84.716 82.4514 85.8772 83.7676 86.8643L82.645 87.116C77.9224 87.8127 72.4837 87.8321 65.0902 87.445C58.6837 87.116 53.4192 86.7482 49.0063 86.1095C48.9676 86.1095 48.8515 85.5676 48.8321 85.5289C48.6966 85.0837 48.5805 84.6192 48.445 84.174C48.2902 83.6708 48.1547 83.1676 47.9998 82.645C47.8837 82.2772 47.7095 81.8708 47.7869 81.445Z" fill="#FFD5BA"/>
<path d="M103.935 69.0391C103.935 69.0391 108.232 83.4391 118.045 87.2133C126 90.2713 130.896 90.1358 130.896 90.1358L130.548 92.5939C130.548 92.5939 123.038 91.8584 116.555 88.9745C109.006 85.6068 103.103 78.3681 101.942 71.1294L103.935 69.0391Z" fill="#EC945B"/>
<path d="M129.232 89.8646C129.774 89.1098 134.613 87.9678 137.807 88.4517C137.807 88.4517 137.226 90.8711 134.865 91.6453C134.865 91.6453 135.755 91.6646 136.82 91.684C136.82 91.684 134.245 93.6775 131.497 93.6195C130.51 93.6001 128.342 92.8453 127.955 92.2065C127.278 91.1614 129.232 89.8646 129.232 89.8646Z" fill="#772638"/>
<path d="M103.78 74.3418C103.78 74.3418 103.316 78.8902 103.413 85.2966C103.509 91.6837 106.026 96.6386 106.316 98.6708C106.567 100.471 104.593 111.832 104.148 114.329C104.09 114.619 103.858 114.813 103.567 114.813L95.6126 114.871C95.2642 114.871 94.9739 114.561 95.0126 114.213C95.1094 113.342 95.3416 111.851 95.8836 111.251C96.6578 110.381 99.4255 110.342 99.5416 110.226C99.832 109.935 100.084 101.922 99.7352 100.49C99.5029 99.5418 96.89 95.787 94.7223 93.0192C92.5932 90.3095 85.5674 89.0128 83.5545 86.7289L103.78 74.3418Z" fill="#EC945B"/>
<path d="M99.2327 114.871C99.2327 114.871 98.7682 113.69 99.9102 112.354C99.9102 112.354 98.6134 113.013 98.6134 114.871H99.2327Z" fill="#772638"/>
<path d="M95.8447 114.871C95.8447 114.871 95.748 112.8 97.2383 112.161C97.2383 112.161 96.1738 112.993 96.2705 114.871H95.8447Z" fill="#772638"/>
<path opacity="0.2" d="M104.941 103.8C105.018 103.8 105.076 103.742 105.096 103.684C105.115 103.549 105.618 100.549 105.541 99.2518C105.483 97.955 104.108 94.9937 104.05 94.8582C104.012 94.7808 103.934 94.7421 103.857 94.7808C103.779 94.8195 103.741 94.8969 103.779 94.9744C103.799 95.0131 105.192 97.9937 105.25 99.2518C105.308 100.51 104.805 103.587 104.805 103.607C104.786 103.684 104.844 103.761 104.921 103.781C104.921 103.8 104.921 103.8 104.941 103.8Z" fill="black"/>
<g opacity="0.2">
<path d="M81.1737 65.3038C81.2318 65.3038 81.2898 65.2651 81.3092 65.2071C81.464 64.6651 82.0253 64.3361 82.4898 64.1038C83.1092 63.7942 83.6511 63.6006 84.1544 63.5232C83.8253 63.8716 83.535 64.278 83.3027 64.7038C83.264 64.7619 83.2834 64.82 83.3221 64.878C83.3608 64.9167 83.4382 64.9361 83.4963 64.9167C84.2705 64.6071 85.1027 64.4909 85.935 64.549C86.0124 64.549 86.0898 64.4909 86.0898 64.4135C86.0898 64.3361 86.0318 64.2587 85.9544 64.2587C85.2189 64.2006 84.4834 64.2974 83.7673 64.5103C84.0189 64.1232 84.3092 63.7555 84.6576 63.4458C84.6963 63.4071 84.7157 63.3296 84.6963 63.2716C84.6769 63.2135 84.6189 63.1748 84.5608 63.1748C83.9027 63.1942 83.1866 63.4071 82.3544 63.8329C81.8318 64.1038 81.2318 64.4716 81.0382 65.1103C81.0189 65.1877 81.0576 65.2651 81.135 65.3038C81.1544 65.2845 81.1737 65.3038 81.1737 65.3038Z" fill="black"/>
<path d="M77.7476 65.1874C77.8057 65.1874 77.8444 65.1681 77.8831 65.11C78.2121 64.51 78.6379 63.9874 79.1412 63.5229C79.1992 63.4648 79.1992 63.3681 79.1605 63.31C79.1025 63.2519 79.0057 63.2519 78.9476 63.2907C78.4057 63.7552 77.9799 64.3165 77.6315 64.9552C77.5928 65.0326 77.6121 65.11 77.6896 65.1487C77.6896 65.1874 77.7283 65.1874 77.7476 65.1874Z" fill="black"/>
<path d="M95.1096 90.0968C95.1676 90.0968 95.2257 90.0581 95.2451 90C95.2644 89.9226 95.2257 89.8452 95.1483 89.8065C95.0902 89.7871 89.3225 88.0258 85.1225 84.1549C85.0644 84.0968 84.9677 84.0968 84.9096 84.1549C84.8515 84.2129 84.8515 84.3097 84.9096 84.3678C89.1483 88.2775 94.9935 90.0775 95.0515 90.0775C95.0902 90.0968 95.1096 90.0968 95.1096 90.0968Z" fill="black"/>
<path d="M64.2377 80.3813C64.2958 80.3813 64.3732 80.3426 64.3732 80.2652C64.3926 80.1877 64.3345 80.1103 64.2571 80.091C63.3474 79.8587 62.4764 79.4329 61.7603 78.8329C61.7022 78.7748 61.6055 78.7942 61.5474 78.8523C61.4893 78.9103 61.5087 79.0071 61.5668 79.0652C62.3216 79.6845 63.2313 80.149 64.1797 80.3813C64.2184 80.3813 64.2377 80.3813 64.2377 80.3813Z" fill="black"/>
<path d="M76.568 79.7812C76.6454 79.7812 76.7035 79.7232 76.7228 79.6651C76.7422 79.5877 76.6841 79.5103 76.6067 79.4909C75.697 79.3361 74.826 79.0457 74.0131 78.6006C74.4776 78.678 74.9422 78.7167 75.4067 78.7167C75.4841 78.7167 75.5615 78.6587 75.5615 78.5812C75.5615 78.5038 75.5035 78.4264 75.426 78.4264C74.7099 78.407 73.9938 78.3296 73.297 78.1554C73.2196 78.1361 73.1615 78.1748 73.1228 78.2328C73.1035 78.2909 73.1228 78.3683 73.1809 78.407C74.1873 79.1038 75.3486 79.5683 76.5486 79.7619C76.5486 79.7812 76.568 79.7812 76.568 79.7812Z" fill="black"/>
<path d="M82.2575 80.0325C82.3156 80.0325 82.3737 79.9938 82.393 79.9357C82.4317 79.8583 82.393 79.7808 82.3156 79.7421L80.9027 79.1421C80.8253 79.1034 80.7479 79.1421 80.7091 79.2196C80.6704 79.297 80.7091 79.3744 80.7866 79.4131L82.1995 80.0131C82.2188 80.0325 82.2382 80.0325 82.2575 80.0325Z" fill="black"/>
<path d="M100.219 80.284C100.296 80.284 100.374 80.2066 100.374 80.1292C100.354 79.2969 100.374 78.4646 100.432 77.6324C100.432 77.555 100.374 77.4775 100.296 77.4775C100.219 77.4775 100.141 77.5356 100.141 77.613C100.064 78.4453 100.045 79.2969 100.083 80.1485C100.064 80.2066 100.141 80.284 100.219 80.284Z" fill="black"/>
<path d="M100.703 69.6003C100.722 69.6003 100.741 69.6003 100.78 69.5809C100.838 69.5616 100.857 69.5035 100.857 69.4455C100.799 68.5745 100.528 67.7229 100.064 66.968C100.025 66.8906 99.9284 66.8713 99.851 66.91C99.7735 66.9487 99.7542 67.0455 99.7929 67.1229C100.161 67.7229 100.412 68.4003 100.49 69.1164L99.1735 68.0326C99.1155 67.9745 99.0187 67.9939 98.9606 68.0519C98.9026 68.11 98.9219 68.2068 98.98 68.2648L100.567 69.5616C100.625 69.6003 100.664 69.6003 100.703 69.6003Z" fill="black"/>
<path d="M58.0829 64.1615C58.1023 64.1615 58.1216 64.1615 58.141 64.1422C58.9926 63.7938 59.9023 63.5615 60.8313 63.4454C60.9087 63.4261 60.9668 63.368 60.9668 63.2712C60.9474 63.1938 60.8894 63.1357 60.7926 63.1357C59.8442 63.2519 58.9152 63.5035 58.0442 63.8519C57.9668 63.8906 57.9281 63.968 57.9668 64.0454C57.9668 64.1422 58.0249 64.1615 58.0829 64.1615Z" fill="black"/>
<path d="M62.8644 65.7289C62.9031 65.7289 62.9612 65.7095 62.9806 65.6708C63.0386 65.6128 63.0193 65.516 62.9612 65.4579C62.6709 65.2257 62.3031 65.0902 61.858 65.0321C61.4709 64.9934 61.0838 65.0128 60.7161 65.0321C60.6386 65.0321 60.5806 65.1095 60.5806 65.187C60.5806 65.2644 60.658 65.3224 60.7354 65.3224C61.1031 65.3031 61.4709 65.2837 61.8193 65.3224C62.2064 65.3611 62.5354 65.4966 62.787 65.6902C62.8064 65.7095 62.8451 65.7289 62.8644 65.7289Z" fill="black"/>
<path d="M64.5864 69.8909C64.6251 69.8909 64.6445 69.8909 64.6638 69.8715C64.7219 69.8328 64.7412 69.7361 64.7025 69.6586C64.2961 69.078 63.7541 68.5941 63.1348 68.2264C63.0574 68.1877 62.9799 68.207 62.9412 68.2845C62.9025 68.3619 62.9219 68.4393 62.9993 68.478C63.5799 68.807 64.0832 69.2715 64.4703 69.8135C64.4896 69.8522 64.5477 69.8909 64.5864 69.8909Z" fill="black"/>
</g>
<path opacity="0.2" d="M103.627 76.9742C103.646 76.9742 103.665 76.9742 103.685 76.9548C103.762 76.9161 103.801 76.8387 103.762 76.7613L103.007 75.0194C102.969 74.9419 102.891 74.9032 102.814 74.9419C102.736 74.9807 102.698 75.0581 102.736 75.1355L103.491 76.8774C103.53 76.9355 103.569 76.9742 103.627 76.9742Z" fill="black"/>
<path d="M38.0328 77.9805L41.5166 109.703C41.5166 109.703 38.3231 110.11 37.065 111.387C36.1747 112.277 36.2327 113.651 36.3489 114.387C36.3876 114.677 36.6392 114.871 36.9295 114.871H46.6844C46.994 114.871 47.265 114.619 47.2844 114.31C47.2844 114.31 48.9102 94.5869 49.1037 89.9998C49.2973 85.4127 49.2586 81.5611 49.2586 81.5611L38.0328 77.9805Z" fill="#EC945B"/>
<path d="M40.3363 114.89C40.3363 114.89 39.8717 113.71 41.0137 112.374C41.0137 112.374 39.7169 113.032 39.7169 114.89H40.3363Z" fill="#772638"/>
<path d="M36.9483 114.89C36.9483 114.89 36.8515 112.819 38.3418 112.181C38.3418 112.181 37.2773 113.013 37.3741 114.89H36.9483Z" fill="#772638"/>
<path opacity="0.2" d="M47.2851 99.3093C47.3625 99.3093 47.4206 99.2512 47.44 99.1738C48.1174 93.2318 48.0206 88.4512 48.0206 88.3931C48.0206 88.3157 47.9432 88.2383 47.8658 88.2383C47.7884 88.2383 47.7109 88.3157 47.7109 88.3931C47.7109 88.4318 47.8077 93.1931 47.1303 99.1351C47.1109 99.2125 47.1884 99.2899 47.2851 99.3093C47.2658 99.3093 47.2658 99.3093 47.2851 99.3093Z" fill="black"/>
<path opacity="0.2" d="M76.8774 86.478H76.8968C77.729 86.3231 78.4839 85.7618 78.8516 85.007C78.8903 84.9296 78.8516 84.8521 78.7935 84.8134C78.7161 84.7747 78.6387 84.8134 78.6 84.8715C78.3484 85.3747 77.9032 85.8005 77.3806 86.0328C77.6322 85.7425 77.8452 85.3941 78.0387 85.0457C78.0774 84.9683 78.0387 84.8909 77.9806 84.8521C77.9032 84.8134 77.8258 84.8521 77.7871 84.9102C77.5355 85.4134 77.1871 85.8586 76.8 86.2263C76.7613 86.265 76.7419 86.3425 76.7613 86.4005C76.7613 86.4392 76.8194 86.478 76.8774 86.478Z" fill="black"/>
<path opacity="0.2" d="M68.4385 86.6711C68.4579 86.6711 68.4772 86.6711 68.4966 86.6518C68.8643 86.4776 69.174 86.2066 69.3869 85.8582C69.4256 85.7808 69.4063 85.7034 69.3288 85.6453C69.2514 85.6066 69.174 85.626 69.1159 85.7034C68.9417 85.9937 68.6708 86.226 68.3611 86.3808C68.2837 86.4195 68.245 86.4969 68.2837 86.5744C68.3224 86.6324 68.3804 86.6711 68.4385 86.6711Z" fill="black"/>
<path opacity="0.2" d="M66.6963 86.574C66.7156 86.574 66.735 86.574 66.7543 86.5546C66.8898 86.4965 67.006 86.3804 67.0834 86.2643C67.1221 86.1869 67.1027 86.1095 67.0447 86.0514C66.9672 86.0127 66.8898 86.032 66.8318 86.0901C66.7737 86.1675 66.6963 86.2449 66.6189 86.2836C66.5414 86.3224 66.5221 86.4191 66.5608 86.4772C66.5801 86.5546 66.6382 86.574 66.6963 86.574Z" fill="black"/>
<path opacity="0.2" d="M53.1486 85.2975C53.9615 85.2201 54.7357 85.0652 55.4905 84.7943C55.8776 84.6588 56.2067 84.5233 56.5163 84.3491C56.5938 84.3104 56.6131 84.2136 56.5744 84.1555C56.5357 84.0781 56.4389 84.0588 56.3808 84.0975C56.1099 84.2523 55.7808 84.3878 55.4131 84.5233C54.9292 84.6975 54.4067 84.833 53.9034 84.9104C54.0776 84.7749 54.2131 84.6201 54.3099 84.4652C54.3486 84.3878 54.3292 84.3104 54.2518 84.2523C54.1744 84.2136 54.097 84.233 54.0389 84.3104C53.8647 84.5814 53.4196 84.9297 53.1292 85.0072C53.0518 85.0265 53.0131 85.1039 53.0131 85.1814C53.0131 85.2394 53.0905 85.2975 53.1486 85.2975Z" fill="black"/>
<path d="M17.3418 57.2905C17.9224 54.6002 19.2385 52.0647 21.0966 50.0325C20.6708 50.0518 20.2644 50.0712 19.8386 50.0905C19.9547 50.0905 20.2256 49.7615 20.3224 49.6841C20.4966 49.5486 20.6708 49.4131 20.845 49.2776C21.7934 48.5808 22.7998 47.9421 23.845 47.4195C24.3676 47.1486 24.9095 46.897 25.4515 46.6841C25.974 46.4712 26.5353 46.3163 27.0192 46.0454C26.9031 45.8712 26.7289 45.697 26.5547 45.5808C27.0386 45.3873 27.5418 45.2905 28.0644 45.2712C28.316 45.2712 28.5869 45.2712 28.8385 45.3099C28.8966 45.3099 29.3998 45.3873 29.4192 45.4841C29.3418 45.0389 28.916 44.6905 28.4708 44.6905C29.5934 44.1099 31.045 44.2066 32.0902 44.9421C33.774 43.0066 36.6192 42.5615 39.1547 42.8131C41.6902 43.0454 44.1869 43.8583 46.7418 43.897C46.5869 44.0518 46.4321 44.2066 46.2773 44.3615C48.0773 44.3421 49.8966 44.9615 51.2708 46.1228C51.9482 46.6841 52.5289 47.4002 52.974 48.155C53.3611 48.8131 53.4966 49.8776 53.9224 50.4389C53.516 49.9357 52.8773 49.6454 52.2192 49.6841C54.6966 52.9937 56.2837 56.9808 56.7676 61.0841C56.4192 60.9679 56.0514 60.8518 55.7031 60.7357C56.4192 62.7292 57.1353 64.9163 56.3998 66.9099C56.0902 67.7421 55.5289 68.4776 55.1998 69.3292C54.2127 71.9421 55.6837 75.2712 53.9611 77.4776C53.7482 77.226 53.5353 76.955 53.3224 76.7034C53.6127 78.4647 52.374 80.1099 51.0386 81.2905C49.7031 82.4712 48.1547 83.555 47.4579 85.2002C47.0708 86.1486 46.8579 87.3679 45.9095 87.755C45.774 87.426 45.6385 87.0776 45.5031 86.7486C45.0192 88.4131 43.2385 89.1873 41.8837 90.0389C40.2385 91.0841 38.7482 92.826 37.9353 94.6066C37.8579 94.7808 37.7805 94.9357 37.7224 95.1099C37.0063 94.1615 36.116 93.4647 35.3224 92.6131C34.9353 92.2066 34.5869 91.7615 34.2773 91.2776C34.0644 90.9486 33.5224 90.2518 33.5224 89.8454C33.5224 90.1357 33.5031 90.4067 33.5031 90.697C31.1224 88.3357 29.2644 85.4518 28.0644 82.3163C27.8127 82.7615 27.716 83.2841 27.7353 83.7873C26.9418 82.5486 26.4192 81.1357 26.2256 79.6841C25.9934 79.955 25.7611 80.2454 25.5289 80.5163C22.5289 76.0647 19.4127 71.3421 19.045 66.0002C18.8127 66.3873 18.5805 66.7744 18.3482 67.1615C17.574 63.755 16.8192 60.0196 18.3676 56.8841C18.0386 57.0196 17.6902 57.155 17.3418 57.2905Z" fill="#772638"/>
<g opacity="0.2">
<path d="M51.7555 72.9486C51.7942 72.9486 51.8329 72.9292 51.8717 72.9099C51.9104 72.8712 51.9297 72.7938 51.891 72.7357C51.5233 71.9809 51.1555 71.2067 51.02 70.3744C50.9426 69.8712 50.9426 69.3486 50.9426 68.826C50.9426 68.3034 50.962 67.7421 50.8652 67.2196C50.7491 66.5034 50.4588 65.826 50.0329 65.2454C49.9749 65.1873 49.8975 65.168 49.82 65.2067C49.762 65.2647 49.7426 65.3421 49.7813 65.4196C50.1684 65.9615 50.4394 66.6002 50.5555 67.2583C50.6329 67.7615 50.6329 68.3034 50.6329 68.826C50.6329 69.3486 50.6136 69.8905 50.7104 70.4131C50.8265 71.1292 51.1168 71.8067 51.4071 72.4647C50.8846 72.1357 50.5168 71.6131 50.2846 71.226C49.9362 70.5873 49.7233 69.8712 49.5297 69.1938C49.5104 69.1357 49.4523 69.097 49.3942 69.0776C49.3362 69.0776 49.2781 69.1163 49.2394 69.1744C48.8717 69.9873 48.7555 70.9163 48.9104 71.8067C48.9297 71.8841 49.0071 71.9421 49.0846 71.9228C49.162 71.9034 49.22 71.826 49.2007 71.7486C49.0846 71.0712 49.1426 70.3551 49.3555 69.697C49.5297 70.2583 49.7233 70.8389 50.0136 71.3809C50.3039 71.9034 50.8265 72.6196 51.6587 72.9486C51.7168 72.9486 51.7362 72.9486 51.7555 72.9486Z" fill="black"/>
<path d="M40.6451 85.4708C40.6838 85.4708 40.7032 85.4708 40.7419 85.4514C41.8838 84.6191 42.1935 83.2062 42.2709 82.432C42.3677 81.6385 42.3096 80.8449 42.2709 80.0514C42.2516 79.7224 42.2322 79.374 42.2129 79.0449C42.1935 78.174 42.2322 76.8966 42.8322 75.8514C42.8709 75.774 42.8516 75.6966 42.7741 75.6385C42.6967 75.5998 42.6193 75.6191 42.5612 75.6966C41.9225 76.7998 41.8838 78.1353 41.9032 79.0449C41.9032 79.3933 41.9419 79.7417 41.9612 80.0708C41.9999 80.8449 42.058 81.6191 41.9612 82.3933C41.8838 83.032 41.6709 84.1159 40.9161 84.8708C41.0709 84.0578 40.8774 83.2062 40.6838 82.374C40.5096 81.5998 40.3161 80.8062 40.4322 80.0514C40.4516 79.974 40.3935 79.8966 40.2967 79.8772C40.2193 79.8578 40.1419 79.9159 40.1225 80.0127C40.0064 80.8256 40.2 81.6385 40.3741 82.4514C40.6064 83.4578 40.8193 84.4062 40.4709 85.2772C40.4516 85.3353 40.4709 85.4127 40.5096 85.4514C40.5677 85.4514 40.6064 85.4708 40.6451 85.4708Z" fill="black"/>
<path d="M38.0138 88.9744C38.1106 88.9744 38.1686 88.8969 38.1686 88.8195C38.0331 87.3292 38.3622 85.7615 39.0783 84.4453C39.117 84.3679 39.0977 84.2905 39.0202 84.2518C38.9428 84.2131 38.8654 84.2324 38.8267 84.3098C38.0912 85.684 37.7622 87.2905 37.8977 88.8582C37.8783 88.9163 37.9364 88.9744 38.0138 88.9744Z" fill="black"/>
<path d="M19.1037 66.0198C19.1618 66.0198 19.2199 65.9811 19.2392 65.923C19.4715 65.1681 19.5876 64.394 19.5682 63.6004C19.5682 63.523 19.4908 63.4456 19.4134 63.4649C19.336 63.4649 19.2586 63.5423 19.2779 63.6198C19.2973 64.3746 19.2005 65.1294 18.9682 65.8456C18.9489 65.923 18.9876 66.0004 19.065 66.0391C19.0844 66.0004 19.0844 66.0198 19.1037 66.0198Z" fill="black"/>
<path d="M39.1753 47.0322C39.2527 47.0322 39.3108 46.9741 39.3301 46.8967C39.3301 46.7806 39.4463 46.6644 39.6592 46.5677C40.5495 46.1225 41.614 45.987 42.6205 45.8515C43.8785 45.6967 45.1946 45.5225 46.2204 44.7483C46.2785 44.6902 46.2979 44.6128 46.2592 44.5354C46.2011 44.4773 46.1237 44.458 46.0463 44.4967C45.0785 45.2322 43.8592 45.387 42.5817 45.5419C41.5366 45.6773 40.4721 45.8128 39.5237 46.2967C39.214 46.4515 39.0398 46.6451 39.0398 46.8773C39.0205 46.9548 39.0785 47.0128 39.1753 47.0322Z" fill="black"/>
<path d="M26.9812 73.5675C27.0006 73.5675 27.0006 73.5675 27.0199 73.5675C27.078 73.5482 27.1361 73.4901 27.1361 73.4127C27.1167 72.0385 27.3683 70.6449 27.8329 69.3675C27.8522 69.2901 27.8135 69.2127 27.7554 69.174C27.678 69.1546 27.6006 69.1933 27.5619 69.2514C27.1361 70.4127 26.8845 71.6127 26.8458 72.832C26.5361 72.232 26.2651 71.5353 26.2845 70.8579C26.2845 70.7804 26.2264 70.703 26.1296 70.703C26.0522 70.703 25.9748 70.7611 25.9748 70.8579C25.9748 71.7869 26.4393 72.7546 26.8651 73.4901C26.8651 73.5288 26.9232 73.5675 26.9812 73.5675Z" fill="black"/>
<path d="M21.9487 60.2128C22.0068 60.2128 22.0648 60.1741 22.0842 60.1161C22.6261 58.8193 23.5939 57.6967 24.8132 56.9612C24.8906 56.9225 24.91 56.8257 24.8713 56.7483C24.8326 56.6709 24.7358 56.6515 24.6584 56.6903C23.71 57.2515 22.9164 58.0451 22.3358 58.9935C22.3358 58.9548 22.3551 58.9161 22.3551 58.8773C22.4713 58.2386 22.6067 57.5806 22.7616 57.1161C22.7809 57.0386 22.7422 56.9612 22.6648 56.9225C22.5874 56.9032 22.51 56.9419 22.4713 57.0193C22.2971 57.5032 22.181 58.1806 22.0455 58.8193C21.968 59.2644 21.8906 59.6709 21.7938 59.9999C21.7745 60.0773 21.8132 60.1548 21.8906 60.1741C21.9293 60.2128 21.9487 60.2128 21.9487 60.2128Z" fill="black"/>
<path d="M21.658 56.961C21.7355 56.961 21.7935 56.9223 21.8129 56.8449C21.9097 56.4191 22.0838 56.0126 22.3161 55.6642C22.3742 55.5868 22.4322 55.5094 22.4903 55.432C22.6258 55.2578 22.7806 55.0642 22.8774 54.8513C22.9161 54.7739 22.8774 54.6965 22.8 54.6578C22.7225 54.6191 22.6451 54.6578 22.6064 54.7352C22.529 54.9287 22.3935 55.0836 22.258 55.2578C22.2 55.3352 22.1419 55.4126 22.0838 55.49C21.8129 55.8771 21.6193 56.3223 21.5226 56.7674C21.5032 56.8449 21.5613 56.9223 21.6387 56.9416C21.6193 56.961 21.6387 56.961 21.658 56.961Z" fill="black"/>
<path d="M28.4897 47.9608C28.5865 47.9608 28.6445 47.8833 28.6445 47.8059C28.6252 47.3801 28.3736 47.0317 28.18 46.8188C27.9478 46.5479 27.6381 46.3543 27.3671 46.1608C27.2897 46.1221 27.2123 46.1414 27.1542 46.1995C27.1155 46.2769 27.1349 46.3543 27.1929 46.4124C27.4639 46.5866 27.7349 46.7801 27.9478 47.0124C28.1026 47.1866 28.3155 47.4769 28.3349 47.8253C28.3542 47.9027 28.4123 47.9608 28.4897 47.9608Z" fill="black"/>
<path d="M55.6646 60.7738C55.7033 60.7738 55.7613 60.7545 55.7807 60.7158C55.8388 60.6577 55.8194 60.5609 55.742 60.5029C54.6581 59.7093 53.2452 59.4384 51.9484 59.748C51.871 59.7674 51.8129 59.8448 51.8323 59.9222C51.8517 59.9997 51.9291 60.0577 52.0065 60.0384C53.2259 59.7287 54.542 59.9997 55.5484 60.7351C55.6065 60.7545 55.6452 60.7738 55.6646 60.7738Z" fill="black"/>
<path d="M32.033 84.4455C32.0524 84.4455 32.0717 84.4455 32.0911 84.4261C32.1685 84.3874 32.2072 84.31 32.1685 84.2326C31.5491 82.8778 31.6072 81.1552 31.7233 79.5681C31.9169 80.052 32.2266 80.5165 32.6524 81.0003C32.6911 81.0584 32.7685 81.0584 32.8266 81.039C32.8846 81.0197 32.9233 80.9423 32.904 80.8842C32.5749 78.9681 32.9814 76.9358 34.0072 75.2907C34.0459 75.2132 34.0266 75.1358 33.9685 75.0778C33.8911 75.039 33.8137 75.0584 33.7556 75.1165C32.7685 76.6649 32.3427 78.5616 32.5362 80.4003C32.0717 79.781 31.8201 79.1616 31.8007 78.5616C31.8007 78.4842 31.7233 78.4261 31.6459 78.4261C31.5685 78.4261 31.5104 78.4842 31.4911 78.5616C31.4717 78.7358 31.4717 78.8907 31.4524 79.0649C31.3169 80.8261 31.162 82.8003 31.8782 84.3681C31.9362 84.4261 31.9749 84.4455 32.033 84.4455Z" fill="black"/>
<path d="M37.2572 52.0065C37.3153 52.0065 37.3733 51.9678 37.3927 51.9098C37.5475 51.5614 37.7798 51.2517 38.0894 51.0001C38.2056 50.9033 38.3604 50.8259 38.4765 50.7485C38.9798 50.4388 39.5217 50.1678 40.0636 49.9356C40.1411 49.8969 40.1798 49.8194 40.1411 49.742C40.1024 49.6646 40.0249 49.6259 39.9475 49.6646C39.3862 49.8969 38.8443 50.1872 38.3217 50.4969C38.1862 50.5743 38.0314 50.6711 37.8959 50.7678C37.5475 51.0388 37.2766 51.3872 37.1024 51.7936C37.0636 51.8711 37.1024 51.9485 37.1798 51.9872C37.2185 52.0065 37.2378 52.0065 37.2572 52.0065Z" fill="black"/>
<path d="M35.672 50.7483C35.6913 50.7483 35.7107 50.7483 35.73 50.7289C35.8075 50.6902 35.8268 50.6128 35.8075 50.5354C35.6139 50.1483 35.401 49.7805 35.1494 49.4322C35.0526 49.2967 34.9365 49.1612 34.7817 49.0644C34.7042 49.0257 34.6268 49.0644 34.5881 49.1225C34.5494 49.1999 34.5881 49.2773 34.6462 49.316C34.743 49.3741 34.8204 49.4709 34.8978 49.587C35.1301 49.916 35.343 50.2838 35.5172 50.6515C35.5559 50.7096 35.6139 50.7483 35.672 50.7483Z" fill="black"/>
<path d="M24.8316 71.2646C24.851 71.2646 24.851 71.2646 24.8704 71.2646C24.9478 71.2453 25.0058 71.1678 24.9865 71.0904C24.7349 70.0453 24.7155 68.9614 24.9091 67.9162C24.9284 67.8388 24.8704 67.7614 24.7929 67.742C24.7155 67.7227 24.6381 67.7807 24.6187 67.8582C24.4252 68.942 24.4445 70.084 24.6962 71.1678C24.6962 71.2259 24.7542 71.2646 24.8316 71.2646Z" fill="black"/>
<path d="M23.7301 68.6324C23.8269 68.6324 23.885 68.555 23.885 68.4776C23.8463 68.0711 23.9043 67.6647 24.0205 67.2776C24.0398 67.2002 24.0011 67.1227 23.9237 67.084C23.8463 67.0647 23.7688 67.1034 23.7301 67.1808C23.5947 67.6066 23.556 68.0518 23.5947 68.4969C23.5947 68.5744 23.6527 68.6324 23.7301 68.6324Z" fill="black"/>
<path d="M35.6911 49.2003C35.7105 49.2003 35.7298 49.2003 35.7492 49.1809C35.8266 49.1422 35.8653 49.0648 35.8266 48.9874C35.7105 48.7358 35.5363 48.5229 35.3621 48.31L34.8202 47.6325C34.5686 47.3229 34.2976 46.9938 33.9492 46.7422C33.8911 46.7035 33.7944 46.7035 33.7363 46.7809C33.6976 46.839 33.6976 46.9358 33.775 46.9938C34.0847 47.2067 34.3363 47.5164 34.5879 47.8261L35.1298 48.5035C35.2847 48.6971 35.4395 48.8906 35.5556 49.1229C35.575 49.1616 35.6331 49.2003 35.6911 49.2003Z" fill="black"/>
</g>
<path d="M36.7363 53.9812C36.7363 53.9812 39.0201 52.9941 41.0137 53.3425C42.6782 53.6329 44.2846 55.2006 44.6717 56.2458C45.6395 58.878 45.0782 60.8329 44.6717 61.9554C44.2653 63.078 42.9879 64.7425 42.0975 65.807C41.633 66.3683 41.2846 66.949 41.2846 66.949C41.2846 66.949 40.5685 68.5748 39.5621 69.1361C39.5621 69.1361 39.5814 69.078 38.3621 70.1038C37.2395 71.0329 37.3556 71.3038 36.3685 70.278C35.5169 69.4071 33.7169 68.5941 33.7169 68.5941L32.2653 66.8135C32.2653 66.8135 31.9556 66.8522 31.5685 66.1167C30.6782 64.3941 28.9943 62.3232 28.6846 60.4651C28.3556 58.5296 29.4975 54.4651 31.2782 53.1296C33.0395 51.7554 36.7363 53.9812 36.7363 53.9812Z" fill="#EC945B"/>
<path d="M38.014 65.2461C39.7173 65.2461 41.4398 66.33 41.614 66.8138C41.7882 67.2977 41.614 68.0138 41.2269 68.6525C40.8398 69.2913 39.6205 69.5429 39.6205 69.5429C39.6205 69.5429 39.8334 70.4138 38.7108 71.3235C37.685 72.1751 34.9173 72.3493 34.0076 71.4203C33.2334 70.6267 33.2721 69.8525 33.2721 69.8525C33.2721 69.8525 31.9366 69.1364 31.4915 68.3235C31.0463 67.4913 30.9495 66.7364 31.1237 66.2138C31.2979 65.6913 34.2979 65.2461 34.2979 65.2461C34.2979 65.2461 35.4398 66.059 36.2721 66.0009C36.7753 65.9816 38.014 65.2461 38.014 65.2461Z" fill="#FFD5BA"/>
<path d="M39.542 60.1167C39.5226 60.5038 39.6775 60.8328 39.871 60.8328C40.0646 60.8328 40.2388 60.5231 40.2581 60.1361C40.2775 59.749 40.1226 59.4199 39.9291 59.4199C39.7162 59.4199 39.542 59.7296 39.542 60.1167Z" fill="#231F20"/>
<path d="M32.2256 59.7681C32.2062 60.1552 32.3611 60.4842 32.5546 60.4842C32.7482 60.4842 32.9224 60.1745 32.9417 59.7874C32.9611 59.4003 32.8062 59.0713 32.6127 59.0713C32.4191 59.0713 32.2449 59.381 32.2256 59.7681Z" fill="#231F20"/>
<g opacity="0.2">
<path d="M33.2515 69.9096C33.2709 69.9096 33.2709 69.9096 33.2515 69.9096C34.6644 69.4838 36.1354 68.4967 36.387 68.2451C37.1999 68.8644 39.3677 69.6386 39.5999 69.5999C39.6193 69.5999 39.6386 69.5806 39.658 69.5806C39.6774 69.5612 39.658 69.5225 39.6386 69.5225C39.6193 69.5031 39.5999 69.5031 39.5806 69.5225C39.387 69.5612 37.1806 68.787 36.4064 68.1483C36.387 68.129 36.3677 68.129 36.3483 68.1483C36.3483 68.1483 36.329 68.1677 36.329 68.187C36.2128 68.3419 34.7032 69.387 33.2322 69.8322C33.2128 69.8322 33.1935 69.8709 33.1935 69.8902C33.2128 69.8902 33.2322 69.9096 33.2515 69.9096Z" fill="black"/>
<path d="M36.3873 68.2261C36.426 68.2261 36.4454 68.2067 36.426 68.168L36.3099 67.1422C36.3099 67.1229 36.2905 67.1035 36.2518 67.1035C36.2324 67.1035 36.2131 67.1229 36.2131 67.1616L36.3292 68.1874C36.3486 68.2067 36.3679 68.2261 36.3873 68.2261Z" fill="black"/>
</g>
<path d="M38.0324 65.0525C37.8388 64.9751 37.8582 65.2267 37.0646 65.4009C36.2711 65.5944 35.613 65.5751 35.2646 65.4977C34.8969 65.4396 34.355 65.0912 34.2195 65.1299C34.1033 65.188 34.2388 65.4977 34.4324 65.6719C34.6453 65.846 35.4001 66.2138 35.5937 66.388C35.7872 66.5622 36.1163 67.1235 36.2517 67.1235C36.3679 67.1235 36.6969 66.5235 36.9292 66.3686C37.1614 66.2138 37.5872 66.117 37.8775 65.8073C38.1679 65.5364 38.1292 65.0912 38.0324 65.0525Z" fill="#231F20"/>
<g opacity="0.2">
<path d="M38.0907 64.859C38.1681 64.859 38.2262 64.8009 38.2456 64.7235L38.5165 62.517C38.5359 62.4396 38.4585 62.3622 38.381 62.3429C38.3036 62.3235 38.2262 62.4009 38.2069 62.4783L37.9359 64.7041C37.9359 64.7816 37.9939 64.859 38.0907 64.859Z" fill="black"/>
<path d="M34.1615 64.936H34.1809C34.2583 64.9166 34.3164 64.8392 34.297 64.7618L33.8906 62.6521C33.8712 62.5747 33.7938 62.5166 33.7164 62.536C33.639 62.5553 33.5809 62.6328 33.6002 62.7102L34.0067 64.8198C34.0261 64.8973 34.1035 64.936 34.1615 64.936Z" fill="black"/>
</g>
<path d="M39.8123 66.3882H39.8316C39.851 66.3882 41.3026 65.7302 43.3736 66.2528C43.3929 66.2528 43.4316 66.2528 43.4316 66.214C43.4316 66.1947 43.4316 66.156 43.3929 66.156C41.3026 65.614 39.8123 66.2915 39.7929 66.3108C39.7736 66.3302 39.7542 66.3495 39.7736 66.3689C39.7929 66.3882 39.7929 66.3882 39.8123 66.3882Z" fill="#FFE3CC"/>
<path d="M44.3419 68.1105C44.3613 68.1105 44.3807 68.1105 44.3807 68.0911C44.4 68.0718 44.3807 68.0331 44.3613 68.0331C42.6774 66.9492 40.1807 67.0266 40.1613 67.0266C40.1419 67.0266 40.1226 67.046 40.1226 67.0847C40.1226 67.104 40.1419 67.1234 40.1807 67.1234C40.2 67.1234 42.6581 67.0266 44.3226 68.1105H44.3419Z" fill="#FFE3CC"/>
<path d="M42.4837 68.885C42.5031 68.885 42.5031 68.885 42.5031 68.8657C42.5224 68.8463 42.5224 68.827 42.5031 68.8076C41.6902 67.7431 40.4127 67.627 40.4127 67.627C40.3934 67.627 40.3547 67.6463 40.3547 67.6657C40.3547 67.685 40.374 67.7237 40.3934 67.7237C40.4127 67.7237 41.6515 67.8399 42.4256 68.8657C42.4644 68.885 42.4644 68.885 42.4837 68.885Z" fill="#FFE3CC"/>
<path d="M33.0197 66.4846C33.039 66.4846 33.0584 66.4846 33.0584 66.4653C33.0777 66.4459 33.0584 66.4072 33.039 66.4072C33.0197 66.4072 31.1423 65.4588 28.9165 65.4395C28.8971 65.4395 28.8777 65.4588 28.8777 65.4782C28.8777 65.4975 28.8971 65.5169 28.9165 65.5169C31.1229 65.5362 32.981 66.4653 33.0003 66.4846C33.0197 66.4846 33.0197 66.4846 33.0197 66.4846Z" fill="#FFE3CC"/>
<path d="M33.4457 67.4526C33.465 67.4526 33.4844 67.4332 33.4844 67.4139C33.4844 67.3945 33.4844 67.3558 33.4457 67.3558C33.4263 67.3558 31.4328 66.7752 29.7682 67.201C29.7489 67.201 29.7295 67.2397 29.7295 67.259C29.7295 67.2784 29.7683 67.2977 29.7876 67.2977C31.4328 66.8526 33.407 67.4332 33.4457 67.4526C33.4263 67.4526 33.4263 67.4332 33.4457 67.4526Z" fill="#FFE3CC"/>
<path d="M30.8715 69.2526C30.8908 69.2526 30.8908 69.2526 30.9102 69.2332C31.6844 68.2461 33.6392 68.13 33.6586 68.13C33.6779 68.13 33.6973 68.1106 33.6973 68.0719C33.6973 68.0526 33.6779 68.0332 33.6392 68.0332C33.5618 68.0332 31.6263 68.13 30.8134 69.1751C30.794 69.1945 30.794 69.2332 30.8134 69.2332C30.8521 69.2526 30.8521 69.2526 30.8715 69.2526Z" fill="#FFE3CC"/>
<path d="M39.0784 66.2911C39.059 66.3492 39.1171 66.4266 39.1752 66.4266C39.2332 66.4459 39.3107 66.3879 39.3107 66.3298C39.33 66.2718 39.2719 66.1943 39.2139 66.1943C39.1558 66.1943 39.0784 66.233 39.0784 66.2911Z" fill="#D0A27D"/>
<path d="M39.0003 67.1623C38.9809 67.2203 39.039 67.2977 39.097 67.2977C39.1551 67.3171 39.2325 67.259 39.2325 67.201C39.2519 67.1429 39.1938 67.0655 39.1358 67.0655C39.0777 67.0461 39.0196 67.0848 39.0003 67.1623Z" fill="#D0A27D"/>
<path d="M39.3694 67.5685C39.3501 67.6265 39.4081 67.7039 39.4662 67.7039C39.5243 67.7233 39.6017 67.6652 39.6017 67.6072C39.621 67.5491 39.563 67.4717 39.5049 67.4717C39.4468 67.4717 39.3888 67.5104 39.3694 67.5685Z" fill="#D0A27D"/>
<path d="M38.2063 66.5236C38.187 66.5816 38.2257 66.6591 38.3031 66.6784C38.3612 66.6978 38.4386 66.6591 38.458 66.5816C38.4773 66.5236 38.4386 66.4462 38.3612 66.4268C38.2838 66.4075 38.2063 66.4462 38.2063 66.5236Z" fill="#D0A27D"/>
<path d="M37.6458 67.336C37.6264 67.3941 37.6652 67.4715 37.7426 67.4909C37.8006 67.5102 37.8781 67.4715 37.8974 67.3941C37.9168 67.336 37.8781 67.2586 37.8006 67.2393C37.7232 67.2393 37.6652 67.278 37.6458 67.336Z" fill="#D0A27D"/>
<path d="M38.4388 67.8205C38.4194 67.8785 38.4581 67.9559 38.5355 67.9753C38.5936 67.9947 38.671 67.9559 38.6904 67.8785C38.7097 67.8205 38.671 67.743 38.5936 67.7237C38.5162 67.7043 38.4388 67.743 38.4388 67.8205Z" fill="#D0A27D"/>
<path d="M35.1291 67.5107C35.0904 67.4527 35.0904 67.3753 35.1484 67.3365C35.2065 67.2978 35.2839 67.2978 35.3226 67.3559C35.3613 67.414 35.3613 67.4914 35.3033 67.5301C35.2452 67.5688 35.1678 67.5495 35.1291 67.5107Z" fill="#D0A27D"/>
<path d="M34.4142 67.375C34.3755 67.3169 34.3755 67.2395 34.4336 67.2008C34.4917 67.1621 34.5691 67.1621 34.6078 67.2202C34.6465 67.2782 34.6465 67.3556 34.5884 67.3944C34.5304 67.4331 34.4529 67.4331 34.4142 67.375Z" fill="#D0A27D"/>
<path d="M34.6662 66.6582C34.6275 66.6001 34.6275 66.5227 34.6856 66.484C34.7436 66.4453 34.821 66.4453 34.8597 66.5034C34.8984 66.5614 34.8985 66.6388 34.8404 66.6776C34.7823 66.7356 34.7049 66.7163 34.6662 66.6582Z" fill="#D0A27D"/>
<path d="M34.1037 67.9746C34.065 67.9165 34.065 67.8391 34.123 67.8004C34.1811 67.7617 34.2585 67.7617 34.2972 67.8198C34.336 67.8778 34.3359 67.9553 34.2779 67.994C34.2392 68.0327 34.1618 68.0327 34.1037 67.9746Z" fill="#D0A27D"/>
<path d="M33.6779 67.084C33.6392 67.0259 33.6392 66.9485 33.6973 66.9098C33.7553 66.8711 33.8327 66.8711 33.8715 66.9291C33.9102 66.9872 33.9102 67.0646 33.8521 67.1033C33.8134 67.142 33.736 67.142 33.6779 67.084Z" fill="#D0A27D"/>
<path d="M33.756 66.291C33.7173 66.233 33.7173 66.1555 33.7754 66.1168C33.8335 66.0781 33.9109 66.0781 33.9496 66.1362C33.9883 66.1942 33.9883 66.2717 33.9302 66.3104C33.8915 66.3491 33.8141 66.3491 33.756 66.291Z" fill="#D0A27D"/>
<path d="M39.136 59.0712C38.8263 58.9358 38.7683 58.239 38.9231 58.0261C39.0779 57.8132 41.3618 58.0841 41.5941 58.1228C41.8263 58.1616 41.7683 58.5874 41.7296 58.7035C41.6908 58.8003 39.4457 59.2067 39.136 59.0712Z" fill="#772638"/>
<path d="M33.4836 58.7236C33.7933 58.5881 33.832 57.872 33.6772 57.6591C33.5223 57.4462 31.2385 57.7558 31.0062 57.7945C30.7739 57.8333 30.8514 58.2591 30.8901 58.3752C30.9288 58.5107 33.1739 58.8784 33.4836 58.7236Z" fill="#772638"/>
<path d="M43.6652 52.8969C43.6652 52.8969 44.7684 51.7356 46.8974 51.5034C48.7361 51.3098 49.3555 52.3743 48.949 53.555C48.4845 54.9485 46.4136 56.7872 46.4136 56.7872L43.6652 52.8969Z" fill="#EC945B"/>
<path opacity="0.2" d="M46.3549 55.8579C46.3936 55.8579 46.4323 55.8386 46.4517 55.8192C46.5484 55.7418 48.7742 53.8063 47.8259 52.645C46.8775 51.4837 44.4581 53.0515 44.3613 53.1095C44.2839 53.1482 44.2646 53.245 44.3226 53.3224C44.3613 53.3999 44.4581 53.4192 44.5355 53.3611C44.5549 53.3418 46.8194 51.8708 47.6129 52.8386C48.3871 53.787 46.2968 55.587 46.2775 55.6063C46.2194 55.6644 46.2 55.7611 46.2581 55.8192C46.2775 55.8386 46.3162 55.8579 46.3549 55.8579Z" fill="black"/>
<path d="M42.9112 52.7029C42.9305 52.7223 43.4918 52.6836 43.5499 52.6836C43.8595 52.7029 44.2079 52.8191 44.4983 52.9352C45.1563 53.1675 45.7563 53.5739 46.2015 54.0965C45.9692 54.1546 45.737 54.1739 45.5047 54.1933C45.8144 54.3868 46.1047 54.5997 46.3563 54.8513C46.6079 55.1029 46.8015 55.432 46.8789 55.7804C46.7241 55.761 46.5692 55.761 46.4144 55.7417C46.4918 56.1094 46.5692 56.4771 46.6079 56.8449C46.6273 56.961 46.6273 57.0771 46.6079 57.1933C46.5886 57.3094 46.5112 57.4255 46.4144 57.4642C46.2789 57.5417 46.1047 57.5029 45.9886 57.4062C45.8725 57.3094 45.795 57.1739 45.7176 57.0384C45.6208 56.8449 45.5434 56.6513 45.466 56.4578C45.4079 56.3223 45.2918 56.1868 45.195 56.0513C45.0015 55.761 44.8079 55.4707 44.6144 55.1804C44.2466 54.6191 43.8596 54.0578 43.4918 53.4965C43.2789 53.2449 43.1047 52.9739 42.9112 52.7029Z" fill="#772638"/>
<path d="M30.2715 52.4711C30.2715 52.4711 28.1618 50.1485 26.7489 50.3614C25.336 50.5744 25.1231 51.6195 25.2779 52.8969C25.4328 54.1744 27.6392 55.3744 27.6392 55.3744L30.2715 52.4711Z" fill="#EC945B"/>
<path opacity="0.2" d="M27.4646 54.3677C27.484 54.3677 27.484 54.3677 27.484 54.3677C27.5614 54.3483 27.6195 54.2709 27.6001 54.1935C27.5808 54.1354 27.5227 54.0967 27.4646 54.0774C27.2711 53.9999 26.1485 53.0516 26.0904 52.2774C26.0711 51.987 26.2066 51.7741 26.4969 51.6193C27.5421 51.058 29.3421 52.587 29.3614 52.6064C29.4195 52.6645 29.5162 52.6451 29.5743 52.587C29.6324 52.529 29.613 52.4322 29.555 52.3741C29.4775 52.2967 27.5808 50.6709 26.3614 51.3483C25.8388 51.6386 25.6646 52.1225 25.8969 52.7032C26.1679 53.3806 27.155 54.3677 27.4646 54.3677Z" fill="black"/>
<path d="M31.0645 52.1805C31.0257 52.2386 30.5806 52.1611 30.5032 52.1611C30.1935 52.1611 29.8838 52.1998 29.5741 52.2386C28.9935 52.3353 28.3935 52.5482 27.929 52.916C28.3354 52.9547 28.7419 53.0321 29.129 53.1869C28.3161 53.245 27.5419 53.5353 26.8257 53.8837C26.5161 54.0386 26.187 54.2127 25.9548 54.4837C25.858 54.5805 25.7806 54.6966 25.7806 54.8321C25.7806 55.0837 26.0515 55.2386 26.2838 55.3353C26.9806 55.6256 27.6967 55.9353 28.4322 56.1289C28.4322 56.1676 31.0645 52.1998 31.0645 52.1805Z" fill="#772638"/>
</svg>
