<svg width="150" height="150" viewBox="0 0 150 150" fill="none" xmlns="http://www.w3.org/2000/svg">
<path d="M103.229 65.0391C103.229 65.0391 104.218 69.1349 104.492 73.8905C104.685 77.4091 105.206 85.9856 105.344 87.3326C105.454 88.652 113.198 100.5 113.638 103.001C114.049 105.338 111.715 114.409 111.111 117.488C111.056 117.845 110.726 118.093 110.397 118.093L102.652 118.038C102.213 118.038 101.883 117.653 101.938 117.213C102.076 116.141 102.762 114.876 103.421 114.134C104.383 113.062 106.525 113.255 106.662 113.117C107.019 112.76 107.953 106.355 107.541 104.87C107.211 103.716 95.1275 91.3734 92.2714 88.4871C89.4152 85.6283 86.4492 71.1416 86.4492 71.1416L103.229 65.0391Z" fill="#936338"/>
<path d="M108.118 92.5557C107.102 93.4078 105.866 94.0401 104.603 94.4249C102.845 94.9747 100.977 95.1396 99.1649 95.3046C99.11 95.3046 99.0276 95.3046 98.9727 95.332C99.4121 95.7994 99.8789 96.2667 100.318 96.734C102.186 96.2117 104.026 95.5245 105.811 94.7273C106.552 94.3974 107.294 94.0401 107.926 93.5178C108.09 93.3803 108.255 93.2154 108.42 93.023C108.283 92.8855 108.2 92.7206 108.118 92.5557Z" fill="#5E4936"/>
<path d="M111.193 97.9155C111.001 97.5857 110.808 97.2558 110.616 96.8984C110.424 97.0359 110.259 97.1458 110.094 97.2283C109.847 97.3657 109.573 97.5032 109.408 97.7506C109.298 97.9155 109.243 98.0805 109.216 98.2729C109.188 98.4103 109.188 98.5753 109.325 98.6577C109.38 98.6852 109.435 98.6852 109.49 98.6577C109.82 98.6028 110.122 98.4653 110.424 98.3004C110.699 98.1629 110.946 98.053 111.193 97.9155Z" fill="#5E4936"/>
<path d="M110.342 103.248C109.546 103.276 108.749 103.138 107.953 103.083C107.376 103.056 106.799 103.056 106.25 103.221C106.415 103.413 106.58 103.606 106.717 103.798C107.568 103.661 108.474 103.716 109.353 103.743C110.534 103.771 111.825 103.578 112.759 102.836C111.99 103.028 111.166 103.221 110.342 103.248Z" fill="#5E4936"/>
<path d="M109.133 109.818C108.529 109.708 107.925 109.57 107.32 109.543C107.32 109.598 107.32 109.625 107.293 109.68C108.199 109.9 109.078 110.175 110.012 110.34C110.424 110.423 110.863 110.505 111.275 110.533C111.715 110.56 112.154 110.56 112.593 110.533C112.621 110.368 112.648 110.203 112.703 110.065C111.522 110.12 110.314 110.038 109.133 109.818Z" fill="#5E4936"/>
<path d="M106.222 118.038C106.222 118.038 105.673 116.581 107.101 114.932C107.101 114.932 105.508 115.729 105.453 118.01L106.222 118.038Z" fill="#1B1C1E"/>
<path d="M103.202 117.982C103.202 117.982 103.119 115.426 104.959 114.656C104.959 114.656 103.641 115.673 103.724 117.982H103.202Z" fill="#1B1C1E"/>
<path d="M32.6229 85.4909C32.7327 89.5868 32.7052 92.9129 32.2658 98.7406C31.8814 103.936 31.7166 107.262 31.0575 112.705C31.0575 112.705 26.7183 112.98 25.1529 114.547C24.0544 115.646 24.3016 116.498 24.4389 117.406C24.4938 117.763 24.7959 118.01 25.1529 118.01L34.8474 118.038C35.2318 118.038 35.5614 117.735 35.5889 117.351C35.5889 117.351 41.6032 99.2079 42.4821 95.6618C43.251 92.6105 46.0797 85.1336 45.7227 83.7316C45.4206 82.5221 33.1996 74.7428 31.0849 76.0622C31.1124 76.0897 32.4855 80.5979 32.6229 85.4909Z" fill="#936338"/>
<path d="M44.4043 88.6242C44.4043 88.6242 44.4318 88.6242 44.4592 88.5967L44.4043 88.6242Z" fill="#6D4D2F"/>
<path d="M36.7974 88.2672C37.5938 88.4596 38.4177 88.652 39.1866 88.9544C39.4063 89.0368 39.626 89.1468 39.8457 89.2293C40.8893 89.5591 41.878 89.1193 42.8941 88.8994C43.0864 88.8444 43.2786 88.8169 43.4983 88.7894C43.8004 88.7345 44.1025 88.6795 44.4046 88.652C43.1413 88.3221 41.8505 88.8169 40.5598 88.7894C39.7084 88.762 38.8571 88.5146 38.0607 88.2672C37.2368 88.0198 36.4129 87.7174 35.5615 87.6349C35.4517 87.6349 35.3693 87.6074 35.2594 87.6074C34.9848 87.6074 34.6827 87.6074 34.4355 87.7449C34.4905 87.7174 34.6003 87.7724 34.6553 87.7724C34.7376 87.7724 34.82 87.7998 34.875 87.7998C35.0397 87.8273 35.177 87.8548 35.3418 87.9098C35.589 87.9923 35.8362 88.0747 36.1108 88.1297C36.303 88.1297 36.5502 88.2122 36.7974 88.2672Z" fill="#5E4936"/>
<path d="M39.9007 100.967C37.7585 101.736 35.3693 100.829 33.0898 101.159C34.82 101.874 36.715 102.039 38.5275 101.599C39.0218 101.489 39.5162 101.214 39.9007 100.967Z" fill="#5E4936"/>
<path d="M39.407 107.647C38.3085 107.234 37.0726 107.509 35.9467 107.867C34.8207 108.224 33.6398 108.609 32.4863 108.362C33.6672 108.774 34.8756 108.691 36.084 108.444C37.2923 108.197 38.5282 107.894 39.764 108.032C39.6542 107.894 39.5992 107.729 39.407 107.647Z" fill="#5E4936"/>
<path d="M29.1905 118.038C29.1905 118.038 28.6687 116.746 29.932 115.262C29.932 115.262 28.5039 115.976 28.5039 118.038H29.1905Z" fill="#1B1C1E"/>
<path d="M25.482 118.037C25.482 118.037 25.3721 115.756 27.0199 115.068C27.0199 115.068 25.8665 115.975 25.9489 118.037H25.482Z" fill="#1B1C1E"/>
<path d="M43.2776 93.0227C43.2226 92.9953 43.1952 92.9953 43.1402 92.9678C42.7283 92.8578 41.9868 93.2976 41.5748 93.3526C41.0531 93.4351 40.5038 93.4351 39.982 93.3801C39.3504 93.2976 38.7462 93.1327 38.1145 93.1602C36.6315 93.2427 35.4506 94.5071 33.9951 94.837C33.5007 94.947 32.9789 94.947 32.4846 95.0019C32.4571 95.3318 32.4572 95.6342 32.4297 95.9641C34.3796 95.7716 36.247 94.6446 38.2518 94.5621C39.5426 94.5071 40.8608 94.892 42.1241 94.6446C42.2889 94.6171 42.591 94.4522 42.8656 94.2597C43.0029 93.9024 43.1402 93.4901 43.2776 93.0227Z" fill="#5E4936"/>
<path d="M128.907 66.0557C126.93 64.6263 119.597 67.3202 114.599 66.413C109.601 65.5059 103.586 60.2005 103.586 60.2005C103.586 60.2005 91.8322 60.0356 101.307 66.8529C110.782 73.6701 117.4 73.3952 124.184 71.7734C129.154 70.6188 130.83 67.4576 128.907 66.0557Z" fill="#B27E49"/>
<path d="M129.649 67.1828C129.649 67.1278 129.622 67.0729 129.594 66.9904C129.512 66.743 129.402 66.5231 129.21 66.3307C129.127 66.2207 129.017 66.1382 128.88 66.0558C128.441 65.7259 127.342 65.6434 126.024 65.6709C123.772 65.8359 120.696 66.4681 117.812 66.6056C117.812 66.6056 118.279 67.6501 117.401 69.5744C116.467 71.636 116.934 72.7356 116.961 72.7631C117.565 72.7631 118.17 72.7356 118.746 72.7081C118.774 72.7081 118.801 72.7081 118.829 72.7081C119.405 72.6531 119.982 72.5981 120.559 72.5157C120.586 72.5157 120.641 72.5157 120.669 72.4882C120.916 72.4607 121.19 72.4057 121.438 72.3782C121.465 72.3782 121.493 72.3782 121.52 72.3507C121.795 72.2958 122.069 72.2408 122.344 72.1858C122.399 72.1858 122.426 72.1583 122.481 72.1583C122.701 72.1033 122.948 72.0758 123.168 72.0209C123.223 71.9934 123.305 71.9934 123.36 71.9659C123.635 71.9109 123.882 71.8559 124.156 71.7735C125.392 71.4711 126.436 71.0588 127.26 70.5914C127.562 70.399 127.836 70.2066 128.084 70.0142C128.248 69.8767 128.413 69.7393 128.55 69.6018C128.825 69.327 129.045 69.0521 129.237 68.7772C129.319 68.6397 129.402 68.5023 129.457 68.3648C129.484 68.2824 129.512 68.2274 129.539 68.1449C129.594 68.0075 129.622 67.87 129.649 67.7326C129.649 67.6776 129.676 67.5952 129.676 67.5402C129.704 67.4302 129.676 67.3203 129.649 67.1828Z" fill="#5E4936"/>
<path d="M105.866 62.6467C102.324 57.5338 93.5905 54.3176 84.1982 55.4721C72.3067 56.929 65.4135 56.4892 58.7949 55.8569C55.1973 55.4996 52.3412 54.2076 49.3202 53.9327C46.5739 53.6853 42.839 54.0427 39.5983 54.2901C34.1332 54.7024 34.3529 52.5033 32.2932 53.1355C31.6341 53.3555 29.7117 56.5442 28.6406 56.7916L31.3595 62.5367C31.3595 62.5367 29.9039 72.1854 31.1672 76.0613C32.9798 81.724 37.7858 83.8132 43.8826 85.49C50.0617 87.1943 52.8904 89.6683 65.4684 89.6408C72.444 89.6133 79.145 89.091 82.9074 87.7716C87.7958 86.0672 92.6018 83.0435 94.4693 80.8993C95.5404 79.6623 95.3207 75.539 96.5565 74.0271C102.214 66.8525 110.645 69.5189 105.866 62.6467Z" fill="#B27E49"/>
<path d="M82.8528 87.7724C85.7364 86.7553 88.5925 85.2984 90.8445 83.814C90.1854 83.1268 89.3615 82.6045 88.5376 82.1097C86.1758 80.7078 83.0999 79.4982 80.793 81.0101C79.9417 81.5599 79.3375 82.4396 78.6784 83.2092C75.1082 87.3876 69.0389 89.2018 63.7385 87.7174C61.7337 87.1402 59.8388 86.1231 57.8065 85.6558C53.4125 84.6387 48.3318 86.0956 44.5969 83.5666C43.9378 83.1268 43.361 82.577 42.7019 82.1372C41.0267 81.0101 38.967 80.6528 37.0446 79.993C36.1108 79.993 34.6278 78.976 33.8589 78.5086C33.2272 78.0963 32.0188 76.5569 31.2773 76.502C33.1997 81.8623 37.8959 83.869 43.8279 85.5183C50.0071 87.2226 52.8358 89.6966 65.4138 89.6691C72.3619 89.6416 79.0903 89.0919 82.8528 87.7724Z" fill="#E1C8B2"/>
<path opacity="0.2" d="M39.1316 54.3174C34.1059 54.5648 34.2706 52.5306 32.2659 53.1353C31.6067 53.3552 29.6843 56.544 28.6133 56.7914L31.3321 62.5365C31.3321 62.5365 29.8766 72.1851 31.1399 76.0611C31.387 76.8308 31.6891 77.518 32.0461 78.1777C32.4032 78.0403 33.996 77.3256 35.122 76.0061C36.4128 74.5217 36.6325 72.8724 36.6325 72.8724L37.0993 74.6317C38.5274 73.5046 39.6534 72.2951 39.928 70.6183L40.34 71.4429C40.34 71.4429 42.4546 68.6666 42.7842 62.3166C42.9215 59.8701 42.0976 58.1658 41.1364 56.6539C40.5871 55.7743 39.8731 55.0321 39.1316 54.3174Z" fill="black"/>
<path d="M43.7738 55.4453C44.0209 55.5828 44.2681 55.7202 44.4878 55.8852C44.7075 56.0501 44.8998 56.2425 45.0371 56.4624C45.2842 56.8473 45.5039 57.3971 45.9708 57.3971C46.0257 57.3971 46.0532 57.3971 46.0807 57.3696C46.1356 57.3421 46.1356 57.2596 46.1356 57.2046C46.1631 56.7098 45.9159 56.2425 45.5863 55.8577C45.2568 55.4728 44.8723 55.1704 44.5702 54.7856C44.4603 54.6756 44.2406 54.3458 43.966 53.9609C43.4168 54.0159 42.8675 54.0434 42.3457 54.0709C42.84 54.7031 43.5266 55.3079 43.7738 55.4453Z" fill="#5E4936"/>
<path d="M89.1972 58.0296C89.3345 58.222 89.4718 58.4144 89.5817 58.6069C89.6915 58.7993 89.7465 59.0192 89.7739 59.2666C89.8288 59.6514 89.8014 60.1462 90.1309 60.3112C90.1584 60.3387 90.2133 60.3387 90.2408 60.3387C90.2957 60.3387 90.3232 60.2837 90.3506 60.2287C90.5429 59.8714 90.5429 59.404 90.433 58.9917C90.3232 58.5794 90.1584 58.1945 90.0485 57.7822C89.9662 57.4523 89.7465 55.7205 89.1972 55.2257C89.005 55.2257 88.8127 55.1982 88.593 55.1982C88.1811 55.748 88.9775 57.6722 89.1972 58.0296Z" fill="#5E4936"/>
<path d="M68.8193 75.0996C68.7644 75.0996 68.682 75.1271 68.6545 75.1821C68.6271 75.2371 68.6271 75.292 68.5996 75.347C68.5996 75.4295 68.5996 75.5119 68.5996 75.5669C68.6545 76.1992 69.0116 76.8589 69.2038 77.4087C69.2862 77.6561 69.3686 77.876 69.5059 78.0959C69.5608 78.1509 69.6157 78.2333 69.6707 78.2333C69.8354 78.2608 69.9178 78.0684 69.9178 77.9035C69.9453 77.5461 69.8354 77.2163 69.7531 76.8589C69.5883 76.3641 69.5883 75.8693 69.2862 75.4295C69.2038 75.2645 69.0116 75.0996 68.8193 75.0996Z" fill="#5E4936"/>
<path d="M59.5912 67.5681C59.4265 67.5406 59.3166 67.733 59.3166 67.8705C59.2617 68.2278 59.3441 68.5577 59.4265 68.915C59.5363 69.4373 59.5089 69.9046 59.7835 70.3994C59.8933 70.5919 60.0581 70.7843 60.2504 70.7843C60.3053 70.7843 60.3877 70.7568 60.4151 70.7293C60.4426 70.7018 60.4701 70.6468 60.4701 70.5919C60.4701 70.5094 60.4975 70.4269 60.4975 70.3719C60.4975 69.7397 60.1954 69.0525 60.0306 68.4752C59.9757 68.2278 59.8933 67.9804 59.7835 67.7605C59.7286 67.6505 59.6736 67.5956 59.5912 67.5681Z" fill="#5E4936"/>
<path d="M78.7606 70.2894C78.0466 70.5093 78.9803 72.7909 79.2 73.1757C79.3373 73.3681 79.4746 73.5606 79.5845 73.753C79.6943 73.9454 79.7493 74.1653 79.7767 74.4127C79.8316 74.7976 79.8042 75.2924 80.1337 75.4573C80.1612 75.4848 80.2161 75.4848 80.2436 75.4848C80.2985 75.4848 80.326 75.4298 80.3534 75.3748C80.5457 75.0175 80.5457 74.5502 80.4358 74.1378C80.326 73.7255 80.1612 73.3407 80.0513 72.9283C79.9415 72.5435 79.6669 70.0145 78.7606 70.2894Z" fill="#5E4936"/>
<path d="M54.1812 61.8221C54.1538 61.3273 54.0988 60.805 53.9066 60.3377C53.7693 59.9804 52.7806 58.7708 52.3961 59.4856C52.2039 59.8154 53.0278 61.1349 53.1376 61.5197C53.3299 62.2344 53.5496 62.9492 53.7418 63.6364C53.7968 63.8013 53.8517 63.9937 53.9615 64.1312C54.0714 64.2686 54.2911 64.3511 54.4284 64.2686C54.5932 64.1862 54.6481 63.9937 54.6206 63.8013C54.5932 63.6364 54.5108 63.4714 54.4284 63.3065C54.2636 62.8392 54.2087 62.3444 54.1812 61.8221Z" fill="#5E4936"/>
<path d="M97.9019 64.4616C97.9568 64.5166 98.0392 64.5991 98.1216 64.6266C98.2589 64.654 98.3962 64.5716 98.4786 64.4341C98.5335 64.2967 98.5335 64.1592 98.5335 64.0218C98.5335 63.582 98.5061 63.0872 98.3138 62.7023C98.0941 62.29 97.6547 61.9876 97.2153 62.0426C97.1879 62.0426 97.1604 62.18 97.1604 62.2075C97.1329 62.2625 97.1329 62.3175 97.1055 62.3999C97.1055 62.5099 97.1055 62.6199 97.1329 62.7573C97.1879 63.0322 97.2153 63.3346 97.3252 63.6095C97.435 63.8569 97.5723 64.1043 97.7371 64.2967C97.792 64.3242 97.847 64.4066 97.9019 64.4616Z" fill="#5E4936"/>
<path d="M63.7382 84.1988C63.848 84.2263 63.9579 84.1438 64.0128 84.0064C64.0677 83.8689 64.0677 83.7315 64.0677 83.5941C64.0677 83.1542 64.0403 82.6594 63.8755 82.2746C63.7107 81.8623 63.3537 81.5599 62.9692 81.6149C62.8594 81.9172 62.8319 82.2471 62.8868 82.577V82.2196C62.9418 82.9068 63.1889 83.5391 63.5734 84.0339C63.6283 84.1163 63.6833 84.1713 63.7382 84.1988Z" fill="#5E4936"/>
<path d="M80.6275 57.5065C80.6 57.4241 80.5451 57.3416 80.4627 57.3141C80.3529 57.2591 80.2156 57.3141 80.1332 57.3966C79.9135 57.589 79.8036 57.9189 79.7487 58.1938C79.6938 58.3312 79.7212 58.4961 79.7762 58.6611C79.8036 58.771 79.8311 58.9085 79.9135 58.9909C79.9959 59.0734 80.1057 59.1559 80.243 59.1284C80.3803 59.1009 80.4627 58.9635 80.4902 58.8535C80.6275 58.5236 80.6824 58.1663 80.7099 57.8089C80.655 57.6715 80.655 57.589 80.6275 57.5065Z" fill="#5E4936"/>
<path d="M46.4649 65.176C46.3551 65.121 46.2177 65.121 46.1079 65.2035C45.998 65.286 45.998 65.4509 45.998 65.5609C46.0255 65.9182 46.1079 66.2756 46.2727 66.6054C46.3001 66.6879 46.3551 66.7704 46.41 66.8253C46.4649 66.8803 46.5473 66.9353 46.6572 66.9353C46.767 66.9353 46.8769 66.8253 46.9318 66.7154C47.0416 66.468 46.9867 66.0831 46.9318 65.8357C46.9043 65.6708 46.7945 65.5609 46.7121 65.4234C46.6572 65.3135 46.5748 65.231 46.4649 65.176Z" fill="#5E4936"/>
<path d="M74.9981 63.5823C74.8883 63.5273 74.751 63.5273 74.6411 63.6098C74.5313 63.6922 74.5312 63.8572 74.5312 63.9671C74.5587 64.3245 74.6411 64.6818 74.8059 65.0117C74.8333 65.0942 74.8883 65.1766 74.9432 65.2316C74.9981 65.2866 75.0805 65.3416 75.1904 65.3416C75.3002 65.3416 75.4101 65.2316 75.465 65.1216C75.5748 64.8742 75.5199 64.4894 75.465 64.242C75.4375 64.0771 75.3277 63.9671 75.2453 63.8297C75.1904 63.7472 75.108 63.6372 74.9981 63.5823Z" fill="#5E4936"/>
<path d="M97.5442 57.4799C97.4069 57.5074 97.3245 57.6174 97.2421 57.7273C97.0499 58.0297 96.9675 58.3871 96.9126 58.7444C96.9126 58.8269 96.8851 58.9368 96.9126 59.0193C96.9401 59.1018 96.9675 59.1842 97.0499 59.2392C97.1598 59.2942 97.2971 59.2667 97.4069 59.2117C97.6266 59.0468 97.7914 58.7169 97.9013 58.4695C97.9562 58.3321 97.9562 58.1672 97.9287 58.0022C97.9287 57.8923 97.9013 57.7548 97.8463 57.6449C97.7914 57.5349 97.6816 57.4524 97.5442 57.4799Z" fill="#5E4936"/>
<path d="M49.0736 72.5713C49.101 72.6537 49.156 72.7362 49.2109 72.7912C49.2658 72.8461 49.3482 72.9011 49.4581 72.9011C49.5679 72.9011 49.6778 72.7912 49.7327 72.6812C49.8425 72.4338 49.7876 72.049 49.7327 71.8016C49.7052 71.6366 49.5954 71.5267 49.513 71.3892C49.4306 71.2793 49.3482 71.1968 49.2384 71.1418C49.1285 71.0869 48.9912 71.0869 48.8813 71.1693C48.7715 71.2518 48.7715 71.4167 48.7715 71.5267C48.7989 71.884 48.9088 72.2414 49.0736 72.5713Z" fill="#5E4936"/>
<path d="M51.8748 77.4635C51.71 77.4085 51.5178 77.5185 51.3805 77.6834C51.0784 78.0408 50.9411 78.673 50.8587 79.1403C50.8038 79.4152 50.8587 79.6626 50.9136 79.91C50.9411 80.1025 50.996 80.2949 51.1333 80.4323C51.2432 80.5698 51.4354 80.6247 51.6002 80.5423C51.7924 80.4598 51.8748 80.2124 51.9572 79.9925C52.1494 79.3877 52.2044 78.783 52.2044 78.1782C52.2044 78.0408 52.2044 77.8759 52.1494 77.7384C52.0945 77.601 51.9847 77.491 51.8748 77.4635Z" fill="#5E4936"/>
<path d="M63.6566 68.9698C63.794 68.9973 63.9038 68.9149 63.9862 68.8049C64.0411 68.6949 64.0411 68.5575 64.0411 68.42C64.0411 68.0077 64.0137 67.5679 63.8214 67.183C63.6292 66.7982 63.2172 66.5233 62.8053 66.5783C62.6954 66.8532 62.6405 67.183 62.6954 67.4579L62.668 67.1281C62.7504 67.7603 62.9975 68.3376 63.4369 68.8049C63.4919 68.8874 63.5742 68.9423 63.6566 68.9698Z" fill="#5E4936"/>
<path d="M44.5134 75.5123C44.5409 74.8526 43.6895 74.4403 43.1677 74.8526C42.8931 75.0725 42.8107 75.4573 42.948 75.7872C43.0854 76.1171 43.4698 76.3095 43.8269 76.2545C44.1839 76.1995 44.486 75.8697 44.5134 75.5123Z" fill="#5E4936"/>
<path d="M72.1685 84.3909C72.5255 84.3359 72.91 84.2259 73.1572 83.9785C73.4044 83.7037 73.5142 83.2913 73.2945 82.989C72.8551 82.3292 72.0587 82.1643 71.7566 83.0164C71.6467 83.2913 71.5918 83.5937 71.5918 83.8961C71.5918 84.0335 71.5918 84.1985 71.7016 84.3084C71.8115 84.3909 72.0037 84.3909 72.1685 84.3909Z" fill="#5E4936"/>
<path d="M73.461 58.6068C73.5159 58.7167 73.6532 58.8817 73.7631 58.7992C73.9828 58.3319 73.9004 57.7821 73.7081 57.2873C73.5983 56.9574 73.4335 56.6276 73.2962 56.3252C73.049 56.3252 72.8019 56.3252 72.5547 56.3527C72.9941 57.0399 73.1314 57.8646 73.461 58.6068Z" fill="#5E4936"/>
<path d="M36.2756 78.4533C36.4678 78.6732 36.66 78.9481 36.9347 79.0856C37.2368 79.2505 37.7036 79.1131 37.7036 78.7282C37.7311 78.3159 37.2642 78.1509 36.9896 78.0135C36.0833 77.6012 35.5341 76.749 34.7926 76.1168C34.6827 76.0343 34.5179 75.9518 34.4355 76.0618C34.4355 76.5841 34.7651 77.0514 35.1221 77.4087C35.5066 77.7661 35.9185 78.0685 36.2756 78.4533Z" fill="#5E4936"/>
<path d="M84.1708 64.3245C84.3081 64.2971 84.4179 64.1871 84.5003 64.0771C84.7475 63.6923 84.6926 63.17 84.5003 62.7577C84.3905 62.5378 84.2532 62.3453 84.0609 62.2079C83.8412 62.0705 83.5391 62.0705 83.292 62.043C83.1821 62.043 83.0997 62.043 82.9899 62.0705C82.4131 62.3179 83.4293 63.5549 83.594 63.8572C83.7039 64.1046 83.9236 64.3795 84.1708 64.3245Z" fill="#5E4936"/>
<path d="M62.8594 56.1875C63.7931 58.3316 65.3585 60.2559 65.8254 62.5649C65.9078 63.0047 66.0725 63.527 66.5119 63.582C66.6767 62.7024 66.3197 61.7952 66.0176 60.9431C65.743 60.2559 65.4958 59.5686 65.2212 58.8814C65.0289 58.3866 64.8367 57.8918 64.5072 57.4795C64.26 57.1771 63.9579 56.9022 63.7657 56.5723C63.7107 56.4624 63.6558 56.3524 63.6009 56.215C63.3812 56.215 63.1065 56.1875 62.8594 56.1875Z" fill="#5E4936"/>
<path d="M95.8984 64.6543C94.7999 64.4894 93.6739 66.4686 95.1569 66.606C96.1181 66.716 97.1891 64.8467 95.8984 64.6543Z" fill="#5E4936"/>
<path d="M77.4695 88.6242C77.854 88.0469 78.3208 87.5521 78.7053 86.9749C79.3644 85.9578 79.1447 85.1606 79.0074 84.061C78.8426 82.7416 79.2546 81.3671 78.9525 80.0476C78.8701 79.6353 78.5955 79.168 78.1561 79.1955C78.3483 79.8552 78.3758 80.5424 78.3758 81.2297C78.3758 82.6591 78.4307 84.0885 78.211 85.4905C78.1561 85.7653 78.1011 86.0402 78.0462 86.3151C77.799 87.2772 77.3596 88.2393 76.6181 88.8991C76.5358 88.9541 76.4808 89.0365 76.3984 89.0915C76.7005 89.064 77.0026 89.009 77.2773 88.9815C77.3322 88.8716 77.4146 88.7341 77.4695 88.6242Z" fill="#5E4936"/>
<path d="M67.7768 86.6451C67.7493 86.3977 67.6395 86.0679 67.3923 86.0954C67.2275 86.0954 67.1177 86.2878 67.0628 86.4527C66.7881 87.1125 66.7332 87.8547 66.5684 88.5694C66.4586 88.9817 66.2938 89.3391 66.1016 89.6964C66.4586 89.6964 66.8431 89.6964 67.2001 89.6964C67.5571 88.6793 67.8317 87.6622 67.7768 86.6451Z" fill="#5E4936"/>
<path d="M19.7148 54.9229C20.2366 54.0432 20.6486 51.7616 20.8134 50.0298C21.0056 47.7757 21.5274 43.2126 22.2414 43.295C22.5985 43.3225 23.4498 46.0714 24.8504 47.8307C26.251 49.59 28.2833 50.3872 29.0522 50.4697C29.7663 50.5521 19.7148 54.9229 19.7148 54.9229Z" fill="#B27E49"/>
<path d="M21.1427 47.2809C21.4448 47.1985 21.7743 47.3084 22.1039 47.2809C22.3785 47.2534 22.6532 47.1435 22.8729 46.9785C23.0102 46.8686 23.12 46.7037 23.2848 46.5937C23.4221 46.4837 23.5869 46.4013 23.7517 46.3463C23.7791 46.3463 23.8341 46.3188 23.8615 46.3188C23.0376 44.8344 22.5158 43.3225 22.2412 43.295C21.7743 43.2401 21.3624 45.2742 21.1152 47.3084C21.1152 47.2809 21.1427 47.2809 21.1427 47.2809Z" fill="#231F20"/>
<path d="M22.7635 44.1196C22.2142 42.8001 22.1593 39.6389 23.2853 37.9896C23.2853 37.9896 21.8847 39.0067 21.7199 40.5461C21.7199 40.5461 20.7587 37.8796 18.7539 37.7422C18.7539 37.7422 20.5939 38.292 21.2256 41.8105C21.2256 41.8105 20.7862 40.8484 19.6053 40.1612C19.6053 40.1612 21.6101 41.838 21.308 45.7964C21.1981 47.2808 22.7635 44.1196 22.7635 44.1196Z" fill="#231F20"/>
<path d="M35.4237 72.9007C35.4237 72.9007 35.204 73.6704 33.9132 75.1823C32.6225 76.6667 30.4529 77.4639 30.4529 77.4639L30.4804 76.9416C29.9586 77.9037 27.8989 78.9208 27.8989 78.9208C26.4433 77.6838 25.3448 75.8146 25.3448 75.8146L25.3997 76.5018C25.3997 76.5018 23.4224 75.7321 22.3239 72.5709C22.1591 72.1036 20.6212 70.3993 20.2916 70.0144C20.0445 69.712 20.0994 69.3822 20.017 69.0248C19.9346 68.6125 19.7698 68.2276 19.6874 67.8428C19.6325 67.5404 19.5776 67.2105 19.5776 66.8807C19.5776 66.7432 19.5227 66.0835 19.605 66.0285C19.5227 66.0835 19.4128 66.1385 19.3304 66.166C19.303 65.8086 19.3304 65.4787 19.3579 65.1214C19.248 65.2313 19.1382 65.3138 19.0009 65.3963C18.6988 64.819 18.5065 64.2417 18.4241 63.582C18.3967 63.4446 18.122 62.5374 18.2594 62.455C18.1495 62.5099 18.0122 62.5374 17.9023 62.5374C18.1495 61.7677 18.3143 60.9706 18.3418 60.1734C18.3692 59.5136 18.3418 58.8539 18.4516 58.1667C18.6164 56.9847 19.0558 55.9126 19.7424 54.9505C21.9394 51.7618 26.0588 50.5798 29.7389 50.3324C33.0894 50.085 34.7646 50.6897 37.2088 52.7789C38.2524 53.6585 39.2411 54.6481 39.9826 55.8026C40.9163 57.3145 41.7402 59.0188 41.6303 61.4654C41.3008 67.8153 39.1861 70.5917 39.1861 70.5917L38.7742 69.767C38.527 71.4438 37.401 72.6533 35.9455 73.7804L35.4237 72.9007Z" fill="#B27E49"/>
<path d="M32.6777 50.4145C34.0509 50.5245 35.5064 50.1396 37.4563 48.7652C39.6259 47.2533 40.999 43.9546 41.2187 44.0921C41.4933 44.257 42.5369 47.2258 42.2898 49.3424C41.9327 52.5586 39.4611 56.737 39.4611 56.737L32.6777 50.4145Z" fill="#B27E49"/>
<path d="M41.218 44.0924C41.0807 44.0099 40.5864 45.082 39.7625 46.2915C39.735 46.5114 39.7625 46.7038 40.0097 46.8687C40.2843 47.0337 40.6688 46.9237 40.9709 47.0062C41.1631 47.0612 41.3279 47.1986 41.5201 47.2811C41.7398 47.3635 41.987 47.336 42.2342 47.2536C41.9595 45.6867 41.4103 44.2023 41.218 44.0924Z" fill="#231F20"/>
<path d="M40.752 44.6973C41.6033 42.993 42.18 41.0138 40.9991 39.1445C40.9991 39.1445 42.6469 40.8214 41.9054 42.993L44.4595 41.3436C43.5806 41.9759 41.6857 44.0376 41.5484 45.6869L40.752 44.6973Z" fill="#231F20"/>
<path d="M43.5796 40.7939C43.5796 40.7939 41.8769 41.5361 41.4375 43.7902L41.9593 44.2575C41.9593 44.2575 41.9593 42.0035 43.5796 40.7939Z" fill="#231F20"/>
<path d="M42.2899 49.3418C42.4547 47.9399 42.0428 46.1531 41.6858 45.0811C41.6858 45.0811 41.4935 46.7029 40.2302 48.902C38.9669 51.1011 36.6875 51.4035 36.6875 51.4035C36.6875 51.4035 37.8959 53.5201 40.4225 54.9221C41.164 53.4102 42.0702 51.2111 42.2899 49.3418Z" fill="#886642"/>
<path d="M36.1367 51.7342C36.1367 51.7342 36.9881 51.2944 37.0979 50.4697C37.0979 50.4697 37.5923 51.1295 37.4 51.9541C37.4 51.9541 37.8943 51.5418 38.4161 51.7067L37.812 52.6139C37.812 52.6139 38.9379 52.4764 39.5421 52.8613C39.5421 52.8613 38.8281 53.0812 38.5535 53.411C38.5535 53.411 40.6132 53.521 40.723 54.5106C40.8603 55.4727 40.366 55.5827 40.366 55.5827L38.6358 55.3078C38.6358 55.3078 36.5487 53.8509 36.5212 53.8234C36.4937 53.7959 36.1367 51.7342 36.1367 51.7342Z" fill="#B27E49"/>
<path opacity="0.2" d="M22.7347 66.3303H22.7073C22.6523 66.3028 22.6523 66.2753 22.6523 66.2203C22.8171 65.753 23.2016 64.681 23.5312 63.7463C23.6685 63.334 23.8058 62.9492 23.9156 62.6468C23.9431 62.5918 23.9706 62.5918 24.0255 62.5918C24.0804 62.6193 24.0804 62.6468 24.0804 62.7018C23.9706 63.0041 23.8333 63.4165 23.6959 63.8013C23.3664 64.7359 22.9819 65.808 22.8171 66.2753C22.8171 66.3028 22.7897 66.3303 22.7347 66.3303Z" fill="black"/>
<path opacity="0.2" d="M26.4167 66.9078C26.3893 66.9078 26.3893 66.9078 26.3618 66.8803C26.3343 66.8528 26.3069 66.7978 26.3618 66.7703C27.5152 65.3684 28.7511 63.2518 28.7785 63.2518C28.806 63.2243 28.8609 63.1968 28.8884 63.2243C28.9158 63.2518 28.9433 63.3067 28.9158 63.3342C28.9158 63.3617 27.6525 65.4784 26.4991 66.8803C26.4716 66.8803 26.4442 66.9078 26.4167 66.9078Z" fill="black"/>
<path d="M23.971 67.3756C23.971 67.3756 21.5268 66.5234 20.2361 67.4031C19.1101 68.2003 19.522 69.8221 20.2086 70.5093C20.7853 71.0866 21.2522 71.1416 21.2522 71.1416C21.2522 71.1416 21.005 72.0212 22.0212 72.9009C23.0373 73.7805 25.1794 73.6706 26.3603 73.2033C27.6511 72.7085 27.6236 71.3065 27.6236 71.3065C27.6236 71.3065 28.7496 71.1141 29.2714 69.7946C29.7108 68.7226 29.0791 67.568 27.0469 67.3481C25.866 67.2107 24.9872 67.3481 24.9872 67.3481L23.971 67.3756Z" fill="#E1C8B2"/>
<path d="M23.3941 68.6943C23.3941 68.6943 23.7511 68.8318 23.7511 69.1616C23.7511 69.4915 23.7785 69.8214 23.5863 70.1238C23.3941 70.3986 22.7899 70.9759 21.252 71.1408C21.252 71.1408 23.2567 71.3058 23.8609 70.3712C23.8609 70.3712 24.218 71.7731 27.6234 71.2783C27.6234 71.2783 24.6574 71.5532 24.0806 69.9313C23.9708 69.629 24.0532 69.2166 24.1081 69.0242C24.1356 68.9142 24.3553 68.8043 24.3553 68.8043L23.3941 68.6943Z" fill="#231F20"/>
<path d="M24.1361 66.4956C25.5642 66.5231 25.9487 67.0179 26.0036 67.2928C26.0585 67.5677 25.6466 67.98 25.2072 68.3099C24.7678 68.6398 24.1911 68.9147 23.834 68.8597C23.477 68.8047 23.0651 68.4748 22.7904 68.09C22.5158 67.7051 22.3236 67.2928 22.406 67.0729C22.4884 66.8255 22.7904 66.4681 24.1361 66.4956Z" fill="#231F20"/>
<path d="M22.2964 58.991C22.7083 58.826 23.2027 58.771 23.5597 59.0459C23.7794 59.2109 24.054 59.6507 24.0815 59.9256C24.1639 60.4479 24.1089 61.245 23.9716 61.9598C23.9442 62.0697 23.6421 61.6299 23.5597 61.7124C23.4773 61.7948 23.34 61.8498 23.2027 61.8773C22.7083 61.9873 22.214 62.0422 21.6922 62.0422C21.3901 62.0422 21.7746 61.355 21.5 61.2176C21.2253 61.0801 20.4014 61.0526 20.5388 60.7777C20.6761 60.4479 20.9232 60.2554 21.1429 59.9806C21.4725 59.5132 21.7746 59.1834 22.2964 58.991Z" fill="#E1C8B2"/>
<path d="M23.9449 60.8878C23.7526 60.1456 23.2308 59.7333 22.5168 59.6783C21.8028 59.6233 21.0887 60.2281 20.8416 60.448C20.5669 60.6954 20.3747 60.8329 20.7592 61.0528C21.1711 61.2727 21.1986 62.0149 21.9401 62.2073C22.6816 62.3722 23.3681 62.0699 23.7252 62.0699C23.835 62.0699 24.0547 62.1248 24.1096 62.0149C24.192 61.8225 24.0547 61.3826 23.9449 60.8878Z" fill="#231F20"/>
<path d="M20.8138 60.4482C19.9625 60.5857 19.4681 60.6407 18.3147 60.6956C18.2872 60.7231 18.2872 60.8881 18.2598 60.943C19.3583 61.0805 19.8252 61.053 20.7314 61.053L20.8138 60.4482Z" fill="#231F20"/>
<path d="M23.3677 60.9155C23.2304 60.3932 22.8459 60.0908 22.3516 60.0633C21.8298 60.0083 21.3354 60.4482 21.1432 60.6131C20.951 60.778 20.8136 60.888 21.0883 61.0529C21.3629 61.2179 21.3904 61.7401 21.9396 61.8776C22.4614 62.015 22.9558 61.7676 23.2029 61.7676C23.2853 61.7676 23.4501 61.7951 23.4776 61.7401C23.5599 61.5752 23.4501 61.2453 23.3677 60.9155Z" fill="#FFD5BA"/>
<path d="M22.9832 61.9047C23.148 61.6298 24.0268 61.8772 23.9718 61.4649C23.9169 61.0251 23.6423 60.2554 23.4775 60.1454C23.3951 60.0629 23.1754 59.843 23.0656 59.8705C22.9283 59.9255 22.2691 59.953 22.0494 60.008C21.8023 60.3103 21.665 60.8051 21.8297 61.19C22.022 61.6848 22.5163 61.9597 22.9832 61.9047Z" fill="#231F20"/>
<path d="M30.6996 59.596C30.2602 59.4585 29.7384 59.4035 29.4088 59.7059C29.1891 59.8983 28.9694 60.3657 28.9145 60.6405C28.7497 61.4377 28.887 62.1799 29.1067 62.7022C29.1342 62.7847 29.4638 62.3723 29.5187 62.4548C29.6285 62.5373 29.7658 62.5648 29.8757 62.5923C30.3975 62.6747 30.6447 61.9875 31.1665 61.96C31.4686 61.9325 31.496 61.7951 31.7706 61.6301C32.0453 61.4652 31.5509 61.4652 31.5235 61.1628C31.496 60.8055 32.3474 60.833 32.1277 60.5581C31.7706 60.0908 31.2214 59.7609 30.6996 59.596Z" fill="#E1C8B2"/>
<path d="M29.0802 61.5752C29.1351 60.778 29.547 60.2832 30.2611 60.0908C30.9751 59.8983 31.799 60.3382 32.1011 60.5031C32.4032 60.668 32.6229 60.778 32.2933 61.0804C31.9363 61.3827 32.0736 62.1524 31.3596 62.4548C30.6455 62.7847 29.904 62.5923 29.547 62.6747C29.4372 62.7022 29.2175 62.8122 29.1351 62.7022C28.9978 62.5648 29.0252 62.07 29.0802 61.5752Z" fill="#231F20"/>
<path d="M29.382 61.6302C29.4094 61.0804 29.7115 60.7506 30.1784 60.6131C30.6727 60.4757 31.222 60.7781 31.4417 60.9155C31.6614 61.0255 31.7987 61.1079 31.579 61.3278C31.3593 61.5477 31.4142 62.0425 30.9474 62.2899C30.4805 62.5373 29.9587 62.3999 29.7115 62.4549C29.6292 62.4824 29.4918 62.5373 29.4369 62.4824C29.3271 62.2899 29.3545 61.9601 29.382 61.6302Z" fill="#FFD5BA"/>
<path d="M29.9865 60.9428C29.7943 61.4926 29.9865 62.0699 30.4259 62.3997C30.7829 62.3997 31.085 62.2348 31.2498 62.1798C31.3322 62.1523 31.442 62.1249 31.5519 62.0974C31.9638 61.9599 32.0462 60.9703 31.854 60.8054C31.6892 60.613 31.4695 60.4205 31.1674 60.1731C31.1399 60.1457 31.1399 60.1457 31.1125 60.1182C30.6456 60.1457 30.1787 60.448 29.9865 60.9428Z" fill="#231F20"/>
<path d="M32.0996 60.5029C32.0996 60.5029 33.1707 61.0252 36.4662 61.3826C33.4728 61.465 32.0996 61.1077 32.0996 61.1077V60.5029Z" fill="#231F20"/>
<path d="M28.9977 58.9082C28.9977 58.8807 28.9702 58.8258 28.9702 58.7983C28.9427 58.6333 28.9977 58.4409 29.0526 58.276C29.1899 57.8087 29.3547 57.3414 29.5195 56.9015C29.6842 56.4617 29.7666 56.0219 29.9863 55.637C30.1786 55.3072 30.4532 55.0048 30.8377 54.8674C30.9475 54.8399 31.0848 54.8124 31.1123 54.9223C31.1398 55.0048 31.0848 55.0873 31.0025 55.1422C30.8377 55.2797 30.6729 55.4171 30.5356 55.6096C30.2884 55.9669 30.3159 56.3518 30.261 56.7641C30.1511 57.3688 30.0962 58.0011 29.9314 58.6059C29.8765 58.7708 29.8215 58.9357 29.7117 59.0732C29.6018 59.2106 29.4096 59.2931 29.2448 59.2381C29.135 59.1831 29.0251 59.0457 28.9977 58.9082Z" fill="#5E4936"/>
<path d="M33.2547 58.497C32.8976 58.2221 32.4857 58.0022 32.0188 58.0022C31.9364 58.0022 31.8266 58.0022 31.7717 57.9472C31.7167 57.8922 31.7167 57.7823 31.7717 57.6998C31.909 57.4249 32.266 57.4249 32.5681 57.3699C33.0899 57.2875 33.5568 56.9576 33.9687 56.6552C34.0511 56.6002 34.1609 56.5453 34.2433 56.5727C34.3257 56.6002 34.3806 56.7102 34.3806 56.7927C34.3806 57.0675 34.1335 57.2325 33.9138 57.3974C33.8039 57.4524 33.6941 57.5349 33.6391 57.6448C33.5842 57.8097 33.6391 57.9747 33.7215 58.1121C33.9962 58.6344 34.3806 59.0742 34.6278 59.5965C34.6553 59.6515 34.6827 59.734 34.6827 59.7889C34.6827 59.8439 34.6278 59.9264 34.5729 59.9264C34.3257 59.9539 34.1335 59.4591 34.0236 59.2941C33.7765 59.0193 33.5293 58.7444 33.2547 58.497Z" fill="#5E4936"/>
<path d="M24.494 58.6067C24.5215 58.5792 24.549 58.5518 24.549 58.5243C24.6313 58.3593 24.6588 58.1944 24.6588 58.002C24.7137 57.5072 24.7412 57.0399 24.7687 56.5451C24.7961 56.0778 24.8785 55.6379 24.8236 55.1706C24.7687 54.7858 24.6313 54.4009 24.3567 54.126C24.2743 54.0436 24.1645 53.9886 24.0821 54.0711C24.0272 54.126 24.0546 54.236 24.0821 54.3185C24.1645 54.5109 24.2743 54.7033 24.3293 54.9232C24.4391 55.3356 24.2194 55.6929 24.137 56.1052C23.9997 56.71 23.8075 57.3148 23.7251 57.947C23.6976 58.1119 23.6701 58.3044 23.7251 58.4693C23.78 58.6342 23.9173 58.7992 24.0821 58.7992C24.2743 58.7992 24.4116 58.7167 24.494 58.6067Z" fill="#5E4936"/>
<path d="M20.9515 59.128C21.3085 58.8531 21.7479 58.6607 22.1873 58.6607C22.2697 58.6607 22.3796 58.6607 22.4345 58.6057C22.4894 58.5507 22.4894 58.4407 22.462 58.3583C22.3247 58.0834 21.9676 58.0559 21.6655 58.0009C21.1438 57.891 20.7043 57.5611 20.2649 57.2587C20.1825 57.2037 20.1002 57.1488 19.9903 57.1763C19.9079 57.2037 19.853 57.3137 19.853 57.3962C19.853 57.6711 20.1002 57.8635 20.3199 58.0009C20.4297 58.0834 20.5396 58.1384 20.5945 58.2758C20.6494 58.4407 20.567 58.6057 20.5121 58.7431C20.2375 59.2379 19.853 59.6777 19.5784 60.2C19.5509 60.255 19.5234 60.3375 19.5234 60.3925C19.5234 60.4474 19.5784 60.5299 19.6333 60.5299C19.8805 60.5574 20.0727 60.0901 20.21 59.9251C20.4023 59.6228 20.6494 59.3479 20.9515 59.128Z" fill="#5E4936"/>
<path d="M32.8138 64.2691C33.418 63.9392 33.7201 63.3619 34.1046 62.8397C34.2693 62.6197 34.3243 62.8946 34.2693 63.0596C34.132 63.5269 33.8299 64.1041 33.4454 64.4065C32.9786 64.7639 32.3744 64.9563 31.7977 65.0113C31.578 65.0388 31.3583 65.0388 31.1386 64.9838C30.9463 64.9288 31.0287 64.7914 31.1935 64.7364C31.7427 64.544 32.292 64.544 32.8138 64.2691Z" fill="#5E4936"/>
<path d="M20.3736 64.7364C20.5658 64.6814 20.4834 64.544 20.3187 64.489C19.7694 64.2966 19.2201 64.2966 18.7258 63.9942C18.6159 63.9392 18.5336 63.8567 18.4512 63.8018C18.4786 64.0217 18.5336 64.2141 18.5885 64.434C18.9455 64.5989 19.33 64.7364 19.687 64.7639C19.9342 64.7639 20.1539 64.7639 20.3736 64.7364Z" fill="#5E4936"/>
<path d="M33.0613 67.6499C33.3909 67.5674 33.7479 67.4575 34.0225 67.6499C34.2422 67.7873 34.3246 68.0897 34.3521 68.3646C34.407 68.8044 34.3521 69.849 33.8028 69.959C33.7204 69.849 33.8028 69.7116 33.8577 69.5741C33.9951 69.2992 34.0225 68.9694 34.0225 68.667C34.0225 68.557 33.9951 68.4471 33.9127 68.3646C33.8028 68.2272 33.5831 68.2272 33.4183 68.2272C32.924 68.2546 32.4571 68.3096 31.9628 68.3096C31.4685 68.3096 30.9741 68.1997 30.5622 67.9523C30.5073 67.9248 30.4798 67.8973 30.4523 67.8423C30.4249 67.7049 30.8917 67.8148 30.9741 67.8148C31.2213 67.8423 31.441 67.8423 31.6882 67.8423C32.155 67.8423 32.5944 67.7873 33.0613 67.6499Z" fill="#5E4936"/>
<path d="M39.3503 57.9741C39.4876 58.0291 39.6524 58.1115 39.5975 58.249C39.57 58.2765 39.5425 58.3039 39.5151 58.3314C39.2404 58.4964 38.9658 58.6888 38.6637 58.8537C38.6088 58.8812 38.5539 58.9087 38.5264 58.9637C38.444 59.1286 38.6637 59.2935 38.856 59.321C39.0482 59.321 39.2679 59.2935 39.4052 59.431C39.5151 59.5684 39.4876 59.7883 39.3503 59.9258C39.2404 60.0632 39.0482 60.1182 38.8834 60.2007C38.7461 60.2831 38.5813 60.3931 38.4989 60.558C38.3891 60.8054 38.4989 61.0803 38.6637 61.3002C38.9658 61.795 39.4052 62.2349 39.4601 62.7846C39.4601 62.8671 39.4601 62.9221 39.4327 63.0045C39.4052 63.0595 39.3503 63.1145 39.2954 63.1695C38.6912 63.6643 37.8124 63.6643 37.0434 63.6368C36.8237 63.6368 36.5491 63.5818 36.4941 63.3619C37.2631 63.3344 38.1145 63.4169 38.856 63.0595C38.9658 63.0045 39.0757 62.9221 39.1031 62.8121C39.1306 62.7571 39.1031 62.7022 39.1031 62.6472C39.0757 62.3998 38.9109 62.2074 38.7736 62.0149C38.5813 61.7675 38.3891 61.5476 38.1694 61.3277C38.087 61.2453 37.9771 61.1628 37.9222 61.0528C37.8673 60.9429 37.8124 60.8054 37.8398 60.6955C37.8673 60.5855 37.9222 60.4206 38.0046 60.3381C38.087 60.2282 38.2792 60.1732 38.3891 60.1182C38.4165 60.0907 38.444 60.0907 38.4715 60.0632C38.5539 59.9808 38.4989 59.8158 38.444 59.7334C38.3342 59.5684 38.1694 59.431 38.0321 59.2661C37.9497 59.1561 37.9222 59.0461 37.9222 58.9362C37.9222 58.7438 38.0321 58.6063 38.1968 58.5239C38.3342 58.4689 38.4715 58.4414 38.5813 58.3864C38.6637 58.3589 38.7461 58.3314 38.7736 58.249C38.801 58.194 38.7736 58.1115 38.7186 58.0565C38.6363 57.9191 38.5264 57.8091 38.4165 57.6992C38.3067 57.6167 38.2243 57.5343 38.1145 57.4243C38.0046 57.2869 37.9222 57.1219 37.8673 56.957C37.8398 56.902 37.8398 56.847 37.8398 56.7921C37.8398 56.7371 37.8673 56.6821 37.9222 56.6546C38.0046 56.5996 38.1145 56.6546 38.1968 56.7096C38.3342 56.8195 38.444 56.957 38.5539 57.0944C38.7736 57.4518 38.9383 57.8091 39.3503 57.9741Z" fill="#5E4936"/>
<path d="M30.124 50.3326C29.8219 50.58 29.6296 50.9649 29.4099 51.3222C29.0529 51.927 28.5586 52.4493 28.1466 52.999C27.8445 53.3839 27.5699 53.7962 27.4051 54.236C27.3227 54.4285 27.2678 54.6759 27.2129 54.8683C27.2129 54.9233 27.2404 55.5005 27.2953 55.4455C27.8995 54.8683 27.9819 53.9337 28.5036 53.2739C28.6959 53.0265 28.9705 52.8066 29.1628 52.5317C29.4649 52.1194 29.5472 51.5696 29.8219 51.1298C29.9866 50.8549 30.2064 50.635 30.481 50.4701C30.5359 50.4151 30.6183 50.3876 30.6732 50.3326C30.7007 50.3051 30.7007 50.2501 30.7007 50.2227C30.5084 50.2776 30.3162 50.3051 30.124 50.3326Z" fill="#5E4936"/>
<path d="M48.6339 87.2501C48.4966 89.0369 44.8166 99.4002 44.1849 101.957C43.5533 104.513 43.3061 105.668 43.718 108.334C44.0751 110.753 45.3109 112.925 47.3157 113.722C49.4029 114.547 50.5563 114.272 51.902 113.777C52.314 113.639 52.5062 113.2 52.3414 112.815C51.5999 111.083 49.5127 107.015 49.5127 107.015C49.5127 107.015 48.7438 105.97 49.1832 104.898C49.6226 103.826 59.1797 90.109 59.7289 87.0027C59.8113 86.5354 59.8388 84.996 59.1797 84.5837C56.0489 82.6595 45.8876 82.6045 45.8876 82.6045C45.8876 82.6045 48.7163 86.4255 48.6339 87.2501Z" fill="#B27E49"/>
<path d="M46.9592 94.508C46.9592 94.508 46.9318 94.508 46.9043 94.4805L46.9592 94.508Z" fill="#5E4936"/>
<path d="M55.3351 93.8205C53.7971 93.9579 52.3691 94.7001 50.8311 94.7276C49.5404 94.7276 48.2222 94.2328 46.9863 94.5352C47.2884 94.5902 47.5905 94.6451 47.8926 94.7001C48.0848 94.7276 48.2771 94.7826 48.4968 94.8101C49.5129 95.0575 50.4741 95.4973 51.5177 95.1949C51.7374 95.1399 51.9571 95.03 52.1768 94.9475C52.9458 94.6451 53.7697 94.4802 54.5661 94.2878C55.033 94.1778 55.5273 94.0954 56.0216 94.1228C56.0766 94.0129 56.159 93.9029 56.2139 93.793C55.9118 93.793 55.6097 93.793 55.3351 93.8205Z" fill="#5E4936"/>
<path d="M59.4828 85.3535C59.1533 85.5184 58.3568 86.1507 57.9998 86.2332C57.1759 86.4531 56.3246 86.6455 55.4732 86.7005C54.7043 86.728 53.9078 86.618 53.1389 86.7555C51.4636 87.0578 50.1454 88.4598 48.4976 88.7347C48.4427 88.7347 48.3878 88.7621 48.3054 88.7621C48.2505 88.9546 48.1956 89.147 48.1406 89.3669C49.5412 89.3119 50.9693 88.5147 52.3425 88.2673C53.4135 88.0474 54.512 87.855 55.5831 87.6351C55.8577 87.5801 56.1323 87.5526 56.407 87.5251C57.0661 87.4702 57.7527 87.4427 58.3843 87.2777C58.8512 87.1678 59.2906 86.9479 59.73 86.673C59.6201 86.3981 59.8398 85.6009 59.4828 85.3535Z" fill="#5E4936"/>
<path d="M50.3916 99.2901C49.705 99.4825 49.0459 99.7849 48.4417 100.17C48.1671 100.335 47.8924 100.555 47.5904 100.637C47.0686 100.802 46.5193 100.665 45.9975 100.555C45.5306 100.472 45.0638 100.417 44.5969 100.417C44.487 100.747 44.4047 101.049 44.3223 101.324C45.4757 101.297 46.6566 101.297 47.8101 101.269C48.9635 101.242 50.2543 101.187 51.0232 100.307C51.1605 100.142 51.2704 99.9773 51.4626 99.8674C51.5999 99.7849 51.7647 99.7849 51.902 99.7574C52.0394 99.7574 52.2041 99.7574 52.3414 99.7849C52.5337 99.4825 52.7259 99.2077 52.9182 98.9053C52.8632 98.9053 52.8358 98.9053 52.7809 98.9053C52.0119 98.9603 51.1605 99.0702 50.3916 99.2901Z" fill="#5E4936"/>
<path opacity="0.2" d="M46.9588 84.4461C46.9314 84.4461 46.9039 84.4461 46.9039 84.4186C46.2722 83.5939 45.5033 82.6043 44.5421 81.4773C44.5146 81.4498 44.5146 81.3948 44.5421 81.3673C44.5695 81.3398 44.6245 81.3398 44.6519 81.3673C45.5857 82.4943 46.3821 83.4839 47.0137 84.3361C47.0412 84.3636 47.0412 84.4186 46.9863 84.4461C46.9863 84.4461 46.9863 84.4461 46.9588 84.4461Z" fill="black"/>
<path opacity="0.2" d="M59.5923 85.0786C59.5648 85.0786 59.5099 85.0511 59.5099 85.0236C58.6585 81.2851 55.1158 75.8148 55.0884 75.7598C55.0609 75.7324 55.0609 75.6774 55.1158 75.6499C55.1433 75.6224 55.1982 75.6224 55.2257 75.6774C55.2531 75.7324 58.8233 81.2301 59.6747 84.9961C59.6747 84.9961 59.6472 85.0511 59.5923 85.0786Z" fill="black"/>
<path d="M50.7209 109.516C50.7209 109.516 49.5949 110.615 47.5352 109.983C47.5352 109.983 48.9083 111.137 51.0229 110.23L50.7209 109.516Z" fill="#1B1C1E"/>
<path d="M52.1764 112.568C52.1764 112.568 49.8146 113.613 48.4414 112.183C48.4414 112.183 49.8695 113.035 51.9841 112.073L52.1764 112.568Z" fill="#1B1C1E"/>
<path d="M56.8179 82.1096C56.7905 81.7797 56.6257 81.3674 56.2961 81.3949C55.994 81.4223 55.8567 81.8072 55.7469 82.1096C55.5546 82.6319 54.0716 84.5561 55.3624 84.666C56.351 84.721 56.8454 82.8243 56.8179 82.1096Z" fill="#5E4936"/>
<path d="M107.266 65.8359C107.266 65.8359 108.914 72.7906 106.223 78.2059C103.284 84.0886 97.1872 86.755 96.3633 88.9816C95.512 91.2082 97.352 103.523 96.8577 104.76C96.0063 106.849 89.2504 114.491 87.328 117.213C87.1358 117.515 86.5316 118.01 86.1746 118.01L77.7435 117.9C77.3041 117.9 76.9745 117.515 77.0294 117.075C77.1667 116.003 78.1829 114.876 78.842 114.134C79.8306 113.089 82.7692 113.364 82.9065 113.227C83.2635 112.869 87.6576 104.705 88.2068 102.946C88.5639 101.791 84.3071 90.5485 83.3459 86.3152C82.7417 83.6762 84.2522 77.1339 90.2391 72.7906C96.4732 68.2 107.266 65.8359 107.266 65.8359Z" fill="#B27E49"/>
<path d="M93.4241 107.757C91.282 108.527 88.8927 107.619 86.6133 107.949C88.3434 108.664 90.2384 108.829 92.0509 108.389C92.5178 108.307 93.0121 108.032 93.4241 107.757Z" fill="#5E4936"/>
<path d="M96.7468 100.444C95.6208 100.747 94.4673 100.912 93.2864 100.994C92.2428 101.049 91.1718 101.049 90.1282 101.187C89.4142 101.296 88.6727 101.516 88.041 101.846C88.1234 102.231 88.1783 102.533 88.1783 102.726C89.9634 101.874 92.0506 101.654 94.0279 101.489C94.2751 101.461 94.5223 101.461 94.742 101.406C94.9342 101.379 95.099 101.324 95.2912 101.269C95.7856 101.132 96.2524 100.939 96.7193 100.747C96.7468 100.664 96.7468 100.554 96.7468 100.444Z" fill="#5E4936"/>
<path opacity="0.2" d="M83.2912 86.4254C83.2637 86.4254 83.2088 86.3979 83.2088 86.3704C81.9455 80.9825 89.2781 71.3889 89.3605 71.3065C89.3879 71.279 89.4429 71.2515 89.4703 71.279C89.4978 71.3065 89.5253 71.3614 89.4978 71.3889C89.4154 71.4714 82.1377 80.9825 83.3735 86.3154C83.401 86.3704 83.3736 86.4254 83.2912 86.4254C83.3186 86.4254 83.3186 86.4254 83.2912 86.4254Z" fill="black"/>
<path d="M81.177 117.982C81.177 117.982 80.6278 116.498 82.0833 114.876C82.0833 114.876 80.463 115.673 80.4355 117.955L81.177 117.982Z" fill="#1B1C1E"/>
<path d="M78.1002 117.899C78.1002 117.899 78.0178 115.343 79.8852 114.601C79.8852 114.601 78.567 115.618 78.6219 117.927L78.1002 117.899Z" fill="#1B1C1E"/>
<path d="M102.624 69.7393C102.405 70.0967 102.24 70.4815 102.02 70.8389C101.801 71.1962 101.498 71.5261 101.087 71.6361C101.032 71.6361 100.977 71.6635 100.949 71.6361C100.922 71.6086 100.894 71.5811 100.894 71.5536C100.784 71.1687 101.169 70.8664 101.416 70.564C101.553 70.3991 101.663 70.1791 101.746 69.9592C101.828 69.7393 101.855 69.4919 101.91 69.272C102.02 68.8322 103.009 66.5781 103.668 66.9629C104.464 67.4028 102.844 69.382 102.624 69.7393Z" fill="#5E4936"/>
<path d="M86.9706 84.5283C86.9432 84.6108 86.8882 84.6932 86.9157 84.7757C86.9432 84.9132 87.0805 85.0231 87.2178 85.0231C87.3551 85.0231 87.4924 84.9956 87.6297 84.9406C88.0417 84.7757 88.4811 84.5833 88.7832 84.2259C89.0853 83.8961 89.2226 83.3463 88.9754 82.9614C88.9754 82.9339 88.8106 82.9614 88.8106 82.9614C88.7557 82.9614 88.6733 82.9614 88.6184 82.9889C88.5085 83.0164 88.3987 83.0714 88.3163 83.1539C88.0691 83.3188 87.822 83.4562 87.6023 83.6487C87.41 83.8411 87.2452 84.061 87.1079 84.2809C87.053 84.3909 87.0255 84.4458 86.9706 84.5283Z" fill="#5E4936"/>
<path d="M90.2663 80.927C90.2113 81.0645 90.2388 81.2294 90.2937 81.3943C90.3212 81.5043 90.3487 81.6417 90.431 81.7242C90.5134 81.8067 90.6233 81.8891 90.7606 81.8616C90.8979 81.8342 90.9803 81.6967 91.0078 81.5868C91.1451 81.2569 91.2 80.8995 91.2275 80.5422C91.2275 80.4597 91.2275 80.3498 91.2 80.2673C91.1725 80.1848 91.1176 80.1024 91.0352 80.0749C90.9254 80.0199 90.7881 80.0749 90.7057 80.1573C90.4585 80.3223 90.3487 80.6796 90.2663 80.927Z" fill="#5E4936"/>
<path d="M95.2645 94.2598C95.3744 94.1498 95.4293 93.9849 95.4568 93.8475C95.4842 93.7375 95.5117 93.6001 95.4842 93.4901C95.4568 93.3801 95.3744 93.2427 95.2645 93.2427C95.1272 93.2152 95.0174 93.2977 94.9075 93.3801C94.6329 93.6001 94.4132 93.9024 94.2484 94.2323C94.2209 94.3148 94.166 94.3972 94.166 94.4797C94.166 94.5622 94.166 94.6721 94.2209 94.7271C94.3033 94.8096 94.4406 94.8371 94.5505 94.8096C94.8251 94.6996 95.0723 94.4522 95.2645 94.2598Z" fill="#5E4936"/>
<path d="M102.817 88.6514C102.927 88.5414 102.982 88.3765 103.01 88.2391C103.037 88.1291 103.064 87.9917 103.037 87.8817C103.01 87.7717 102.927 87.6343 102.817 87.6343C102.68 87.6068 102.57 87.6893 102.46 87.7717C102.186 87.9917 101.966 88.294 101.801 88.6239C101.774 88.7064 101.719 88.7888 101.719 88.8713C101.719 88.9538 101.719 89.0637 101.774 89.1187C101.856 89.2012 101.993 89.2287 102.103 89.2012C102.35 89.1187 102.625 88.8438 102.817 88.6514Z" fill="#5E4936"/>
<path d="M91.8858 75.7318C91.8583 75.8693 91.9132 76.0617 92.0506 76.0617C92.49 75.7593 92.6822 75.2645 92.7921 74.7422C92.9019 74.2474 92.9019 73.6977 93.0392 73.2029C93.1216 72.9005 93.2589 72.5981 93.204 72.2957C93.1491 71.9384 92.8195 71.636 92.49 71.8284C92.1329 72.0483 92.2428 72.5156 92.2703 72.818C92.435 73.8351 91.9956 74.7697 91.8858 75.7318Z" fill="#5E4936"/>
<path d="M96.9679 80.3224C96.5559 80.4873 96.0341 80.7073 96.0616 81.1471C96.9679 81.1746 97.7917 80.7073 98.5882 80.2674C99.2198 79.9101 99.8515 79.5527 100.511 79.1954C100.977 78.948 101.444 78.6731 101.801 78.2882C102.076 78.0133 102.268 77.656 102.598 77.4086C102.845 77.2162 103.174 77.0787 103.449 76.9138C103.586 76.8313 103.724 76.7214 103.724 76.5564C103.724 76.364 103.532 76.2266 103.339 76.2266C103.147 76.2266 102.982 76.3365 102.817 76.419C100.84 77.656 99.1924 79.4977 96.9679 80.3224Z" fill="#5E4936"/>
<path d="M86.1199 95.4692C86.367 95.3592 86.6417 95.2492 86.9163 95.1668C87.9873 94.8369 88.8112 94.727 89.4703 93.7099C89.8548 93.1326 90.102 92.5004 90.4865 91.9231C90.8984 91.3183 91.4202 90.7411 91.5301 90.0264C91.5575 89.8339 91.5575 89.6415 91.4477 89.4766C91.3378 89.3116 91.1181 89.2292 90.9533 89.3391C90.8709 89.3941 90.816 89.4766 90.7886 89.5865C90.5963 90.0538 90.5414 90.5486 90.3766 91.016C90.0745 91.9781 89.3879 92.7752 88.5915 93.38C88.3718 93.5449 88.1246 93.7099 87.9049 93.8748C87.2733 94.2871 86.6142 94.617 85.9551 94.9194C86.01 95.1118 86.0649 95.3042 86.1199 95.4692Z" fill="#5E4936"/>
</svg>
