<svg width="150" height="150" viewBox="0 0 150 150" fill="none" xmlns="http://www.w3.org/2000/svg">
<g clip-path="url(#clip0_833_25822)">
<path d="M53.7509 62.1204C53.2265 63.5339 52.8081 64.9845 52.4992 66.4601C51.0509 73.1842 50.4302 80.5032 52.3337 87.1911C54.1201 93.561 57.4006 99.4127 61.9026 104.26C63.3114 105.814 64.9203 107.174 66.6871 108.305C68.2452 109.225 69.8726 110.022 71.5544 110.689L81.2061 114.714C82.2406 115.138 83.3061 115.577 84.4078 115.407C75.6183 99.3787 69.3004 82.115 65.6682 64.1997C65.2337 62.0377 64.7268 54.7394 61.1578 55.0653C57.2526 55.4066 55.0388 58.748 53.7509 62.1204Z" fill="#0A7AA0"/>
<path style="mix-blend-mode:multiply" d="M53.7509 62.1204C53.2265 63.5339 52.8081 64.9845 52.4992 66.4601C51.0509 73.1842 50.4302 80.5032 52.3337 87.1911C54.1201 93.561 57.4006 99.4127 61.9026 104.26C63.3114 105.814 64.9203 107.174 66.6871 108.305C68.2452 109.225 69.8726 110.022 71.5544 110.689L81.2061 114.714C82.2406 115.138 83.3061 115.577 84.4078 115.407C75.6183 99.3787 69.3004 82.115 65.6682 64.1997C65.2337 62.0377 64.7268 54.7394 61.1578 55.0653C57.2526 55.4066 55.0388 58.748 53.7509 62.1204Z" fill="url(#paint0_linear_833_25822)"/>
<path d="M107.023 144.135C105 151.314 106.712 184.133 104.69 191.312C104.292 192.724 103.48 194.457 101.969 194.385C101.571 184.464 96.8228 131.235 95.0177 121.454C94.5004 118.578 93.8953 115.686 93.9832 112.764C94.0711 109.842 94.8884 106.842 96.8746 104.643C101.369 99.6622 108.606 102.104 109.723 108.429C110.69 113.974 108.513 138.848 107.023 144.135Z" fill="#2A6FB2"/>
<path style="mix-blend-mode:multiply" d="M107.023 144.135C105 151.314 106.712 184.133 104.69 191.312C104.292 192.724 103.48 194.457 101.969 194.385C101.571 184.464 96.8228 131.235 95.0177 121.454C94.5004 118.578 93.8953 115.686 93.9832 112.764C94.0711 109.842 94.8884 106.842 96.8746 104.643C101.369 99.6622 108.606 102.104 109.723 108.429C110.69 113.974 108.513 138.848 107.023 144.135Z" fill="url(#paint1_linear_833_25822)"/>
<g style="mix-blend-mode:multiply">
<path d="M107.023 144.135C105 151.314 106.712 184.133 104.69 191.312C104.292 192.724 103.48 194.457 101.969 194.385C101.571 184.464 96.8228 131.235 95.0177 121.454C94.5004 118.578 93.8953 115.686 93.9832 112.764C94.0711 109.842 94.8884 106.842 96.8746 104.643C101.369 99.6622 108.606 102.104 109.723 108.429C110.69 113.974 108.513 138.848 107.023 144.135Z" fill="url(#paint2_linear_833_25822)"/>
<path style="mix-blend-mode:multiply" d="M107.023 144.135C105 151.314 106.712 184.133 104.69 191.312C104.292 192.724 103.48 194.457 101.969 194.385C101.571 184.464 96.8228 131.235 95.0177 121.454C94.5004 118.578 93.8953 115.686 93.9832 112.764C94.0711 109.842 94.8884 106.842 96.8746 104.643C101.369 99.6622 108.606 102.104 109.723 108.429C110.69 113.974 108.513 138.848 107.023 144.135Z" fill="url(#paint3_linear_833_25822)"/>
</g>
<path d="M100.604 150.853C101.328 159.176 100.795 195.269 99.011 203.183C98.7782 204.217 98.1834 205.505 97.1955 205.252C95.8351 199.531 93.7713 166.241 92.2403 160.557C90.7092 154.872 89.3282 133.536 90.1299 127.872C90.5127 125.183 93.9161 113.488 98.1058 116.426C99.8696 117.662 98.9696 122.834 99.1403 124.852C99.3937 128.39 100.299 147.31 100.604 150.853Z" fill="#F99003"/>
<path style="mix-blend-mode:multiply" d="M100.604 150.853C101.328 159.176 100.795 195.269 99.011 203.183C98.7782 204.217 98.1834 205.505 97.1955 205.252C95.8351 199.531 93.7713 166.241 92.2403 160.557C90.7092 154.872 89.3282 133.536 90.1299 127.872C90.5127 125.183 93.9161 113.488 98.1058 116.426C99.8696 117.662 98.9696 122.834 99.1403 124.852C99.3937 128.39 100.299 147.31 100.604 150.853Z" fill="url(#paint4_linear_833_25822)"/>
<path d="M98.9949 149.871C99.3518 161.354 97.8001 194.266 95.3018 205.366C94.9708 206.835 94.2156 208.645 93.0932 208.366C91.857 200.54 89.819 193.004 88.3863 185.245C86.9535 177.487 86.5811 148.004 87.8277 140.105C88.4225 136.35 93.0001 119.892 97.6553 123.647C99.6156 125.235 98.2863 132.44 98.3484 135.249C98.4363 140.137 98.8449 144.988 98.9949 149.871Z" fill="#FF312E"/>
<path d="M98.9949 149.871C99.3518 161.354 97.8001 194.266 95.3018 205.366C94.9708 206.835 94.2156 208.645 93.0932 208.366C91.857 200.54 89.819 193.004 88.3863 185.245C86.9535 177.487 86.5811 148.004 87.8277 140.105C88.4225 136.35 93.0001 119.892 97.6553 123.647C99.6156 125.235 98.2863 132.44 98.3484 135.249C98.4363 140.137 98.8449 144.988 98.9949 149.871Z" fill="#00DBF4"/>
<path style="mix-blend-mode:multiply" d="M98.9949 149.871C99.3518 161.354 97.8001 194.266 95.3018 205.366C94.9708 206.835 94.2156 208.645 93.0932 208.366C91.857 200.54 89.819 193.004 88.3863 185.245C86.9535 177.487 86.5811 148.004 87.8277 140.105C88.4225 136.35 93.0001 119.892 97.6553 123.647C99.6156 125.235 98.2863 132.44 98.3484 135.249C98.4363 140.137 98.8449 144.988 98.9949 149.871Z" fill="url(#paint5_linear_833_25822)"/>
<path d="M94.0187 168.486C94.7377 176.809 94.2101 212.902 92.4256 220.816C92.1877 221.85 91.598 223.138 90.6101 222.885C89.2497 217.164 87.1808 183.874 85.6497 178.195C84.1187 172.516 82.7428 151.169 83.5446 145.505C83.9273 142.816 87.3308 131.121 91.5152 134.059C93.2842 135.295 92.3842 140.467 92.5497 142.485C92.8032 146.022 93.7083 164.948 94.0187 168.486Z" fill="#00DBF4"/>
<path style="mix-blend-mode:multiply" d="M94.0187 168.486C94.7377 176.809 94.2101 212.902 92.4256 220.816C92.1877 221.85 91.598 223.138 90.6101 222.885C89.2497 217.164 87.1808 183.874 85.6497 178.195C84.1187 172.516 82.7428 151.169 83.5446 145.505C83.9273 142.816 87.3308 131.121 91.5152 134.059C93.2842 135.295 92.3842 140.467 92.5497 142.485C92.8032 146.022 93.7083 164.948 94.0187 168.486Z" fill="url(#paint6_linear_833_25822)"/>
<path d="M96.5995 150.631C96.9305 157.531 94.7581 187.614 92.6322 194.286C92.3529 195.17 91.7116 196.257 90.7443 196.091C89.6633 191.389 89.146 163.758 87.8943 159.098C86.6426 154.438 86.2547 136.727 87.3098 131.974C87.8271 129.719 91.7064 119.819 95.7047 122.074C97.3909 123.026 96.2685 127.37 96.3254 129.046C96.4288 131.984 96.4598 147.698 96.5995 150.631Z" fill="#F99003"/>
<path style="mix-blend-mode:multiply" d="M96.5995 150.631C96.9305 157.531 94.7581 187.614 92.6322 194.286C92.3529 195.17 91.7116 196.257 90.7443 196.091C89.6633 191.389 89.146 163.758 87.8943 159.098C86.6426 154.438 86.2547 136.727 87.3098 131.974C87.8271 129.719 91.7064 119.819 95.7047 122.074C97.3909 123.026 96.2685 127.37 96.3254 129.046C96.4288 131.984 96.4598 147.698 96.5995 150.631Z" fill="url(#paint7_linear_833_25822)"/>
<path d="M95.9433 144.165C96.4295 152.638 96.8123 178.857 97.2985 187.329C97.3916 189 97.2571 191.162 96.083 191.648C92.9537 181.117 89.3588 153.145 85.2209 143.291C84.0002 140.395 82.7226 137.498 81.9571 134.322C81.1916 131.146 80.9692 127.598 81.8692 124.495C83.9123 117.476 90.145 117.429 92.814 123.827C95.1261 129.45 95.5864 137.927 95.9433 144.165Z" fill="#FF312E"/>
<path style="mix-blend-mode:multiply" d="M95.9433 144.165C96.4295 152.638 96.8123 178.857 97.2985 187.329C97.3916 189 97.2571 191.162 96.083 191.648C92.9537 181.117 89.3588 153.145 85.2209 143.291C84.0002 140.395 82.7226 137.498 81.9571 134.322C81.1916 131.146 80.9692 127.598 81.8692 124.495C83.9123 117.476 90.145 117.429 92.814 123.827C95.1261 129.45 95.5864 137.927 95.9433 144.165Z" fill="url(#paint8_linear_833_25822)"/>
<path d="M92.8337 156.068C90.5527 162.952 88.882 195.735 86.6268 202.62C86.1768 203.975 85.3699 205.594 84.1699 205.346C84.7389 195.446 85.8613 142.035 85.3441 132.114C85.1837 129.197 84.982 126.254 85.3441 123.363C85.7061 120.471 86.6165 117.59 88.4061 115.646C92.4613 111.244 98.0165 114.533 98.3216 120.952C98.5544 126.57 94.5096 150.999 92.8337 156.068Z" fill="#2A6FB2"/>
<path style="mix-blend-mode:multiply" d="M92.8337 156.068C90.5527 162.952 88.882 195.735 86.6268 202.62C86.1768 203.975 85.3699 205.594 84.1699 205.346C84.7389 195.446 85.8613 142.035 85.3441 132.114C85.1837 129.197 84.982 126.254 85.3441 123.363C85.7061 120.471 86.6165 117.59 88.4061 115.646C92.4613 111.244 98.0165 114.533 98.3216 120.952C98.5544 126.57 94.5096 150.999 92.8337 156.068Z" fill="url(#paint9_linear_833_25822)"/>
<path d="M89.9994 142.965C89.9063 151.324 85.8615 187.19 83.3115 194.891C82.9753 195.926 82.277 197.126 81.3046 196.774C80.5081 190.945 81.6977 157.614 80.7253 151.81C79.7529 146.007 80.4667 124.634 81.8167 119.074C82.4581 116.436 86.9891 105.109 90.8684 108.46C92.5029 109.862 91.1063 114.921 91.0598 116.943C90.9563 120.517 89.9994 139.412 89.9994 142.965Z" fill="#F99003"/>
<path style="mix-blend-mode:multiply" d="M89.9994 142.965C89.9063 151.324 85.8615 187.19 83.3115 194.891C82.9753 195.926 82.277 197.126 81.3046 196.774C80.5081 190.945 81.6977 157.614 80.7253 151.81C79.7529 146.007 80.4667 124.634 81.8167 119.074C82.4581 116.436 86.9891 105.109 90.8684 108.46C92.5029 109.862 91.1063 114.921 91.0598 116.943C90.9563 120.517 89.9994 139.412 89.9994 142.965Z" fill="url(#paint10_linear_833_25822)"/>
<path d="M34.1997 40.3708C34.4475 41.8535 35.1896 43.2088 36.3051 44.2164C37.4207 45.224 38.8443 45.8246 40.3445 45.9208C41.1669 45.9208 41.9893 45.8173 42.8066 45.9208C45.5893 46.2829 47.2548 49.0708 49.0135 51.2535C50.7721 53.4363 54.0928 55.2673 56.2031 53.4208C51.1238 74.2242 59.3066 94.5725 62.9686 102.238C66.0462 108.667 68.8911 113.617 75.4652 117.445C83.2238 121.95 100.324 119.809 106.427 126.373C110.136 117.978 104.244 109.407 104.56 100.231C104.746 94.8001 104.932 89.3328 104.115 83.9587C102.858 75.5173 99.1807 67.6811 95.4669 60.0001C93.3979 55.7329 91.2824 51.4242 88.2255 47.788C86.4462 45.6673 84.3721 43.8001 82.6342 41.638C78.279 36.207 76.0807 29.0122 70.6083 24.7087C68.4488 23.0439 65.9167 21.9296 63.2304 21.4619C60.5441 20.9943 57.7844 21.1872 55.1893 22.0242C50.3376 23.638 45.9411 25.826 41.4307 28.2311C35.3997 31.438 33.7859 37.4018 34.1997 40.3708Z" fill="#FF312E"/>
<path style="mix-blend-mode:multiply" d="M106.453 126.373C100.344 119.809 83.2445 121.945 75.5169 117.45C68.9428 113.633 66.0876 108.657 63.0152 102.233C59.3428 94.5675 51.1652 74.2244 56.2497 53.421C55.0548 54.4554 53.4669 54.3313 52.0031 53.6175C50.8648 53.0484 49.8613 52.2424 49.06 51.2537C47.2962 49.0658 45.6307 46.283 42.8531 45.9261C42.5787 45.8907 42.3022 45.8734 42.0255 45.8744C41.5083 45.8744 40.929 45.9365 40.3859 45.9158C38.8782 45.8317 37.4442 45.2368 36.3198 44.2289C35.1953 43.2211 34.4476 41.8604 34.1997 40.371C33.7859 37.402 35.3997 31.4434 41.441 28.2313C45.9566 25.8261 50.3479 23.6382 55.1945 22.0244C57.7888 21.1907 60.5467 20.9989 63.2314 21.4656C65.9161 21.9323 68.4475 23.0434 70.6083 24.7037C76.0807 29.0123 78.279 36.2072 82.6393 41.6382C84.3773 43.8054 86.4566 45.6727 88.2359 47.7934C91.2824 51.4141 93.4083 55.7382 95.4773 60.0054C99.191 67.6813 102.869 75.5227 104.146 83.9537C104.963 89.333 104.777 94.8158 104.586 100.231C104.265 109.402 110.172 117.973 106.453 126.373Z" fill="url(#paint11_linear_833_25822)"/>
<path d="M62.6222 34.1901C62.3274 35.0074 61.6291 35.6125 61.2153 36.378C60.2946 38.0694 60.9101 40.1539 60.7394 42.0677C60.4756 45.1091 58.2515 47.566 56.0843 49.7384C54.7749 51.1041 53.3936 52.3991 51.9463 53.6177C50.808 53.0486 49.8046 52.2426 49.0032 51.2539C47.2394 49.066 45.5739 46.2832 42.7963 45.9263C42.5219 45.8909 42.2454 45.8736 41.9688 45.8746C42.2584 45.3953 42.5429 44.9091 42.8222 44.416C44.6843 41.1832 46.2463 37.7591 48.6205 34.9091C50.9946 32.0591 54.3929 29.778 58.1015 29.8039C59.3407 29.7694 60.5556 30.1519 61.5515 30.8901C62.0383 31.271 62.4003 31.7886 62.591 32.3765C62.7818 32.9645 62.7927 33.596 62.6222 34.1901Z" fill="#D6EDF2"/>
<path d="M78.1501 126.424C78.1915 127.49 77.3432 128.353 76.557 129.072C77.2637 129.045 77.9481 128.818 78.5305 128.417C79.1129 128.016 79.5693 127.457 79.8463 126.807C80.1234 126.156 80.2098 125.44 80.0954 124.742C79.9809 124.044 79.6705 123.393 79.2001 122.865C79.0553 122.698 78.8797 122.559 78.6829 122.457C77.8553 122.053 75.6415 122.55 75.7605 123.791C75.8794 125.033 78.1036 124.784 78.1501 126.424Z" fill="#12282E"/>
<path d="M90.6718 122.638C90.708 123.703 89.8597 124.567 89.0787 125.286C89.7849 125.258 90.4687 125.03 91.0504 124.629C91.632 124.227 92.0876 123.669 92.3641 123.018C92.6405 122.368 92.7264 121.652 92.6118 120.955C92.4972 120.257 92.1867 119.607 91.7166 119.079C91.5737 118.909 91.3977 118.77 91.1994 118.671C90.3718 118.262 88.158 118.758 88.2718 120C88.3856 121.241 90.6097 120.993 90.6718 122.638Z" fill="#12282E"/>
<path d="M106.299 115.691C107.747 115.417 109.402 113.591 108.399 110.689C107.395 107.788 106.501 105.584 104.002 106.375C101.504 107.167 99.4041 110.788 100.304 112.815C101.204 114.843 106.299 115.691 106.299 115.691Z" fill="#995034"/>
<path d="M106.872 112.582C107.312 112.753 107.488 112.205 106.536 110.57C105.584 108.936 104.808 107.663 104.12 107.524C103.432 107.384 103.479 108.719 104.219 109.903C104.958 111.088 106.872 112.582 106.872 112.582Z" fill="#60250C"/>
<mask id="mask0_833_25822" style="mask-type:luminance" maskUnits="userSpaceOnUse" x="51" y="106" width="57" height="26">
<path d="M107.282 115.298C105.652 116.421 102.657 113.571 102.306 112.066C101.861 110.147 101.726 108.61 104.002 106.376C102.51 106.336 101.022 106.541 99.5954 106.981C98.5136 107.437 97.4949 108.029 96.5644 108.745L89.0851 114.01C88.2594 114.674 87.315 115.174 86.3023 115.484C85.3089 115.649 84.297 115.672 83.2971 115.552C79.9351 115.397 63.7144 121.05 60.4196 121.759C58.8213 122.095 59.3592 122.571 56.9178 122.7C55.604 122.767 50.3903 123.295 52.1747 128.064C52.7851 129.698 55.2368 132.357 58.1075 131.757C63.3109 130.676 67.4178 131.509 68.9385 131.183C71.8299 130.541 80.3902 126.579 83.2868 125.943C87.6575 124.981 90.6161 121.852 94.9351 120.621C98.8506 119.483 99.4765 116.736 107.282 115.298Z" fill="white"/>
</mask>
<g mask="url(#mask0_833_25822)">
<path d="M107.282 115.298C105.652 116.421 102.657 113.571 102.306 112.066C101.861 110.147 101.726 108.61 104.002 106.376C102.51 106.336 101.022 106.541 99.5954 106.981C98.5136 107.437 97.4949 108.029 96.5644 108.745L89.0851 114.01C88.2594 114.674 87.315 115.174 86.3023 115.484C85.3089 115.649 84.297 115.672 83.2971 115.552C79.9351 115.397 63.7144 121.05 60.4196 121.759C58.8213 122.095 59.3592 122.571 56.9178 122.7C55.604 122.767 50.3903 123.295 52.1747 128.064C52.7851 129.698 55.2368 132.357 58.1075 131.757C63.3109 130.676 67.4178 131.509 68.9385 131.183C71.8299 130.541 80.3902 126.579 83.2868 125.943C87.6575 124.981 90.6161 121.852 94.9351 120.621C98.8506 119.483 99.4765 116.736 107.282 115.298Z" fill="#78321B"/>
<path d="M45.9785 132.052C47.6182 129.678 50.4785 128.406 53.3285 127.914C56.1785 127.423 59.0854 127.594 61.9716 127.485C66.4551 127.309 70.8838 126.436 75.0992 124.899C75.9164 124.604 76.8578 124.118 76.9354 123.254C77.0233 122.22 75.9009 121.589 74.8923 121.402C71.9906 120.854 69.0785 121.971 66.2078 122.659C63.3371 123.347 59.9389 123.471 57.8337 121.402" stroke="#60250C" stroke-width="0.71" stroke-miterlimit="10"/>
<path d="M53.209 124.794C56.6642 125.379 60.1555 125.968 63.6469 125.689C65.3989 125.561 67.128 125.213 68.7935 124.655C68.7441 124.576 68.6793 124.507 68.6029 124.454C68.5264 124.4 68.44 124.362 68.3487 124.343C68.2574 124.324 68.1632 124.323 68.0716 124.341C67.9801 124.359 67.8931 124.395 67.8159 124.448H68.2762" stroke="#60250C" stroke-width="0.71" stroke-miterlimit="10"/>
<path d="M105.879 109.319C99.8066 108.885 93.8893 111.041 88.1893 113.162C87.0669 113.581 85.7428 114.269 85.7324 115.464C85.7324 116.498 86.7669 117.248 87.7548 117.559C89.9686 118.252 92.3635 117.76 94.6341 117.274C96.9048 116.788 99.2893 116.312 101.508 117.021C103.727 117.729 105.584 120.088 104.896 122.307" stroke="#60250C" stroke-width="0.71" stroke-miterlimit="10"/>
<path d="M105.238 114.621C101.461 113.968 97.5901 114.086 93.8591 114.967C93.3445 115.139 92.7957 115.181 92.2608 115.091C91.9934 115.04 91.757 114.885 91.603 114.66C91.4491 114.436 91.3899 114.159 91.4384 113.891C91.5083 113.728 91.611 113.581 91.74 113.459C91.869 113.337 92.0216 113.243 92.1884 113.183C94.4539 112.096 97.1125 112.986 99.6263 113.027C101.892 113.053 104.11 112.37 105.968 111.072" stroke="#60250C" stroke-width="0.71" stroke-miterlimit="10"/>
<path d="M96.7252 123.238C94.8942 121.738 92.3856 121.458 90.0425 121.133C87.6994 120.807 85.17 120.264 83.6442 118.453C82.7287 117.367 81.958 115.733 80.5407 115.79C79.3769 115.836 78.6114 117.16 78.7149 118.319C78.8183 119.477 79.5321 120.481 80.22 121.422L82.558 124.655C81.417 125.083 80.3649 125.718 79.4545 126.527C78.6476 127.241 77.9028 129.114 77.0597 129.595C75.5856 130.438 71.1942 129.052 69.3011 129.036C63.6717 128.983 58.1104 130.268 53.0752 132.786C52.4934 133.008 52.002 133.418 51.6787 133.95C51.4097 134.508 51.6787 135.336 52.2735 135.424" stroke="#60250C" stroke-width="0.71" stroke-miterlimit="10"/>
</g>
<path d="M62.794 116.079C63.5915 115.947 64.4075 115.975 65.194 116.162L69.456 116.886C71.0853 117.166 72.7457 117.45 74.2043 118.231C73.4491 119.416 72.0009 119.964 70.6095 120.15C69.2181 120.336 67.7957 120.248 66.4198 120.512C66.1434 120.535 65.8757 120.62 65.6373 120.761C65.3989 120.903 65.1959 121.097 65.044 121.329C64.9301 121.618 64.8875 121.931 64.9198 122.24C64.956 123.972 65.0905 125.778 65.9543 127.283C66.8181 128.788 68.6078 129.9 70.2836 129.445C71.3181 129.16 72.2905 128.333 73.3198 128.628C72.4871 129.6 72.9474 131.281 72.0319 132.166C70.9974 133.2 69.2543 132.279 67.7957 132.362C66.8285 132.419 65.8198 132.931 64.9405 132.533C64.1802 132.186 63.8543 131.297 63.3112 130.66C62.4888 129.693 61.144 129.284 60.3474 128.297C59.8072 127.524 59.4856 126.62 59.4164 125.679C59.0129 122.705 58.8785 117.021 62.794 116.079Z" fill="#A2798C"/>
<path style="mix-blend-mode:multiply" d="M62.794 116.079C63.5915 115.947 64.4075 115.975 65.194 116.162L69.456 116.886C71.0853 117.166 72.7457 117.45 74.2043 118.231C73.4491 119.416 72.0009 119.964 70.6095 120.15C69.2181 120.336 67.7957 120.248 66.4198 120.512C66.1434 120.535 65.8757 120.62 65.6373 120.761C65.3989 120.903 65.1959 121.097 65.044 121.329C64.9301 121.618 64.8875 121.931 64.9198 122.24C64.956 123.972 65.0905 125.778 65.9543 127.283C66.8181 128.788 68.6078 129.9 70.2836 129.445C71.3181 129.16 72.2905 128.333 73.3198 128.628C72.4871 129.6 72.9474 131.281 72.0319 132.166C70.9974 133.2 69.2543 132.279 67.7957 132.362C66.8285 132.419 65.8198 132.931 64.9405 132.533C64.1802 132.186 63.8543 131.297 63.3112 130.66C62.4888 129.693 61.144 129.284 60.3474 128.297C59.8072 127.524 59.4856 126.62 59.4164 125.679C59.0129 122.705 58.8785 117.021 62.794 116.079Z" fill="url(#paint12_linear_833_25822)"/>
<path d="M65.5028 115.345C66.2998 115.208 67.1164 115.234 67.9028 115.423L72.1649 116.147C73.7942 116.426 75.4546 116.716 76.9132 117.497C76.158 118.676 74.7097 119.224 73.2925 119.416C71.8753 119.607 70.4787 119.509 69.1028 119.778C68.8304 119.806 68.5679 119.896 68.335 120.04C68.1021 120.184 67.9048 120.379 67.758 120.611C67.6441 120.9 67.6016 121.212 67.6339 121.521C67.6701 123.254 67.8046 125.059 68.6684 126.569C69.5322 128.08 71.3218 129.186 72.9977 128.726C74.0322 128.447 75.0046 127.614 76.0339 127.914C75.2011 128.881 75.6615 130.562 74.7459 131.452C73.7115 132.486 71.9684 131.561 70.5097 131.643C69.5425 131.7 68.5339 132.217 67.6546 131.814C66.8942 131.467 66.5684 130.583 66.0253 129.942C65.2028 128.974 63.858 128.566 63.0615 127.578C62.5206 126.805 62.1989 125.901 62.1304 124.961C61.7218 121.986 61.5873 116.307 65.5028 115.345Z" fill="#A2798C"/>
<path style="mix-blend-mode:multiply" d="M65.5028 115.345C66.2998 115.208 67.1164 115.234 67.9028 115.423L72.1649 116.147C73.7942 116.426 75.4546 116.716 76.9132 117.497C76.158 118.676 74.7097 119.224 73.2925 119.416C71.8753 119.607 70.4787 119.509 69.1028 119.778C68.8304 119.806 68.5679 119.896 68.335 120.04C68.1021 120.184 67.9048 120.379 67.758 120.611C67.6441 120.9 67.6016 121.212 67.6339 121.521C67.6701 123.254 67.8046 125.059 68.6684 126.569C69.5322 128.08 71.3218 129.186 72.9977 128.726C74.0322 128.447 75.0046 127.614 76.0339 127.914C75.2011 128.881 75.6615 130.562 74.7459 131.452C73.7115 132.486 71.9684 131.561 70.5097 131.643C69.5425 131.7 68.5339 132.217 67.6546 131.814C66.8942 131.467 66.5684 130.583 66.0253 129.942C65.2028 128.974 63.858 128.566 63.0615 127.578C62.5206 126.805 62.1989 125.901 62.1304 124.961C61.7218 121.986 61.5873 116.307 65.5028 115.345Z" fill="url(#paint13_linear_833_25822)"/>
<path d="M76.1952 112.872C76.9907 112.734 77.806 112.762 78.5901 112.955L82.8521 113.679C84.4989 113.867 86.1042 114.321 87.6056 115.024C86.8504 116.203 85.397 116.751 83.9849 116.943C82.5728 117.134 81.1711 117.041 79.7901 117.305C79.5142 117.327 79.2469 117.412 79.0086 117.552C78.7702 117.693 78.567 117.886 78.4142 118.117C78.3028 118.407 78.2603 118.718 78.2901 119.027C78.3314 120.765 78.4659 122.57 79.3245 124.076C80.1832 125.581 81.9728 126.693 83.6487 126.232C84.6832 125.953 85.6607 125.12 86.6849 125.42C85.8521 126.388 86.3176 128.069 85.4021 128.958C84.3676 129.993 82.6245 129.067 81.1607 129.15C80.1935 129.207 79.1901 129.724 78.3056 129.32C77.5452 128.974 77.2194 128.089 76.6763 127.448C75.859 126.481 74.509 126.077 73.7125 125.084C73.1711 124.312 72.851 123.407 72.7866 122.467C72.4142 119.482 72.2797 113.793 76.1952 112.872Z" fill="#A2798C"/>
<path style="mix-blend-mode:multiply" d="M76.1952 112.872C76.9907 112.734 77.806 112.762 78.5901 112.955L82.8521 113.679C84.4989 113.867 86.1042 114.321 87.6056 115.024C86.8504 116.203 85.397 116.751 83.9849 116.943C82.5728 117.134 81.1711 117.041 79.7901 117.305C79.5142 117.327 79.2469 117.412 79.0086 117.552C78.7702 117.693 78.567 117.886 78.4142 118.117C78.3028 118.407 78.2603 118.718 78.2901 119.027C78.3314 120.765 78.4659 122.57 79.3245 124.076C80.1832 125.581 81.9728 126.693 83.6487 126.232C84.6832 125.953 85.6607 125.12 86.6849 125.42C85.8521 126.388 86.3176 128.069 85.4021 128.958C84.3676 129.993 82.6245 129.067 81.1607 129.15C80.1935 129.207 79.1901 129.724 78.3056 129.32C77.5452 128.974 77.2194 128.089 76.6763 127.448C75.859 126.481 74.509 126.077 73.7125 125.084C73.1711 124.312 72.851 123.407 72.7866 122.467C72.4142 119.482 72.2797 113.793 76.1952 112.872Z" fill="url(#paint14_linear_833_25822)"/>
<path d="M78.0251 111.574C78.8227 111.442 79.6387 111.47 80.4251 111.657L84.6872 112.381C86.3165 112.661 87.9769 112.945 89.4355 113.726C88.6803 114.911 87.232 115.459 85.8148 115.645C84.3976 115.831 83.001 115.743 81.6251 116.007C81.3487 116.03 81.0811 116.115 80.8426 116.257C80.6042 116.398 80.4012 116.592 80.2493 116.824C80.1354 117.114 80.0928 117.426 80.1251 117.735C80.1613 119.468 80.2958 121.273 81.1596 122.778C82.0234 124.283 83.8131 125.395 85.4889 124.94C86.5234 124.655 87.4958 123.828 88.52 124.123C87.6924 125.09 88.1527 126.776 87.2372 127.661C86.2027 128.695 84.4596 127.774 83.001 127.857C82.0338 127.909 81.0251 128.426 80.1458 128.028C79.3803 127.681 79.0596 126.792 78.5165 126.155C77.6941 125.188 76.3441 124.78 75.5527 123.792C75.0086 123.019 74.6866 122.112 74.6217 121.169C74.2441 118.2 74.1096 112.516 78.0251 111.574Z" fill="#A2798C"/>
<path style="mix-blend-mode:multiply" d="M78.0251 111.574C78.8227 111.442 79.6387 111.47 80.4251 111.657L84.6872 112.381C86.3165 112.661 87.9769 112.945 89.4355 113.726C88.6803 114.911 87.232 115.459 85.8148 115.645C84.3976 115.831 83.001 115.743 81.6251 116.007C81.3487 116.03 81.0811 116.115 80.8426 116.257C80.6042 116.398 80.4012 116.592 80.2493 116.824C80.1354 117.114 80.0928 117.426 80.1251 117.735C80.1613 119.468 80.2958 121.273 81.1596 122.778C82.0234 124.283 83.8131 125.395 85.4889 124.94C86.5234 124.655 87.4958 123.828 88.52 124.123C87.6924 125.09 88.1527 126.776 87.2372 127.661C86.2027 128.695 84.4596 127.774 83.001 127.857C82.0338 127.909 81.0251 128.426 80.1458 128.028C79.3803 127.681 79.0596 126.792 78.5165 126.155C77.6941 125.188 76.3441 124.78 75.5527 123.792C75.0086 123.019 74.6866 122.112 74.6217 121.169C74.2441 118.2 74.1096 112.516 78.0251 111.574Z" fill="url(#paint15_linear_833_25822)"/>
<path d="M102.521 116.99C105.201 125.53 111.035 132.844 113.451 141.456C114.087 141.533 114.428 140.732 114.527 140.101C115.147 136.082 114.63 131.97 113.849 127.982C112.965 123.461 111.666 118.847 108.677 115.325C107.678 114.14 106.37 113.039 104.818 112.971C104.37 112.926 103.92 113.044 103.551 113.302C103.192 113.637 102.95 114.077 102.858 114.559C102.644 115.352 102.532 116.169 102.521 116.99Z" fill="#03256A"/>
<path style="mix-blend-mode:multiply" d="M102.521 116.99C105.201 125.53 111.035 132.844 113.451 141.456C114.087 141.533 114.428 140.732 114.527 140.101C115.147 136.082 114.63 131.97 113.849 127.982C112.965 123.461 111.666 118.847 108.677 115.325C107.678 114.14 106.37 113.039 104.818 112.971C104.37 112.926 103.92 113.044 103.551 113.302C103.192 113.637 102.95 114.077 102.858 114.559C102.644 115.352 102.532 116.169 102.521 116.99Z" fill="url(#paint16_linear_833_25822)"/>
<path d="M110.689 109.573C112.055 113.592 113.229 117.89 113.524 122.209C113.686 124.453 113.596 126.709 113.255 128.933C113.177 129.45 113.151 131.245 112.246 131.002C111.599 130.836 111.703 129.409 111.594 128.902C110.986 125.974 110.103 123.109 108.956 120.347C107.839 117.668 106.256 115.226 105.274 112.495C104.485 110.542 103.98 108.487 103.774 106.392C103.696 105.104 103.582 102.078 105.093 101.499C108.284 100.262 110.079 107.799 110.689 109.573Z" fill="#F99003"/>
<path style="mix-blend-mode:multiply" d="M110.689 109.573C112.055 113.592 113.229 117.89 113.524 122.209C113.686 124.453 113.596 126.709 113.255 128.933C113.177 129.45 113.151 131.245 112.246 131.002C111.599 130.836 111.703 129.409 111.594 128.902C110.986 125.974 110.103 123.109 108.956 120.347C107.839 117.668 106.256 115.226 105.274 112.495C104.485 110.542 103.98 108.487 103.774 106.392C103.696 105.104 103.582 102.078 105.093 101.499C108.284 100.262 110.079 107.799 110.689 109.573Z" fill="url(#paint17_linear_833_25822)"/>
<path d="M83.4767 96.6777C83.4661 96.8499 83.4661 97.0227 83.4767 97.1949C83.4767 99.4036 85.2974 101.985 86.3009 103.919C87.5544 106.243 88.9483 108.489 90.475 110.643C91.4854 112.147 92.5911 113.584 93.7854 114.947C95.4405 116.788 97.3388 118.381 99.1285 120.088C101.078 121.95 102.899 123.947 104.715 125.938L110.068 131.814C109.944 129.476 108.961 127.278 107.968 125.157C104.478 117.678 100.716 110.331 96.6819 103.117C95.3733 100.774 94.0026 98.4053 91.9853 96.6311C89.9681 94.857 83.8802 92.3329 83.4767 96.6777Z" fill="#074AA5"/>
<path style="mix-blend-mode:multiply" d="M83.4767 96.6777C83.4661 96.8499 83.4661 97.0227 83.4767 97.1949C83.4767 99.4036 85.2974 101.985 86.3009 103.919C87.5544 106.243 88.9483 108.489 90.475 110.643C91.4854 112.147 92.5911 113.584 93.7854 114.947C95.4405 116.788 97.3388 118.381 99.1285 120.088C101.078 121.95 102.899 123.947 104.715 125.938L110.068 131.814C109.944 129.476 108.961 127.278 107.968 125.157C104.478 117.678 100.716 110.331 96.6819 103.117C95.3733 100.774 94.0026 98.4053 91.9853 96.6311C89.9681 94.857 83.8802 92.3329 83.4767 96.6777Z" fill="url(#paint18_linear_833_25822)"/>
<path d="M93.9819 98.2082C93.7439 101.922 95.0164 105.569 96.5681 108.925C97.8457 111.61 99.3353 114.181 100.83 116.746L106.422 126.372C106.525 126.553 106.67 126.755 106.877 126.744C107.166 126.744 107.254 126.356 107.254 126.067C107.31 116.645 104.774 107.389 99.925 99.3099C99.4888 98.4716 98.8744 97.739 98.125 97.1634C97.7451 96.8822 97.2906 96.7194 96.8186 96.6955C96.3465 96.6715 95.8779 96.7875 95.4715 97.0289L93.9819 98.2082Z" fill="#003D90"/>
<path style="mix-blend-mode:multiply" d="M93.9819 98.2082C93.7439 101.922 95.0164 105.569 96.5681 108.925C97.8457 111.61 99.3353 114.181 100.83 116.746L106.422 126.372C106.525 126.553 106.67 126.755 106.877 126.744C107.166 126.744 107.254 126.356 107.254 126.067C107.31 116.645 104.774 107.389 99.925 99.3099C99.4888 98.4716 98.8744 97.739 98.125 97.1634C97.7451 96.8822 97.2906 96.7194 96.8186 96.6955C96.3465 96.6715 95.8779 96.7875 95.4715 97.0289L93.9819 98.2082Z" fill="url(#paint19_linear_833_25822)"/>
<path d="M98.332 95.462C98.0992 98.9431 99.2009 102.393 100.603 105.584C101.725 108.129 103.039 110.581 104.358 113.022L109.292 122.193C109.38 122.364 109.51 122.555 109.691 122.555C109.949 122.555 110.032 122.193 110.032 121.924C110.132 113.072 107.925 104.346 103.629 96.6051C103.25 95.8103 102.707 95.105 102.035 94.5362C101.708 94.2666 101.306 94.1042 100.883 94.0708C100.46 94.0375 100.037 94.135 99.6716 94.35L98.332 95.462Z" fill="#F99003"/>
<path style="mix-blend-mode:multiply" d="M98.332 95.462C98.0992 98.9431 99.2009 102.393 100.603 105.584C101.725 108.129 103.039 110.581 104.358 113.022L109.292 122.193C109.38 122.364 109.51 122.555 109.691 122.555C109.949 122.555 110.032 122.193 110.032 121.924C110.132 113.072 107.925 104.346 103.629 96.6051C103.25 95.8103 102.707 95.105 102.035 94.5362C101.708 94.2666 101.306 94.1042 100.883 94.0708C100.46 94.0375 100.037 94.135 99.6716 94.35L98.332 95.462Z" fill="url(#paint20_linear_833_25822)"/>
<path d="M111.868 113.866C110.663 114.104 109.556 113.193 108.656 112.34C104.782 108.616 100.965 104.68 96.1956 102.181C94.1985 101.2 92.1508 100.324 90.0611 99.559C89.1249 99.1917 88.1939 98.8142 87.2732 98.3848C76.5508 93.3935 69.8266 82.2417 67.2766 70.7228C66.7905 68.5067 66.4553 66.2601 66.2732 63.9986C65.6266 55.7228 67.437 42.9262 78.687 44.1883C85.1163 44.8969 90.8318 49.6555 94.4991 54.6004C96.6663 57.5073 98.2439 60.8073 99.6715 64.128C102.149 69.8387 104.274 75.6963 106.034 81.6676C106.813 84.3331 107.523 87.0176 108.165 89.7211C108.709 91.9762 109.206 94.2486 109.654 96.5383C110.72 102.267 111.46 108.053 111.868 113.866Z" fill="#2A6FB2"/>
<path style="mix-blend-mode:multiply" d="M111.868 113.866C110.663 114.104 109.556 113.193 108.656 112.34C104.782 108.616 100.965 104.68 96.1956 102.181C94.1985 101.2 92.1508 100.324 90.0611 99.559C89.1249 99.1917 88.1939 98.8142 87.2732 98.3848C76.5508 93.3935 69.8266 82.2417 67.2766 70.7228C66.7905 68.5067 66.4553 66.2601 66.2732 63.9986C65.6266 55.7228 67.437 42.9262 78.687 44.1883C85.1163 44.8969 90.8318 49.6555 94.4991 54.6004C96.6663 57.5073 98.2439 60.8073 99.6715 64.128C102.149 69.8387 104.274 75.6963 106.034 81.6676C106.813 84.3331 107.523 87.0176 108.165 89.7211C108.709 91.9762 109.206 94.2486 109.654 96.5383C110.72 102.267 111.46 108.053 111.868 113.866Z" fill="url(#paint21_linear_833_25822)"/>
<path d="M40.2778 52.0453C42.9416 53.675 45.2967 55.7623 47.2347 58.2109C48.0106 56.8609 48.7864 55.4074 48.8899 53.985C49.0192 52.1798 48.0209 50.9281 47.0692 49.8471C46.7689 49.4495 46.3926 49.1154 45.9623 48.8643C45.592 48.7052 45.1995 48.6041 44.7985 48.5643L40.7175 47.9488C40.464 47.9074 39.4657 50.235 39.5588 50.7936L40.2778 52.0453Z" fill="#19333A"/>
<path style="mix-blend-mode:multiply" d="M40.2778 52.0453C42.9416 53.675 45.2967 55.7623 47.2347 58.2109C48.0106 56.8609 48.7864 55.4074 48.8899 53.985C49.0192 52.1798 48.0209 50.9281 47.0692 49.8471C46.7689 49.4495 46.3926 49.1154 45.9623 48.8643C45.592 48.7052 45.1995 48.6041 44.7985 48.5643L40.7175 47.9488C40.464 47.9074 39.4657 50.235 39.5588 50.7936L40.2778 52.0453Z" fill="url(#paint22_linear_833_25822)"/>
<path style="mix-blend-mode:multiply" d="M54.785 51.8438C57.2523 53.2765 59.2385 55.4076 61.0954 57.5748C63.5392 60.4788 66.2935 63.1065 69.3092 65.411C68.7091 64.2006 68.2242 62.9364 67.8609 61.6352C66.6919 57.3834 66.8264 52.6352 64.1523 49.03C62.5875 46.9359 60.2753 45.5259 57.6971 45.0938C53.223 44.3748 49.2402 46.749 45.035 47.5559C42.8316 47.98 41.0471 47.3696 40.9902 50.1421C40.9876 50.1886 40.9876 50.2352 40.9902 50.2817C42.6971 50.38 44.4092 50.4214 46.0799 50.4421C49.2195 50.499 51.8057 50.1162 54.785 51.8438Z" fill="url(#paint23_linear_833_25822)"/>
<path d="M39.3097 60.5168C39.7946 61.0345 40.3223 61.5103 40.8873 61.9392C43.8045 64.1375 47.5028 65.0168 51.1235 65.5599C48.8397 63.3833 47.4523 60.4313 47.2338 57.284C47.0269 54.1133 48.0252 50.834 47.0993 47.7875C46.5821 46.0288 44.7097 43.9702 42.589 42.8168C40.4683 41.6633 37.9856 41.3943 36.3821 43.4012C35.4873 44.6375 35.1718 46.1943 35.0787 47.684C34.7476 52.3185 36.1493 57.2168 39.3097 60.5168Z" fill="#283F4A"/>
<path d="M45.6407 51.7963C46.1579 52.6084 46.789 53.2756 47.1924 54.1963C47.6557 55.4844 47.6721 56.8909 47.239 58.1894C48.9976 57.6722 50.6269 56.0273 51.9821 54.3101C53.3373 52.5928 54.5683 50.6894 56.089 49.2204C54.3562 47.6687 51.8321 47.5291 49.3648 47.8549C48.4907 47.9687 46.1735 47.2756 45.351 47.9222C44.151 48.848 45.201 51.0773 45.6407 51.7963Z" fill="#283F4A"/>
<path style="mix-blend-mode:multiply" d="M45.6407 51.7963C46.1579 52.6084 46.789 53.2756 47.1924 54.1963C47.6557 55.4844 47.6721 56.8909 47.239 58.1894C48.9976 57.6722 50.6269 56.0273 51.9821 54.3101C53.3373 52.5928 54.5683 50.6894 56.089 49.2204C54.3562 47.6687 51.8321 47.5291 49.3648 47.8549C48.4907 47.9687 46.1735 47.2756 45.351 47.9222C44.151 48.848 45.201 51.0773 45.6407 51.7963Z" fill="url(#paint24_linear_833_25822)"/>
<path style="mix-blend-mode:multiply" d="M39.3107 60.5174C39.7956 61.0351 40.3233 61.5109 40.8883 61.9398C43.8055 64.1381 47.5038 65.0174 51.1245 65.5605C48.8406 63.3839 47.4532 60.432 47.2348 57.2846C47.0279 54.1139 48.0262 50.8346 47.1003 47.7881C46.5831 46.0295 44.7107 43.9708 42.59 42.8174C43.2836 43.8999 43.82 45.0754 44.1831 46.3088C45.1141 49.5208 44.4624 53.3795 41.8607 55.4898C41.0641 56.126 40.1021 56.6174 39.59 57.4967C39.2045 58.2784 39.0812 59.1635 39.2383 60.0208C39.3107 60.2381 39.3107 60.3881 39.3107 60.5174Z" fill="url(#paint25_linear_833_25822)"/>
<g style="mix-blend-mode:multiply" opacity="0.46">
<path d="M52.1694 38.2762C53.1418 40.2831 55.2729 41.3073 56.9022 40.5676C58.5315 39.828 59.0798 37.5935 58.1022 35.5866C57.1246 33.5797 54.9987 32.5504 53.3746 33.2952C51.7505 34.04 51.2074 36.2538 52.1694 38.2762Z" fill="#A28787"/>
</g>
<path d="M52.3915 37.6756C52.7174 38.5652 53.8088 40.779 55.5312 40.179C56.3606 39.8896 57.0466 39.2916 57.4464 38.5093C57.8462 37.7271 57.9291 36.8208 57.6777 35.979C57.1605 34.2566 55.0346 32.8187 53.5812 33.9463C51.8794 35.2652 52.0708 36.8014 52.3915 37.6756Z" fill="#212121"/>
<path d="M52.9451 36.6314C52.9778 36.7508 53.0348 36.8621 53.1125 36.9584C53.1902 37.0548 53.2869 37.1341 53.3966 37.1913C53.5063 37.2486 53.6266 37.2827 53.7501 37.2913C53.8735 37.3 53.9974 37.2831 54.1141 37.2417C54.3531 37.1601 54.551 36.9887 54.6659 36.7638C54.7807 36.5389 54.8036 36.278 54.7296 36.0366C54.693 35.9198 54.633 35.8117 54.5534 35.7187C54.4738 35.6258 54.3762 35.5499 54.2664 35.4958C54.1567 35.4416 54.0371 35.4103 53.9149 35.4037C53.7927 35.397 53.6704 35.4153 53.5555 35.4573C53.3243 35.5398 53.133 35.7067 53.0198 35.9245C52.9066 36.1423 52.8799 36.3948 52.9451 36.6314Z" fill="white"/>
<path d="M111.868 113.865C110.663 114.103 109.556 113.193 108.656 112.339C104.782 108.615 100.964 104.679 96.1954 102.181C94.1983 101.199 92.1506 100.323 90.0609 99.5582C86.9574 96.972 83.9885 94.3237 81.6195 91.091C77.6981 85.6383 75.7814 78.9981 76.1936 72.2944C76.3281 69.9203 78.2936 62.5186 78.2936 62.5186C81.0143 62.9737 85.0178 71.0479 86.5695 73.0703C87.6867 74.5237 88.6954 76.0651 89.8747 77.472C94.4109 82.8151 101.192 85.5617 107.223 89.1358L108.18 89.7203C108.714 91.9755 109.206 94.2479 109.654 96.5375C110.72 102.267 111.459 108.052 111.868 113.865Z" fill="#65C73B"/>
<path style="mix-blend-mode:multiply" d="M111.868 113.865C110.663 114.103 109.556 113.193 108.656 112.339C104.782 108.615 100.964 104.679 96.1954 102.181C94.1983 101.199 92.1506 100.323 90.0609 99.5582C86.9574 96.972 83.9885 94.3237 81.6195 91.091C77.6981 85.6383 75.7814 78.9981 76.1936 72.2944C76.3281 69.9203 78.2936 62.5186 78.2936 62.5186C81.0143 62.9737 85.0178 71.0479 86.5695 73.0703C87.6867 74.5237 88.6954 76.0651 89.8747 77.472C94.4109 82.8151 101.192 85.5617 107.223 89.1358L108.18 89.7203C108.714 91.9755 109.206 94.2479 109.654 96.5375C110.72 102.267 111.459 108.052 111.868 113.865Z" fill="url(#paint26_linear_833_25822)"/>
<path d="M109.655 96.5375C107.407 95.0432 105.035 93.7453 102.564 92.6582C96.9258 90.1754 90.6362 88.4892 86.3534 84.0513C84.0103 81.6254 82.4689 78.5582 81 75.522C79.0086 71.441 77.0689 66.8789 78.2948 62.5186C81.4862 62.591 83.4672 65.8651 85.3965 68.3996C88.412 72.3565 92.6379 75.2582 97.0862 77.472C100.029 78.9358 103.133 80.1306 106.045 81.6668C107.496 86.5603 108.701 91.5234 109.655 96.5375Z" fill="#F99003"/>
<path style="mix-blend-mode:multiply" d="M109.655 96.5375C107.407 95.0432 105.035 93.7453 102.564 92.6582C96.9258 90.1754 90.6362 88.4892 86.3534 84.0513C84.0103 81.6254 82.4689 78.5582 81 75.522C79.0086 71.441 77.0689 66.8789 78.2948 62.5186C81.4862 62.591 83.4672 65.8651 85.3965 68.3996C88.412 72.3565 92.6379 75.2582 97.0862 77.472C100.029 78.9358 103.133 80.1306 106.045 81.6668C107.496 86.5603 108.701 91.5234 109.655 96.5375Z" fill="url(#paint27_linear_833_25822)"/>
<path style="mix-blend-mode:soft-light" d="M83.8652 91.9294C91.1065 98.4518 98.7721 102.543 105.946 106.733C99.9462 97.9863 93.2065 89.2552 87.2065 80.5087C85.5808 78.2341 84.0952 75.8625 82.7583 73.407C81.0048 70.0242 79.7996 66.2587 76.8876 63.419C75.7496 62.307 73.5358 60.1656 71.3014 60.9725C69.0669 61.7794 69.3565 63.7863 69.5789 65.038C71.1307 73.8311 76.7686 85.5363 83.8652 91.9294Z" fill="url(#paint28_linear_833_25822)"/>
<path style="mix-blend-mode:soft-light" d="M88.3856 88.2209C95.1718 95.0691 103.355 101.017 109.137 108.435L92.9994 81.3467C91.5288 78.9912 90.2056 76.5469 89.0373 74.0278C87.5166 70.5571 86.5649 66.7243 83.8649 63.7502C82.8304 62.5864 80.7615 60.3467 78.4804 61.0709C76.1994 61.795 76.3649 63.8226 76.5046 65.0898C77.4925 73.9967 81.7597 81.5174 88.3856 88.2209Z" fill="url(#paint29_linear_833_25822)"/>
<path style="mix-blend-mode:soft-light" d="M91.6297 85.5679C97.49 92.9489 104.876 99.5334 109.733 107.411C105.481 97.9316 101.231 88.4489 96.9831 78.9627C95.8062 76.4758 94.787 73.9173 93.9314 71.3023C92.84 67.6816 92.3486 63.7661 90.0314 60.5799C89.1262 59.3334 87.3676 56.9282 85.0503 57.4765C82.7331 58.0248 82.6503 60.0989 82.64 61.3868C82.5624 70.4592 85.8934 78.342 91.6297 85.5679Z" fill="url(#paint30_linear_833_25822)"/>
<path style="mix-blend-mode:soft-light" d="M109.136 104.389C108.185 99.5962 107.236 94.8031 106.291 90.01C105.045 83.6997 103.773 77.3221 100.654 71.6014C98.6834 67.8339 95.9743 64.5021 92.688 61.8048C91.7828 61.0962 89.5484 59.3945 88.1828 61.1841C87.3139 62.3221 89.4966 65.6945 89.9518 66.7807C93.4173 75.0566 98.3156 82.7479 102.65 90.6617C105.143 95.0741 107.31 99.6621 109.136 104.389Z" fill="url(#paint31_linear_833_25822)"/>
</g>
<defs>
<linearGradient id="paint0_linear_833_25822" x1="84.382" y1="85.2463" x2="51.1388" y2="85.2463" gradientUnits="userSpaceOnUse">
<stop offset="0.01" stop-color="white" stop-opacity="0"/>
<stop offset="0.99" stop-color="#385EA1"/>
</linearGradient>
<linearGradient id="paint1_linear_833_25822" x1="104.494" y1="176.493" x2="103.226" y2="139.983" gradientUnits="userSpaceOnUse">
<stop offset="0.01" stop-color="white" stop-opacity="0"/>
<stop offset="1" stop-color="#7595E0"/>
</linearGradient>
<linearGradient id="paint2_linear_833_25822" x1="93.9677" y1="148.19" x2="109.961" y2="148.19" gradientUnits="userSpaceOnUse">
<stop offset="0.01" stop-color="white" stop-opacity="0"/>
<stop offset="1" stop-color="#7595E0"/>
</linearGradient>
<linearGradient id="paint3_linear_833_25822" x1="104.494" y1="176.493" x2="103.226" y2="139.983" gradientUnits="userSpaceOnUse">
<stop offset="0.01" stop-color="white" stop-opacity="0"/>
<stop offset="1" stop-color="#7595E0"/>
</linearGradient>
<linearGradient id="paint4_linear_833_25822" x1="103.031" y1="199.2" x2="96.6093" y2="150.786" gradientUnits="userSpaceOnUse">
<stop offset="0.01" stop-color="white" stop-opacity="0"/>
<stop offset="1" stop-color="#DB6379"/>
</linearGradient>
<linearGradient id="paint5_linear_833_25822" x1="124.459" y1="207.906" x2="98.8753" y2="171" gradientUnits="userSpaceOnUse">
<stop offset="0.01" stop-color="white" stop-opacity="0"/>
<stop offset="0.99" stop-color="#385EA1"/>
</linearGradient>
<linearGradient id="paint6_linear_833_25822" x1="103.843" y1="175.343" x2="80.004" y2="181.799" gradientUnits="userSpaceOnUse">
<stop offset="0.01" stop-color="white" stop-opacity="0"/>
<stop offset="0.99" stop-color="#385EA1"/>
</linearGradient>
<linearGradient id="paint7_linear_833_25822" x1="91.4865" y1="150.577" x2="88.3402" y2="188.144" gradientUnits="userSpaceOnUse">
<stop offset="0.01" stop-color="white" stop-opacity="0"/>
<stop offset="1" stop-color="#DB6379"/>
</linearGradient>
<linearGradient id="paint8_linear_833_25822" x1="106.911" y1="162.051" x2="90.6891" y2="154.402" gradientUnits="userSpaceOnUse">
<stop offset="0.01" stop-color="white" stop-opacity="0"/>
<stop offset="0.99" stop-color="#385EA1"/>
</linearGradient>
<linearGradient id="paint9_linear_833_25822" x1="89.4821" y1="187.764" x2="93.3861" y2="151.468" gradientUnits="userSpaceOnUse">
<stop offset="0.01" stop-color="white" stop-opacity="0"/>
<stop offset="1" stop-color="#7595E0"/>
</linearGradient>
<linearGradient id="paint10_linear_833_25822" x1="87.7022" y1="191.319" x2="86.0262" y2="142.514" gradientUnits="userSpaceOnUse">
<stop offset="0.01" stop-color="white" stop-opacity="0"/>
<stop offset="1" stop-color="#DB6379"/>
</linearGradient>
<linearGradient id="paint11_linear_833_25822" x1="59.0738" y1="61.6865" x2="107.038" y2="93.9675" gradientUnits="userSpaceOnUse">
<stop offset="0.01" stop-color="white" stop-opacity="0"/>
<stop offset="0.99" stop-color="#385EA1"/>
</linearGradient>
<linearGradient id="paint12_linear_833_25822" x1="51.0841" y1="122.32" x2="70.4304" y2="125.166" gradientUnits="userSpaceOnUse">
<stop offset="0.01" stop-color="white" stop-opacity="0"/>
<stop offset="0.99" stop-color="#385EA1"/>
</linearGradient>
<linearGradient id="paint13_linear_833_25822" x1="53.7924" y1="121.601" x2="73.1417" y2="124.452" gradientUnits="userSpaceOnUse">
<stop offset="0.01" stop-color="white" stop-opacity="0"/>
<stop offset="0.99" stop-color="#385EA1"/>
</linearGradient>
<linearGradient id="paint14_linear_833_25822" x1="64.4851" y1="119.107" x2="83.8344" y2="121.958" gradientUnits="userSpaceOnUse">
<stop offset="0.01" stop-color="white" stop-opacity="0"/>
<stop offset="0.99" stop-color="#385EA1"/>
</linearGradient>
<linearGradient id="paint15_linear_833_25822" x1="66.3167" y1="117.812" x2="85.6661" y2="120.662" gradientUnits="userSpaceOnUse">
<stop offset="0.01" stop-color="white" stop-opacity="0"/>
<stop offset="0.99" stop-color="#385EA1"/>
</linearGradient>
<linearGradient id="paint16_linear_833_25822" x1="102.505" y1="127.192" x2="114.83" y2="127.222" gradientUnits="userSpaceOnUse">
<stop offset="0.01" stop-color="white" stop-opacity="0"/>
<stop offset="0.99" stop-color="#385EA1"/>
</linearGradient>
<linearGradient id="paint17_linear_833_25822" x1="117.708" y1="124.024" x2="110.539" y2="117.295" gradientUnits="userSpaceOnUse">
<stop offset="0.01" stop-color="white" stop-opacity="0"/>
<stop offset="1" stop-color="#DB6379"/>
</linearGradient>
<linearGradient id="paint18_linear_833_25822" x1="96.5268" y1="120.246" x2="97.001" y2="108.211" gradientUnits="userSpaceOnUse">
<stop offset="0.01" stop-color="white" stop-opacity="0"/>
<stop offset="0.99" stop-color="#385EA1"/>
</linearGradient>
<linearGradient id="paint19_linear_833_25822" x1="93.9252" y1="111.684" x2="107.322" y2="111.717" gradientUnits="userSpaceOnUse">
<stop offset="0.01" stop-color="white" stop-opacity="0"/>
<stop offset="1" stop-color="#7595E0"/>
</linearGradient>
<linearGradient id="paint20_linear_833_25822" x1="100.742" y1="115.831" x2="103.892" y2="109.422" gradientUnits="userSpaceOnUse">
<stop offset="0.01" stop-color="white" stop-opacity="0"/>
<stop offset="1" stop-color="#DB6379"/>
</linearGradient>
<linearGradient id="paint21_linear_833_25822" x1="75.1646" y1="49.6607" x2="88.9697" y2="81.1193" gradientUnits="userSpaceOnUse">
<stop offset="0.01" stop-color="white" stop-opacity="0"/>
<stop offset="1" stop-color="#7595E0"/>
</linearGradient>
<linearGradient id="paint22_linear_833_25822" x1="47.6455" y1="48.8901" x2="43.3651" y2="53.4853" gradientUnits="userSpaceOnUse">
<stop offset="0.01" stop-color="white" stop-opacity="0"/>
<stop offset="0.99" stop-color="#385EA1"/>
</linearGradient>
<linearGradient id="paint23_linear_833_25822" x1="67.1411" y1="65.4028" x2="49.5988" y2="44.9144" gradientUnits="userSpaceOnUse">
<stop offset="0.01" stop-color="white" stop-opacity="0"/>
<stop offset="0.99" stop-color="#385EA1"/>
</linearGradient>
<linearGradient id="paint24_linear_833_25822" x1="44.1868" y1="54.547" x2="53.6074" y2="47.1517" gradientUnits="userSpaceOnUse">
<stop offset="0.01" stop-color="white" stop-opacity="0"/>
<stop offset="0.99" stop-color="#385EA1"/>
</linearGradient>
<linearGradient id="paint25_linear_833_25822" x1="33.9589" y1="52.8326" x2="51.4221" y2="56.8583" gradientUnits="userSpaceOnUse">
<stop offset="0.01" stop-color="white" stop-opacity="0"/>
<stop offset="0.99" stop-color="#385EA1"/>
</linearGradient>
<linearGradient id="paint26_linear_833_25822" x1="80.104" y1="109.277" x2="97.3023" y2="85.0599" gradientUnits="userSpaceOnUse">
<stop offset="0.01" stop-color="white" stop-opacity="0"/>
<stop offset="1" stop-color="#4589C2"/>
</linearGradient>
<linearGradient id="paint27_linear_833_25822" x1="77.912" y1="79.5255" x2="109.629" y2="79.5255" gradientUnits="userSpaceOnUse">
<stop offset="0.01" stop-color="white" stop-opacity="0"/>
<stop offset="1" stop-color="#DB6379"/>
</linearGradient>
<linearGradient id="paint28_linear_833_25822" x1="70.0796" y1="84.3732" x2="105.187" y2="83.2454" gradientUnits="userSpaceOnUse">
<stop offset="0.11" stop-color="white" stop-opacity="0"/>
<stop offset="0.77" stop-color="#33DDE3"/>
</linearGradient>
<linearGradient id="paint29_linear_833_25822" x1="76.0786" y1="84.3572" x2="109.58" y2="84.9712" gradientUnits="userSpaceOnUse">
<stop offset="0.11" stop-color="white" stop-opacity="0"/>
<stop offset="0.77" stop-color="#33DDE3"/>
</linearGradient>
<linearGradient id="paint30_linear_833_25822" x1="80.4984" y1="80.5259" x2="112.252" y2="83.9643" gradientUnits="userSpaceOnUse">
<stop offset="0.11" stop-color="white" stop-opacity="0"/>
<stop offset="0.77" stop-color="#33DDE3"/>
</linearGradient>
<linearGradient id="paint31_linear_833_25822" x1="87.6766" y1="82.2133" x2="109.43" y2="82.5208" gradientUnits="userSpaceOnUse">
<stop offset="0.11" stop-color="white" stop-opacity="0"/>
<stop offset="0.77" stop-color="#33DDE3"/>
</linearGradient>
<clipPath id="clip0_833_25822">
<rect width="150" height="150" fill="white"/>
</clipPath>
</defs>
</svg>
