<svg width="150" height="150" viewBox="0 0 150 150" fill="none" xmlns="http://www.w3.org/2000/svg">
<path d="M117.653 65.5434C115.631 61.0434 115.044 60.4564 115.044 60.4564C115.044 60.4564 118.827 57.4564 117.849 55.4999C116.87 53.5434 113.414 55.3695 113.414 55.3695C113.414 55.3695 114.849 52.1738 112.631 51.5217C110.414 50.8695 107.609 57.913 107.609 57.913C107.609 57.913 107.218 53.9999 104.088 53.6086C100.957 53.2173 103.892 58.826 103.892 58.826C103.892 58.826 99.7833 57.326 97.1094 66.1303C94.4355 74.9347 98.4789 100.369 95.5442 109.174C92.6094 117.978 88.1746 114.196 83.6094 113.804L85.6963 121.304C85.6963 121.304 98.0876 126.717 105.327 122.022C112.566 117.326 119.675 70.0434 117.653 65.5434Z" fill="#EA9B3F"/>
<path d="M97.956 123.913C97.8256 123.783 97.6951 123.653 97.4995 123.587C94.4343 121.5 92.543 117.913 92.2821 114.261C89.7386 115.892 86.6734 114.066 83.543 113.805L85.6299 121.305C85.6299 121.239 91.7604 123.979 97.956 123.913Z" fill="#CC8737"/>
<path d="M58.0425 72.8475L53.7382 65.6084C53.6077 69.3258 52.2382 72.7823 51.3904 76.3693C49.2382 84.7823 49.7599 94.1736 54.586 101.348C54.7164 101.478 54.8469 101.674 55.0425 101.674C55.173 101.674 55.3686 101.608 55.4991 101.478C57.3251 99.978 58.1077 97.5649 58.6295 95.2823C60.3251 87.9128 60.586 80.0214 58.0425 72.8475Z" fill="#CC8737"/>
<path d="M91.8268 7.56499C97.7616 11.6085 96.1311 18.3259 93.8485 20.0867C91.5007 21.8476 88.3702 21.1954 88.3702 21.1954L82.1094 12.4563C82.1094 12.4563 85.892 3.52151 91.8268 7.56499Z" fill="#4A0F00"/>
<path d="M91.6313 10.2388C96.0661 13.304 94.8922 18.3258 93.1313 19.6953C91.3704 21.0649 88.9574 20.5432 88.9574 20.5432L84.2617 13.9562C84.2617 13.891 87.1965 7.1736 91.6313 10.2388Z" fill="#EAA17C"/>
<path d="M91.6313 10.2388C93.3269 11.4127 94.1748 12.8475 94.5661 14.2171C94.1095 13.2388 93.3269 12.2606 92.0878 11.478C88.24 8.86926 85.5661 13.4997 84.9139 14.804L84.2617 13.9562C84.2617 13.891 87.1965 7.1736 91.6313 10.2388Z" fill="#BCBEC0"/>
<path d="M58.5655 8.02133C52.6307 11.9996 54.1307 18.717 56.4785 20.5431C58.8264 22.3692 61.9568 21.717 61.9568 21.717L68.2829 13.0431C68.2829 13.0431 64.5655 4.04307 58.5655 8.02133Z" fill="#4A0F00"/>
<path d="M58.7617 10.6955C54.2617 13.6955 55.4356 18.7824 57.1964 20.0868C58.9573 21.4563 61.3703 20.9998 61.3703 20.9998L66.1312 14.4781C66.066 14.4781 63.2617 7.69545 58.7617 10.6955Z" fill="#EAA17C"/>
<path d="M58.761 10.6955C57.0653 11.8041 56.1523 13.2389 55.8262 14.6737C56.3479 13.6955 57.1305 12.7172 58.3044 11.9346C62.1523 9.32589 64.8262 13.9563 65.4783 15.3259L66.1305 14.4781C66.0653 14.4781 63.261 7.69545 58.761 10.6955Z" fill="#BCBEC0"/>
<mask id="mask0_833_25525" style="mask-type:luminance" maskUnits="userSpaceOnUse" x="44" y="9" width="49" height="132">
<path d="M64.8911 10.8257C67.9563 8.54307 84.4563 9.19525 87.065 12.5865C89.6737 15.9779 92.2824 24.717 90.652 29.6735C89.0216 34.63 86.4129 35.9996 85.4346 42.1952C84.3911 48.3909 87.9781 58.4344 87.065 68.3474C86.152 78.2605 81.8476 89.3474 83.8042 100.108C85.7607 110.869 96.2607 130.239 90.5216 137.739C88.8259 140.478 45.7824 141.195 44.5433 138.587C43.3042 135.978 46.6303 132.13 50.2824 131.739C48.5216 132.195 47.0868 126.913 46.8259 119.869C46.565 112.76 55.4346 99.0648 55.4346 99.0648C55.4346 99.0648 50.152 72.717 53.4129 61.8909C56.6737 51.0648 61.8259 45.5213 62.4781 43.1735C63.065 40.8257 60.3911 36.0648 58.8259 29.7387C57.2607 23.4126 60.2607 14.3474 64.8911 10.8257Z" fill="white"/>
</mask>
<g mask="url(#mask0_833_25525)">
<path d="M64.8911 10.8257C67.9563 8.54307 84.4563 9.19525 87.065 12.5865C89.6737 15.9779 92.2824 24.717 90.652 29.6735C89.0216 34.63 86.4129 35.9996 85.4346 42.1952C84.3911 48.3909 87.9781 58.4344 87.065 68.3474C86.152 78.2605 81.8476 89.3474 83.8042 100.108C85.7607 110.869 96.2607 130.239 90.5216 137.739C88.8259 140.478 45.7824 141.195 44.5433 138.587C43.3042 135.978 46.6303 132.13 50.2824 131.739C48.5216 132.195 47.0868 126.913 46.8259 119.869C46.565 112.76 55.4346 99.0648 55.4346 99.0648C55.4346 99.0648 50.152 72.717 53.4129 61.8909C56.6737 51.0648 61.8259 45.5213 62.4781 43.1735C63.065 40.8257 60.3911 36.0648 58.8259 29.7387C57.2607 23.4126 60.2607 14.3474 64.8911 10.8257Z" fill="#EA9B3F"/>
</g>
<mask id="mask1_833_25525" style="mask-type:luminance" maskUnits="userSpaceOnUse" x="44" y="9" width="49" height="132">
<path d="M64.8911 10.8257C67.9563 8.54307 84.4563 9.19525 87.065 12.5865C89.6737 15.9779 92.2824 24.717 90.652 29.6735C89.0216 34.63 86.4129 35.9996 85.4346 42.1952C84.3911 48.3909 87.9781 58.4344 87.065 68.3474C86.152 78.2605 81.8476 89.3474 83.8042 100.108C85.7607 110.869 96.2607 130.239 90.5216 137.739C88.8259 140.478 45.7824 141.195 44.5433 138.587C43.3042 135.978 46.6303 132.13 50.2824 131.739C48.5216 132.195 47.0868 126.913 46.8259 119.869C46.565 112.76 55.4346 99.0648 55.4346 99.0648C55.4346 99.0648 50.152 72.717 53.4129 61.8909C56.6737 51.0648 61.8259 45.5213 62.4781 43.1735C63.065 40.8257 60.3911 36.0648 58.8259 29.7387C57.2607 23.4126 60.2607 14.3474 64.8911 10.8257Z" fill="white"/>
</mask>
<g mask="url(#mask1_833_25525)">
<path d="M92.674 25.369C92.3479 24.4559 89.8696 20.1516 86.3479 19.9559C82.8262 19.7603 75.9131 21.3255 75.9131 21.3255L73.6957 21.1951L72.9783 20.7385C72.9783 20.7385 67.761 18.2603 64.4349 19.369C61.1088 20.5429 57.3262 24.782 56.6088 26.8038C55.3044 30.3907 49.8262 94.3037 49.8262 94.3037C49.8262 94.3037 54.0653 93.5864 55.5001 98.9994C56.674 103.434 55.3696 114.717 56.0218 116.282C56.674 117.847 57.9131 117.195 57.9131 117.195C57.9131 117.195 54.587 122.608 55.5653 123.912C56.5436 125.152 57.0653 125.804 57.7175 124.76C58.1088 124.173 58.4349 123.652 58.8914 123.195L58.6305 125.608C58.9566 125.086 59.3479 124.695 59.8696 124.434L59.3479 130.304C58.8914 131.478 58.6305 132.652 58.5653 133.891C58.5001 134.347 58.5653 134.869 58.8914 135.195C59.3479 135.586 60.0653 135.391 60.587 135.13C60.4566 136.108 61.0436 137.086 61.8914 137.478C62.8044 137.869 63.9131 137.608 64.5001 136.825C64.4349 137.543 65.087 138.26 65.8044 138.456C66.5218 138.652 67.3044 138.521 68.0218 138.325L69.6523 140.804C69.6523 140.804 69.8479 135.26 72.4566 134.739C72.4566 134.739 70.1088 131.412 69.587 129.456C67.8262 122.739 69.9783 115.173 75.0001 110.347C75.0001 110.347 75.7827 90.1298 73.8262 82.9559C71.8697 75.782 71.5436 56.6081 72.7175 52.8255C73.8914 49.0429 87.1305 39.782 88.8914 37.5646C90.3914 35.4777 93.0001 26.3472 92.674 25.369Z" fill="#FFBF75"/>
</g>
<mask id="mask2_833_25525" style="mask-type:luminance" maskUnits="userSpaceOnUse" x="44" y="9" width="49" height="132">
<path d="M64.8911 10.8257C67.9563 8.54307 84.4563 9.19525 87.065 12.5865C89.6737 15.9779 92.2824 24.717 90.652 29.6735C89.0216 34.63 86.4129 35.9996 85.4346 42.1952C84.3911 48.3909 87.9781 58.4344 87.065 68.3474C86.152 78.2605 81.8476 89.3474 83.8042 100.108C85.7607 110.869 96.2607 130.239 90.5216 137.739C88.8259 140.478 45.7824 141.195 44.5433 138.587C43.3042 135.978 46.6303 132.13 50.2824 131.739C48.5216 132.195 47.0868 126.913 46.8259 119.869C46.565 112.76 55.4346 99.0648 55.4346 99.0648C55.4346 99.0648 50.152 72.717 53.4129 61.8909C56.6737 51.0648 61.8259 45.5213 62.4781 43.1735C63.065 40.8257 60.3911 36.0648 58.8259 29.7387C57.2607 23.4126 60.2607 14.3474 64.8911 10.8257Z" fill="white"/>
</mask>
<g mask="url(#mask2_833_25525)">
<path d="M69.7823 140.869C69.8475 138.847 69.9779 136.304 72.0649 135.325C73.2388 134.738 74.6736 134.608 75.9779 134.478C77.3475 134.347 78.7171 134.282 80.0214 134.217C81.5866 134.217 83.1518 134.282 84.7171 134.282C85.0431 134.282 85.0431 133.76 84.7171 133.76C81.7171 133.63 78.7171 133.565 75.7823 133.891C74.4779 134.021 73.0431 134.217 71.804 134.804C70.8257 135.26 70.1084 136.108 69.7171 137.151C69.2605 138.325 69.1953 139.63 69.1953 140.869C69.2605 141.195 69.7823 141.195 69.7823 140.869Z" fill="#4A0F00"/>
</g>
<mask id="mask3_833_25525" style="mask-type:luminance" maskUnits="userSpaceOnUse" x="44" y="9" width="49" height="132">
<path d="M64.8911 10.8257C67.9563 8.54307 84.4563 9.19525 87.065 12.5865C89.6737 15.9779 92.2824 24.717 90.652 29.6735C89.0216 34.63 86.4129 35.9996 85.4346 42.1952C84.3911 48.3909 87.9781 58.4344 87.065 68.3474C86.152 78.2605 81.8476 89.3474 83.8042 100.108C85.7607 110.869 96.2607 130.239 90.5216 137.739C88.8259 140.478 45.7824 141.195 44.5433 138.587C43.3042 135.978 46.6303 132.13 50.2824 131.739C48.5216 132.195 47.0868 126.913 46.8259 119.869C46.565 112.76 55.4346 99.0648 55.4346 99.0648C55.4346 99.0648 50.152 72.717 53.4129 61.8909C56.6737 51.0648 61.8259 45.5213 62.4781 43.1735C63.065 40.8257 60.3911 36.0648 58.8259 29.7387C57.2607 23.4126 60.2607 14.3474 64.8911 10.8257Z" fill="white"/>
</mask>
<g mask="url(#mask3_833_25525)">
<path d="M48.3266 132.13C51.7179 131.739 55.1744 132.391 58.2396 133.956C58.5657 134.086 58.8266 133.63 58.5005 133.499C55.3701 131.934 51.7831 131.282 48.3266 131.608C48.0005 131.673 48.0005 132.195 48.3266 132.13Z" fill="#4A0F00"/>
</g>
<mask id="mask4_833_25525" style="mask-type:luminance" maskUnits="userSpaceOnUse" x="44" y="9" width="49" height="132">
<path d="M64.8911 10.8257C67.9563 8.54307 84.4563 9.19525 87.065 12.5865C89.6737 15.9779 92.2824 24.717 90.652 29.6735C89.0216 34.63 86.4129 35.9996 85.4346 42.1952C84.3911 48.3909 87.9781 58.4344 87.065 68.3474C86.152 78.2605 81.8476 89.3474 83.8042 100.108C85.7607 110.869 96.2607 130.239 90.5216 137.739C88.8259 140.478 45.7824 141.195 44.5433 138.587C43.3042 135.978 46.6303 132.13 50.2824 131.739C48.5216 132.195 47.0868 126.913 46.8259 119.869C46.565 112.76 55.4346 99.0648 55.4346 99.0648C55.4346 99.0648 50.152 72.717 53.4129 61.8909C56.6737 51.0648 61.8259 45.5213 62.4781 43.1735C63.065 40.8257 60.3911 36.0648 58.8259 29.7387C57.2607 23.4126 60.2607 14.3474 64.8911 10.8257Z" fill="white"/>
</mask>
<g mask="url(#mask4_833_25525)">
<path d="M48.3899 134.543C46.6943 136.434 45.7812 138.913 46.0421 141.456C46.0421 141.782 46.5638 141.782 46.5638 141.456C46.3682 139.043 47.1508 136.695 48.7812 134.934C48.9769 134.674 48.5856 134.347 48.3899 134.543Z" fill="#4A0F00"/>
</g>
<mask id="mask5_833_25525" style="mask-type:luminance" maskUnits="userSpaceOnUse" x="44" y="9" width="49" height="132">
<path d="M64.8911 10.8257C67.9563 8.54307 84.4563 9.19525 87.065 12.5865C89.6737 15.9779 92.2824 24.717 90.652 29.6735C89.0216 34.63 86.4129 35.9996 85.4346 42.1952C84.3911 48.3909 87.9781 58.4344 87.065 68.3474C86.152 78.2605 81.8476 89.3474 83.8042 100.108C85.7607 110.869 96.2607 130.239 90.5216 137.739C88.8259 140.478 45.7824 141.195 44.5433 138.587C43.3042 135.978 46.6303 132.13 50.2824 131.739C48.5216 132.195 47.0868 126.913 46.8259 119.869C46.565 112.76 55.4346 99.0648 55.4346 99.0648C55.4346 99.0648 50.152 72.717 53.4129 61.8909C56.6737 51.0648 61.8259 45.5213 62.4781 43.1735C63.065 40.8257 60.3911 36.0648 58.8259 29.7387C57.2607 23.4126 60.2607 14.3474 64.8911 10.8257Z" fill="white"/>
</mask>
<g mask="url(#mask5_833_25525)">
<path d="M51.4561 134.673C50.0865 136.76 49.3691 139.173 49.3691 141.652C49.3691 141.978 49.8909 141.978 49.8909 141.652C49.8257 139.239 50.5431 136.891 51.8474 134.934C52.0431 134.673 51.5865 134.413 51.4561 134.673Z" fill="#4A0F00"/>
</g>
<mask id="mask6_833_25525" style="mask-type:luminance" maskUnits="userSpaceOnUse" x="44" y="9" width="49" height="132">
<path d="M64.8911 10.8257C67.9563 8.54307 84.4563 9.19525 87.065 12.5865C89.6737 15.9779 92.2824 24.717 90.652 29.6735C89.0216 34.63 86.4129 35.9996 85.4346 42.1952C84.3911 48.3909 87.9781 58.4344 87.065 68.3474C86.152 78.2605 81.8476 89.3474 83.8042 100.108C85.7607 110.869 96.2607 130.239 90.5216 137.739C88.8259 140.478 45.7824 141.195 44.5433 138.587C43.3042 135.978 46.6303 132.13 50.2824 131.739C48.5216 132.195 47.0868 126.913 46.8259 119.869C46.565 112.76 55.4346 99.0648 55.4346 99.0648C55.4346 99.0648 50.152 72.717 53.4129 61.8909C56.6737 51.0648 61.8259 45.5213 62.4781 43.1735C63.065 40.8257 60.3911 36.0648 58.8259 29.7387C57.2607 23.4126 60.2607 14.3474 64.8911 10.8257Z" fill="white"/>
</mask>
<g mask="url(#mask6_833_25525)">
<path d="M74.0867 135.978C73.1084 138.196 72.5867 140.543 72.5215 142.956C72.5215 143.283 73.0432 143.283 73.0432 142.956C73.1084 140.674 73.6302 138.326 74.5432 136.239C74.6737 135.978 74.2824 135.717 74.0867 135.978Z" fill="#4A0F00"/>
</g>
<mask id="mask7_833_25525" style="mask-type:luminance" maskUnits="userSpaceOnUse" x="44" y="9" width="49" height="132">
<path d="M64.8911 10.8257C67.9563 8.54307 84.4563 9.19525 87.065 12.5865C89.6737 15.9779 92.2824 24.717 90.652 29.6735C89.0216 34.63 86.4129 35.9996 85.4346 42.1952C84.3911 48.3909 87.9781 58.4344 87.065 68.3474C86.152 78.2605 81.8476 89.3474 83.8042 100.108C85.7607 110.869 96.2607 130.239 90.5216 137.739C88.8259 140.478 45.7824 141.195 44.5433 138.587C43.3042 135.978 46.6303 132.13 50.2824 131.739C48.5216 132.195 47.0868 126.913 46.8259 119.869C46.565 112.76 55.4346 99.0648 55.4346 99.0648C55.4346 99.0648 50.152 72.717 53.4129 61.8909C56.6737 51.0648 61.8259 45.5213 62.4781 43.1735C63.065 40.8257 60.3911 36.0648 58.8259 29.7387C57.2607 23.4126 60.2607 14.3474 64.8911 10.8257Z" fill="white"/>
</mask>
<g mask="url(#mask7_833_25525)">
<path d="M77.0872 136.043C76.435 136.826 76.3698 138 76.2394 138.978C76.109 140.217 75.9785 141.391 75.9785 142.63C75.9785 142.956 76.5003 142.956 76.5003 142.63C76.5003 141.521 76.5655 140.413 76.6959 139.369C76.7611 138.847 76.8263 138.26 76.9568 137.739C77.022 137.282 77.1524 136.826 77.4785 136.434C77.6742 136.173 77.3481 135.782 77.0872 136.043Z" fill="#4A0F00"/>
</g>
<path d="M66.0002 21.848C68.1253 21.848 69.848 20.1253 69.848 18.0002C69.848 15.8751 68.1253 14.1523 66.0002 14.1523C63.8751 14.1523 62.1523 15.8751 62.1523 18.0002C62.1523 20.1253 63.8751 21.848 66.0002 21.848Z" fill="#4A0F00"/>
<mask id="mask8_833_25525" style="mask-type:luminance" maskUnits="userSpaceOnUse" x="62" y="14" width="8" height="9">
<path d="M66.131 22.3695C68.2561 22.3695 69.9789 20.6467 69.9789 18.5217C69.9789 16.3966 68.2561 14.6738 66.131 14.6738C64.0059 14.6738 62.2832 16.3966 62.2832 18.5217C62.2832 20.6467 64.0059 22.3695 66.131 22.3695Z" fill="white"/>
</mask>
<g mask="url(#mask8_833_25525)">
<path d="M66.131 22.3695C68.2561 22.3695 69.9789 20.6467 69.9789 18.5217C69.9789 16.3966 68.2561 14.6738 66.131 14.6738C64.0059 14.6738 62.2832 16.3966 62.2832 18.5217C62.2832 20.6467 64.0059 22.3695 66.131 22.3695Z" fill="#EFEFEF"/>
</g>
<mask id="mask9_833_25525" style="mask-type:luminance" maskUnits="userSpaceOnUse" x="62" y="14" width="8" height="9">
<path d="M66.131 22.3695C68.2561 22.3695 69.9789 20.6467 69.9789 18.5217C69.9789 16.3966 68.2561 14.6738 66.131 14.6738C64.0059 14.6738 62.2832 16.3966 62.2832 18.5217C62.2832 20.6467 64.0059 22.3695 66.131 22.3695Z" fill="white"/>
</mask>
<g mask="url(#mask9_833_25525)">
<path d="M66.3276 21.978C68.2366 21.978 69.7841 20.4304 69.7841 18.5215C69.7841 16.6125 68.2366 15.0649 66.3276 15.0649C64.4186 15.0649 62.8711 16.6125 62.8711 18.5215C62.8711 20.4304 64.4186 21.978 66.3276 21.978Z" fill="#4A0F00"/>
</g>
<path d="M83.3478 22.4344C85.4729 22.4344 87.1956 20.7117 87.1956 18.5866C87.1956 16.4615 85.4729 14.7388 83.3478 14.7388C81.2227 14.7388 79.5 16.4615 79.5 18.5866C79.5 20.7117 81.2227 22.4344 83.3478 22.4344Z" fill="#4A0F00"/>
<mask id="mask10_833_25525" style="mask-type:luminance" maskUnits="userSpaceOnUse" x="79" y="15" width="8" height="8">
<path d="M83.1525 22.9564C85.2776 22.9564 87.0003 21.2337 87.0003 19.1086C87.0003 16.9835 85.2776 15.2607 83.1525 15.2607C81.0274 15.2607 79.3047 16.9835 79.3047 19.1086C79.3047 21.2337 81.0274 22.9564 83.1525 22.9564Z" fill="white"/>
</mask>
<g mask="url(#mask10_833_25525)">
<path d="M83.1525 22.9564C85.2776 22.9564 87.0003 21.2337 87.0003 19.1086C87.0003 16.9835 85.2776 15.2607 83.1525 15.2607C81.0274 15.2607 79.3047 16.9835 79.3047 19.1086C79.3047 21.2337 81.0274 22.9564 83.1525 22.9564Z" fill="#EFEFEF"/>
</g>
<mask id="mask11_833_25525" style="mask-type:luminance" maskUnits="userSpaceOnUse" x="79" y="15" width="8" height="8">
<path d="M83.1525 22.9564C85.2776 22.9564 87.0003 21.2337 87.0003 19.1086C87.0003 16.9835 85.2776 15.2607 83.1525 15.2607C81.0274 15.2607 79.3047 16.9835 79.3047 19.1086C79.3047 21.2337 81.0274 22.9564 83.1525 22.9564Z" fill="white"/>
</mask>
<g mask="url(#mask11_833_25525)">
<path d="M83.0229 22.6303C84.9319 22.6303 86.4794 21.0828 86.4794 19.1738C86.4794 17.2648 84.9319 15.7173 83.0229 15.7173C81.1139 15.7173 79.5664 17.2648 79.5664 19.1738C79.5664 21.0828 81.1139 22.6303 83.0229 22.6303Z" fill="#4A0F00"/>
</g>
<path d="M77.6736 20.1519C77.4127 18.6519 74.9345 20.6085 74.5432 20.8693C74.2171 20.6085 71.8693 18.4563 71.478 19.8911C71.0867 21.3259 73.9562 22.6954 74.4127 22.8911C74.4127 22.8911 74.4127 22.8911 74.478 22.8911H74.5432C74.9997 22.7606 77.9345 21.6519 77.6736 20.1519Z" fill="#4A0F00"/>
<path d="M74.1521 23.4126C73.3695 24.1952 72.5217 25.1082 71.4782 25.63C70.4999 26.1517 69.4564 25.6952 68.8695 24.8474C68.6738 24.5865 68.2173 24.8474 68.413 25.1082C69.0651 26.0213 70.1738 26.6735 71.3477 26.2821C71.9347 26.0865 72.4564 25.6952 72.913 25.3039C73.4347 24.8474 73.9564 24.3256 74.4782 23.8691C74.8043 23.543 74.413 23.2169 74.1521 23.4126Z" fill="#4A0F00"/>
<path d="M70.4356 24.8474C70.7617 24.8474 70.7617 24.3257 70.4356 24.3257C70.1095 24.3257 70.0443 24.8474 70.4356 24.8474Z" fill="#4A0F00"/>
<path d="M71.4777 23.6738C71.4124 23.6738 71.3472 23.6738 71.3472 23.6738C71.3472 23.6738 71.282 23.6738 71.282 23.739L71.2168 23.8043C71.2168 23.8043 71.2168 23.8695 71.2168 23.9347V23.9999C71.2168 24.0651 71.282 24.0651 71.282 24.1304C71.282 24.1304 71.3472 24.1304 71.3472 24.1956C71.4124 24.1956 71.4124 24.2608 71.4777 24.2608C71.4777 24.2608 71.4777 24.2608 71.5429 24.2608C71.6081 24.2608 71.6081 24.2608 71.6733 24.2608C71.6733 24.2608 71.7385 24.2608 71.7385 24.1956L71.8038 24.1304C71.8038 24.1304 71.8038 24.0651 71.8038 23.9999V23.9347C71.8038 23.8695 71.7385 23.8695 71.7385 23.8043C71.7385 23.8043 71.6733 23.8043 71.6733 23.739C71.6081 23.6738 71.5429 23.6738 71.4777 23.6738Z" fill="#4A0F00"/>
<path d="M70.436 23.6082C70.7621 23.6082 70.7621 23.0864 70.436 23.0864C70.1099 23.0864 70.1099 23.6082 70.436 23.6082Z" fill="#4A0F00"/>
<path d="M74.2833 23.8043C74.7398 24.3261 75.1963 24.8478 75.7181 25.3043C76.1746 25.7608 76.6311 26.1521 77.2181 26.413C78.3268 26.9348 79.5007 26.413 80.2833 25.5652C80.4789 25.3043 80.1529 24.913 79.892 25.1739C79.5659 25.5652 79.1746 25.8913 78.6529 26.0217C78.1311 26.1521 77.6094 26.0869 77.1529 25.7608C76.1746 25.1739 75.392 24.1956 74.6746 23.3478C74.4137 23.1521 74.0224 23.5435 74.2833 23.8043Z" fill="#4A0F00"/>
<path d="M78.3266 25.1091C78.6527 25.1091 78.6527 24.5874 78.3266 24.5874C78.0005 24.5874 78.0005 25.1091 78.3266 25.1091Z" fill="#4A0F00"/>
<path d="M77.2831 24.4566C77.3483 24.4566 77.4136 24.4566 77.4136 24.4566C77.4136 24.4566 77.4788 24.4566 77.4788 24.3914L77.544 24.3261C77.544 24.3261 77.544 24.2609 77.544 24.1957V24.1305C77.544 24.0653 77.4788 24.0653 77.4788 24.0001C77.4788 24.0001 77.4136 24.0001 77.4136 23.9348C77.3483 23.9348 77.3483 23.8696 77.2831 23.8696C77.2831 23.8696 77.2831 23.8696 77.2179 23.8696C77.1527 23.8696 77.1527 23.8696 77.0875 23.8696C77.0875 23.8696 77.0222 23.8696 77.0222 23.9348L76.957 24.0001C76.957 24.0001 76.957 24.0653 76.957 24.1305V24.1957C76.957 24.2609 77.0222 24.2609 77.0222 24.3261C77.0222 24.3261 77.0875 24.3262 77.0875 24.3914C77.1527 24.3914 77.2179 24.4566 77.2831 24.4566Z" fill="#4A0F00"/>
<path d="M78.3266 23.8694C78.6527 23.8694 78.6527 23.3477 78.3266 23.3477C78.0005 23.3477 78.0005 23.8694 78.3266 23.8694Z" fill="#4A0F00"/>
<path d="M62.2168 28.8262C63.8737 28.8262 65.2168 27.483 65.2168 25.8262C65.2168 24.1693 63.8737 22.8262 62.2168 22.8262C60.5599 22.8262 59.2168 24.1693 59.2168 25.8262C59.2168 27.483 60.5599 28.8262 62.2168 28.8262Z" fill="#EA9B3F"/>
<path d="M86.9336 29.0864C88.5904 29.0864 89.9336 27.7433 89.9336 26.0864C89.9336 24.4296 88.5904 23.0864 86.9336 23.0864C85.2767 23.0864 83.9336 24.4296 83.9336 26.0864C83.9336 27.7433 85.2767 29.0864 86.9336 29.0864Z" fill="#EA9B3F"/>
<path d="M71.9982 58.8911C71.8026 62.0215 71.346 65.152 70.8243 68.2172C70.4982 70.4998 70.1069 72.8476 69.3243 74.9998C68.2808 77.8694 66.4547 80.4128 65.1504 83.2172C63.0634 87.7172 62.2808 92.8041 61.9547 97.7607C61.8895 98.7389 62.0852 100.043 63.0634 100.239C63.5852 100.369 64.1069 100.043 64.4982 99.7172C68.7373 96.3911 69.3243 90.065 73.0417 86.152C73.8895 85.3042 74.8678 84.5868 75.7156 83.7389C76.6286 82.8259 77.4765 81.7824 78.1939 80.6737C81.5852 75.5868 83.6069 69.7824 85.2373 63.9129" fill="#EA9B3F"/>
<path d="M71.7379 58.891C71.5422 62.217 71.0205 65.5431 70.4988 68.8692C70.2379 70.4344 69.977 71.9996 69.5205 73.5649C69.064 75.0649 68.477 76.5649 67.6944 77.9344C66.2596 80.6083 64.7596 83.1518 63.7814 86.0214C62.8031 88.9562 62.2814 91.9562 61.9553 95.0214C61.8901 95.804 61.8249 96.5214 61.7596 97.304C61.6944 97.8909 61.6944 98.4127 61.8249 98.9996C62.0205 100.043 62.8683 100.826 63.977 100.304C65.0205 99.8475 65.8683 98.804 66.5857 97.9562C67.3031 97.0431 67.8901 95.9996 68.4118 94.9562C69.5205 92.804 70.3683 90.5214 71.6075 88.4996C72.2596 87.3909 73.1075 86.4127 74.0205 85.5649C75.1944 84.5214 76.3031 83.5431 77.2814 82.3692C80.9988 77.6736 83.2162 71.804 84.9118 66.1301C85.1075 65.4127 85.3031 64.6953 85.564 63.9779C85.6292 63.6518 85.1727 63.5214 85.0422 63.8475C83.477 69.5214 81.5205 75.1953 78.2596 80.1518C77.477 81.391 76.564 82.6301 75.5205 83.6736C74.5422 84.6518 73.3683 85.4996 72.4553 86.5431C70.9553 88.304 69.977 90.4562 68.9988 92.5431C68.0205 94.6301 67.1075 96.7823 65.5422 98.4779C64.9553 99.1301 63.3249 100.891 62.5422 99.717C62.2814 99.2605 62.2162 98.6736 62.2162 98.217C62.2162 97.4996 62.2814 96.8475 62.3466 96.1301C62.6075 93.1301 63.064 90.1301 63.9118 87.2605C64.3683 85.8257 64.8901 84.391 65.5422 83.0866C66.1944 81.7823 66.9118 80.4779 67.6292 79.2388C68.3466 77.9344 68.9988 76.6301 69.5205 75.2605C70.0422 73.8257 70.3683 72.3257 70.6292 70.7605C71.1509 67.6953 71.6727 64.5649 71.9335 61.4344C71.9988 60.6518 72.064 59.8692 72.1292 59.0214C72.3249 58.5649 71.8031 58.5649 71.7379 58.891Z" fill="#4A0F00"/>
<path d="M63.1955 96.848C62.9999 97.9567 63.1955 99.0654 63.7173 99.9784C63.9129 100.239 64.3042 99.9784 64.1738 99.7176C63.7173 98.8697 63.5216 97.8915 63.7173 96.9784C63.7173 96.848 63.652 96.7176 63.5216 96.6523C63.3912 96.6523 63.1955 96.7176 63.1955 96.848Z" fill="#4A0F00"/>
<path d="M64.6309 96.5219C64.6309 97.3697 64.8265 98.2828 65.283 99.0002C65.4787 99.261 65.9352 99.0002 65.7396 98.7393C65.3482 98.0871 65.1526 97.3045 65.1526 96.5219C65.1526 96.1958 64.6309 96.1958 64.6309 96.5219Z" fill="#4A0F00"/>
</svg>
