<svg width="150" height="150" viewBox="0 0 150 150" fill="none" xmlns="http://www.w3.org/2000/svg">
<path d="M113.938 116.665C113.863 115.949 113.908 115.233 114.043 114.517C118.346 115.785 122.365 118.038 125.712 121.052C124.517 118.948 122.993 117.053 121.185 115.442C120.467 114.8 119.661 114.159 119.317 113.249C121.678 113.696 124.023 114.204 126.354 114.771C123.605 112.204 120.736 109.564 117.15 108.46C115.313 107.893 110.262 107.49 109.695 110.25C109.456 111.399 110.77 112.13 111.443 112.876C112.19 113.726 113.819 115.502 113.938 116.665Z" fill="#44362B"/>
<path d="M43.4004 110.668C48.2414 110.757 53.0973 110.862 57.9384 110.951C55.6822 111.399 53.5306 112.398 51.7377 113.831C54.2628 113.428 56.8028 113.085 59.3428 112.801C58.79 113.085 58.3119 113.532 57.9832 114.069C62.5702 112.473 67.6801 113.741 72.4464 112.801C68.0686 106.266 57.1763 106.997 50.5424 108.385C49.3022 108.639 48.0621 108.967 46.8519 109.355C45.9105 109.668 44.3417 110.698 43.4004 110.668Z" fill="#44362B"/>
<path d="M52.1095 76.8591C49.9728 77.2918 47.8811 78.6495 47.1937 80.7233C46.5961 82.5436 47.1489 84.5428 47.9259 86.2884C48.912 88.5115 50.2269 90.5704 51.3624 92.7338C53.8875 97.5828 55.4414 103.029 58.9676 107.206C60.1778 108.638 61.672 109.936 63.4948 110.369C65.3176 110.802 67.4991 110.145 68.3657 108.489C69.2622 106.758 68.545 104.685 67.8876 102.849C66.513 98.9852 65.4969 94.9867 64.8843 90.9285C64.4361 87.9744 64.1672 84.9158 62.7477 82.2899C61.8214 80.5741 60.2077 78.4406 58.5641 77.3664C56.9057 76.2921 53.9473 76.4861 52.1095 76.8591Z" fill="#44362B"/>
<path d="M110.156 113.01C113.219 112.935 116.342 112.89 119.226 111.846C122.11 110.802 128.504 107.579 129.087 104.58C129.774 101.029 127.22 97.3737 123.111 93.4945C120.302 90.8388 116.357 89.9585 113.548 87.3028C111.695 85.5572 109.768 83.8712 107.631 82.4986C100.445 77.8735 91.2108 77.0081 82.9183 79.0969C77.2555 80.5292 71.7422 83.4386 68.3654 88.2129C65.0036 92.9873 64.2416 99.8355 67.5287 104.655C68.7987 106.52 70.5618 107.982 72.3697 109.325C76.5832 112.458 81.3495 114.666 86.6985 114.755C90.9867 114.83 95.3944 113.741 99.6825 113.472C103.179 113.248 106.675 113.099 110.156 113.01Z" fill="#44362B"/>
<path d="M53.7096 89.7944C53.3361 94.5389 54.0533 99.5072 56.6232 103.521C57.9978 105.684 59.8505 107.489 61.7481 109.205C63.1227 110.458 64.5421 111.697 66.1558 112.667C70.3095 115.173 75.3447 115.68 80.1857 116.083C82.681 116.292 85.1911 116.471 87.6564 116.068C90.3459 115.636 92.8859 114.517 95.2317 113.114C99.6842 110.443 103.479 106.699 106.214 102.282C108.963 97.8362 110.606 92.0921 108.246 87.4371C107.394 85.766 106.094 84.3487 104.734 83.0656C97.4132 76.1278 87.7013 71.7414 77.6457 70.8462C75.2999 70.6373 72.9242 70.6075 70.5934 70.9805C67.9936 71.3982 65.4984 72.3083 63.1227 73.3975C61.4044 74.1882 59.0437 74.9641 57.5645 76.1577C56.0255 77.4109 55.7267 79.8578 55.2336 81.6631C54.5015 84.3188 53.9188 87.0342 53.7096 89.7944Z" fill="#44362B"/>
<path d="M32.4024 48.0634C35.9883 48.0187 39.5743 47.9888 43.1453 47.9441C43.9521 47.9292 44.7888 47.9142 45.4911 47.5412C45.8795 47.3324 46.2232 47.034 46.5369 46.7206C47.6874 45.6166 48.7632 44.423 49.7344 43.1548C50.1528 42.6177 50.5711 42.0358 51.1688 41.7076C51.5871 41.4838 52.0503 41.3793 52.5135 41.3197C55.8903 40.8571 59.4612 42.0209 61.9266 44.3782C62.8529 45.2734 63.6747 46.5565 63.2564 47.765C63.0023 48.4663 62.3898 48.9735 61.7772 49.4062C56.7718 52.9273 50.4366 54.1358 44.3256 53.8971C40.6052 53.7479 36.9147 53.1063 33.2839 52.2708C32.2829 52.047 23.9605 50.555 26.7695 48.6453C28.159 47.7501 30.8336 48.0784 32.4024 48.0634Z" fill="#44362B"/>
<path d="M25.3053 44.2292C37.1538 47.4518 50.377 43.2892 61.7623 47.8845C61.6428 45.2139 61.5232 42.5581 61.4037 39.8875C61.2842 37.2914 61.1049 34.4865 59.4464 32.4723C58.5499 31.3832 57.2948 30.6372 55.9949 30.115C51.4677 28.2948 46.3278 28.8916 41.6362 30.2344C35.5551 31.98 29.8326 34.9639 24.9019 38.9326C24.0652 39.6339 22.1377 40.902 22.2573 42.1553C22.3917 43.3937 24.3341 43.9755 25.3053 44.2292Z" fill="#63503E"/>
<path d="M42.2495 50.8237C47.733 50.1822 53.0521 48.6156 58.2816 46.8252C59.5666 46.3776 60.8963 45.93 62.256 45.9748C64.1237 46.0494 65.9017 47.1684 66.7832 48.8095C67.6498 50.4507 67.5602 52.5693 66.5591 54.1359C65.8718 55.1952 64.811 55.986 63.7203 56.6126C62.2261 57.478 60.6124 58.1345 58.939 58.5373C56.892 59.0296 54.7704 59.1639 52.6786 59.2236C48.0916 59.343 43.4896 59.0893 38.9474 58.4776C34.8983 57.9405 30.5504 56.911 27.9506 53.7629C27.4874 53.196 26.1875 49.5257 26.1875 49.5257C26.1875 49.5257 30.401 50.4657 31.163 50.5999C34.8087 51.2564 38.559 51.2564 42.2495 50.8237Z" fill="#63503E"/>
<path d="M69.7851 30.6224C76.6282 33.1588 81.5141 39.7832 85.4735 46.4971C87.7745 50.4061 89.1641 54.9268 89.8813 59.5371C90.2398 61.8795 90.3743 64.4905 89.1192 66.4002C88.2377 67.7281 86.8332 68.4741 85.4437 69.0858C78.5706 72.1294 70.9505 73.0246 63.6591 71.6669C62.2397 71.3983 59.3112 72.8157 58.4446 71.5326C57.4435 70.0705 57.9814 67.3849 57.2642 64.7292C56.8459 63.1775 57.2642 60.6411 52.6473 59.2238C50.6302 58.5971 56.9953 53.9571 57.6527 51.9727C59.102 47.6609 57.9814 42.6627 55.6207 38.8731C54.3506 36.8291 52.737 35.0685 50.9888 33.5318C50.3613 32.9798 45.6099 29.7422 46.1478 29.5631C52.9013 27.161 67.1106 29.6377 69.7851 30.6224Z" fill="#63503E"/>
<path d="M56.5635 74.5618C55.6521 78.7095 54.5614 82.8721 54.7855 87.1093C55.0096 91.3466 56.5785 96.2701 58.8944 99.8211C61.1057 103.193 70.3245 108.907 72.3865 109.325C93.4986 113.532 100.91 99.269 102.792 97.7621C104.092 96.7177 104.959 95.2108 105.497 93.6442C107.514 87.736 105.138 81.2757 102.463 75.636C98.1454 66.5647 92.9309 57.9112 86.9244 49.8545C85.5199 47.9746 84.0706 46.1245 82.5018 44.3938C81.3214 43.0958 79.9169 41.7829 78.1538 41.6337C76.2413 41.4695 74.5081 42.7228 73.1186 44.0358C69.443 47.4972 66.6938 51.7792 64.2285 56.1358C63.0182 58.2842 62.0918 60.1641 60.0299 61.5964C58.5507 62.6259 57.7439 63.2674 57.6841 65.1772C57.5497 68.37 57.2508 71.4137 56.5635 74.5618Z" fill="#63503E"/>
<path d="M51.9758 79.1565C48.4347 80.0666 44.6994 80.3948 41.3824 81.9614C40.3365 82.4538 39.3056 83.1102 38.7079 84.0949C38.2746 84.7962 38.0953 85.6168 38.0206 86.4374C37.7068 89.6004 38.7826 92.7186 39.6193 95.7921C40.5756 99.2833 41.233 102.834 41.6514 106.43C41.8008 107.624 41.9203 108.847 42.4134 109.951C42.9214 111.04 43.8776 112.01 45.0729 112.174C46.0591 112.308 47.09 111.846 47.6428 111.025C48.375 109.936 48.2106 108.504 48.0612 107.206C47.6578 103.655 47.598 100.059 47.9118 96.4933C47.9716 95.8369 48.0612 95.1506 48.4945 94.6582C48.8232 94.3001 49.2864 94.1062 49.7346 93.957C55.8307 91.898 62.5394 93.6884 68.9343 93.0021C69.786 92.9126 70.6974 92.7335 71.2502 92.0771C71.6088 91.6444 71.7433 91.0774 71.8329 90.5254C72.3111 87.3475 71.3698 84.1248 70.025 81.2005C69.0688 79.1117 67.8884 77.0975 66.3644 75.3668C65.3932 74.2628 63.1371 71.607 61.4487 72.4873C60.8361 72.8006 60.5522 73.6809 60.2086 74.218C59.6109 75.1132 58.9087 75.8443 58.042 76.4858C56.2491 77.7988 54.1125 78.6044 51.9758 79.1565Z" fill="#63503E"/>
<path d="M37.9167 110.981C35.8996 111.846 33.8676 112.726 31.8505 113.592C30.7747 114.054 29.5047 114.815 29.5943 115.979C33.001 114.278 36.7961 113.353 40.6061 113.323C40.8303 113.323 41.0992 113.338 41.2636 113.487C41.5773 113.786 41.3084 114.308 41.0394 114.651C39.5453 116.546 37.9167 118.351 36.6616 120.395C35.3916 122.454 34.51 124.826 34.6595 127.228C35.6755 126.841 36.1536 125.736 36.6018 124.737C37.5282 122.663 38.7235 120.723 40.1579 118.963C41.1291 117.769 42.3692 116.576 43.8932 116.531C44.7748 118.515 45.7908 120.44 46.9413 122.29C47.4194 123.051 48.0469 123.872 48.9434 123.886C48.5101 121.768 48.0918 119.634 47.6585 117.516C47.5539 117.008 47.4194 116.113 47.524 115.606C47.7033 114.741 48.7044 114.517 49.1078 114.457C51.7972 114.114 54.2924 115.815 56.952 116.382C54.0384 113.905 51.1099 111.413 48.1964 108.937C46.8068 107.758 44.8196 106.236 42.9968 107.34C42.1451 107.848 41.5773 108.758 40.8153 109.384C39.9338 110.115 38.9178 110.548 37.9167 110.981Z" fill="#63503E"/>
<path d="M48.4342 94.6438C48.763 94.2857 49.2261 94.0917 49.6744 93.9425C52.7374 92.9131 55.9498 92.8385 59.192 92.9429C60.7459 91.7046 61.6872 89.7053 61.5976 87.7061C59.9989 89.3472 57.6083 89.8844 55.3222 90.0783C53.0511 90.2723 50.7053 90.1977 48.5388 90.884C47.7171 91.1525 46.8953 91.5405 46.3574 92.2268C45.5506 93.2413 45.5356 94.6736 45.5954 95.9716C45.7747 99.9702 46.2379 103.954 46.955 107.893C47.1642 109.027 47.6274 109.116 48.1055 108.788C48.1055 108.251 48.0308 107.699 47.9711 107.176C47.5676 103.626 47.5079 100.03 47.8216 96.464C47.9113 95.8225 47.986 95.1212 48.4342 94.6438Z" fill="#514033"/>
<path d="M61.4933 57.941C64.3173 57.195 67.2159 55.9865 68.9192 53.6143C67.2159 56.6728 63.8541 58.4632 60.4624 59.2987C59.8199 59.4628 59.1475 59.5971 58.5947 59.985C58.4154 60.1044 58.2511 60.3431 58.3855 60.5072C58.4752 60.6117 58.6246 60.6117 58.7591 60.5967C60.0141 60.4923 61.2543 60.2536 62.4496 59.8806C61.8818 60.2983 61.3141 60.7161 60.7463 61.1189C61.329 61.3577 61.9864 61.1637 62.5841 60.9548C64.9 60.1491 67.201 59.2689 69.472 58.314C67.6791 61.1488 64.5862 62.9392 61.4037 64.0134C61.0152 64.1477 60.552 64.3565 60.5371 64.7594C60.7463 64.8191 60.9555 64.8937 61.1796 64.9533C60.5969 65.386 60.5222 66.2066 60.3727 66.9228C60.1785 67.803 59.79 68.6236 59.4016 69.4293C58.3258 71.6822 57.2351 73.9202 56.1593 76.1731C56.3386 73.9948 56.8615 71.8612 57.1305 69.6978C57.3994 67.5345 57.3994 65.2667 56.5926 63.2376C55.8306 61.3427 54.5008 60.2536 52.7676 59.3286C53.7537 58.7616 55.6662 59.0003 56.8167 58.8511C58.3706 58.6572 59.9394 58.3438 61.4933 57.941Z" fill="#514033"/>
<path d="M83.6368 49.6157C83.8161 50.3617 83.9805 51.1226 84.4138 51.7493C84.6976 52.1521 85.0712 52.4952 85.4298 52.8235C90.4052 57.3591 94.5141 62.7303 98.5334 68.1163C92.751 58.5676 88.3135 48.1386 81.2611 39.4851C79.3785 37.1875 77.0925 34.4124 74.418 33.0547C76.0466 35.5612 78.2878 37.6052 79.8267 40.2311C81.5301 43.1554 82.83 46.3333 83.6368 49.6157Z" fill="#514033"/>
<path d="M58.0872 36.8734C58.7895 37.1867 59.5366 37.4105 60.2986 37.5896C61.1203 37.7835 61.972 37.9178 62.8087 37.9775C64.7511 38.1267 66.7383 37.873 68.5761 37.2464C68.6807 37.2166 68.7853 37.1718 68.8749 37.0972C69.1289 36.8585 68.9795 36.4258 68.7703 36.1573C68.1577 35.3068 67.2015 34.4116 66.2751 33.9342C63.6903 32.6212 60.9859 32.4273 58.2367 32.487C57.3701 32.5019 54.322 32.9793 54.591 34.4265C54.7105 35.0681 55.5024 35.456 55.9955 35.7544C56.6828 36.1274 57.3551 36.5452 58.0872 36.8734Z" fill="#514033"/>
<path d="M58.8044 34.3372C58.5653 34.9639 58.7296 35.695 59.0733 36.2619C59.2078 36.5006 59.3871 36.7095 59.6112 36.8587C59.7905 36.9781 59.9997 37.0527 60.2238 37.1123C60.7916 37.2765 61.3743 37.3809 61.9719 37.4257C62.3305 37.4555 62.7041 37.4555 63.0477 37.3511C63.7201 37.172 64.2729 36.6349 64.4671 35.9635C64.6614 35.307 64.497 34.5461 64.0338 34.0239C63.6454 33.5913 63.0925 33.3525 62.5248 33.2332C61.3145 33.0243 59.3273 32.9497 58.8044 34.3372Z" fill="#191410"/>
<path d="M60.3717 38.0825C62.0152 38.5301 63.7933 38.6197 65.4368 38.1571C64.6748 38.6943 63.8829 39.2314 62.9864 39.4701C62.3888 39.6342 61.7463 39.6491 61.1337 39.6491C60.4912 39.6491 59.8487 39.6044 59.2361 39.4104C57.8615 38.9628 56.3375 37.4111 55.8594 36.0684C57.3685 36.7994 58.7281 37.6499 60.3717 38.0825Z" fill="#514033"/>
<path d="M67.0667 33.9197C64.6462 31.9354 61.1648 31.1595 58.2363 32.2636C58.7892 32.0547 59.8201 32.1442 60.4178 32.1592C61.1798 32.1741 61.9418 32.2487 62.7038 32.383C64.2278 32.6664 65.707 33.1886 67.0667 33.9197Z" fill="#514033"/>
<path d="M66.843 38.1416C65.6476 39.2457 64.273 40.2304 62.6893 40.6332C61.1055 41.0361 59.2826 40.7675 58.1172 39.6336C58.5355 40.0364 59.7159 40.0812 60.2687 40.1409C61.0457 40.2155 61.8376 40.1558 62.5996 40.0215C64.1535 39.738 65.6178 39.0965 66.843 38.1416Z" fill="#514033"/>
<path d="M41.6362 30.2343C35.5551 31.98 29.8326 34.949 24.9019 38.9326C24.0652 39.604 22.1377 40.8722 22.2573 42.1254C22.3917 43.3638 24.3341 43.9457 25.3053 44.1993C26.5903 44.5425 27.8752 44.811 29.1901 45.005C30.0866 44.2888 30.729 43.2444 31.3865 42.2746C35.3011 36.3664 40.9788 31.5324 47.5979 29.0557C45.5808 29.2496 43.5786 29.6674 41.6362 30.2343Z" fill="#725B48"/>
<path d="M59.4607 46.2283C58.8481 45.7061 58.0413 45.4525 57.2643 45.2735C54.7392 44.6916 52.1394 44.5872 49.5546 44.4827C47.9857 44.423 46.402 44.3484 44.8331 44.2888C40.4254 44.1097 36.0177 43.9307 31.595 43.7964C29.832 43.7516 28.0689 43.7069 26.3357 43.4234C25.4541 43.2891 24.5577 43.0803 23.7807 42.6177C23.3026 42.3492 22.9141 41.7524 22.4061 41.5137C22.2866 41.7673 22.2417 42.0209 22.2567 42.2597C22.3912 43.498 24.3335 44.0799 25.3047 44.3335C36.6153 47.407 49.1811 43.7516 60.2078 47.4219C60.1032 46.9743 59.8343 46.5417 59.4607 46.2283Z" fill="#514033"/>
<path d="M41.3375 82.0955C40.2916 82.5879 39.2606 83.2443 38.663 84.2291C38.2297 84.9303 38.0504 85.7509 37.9757 86.5715C37.6619 89.7345 38.7377 92.8527 39.5744 95.9262C40.5307 99.4175 41.1881 102.968 41.6064 106.564C41.6811 107.131 41.7409 107.698 41.8455 108.265C42.9063 107.787 42.5029 106.087 42.3386 105.072C41.6811 101.074 41.0088 97.0601 40.3514 93.0616C39.9629 90.7043 39.6491 88.0336 41.1283 86.1686C42.234 84.7662 44.1315 84.1843 45.9245 84.1097C47.7175 84.0351 49.4955 84.3932 51.2884 84.4678C52.2596 84.5125 53.2458 84.4678 54.1422 84.0799C55.0238 83.7069 55.8007 82.931 55.9502 81.9762C56.1295 80.9019 55.487 79.8128 54.5905 79.1861C54.3365 79.0071 54.0526 78.8579 53.7687 78.7236C53.1561 78.9325 52.5435 79.1116 51.916 79.2757C48.3749 80.1858 44.6395 80.5289 41.3375 82.0955Z" fill="#725B48"/>
<path d="M59.8504 34.8003C59.8354 34.9943 59.8504 35.2032 59.9848 35.3524C60.1044 35.5016 60.3434 35.5762 60.5078 35.4717C60.702 35.3524 60.717 35.0838 60.8066 34.8749C60.9859 34.4572 61.479 34.2632 61.9272 34.2632C62.1215 34.2632 62.3605 34.2483 62.4203 34.0692C62.495 33.8753 62.2559 33.7112 62.0468 33.6515C61.1802 33.3979 59.955 33.7858 59.8504 34.8003Z" fill="white"/>
<path d="M71.3691 41.9167C70.6519 42.6328 70.3083 43.6921 70.4427 44.6768C70.5324 45.2438 70.7565 45.7809 71.0105 46.3031C71.5334 47.4072 72.1012 48.4665 72.7288 49.5109C73.5505 50.8686 74.6263 52.286 76.1952 52.5993C76.7629 52.7186 77.3905 52.659 77.8238 52.286C78.3617 51.8235 78.4663 51.0476 78.4663 50.3315C78.4961 47.4967 75.6423 37.6645 71.3691 41.9167Z" fill="#514033"/>
<path d="M96.2619 104.789C92.1381 99.8053 88.3728 94.5386 84.9811 89.0481C83.8306 87.1831 82.6951 85.2436 81.0665 83.7665C78.0633 81.0213 73.5211 79.9023 71.5339 76.3663C71.0558 75.5308 70.7719 74.6057 70.2788 73.7702C69.5915 72.5766 68.5157 71.5919 67.2009 71.204C65.886 70.8161 64.362 71.0697 63.3609 72.0097C62.3898 72.9198 62.0312 74.3222 61.8967 75.6501C61.5082 79.4994 62.6139 83.3487 62.5691 87.213C62.5392 89.8687 61.9565 92.4946 61.6576 95.1354C61.4335 97.1198 61.3737 99.1787 62.0461 101.059C62.6288 102.715 63.7195 104.177 64.9597 105.49C68.0077 107.593 71.2052 109.354 72.3108 109.578C84.0846 111.935 91.6002 108.519 96.2619 104.789Z" fill="#AA7E4F"/>
<path d="M67.7078 111.414C68.2009 112.369 68.7089 113.368 69.5755 114.025C70.5467 114.786 71.8167 114.995 73.0419 115.188C74.6107 115.427 76.1796 115.651 77.7484 115.86C79.885 116.143 82.2757 116.695 84.4123 116.516C85.8168 116.397 87.6247 116.203 88.9993 115.89C90.867 115.472 92.0772 114.607 93.9299 114.144C95.8723 113.667 97.8595 113.13 99.4284 111.891C100.534 111.026 101.431 109.564 100.923 108.236C100.609 107.4 99.8168 106.863 99.0847 106.371C98.502 105.983 100.056 102.611 99.4732 102.223C99.1594 102.014 96.709 104.789 96.3355 104.745C95.9918 104.7 95.6482 104.804 95.3195 104.909C90.5233 106.445 85.6972 107.967 80.7068 108.683C79.2575 108.892 77.7932 109.027 76.329 108.937C74.6854 108.833 73.0568 108.46 71.4581 108.057C70.1881 107.729 68.933 107.385 67.7078 106.893C67.1102 106.654 66.5274 106.371 65.9597 106.043C65.631 105.849 64.5851 104.61 63.8828 104.297C64.5851 106.326 66.7366 109.504 67.7078 111.414Z" fill="#916649"/>
<path d="M98.4737 82.3196C97.5772 83.5729 96.7405 84.9157 96.4118 86.4226C96.098 87.9295 96.3968 89.6602 97.5324 90.6897C98.3392 91.4207 99.4449 91.734 100.446 92.1518C101.462 92.5696 102.493 93.226 102.792 94.2853C103.091 95.285 102.627 96.3443 102.149 97.2693C99.7437 101.894 96.3968 105.953 93.6626 110.399C93.1994 111.16 92.7511 112.189 93.3189 112.89C93.543 113.174 93.8867 113.323 94.2303 113.442C95.5004 113.92 96.9198 114.218 98.2197 113.786C99.7437 113.278 100.76 111.891 101.701 110.593C104.824 106.281 108.111 102.088 111.577 98.0451C114.013 95.1954 116.687 92.0175 116.523 88.2726C116.433 86.2734 115.492 84.3786 114.237 82.8269C112.982 81.2752 111.398 80.007 109.829 78.7687C107.648 77.0678 105.436 75.3819 102.986 74.069C102.149 73.6214 101.163 73.2036 100.252 73.502C99.6092 73.7258 99.1311 74.2778 98.7128 74.8149C96.6508 77.5005 95.0372 81.0216 96.2026 84.1995L98.4737 82.3196Z" fill="#63503E"/>
<path d="M85.9374 121.007C85.8478 121.335 85.7731 121.678 85.8627 122.007C85.9524 122.335 86.2662 122.618 86.5949 122.574C86.9535 119.336 89.12 116.352 92.0933 114.994C92.422 114.845 92.9001 114.756 93.0645 115.084C93.1691 115.293 93.0645 115.546 92.9599 115.77C92.1232 117.635 92.3921 119.843 93.2438 121.708C94.0805 123.573 95.4252 125.155 96.755 126.706C96.0528 124.11 95.7539 121.395 95.8884 118.709C95.9033 118.411 95.9332 118.098 96.1424 117.889C96.4263 117.62 96.8745 117.695 97.2331 117.814C98.6526 118.292 99.8479 119.321 100.759 120.515C101.671 121.708 102.328 123.066 102.986 124.409C103.18 121.723 102.373 119.082 101.91 116.442C101.88 116.248 101.85 116.024 101.94 115.86C102.044 115.651 102.298 115.576 102.522 115.517C105.481 114.726 108.618 115.442 111.592 116.143C110.172 114.338 107.543 114.248 105.331 113.637C104.061 113.293 102.866 112.727 101.775 111.981C100.759 111.279 99.8329 110.414 98.6824 109.966C92.5415 107.609 87.2373 116.054 85.9374 121.007Z" fill="#63503E"/>
<path d="M95.7694 74.7103C94.9626 75.0684 94.111 75.5757 93.842 76.4261C93.5133 77.5152 94.35 78.6641 95.3959 79.1266C96.4418 79.5891 97.6222 79.5294 98.7577 79.5294C104.824 79.5443 110.98 82.3791 115.985 85.7957C115.432 83.5578 113.281 81.6331 111.936 80.2754C110.457 78.7685 108.664 77.3362 106.946 76.1277C105.496 75.1131 103.599 73.7853 101.821 73.472C99.9232 73.1288 97.5027 73.9494 95.7694 74.7103Z" fill="#725B48"/>
<path d="M100.64 95.8819C100.879 95.3597 101.118 94.7629 100.894 94.2407C100.744 93.8826 100.431 93.6439 100.117 93.4201C98.9366 92.5846 97.7114 91.8237 96.4264 91.1523C95.4552 90.645 94.4392 90.1825 93.6025 89.4663C92.7658 88.7502 92.1084 87.7356 92.1233 86.6465C96.4862 88.8397 100.954 91.0628 105.795 91.6297C105.063 93.1366 104.136 94.554 103.21 95.9565C102.478 97.0755 101.731 98.2094 100.998 99.3284C99.6687 101.343 97.5171 105.028 95.8736 107.027C95.9184 106.445 95.9483 104.401 96.277 103.939C96.8896 103.058 97.1287 102.297 97.6964 101.387C98.7722 99.6118 99.7583 97.7767 100.64 95.8819Z" fill="#514033"/>
<path d="M31.7893 114.8C31.6549 114.486 31.4308 114.173 31.1319 113.949C30.2803 114.412 29.5183 115.083 29.593 115.993C30.3251 115.62 31.0871 115.292 31.8491 114.994C31.8342 114.934 31.8043 114.859 31.7893 114.8Z" fill="#44362B"/>
<path d="M36.6 124.765C36.7644 124.392 36.9437 124.019 37.1379 123.646C36.5253 123.691 35.9127 123.99 35.4047 124.348C35.2254 124.467 35.0461 124.601 34.8668 124.721C34.6875 125.556 34.6128 126.407 34.6726 127.257C35.6737 126.869 36.1518 125.75 36.6 124.765Z" fill="#44362B"/>
<path d="M55.4568 115.158C55.2477 115.203 55.0534 115.263 54.8741 115.352C54.7247 115.427 54.5902 115.531 54.4707 115.636C55.2925 115.934 56.1143 116.232 56.951 116.411C56.443 116.009 55.9499 115.576 55.4568 115.158Z" fill="#44362B"/>
<path d="M48.9416 123.915C48.8221 123.304 48.7025 122.692 48.5681 122.08C48.1945 122.051 47.8061 122.051 47.4475 122.14C47.2682 122.185 47.1038 122.23 46.9395 122.304C46.9395 122.304 46.9395 122.319 46.9544 122.319C47.4026 123.08 48.0451 123.901 48.9416 123.915Z" fill="#44362B"/>
<path d="M102.986 124.395C103.06 123.231 102.971 122.082 102.777 120.948C102.328 121.127 101.895 121.351 101.521 121.635C102.074 122.515 102.537 123.455 102.986 124.395Z" fill="#44362B"/>
<path d="M86.7144 119.561C86.5949 119.561 86.4903 119.575 86.3857 119.59C86.2064 120.083 86.057 120.56 85.9374 120.993C85.8478 121.321 85.7731 121.664 85.8627 121.992C85.9524 122.321 86.2662 122.604 86.5949 122.559C86.6995 121.59 86.9833 120.635 87.3868 119.74C87.1925 119.62 86.9684 119.561 86.7144 119.561Z" fill="#44362B"/>
<path d="M96.7544 126.677C96.5602 125.946 96.3958 125.2 96.2613 124.469C95.9027 124.573 95.5441 124.693 95.1855 124.782C95.6936 125.439 96.2314 126.065 96.7544 126.677Z" fill="#44362B"/>
<path d="M109.156 114.532C108.932 114.756 108.767 115.039 108.648 115.323C108.633 115.368 108.618 115.412 108.588 115.457C109.589 115.636 110.605 115.875 111.591 116.099C110.964 115.323 110.112 114.86 109.156 114.532Z" fill="#44362B"/>
<path opacity="0.41" d="M78.1236 72.4582C78.781 72.3686 79.4832 72.1299 79.812 71.548C80.1108 71.0109 79.9912 70.3246 80.32 69.8024C80.9176 68.8177 82.6359 69.0266 83.1738 67.9971C83.3979 67.5794 83.3381 67.0273 83.6369 66.6543C83.8312 66.4007 84.1599 66.2813 84.4587 66.1471C85.6391 65.6099 86.6551 64.6252 86.9689 63.3571C87.1033 62.7752 87.0884 62.1635 87.2079 61.5816C87.3872 60.6416 87.8952 59.7912 88.1044 58.8513C88.3136 57.9113 88.0895 56.7625 87.2229 56.3447C87.9849 56.4492 88.5527 57.1355 88.7618 57.8815C88.971 58.6275 88.8814 59.4033 88.7768 60.1642C88.6423 61.2534 88.5078 62.3276 88.3883 63.4167C88.3136 64.0135 88.2389 64.6252 88.0297 65.1922C87.0137 67.8032 83.4128 68.5193 82.1428 70.996C81.9635 71.3392 81.844 71.7122 81.575 71.9807C81.3957 72.1747 81.1567 72.294 80.9326 72.4283C79.9464 72.9654 78.9752 73.5025 77.9891 74.0546C77.6604 74.2336 77.3167 74.4276 77.0926 74.7409C76.7639 75.2034 76.7639 75.8151 76.495 76.3075C76.2111 76.8147 75.4789 76.9938 75.1951 76.4865C75.1652 76.4417 75.5387 74.7409 75.5537 74.4723C75.5835 72.7715 76.4352 72.6819 78.1236 72.4582Z" fill="#AA7E4F"/>
<path opacity="0.41" d="M82.0827 79.0527C82.5608 79.008 83.0389 79.0527 83.5021 78.9334C84.0699 78.7692 84.5331 78.3366 85.0261 77.9934C85.5192 77.6652 86.1916 77.4265 86.7145 77.7249C86.5651 76.5462 86.4007 75.3675 86.2513 74.1889C86.9685 74.4127 87.8052 74.1739 88.2834 73.5921C88.7615 73.0102 88.8362 72.1299 88.4627 71.4884C89.8373 71.7868 91.3613 70.8021 91.6751 69.4294C91.8992 68.4447 91.5406 67.4003 91.0326 66.5201C92.1831 65.043 91.3613 62.9244 90.5096 61.2534C90.8832 60.9699 91.3463 61.4473 91.5406 61.88C92.7359 64.5208 92.96 67.4898 93.0347 70.3843C93.0646 71.2646 92.8554 72.4432 91.9739 72.5477C91.5256 72.6074 90.913 72.3985 90.7039 72.8013C90.5993 72.9953 90.674 73.2191 90.6889 73.4429C90.7786 74.353 89.9717 75.0691 89.389 75.7704C88.8063 76.4865 88.5075 77.7099 89.2994 78.1725C88.4477 78.635 87.4466 78.7394 86.595 79.1721C85.7433 79.6048 85.0112 80.6044 85.3847 81.4996C84.5331 81.4847 83.6964 81.2907 82.9343 80.9326C82.9642 81.2161 83.0091 81.5145 83.0389 81.798C83.0688 82.0367 81.8884 82.0367 81.7241 81.9472C81.4253 81.7831 81.2011 81.2609 81.0966 80.9475C80.7081 79.9778 80.9173 79.1721 82.0827 79.0527Z" fill="#AA7E4F"/>
<path opacity="0.41" d="M93.4075 75.6653C93.4224 75.352 93.3328 75.0387 93.3776 74.7253C93.4523 74.1584 93.9603 73.7555 94.4534 73.5019C94.9614 73.2334 95.5142 73.0394 95.9027 72.6366C96.4705 72.0398 96.5452 71.1446 96.4705 70.324C96.3211 68.7872 95.7533 67.2803 94.8419 66.042C95.2453 66.2061 95.5292 66.5791 95.7832 66.9372C96.5153 67.9368 97.2624 68.9961 97.4417 70.2195C97.5014 70.5925 97.5014 70.9655 97.5911 71.3385C97.6509 71.5474 97.7405 71.7712 97.7256 71.9801C97.7106 72.2486 97.5612 72.4874 97.4118 72.6962C96.844 73.4721 96.0969 74.1136 95.5142 74.8745C94.9315 75.6504 94.5132 76.6351 94.7522 77.5601C94.9166 78.2017 95.3499 78.9029 94.9763 79.4549C94.7373 79.7981 94.1994 80.0517 94.3339 80.4396C94.3936 80.5888 94.543 80.7082 94.543 80.8723C94.543 81.0066 94.4385 81.111 94.3339 81.2006C93.019 82.2002 91.8387 80.9469 91.6892 79.6638C91.4502 77.8436 93.3029 77.2319 93.4075 75.6653Z" fill="#AA7E4F"/>
<path opacity="0.41" d="M72.2064 65.1171C72.6247 64.8784 72.9086 64.4457 73.2822 64.1324C74.0143 63.5057 75.0303 63.3416 75.9866 63.1626C77.1669 62.9537 78.3772 62.715 79.4081 62.1182C80.454 61.5214 81.3356 60.5367 81.4999 59.3431C81.5447 59.0149 81.5447 58.6717 81.6792 58.3584C81.7987 58.1047 82.0079 57.9108 82.1723 57.687C82.8148 56.7918 82.5757 55.5684 82.3068 54.4941C82.8596 55.1208 83.2331 55.9115 83.3676 56.7321C83.4274 57.0902 83.4274 57.4781 83.263 57.7914C83.1584 58.0003 82.9791 58.1793 82.8297 58.3584C81.5447 59.9399 81.7838 62.521 80.1552 63.7295C79.7518 64.0279 79.2737 64.192 78.8105 64.3711C77.2416 64.938 75.6578 65.505 74.0143 65.6989C73.5362 65.7586 73.073 65.7735 72.6098 65.878C71.6984 66.0869 70.8766 66.6091 69.9801 66.9075C69.0836 67.2058 67.9929 67.2506 67.3056 66.624C66.4091 65.8034 66.9769 64.5203 68.0527 64.4158C69.487 64.2666 70.7272 65.9675 72.2064 65.1171Z" fill="#AA7E4F"/>
<path opacity="0.41" d="M27.5157 40.3645C28.2628 39.5887 28.98 38.7382 29.9213 38.2459C30.8476 37.7535 31.9234 37.6342 32.8498 37.1717C33.821 36.6942 34.6428 35.8438 35.7185 35.6647C36.1668 35.5901 36.6449 35.6349 37.0931 35.5305C37.6609 35.3962 38.1241 35.0232 38.6321 34.7546C39.4838 34.2921 40.44 34.0832 41.3813 33.8744C44.4443 33.203 47.5073 32.5465 50.5703 31.8751C51.392 31.6961 52.2288 31.517 53.0655 31.4424C54.0815 31.3529 55.3515 31.2634 55.6952 30.3085C54.709 30.0847 53.6631 30.1892 52.6621 30.2936C51.1679 30.4428 49.6738 30.6069 48.1796 30.7561C46.7154 30.9053 45.2511 31.0545 43.8317 31.4126C42.5467 31.7259 41.2917 32.2033 40.0067 32.5465C38.8114 32.8598 37.5713 33.0538 36.4058 33.4865C35.4645 33.8445 34.5979 34.3667 33.7015 34.8143C32.1027 35.6498 30.4143 36.2765 28.8306 37.1567C27.2468 38.0221 25.7676 39.1709 24.8711 40.7375C24.9159 40.648 25.9768 40.7226 26.0515 40.7226C26.7388 40.7226 26.8732 41.021 27.5157 40.3645Z" fill="#AA7E4F"/>
</svg>
