<svg width="150" height="150" viewBox="0 0 150 150" fill="none" xmlns="http://www.w3.org/2000/svg">
<path d="M100.738 24.635C100.669 24.5423 100.587 24.4901 100.5 24.4727C100.354 24.4437 100.197 24.5191 100.034 24.7046C99.7781 24.9945 99.5744 25.3308 99.3765 25.6554C99.2252 25.9047 99.0681 26.1599 98.8934 26.3918C98.2881 27.1803 97.3627 27.7427 96.3558 27.9398C96.1346 27.9804 95.9134 27.9862 95.6922 27.992C95.4245 27.9978 95.1393 28.0036 94.8716 28.0847C94.2197 28.2703 93.6086 28.3804 93.0091 28.421C92.6075 28.4442 92.2 28.4152 91.8101 28.392C91.4259 28.363 91.0302 28.3398 90.6344 28.3572C90.8439 27.4586 90.9312 26.5367 90.8963 25.6207C90.8788 25.2032 90.8381 24.722 90.6402 24.2872C90.5354 24.0553 90.3957 23.9219 90.2328 23.8813C89.9126 23.8117 89.6507 24.119 89.5343 24.4611C89.3946 24.8553 89.3364 25.2786 89.2782 25.6902C89.2666 25.7772 89.2549 25.8584 89.2433 25.9453C89.1036 26.8614 88.8824 27.7716 88.5856 28.6471C88.4517 29.0298 88.2888 29.4646 87.9512 29.7487C87.9046 29.7893 87.8464 29.8299 87.7882 29.8357C87.602 29.8589 87.5205 29.5979 87.4972 29.4414C87.3459 28.4326 87.4099 27.3948 87.4681 26.3918C87.4856 26.0555 87.5088 25.7134 87.5205 25.3714C87.5321 25.0119 87.5088 24.6524 87.4856 24.3046C87.4623 23.9915 87.4448 23.6726 87.4506 23.3595C87.4565 23.0928 87.4739 22.8203 87.4914 22.5594C87.5147 22.2695 87.5321 21.968 87.5379 21.6724C87.5379 21.4462 87.567 21.2085 87.5961 20.9766C87.6311 20.6635 87.6718 20.3331 87.6427 20.02C87.6194 19.7649 87.4681 19.4634 87.1945 19.4112C87.0025 19.3764 86.7871 19.475 86.6474 19.6605C86.5252 19.8287 86.467 20.0374 86.4204 20.2171C86.1993 21.0404 85.9781 21.9159 85.9024 22.7971C85.85 23.3711 85.8617 23.9625 85.8733 24.5307C85.8791 24.8322 85.885 25.1452 85.8791 25.4583C85.8791 25.5163 85.8791 25.5801 85.8791 25.6438C85.8733 26.299 85.8675 27.1977 85.5241 27.7369C85.4892 27.7948 85.4368 27.8644 85.3611 27.8876C85.2389 27.9282 85.105 27.818 85.0177 27.7195C84.7558 27.4296 84.5346 27.0643 84.3426 26.6063C83.8828 25.5395 83.7489 24.3973 83.6791 23.4175C83.6616 23.1624 83.6732 22.9015 83.6791 22.6232C83.7082 21.9564 83.7314 21.2665 83.3357 20.7157C83.2018 20.5302 82.9282 20.3852 82.6896 20.4896C82.5441 20.5534 82.451 20.6925 82.3753 20.8143C81.7234 21.8927 81.4731 23.2146 81.6652 24.5249C81.7933 25.4061 82.1832 26.1019 82.5906 26.8324C82.8118 27.2266 83.0388 27.6325 83.2192 28.0731C83.2774 28.2065 83.3822 28.5312 83.1901 28.6529C83.097 28.7109 82.969 28.6935 82.8467 28.6587C82.1367 28.4848 81.4673 28.1949 80.8562 27.789C80.7456 27.7137 80.635 27.6383 80.5244 27.5571C80.0588 27.2266 79.5699 26.8904 78.9995 26.8382C78.8482 26.8266 78.7434 26.8556 78.6852 26.931C78.6328 26.9947 78.6328 27.0817 78.6328 27.1455C78.6386 27.4528 78.7667 27.7832 79.0228 28.1427C79.7561 29.1805 80.9318 29.8125 81.9737 30.3285C82.0843 30.3807 82.189 30.4328 82.2996 30.485C83.2891 30.9662 84.3135 31.4706 85.0934 32.2475C85.8733 33.0245 86.5427 34.0565 86.9268 35.0827C87.1596 35.6972 87.3342 36.3466 87.4972 36.9728C87.6194 37.4308 87.7475 37.9062 87.8988 38.37C87.9803 38.6193 88.0734 38.8802 88.184 39.1643L88.1956 39.1759C88.248 39.2223 88.3062 39.2687 88.3644 39.3093C88.4285 39.3556 88.6147 39.4774 88.7951 39.4774C88.8708 39.4774 88.9406 39.46 89.0047 39.4078C89.1618 39.2861 89.1618 39.0542 89.156 38.8628C89.1502 38.5903 89.1793 38.3178 89.2433 38.0511C89.2666 37.9526 89.3015 37.8482 89.383 37.796C89.4121 37.7786 89.4528 37.7671 89.4878 37.7613L89.5634 37.7381C89.7962 37.6569 89.8894 37.3902 89.9476 37.1351L90.0058 36.88V36.8626C89.9068 36.4162 89.8428 35.9697 89.8195 35.5349C89.7089 33.6448 90.4598 31.2561 92.3921 30.1951C93.2768 29.7081 94.307 29.5458 95.3023 29.3892C96.0938 29.2675 96.9145 29.1399 97.6712 28.8442C98.9051 28.363 99.9702 27.418 100.587 26.2468C100.727 25.9801 100.896 25.6265 100.931 25.2844C100.942 25.0467 100.884 24.8206 100.738 24.635Z" fill="#C9987B"/>
<path d="M91.7578 50.4938L91.7462 50.4706L91.7171 50.459C90.6869 50.5286 89.4646 50.7431 88.2889 51.0504L88.2656 51.0736L88.2715 51.1083C88.6614 51.6765 88.9641 52.3491 89.1678 53.1144L89.1911 53.1376H89.2027L89.226 53.1318C89.9361 52.6332 90.8906 52.007 91.9499 51.5316L91.9674 51.4852C91.8335 51.1663 91.7637 50.83 91.7578 50.4938Z" fill="#C9987B"/>
<path d="M81.9263 45.4272C81.8565 45.2764 81.7808 45.1083 81.7691 44.9343C81.7633 44.8532 81.775 44.772 81.8041 44.7024V44.6734C81.6178 44.3256 81.4781 43.9661 81.3908 43.6067C81.222 42.8877 81.3035 42.1108 81.3792 41.3571C81.4199 40.9687 81.4607 40.5686 81.4665 40.1859C81.4781 39.6178 81.3384 39.2815 81.0474 39.1539C80.7972 39.0438 80.512 39.1481 80.3373 39.2989C80.1395 39.4728 80.0289 39.7221 79.9532 39.925C79.7728 40.4005 79.6796 40.9165 79.6796 41.4267C79.0219 40.3193 78.5971 39.0728 78.4516 37.8031C78.4283 37.6175 78.3526 37.3624 78.1955 37.2581C78.1256 37.2117 78.0558 37.2059 77.9743 37.2291C77.8753 37.2581 77.7997 37.345 77.7357 37.49C77.5785 37.8668 77.5901 38.2785 77.6192 38.7075C77.6716 39.5714 77.7589 40.4932 78.0558 41.3803C78.3468 42.2558 78.8066 42.9863 79.4003 43.4907C79.54 44.4763 79.9416 45.404 80.5702 46.1809C80.9252 46.6215 81.4432 47.0274 82.1533 47.4274L82.1708 47.4332L82.1882 47.4274L82.2115 47.4042C82.2231 47.3288 82.2522 47.2651 82.293 47.2187L82.357 47.1491C82.3919 47.1143 82.4269 47.0853 82.456 47.039C82.5607 46.8708 82.4909 46.6563 82.4094 46.4708L81.9263 45.4272Z" fill="#C9987B"/>
<path d="M93.1307 43.5481L93.1191 43.5307C92.8339 43.3336 92.5312 43.1596 92.2169 43.0147C91.9259 42.8813 91.6233 42.7712 91.3322 42.661C90.8899 42.4987 90.4301 42.3247 90.0168 42.0812C89.7375 41.9131 89.4756 41.716 89.2078 41.4609L89.1613 41.4551L89.1496 41.5015C89.4465 42.2262 89.6385 42.7886 89.7782 43.3336C90.0343 44.3308 90.1973 45.7686 89.5396 46.963C89.3475 47.3109 89.1263 47.5544 88.8702 47.6935C88.6141 47.8385 88.2998 47.8964 87.9041 47.879L87.8691 47.9022L87.8866 47.9428C89.1787 48.7487 90.5931 49.2067 91.9841 49.2589L92.019 49.2357V49.2299C92.1878 48.8937 92.4323 48.5864 92.6651 48.2965C92.8863 48.0182 93.1133 47.7341 93.2821 47.4152C93.7419 46.5513 93.7884 45.4324 93.4043 44.2612C93.3344 44.0351 93.2413 43.7974 93.1307 43.5481Z" fill="#C9987B"/>
<path d="M74.6395 99.6071C69.8086 98.7722 65.065 97.5836 61.0606 96.54L61.0199 96.5574C58.4997 100.245 55.4789 103.561 52.0449 106.408C51.5909 106.785 51.1777 107.167 51.1428 107.695C51.1253 107.956 51.2184 108.211 51.2941 108.443L56.9282 124.683C56.998 124.891 57.0795 125.094 57.161 125.291C57.2774 125.581 57.3996 125.883 57.4869 126.19C57.6383 126.718 57.7372 127.263 57.7838 127.813L57.7896 127.883C57.8012 128.063 57.8187 128.242 57.8711 128.416C57.9409 128.642 58.0806 128.816 58.2494 128.903C58.3949 128.973 58.5579 128.985 58.7092 128.985H58.7267C59.687 128.979 60.6357 128.77 61.5554 128.567C62.0501 128.457 62.5565 128.347 63.0628 128.266L63.0861 128.248L63.0919 128.219C63.0512 128.08 62.9988 127.947 62.9464 127.808L63.6274 127.674L63.6565 127.634C63.5459 126.984 63.1676 126.393 62.6205 126.016C62.5215 125.946 62.4168 125.883 62.2887 125.819C62.1723 125.755 62.0443 125.697 61.9279 125.639C61.73 125.546 61.5263 125.448 61.34 125.326C60.9035 125.054 60.6939 124.758 60.5368 124.201C59.5066 120.526 58.8314 116.734 58.5346 112.936C58.4822 112.298 58.4589 111.73 58.651 111.191C58.9246 110.432 59.5939 109.887 60.3156 109.347C64.9137 105.927 69.7388 102.68 74.6453 99.694L74.6628 99.6593L74.6395 99.6071Z" fill="#7D4134"/>
<path d="M100.918 98.5107H100.877C98.4562 99.9022 95.6973 100.737 92.8977 100.928L92.8628 100.963C92.6649 103.421 92.3914 105.915 92.1295 108.326C91.722 112.043 91.303 115.893 91.1516 119.69C91.14 119.939 91.1225 120.195 91.1051 120.444C91.076 120.832 91.0469 121.232 91.0527 121.615C91.0585 122.375 91.0236 123.024 90.9479 123.644C90.9014 124.038 90.8432 124.444 90.785 124.833L90.7559 125.041L90.7791 125.082L90.8664 125.111C91.3321 125.268 91.8675 125.447 92.24 125.726C92.3332 125.795 92.4205 125.882 92.5078 125.987C92.8046 126.346 92.9851 126.839 93.0724 127.106C93.2062 127.517 93.2761 127.981 93.2819 128.48L93.3168 128.514C93.8814 128.572 94.6206 128.659 95.3539 128.827H95.3598L95.383 128.822L95.3947 128.793C95.3889 128.671 95.383 128.543 95.3714 128.422L96.6984 128.497L96.7275 128.485L96.7392 128.456C96.681 127.471 96.1571 126.566 95.6508 125.818C95.5518 125.673 95.4587 125.534 95.3598 125.389C95.1269 125.053 94.8883 124.705 94.6788 124.346C94.4169 123.899 94.12 123.395 94.0444 122.879C93.8697 121.638 93.9163 120.392 93.9978 119C94.0851 117.499 94.1724 115.951 94.5973 114.484C94.9581 113.243 95.5635 112.066 96.1513 110.93C96.2444 110.75 96.3376 110.57 96.4307 110.39C98.1943 106.929 99.6552 103.277 100.767 99.5312L100.941 98.5571L100.918 98.5107Z" fill="#7D4134"/>
<path d="M106.856 63.6835C106.751 63.3937 106.646 63.1328 106.547 62.8777C106.454 62.6515 106.361 62.379 106.256 62.1007C105.901 61.1151 105.459 59.886 104.772 59.0685C104.405 58.4655 104.01 57.9205 103.591 57.3407C103.492 57.2074 103.393 57.0683 103.294 56.9349C102.793 56.2392 102.194 55.5202 101.466 54.7491C101.495 54.2911 101.478 53.8331 101.46 53.433C101.425 52.7431 101.373 52.0184 101.059 51.3922C101.018 51.3052 100.966 51.2241 100.919 51.1429L100.884 51.1255L100.855 51.1487L100.82 51.2183C100.715 50.7313 100.436 50.279 100.046 49.9775H100.005C99.4989 50.3312 99.0682 50.766 98.719 51.2704C98.7074 51.2357 98.6957 51.2009 98.6957 51.1661L98.6724 51.1371L98.6375 51.1429C98.4862 51.2589 98.4047 51.4328 98.3407 51.5835C98.3232 51.6241 98.3058 51.6705 98.2883 51.7111C97.9623 51.4676 97.6481 51.2762 97.3279 51.1313C97.1242 51.0385 96.9031 50.9516 96.6819 50.8878L96.6528 50.8936L96.6353 50.9168C96.6237 51.0037 96.6179 51.0907 96.612 51.1719C96.5014 51.1371 96.385 51.1023 96.2628 51.0733C95.803 50.9748 95.2733 51.0037 94.8426 51.1545C94.7437 50.9864 94.5807 50.8472 94.3596 50.7428L94.3363 50.737C93.9696 50.7834 93.5913 50.8646 93.2188 50.9748C92.7881 51.1023 92.3457 51.2647 91.915 51.456C90.8499 51.9314 89.8953 52.5692 89.1795 53.062C88.8011 53.3229 88.4228 53.6012 88.0619 53.8621C86.991 54.639 85.8793 55.4507 84.6687 56.0594C84.5057 56.1406 84.3311 56.2218 84.1099 56.3145L84.0866 56.3493C84.1099 56.6508 84.2089 56.8769 84.4009 57.0509C84.5232 57.1552 84.6629 57.2422 84.8025 57.3234C85.047 57.4625 85.2798 57.5959 85.3729 57.8394C85.5243 58.2278 85.2216 58.6511 84.983 58.9873C84.4999 59.6541 84.3602 60.2339 84.5581 60.7035C84.756 61.1789 85.2449 61.4108 85.7163 61.6369C85.7862 61.6717 85.8618 61.7065 85.9317 61.7413C87.1831 62.3674 88.1667 63.4806 88.6382 64.7967L88.6498 64.8141C88.999 65.075 89.3133 65.3707 89.5811 65.6896C90.2096 66.4433 90.5356 67.626 90.4425 68.8436C90.262 69.4408 89.8022 69.8524 89.0165 70.409C87.3868 71.557 85.2973 71.87 83.4697 72.0208C79.7912 72.3223 76.0313 72.1309 72.3994 71.9396C70.8162 71.8584 69.1807 71.7715 67.5685 71.7309C63.0344 71.6091 57.1617 71.7715 51.9525 74.079C48.9026 75.4357 46.4406 77.5751 45.2125 79.958C44.2347 81.2973 43.4781 82.7583 42.9484 84.3005C42.7505 84.8803 42.5876 85.4775 42.4246 86.0515C42.2325 86.7414 42.0346 87.4545 41.7785 88.1387C41.278 89.4954 40.5679 90.7535 39.6716 91.8899L39.6658 91.9304L39.7007 91.9478C41.1616 91.7855 42.5817 91.3449 43.9262 90.6259C42.9834 94.6844 41.0335 98.4182 38.2805 101.433C37.7974 101.961 37.2794 102.482 36.7789 102.981C35.8651 103.897 34.9222 104.842 34.1422 105.897C32.7221 107.822 31.8374 110.136 31.0633 112.171C30.0855 114.733 29.0785 117.412 28.0658 120.137C27.9843 120.357 27.9028 120.589 27.833 120.815C27.6817 121.262 27.5303 121.72 27.3324 122.137C27.3033 122.195 27.2742 122.253 27.251 122.311C27.1695 122.479 27.088 122.641 27.024 122.839C26.9308 123.105 26.8202 123.401 26.6864 123.731C26.5351 124.091 26.3721 124.456 26.2149 124.804C25.8541 125.598 25.4816 126.416 25.2488 127.274C25.2255 127.361 25.2022 127.448 25.1789 127.535C25.144 127.674 25.1149 127.836 25.1673 127.981C25.2255 128.132 25.3593 128.23 25.4757 128.3C25.8075 128.503 26.18 128.613 26.5409 128.723C27.4314 128.996 28.351 129.274 29.2939 129.39H29.3346L29.4045 129.373L29.4161 129.361L29.4569 129.286C29.4801 129.205 29.5092 129.123 29.5325 129.036C29.7886 129.1 30.0447 129.158 30.295 129.21L30.3357 129.187C30.5627 128.509 30.5977 127.778 30.4347 127.083C30.3939 126.903 30.3357 126.723 30.2834 126.549C30.2252 126.352 30.1611 126.155 30.1204 125.952C29.9982 125.366 30.1437 124.984 30.3998 124.41L30.4114 124.381C30.6559 123.836 30.9003 123.273 31.1564 122.717C31.5755 121.807 32.1342 120.606 32.8036 119.435C33.2052 118.734 33.5777 117.997 33.9327 117.284C34.6253 115.899 35.3471 114.466 36.3307 113.214C38.0186 111.075 40.2885 109.492 42.4828 107.956C44.1532 106.79 45.7713 105.515 47.337 104.286C49.6418 102.471 52.0282 100.598 54.6008 99.0443C56.2945 98.0239 58.0697 97.1021 59.8798 96.2962C60.2698 96.4006 60.6656 96.5049 61.0613 96.6093C65.0657 97.6587 69.8093 98.8414 74.646 99.6821C75.5715 99.8444 76.4911 99.9894 77.3816 100.117C79.5933 100.436 81.7119 100.604 83.8655 100.633C84.1972 103.039 84.7734 105.474 85.3264 107.828C86.0365 110.854 86.7756 113.979 87.0201 117.104C87.0841 117.887 87.1132 118.687 87.1423 119.464C87.1656 120.05 87.1889 120.659 87.2238 121.25C87.2995 122.467 87.2937 123.708 87.2063 124.926C87.1772 125.332 87.1249 125.743 87.0725 126.137C86.9677 126.903 86.8629 127.697 86.9386 128.503C86.9503 128.619 86.9735 128.735 87.0608 128.804C87.1598 128.886 87.2937 128.868 87.4159 128.857C87.8058 128.816 88.2075 128.851 88.5974 128.886L88.7662 128.903C89.7207 128.984 90.6869 129.007 91.6414 128.961L91.6764 128.92C91.6706 128.833 91.6706 128.741 91.6647 128.654C92.2235 128.66 92.7822 128.735 93.3235 128.88L93.3526 128.874L93.3701 128.845C93.3759 128.723 93.3759 128.596 93.3759 128.48C93.3701 127.975 93.2944 127.506 93.1606 127.083C93.0558 126.758 92.8695 126.294 92.5844 125.94C92.497 125.83 92.4039 125.737 92.305 125.668C91.9208 125.384 91.3854 125.204 90.9139 125.042L90.8441 125.019C90.6636 116.844 90.4774 108.39 91.6822 100.111C91.9674 100.071 92.2526 100.03 92.5261 99.9836L92.5553 99.9546C92.7415 98.4124 92.596 96.8238 92.1304 95.3511L92.1129 95.328H92.0838L91.5367 95.5599C91.9208 93.6176 91.8102 91.5942 91.2224 89.7041L91.1933 89.6809L91.1584 89.6983C90.9081 90.052 90.5763 90.3476 90.1922 90.5506C90.5181 88.2488 90.262 85.8775 89.4588 83.6918L89.4297 83.6686L89.3948 83.686C89.3075 83.8251 89.162 83.9237 88.999 83.9585C89.3599 82.3989 89.7266 80.7929 89.7673 79.1637C89.7906 78.2302 89.7091 77.2852 89.6276 76.3691C89.5345 75.3313 89.4414 74.2529 89.5054 73.1977C89.6043 71.6033 90.1223 70.2003 90.9663 69.2494C91.234 68.9537 91.5541 68.7044 91.8684 68.4667C92.0431 68.3334 92.2293 68.1884 92.3981 68.0435C92.4738 67.9797 92.5436 67.9159 92.6193 67.8522C93.2013 67.342 93.7484 66.8607 94.4469 66.5303L94.4701 66.5013L94.4527 66.4665C94.2257 66.3157 93.9754 66.2056 93.7135 66.136C94.5458 65.6374 95.4771 65.3649 96.4374 65.104C98.0962 64.6576 99.7899 64.2633 101.484 63.9328L101.513 63.9039L101.495 63.8691C101.309 63.7415 101.105 63.6314 100.89 63.5444C102.13 63.44 103.393 63.44 104.638 63.527C104.813 63.5386 104.999 63.5502 105.197 63.556C105.727 63.5792 106.32 63.6024 106.844 63.7357L106.879 63.7241L106.856 63.6835Z" fill="#9B5645"/>
<path d="M108.416 71.2269L108.742 71.5342L108.783 71.54L108.8 71.5052C108.759 71.1747 108.719 70.85 108.678 70.5253C108.398 68.2468 108.137 66.09 106.856 63.6781L106.833 63.6607C106.303 63.5274 105.704 63.4984 105.168 63.481C104.97 63.4752 104.784 63.4636 104.609 63.452C103.306 63.3593 101.99 63.365 100.692 63.481L100.657 63.51L100.681 63.5506C100.913 63.6317 101.135 63.7419 101.344 63.8753C99.6854 64.1999 98.0149 64.5884 96.3794 65.029C95.3841 65.2957 94.418 65.5856 93.5624 66.119L93.5449 66.1538L93.574 66.1828C93.8417 66.2408 94.092 66.3451 94.319 66.4901C93.638 66.8263 93.1026 67.296 92.5322 67.7946C92.4565 67.8583 92.3867 67.9221 92.311 67.9859C92.1422 68.1308 91.9618 68.27 91.7872 68.4033C91.4729 68.6468 91.1469 68.8904 90.8792 69.1976C90.0236 70.1601 89.4939 71.5805 89.4008 73.1865C89.3368 74.2475 89.4299 75.3259 89.5231 76.3695C89.6045 77.2798 89.686 78.2248 89.6627 79.1525C89.622 80.7932 89.2437 82.4166 88.8828 83.9878L88.8886 84.0226L88.9177 84.0342C89.0982 84.0168 89.267 83.9183 89.3775 83.7791C90.1691 85.9533 90.4136 88.313 90.076 90.6031L90.0934 90.6379H90.1284C90.5241 90.435 90.8734 90.1451 91.1411 89.7914C91.7115 91.6699 91.8104 93.6818 91.4147 95.6066L91.4263 95.6414L91.4612 95.6472L92.0316 95.4037C92.4856 96.8532 92.6253 98.4186 92.439 99.9376C92.3983 100.285 92.3343 100.639 92.2586 100.975L92.2644 101.004L92.2935 101.016C92.4856 101.01 92.6835 100.999 92.8872 100.987C95.6693 100.801 98.4165 99.9724 100.832 98.5983L100.657 99.5897L100.669 99.6245L100.704 99.6361C101.891 99.3868 103.055 98.6273 103.987 97.5083C104.831 96.4937 105.401 95.3167 105.896 94.192L106.041 95.1254L106.07 95.1544L106.111 95.1312C106.623 93.9658 106.949 92.7367 107.263 91.554C107.403 91.0264 107.549 90.4814 107.706 89.948C107.985 89.0087 108.23 88.0521 108.428 87.0897C108.462 86.9099 108.532 86.678 108.596 86.4287C108.759 85.8315 108.957 85.1184 108.957 84.5792C109.004 84.7357 109.056 84.8981 109.103 85.0546L109.143 85.0778L109.178 85.043C109.644 80.4338 109.382 75.7781 108.416 71.2269Z" fill="#E3DBCC"/>
<path d="M98.7947 52.8533C99.336 53.0794 99.7784 53.5258 100.098 54.1752L100.133 54.1926H100.139L100.168 54.1636C100.25 53.7751 100.244 53.3403 100.163 52.8185C100.122 52.5808 100.075 52.3431 100.023 52.1112C99.953 51.7865 99.8831 51.4502 99.8482 51.1139L99.8191 51.085L99.7784 51.0966L99.1207 52.0184C98.9519 52.2561 98.7831 52.5286 98.7656 52.8069L98.7947 52.8533Z" fill="#E3DBCC"/>
<path d="M85.9605 61.6776C85.8906 61.6429 85.8208 61.6081 85.7451 61.5733C85.2853 61.353 84.808 61.1211 84.6218 60.6746C84.4355 60.2282 84.5752 59.6774 85.0409 59.028C85.2911 58.6744 85.6112 58.2395 85.4425 57.8163C85.3377 57.5496 85.0874 57.4047 84.8371 57.2597C84.7033 57.1785 84.5578 57.0974 84.4472 56.9988C84.2667 56.8423 84.1736 56.6336 84.1562 56.3495L84.1387 56.3205C84.1154 56.3031 84.1038 56.3031 82.6952 56.8017C82.6138 56.8307 82.5556 56.8539 82.5323 56.8597C82.2122 56.9698 81.9095 57.167 81.6185 57.3525C81.4322 57.4742 81.246 57.596 81.0539 57.6946C81.0073 57.7177 80.9666 57.7409 80.92 57.7641C80.6814 57.8859 80.437 58.0076 80.2274 58.1758C80.0237 58.3381 79.7618 58.6048 79.692 58.9701C79.6396 59.2542 79.7094 59.5383 79.7909 59.776C79.8666 60.0079 79.9771 60.3036 80.1867 60.5355C80.2449 60.5993 80.3031 60.6572 80.3729 60.7036C80.3671 60.75 80.3613 60.7964 80.3671 60.837C80.3729 61.0515 80.4544 61.2718 80.6116 61.5269L80.6407 61.5733C80.6872 61.6487 80.7338 61.7298 80.8036 61.7994L81.0423 61.9559C81.0248 62.1821 81.0248 62.5821 81.2227 62.8778C81.5195 63.3184 82.0492 63.5097 82.445 63.5967C83.0503 63.7243 83.6731 63.6953 84.2784 63.6721C84.6509 63.6547 85.0409 63.6431 85.4192 63.6605C86.2107 63.7011 86.9674 64.0547 87.6949 64.3968C88.0267 64.5534 88.341 64.6983 88.6436 64.8085H88.6553L88.6786 64.7969L88.6902 64.7563C88.2304 63.4402 87.2293 62.3096 85.9605 61.6776Z" fill="#E7C394"/>
<path d="M116.634 20.7108L116.628 20.6238C116.564 19.6092 116.279 18.5946 115.801 17.7018C115.755 17.609 115.697 17.5104 115.592 17.4756C115.522 17.4524 115.452 17.464 115.382 17.5046C115.254 17.5858 115.184 17.7713 115.173 17.9047C115.144 18.2409 115.237 18.5714 115.318 18.8903C115.347 19.0005 115.376 19.1106 115.406 19.2208C115.522 19.7252 115.545 20.276 115.481 20.8963C115.411 20.334 115.278 19.789 115.085 19.2614C115.027 19.1106 114.946 19.0352 114.847 19.0468C114.806 19.0526 114.771 19.07 114.742 19.1048C114.678 19.186 114.69 19.3309 114.696 19.3831C114.858 20.618 114.789 21.911 114.492 23.1227C114.41 23.4532 114.3 23.7894 114.044 23.9924C113.898 24.1083 113.689 24.1547 113.508 24.1199C113.374 24.0909 113.264 24.0156 113.211 23.9112C113.176 23.8416 113.159 23.7605 113.141 23.6851L113.101 23.4822C112.833 22.195 112.583 20.9833 112.129 19.7658C111.849 19.0121 111.535 18.2699 111.186 17.551C111.145 17.464 111.099 17.3713 111.058 17.2785C110.778 16.6929 110.493 16.09 110.063 15.6145C109.998 15.545 109.929 15.4754 109.841 15.4638C109.707 15.4406 109.579 15.5624 109.545 15.6841C109.51 15.8059 109.539 15.9334 109.568 16.0494C109.731 16.6813 109.975 17.3017 110.214 17.9047C110.546 18.7396 110.889 19.6092 111 20.5079C111.029 20.7514 111.052 21.0703 110.953 21.3544C110.854 21.6443 110.633 21.8588 110.383 21.911C110.103 21.9689 109.812 21.8298 109.539 21.6674C108.799 21.2268 107.688 20.5659 107.1 19.7716C106.506 18.9657 105.918 18.1134 105.395 17.3597C105.319 17.2495 105.226 17.1104 105.086 17.035C104.952 16.9596 104.749 16.9596 104.644 17.093C104.591 17.1626 104.574 17.2495 104.568 17.3191C104.522 17.8351 104.778 18.3221 105.063 18.7743C105.499 19.4643 105.994 20.1194 106.535 20.7282C106.727 20.9427 106.925 21.1514 107.117 21.3544C107.403 21.6559 107.694 21.9631 107.967 22.2878C108.276 22.6589 108.369 22.9662 108.241 23.1981C108.072 23.5169 107.612 23.5054 107.28 23.4706C106.972 23.4416 106.646 23.4184 106.337 23.3952C105.697 23.3546 105.04 23.3082 104.428 23.1749C104.044 23.0937 103.683 22.9024 103.34 22.7169C102.991 22.5313 102.63 22.34 102.228 22.253C102.083 22.224 101.902 22.2008 101.774 22.311C101.588 22.4791 101.693 22.769 101.844 22.972C102.321 23.6155 103.043 24.1373 103.934 24.4736C104.964 24.862 105.889 25.0012 106.687 24.8794C107.595 24.7403 108.701 24.8852 109.492 25.2447C110.313 25.6216 111.023 26.3405 111.599 27.3841C112.565 29.1408 112.536 31.1874 112.437 32.9674C112.315 35.1241 111.681 37.2346 110.598 39.0667C108.817 42.0815 105.895 44.2499 102.135 45.3399C101.419 45.5486 100.61 45.7863 99.7896 45.7747C98.6372 45.7573 97.7292 45.1891 97.0075 44.0296C95.6222 41.8032 95.0053 39.142 95.273 36.5388L95.2905 36.3939C95.3603 35.7387 95.4418 34.9908 95.0402 34.44C94.9936 34.3762 94.9296 34.2951 94.8307 34.2719C94.5979 34.2139 94.4698 34.4748 94.3709 34.6835C94.3592 34.7125 94.3476 34.7357 94.3301 34.7647C94.2195 34.985 94.0216 35.1473 93.8296 35.3039C93.6259 35.472 93.4163 35.6402 93.2999 35.8837C93.1195 36.2663 93.2242 36.6954 93.3581 37.136L94.301 40.2842C94.365 40.5045 94.4407 40.7538 94.4058 40.9973C94.3709 41.2118 94.2079 41.4554 93.9751 41.4785C93.7772 41.4959 93.6026 41.3742 93.4396 41.2408C92.6771 40.6089 92.0427 39.7972 91.6062 38.8985C91.2395 38.1448 91.0882 37.2983 90.9369 36.4808C90.8961 36.2431 90.8496 35.9996 90.803 35.7619C90.7739 35.6286 90.7215 35.443 90.5585 35.4082C90.3665 35.3677 90.2384 35.5822 90.186 35.7967L89.8717 37.1302C89.8194 37.3621 89.732 37.6056 89.5342 37.681L89.4643 37.6984C89.4236 37.71 89.377 37.7216 89.3363 37.7448C89.2315 37.8085 89.1907 37.9303 89.1616 38.0462C89.0976 38.3187 89.0685 38.597 89.0743 38.8811C89.0743 39.0609 89.0802 39.258 88.9521 39.3623C88.7659 39.5073 88.4807 39.3218 88.3992 39.2638C88.341 39.2174 88.2828 39.1768 88.2304 39.1304C88.0209 38.9507 87.8754 38.771 87.7939 38.5912C87.7706 38.5449 87.7589 38.4811 87.7415 38.4115C87.7066 38.255 87.6658 38.081 87.5087 38.0115C87.4097 37.9709 87.305 38.0173 87.2468 38.0868C87.1885 38.1622 87.1653 38.255 87.1536 38.3303C87.0489 39.0319 87.4155 39.4609 87.8055 39.9131C87.9219 40.0465 88.0441 40.1914 88.1547 40.3364C88.5156 40.8292 88.8357 41.206 89.1558 41.5133C89.4236 41.7684 89.6913 41.9714 89.9765 42.1395C90.3956 42.3888 90.8554 42.5569 91.3035 42.7251C91.5946 42.8352 91.8972 42.9454 92.1824 43.0787C92.4909 43.2237 92.7877 43.3918 93.0729 43.5889C93.783 44.0818 94.3941 44.7253 94.8307 45.4558C95.1566 46.0008 95.5 46.8067 95.2672 47.5778C94.918 48.7374 93.5153 49.1722 92.4152 49.2012C92.2697 49.2012 92.1242 49.2012 91.9787 49.1954C90.5993 49.1432 89.1966 48.691 87.9161 47.8909C87.3282 47.5257 86.7811 47.0908 86.2864 46.6038C85.8149 46.14 85.3726 45.6182 84.9768 45.05C84.8429 44.8587 84.6916 44.6731 84.5461 44.4934C84.3249 44.2209 84.0921 43.9368 83.9233 43.6295C83.5974 43.0439 83.4053 42.3946 83.2249 41.7626C83.0561 41.1945 82.8873 40.6089 82.6138 40.0639C82.5556 39.9421 82.4799 39.8088 82.3635 39.716C82.2529 39.629 82.0783 39.5769 81.9328 39.658C81.7931 39.7392 81.7407 39.9073 81.7174 40.0291C81.5603 40.7596 81.7698 41.4959 81.9735 42.2091C82.1307 42.7657 82.2936 43.3396 82.2878 43.9136C82.2878 44.047 82.2704 44.2325 82.1423 44.3311C82.1074 44.3601 82.0666 44.3774 82.0259 44.3948C81.991 44.4122 81.9502 44.4296 81.9153 44.447C81.8338 44.4992 81.7698 44.5804 81.7349 44.6789C81.7058 44.7601 81.6941 44.8529 81.7 44.9398C81.7116 45.1254 81.7931 45.2993 81.8629 45.4558L82.3402 46.5052C82.4217 46.685 82.4857 46.8647 82.3926 47.0038C82.3693 47.0386 82.3402 47.0676 82.3053 47.1024C82.282 47.1256 82.2529 47.1488 82.2354 47.1778C82.1889 47.2358 82.154 47.3111 82.1365 47.3981C82.119 47.4909 82.119 47.601 82.1365 47.7228C82.2471 48.4185 82.7942 49.0679 83.6265 49.5027C83.7836 49.5839 83.9524 49.6592 84.1212 49.7288C83.8419 49.7868 83.5858 49.8158 83.3413 49.8158H83.2773C82.7011 49.8158 82.1307 49.6766 81.6185 49.4099C81.5254 49.3578 81.374 49.3346 81.2925 49.3809C81.2518 49.4041 81.2285 49.4389 81.2285 49.4911C81.2285 49.5259 81.2402 49.5549 81.2518 49.5839C81.4497 50.0535 81.8164 50.4535 82.2704 50.6912C82.3518 50.7318 82.4333 50.7724 82.5148 50.8072C82.7709 50.9232 83.0386 51.0449 83.1783 51.2826C83.2133 51.3464 83.2307 51.3986 83.2133 51.4392C83.1958 51.4913 83.1434 51.5203 83.0794 51.5551C83.0386 51.5783 82.9979 51.6015 82.963 51.6305C82.899 51.6885 82.864 51.7696 82.8757 51.8624C82.8873 52.0131 83.0037 52.1929 83.1609 52.2972C83.3937 52.4538 83.6265 52.506 83.8768 52.506C84.0688 52.506 84.2726 52.4712 84.4937 52.4306C84.9652 52.3436 85.4192 52.1465 85.8499 51.961C85.9197 51.932 85.9954 51.8972 86.0652 51.8682C86.7113 51.5957 87.4854 51.3406 88.3119 51.1203C89.4876 50.813 90.6982 50.5985 91.7284 50.5289C92.8983 50.4477 93.7946 50.5463 94.3301 50.813C94.5513 50.9232 94.7084 51.0623 94.7957 51.2246L94.8423 51.242C95.2672 51.0913 95.791 51.0565 96.2508 51.1551C96.3847 51.1841 96.5186 51.2246 96.6408 51.2652L96.6757 51.2594L96.6932 51.2304C96.6932 51.1319 96.7048 51.0333 96.7165 50.9348C96.8736 49.6824 97.9387 48.4765 99.4346 47.8677C100.447 47.4561 101.553 47.2937 102.624 47.1372C103.078 47.0734 103.544 47.0038 103.998 46.9169C107.711 46.2095 110.831 44.2035 112.559 41.4148C113.677 39.6174 114.317 37.3505 114.527 34.4864C114.631 33.0833 114.626 31.6513 114.62 30.2714C114.62 29.2742 114.614 28.248 114.649 27.2333C114.672 26.5318 114.725 25.7897 115.039 25.1519C115.208 24.7983 115.458 24.4852 115.697 24.1779C115.889 23.9344 116.081 23.6851 116.244 23.4184C116.75 22.5313 116.692 21.6501 116.634 20.7108Z" fill="#E7C394"/>
<path d="M94.9131 53.8914L94.8782 53.8682C94.5697 53.8682 94.2496 53.9261 93.9527 54.0421C93.2601 54.3146 92.8527 54.7436 92.7305 55.3234L92.7479 55.364L92.7654 55.3698L92.7945 55.3582C92.8702 55.2712 92.9575 55.1843 93.0564 55.1263C93.167 55.0625 93.2834 55.0451 93.3823 55.0799L93.4522 55.1031C93.7374 55.1959 93.9818 55.2828 94.2961 55.1205C94.5057 55.0103 94.6454 54.819 94.6628 54.6103C94.6686 54.5523 94.6628 54.4943 94.6628 54.4363C94.657 54.3494 94.6512 54.2682 94.6803 54.1928C94.7152 54.0885 94.8141 54.0073 94.9015 53.9377L94.9131 53.8914Z" fill="#161208"/>
<path d="M83.662 59.162L83.5572 59.1388C83.5165 59.133 83.4815 59.1272 83.4408 59.1272C83.3651 59.1214 83.2895 59.1272 83.208 59.1446C83.0799 59.1678 82.9577 59.2257 82.8413 59.3011C82.6318 59.4403 82.4572 59.6548 82.3117 59.9331C82.2593 60.0316 82.2418 60.1186 82.2534 60.1998C82.2651 60.2983 82.3291 60.3853 82.4281 60.4143C82.463 60.4259 82.4979 60.4317 82.5386 60.4317C82.5794 60.4317 82.6201 60.4259 82.6609 60.4143C82.8588 60.3621 83.0276 60.2114 83.1265 59.991C83.1731 59.8925 83.2022 59.7823 83.2138 59.6664L83.2022 59.4229L83.6678 59.2315L83.6911 59.1967L83.662 59.162Z" fill="#161208"/>
<path d="M89.9301 65.047C89.8894 65.0354 89.8487 65.0586 89.837 65.0933C89.8254 65.1339 89.8487 65.1745 89.8836 65.1861C90.5937 65.4006 91.2572 65.8239 91.7403 66.3863L91.7927 66.4094L91.8392 66.3921C91.8683 66.3689 91.8741 66.3225 91.845 66.2877C91.3503 65.7079 90.6693 65.2673 89.9301 65.047Z" fill="#161208"/>
<path d="M94.2614 72.1427C94.2556 72.1833 94.2905 72.2181 94.3254 72.2181H94.3313C94.3662 72.2181 94.4011 72.1891 94.4011 72.1485C94.5117 70.7571 94.1566 69.3366 93.4058 68.1596C93.3825 68.1249 93.3418 68.1191 93.3069 68.1365C93.272 68.1596 93.2603 68.2002 93.2836 68.235C94.0228 69.3946 94.3662 70.7803 94.2614 72.1427Z" fill="#161208"/>
<path d="M84.6215 61.8865C83.9289 62.0256 83.2188 62.0836 82.5204 62.0662C82.1712 62.0546 81.7754 62.0256 81.432 61.8633C81.397 61.8459 81.3505 61.8633 81.333 61.8981C81.3156 61.9328 81.333 61.9792 81.3679 61.9966C81.7346 62.1706 82.1537 62.2053 82.5146 62.2169C82.6077 62.2169 82.695 62.2227 82.7881 62.2227C83.4109 62.2227 84.0395 62.159 84.6506 62.0372C84.6914 62.0314 84.7146 61.9908 84.7088 61.9502C84.6972 61.9039 84.6564 61.8749 84.6215 61.8865Z" fill="#161208"/>
<path d="M81.9153 62.466C81.7232 62.4022 81.5428 62.2921 81.3915 62.1587C81.3624 62.1297 81.3158 62.1355 81.2867 62.1645C81.2576 62.1935 81.2634 62.2399 81.2925 62.2689C81.4555 62.4138 81.6534 62.5298 81.8629 62.6051L81.8862 62.6109C81.9153 62.6109 81.9444 62.5935 81.956 62.5646C81.9735 62.5182 81.956 62.4776 81.9153 62.466Z" fill="#161208"/>
<path d="M81.8674 60.206H81.8791C81.914 60.206 81.9431 60.1828 81.9489 60.148C82.0071 59.8407 82.2167 59.545 82.5135 59.3363C82.7696 59.1624 83.0955 59.0406 83.4797 58.9885C83.5204 58.9827 83.5495 58.9479 83.5437 58.9073C83.5379 58.8667 83.5029 58.8377 83.4622 58.8435C83.0548 58.9015 82.7056 59.029 82.432 59.2146C82.1061 59.4407 81.8791 59.7712 81.8092 60.1132C81.7976 60.1596 81.8267 60.2002 81.8674 60.206Z" fill="#161208"/>
<path d="M92.5733 55.6421C92.5675 55.6015 92.5326 55.5783 92.4918 55.5783C92.3638 55.5957 92.2183 55.6189 92.0961 55.5725C91.9855 55.532 91.8982 55.4392 91.8632 55.3232C91.8283 55.2131 91.8574 55.0855 91.9273 54.9928C91.9505 54.9638 91.9447 54.9174 91.9156 54.8942C91.8865 54.871 91.84 54.8768 91.8167 54.9058C91.7177 55.0333 91.6828 55.2073 91.7294 55.3638C91.7759 55.5204 91.8982 55.6479 92.0495 55.7059C92.1252 55.7349 92.2008 55.7407 92.2765 55.7407C92.3638 55.7407 92.4453 55.7291 92.5151 55.7175C92.55 55.7175 92.5791 55.6827 92.5733 55.6421Z" fill="#161208"/>
<path d="M95.1684 53.8339L95.1975 53.8396C95.2266 53.8396 95.2557 53.8223 95.2673 53.7933C95.3314 53.6367 95.343 53.457 95.2964 53.2947C95.2673 53.1845 95.2149 53.0975 95.1393 53.0396C95.0462 52.9642 94.9239 52.941 94.825 52.9758C94.7901 52.9874 94.7668 53.028 94.7784 53.0685C94.7901 53.1033 94.8308 53.1265 94.8715 53.1149C94.9239 53.0975 94.9938 53.1149 95.0462 53.1555C95.1044 53.2077 95.1393 53.2831 95.1567 53.341C95.1975 53.4744 95.1858 53.6193 95.1335 53.7469C95.116 53.7759 95.1335 53.8165 95.1684 53.8339Z" fill="#161208"/>
<path d="M94.8715 50.6334L94.9297 50.6624L94.9763 50.645C95.0054 50.6218 95.0112 50.5754 94.9879 50.5406C94.8191 50.3319 94.5572 50.187 94.1905 50.0942C94.0741 50.0652 93.9635 50.042 93.8471 50.0188C93.6783 49.984 93.5037 49.9551 93.335 49.8971C93.2942 49.8855 93.2535 49.9029 93.2418 49.9435C93.2302 49.984 93.2476 50.0246 93.2884 50.0362C93.463 50.0942 93.6434 50.129 93.818 50.1638C93.9286 50.187 94.045 50.2044 94.1556 50.2334C94.4874 50.3203 94.726 50.4537 94.8715 50.6334Z" fill="#161208"/>
<path d="M99.1197 47.2531C99.1604 47.2473 99.1837 47.2067 99.1779 47.1719C99.1721 47.1313 99.1314 47.1023 99.0964 47.1139C98.3398 47.2473 97.6355 47.6357 97.1117 48.1981C96.5879 48.7605 96.2561 49.491 96.1804 50.2505C96.1746 50.2911 96.2037 50.3259 96.2445 50.3317H96.2503C96.2852 50.3317 96.3201 50.3027 96.3201 50.2679C96.3958 49.5374 96.7101 48.8359 97.2165 48.2967C97.717 47.7517 98.3922 47.3864 99.1197 47.2531Z" fill="#161208"/>
<path d="M94.8545 42.5799H94.8603C94.8952 42.5799 94.9302 42.5509 94.9302 42.5161C95.0349 41.5189 94.9011 40.4985 94.5402 39.5651C94.5286 39.5303 94.482 39.5071 94.4471 39.5245C94.4122 39.5361 94.3889 39.5824 94.4063 39.6172C94.7614 40.5333 94.8952 41.5305 94.7905 42.4987C94.7847 42.5393 94.8138 42.5741 94.8545 42.5799Z" fill="#161208"/>
<path d="M94.3302 38.4752C94.3128 38.4404 94.272 38.423 94.2371 38.4404C94.2022 38.4578 94.1847 38.4984 94.2022 38.5332C94.3826 38.9448 94.5805 39.3565 94.79 39.7565L94.854 39.7971L94.889 39.7913C94.9239 39.7739 94.9355 39.7275 94.9181 39.6927C94.7027 39.2927 94.5048 38.8811 94.3302 38.4752Z" fill="#161208"/>
<path d="M90.6354 41.9251C90.0009 41.612 89.4305 41.1598 88.9882 40.6148C88.9649 40.5858 88.9184 40.58 88.8834 40.6032C88.8543 40.6264 88.8485 40.6728 88.8718 40.7075C89.3316 41.2699 89.9136 41.7337 90.5655 42.0584L90.6004 42.0642C90.6295 42.0642 90.6528 42.0468 90.6645 42.0236C90.6877 41.9889 90.6703 41.9483 90.6354 41.9251Z" fill="#161208"/>
<path d="M90.5582 41.4487C90.2439 41.24 89.9471 41.0022 89.6852 40.7297C89.6561 40.7008 89.6095 40.7008 89.5804 40.7297C89.5513 40.7587 89.5513 40.8051 89.5804 40.8341C89.8482 41.1124 90.1508 41.3617 90.4767 41.5762L90.5175 41.5878L90.5757 41.553C90.599 41.5125 90.5932 41.4661 90.5582 41.4487Z" fill="#161208"/>
<path d="M84.9482 45.5661C84.9133 45.5893 84.9075 45.6356 84.9366 45.6646C85.4721 46.3662 86.1123 46.9749 86.8457 47.4735L86.8864 47.4851L86.9446 47.4562C86.9679 47.4214 86.9563 47.3808 86.9272 47.3576C86.2113 46.8706 85.5768 46.2734 85.053 45.5777C85.0239 45.5487 84.9773 45.5429 84.9482 45.5661Z" fill="#161208"/>
<path d="M85.0698 46.1739C85.0465 46.1391 85 46.1333 84.9709 46.1565C84.936 46.1797 84.9301 46.2261 84.9534 46.2551C85.1746 46.5623 85.4423 46.829 85.745 47.0609L85.7915 47.0783L85.8498 47.0494C85.873 47.0146 85.8672 46.974 85.8381 46.9508C85.5413 46.7305 85.2852 46.4696 85.0698 46.1739Z" fill="#161208"/>
<path d="M85.8842 49.8855C85.0403 49.7521 84.2254 49.4158 83.527 48.9172C83.4921 48.894 83.4513 48.8998 83.428 48.9346C83.4047 48.9694 83.4106 49.01 83.4455 49.0332C84.1614 49.5434 84.9937 49.8913 85.8609 50.0246H85.8726C85.9075 50.0246 85.9366 50.0014 85.9424 49.9666C85.9482 49.9261 85.925 49.8913 85.8842 49.8855Z" fill="#161208"/>
<path d="M84.6964 49.9664C84.5334 49.9838 84.3646 49.9722 84.2075 49.9258C84.1667 49.9142 84.126 49.9374 84.1202 49.978C84.1085 50.0186 84.1318 50.0592 84.1726 50.065C84.2948 50.0998 84.4287 50.1172 84.5567 50.1172C84.6091 50.1172 84.6615 50.1172 84.7139 50.1056C84.7546 50.0998 84.7837 50.065 84.7779 50.0244C84.7721 49.9896 84.7371 49.9606 84.6964 49.9664Z" fill="#161208"/>
<path d="M109.748 41.1998C109.719 41.1766 109.672 41.1766 109.643 41.2114C108.526 42.5622 107.1 43.6928 105.522 44.4697C105.487 44.4871 105.47 44.5335 105.487 44.5683C105.499 44.5915 105.528 44.6089 105.551 44.6089L105.586 44.6031C107.181 43.8146 108.624 42.6782 109.754 41.3041C109.783 41.2693 109.777 41.2229 109.748 41.1998Z" fill="#161208"/>
<path d="M110.738 40.4349C110.703 40.4117 110.662 40.4233 110.639 40.4581C110.255 41.0611 109.824 41.6351 109.359 42.1743C109.335 42.2032 109.335 42.2496 109.364 42.2786L109.411 42.296L109.463 42.2728C109.935 41.7278 110.371 41.148 110.755 40.5393C110.785 40.4987 110.773 40.4581 110.738 40.4349Z" fill="#161208"/>
<path d="M114.275 27.1984C114.275 27.1578 114.246 27.123 114.206 27.123C114.165 27.123 114.13 27.152 114.13 27.1926C114.101 28.4797 114.107 29.7784 114.142 31.0656C114.142 31.1061 114.177 31.1351 114.211 31.1351C114.252 31.1351 114.281 31.1003 114.281 31.0598C114.252 29.7784 114.246 28.4797 114.275 27.1984Z" fill="#161208"/>
<path d="M114.16 26.126C114.119 26.1144 114.079 26.1376 114.073 26.1782C113.904 26.8102 113.793 27.4653 113.735 28.1147C113.729 28.1553 113.758 28.19 113.799 28.1958H113.805C113.84 28.1958 113.875 28.1669 113.875 28.1321C113.933 27.4885 114.044 26.845 114.207 26.2188C114.224 26.1782 114.201 26.1376 114.16 26.126Z" fill="#161208"/>
<path d="M111.296 20.2175C111.255 20.2233 111.226 20.2581 111.232 20.2987C111.342 21.2264 111.226 22.1772 110.888 23.0527C110.877 23.0874 110.894 23.1338 110.929 23.1454L110.952 23.1512C110.981 23.1512 111.011 23.1338 111.022 23.1048C111.366 22.212 111.494 21.2322 111.377 20.2813C111.371 20.2407 111.331 20.2117 111.296 20.2175Z" fill="#161208"/>
<path d="M110.511 22.8969L110.551 22.9085L110.609 22.8737C110.761 22.6418 110.866 22.3751 110.912 22.1084C110.918 22.0678 110.895 22.033 110.854 22.0272C110.813 22.0215 110.778 22.0446 110.772 22.0852C110.726 22.3403 110.627 22.5838 110.493 22.7984C110.464 22.8273 110.476 22.8737 110.511 22.8969Z" fill="#161208"/>
<path d="M107.374 23.7719C107.688 23.8183 108.043 23.8763 108.404 23.8763C108.724 23.8763 109.05 23.8357 109.353 23.7024C109.388 23.685 109.405 23.6444 109.393 23.6096C109.376 23.5748 109.335 23.5574 109.3 23.569C108.695 23.8241 107.979 23.7198 107.403 23.6328C107.362 23.627 107.327 23.656 107.321 23.6908C107.31 23.7255 107.333 23.7661 107.374 23.7719Z" fill="#161208"/>
<path d="M108.543 23.4877H108.555L108.986 23.4066C109.026 23.4008 109.05 23.3602 109.044 23.3196C109.038 23.279 108.997 23.2558 108.957 23.2616L108.526 23.3428C108.485 23.3486 108.462 23.3892 108.468 23.4298C108.479 23.4645 108.508 23.4877 108.543 23.4877Z" fill="#161208"/>
<path d="M115.015 22.9196C114.98 22.908 114.933 22.9254 114.922 22.9602C114.596 23.7719 114.055 24.485 113.362 25.0184C113.333 25.0416 113.327 25.088 113.35 25.1228L113.409 25.1517L113.455 25.1344C114.171 24.5836 114.724 23.853 115.061 23.0182C115.067 22.9776 115.05 22.937 115.015 22.9196Z" fill="#161208"/>
<path d="M113.461 24.6133C113.484 24.5843 113.484 24.5379 113.455 24.5089C113.426 24.4857 113.38 24.4857 113.35 24.5147C113.275 24.6017 113.176 24.6771 113.071 24.7292C113.036 24.7466 113.019 24.7872 113.036 24.8278C113.048 24.8568 113.077 24.8684 113.1 24.8684L113.129 24.8626C113.257 24.8046 113.368 24.7176 113.461 24.6133Z" fill="#161208"/>
<path d="M90.5008 28.6714C90.4891 28.6308 90.4484 28.6135 90.4134 28.6193C90.0817 28.712 89.7557 28.9091 89.4589 29.199C89.1912 29.4599 88.97 29.7672 88.7663 30.0629C88.743 30.0977 88.7546 30.1383 88.7837 30.1615L88.8245 30.1731L88.8827 30.1383C89.0806 29.8484 89.2959 29.5469 89.552 29.2976C89.8372 29.0251 90.1341 28.8396 90.4484 28.7526C90.4891 28.7468 90.5124 28.712 90.5008 28.6714Z" fill="#161208"/>
<path d="M90.0801 29.4251L90.1383 29.4599L90.1791 29.4483C90.4701 29.257 90.8019 29.1236 91.1394 29.054C91.1802 29.0482 91.2035 29.0076 91.1976 28.9671C91.1918 28.9265 91.1511 28.9033 91.1103 28.9091C90.7553 28.9845 90.4061 29.1294 90.0976 29.3265C90.0685 29.3439 90.0627 29.3903 90.0801 29.4251Z" fill="#161208"/>
<path d="M84.0566 29.1585C84.0974 29.1527 84.1265 29.1179 84.1207 29.0773C84.1148 29.0367 84.0799 29.0077 84.0392 29.0135C83.4339 29.0889 82.8285 29.0483 82.2407 28.9034C82.2 28.8918 82.165 28.915 82.1534 28.9556C82.1417 28.9961 82.165 29.0309 82.2058 29.0425C82.6132 29.1411 83.0264 29.1933 83.4397 29.1933C83.6434 29.1933 83.8529 29.1817 84.0566 29.1585Z" fill="#161208"/>
<path d="M85.2336 29.1405L85.286 29.1173C85.8564 28.5027 86.258 27.7432 86.4384 26.9257C86.4442 26.8852 86.4209 26.8504 86.3802 26.8388C86.3395 26.833 86.3045 26.8562 86.2929 26.891C86.1183 27.6853 85.7283 28.4216 85.1754 29.0188C85.1463 29.0477 85.1521 29.0941 85.1812 29.1231L85.2336 29.1405Z" fill="#161208"/>
<path d="M85.3777 28.41L85.4184 28.4216L85.4825 28.3868L85.7909 27.9055C85.8142 27.8708 85.8026 27.8244 85.7677 27.807C85.7327 27.7838 85.692 27.7954 85.6687 27.8302L85.3602 28.3114C85.3311 28.3462 85.3428 28.3868 85.3777 28.41Z" fill="#161208"/>
<path d="M84.1321 28.5314C84.1204 28.4908 84.0797 28.4734 84.0389 28.485L83.5384 28.6473C83.4976 28.6589 83.4802 28.6995 83.4918 28.7401C83.5035 28.7691 83.5326 28.7923 83.5617 28.7923L83.5849 28.7865L84.0855 28.6241C84.1262 28.6125 84.1437 28.5719 84.1321 28.5314Z" fill="#161208"/>
<path d="M87.7986 35.4717C87.7928 35.4312 87.7637 35.4022 87.7171 35.408C87.6764 35.4138 87.6473 35.4485 87.6531 35.4891C87.7579 36.6719 88.0198 37.843 88.4272 38.962C88.4388 38.991 88.4679 39.0084 88.497 39.0084L88.5203 39.0026C88.5552 38.991 88.5785 38.9504 88.5669 38.9098C88.1595 37.8025 87.9034 36.6429 87.7986 35.4717Z" fill="#161208"/>
<path d="M88.7542 38.5442C88.7659 38.5731 88.795 38.5963 88.8241 38.5963L88.8474 38.5905C88.8881 38.5789 88.9056 38.5384 88.8939 38.4978L88.4167 37.0831C88.405 37.0425 88.3643 37.0251 88.3235 37.0367C88.2828 37.0483 88.2653 37.0889 88.277 37.1295L88.7542 38.5442Z" fill="#161208"/>
<path d="M89.3649 33.6696C89.3242 33.658 89.2892 33.687 89.2776 33.7275C89.0506 34.8639 89.0913 36.0583 89.394 37.183C89.4056 37.2178 89.4348 37.2352 89.4639 37.2352H89.4813C89.5221 37.2236 89.5453 37.183 89.5337 37.1483C89.231 36.0467 89.1903 34.8755 89.4173 33.7623C89.4289 33.716 89.4056 33.6812 89.3649 33.6696Z" fill="#161208"/>
<path d="M85.3659 31.7731C85.3368 31.7963 85.3309 31.8427 85.3542 31.8717C85.7558 32.3877 86.1516 32.9211 86.5357 33.4545L86.5939 33.4835L86.6347 33.4719C86.6696 33.4487 86.6754 33.4023 86.6521 33.3733C86.268 32.8399 85.8722 32.3007 85.4648 31.7847C85.4473 31.7557 85.4008 31.7499 85.3659 31.7731Z" fill="#161208"/>
<path d="M86.1642 32.1737C86.1293 32.1968 86.1235 32.2432 86.1468 32.2722L86.5775 32.8752L86.6357 32.9042L86.6764 32.8926C86.7114 32.8694 86.7172 32.823 86.6939 32.794L86.2632 32.1911C86.2399 32.1563 86.1992 32.1447 86.1642 32.1737Z" fill="#161208"/>
<path d="M98.2113 27.6679L98.2578 27.6505C98.7991 27.2272 99.2706 26.7344 99.6664 26.172C99.6896 26.1373 99.6838 26.0967 99.6489 26.0735C99.614 26.0503 99.5732 26.0561 99.55 26.0909C99.16 26.6417 98.7002 27.1287 98.1705 27.5403C98.1414 27.5635 98.1356 27.6099 98.1589 27.6447L98.2113 27.6679Z" fill="#161208"/>
<path d="M99.4753 26.7922C99.4403 26.769 99.3996 26.7748 99.3763 26.8096C99.2425 26.9952 99.0969 27.1749 98.9398 27.3372C98.9107 27.3662 98.9107 27.4126 98.9398 27.4416L98.9922 27.459L99.0446 27.4358C99.2075 27.2677 99.3589 27.0821 99.4927 26.8908C99.516 26.8618 99.5102 26.8154 99.4753 26.7922Z" fill="#161208"/>
<path d="M90.4581 44.7253C90.4989 44.7253 90.5338 44.6963 90.5338 44.6557C90.5512 43.9774 90.4465 43.3107 90.2311 42.6671C90.2195 42.6265 90.1787 42.6091 90.138 42.6207C90.0973 42.6323 90.0798 42.6729 90.0914 42.7135C90.301 43.3396 90.3999 43.989 90.3883 44.6499C90.3824 44.6905 90.4174 44.7253 90.4581 44.7253Z" fill="#161208"/>
<path d="M90.8611 43.6125H90.8669C90.9076 43.6067 90.9367 43.5719 90.9309 43.5313C90.9076 43.3052 90.8669 43.0733 90.8087 42.8472C90.7971 42.8066 90.7563 42.7834 90.7214 42.795C90.6807 42.8066 90.6574 42.8472 90.669 42.8819C90.7272 43.0965 90.768 43.3168 90.7854 43.5429C90.7912 43.5835 90.8262 43.6125 90.8611 43.6125Z" fill="#161208"/>
<path d="M92.4676 43.4726C92.4326 43.49 92.4152 43.5306 92.4326 43.5712C92.7877 44.3191 92.9157 45.183 92.7993 46.0063C92.7935 46.0469 92.8226 46.0817 92.8633 46.0875H92.875C92.9099 46.0875 92.939 46.0643 92.9448 46.0237C93.067 45.1772 92.9332 44.2843 92.5665 43.5074C92.549 43.4726 92.5025 43.4553 92.4676 43.4726Z" fill="#161208"/>
<path d="M90.0274 46.8699C89.9169 47.1192 89.8063 47.3801 89.6491 47.612C89.4803 47.8671 89.2883 48.0526 89.0729 48.1628C89.038 48.1802 89.0205 48.2265 89.0438 48.2613C89.0554 48.2845 89.0845 48.3019 89.1078 48.3019L89.1428 48.2961C89.3814 48.1744 89.5967 47.9714 89.7772 47.6989C89.9343 47.4612 90.0507 47.1945 90.1671 46.9394C90.1846 46.9046 90.1671 46.8583 90.1322 46.8467C90.0857 46.8177 90.0449 46.8351 90.0274 46.8699Z" fill="#161208"/>
<path d="M90.0177 47.8736C89.9421 48.0592 89.8315 48.2273 89.6976 48.3723C89.6685 48.4012 89.6685 48.4476 89.6976 48.4766L89.75 48.4998L89.8024 48.4766C89.9537 48.3201 90.0759 48.1345 90.1574 47.9316C90.1749 47.8968 90.1516 47.8505 90.1167 47.8389C90.0759 47.8215 90.0294 47.8389 90.0177 47.8736Z" fill="#161208"/>
<path d="M91.4785 48.9168L91.5135 48.9284L91.5775 48.8936C91.7695 48.5632 91.8918 48.1863 91.9325 47.8094C91.9383 47.7689 91.9092 47.7341 91.8685 47.7283C91.8277 47.7225 91.7928 47.7515 91.787 47.7921C91.7463 48.1515 91.6299 48.5052 91.4494 48.8183C91.432 48.8531 91.4436 48.8994 91.4785 48.9168Z" fill="#161208"/>
<path d="M89.2082 52.1931C89.2198 52.2221 89.2489 52.2336 89.2722 52.2336L89.3013 52.2279C89.3363 52.2105 89.3537 52.1699 89.3363 52.1351C89.1966 51.8278 89.0394 51.5263 88.8648 51.2364C88.8415 51.2016 88.8008 51.19 88.7659 51.2132C88.7309 51.2364 88.7193 51.277 88.7426 51.3118C88.9172 51.5959 89.0743 51.8916 89.2082 52.1931Z" fill="#161208"/>
<path d="M89.3758 51.607L89.4282 51.6302L89.4747 51.6128C89.5038 51.5838 89.5097 51.5432 89.4806 51.5085C89.4107 51.4273 89.3525 51.3403 89.3001 51.2476C89.2827 51.2128 89.2361 51.1954 89.2012 51.2186C89.1663 51.236 89.1546 51.2823 89.1721 51.3171C89.2303 51.4273 89.2943 51.5201 89.3758 51.607Z" fill="#161208"/>
<path d="M90.8209 50.8018C90.7918 50.825 90.786 50.8713 90.8093 50.9061C90.9315 51.0627 91.0305 51.2424 91.0887 51.4337C91.1003 51.4627 91.1294 51.4859 91.1585 51.4859L91.1818 51.4801C91.2225 51.4685 91.24 51.4279 91.2284 51.3873C91.1643 51.1786 91.0596 50.9815 90.9257 50.8134C90.8966 50.7786 90.85 50.7728 90.8209 50.8018Z" fill="#161208"/>
<path d="M79.8082 43.0897C79.8082 43.0491 79.7733 43.0201 79.7384 43.0201C79.7035 43.0143 79.6627 43.0549 79.6685 43.0955C79.6743 43.6057 79.7617 44.1101 79.9304 44.5971C79.9421 44.6261 79.9712 44.6435 80.0003 44.6435L80.0236 44.6377C80.0585 44.6261 80.0818 44.5855 80.0701 44.5449C79.9013 44.0753 79.814 43.5883 79.8082 43.0897Z" fill="#161208"/>
<path d="M80.0078 41.0603C79.967 41.0545 79.9321 41.0835 79.9263 41.1183C79.8681 41.4894 79.8448 41.872 79.8564 42.2489C79.8564 42.2894 79.8913 42.3184 79.9263 42.3184C79.967 42.3184 79.9961 42.2836 79.9961 42.2431C79.9787 41.872 80.0019 41.5009 80.066 41.1415C80.0718 41.1009 80.0485 41.0661 80.0078 41.0603Z" fill="#161208"/>
<path d="M80.3098 42.0526C80.3156 42.012 80.2865 41.9772 80.2458 41.9714C80.1992 41.9656 80.1701 41.9946 80.1643 42.0352C80.0944 42.6266 80.1177 43.2238 80.2341 43.8093C80.24 43.8441 80.2691 43.8673 80.304 43.8673H80.3156C80.3564 43.8615 80.3796 43.8209 80.3738 43.7804C80.2632 43.2122 80.24 42.6266 80.3098 42.0526Z" fill="#161208"/>
<path d="M78.7773 41.8901C78.7599 41.8553 78.7133 41.838 78.6784 41.8611C78.6435 41.8785 78.626 41.9249 78.6493 41.9597C78.8181 42.2902 79.0218 42.6033 79.2488 42.8932L79.307 42.9221L79.3535 42.9048C79.3826 42.8816 79.3885 42.8352 79.3652 42.8062C79.144 42.5221 78.9461 42.2148 78.7773 41.8901Z" fill="#161208"/>
<path d="M78.5118 39.6001C78.5002 39.5595 78.4594 39.5363 78.4245 39.5479C78.3838 39.5595 78.3605 39.5943 78.3721 39.6349C78.5642 40.3828 78.8727 41.0901 79.2918 41.7395L79.35 41.7743L79.3907 41.7627C79.4256 41.7395 79.4314 41.6989 79.414 41.6641C79.0007 41.0263 78.6981 40.3364 78.5118 39.6001Z" fill="#161208"/>
<path d="M90.6935 64.7913C90.7226 64.7913 90.7458 64.7739 90.7575 64.7449C90.7749 64.7101 90.7575 64.6637 90.7167 64.6521C90.3209 64.484 89.9426 64.2869 89.5818 64.0492C89.5468 64.026 89.5061 64.0376 89.4828 64.0724C89.4595 64.1072 89.4712 64.1477 89.5061 64.1709C89.8728 64.4086 90.2627 64.6116 90.6643 64.7855L90.6935 64.7913Z" fill="#161208"/>
<path d="M94.3421 68.8898L94.377 68.8782C94.4119 68.855 94.4235 68.8144 94.4003 68.7796C94.1616 68.3854 93.8764 68.0201 93.5621 67.6839C93.533 67.6549 93.4865 67.6549 93.4574 67.6839C93.4283 67.7128 93.4283 67.7592 93.4574 67.7882C93.7659 68.1129 94.0452 68.4724 94.278 68.8608L94.3421 68.8898Z" fill="#161208"/>
<path d="M98.7886 59.7993L98.841 59.8225L98.8934 59.7993C98.9225 59.7703 98.9225 59.7239 98.8934 59.6949C98.678 59.4746 98.4394 59.2659 98.1891 59.0862C98.1542 59.063 98.1134 59.0688 98.0901 59.1036C98.0669 59.1384 98.0727 59.1789 98.1076 59.2021C98.3521 59.3819 98.579 59.5848 98.7886 59.7993Z" fill="#161208"/>
<path d="M98.9507 59.4634C98.9216 59.4866 98.9158 59.533 98.9449 59.5678L99.4338 60.1359L99.4862 60.1591L99.5328 60.1417C99.5619 60.1185 99.5677 60.0722 99.5386 60.0374L99.0497 59.4692C99.0264 59.4402 98.9798 59.4344 98.9507 59.4634Z" fill="#161208"/>
<path d="M102.268 65.6899C102.245 65.6551 102.204 65.6493 102.17 65.6667C102.135 65.6899 102.129 65.7305 102.146 65.7653C102.35 66.0726 102.525 66.403 102.676 66.7393C102.688 66.7683 102.717 66.7799 102.74 66.7799L102.769 66.7741C102.804 66.7567 102.821 66.7161 102.804 66.6813C102.653 66.3393 102.472 66.003 102.268 65.6899Z" fill="#161208"/>
<path d="M102.938 66.0901C102.921 66.0553 102.88 66.0379 102.845 66.0495C102.81 66.0669 102.793 66.1075 102.804 66.1422L103.095 66.838C103.107 66.867 103.136 66.8844 103.165 66.8844L103.194 66.8786C103.229 66.8612 103.247 66.8206 103.235 66.7858L102.938 66.0901Z" fill="#161208"/>
<path d="M104.352 76.219C104.335 76.1842 104.294 76.1668 104.259 76.1784C104.224 76.1958 104.207 76.2364 104.218 76.2711C104.405 76.7292 104.521 77.2104 104.562 77.6974C104.568 77.7322 104.597 77.7612 104.632 77.7612H104.637C104.678 77.7554 104.707 77.7206 104.702 77.68C104.661 77.1814 104.544 76.6886 104.352 76.219Z" fill="#161208"/>
<path d="M104.976 77.1289C104.935 77.1289 104.906 77.1637 104.906 77.1985V77.7899C104.906 77.8304 104.941 77.8594 104.976 77.8594C105.017 77.8594 105.046 77.8246 105.046 77.7899V77.2043C105.052 77.1637 105.017 77.1289 104.976 77.1289Z" fill="#161208"/>
<path d="M99.0452 76.5086C99.0045 76.5144 98.9754 76.5491 98.9812 76.5897C99.022 76.9956 99.0394 77.413 99.0452 77.8189C99.0452 77.8594 99.0802 77.8884 99.1151 77.8884C99.1558 77.8884 99.1849 77.8536 99.1849 77.8131C99.1849 77.4014 99.1616 76.9782 99.1209 76.5665C99.1209 76.5317 99.0918 76.5028 99.0452 76.5086Z" fill="#161208"/>
<path d="M99.3822 78.2483L99.4055 78.2541C99.4346 78.2541 99.4637 78.2367 99.4753 78.2077C99.551 77.9816 99.5917 77.7497 99.5859 77.512C99.5859 77.4714 99.551 77.4424 99.5161 77.4424C99.4753 77.4424 99.4462 77.4772 99.4462 77.5178C99.452 77.7381 99.4171 77.9526 99.3473 78.1613C99.324 78.1961 99.3473 78.2367 99.3822 78.2483Z" fill="#161208"/>
<path d="M102.007 83.0547C101.967 83.0547 101.938 83.0895 101.938 83.1301C101.955 83.6055 101.961 84.0925 101.949 84.5679C101.949 84.6085 101.978 84.6433 102.019 84.6433C102.06 84.6433 102.089 84.6143 102.089 84.5737C102.1 84.0925 102.095 83.6055 102.077 83.1243C102.083 83.0837 102.048 83.0605 102.007 83.0547Z" fill="#161208"/>
<path d="M102.427 84.1673C102.381 84.1557 102.352 84.1905 102.346 84.2311L102.235 85.2341C102.229 85.2747 102.258 85.3095 102.299 85.3153H102.305C102.34 85.3153 102.375 85.2863 102.375 85.2515L102.485 84.2485C102.497 84.2021 102.468 84.1673 102.427 84.1673Z" fill="#161208"/>
<path d="M104.079 89.502C104.044 89.502 104.003 89.5309 104.003 89.5715C103.974 90.1571 103.899 90.7427 103.788 91.3109C103.782 91.3515 103.805 91.3862 103.846 91.3978H103.858C103.893 91.3978 103.922 91.3746 103.928 91.3399C104.044 90.7601 104.114 90.1687 104.149 89.5773C104.149 89.5367 104.12 89.502 104.079 89.502Z" fill="#161208"/>
<path d="M104.416 90.6618C104.376 90.6502 104.341 90.6792 104.329 90.714L104.096 91.717C104.085 91.7576 104.114 91.7924 104.149 91.8039H104.166C104.201 91.8039 104.23 91.7808 104.236 91.746L104.469 90.7429C104.481 90.7082 104.457 90.6734 104.416 90.6618Z" fill="#161208"/>
<path d="M97.2922 91.7393C97.2514 91.7393 97.2165 91.7683 97.2165 91.8088C97.2049 92.2147 97.135 92.6147 97.0128 93.0032C97.0012 93.0438 97.0244 93.0843 97.0594 93.0959L97.0826 93.1017C97.1117 93.1017 97.1408 93.0844 97.1525 93.0496C97.2805 92.6495 97.3504 92.2379 97.362 91.8204C97.362 91.774 97.3329 91.7451 97.2922 91.7393Z" fill="#161208"/>
<path d="M97.6709 92.569C97.6302 92.5574 97.5894 92.5748 97.5778 92.6153L97.2926 93.4154C97.281 93.4502 97.2984 93.4966 97.3392 93.5082L97.3624 93.514C97.3915 93.514 97.4206 93.4966 97.4323 93.4676L97.7175 92.6675C97.7291 92.6269 97.7117 92.5863 97.6709 92.569Z" fill="#161208"/>
<path d="M95.0175 85.7043C94.9942 86.0986 94.9534 86.4928 94.8894 86.8813C94.8836 86.9219 94.9127 86.9567 94.9476 86.9625H94.9593C94.9942 86.9625 95.0233 86.9393 95.0291 86.9045C95.0931 86.5102 95.1397 86.1102 95.163 85.7101C95.163 85.6695 95.1339 85.6348 95.0931 85.6348C95.0466 85.6348 95.0175 85.6638 95.0175 85.7043Z" fill="#161208"/>
<path d="M95.6512 86.2774C95.6105 86.2658 95.5756 86.289 95.5639 86.3296L95.3311 87.2572C95.3195 87.2978 95.3428 87.3326 95.3835 87.3442H95.401C95.4359 87.3442 95.465 87.321 95.4708 87.292L95.7036 86.3644C95.7094 86.3296 95.6862 86.289 95.6512 86.2774Z" fill="#161208"/>
<path d="M92.3743 79.0371C92.3278 79.0371 92.2987 79.0661 92.2987 79.1067L92.2754 79.93C92.2754 79.9706 92.3045 80.0053 92.3452 80.0053C92.386 80.0053 92.4151 79.9764 92.4151 79.9358L92.4384 79.1125C92.4442 79.0719 92.4151 79.0371 92.3743 79.0371Z" fill="#161208"/>
<path d="M92.7531 79.5524C92.7124 79.5408 92.6775 79.5698 92.6658 79.6046L92.5378 80.1728C92.5261 80.2133 92.5552 80.2481 92.5901 80.2597H92.6076C92.6425 80.2597 92.6716 80.2365 92.6775 80.2018L92.8055 79.6336C92.8171 79.5988 92.7939 79.564 92.7531 79.5524Z" fill="#161208"/>
<path d="M91.0124 87.4257C90.9717 87.4199 90.9367 87.4431 90.9251 87.4837L90.6923 88.5679C90.6865 88.6084 90.7098 88.6432 90.7505 88.6548H90.768C90.8029 88.6548 90.832 88.6316 90.8378 88.5968L91.0706 87.5127C91.0764 87.4721 91.0532 87.4315 91.0124 87.4257Z" fill="#161208"/>
<path d="M91.1629 88.2498C91.1222 88.244 91.0873 88.273 91.0815 88.3135C91.0465 88.6092 90.9651 88.8991 90.8486 89.1658C90.8312 89.2006 90.8486 89.247 90.8836 89.2586L90.9127 89.2644C90.9418 89.2644 90.9651 89.247 90.9767 89.2238C91.1047 88.9397 91.1862 88.6382 91.2212 88.3309C91.2328 88.2903 91.2037 88.2498 91.1629 88.2498Z" fill="#161208"/>
<path d="M92.9099 95.9258L93.0089 95.2011C93.0147 95.1605 92.9856 95.1257 92.9448 95.1199C92.9041 95.1141 92.8692 95.1431 92.8634 95.1837L92.7644 95.9084C92.7586 95.949 92.7877 95.9838 92.8284 95.9895H92.8401C92.875 95.9838 92.9099 95.9606 92.9099 95.9258Z" fill="#161208"/>
<path d="M93.0783 95.8148L92.9503 96.2786C92.9386 96.3192 92.9619 96.3598 93.0026 96.3656H93.0201C93.0492 96.3656 93.0783 96.3424 93.09 96.3134L93.218 95.8496C93.2296 95.809 93.2064 95.7684 93.1656 95.7626C93.1307 95.7568 93.09 95.78 93.0783 95.8148Z" fill="#161208"/>
<path d="M82.1254 97.2415C82.0905 97.2183 82.0498 97.2241 82.0265 97.2588C81.7529 97.6299 81.4328 97.972 81.0894 98.2735C81.0603 98.3025 81.0545 98.343 81.0836 98.3778L81.136 98.401L81.1825 98.3836C81.5376 98.0763 81.8635 97.7227 82.1429 97.3458C82.1662 97.311 82.1604 97.2646 82.1254 97.2415Z" fill="#161208"/>
<path d="M81.5319 98.2614L81.1885 98.5223C81.1536 98.5455 81.1477 98.5919 81.1768 98.6208L81.235 98.6498L81.2816 98.6324L81.625 98.3715C81.6599 98.3483 81.6657 98.302 81.6366 98.273C81.6075 98.244 81.561 98.2382 81.5319 98.2614Z" fill="#161208"/>
<path d="M74.4775 96.8007L73.8373 97.0732C73.8024 97.0905 73.7849 97.1311 73.7966 97.1659C73.8082 97.1949 73.8373 97.2123 73.8606 97.2123L73.8897 97.2065L74.5299 96.934C74.5648 96.9166 74.5823 96.876 74.5648 96.8412C74.559 96.8007 74.5125 96.7833 74.4775 96.8007Z" fill="#161208"/>
<path d="M74.0334 97.3922C73.8588 97.5197 73.6725 97.6299 73.4746 97.7342C73.4397 97.7516 73.4281 97.798 73.4455 97.8328L73.5095 97.8734L73.5445 97.8676C73.7424 97.7632 73.9344 97.6473 74.1207 97.5197C74.1556 97.4965 74.1614 97.4501 74.1381 97.4211C74.109 97.3748 74.0625 97.369 74.0334 97.3922Z" fill="#161208"/>
<path d="M82.9798 91.5831C82.7703 91.8034 82.5258 91.9947 82.2639 92.1513C82.229 92.1745 82.2173 92.215 82.2406 92.2498L82.3047 92.2846L82.3396 92.273C82.6131 92.1107 82.8634 91.9077 83.0846 91.6816C83.1137 91.6526 83.1137 91.6063 83.0846 91.5773C83.0555 91.5541 83.0089 91.5541 82.9798 91.5831Z" fill="#161208"/>
<path d="M82.8007 92.4176L82.4049 92.7423C82.3758 92.7655 82.37 92.8119 82.3933 92.8467L82.4515 92.8757L82.498 92.8583L82.8938 92.5336C82.9229 92.5104 82.9287 92.464 82.9055 92.4292C82.8764 92.4002 82.8298 92.3944 82.8007 92.4176Z" fill="#161208"/>
<path d="M77.0666 92.1459L76.1819 92.6619C76.147 92.6851 76.1353 92.7256 76.1586 92.7604L76.2226 92.7952L76.2575 92.7836L77.1422 92.2676C77.1772 92.2444 77.1888 92.2038 77.1655 92.169C77.1422 92.1343 77.1015 92.1227 77.0666 92.1459Z" fill="#161208"/>
<path d="M76.7297 92.9277L76.2873 93.1828C76.2524 93.2002 76.2408 93.2466 76.2641 93.2814L76.3281 93.3162L76.363 93.3046L76.8054 93.0495C76.8403 93.0321 76.8519 92.9857 76.8286 92.9509C76.8112 92.9219 76.7646 92.9045 76.7297 92.9277Z" fill="#161208"/>
<path d="M87.1591 85.4202C86.8623 85.7159 86.5829 86.0348 86.321 86.3594C86.2977 86.3884 86.3035 86.4348 86.3326 86.4638L86.3792 86.4812L86.4374 86.4522C86.6935 86.1275 86.9729 85.8202 87.2639 85.5245C87.293 85.4956 87.293 85.4492 87.2639 85.4202C87.2348 85.3912 87.1882 85.3912 87.1591 85.4202Z" fill="#161208"/>
<path d="M87.0424 86.2437C87.0133 86.2147 86.9668 86.2205 86.9377 86.2495L86.4371 86.7829C86.408 86.8118 86.4138 86.8582 86.4429 86.8872L86.4953 86.9046L86.5477 86.8814L87.0482 86.348C87.0773 86.319 87.0715 86.2727 87.0424 86.2437Z" fill="#161208"/>
<path d="M91.1577 73.5109C91.1402 73.9516 91.082 74.3864 90.9831 74.8096C90.9714 74.8502 91.0005 74.885 91.0355 74.8966H91.0529C91.0878 74.8966 91.1169 74.8734 91.1228 74.8386C91.2217 74.4038 91.2857 73.9573 91.3032 73.5109C91.3032 73.4703 91.2741 73.4355 91.2333 73.4355C91.1926 73.4413 91.1635 73.4703 91.1577 73.5109Z" fill="#161208"/>
<path d="M91.4427 74.845L91.466 74.8508C91.4951 74.8508 91.5242 74.8334 91.5358 74.7986L91.7162 74.2594C91.7279 74.2188 91.7104 74.1782 91.6697 74.1666C91.6347 74.155 91.5882 74.1724 91.5765 74.213L91.3961 74.7522C91.3845 74.7928 91.4019 74.8334 91.4427 74.845Z" fill="#161208"/>
<path d="M106.721 70.1661C106.71 70.1255 106.669 70.1081 106.628 70.1197C106.587 70.1313 106.57 70.1719 106.582 70.2125C106.686 70.5488 106.756 70.9024 106.791 71.2561C106.797 71.2909 106.826 71.3199 106.861 71.3199H106.867C106.908 71.3141 106.937 71.2793 106.931 71.2387C106.902 70.8735 106.832 70.514 106.721 70.1661Z" fill="#161208"/>
<path d="M107.146 70.8389C107.105 70.8389 107.076 70.8737 107.076 70.9084V71.2447C107.076 71.2853 107.111 71.3143 107.146 71.3143C107.181 71.3143 107.216 71.2795 107.216 71.2447V70.9084C107.216 70.8737 107.187 70.8389 107.146 70.8389Z" fill="#161208"/>
<path d="M83.7312 97.908C83.7312 97.8674 83.702 97.8327 83.6613 97.8327C83.6264 97.8269 83.5856 97.8617 83.5856 97.9022C83.5333 98.7081 83.6147 99.5198 83.8359 100.297C83.8476 100.332 83.8767 100.349 83.9058 100.349H83.9232C83.964 100.337 83.9872 100.297 83.9756 100.262C83.7603 99.4908 83.6788 98.7023 83.7312 97.908Z" fill="#161208"/>
<path d="M83.3417 99.2825C83.3359 99.2419 83.2951 99.2187 83.2544 99.2245C83.2137 99.2303 83.1904 99.2709 83.1962 99.3115C83.2544 99.6188 83.3417 99.9144 83.4581 100.204C83.4698 100.233 83.4989 100.251 83.528 100.251L83.5571 100.245C83.592 100.228 83.6153 100.187 83.5978 100.152C83.4872 99.8681 83.3999 99.5782 83.3417 99.2825Z" fill="#161208"/>
<path d="M91.687 99.8155C91.7278 99.8155 91.7627 99.7865 91.7627 99.7459C91.7802 98.9922 91.8849 98.2385 92.0712 97.508C92.0828 97.4674 92.0595 97.4326 92.0188 97.421C91.978 97.4152 91.9431 97.4326 91.9315 97.4732C91.7452 98.2153 91.6405 98.9748 91.6172 99.7401C91.6172 99.7807 91.6463 99.8155 91.687 99.8155Z" fill="#161208"/>
<path d="M92.0537 98.9862C92.013 98.9804 91.978 99.0036 91.9664 99.0442C91.9257 99.2413 91.9082 99.4443 91.9082 99.6414C91.9082 99.682 91.9431 99.711 91.978 99.711C92.0188 99.711 92.0479 99.6762 92.0479 99.6356C92.0479 99.4443 92.0653 99.2529 92.1003 99.0674C92.1177 99.0326 92.0886 98.992 92.0537 98.9862Z" fill="#161208"/>
<path d="M93.3239 101.289C93.2773 101.295 93.2482 101.318 93.2482 101.359C93.2191 102.315 93.0969 103.278 92.8874 104.211C92.8757 104.252 92.9048 104.287 92.9398 104.298H92.9572C92.9921 104.298 93.0212 104.275 93.0271 104.24C93.2366 103.295 93.3588 102.327 93.3879 101.359C93.3937 101.324 93.3646 101.289 93.3239 101.289Z" fill="#161208"/>
<path d="M93.73 102.326H93.7417C93.7766 102.326 93.8115 102.297 93.8115 102.262C93.8464 101.978 93.8697 101.689 93.8814 101.399C93.8814 101.358 93.8523 101.323 93.8115 101.323C93.7708 101.323 93.7359 101.352 93.7359 101.393C93.7242 101.677 93.7009 101.967 93.666 102.245C93.666 102.286 93.6951 102.32 93.73 102.326Z" fill="#161208"/>
<path d="M100.134 99.277C100.094 99.2712 100.059 99.306 100.059 99.3408C99.9597 100.535 99.3951 101.672 98.8946 102.675C98.8771 102.709 98.8888 102.756 98.9295 102.773L98.9644 102.779C98.9935 102.779 99.0168 102.761 99.0284 102.738C99.5348 101.724 100.111 100.57 100.21 99.3524C100.204 99.3176 100.175 99.277 100.134 99.277Z" fill="#161208"/>
<path d="M98.9328 101.138C98.9619 101.138 98.991 101.121 99.0026 101.086C99.1365 100.686 99.2587 100.274 99.3693 99.8624C99.3809 99.8218 99.3576 99.787 99.3169 99.7754C99.2762 99.7639 99.2412 99.787 99.2296 99.8276C99.119 100.233 98.9968 100.645 98.8629 101.045C98.8513 101.086 98.8687 101.126 98.9095 101.138H98.9328Z" fill="#161208"/>
<path d="M86.9497 112.391C86.6645 111.249 86.3735 110.066 86.2979 108.878C86.2979 108.837 86.2629 108.802 86.2222 108.808C86.1814 108.808 86.1523 108.843 86.1523 108.884C86.228 110.084 86.519 111.272 86.8042 112.42C86.9905 113.18 87.1884 113.968 87.3164 114.751C87.3222 114.786 87.3513 114.809 87.3863 114.809H87.3979C87.4386 114.803 87.4619 114.763 87.4561 114.728C87.3339 113.945 87.1418 113.151 86.9497 112.391Z" fill="#161208"/>
<path d="M87.2761 112.734C87.2819 112.768 87.311 112.792 87.346 112.792H87.3634C87.4042 112.786 87.4274 112.745 87.4216 112.705L87.1073 111.261C87.1015 111.22 87.0608 111.197 87.02 111.203C86.9793 111.209 86.956 111.249 86.9618 111.29L87.2761 112.734Z" fill="#161208"/>
<path d="M90.1636 119.848C90.1229 119.848 90.0938 119.882 90.0938 119.923L90.1636 122.897C90.1636 122.938 90.1985 122.967 90.2334 122.967C90.2742 122.967 90.3033 122.932 90.3033 122.892L90.2334 119.917C90.2334 119.877 90.1985 119.848 90.1636 119.848Z" fill="#161208"/>
<path d="M89.8529 122.468C89.8529 122.508 89.8878 122.537 89.9228 122.537H89.9286C89.9693 122.537 89.9984 122.502 89.9984 122.462L89.9111 121.175C89.9111 121.134 89.8762 121.099 89.8355 121.105C89.7947 121.105 89.7656 121.14 89.7656 121.181L89.8529 122.468Z" fill="#161208"/>
<path d="M90.5122 125.17C89.8603 125.013 89.156 125.199 88.6613 125.651C88.6322 125.68 88.6322 125.726 88.6555 125.755L88.7079 125.779L88.7544 125.761C89.2084 125.344 89.8661 125.17 90.4714 125.315C90.5122 125.326 90.5471 125.297 90.5587 125.263C90.5762 125.216 90.5529 125.176 90.5122 125.17Z" fill="#161208"/>
<path d="M89.0578 125.054L89.0811 125.048C89.3721 124.961 89.6922 124.944 89.9949 124.996C90.0356 125.002 90.0705 124.979 90.0764 124.938C90.0822 124.897 90.0589 124.863 90.0182 124.857C89.6922 124.799 89.3546 124.822 89.0403 124.915C88.9996 124.926 88.9821 124.967 88.9938 125.002C88.9938 125.037 89.0229 125.054 89.0578 125.054Z" fill="#161208"/>
<path d="M94.5914 112.171C94.5565 112.16 94.5099 112.177 94.4983 112.218C94.1141 113.401 93.7882 114.618 93.5263 115.836C93.5205 115.876 93.5437 115.911 93.5845 115.923H93.6019C93.6369 115.923 93.666 115.899 93.6718 115.865C93.9279 114.653 94.2538 113.441 94.638 112.264C94.6554 112.224 94.6321 112.183 94.5914 112.171Z" fill="#161208"/>
<path d="M93.8591 113.232L93.8823 113.237C93.9114 113.237 93.9406 113.22 93.9522 113.191L94.6041 111.266C94.6157 111.226 94.5983 111.185 94.5575 111.173C94.5226 111.162 94.476 111.179 94.4644 111.22L93.8125 113.145C93.795 113.179 93.8183 113.22 93.8591 113.232Z" fill="#161208"/>
<path d="M91.0471 126.022C91.0122 126.045 91.0005 126.086 91.0238 126.12C91.4196 126.787 91.6408 127.547 91.6641 128.318C91.6641 128.358 91.699 128.387 91.7339 128.387C91.7747 128.387 91.8038 128.353 91.8038 128.312C91.7805 127.518 91.5535 126.729 91.1461 126.045C91.1286 126.016 91.082 126.004 91.0471 126.022Z" fill="#161208"/>
<path d="M94.6146 125.732C94.5971 125.698 94.5506 125.686 94.5156 125.703C94.4807 125.721 94.4691 125.767 94.4865 125.802C94.8358 126.399 95.0628 127.077 95.1501 127.762C95.1559 127.796 95.185 127.825 95.2199 127.825H95.2315C95.2723 127.82 95.3014 127.785 95.2956 127.744C95.2083 127.043 94.9696 126.347 94.6146 125.732Z" fill="#161208"/>
<path d="M61.0843 126.103C61.0435 126.098 61.0086 126.121 60.997 126.161C60.9912 126.202 61.0144 126.237 61.0552 126.248C61.7303 126.393 62.3298 126.84 62.6674 127.437L62.7314 127.472L62.7664 127.46C62.8013 127.443 62.8129 127.396 62.7955 127.362C62.4404 126.73 61.8002 126.26 61.0843 126.103Z" fill="#161208"/>
<path d="M58.4353 115.662C58.4295 115.621 58.4004 115.586 58.3538 115.598C58.3131 115.604 58.284 115.639 58.2898 115.679C58.412 116.816 58.575 117.963 58.7613 119.088C58.7671 119.123 58.7962 119.146 58.8311 119.146H58.8427C58.8835 119.14 58.9068 119.1 58.9009 119.065C58.7147 117.94 58.5575 116.798 58.4353 115.662Z" fill="#161208"/>
<path d="M58.0064 116.636C57.9656 116.641 57.9423 116.676 57.9482 116.717L58.1577 118.039C58.1635 118.074 58.1926 118.102 58.2275 118.102H58.2392C58.2799 118.097 58.3032 118.062 58.2974 118.021L58.0878 116.699C58.082 116.653 58.0471 116.63 58.0064 116.636Z" fill="#161208"/>
<path d="M52.3588 107.3C52.3122 107.295 52.2831 107.329 52.2831 107.364C52.2482 107.822 52.1434 108.274 51.9688 108.698C51.9514 108.732 51.9746 108.779 52.0096 108.79L52.0387 108.796C52.0678 108.796 52.0969 108.779 52.1085 108.75C52.2889 108.309 52.3937 107.845 52.4286 107.37C52.4286 107.341 52.3937 107.306 52.3588 107.3Z" fill="#161208"/>
<path d="M52.254 109.347C52.2424 109.307 52.2016 109.283 52.1667 109.295C52.126 109.307 52.1027 109.347 52.1143 109.382C52.2424 109.875 52.3937 110.368 52.5509 110.843C52.5625 110.872 52.5916 110.895 52.6207 110.895L52.644 110.889C52.6847 110.878 52.7022 110.837 52.6905 110.797C52.5334 110.327 52.3821 109.834 52.254 109.347Z" fill="#161208"/>
<path d="M52.6492 106.935L52.6841 106.941C52.7132 106.941 52.7365 106.929 52.7481 106.9C52.882 106.64 53.0741 106.408 53.3011 106.222C53.3302 106.199 53.336 106.152 53.3127 106.118C53.2894 106.089 53.2429 106.083 53.2079 106.106C52.9635 106.297 52.754 106.553 52.6143 106.831C52.5968 106.877 52.6143 106.918 52.6492 106.935Z" fill="#161208"/>
<path d="M52.4523 108.745C52.4407 108.71 52.3941 108.687 52.3592 108.704C52.3243 108.716 52.301 108.762 52.3184 108.797C52.4232 109.087 52.5454 109.371 52.6793 109.638C52.6909 109.661 52.72 109.678 52.7433 109.678L52.7724 109.672C52.8073 109.655 52.8248 109.614 52.8073 109.574C52.6793 109.307 52.5571 109.029 52.4523 108.745Z" fill="#161208"/>
<path d="M53.4414 107.347C53.2318 107.463 53.0107 107.544 52.7778 107.579C52.7371 107.584 52.7138 107.619 52.7196 107.66C52.7255 107.695 52.7546 107.724 52.7895 107.724H52.8011C53.0514 107.683 53.2959 107.602 53.517 107.474C53.5519 107.457 53.5636 107.411 53.5461 107.376C53.5228 107.335 53.4763 107.324 53.4414 107.347Z" fill="#161208"/>
<path d="M58.5237 101.161L58.5586 101.173L58.6226 101.138C59.4433 99.7871 60.3163 98.4478 61.2127 97.1548C61.236 97.1201 61.2243 97.0795 61.1952 97.0563C61.1603 97.0331 61.1195 97.0447 61.0963 97.0737C60.1999 98.3724 59.3269 99.7117 58.5004 101.068C58.4829 101.097 58.4946 101.138 58.5237 101.161Z" fill="#161208"/>
<path d="M61.015 98.2506C61.2012 97.9143 61.4049 97.5896 61.6261 97.2765C61.6494 97.2417 61.6436 97.2012 61.6087 97.178C61.5737 97.1548 61.533 97.1606 61.5097 97.1954C61.2885 97.5143 61.079 97.8447 60.8869 98.1868C60.8695 98.2216 60.8811 98.268 60.916 98.2854L60.951 98.297L61.015 98.2506Z" fill="#161208"/>
<path d="M69.7324 100.848L69.7848 100.825C70.1748 100.425 70.6171 100.077 71.0944 99.7871C71.1293 99.7639 71.1409 99.7234 71.1177 99.6886C71.0944 99.6538 71.0536 99.6422 71.0187 99.6654C70.5298 99.9611 70.0758 100.321 69.68 100.726C69.6509 100.755 69.6509 100.802 69.68 100.831L69.7324 100.848Z" fill="#161208"/>
<path d="M71.9387 100.06C69.855 101.103 67.8411 102.327 65.967 103.701C65.9321 103.724 65.9262 103.77 65.9495 103.799L66.0077 103.828L66.0485 103.817C67.9168 102.448 69.919 101.225 71.9969 100.187C72.0318 100.17 72.0492 100.124 72.0318 100.089C72.0201 100.054 71.9794 100.042 71.9387 100.06Z" fill="#161208"/>
<path d="M29.5208 125.859C29.4801 125.871 29.4626 125.912 29.4742 125.946C29.7362 126.828 29.7711 127.767 29.579 128.66C29.5732 128.7 29.5965 128.735 29.6372 128.747H29.6547C29.6896 128.747 29.7187 128.724 29.7245 128.689C29.9224 127.767 29.8875 126.805 29.6198 125.9C29.5965 125.871 29.5557 125.848 29.5208 125.859Z" fill="#161208"/>
<path d="M29.9271 116.328C29.8922 116.311 29.8457 116.328 29.834 116.369C29.4324 117.296 29.089 118.259 28.8096 119.227C28.798 119.267 28.8213 119.308 28.862 119.314H28.8795C28.9086 119.314 28.9377 119.291 28.9493 119.262C29.2287 118.299 29.5721 117.343 29.9679 116.421C29.9853 116.386 29.9679 116.345 29.9271 116.328Z" fill="#161208"/>
<path d="M29.9392 117.187C29.9042 117.169 29.8577 117.192 29.846 117.227C29.6947 117.61 29.5667 118.01 29.4503 118.404C29.4386 118.445 29.4619 118.485 29.5026 118.491H29.5201C29.5492 118.491 29.5783 118.468 29.59 118.439C29.7005 118.045 29.8344 117.656 29.9799 117.274C29.9974 117.245 29.9741 117.198 29.9392 117.187Z" fill="#161208"/>
<path d="M34.9096 105.758C34.8397 105.752 34.7757 105.805 34.7582 105.822C34.5953 105.973 34.4556 106.147 34.3508 106.344C34.3333 106.379 34.345 106.425 34.3799 106.442C34.4148 106.46 34.4614 106.448 34.4789 106.413C34.5778 106.234 34.7 106.066 34.8514 105.926L34.8688 105.915C34.7932 106.297 34.5196 106.611 34.2286 106.924C34.182 106.97 34.1296 107.028 34.0714 107.063C34.0132 107.092 33.955 107.103 33.9085 107.086C33.8735 107.069 33.827 107.086 33.8153 107.127C33.7979 107.161 33.8153 107.208 33.8561 107.219C33.891 107.231 33.9259 107.242 33.9667 107.242C34.0249 107.242 34.0889 107.225 34.1471 107.19C34.2286 107.144 34.2926 107.08 34.3392 107.022C34.6418 106.703 34.9387 106.361 35.0201 105.932C35.026 105.909 35.0376 105.851 34.9969 105.799C34.9736 105.776 34.9445 105.758 34.9096 105.758Z" fill="#161208"/>
<path d="M44.4432 85.8896C44.4024 85.8896 44.3675 85.9244 44.3733 85.965C44.3908 87.3971 44.2627 88.8407 43.9892 90.2438C43.9833 90.2844 44.0066 90.3192 44.0474 90.3308H44.059C44.0939 90.3308 44.123 90.3076 44.1289 90.2728C44.4024 88.8581 44.5305 87.4029 44.513 85.965C44.5188 85.9244 44.4839 85.8896 44.4432 85.8896Z" fill="#161208"/>
<path d="M43.5884 88.6377C43.5476 88.6435 43.5244 88.6841 43.5302 88.7189C43.6117 89.2001 43.6524 89.6871 43.6582 90.1683C43.6582 90.2089 43.6932 90.2379 43.7281 90.2379C43.7688 90.2379 43.7979 90.2031 43.7979 90.1625C43.7921 89.6697 43.7455 89.1769 43.664 88.6899C43.664 88.6609 43.6291 88.6377 43.5884 88.6377Z" fill="#161208"/>
<path d="M45.2649 80.1669C45.2241 80.1611 45.1892 80.1843 45.1776 80.2249C44.9913 81.1177 44.8516 82.028 44.7527 82.9325C44.7469 82.973 44.776 83.0078 44.8167 83.0136H44.8225C44.8575 83.0136 44.8924 82.9846 44.8924 82.9498C44.9913 82.0512 45.131 81.1467 45.3173 80.2597C45.3289 80.2133 45.2998 80.1785 45.2649 80.1669Z" fill="#161208"/>
<path d="M44.7642 80.944C44.7234 80.9324 44.6885 80.9614 44.6769 80.9962C44.5721 81.4368 44.4906 81.8948 44.4382 82.3471C44.4324 82.3877 44.4615 82.4224 44.5023 82.4282H44.5081C44.543 82.4282 44.5779 82.3993 44.5779 82.3645C44.6303 81.918 44.7118 81.4716 44.8166 81.031C44.8282 80.9904 44.8049 80.9498 44.7642 80.944Z" fill="#161208"/>
<path d="M64.0414 94.5575C62.7144 94.8242 61.4223 95.2533 60.2058 95.8388C60.1709 95.8562 60.1535 95.8968 60.1709 95.9374C60.1826 95.9606 60.2117 95.978 60.2349 95.978L60.264 95.9722C61.4747 95.3924 62.7493 94.9634 64.0647 94.7025C64.1055 94.6967 64.1288 94.6561 64.1229 94.6155C64.1171 94.5749 64.088 94.5517 64.0414 94.5575Z" fill="#161208"/>
<path d="M62.7844 95.5253C62.1267 95.6528 61.4632 95.8152 60.823 95.9949C60.7822 96.0065 60.7589 96.0471 60.7706 96.0819C60.7822 96.1167 60.8113 96.1341 60.8404 96.1341H60.8579C61.4981 95.9543 62.1558 95.7978 62.8135 95.6702C62.8543 95.6644 62.8775 95.6239 62.8717 95.5833C62.8601 95.5427 62.8252 95.5195 62.7844 95.5253Z" fill="#161208"/>
<path d="M40.1715 104.721C40.1366 104.698 40.0958 104.704 40.0725 104.738L39.4847 105.527C39.4614 105.562 39.4672 105.602 39.5021 105.625L39.5429 105.637L39.6011 105.608L40.1889 104.82C40.2122 104.791 40.2064 104.744 40.1715 104.721Z" fill="#161208"/>
<path d="M40.0383 105.649C40.0034 105.625 39.9626 105.631 39.9393 105.666C39.8695 105.759 39.7705 105.834 39.66 105.881C39.625 105.898 39.6018 105.939 39.6192 105.973C39.6309 106.002 39.66 106.02 39.6891 106.02L39.7182 106.014C39.852 105.962 39.9743 105.869 40.0616 105.753C40.0732 105.718 40.0674 105.672 40.0383 105.649Z" fill="#161208"/>
<path d="M34.8342 111.614C34.8516 111.58 34.84 111.533 34.8051 111.516C34.7701 111.498 34.7236 111.51 34.7061 111.545C34.4966 111.916 34.3045 112.304 34.1299 112.693C34.1124 112.728 34.1299 112.774 34.1648 112.791L34.1939 112.797C34.223 112.797 34.2463 112.78 34.2579 112.757C34.4384 112.368 34.6304 111.985 34.8342 111.614Z" fill="#161208"/>
<path d="M34.8807 112.38C34.8458 112.357 34.805 112.369 34.7818 112.403C34.5955 112.693 34.4209 113.001 34.2696 113.308C34.2521 113.343 34.2638 113.389 34.3045 113.406L34.3394 113.412C34.3685 113.412 34.3918 113.395 34.4034 113.372C34.5548 113.064 34.7236 112.769 34.9098 112.479C34.9273 112.444 34.9156 112.398 34.8807 112.38Z" fill="#161208"/>
<path d="M46.527 96.633H46.5445C46.5794 96.633 46.6085 96.6098 46.6143 96.5808C46.6958 96.2561 46.8355 95.9546 47.0218 95.6763C47.045 95.6415 47.0334 95.601 47.0043 95.5778C46.9694 95.5546 46.9286 95.5662 46.9054 95.5952C46.7133 95.885 46.5678 96.2039 46.4805 96.546C46.463 96.5866 46.4863 96.6272 46.527 96.633Z" fill="#161208"/>
<path d="M47.1679 96.2959C47.133 96.2785 47.0864 96.2959 47.069 96.3307L46.7197 97.0844C46.7023 97.1192 46.7197 97.1656 46.7547 97.1829L46.7838 97.1887C46.8129 97.1887 46.8361 97.1714 46.8478 97.1482L47.197 96.3944C47.2203 96.3539 47.2028 96.3133 47.1679 96.2959Z" fill="#161208"/>
<path d="M47.0739 101.085C46.812 101.364 46.5791 101.671 46.3813 101.996C46.358 102.03 46.3696 102.077 46.4045 102.094L46.4395 102.106L46.5035 102.071C46.6956 101.752 46.9225 101.457 47.1786 101.184C47.2077 101.155 47.2019 101.109 47.1728 101.08C47.1495 101.051 47.103 101.051 47.0739 101.085Z" fill="#161208"/>
<path d="M47.046 101.74C46.8655 101.92 46.7084 102.117 46.5861 102.338C46.5687 102.372 46.5803 102.419 46.6152 102.436L46.6502 102.448L46.7142 102.413C46.8306 102.204 46.9819 102.013 47.1507 101.845C47.1798 101.816 47.1798 101.769 47.1507 101.74C47.1216 101.712 47.0751 101.712 47.046 101.74Z" fill="#161208"/>
<path d="M56.2601 93.7925C56.039 93.9896 55.8469 94.2157 55.7014 94.4708C55.6839 94.5056 55.6956 94.552 55.7305 94.5694L55.7654 94.581L55.8294 94.5462C55.9691 94.3027 56.1437 94.0882 56.3591 93.9027C56.3882 93.8737 56.394 93.8331 56.3649 93.7983C56.3358 93.7693 56.2892 93.7635 56.2601 93.7925Z" fill="#161208"/>
<path d="M56.1195 94.3489C55.8983 94.5692 55.7062 94.8127 55.5549 95.0852C55.5374 95.12 55.5491 95.1664 55.584 95.1838L55.6189 95.1954L55.6829 95.1606C55.8285 94.8997 56.0089 94.662 56.2242 94.4533C56.2533 94.4243 56.2533 94.3779 56.2242 94.3489C56.1951 94.3199 56.1486 94.3199 56.1195 94.3489Z" fill="#161208"/>
<path d="M50.1821 88.3825C50.1414 88.3709 50.1064 88.3999 50.0948 88.4347L49.862 89.4319C49.8503 89.4725 49.8794 89.5073 49.9144 89.5188H49.9318C49.9667 89.5188 49.9958 89.4957 50.0017 89.4609L50.2345 88.4636C50.2461 88.4347 50.2228 88.3941 50.1821 88.3825Z" fill="#161208"/>
<path d="M50.3874 89.1536C50.3525 89.1304 50.3117 89.1362 50.2885 89.171C50.1779 89.3217 50.1022 89.4956 50.0673 89.6812C50.0615 89.7217 50.0848 89.7565 50.1255 89.7681H50.1371C50.1721 89.7681 50.2012 89.7449 50.207 89.7101C50.2419 89.5478 50.3059 89.3913 50.4049 89.2579C50.4282 89.2231 50.4165 89.1768 50.3874 89.1536Z" fill="#161208"/>
<path d="M51.8708 81.2341C51.8301 81.2283 51.7952 81.2573 51.7893 81.2921C51.7486 81.5588 51.6787 81.8197 51.5856 82.069C51.574 82.1038 51.5914 82.1502 51.6264 82.1618L51.6496 82.1676C51.6787 82.1676 51.7078 82.1502 51.7195 82.1212C51.8184 81.8603 51.8883 81.5878 51.929 81.3153C51.9348 81.2805 51.9116 81.2399 51.8708 81.2341Z" fill="#161208"/>
<path d="M52.1797 81.9351C52.1506 81.9119 52.104 81.9119 52.0749 81.9467C51.941 82.109 51.8363 82.2888 51.7548 82.4801C51.7373 82.5149 51.7548 82.5613 51.7955 82.5729L51.8246 82.5787C51.8537 82.5787 51.877 82.5613 51.8945 82.5323C51.9701 82.3526 52.0691 82.1844 52.1971 82.0337C52.2146 82.0105 52.2146 81.9641 52.1797 81.9351Z" fill="#161208"/>
<path d="M57.1681 87.832C57.2729 87.6117 57.4359 87.4203 57.6338 87.2754C57.6687 87.2522 57.6745 87.2058 57.6512 87.1768C57.6279 87.142 57.5814 87.1362 57.5523 87.1594C57.3369 87.316 57.1623 87.5305 57.0459 87.7682C57.0285 87.803 57.0459 87.8494 57.0808 87.8668L57.1099 87.8726C57.1274 87.8726 57.1565 87.8552 57.1681 87.832Z" fill="#161208"/>
<path d="M57.7075 87.9594C57.6784 87.9304 57.6319 87.9246 57.6028 87.9536C57.4223 88.1102 57.2594 88.2841 57.108 88.4754C57.0847 88.5044 57.0847 88.5508 57.1197 88.5798L57.1662 88.5972L57.2244 88.5682C57.3699 88.3885 57.5329 88.2203 57.7017 88.0638C57.7308 88.0348 57.7366 87.9884 57.7075 87.9594Z" fill="#161208"/>
<path d="M62.1387 101.654L62.2027 101.619L62.6159 100.964C62.6392 100.929 62.6276 100.883 62.5927 100.866C62.5577 100.842 62.5112 100.854 62.4937 100.889L62.0805 101.544C62.0572 101.579 62.0688 101.625 62.1038 101.642L62.1387 101.654Z" fill="#161208"/>
<path d="M62.0737 102.129L62.1145 102.141L62.1785 102.106C62.3298 101.874 62.5161 101.666 62.7373 101.492C62.7664 101.468 62.7722 101.422 62.7489 101.393C62.7256 101.364 62.6791 101.358 62.65 101.381C62.4171 101.561 62.2193 101.782 62.0621 102.031C62.0272 102.066 62.0388 102.106 62.0737 102.129Z" fill="#161208"/>
<path d="M56.3884 110.38C56.3476 110.374 56.3127 110.403 56.3069 110.438C56.2545 110.774 56.2545 111.122 56.3069 111.458C56.3127 111.493 56.3418 111.516 56.3767 111.516H56.3884C56.4291 111.51 56.4524 111.47 56.4466 111.435C56.3942 111.11 56.3942 110.785 56.4466 110.461C56.4582 110.42 56.4291 110.385 56.3884 110.38Z" fill="#161208"/>
<path d="M56.6307 111.029C56.59 111.023 56.5551 111.058 56.5551 111.093L56.5143 111.609C56.5085 111.649 56.5434 111.684 56.5842 111.684H56.59C56.6249 111.684 56.6598 111.655 56.6598 111.615L56.7006 111.099C56.7006 111.07 56.6715 111.035 56.6307 111.029Z" fill="#161208"/>
<path d="M57.7599 122.184C57.7482 122.143 57.7133 122.12 57.6726 122.132C57.6318 122.143 57.6085 122.178 57.6202 122.219C57.69 122.491 57.7832 122.764 57.8996 123.025C57.9112 123.054 57.9403 123.065 57.9636 123.065L57.9927 123.06C58.0276 123.042 58.0451 123.002 58.0276 122.967C57.917 122.712 57.8297 122.451 57.7599 122.184Z" fill="#161208"/>
<path d="M58.2442 122.7C58.2326 122.659 58.1977 122.636 58.1569 122.648C58.1162 122.659 58.0929 122.694 58.1046 122.734L58.1744 123.042C58.1802 123.077 58.2093 123.1 58.2442 123.1H58.2617C58.3025 123.088 58.3257 123.053 58.3199 123.013L58.2442 122.7Z" fill="#161208"/>
<path d="M68.8137 90.6729C68.7846 90.6439 68.7381 90.6439 68.709 90.6671C68.4762 90.8816 68.2666 91.1136 68.0804 91.3687C68.0571 91.4034 68.0629 91.444 68.0978 91.4672L68.1386 91.4788L68.1968 91.4498C68.3772 91.2063 68.5809 90.9744 68.8079 90.7715C68.8428 90.7483 68.8428 90.7019 68.8137 90.6729Z" fill="#161208"/>
<path d="M68.6676 91.3512C68.6385 91.328 68.592 91.3338 68.5687 91.3628L68.2253 91.8093C68.202 91.8382 68.2078 91.8846 68.2369 91.9078L68.2835 91.9252L68.3417 91.8962L68.6851 91.4498C68.7084 91.4208 68.6968 91.3744 68.6676 91.3512Z" fill="#161208"/>
<path d="M65.24 82.8983C64.9723 83.0839 64.7395 83.3332 64.5648 83.6115C64.5416 83.6462 64.5532 83.6926 64.5881 83.71L64.623 83.7216L64.6871 83.6868C64.85 83.4259 65.0654 83.194 65.3215 83.0201C65.3564 82.9969 65.3622 82.9505 65.339 82.9215C65.3157 82.8809 65.2691 82.8751 65.24 82.8983Z" fill="#161208"/>
<path d="M65.1873 83.4484C65.1582 83.4252 65.1117 83.4252 65.0826 83.4542L64.6984 83.8948C64.6752 83.9238 64.6752 83.9702 64.7043 83.9992L64.7508 84.0166L64.8032 83.9934L65.1873 83.5527C65.2223 83.5179 65.2164 83.4774 65.1873 83.4484Z" fill="#161208"/>
<path d="M58.942 79.4245L59.0002 79.4477L59.0468 79.4303L59.46 79.0824C59.4891 79.0592 59.4949 79.0128 59.4717 78.9781C59.4484 78.9491 59.4018 78.9433 59.3669 78.9665L58.9536 79.3143C58.9187 79.3491 58.9187 79.3955 58.942 79.4245Z" fill="#161208"/>
<path d="M59.3961 79.5415L59.1574 79.8198C59.1341 79.8487 59.1341 79.8951 59.1632 79.9241L59.2098 79.9415L59.2622 79.9183L59.5008 79.64C59.5241 79.611 59.5241 79.5646 59.495 79.5357C59.4659 79.5067 59.4193 79.5125 59.3961 79.5415Z" fill="#161208"/>
<path d="M64.2743 73.2791L63.7971 73.6328C63.7621 73.656 63.7563 73.7024 63.7796 73.7314L63.8378 73.7603L63.8785 73.7487L64.3558 73.3951C64.3907 73.3719 64.3966 73.3255 64.3733 73.2965C64.35 73.2617 64.3034 73.2501 64.2743 73.2791Z" fill="#161208"/>
<path d="M64.2435 73.8934C64.0806 73.9803 63.9351 74.0847 63.8128 74.2123C63.7837 74.2412 63.7837 74.2876 63.8128 74.3166L63.8652 74.3398L63.9176 74.3166C64.034 74.2007 64.1679 74.1021 64.3134 74.0209C64.3483 74.0035 64.36 73.9571 64.3425 73.9224C64.325 73.8876 64.2785 73.8702 64.2435 73.8934Z" fill="#161208"/>
<path d="M53.7036 74.8967L53.43 75.1692C53.4009 75.1982 53.4009 75.2446 53.43 75.2736L53.4824 75.2968L53.5348 75.2736L53.8084 75.0011C53.8375 74.9721 53.8375 74.9257 53.8084 74.8967C53.7793 74.8678 53.7327 74.8678 53.7036 74.8967Z" fill="#161208"/>
<path d="M53.6977 75.4767L53.4242 75.755C53.3951 75.7839 53.3951 75.8303 53.4242 75.8593L53.4766 75.8825L53.5289 75.8593L53.8025 75.581C53.8316 75.552 53.8316 75.5056 53.8025 75.4767C53.7734 75.4477 53.7268 75.4535 53.6977 75.4767Z" fill="#161208"/>
<path d="M74.1729 83.0018C74.0042 83.1236 73.8237 83.228 73.6375 83.3149C73.6026 83.3323 73.5851 83.3729 73.6026 83.4135C73.6142 83.4425 73.6433 83.4541 73.6666 83.4541L73.6957 83.4483C73.8936 83.3555 74.0798 83.2511 74.2544 83.1236C74.2894 83.1004 74.2952 83.054 74.2719 83.025C74.2486 82.9845 74.202 82.9787 74.1729 83.0018Z" fill="#161208"/>
<path d="M73.7847 83.9357C73.8138 83.9067 73.8138 83.8603 73.7847 83.8313C73.7556 83.8023 73.709 83.8023 73.6799 83.8313L73.3714 84.1386C73.3423 84.1676 73.3423 84.214 73.3714 84.243L73.4238 84.2661L73.4762 84.243L73.7847 83.9357Z" fill="#161208"/>
<path d="M74.5463 74.7987C74.5288 74.7639 74.4822 74.7523 74.4473 74.7697L73.8711 75.0944C73.8362 75.1118 73.8245 75.1582 73.842 75.193L73.906 75.2277L73.9409 75.2161L74.5172 74.8915C74.5579 74.8799 74.5695 74.8335 74.5463 74.7987Z" fill="#161208"/>
<path d="M73.9367 75.7779C73.9192 75.7432 73.8726 75.7258 73.8377 75.7432L73.116 76.091C73.0811 76.1084 73.0636 76.149 73.0811 76.1896C73.0927 76.2128 73.1218 76.2302 73.1451 76.2302L73.1742 76.2244L73.8959 75.8765C73.9425 75.8591 73.9541 75.8185 73.9367 75.7779Z" fill="#161208"/>
<path d="M81.7355 76.7232C81.7471 76.7521 81.7762 76.7753 81.8053 76.7753H81.8228C82.0556 76.7116 82.2826 76.613 82.4921 76.4912C82.5271 76.4738 82.5387 76.4275 82.5154 76.3927C82.4921 76.3579 82.4514 76.3463 82.4165 76.3695C82.2186 76.4854 82.0032 76.5782 81.7762 76.642C81.7471 76.642 81.7238 76.6826 81.7355 76.7232Z" fill="#161208"/>
<path d="M82.2522 77.0597C82.2406 77.0191 82.1998 77.0017 82.1591 77.0133C81.8099 77.135 81.4781 77.3264 81.1929 77.5641C81.1638 77.5873 81.158 77.6337 81.1871 77.6684L81.2395 77.6916L81.286 77.6742C81.5538 77.4481 81.8681 77.2626 82.1998 77.1524C82.2464 77.1408 82.2697 77.1003 82.2522 77.0597Z" fill="#161208"/>
<path d="M80.9199 83.9064L81.5078 83.4252C81.5369 83.402 81.5427 83.3556 81.5194 83.3208C81.4961 83.2918 81.4496 83.286 81.4146 83.3092L80.8268 83.7904C80.7977 83.8136 80.7919 83.86 80.8151 83.8948L80.8734 83.9238L80.9199 83.9064Z" fill="#161208"/>
<path d="M81.409 84.0454C81.3857 84.0164 81.3392 84.0107 81.3042 84.0338L80.8561 84.4107C80.827 84.4339 80.8212 84.4803 80.8444 84.5151L80.9026 84.5382L80.9492 84.5209L81.3974 84.144C81.4323 84.1208 81.4381 84.0744 81.409 84.0454Z" fill="#161208"/>
<path d="M87.7539 77.2971C87.5502 77.4943 87.3174 77.6624 87.0613 77.7841C87.0264 77.8015 87.0089 77.8479 87.0264 77.8827C87.038 77.9059 87.0671 77.9233 87.0904 77.9233L87.1253 77.9175C87.3931 77.7842 87.6375 77.6102 87.8529 77.4015C87.882 77.3725 87.882 77.3261 87.8529 77.2971C87.8296 77.2681 87.783 77.2681 87.7539 77.2971Z" fill="#161208"/>
<path d="M87.3917 78.2252L86.9377 78.5325C86.9028 78.5557 86.8969 78.6021 86.9202 78.6311L86.9784 78.6601L87.0192 78.6485L87.4732 78.3412C87.5081 78.318 87.5139 78.2716 87.4906 78.2426C87.4673 78.2136 87.4208 78.202 87.3917 78.2252Z" fill="#161208"/>
<path d="M95.1801 62.9824C95.1451 62.965 95.0986 62.9824 95.0869 63.0172C95.0695 63.052 95.0869 63.0984 95.1218 63.11C95.3663 63.2143 95.5817 63.3825 95.7446 63.5854L95.8028 63.6144L95.8494 63.597C95.8785 63.5738 95.8843 63.5274 95.861 63.4926C95.6806 63.2781 95.442 63.0984 95.1801 62.9824Z" fill="#161208"/>
<path d="M95.8211 62.8139C95.792 62.7849 95.7513 62.7791 95.7164 62.8081C95.6873 62.8371 95.6814 62.8777 95.7105 62.9125L96.1703 63.4343L96.2227 63.4575L96.2693 63.4401C96.2984 63.4111 96.3042 63.3705 96.2751 63.3357L95.8211 62.8139Z" fill="#161208"/>
<path d="M99.2832 69.9514L99.3181 69.9398C99.353 69.9224 99.3647 69.876 99.3472 69.8412C99.3181 69.7832 99.3356 69.6499 99.353 69.5281C99.3763 69.3716 99.3938 69.2208 99.3414 69.1281C99.3239 69.0933 99.2774 69.0817 99.2424 69.0991C99.2075 69.1165 99.1959 69.1629 99.2133 69.1977C99.2424 69.2556 99.225 69.389 99.2075 69.5107C99.2017 69.5397 99.2017 69.5687 99.1959 69.5919L98.4683 68.3976C98.445 68.3628 98.4043 68.3512 98.3694 68.3744C98.3345 68.3976 98.3228 68.4381 98.3461 68.4729L99.225 69.9166L99.2832 69.9514Z" fill="#161208"/>
<path d="M93.2421 70.4677C93.2828 70.4619 93.3061 70.4213 93.3003 70.3807C93.1955 69.8647 93.0384 69.3545 92.8289 68.8733C92.8114 68.8385 92.7707 68.8211 92.7357 68.8327C92.7008 68.8501 92.6834 68.8907 92.695 68.9254C92.8987 69.4009 93.0559 69.8995 93.1548 70.4039C93.1606 70.4387 93.1897 70.4619 93.2246 70.4619L93.2421 70.4677Z" fill="#161208"/>
<path d="M91.4726 67.1626L91.5075 67.1568C91.5424 67.1395 91.5599 67.0931 91.5366 67.0583L91.1699 66.3394C91.1524 66.3046 91.1059 66.2872 91.071 66.3104C91.036 66.3278 91.0186 66.3741 91.0419 66.4089L91.4085 67.1279C91.4202 67.151 91.4435 67.1626 91.4726 67.1626Z" fill="#161208"/>
</svg>
