<svg width="150" height="150" viewBox="0 0 150 150" fill="none" xmlns="http://www.w3.org/2000/svg">
<path d="M93.8707 67.3911C94.0011 68.1302 94.3924 68.6955 94.8707 69.0868C95.3055 69.4781 95.8707 69.7389 96.349 69.9129C97.0011 70.1302 97.6533 70.2172 98.3489 70.1302C98.9576 70.0433 100.045 70.0433 101.479 70.4781C103.653 71.0868 102.349 69.8694 102.175 69.652C102.305 69.7389 103.045 70.1737 104.001 70.652C105.653 71.5215 107.914 72.565 108.61 72.3042C109.697 71.9129 108.305 70.0868 108.219 69.9563C108.436 70.1302 111.958 72.652 113.479 72.8694C115.045 73.0868 115.132 72.1737 115.132 72.1737C115.132 72.1737 117.827 74.9998 120.219 74.5215C121.827 74.2172 120.61 66.6955 116.392 61.4781C115.349 60.2172 114.175 59.0868 112.784 58.2172C111.523 57.4346 110.088 56.9129 108.523 56.6955C99.3924 55.5215 94.9576 64.4781 94.0446 66.4781C93.9142 66.7824 93.8272 67.0868 93.8707 67.3911Z" fill="url(#paint0_linear_846_26878)"/>
<path d="M104 70.6526C105.652 71.5221 107.913 72.5656 108.609 72.3047C109.696 71.9134 108.304 70.0873 108.217 69.9569C108.435 70.1308 111.957 72.6526 113.478 72.8699C115.043 73.0873 115.13 72.1743 115.13 72.1743C115.13 72.1743 117.826 75.0004 120.217 74.5221C122.261 74.1308 119.783 62.5221 112.783 58.2178C113.087 58.5221 115.391 60.5656 114.087 61.7395C113.174 62.5221 110.174 60.4352 110.087 60.7395C109.783 61.8699 114.826 66.3482 113.913 67.3047C113.043 68.2178 108.174 64.5221 108.609 65.2613C108.913 65.783 110.13 66.9134 109.87 67.5221C109.348 68.5656 105.696 66.1743 104.913 66.2178C103.696 66.2613 107.522 69.3047 107 70.5221C106.565 71.4352 104 70.6526 104 70.6526Z" fill="url(#paint1_linear_846_26878)"/>
<path d="M94.8691 69.0872C95.3039 69.4785 95.8691 69.7394 96.3474 69.9133C96.9996 70.1307 97.6517 70.2176 98.3474 70.1307C98.9561 70.0437 100.043 70.0437 101.478 70.4785C103.652 71.0872 102.347 69.8698 102.173 69.6524C102.304 69.7394 103.043 70.1742 104 70.6524C105.652 71.522 107.913 72.5655 108.608 72.3046C109.695 71.9133 108.304 70.0872 108.217 69.9568C108.434 70.1307 111.956 72.6524 113.478 72.8698C115.043 73.0872 115.13 72.1742 115.13 72.1742C115.13 72.1742 117.826 75.0003 120.217 74.522C121.826 74.2176 120.608 66.6959 116.391 61.4785C116.478 61.6524 117.956 64.7829 117.478 65.9133C116.956 67.0872 113.608 64.0437 113.434 64.2176C113.26 64.3916 116.217 68.3916 115.26 69.0437C114.304 69.6959 111.478 67.522 111.304 67.9133C111.13 68.3046 112.217 69.609 111.478 69.9133C110.739 70.2176 103.913 66.3046 103.608 66.6524C103.347 67.0003 104.478 67.7394 103.782 68.2176C103.087 68.6959 101.913 67.3916 99.4344 67.3481C98.0431 67.3046 96.3909 68.0437 94.8691 69.0872Z" fill="url(#paint2_linear_846_26878)"/>
<path d="M59.7396 92.6521C59.7396 92.6521 65.3049 99.6521 66.7396 101.826C68.1744 104 67.6527 104.696 67.7831 106.304C67.9136 107.913 69.2614 108.565 69.6527 110.739C70.0005 112.435 71.1744 132.826 70.7831 133.956C70.3918 135.087 68.7831 135.956 66.1744 136.174C63.5657 136.391 59.957 136.087 58.4788 137.13C57.7831 137.609 56.957 139.087 56.957 139.087H70.6527C71.3483 139.087 72.0005 138.609 72.1744 137.956C72.3049 137.522 72.5657 137.043 73.1309 136.783C74.4788 136.174 75.6962 135.87 75.8701 135.217C76.0005 134.565 74.7396 131.956 74.6092 129.739C74.4788 127.522 74.5223 114.478 74.9136 111.609C75.3049 108.739 75.8266 107.217 75.8701 105.043C75.9136 102.87 74.3918 99.3043 73.5657 96.826C72.7396 94.3478 72.3918 90.0869 72.3918 90.0869C72.3918 90.0869 65.6527 90.0869 59.7396 92.6521Z" fill="url(#paint3_linear_846_26878)"/>
<path opacity="0.5" d="M56.957 139.087H70.6527C71.3483 139.087 72.0005 138.609 72.1744 137.956C72.3049 137.522 72.5657 137.043 73.1309 136.783C74.4788 136.174 75.6962 135.87 75.8701 135.217C76.0005 134.565 74.7396 131.956 74.6092 129.739C74.4788 127.522 74.5223 114.478 74.9136 111.609C75.3049 108.739 75.8266 107.217 75.8701 105.043C75.9136 102.87 74.3918 99.3043 73.5657 96.826C72.7396 94.3478 72.3918 90.0869 72.3918 90.0869C72.3918 90.0869 65.6092 90.0869 59.6962 92.6521C59.6962 92.6521 65.2614 99.6521 66.6962 101.826C68.0005 103.783 67.6962 104.565 67.7396 105.826C67.7831 105.565 68.0875 102.609 70.4788 102.739C72.957 102.87 72.9136 107.435 72.7831 109.609C72.6527 111.783 72.1744 115.13 72.6092 120.609C73.0005 126.043 73.2614 132.043 73.3483 133.87C73.3918 135.652 70.957 136.956 69.7396 137.304C68.5223 137.652 65.3049 138.217 63.5657 138.217C61.8266 138.217 57.7831 138.609 57.8266 137.826C57.3483 138.391 56.957 139.087 56.957 139.087Z" fill="url(#paint4_linear_846_26878)"/>
<path opacity="0.5" d="M62.6953 96.4785C63.7823 97.8698 64.9562 99.3915 65.7823 100.565C69.2605 101.348 73.391 100.87 74.9127 100.652C74.4779 99.3046 73.9562 97.9133 73.5649 96.7829C73.3475 96.0872 73.1301 95.2611 72.9997 94.435C71.1736 94.3915 67.5649 94.4785 67.5649 94.4785C67.5649 94.4785 64.5649 95.6959 62.6953 96.4785Z" fill="url(#paint5_linear_846_26878)"/>
<path d="M34.6519 24.1739C34.6519 24.1739 35.3041 24.7826 36.4345 25.3044C37.8258 25.9565 38.8258 27.2174 39.0867 28.7391C39.2606 29.7826 39.2606 31 38.9997 32.4348C37.8258 39.7826 31.9562 49.4348 31.0867 60.3913C30.3041 70.7826 37.5215 75.6522 37.5215 75.6522C37.5215 75.6522 43.6954 74 43.6954 69.087C43.6954 69.087 39.0432 66.087 38.6519 60.5652C38.2606 55.0435 41.6084 43.6087 43.7389 35.6957C45.8693 27.7391 46.1302 21.0435 43.2606 17.3913C41.1736 14.7391 36.3041 14.4348 33.8693 17C31.9128 19.087 32.6519 22.5652 34.6519 24.1739Z" fill="url(#paint6_linear_846_26878)"/>
<path opacity="0.2" d="M37.5215 75.6952C37.5215 75.6952 43.6954 74.043 43.6954 69.13C43.6954 69.13 39.0432 66.13 38.6519 60.6083C38.5649 59.3909 38.6519 57.9126 38.8693 56.217C37.4345 58.4344 34.391 57.3909 34.5215 54.3909C34.6519 51.3909 35.6519 47.8257 38.6954 39.1735C41.9997 29.6952 40.0867 26.5213 40.1736 25.9996C40.2606 25.5213 41.4345 25.3039 41.2171 25.13C41.2171 25.13 39.2171 25.3909 38.2606 24.7822C37.3041 24.1735 37.478 23.217 36.7823 22.6952C36.1302 22.13 34.9562 21.8691 34.9562 21.8691L33.0867 22.3039C33.4345 23.0865 33.9128 23.7822 34.5215 24.2604C34.5215 24.2604 35.1736 24.8691 36.3041 25.3909C37.6954 26.0431 38.6954 27.3039 38.9562 28.8257C39.1302 29.8691 39.1302 31.0865 38.8693 32.5213C37.8258 39.7822 31.9562 49.4344 31.0867 60.3909C30.3041 70.7822 37.5215 75.6952 37.5215 75.6952Z" fill="url(#paint7_linear_846_26878)"/>
<path d="M33.045 68.4343C33.3059 68.6082 36.2189 71.6517 35.3928 69.7821C34.5668 67.9126 34.1754 65.3039 34.9581 66.1734C35.8711 67.2169 37.7407 69.9561 38.2624 69.6952C38.7407 69.4343 36.8711 65.9995 37.7841 66.2604C38.0015 66.3039 39.2624 68.4343 39.8711 68.2604C40.5233 68.0865 39.5668 64.2604 39.6537 64.13C39.7407 64.043 41.0885 66.4778 42.2624 67.043C43.4363 67.6517 44.6972 66.8256 44.6972 66.8256C46.132 65.8256 48.3494 64.4343 51.132 63.043C51.132 63.043 59.1754 58.7387 61.6102 57.9126C64.045 57.043 62.9146 58.8256 62.9146 58.8256C62.9146 58.8256 68.9581 56.9561 71.7407 56.9561C74.5233 56.9561 73.5667 57.6952 73.5667 57.6952C73.5667 57.6952 78.3494 57.9561 79.9146 58.3039C81.4798 58.6517 80.6102 59.3474 80.6102 59.3474C91.9146 62.8691 100.915 72.043 102.088 74.8691C103.436 78.2169 100.262 79.0865 95.2624 83.4778C90.2624 87.8691 88.3494 93.7821 79.0885 97.9995C73.0885 100.739 60.1754 101.478 48.8276 94.5213C41.7407 90.2604 39.132 84.043 38.132 79.9126C37.9146 79.043 36.3928 76.3908 35.4363 74.6082C34.6102 73.0865 33.7841 72.043 33.3059 70.8256C32.6102 68.9995 32.7407 68.3039 33.045 68.4343Z" fill="url(#paint8_linear_846_26878)"/>
<path d="M35.2188 74.1738C35.3057 74.3042 35.3927 74.4781 35.4361 74.6086C36.3927 76.3912 37.9144 79.0434 38.1318 79.9129C39.1318 84.0434 41.7405 90.2607 48.784 94.5651C60.1318 101.522 73.0448 100.782 79.0448 98.0433C88.3057 93.826 90.2188 87.9129 95.2188 83.5216C99.1753 80.0434 102.001 78.739 102.306 76.6955C101.001 75.4781 100.001 74.5651 100.001 74.5651L79.0448 71.9999L64.1753 69.2607L56.8709 70.3042C56.8709 70.3042 57.1753 71.9564 58.3492 74.1738C59.5231 76.3912 59.0883 78.3477 61.7405 79.7825C62.9144 80.4347 62.3057 81.2607 65.1318 82.9999C67.9144 84.6955 69.6101 85.2607 72.3057 85.1738C74.0448 85.1303 75.5231 86.1303 75.0883 87.3912C74.5666 89.0868 71.1318 89.9129 67.0014 89.6086C62.8709 89.3042 58.3492 85.7825 57.8274 85.739C57.3057 85.6955 60.4361 88.8694 60.2188 89.1303C60.0014 89.3912 56.784 90.0868 52.8274 88.0868C48.8709 86.0868 46.6535 81.7825 46.2622 82.3042C45.8709 82.7825 49.1753 86.5216 48.6101 86.826C48.0448 87.1303 44.6101 84.9564 42.3057 82.5651C40.0014 80.1738 39.9579 78.8694 39.0883 77.739C38.2188 76.6955 35.9579 75.4347 35.2188 74.1738Z" fill="url(#paint9_linear_846_26878)"/>
<path d="M65.6523 139.087H76.5654C77.435 139.087 78.1741 138.478 78.3915 137.652C78.5219 137.13 78.7393 136.565 79.1306 136.304C80.0871 135.609 80.6523 135.478 80.6523 135.087C80.6523 134.696 79.8697 131.652 79.6523 128.565C79.3915 124.913 79.1741 114.261 80.1741 111.043C81.1741 107.826 81.7828 106.609 80.6089 103.435C79.435 100.261 80.5219 94.652 81.261 92.0433C82.0002 89.4347 82.3045 87.2607 82.3045 85.2607C82.3045 85.2607 81.6958 86.6955 80.0871 87.4781C80.0002 89.1738 78.3045 89.6955 76.9132 89.3477C76.435 91.4347 73.9132 91.1738 72.261 90.6955C72.261 90.6955 72.348 91.3477 73.5219 96.4347C74.5219 100.739 74.8263 102 74.6958 103.043C74.6958 103.217 74.6523 103.435 74.6089 103.609C74.3045 104.869 74.1741 105.435 74.4784 107.826C74.7828 110.174 75.6523 110.956 75.7393 113.261C75.8263 115.565 75.6523 132.348 75.3915 133.913C75.1306 135.478 72.0436 136.174 70.3915 136.522C68.7393 136.869 68.3915 136.913 67.2176 137.261C67.0002 137.348 66.7828 137.435 66.6089 137.565C65.9132 138.13 65.6523 139.087 65.6523 139.087Z" fill="url(#paint10_linear_846_26878)"/>
<path opacity="0.3" d="M65.6523 139.087H76.5654C77.435 139.087 78.1741 138.479 78.3915 137.653C78.5219 137.131 78.7393 136.566 79.1306 136.305C80.0871 135.609 80.6523 135.479 80.6523 135.087C80.6523 134.696 79.8697 131.653 79.6523 128.566C79.3915 124.913 79.1741 114.261 80.1741 111.044C81.1741 107.826 81.7828 106.609 80.6089 103.435C79.435 100.261 80.5219 94.6526 81.261 92.0439C81.6958 90.5221 82.0002 89.1308 82.1306 87.8265C82.261 86.9134 82.3045 86.0439 82.3045 85.2178C82.3045 85.2178 81.6958 86.6526 80.0871 87.4352C80.0002 89.1308 78.3045 89.6526 76.9132 89.3047C76.435 91.3917 73.9132 91.1308 72.261 90.6526C72.261 90.6526 72.261 90.7395 72.348 91.1308C72.4784 91.7395 72.7828 93.2178 73.5219 96.4352C74.5219 100.74 74.8263 102 74.6958 103.044C74.6958 103.044 75.0002 100.479 77.3045 101.348C78.8263 101.913 79.435 105 78.8263 108.174C78.2176 111.392 77.5654 115.348 77.6523 120.653C77.6958 125.957 78.3915 131.653 78.6089 133.131C78.8697 134.566 77.261 135.087 76.6089 136.653C75.9567 138.218 68.3915 138.348 67.4784 138.261C66.5219 138.174 66.4784 137.783 66.6089 137.609C65.9132 138.131 65.6523 139.087 65.6523 139.087Z" fill="url(#paint11_linear_846_26878)"/>
<path opacity="0.5" d="M72.2617 90.652C72.2617 90.652 72.2617 90.739 72.3487 91.1303C72.8269 91.3477 74.1748 91.8694 75.5661 91.5651C77.3052 91.1303 77.4356 90.1303 77.4356 90.1303C77.4356 90.1303 78.6095 90.5651 79.4791 90.1303C80.3487 89.6955 80.5661 88.739 80.7835 88.6086C80.9139 88.5216 81.6095 88.1738 82.1313 87.8694C82.2617 86.9564 82.3052 86.0868 82.3052 85.2607C82.3052 85.2607 81.6965 86.6955 80.0878 87.4781C80.0008 89.1738 78.3052 89.6955 76.9139 89.3477C76.4356 91.3912 73.9139 91.1303 72.2617 90.652Z" fill="url(#paint12_linear_846_26878)"/>
<path d="M58.3915 72.8264C60.1306 74.9134 59.2176 78.2612 65.5654 81.0004C69.4785 82.696 69.348 81.0004 69.348 81.0004C69.348 81.0004 73.0872 83.9134 75.4785 84.3917C77.8698 84.8265 77.7828 83.5656 77.7828 83.5656C77.7828 83.5656 77.7828 83.5656 77.8263 83.6091C77.8698 83.6525 78.0002 83.8264 78.1741 84.0438C78.2176 84.0873 78.2176 84.0873 78.2611 84.1308C79.0002 84.9569 80.6958 86.5656 83.348 87.3047C87.0437 88.3482 87.3915 85.9134 87.3915 85.9134C87.3915 85.9134 90.0872 88.5656 95.2176 88.5656C97.6959 88.5656 96.6524 86.1308 96.6089 86.0004C96.7393 86.1308 98.9567 87.8265 99.6089 87.8699C100.218 87.9569 101.565 82.4351 97.2611 78.0873C97.2611 78.0873 97.2611 78.0873 97.2611 78.0438C97.4785 77.5221 97.0002 72.7395 92.4785 68.2612C90.8698 66.696 88.8263 65.1308 86.0872 63.8264C73.2176 57.5656 49.4785 61.8699 58.3915 72.8264Z" fill="url(#paint13_linear_846_26878)"/>
<path d="M77.8268 83.5221C77.8268 83.5656 77.8702 83.5656 77.8268 83.5221C77.9137 83.6526 78.0441 83.783 78.2181 84.0004C78.2615 84.0439 78.2615 84.0439 78.305 84.0873C79.0441 84.9134 80.7398 86.5221 83.392 87.2612C87.0876 88.3047 87.4355 85.8699 87.4355 85.8699C87.4355 85.8699 90.1311 88.5221 95.2615 88.5221C97.7398 88.5221 96.6963 86.0873 96.6528 85.9569C96.7833 86.0873 99.0007 87.783 99.6528 87.8265C100.262 87.9134 101.609 82.3917 97.305 78.0439C97.305 78.0439 97.305 78.0439 97.305 78.0004C97.5224 77.4786 97.0441 72.696 92.5224 68.2178C92.5224 68.2178 94.8702 72.0004 93.8268 72.9134C92.7833 73.8265 90.9572 72.0004 90.7833 72.3482C90.6094 72.696 92.9572 76.2612 91.5659 76.696C90.1746 77.1308 85.4354 73.5656 85.2181 73.8699C84.9572 74.1743 89.2615 79.0873 88.0007 79.696C86.7833 80.3047 84.6094 79.0004 84.4789 78.9134C84.5659 79.0439 87.1311 82.1743 86.2181 82.783C84.6963 83.783 80.8268 80.0004 80.6528 80.2178C80.5659 80.3482 82.5659 82.3047 81.392 82.9569C80.1746 83.6091 77.392 80.5221 77.0441 80.7395C76.7398 80.9134 76.9572 82.5221 77.8268 83.5221Z" fill="url(#paint14_linear_846_26878)"/>
<path d="M28.957 24.5649C33.2613 24.9562 37.3048 22.7388 35.5222 21.9997C34.4352 21.5649 34.0004 21.1736 33.7396 20.7823C33.6091 20.5214 33.5657 20.2606 33.4787 19.9562C33.3483 19.1736 32.7396 19.3041 32.7396 19.3041C32.1744 19.3041 31.87 20.6954 31.3048 21.1736C30.0874 22.3041 29.0439 22.478 28.2178 22.6519C27.8265 22.7388 27.3483 22.9127 26.957 23.1736C26.2178 23.6519 26.0439 24.3041 28.957 24.5649Z" fill="url(#paint15_linear_846_26878)"/>
<path d="M38.74 18.522C38.6096 18.0003 37.9139 17.5655 36.653 17.7829C35.4356 18.0003 34.5226 18.6524 34.653 18.7829C34.7835 18.9133 35.2183 18.7394 35.4356 18.7394C35.4791 18.9133 35.7835 19.6959 36.827 19.9133C37.5661 20.1307 38.9574 19.3916 38.74 18.522Z" fill="url(#paint16_linear_846_26878)"/>
<path d="M36.1751 18.1308C36.3925 18.0003 36.9142 17.8699 37.2186 18.0003C37.5229 18.1308 37.0881 18.609 36.5229 18.696C36.0012 18.7829 35.8273 18.3047 36.1751 18.1308Z" fill="url(#paint17_linear_846_26878)"/>
<path d="M30.8258 21.9125C30.8258 21.9125 30.9997 21.8256 31.4345 21.5212C31.9127 21.2169 32.0431 21.3038 31.9562 21.5212C31.8692 21.7386 30.9997 22.1299 30.7388 22.1734C30.5214 22.1734 30.5649 22.043 30.8258 21.9125Z" fill="url(#paint18_linear_846_26878)"/>
<path opacity="0.3" d="M28.9575 24.5648C33.2619 24.9561 37.3054 22.7387 35.5227 21.9996C34.4358 21.5648 34.001 21.1735 33.7401 20.7822C33.7836 20.9127 34.088 22.0866 33.1749 22.6953C31.6967 23.6083 30.088 23.9127 28.6097 23.9127C27.1314 23.9127 26.7836 23.5648 27.001 23.217C26.2184 23.6518 26.0445 24.304 28.9575 24.5648Z" fill="url(#paint19_linear_846_26878)"/>
<path d="M58.3924 72.826C60.1316 74.913 59.2185 78.2608 65.5663 80.9999C69.4794 82.6956 69.3489 80.9999 69.3489 80.9999C69.3489 80.9999 73.0881 83.913 75.4794 84.3912C77.8707 84.826 77.7837 83.5651 77.7837 83.5651C77.7837 83.5651 77.7837 83.5651 77.8272 83.6086C77.8707 83.6521 78.0011 83.826 78.175 84.0434C78.2185 84.0869 78.2185 84.0869 78.262 84.1303C79.0011 84.9564 80.6968 86.5651 83.3489 87.3043C87.0446 88.3477 87.3924 85.913 87.3924 85.913C87.3924 85.913 90.0881 88.5651 95.2185 88.5651C97.6968 88.5651 96.6533 86.1304 96.6098 85.9999C96.7402 86.1304 98.9576 87.826 99.6098 87.8695C100.219 87.9564 101.566 82.4347 97.262 78.0869C97.262 78.0869 97.262 78.0869 97.262 78.0434C97.3489 77.826 97.3489 76.826 96.9142 75.4347C96.9142 75.4347 97.262 79.1738 95.5229 80.0434C93.7837 80.913 90.3924 78.0434 90.1316 78.2173C89.8707 78.3912 92.262 81.3043 91.9142 81.826C91.5663 82.3912 85.3055 81.0869 81.6533 78.6086C78.0446 76.1304 76.262 74.0869 76.0881 74.1303C75.9142 74.1738 79.3489 79.0869 75.6533 79.0869C71.9142 79.0869 68.0881 73.9999 67.7403 74.1303C67.4359 74.2608 69.7837 76.9564 69.0446 77.3477C68.3055 77.739 63.7403 75.5651 61.6968 72.8695C59.6533 70.1304 60.1316 68.739 59.0881 67.9999C58.0446 67.2608 57.262 66.3477 57.5663 65.1738C55.9576 67.1738 55.8707 69.739 58.3924 72.826Z" fill="url(#paint20_linear_846_26878)"/>
<path opacity="0.5" d="M41.4355 16.1307C42.0442 16.4351 43.2615 17.4785 43.4789 18.3481C43.8702 19.9568 42.2181 20.9133 41.2615 19.9568C40.2615 18.9568 39.7398 18.0437 38.0876 17.3481C36.6094 16.6959 38.305 14.522 41.4355 16.1307Z" fill="url(#paint21_linear_846_26878)"/>
<path d="M67.1309 139.087C67.1309 139.087 67.9569 137.696 68.6091 137.478C69.2613 137.261 70.0004 137.174 70.0004 137.174C70.0004 137.174 69.0439 137.478 68.6526 137.739C68.2613 138 67.6961 139.13 67.6961 139.13L67.1309 139.087Z" fill="url(#paint22_linear_846_26878)"/>
<path d="M58.0879 139.087C58.0879 139.087 58.914 137.696 59.5662 137.478C60.2183 137.261 60.9575 137.174 60.9575 137.174C60.9575 137.174 60.0009 137.478 59.6096 137.739C59.2183 138 58.6531 139.13 58.6531 139.13L58.0879 139.087Z" fill="url(#paint23_linear_846_26878)"/>
<defs>
<linearGradient id="paint0_linear_846_26878" x1="76.4051" y1="76.767" x2="111.323" y2="65.9837" gradientUnits="userSpaceOnUse">
<stop stop-color="#211C1B"/>
<stop offset="1" stop-color="#3D4041"/>
</linearGradient>
<linearGradient id="paint1_linear_846_26878" x1="106.398" y1="61.9604" x2="119.201" y2="75.8175" gradientUnits="userSpaceOnUse">
<stop stop-color="#FFF0F0"/>
<stop offset="1" stop-color="#FFE1A4"/>
</linearGradient>
<linearGradient id="paint2_linear_846_26878" x1="94.5542" y1="67.2819" x2="113.185" y2="67.8868" gradientUnits="userSpaceOnUse">
<stop stop-color="#A4A49C"/>
<stop offset="0.5134" stop-color="#D5C5A0"/>
<stop offset="1" stop-color="#FFE1A4"/>
</linearGradient>
<linearGradient id="paint3_linear_846_26878" x1="66.4245" y1="95.4868" x2="66.4245" y2="130.335" gradientUnits="userSpaceOnUse">
<stop stop-color="#D7B4B0"/>
<stop offset="1" stop-color="#B89293"/>
</linearGradient>
<linearGradient id="paint4_linear_846_26878" x1="56.4849" y1="109.67" x2="80.6606" y2="124.104" gradientUnits="userSpaceOnUse">
<stop stop-color="#D7B4B0"/>
<stop offset="1" stop-color="#B89293"/>
</linearGradient>
<linearGradient id="paint5_linear_846_26878" x1="65.8218" y1="95.3424" x2="74.3839" y2="100.454" gradientUnits="userSpaceOnUse">
<stop stop-color="#D7B4B0"/>
<stop offset="1" stop-color="#B89293"/>
</linearGradient>
<linearGradient id="paint6_linear_846_26878" x1="38.2008" y1="14.1287" x2="38.2008" y2="76.4568" gradientUnits="userSpaceOnUse">
<stop stop-color="#D7B4B0"/>
<stop offset="1" stop-color="#B89293"/>
</linearGradient>
<linearGradient id="paint7_linear_846_26878" x1="58.0661" y1="31.1557" x2="30.0181" y2="53.8" gradientUnits="userSpaceOnUse">
<stop stop-color="#D7B4B0"/>
<stop offset="1" stop-color="#B89293"/>
</linearGradient>
<linearGradient id="paint8_linear_846_26878" x1="102.351" y1="78.5357" x2="32.7993" y2="78.5357" gradientUnits="userSpaceOnUse">
<stop stop-color="#211C1B"/>
<stop offset="1" stop-color="#3D4041"/>
</linearGradient>
<linearGradient id="paint9_linear_846_26878" x1="68.7627" y1="105.345" x2="68.7627" y2="71.0467" gradientUnits="userSpaceOnUse">
<stop stop-color="#211C1B" stop-opacity="0"/>
<stop offset="1" stop-color="#3D4041"/>
</linearGradient>
<linearGradient id="paint10_linear_846_26878" x1="82.275" y1="112.141" x2="65.6437" y2="112.141" gradientUnits="userSpaceOnUse">
<stop stop-color="#D7B4B0"/>
<stop offset="1" stop-color="#B89293"/>
</linearGradient>
<linearGradient id="paint11_linear_846_26878" x1="67.5163" y1="108.295" x2="87.8246" y2="120.419" gradientUnits="userSpaceOnUse">
<stop stop-color="#D7B4B0"/>
<stop offset="1" stop-color="#B89293"/>
</linearGradient>
<linearGradient id="paint12_linear_846_26878" x1="75.6677" y1="87.1814" x2="80.4119" y2="90.0137" gradientUnits="userSpaceOnUse">
<stop stop-color="#D7B4B0"/>
<stop offset="1" stop-color="#B89293"/>
</linearGradient>
<linearGradient id="paint13_linear_846_26878" x1="103.586" y1="93.8919" x2="67.6569" y2="65.9471" gradientUnits="userSpaceOnUse">
<stop stop-color="#211C1B"/>
<stop offset="1" stop-color="#3D4041"/>
</linearGradient>
<linearGradient id="paint14_linear_846_26878" x1="82.5902" y1="73.076" x2="98.0147" y2="89.7708" gradientUnits="userSpaceOnUse">
<stop stop-color="#FFF0F0"/>
<stop offset="1" stop-color="#FFE1A4"/>
</linearGradient>
<linearGradient id="paint15_linear_846_26878" x1="35.9633" y1="21.9414" x2="26.5222" y2="21.9414" gradientUnits="userSpaceOnUse">
<stop stop-color="#FF8229"/>
<stop offset="1" stop-color="#FDBD24"/>
</linearGradient>
<linearGradient id="paint16_linear_846_26878" x1="36.6957" y1="20.0416" x2="36.6957" y2="17.8479" gradientUnits="userSpaceOnUse">
<stop stop-color="#272725"/>
<stop offset="1" stop-color="#513325"/>
</linearGradient>
<linearGradient id="paint17_linear_846_26878" x1="36.6521" y1="18.7077" x2="36.6521" y2="17.981" gradientUnits="userSpaceOnUse">
<stop stop-color="#FAF7E6"/>
<stop offset="1" stop-color="#FBF0B2"/>
</linearGradient>
<linearGradient id="paint18_linear_846_26878" x1="32.2412" y1="21.0437" x2="31.005" y2="22.0418" gradientUnits="userSpaceOnUse">
<stop stop-color="#FF8229"/>
<stop offset="1" stop-color="#844724"/>
</linearGradient>
<linearGradient id="paint19_linear_846_26878" x1="36.1969" y1="19.1608" x2="29.5813" y2="24.5018" gradientUnits="userSpaceOnUse">
<stop stop-color="#FF8229"/>
<stop offset="1" stop-color="#FDBD24"/>
</linearGradient>
<linearGradient id="paint20_linear_846_26878" x1="64.8894" y1="68.4894" x2="97.3112" y2="87.8457" gradientUnits="userSpaceOnUse">
<stop stop-color="#A4A49C"/>
<stop offset="0.2161" stop-color="#A8A79C"/>
<stop offset="0.4238" stop-color="#B3AE9D"/>
<stop offset="0.6281" stop-color="#C7BB9F"/>
<stop offset="0.829" stop-color="#E2CDA1"/>
<stop offset="1" stop-color="#FFE1A4"/>
</linearGradient>
<linearGradient id="paint21_linear_846_26878" x1="39.4845" y1="18.8903" x2="41.8559" y2="16.6918" gradientUnits="userSpaceOnUse">
<stop stop-color="#EEDFD5" stop-opacity="0"/>
<stop offset="1" stop-color="#FFDAC1"/>
</linearGradient>
<linearGradient id="paint22_linear_846_26878" x1="67.1169" y1="138.063" x2="69.1104" y2="138.127" gradientUnits="userSpaceOnUse">
<stop stop-color="#D7B4B0"/>
<stop offset="1" stop-color="#B89293"/>
</linearGradient>
<linearGradient id="paint23_linear_846_26878" x1="58.0668" y1="138.063" x2="60.0604" y2="138.127" gradientUnits="userSpaceOnUse">
<stop stop-color="#D7B4B0"/>
<stop offset="1" stop-color="#B89293"/>
</linearGradient>
</defs>
</svg>
