<svg width="150" height="150" viewBox="0 0 150 150" fill="none" xmlns="http://www.w3.org/2000/svg">
<path opacity="0.8" d="M91.3975 33.3105C91.3975 33.3105 104.329 33.6209 108.001 53.4312C111.673 73.2416 132.725 101.276 120.104 121.707C107.484 142.138 57.932 133.035 54.932 127.397C50.2768 118.604 35.9492 92.4312 35.9492 92.4312C35.9492 92.4312 36.2596 81.414 41.2251 65.6899C43.3458 58.8623 43.3458 47.3795 50.9492 38.7416L91.3975 33.3105Z" fill="white"/>
<path d="M91.3962 33.3105L50.9479 38.6899C43.3445 47.3278 43.3962 58.8105 41.2238 65.6381C40.0859 69.2588 39.2066 72.6209 38.4824 75.6726L53.2238 82.2416C53.2238 82.2416 51.7238 70.0864 72.6203 67.914C98.8962 65.2243 116.327 77.483 116.327 77.483C112.862 68.8968 109.241 60.6209 107.948 53.4312C104.327 33.6209 91.3962 33.3105 91.3962 33.3105Z" fill="#263238"/>
<path d="M56.9999 21.6727C56.9999 25.9658 54.2585 29.3796 50.8964 29.3796C47.5343 29.3796 44.793 25.9141 44.793 21.6727C44.8447 17.4313 48.4137 13.9658 51.7757 13.9658C55.1378 13.9658 56.9999 17.4313 56.9999 21.6727Z" fill="#263238"/>
<path d="M86.7402 21.6727C86.7402 25.9658 89.4816 29.3796 92.8437 29.3796C96.2058 29.3796 98.9471 25.9141 98.9471 21.6727C98.9471 17.3796 95.3782 13.9658 92.0161 13.9658C88.6023 13.9658 86.7402 17.4313 86.7402 21.6727Z" fill="#263238"/>
<path d="M95.1206 32.6378C94.1895 23.6895 84.724 16.293 71.8964 16.293C59.0688 16.293 49.6033 23.6378 48.6723 32.6378C48.3102 36.0516 46.293 42.6206 45.9309 46.0343C44.6895 56.0171 57.5171 64.293 71.8964 64.293C86.2757 64.293 98.8964 56.0688 97.8619 46.0343C97.5516 42.6206 95.4826 36.0516 95.1206 32.6378Z" fill="white"/>
<path opacity="0.8" d="M95.1206 32.6378C94.1895 23.6895 84.724 16.293 71.8964 16.293C59.0688 16.293 49.6033 23.6378 48.6723 32.6378C48.3102 36.0516 46.293 42.6206 45.9309 46.0343C44.6895 56.0171 57.5171 64.293 71.8964 64.293C86.2757 64.293 98.8964 56.0688 97.8619 46.0343C97.5516 42.6206 95.4826 36.0516 95.1206 32.6378Z" fill="white"/>
<path d="M62.8957 38.6382C65.4819 40.4485 64.6543 45.7244 62.9474 48.2071C61.1888 50.6899 57.6715 51.2071 55.0853 49.3968C52.4991 47.5865 55.0853 44.3796 56.844 41.8968C58.5509 39.3623 60.3095 36.7761 62.8957 38.6382Z" fill="#263238"/>
<path d="M80.8948 38.6382C78.3086 40.4485 79.1362 45.7244 80.8431 48.2071C82.6017 50.6899 86.1189 51.2071 88.7051 49.3968C91.2913 47.5865 88.7051 44.3796 86.9465 41.8968C85.1879 39.3623 83.4293 36.7761 80.8948 38.6382Z" fill="#263238"/>
<path d="M68.4824 62.2247C68.4824 62.2247 70.3445 62.6902 71.8445 60.8799C71.8445 60.8799 73.1893 62.5868 75.4135 62.2764C75.4652 62.2764 72.1031 66.0006 68.4824 62.2247Z" fill="#407BFF"/>
<path opacity="0.8" d="M68.4824 62.2247C68.4824 62.2247 70.3445 62.6902 71.8445 60.8799C71.8445 60.8799 73.1893 62.5868 75.4135 62.2764C75.4652 62.2764 72.1031 66.0006 68.4824 62.2247Z" fill="#B72339"/>
<path d="M77.5857 60.7752C76.0857 61.9649 73.2409 62.3787 72.4133 60.62C72.2582 60.258 72.4133 59.0166 72.4133 59.0166H71.3788C71.3788 59.0166 71.534 60.258 71.3788 60.62C70.603 62.4304 67.7064 62.0166 66.2064 60.7752C65.9995 60.6201 65.6892 60.62 65.534 60.8269C65.3271 61.0338 65.3271 61.3959 65.5857 61.6028C66.5168 62.3269 67.603 62.689 68.7409 62.689C69.8788 62.689 71.0168 62.3269 71.9478 61.5511C73.7581 63.0511 76.4478 63.0511 78.3099 61.6028C78.5685 61.3959 78.5685 61.0338 78.3616 60.8269C78.103 60.62 77.7926 60.6201 77.5857 60.7752Z" fill="#263238"/>
<g opacity="0.1">
<path d="M61.2926 54.2071L61.1892 54.1037C60.2582 55.9657 58.4995 58.1899 55.5513 58.1899C50.8444 58.1899 47.7926 53.6381 47.2754 52.8105C50.8444 59.3278 60.5168 64.0347 71.1202 64.2933C60.465 63.983 60.4133 57.9312 61.2926 54.2071Z" fill="black"/>
</g>
<g opacity="0.1">
<path d="M82.4995 54.2071L82.6029 54.1037C83.5339 55.9657 85.2926 58.1899 88.2408 58.1899C92.9477 58.1899 95.9995 53.6381 96.5167 52.8105C92.9477 59.3278 83.327 64.0864 72.6719 64.2933C83.2753 63.983 83.327 57.9312 82.4995 54.2071Z" fill="black"/>
</g>
<g opacity="0.8">
<path d="M62.9479 45.258C62.8961 44.5856 62.4823 44.0684 62.0168 44.0684C61.5513 44.0684 61.2927 44.6373 61.3444 45.3097C61.3961 45.9822 61.8099 46.5511 62.2755 46.4994C62.6892 46.4477 63.0513 45.9304 62.9479 45.258Z" fill="white"/>
<path d="M62.2237 42.3618C62.4306 42.3101 62.5341 42.1549 62.4823 41.948C62.4306 41.7411 62.2237 41.6377 62.0685 41.6377C61.4479 41.7411 60.9306 42.0515 60.5168 42.4136C60.1548 42.7756 59.8444 43.1894 59.6892 43.7067C59.6375 43.9136 59.741 44.1205 59.8961 44.1722C59.9479 44.1722 60.0513 44.1722 60.103 44.1722C60.1548 44.1722 60.2582 44.1205 60.3099 44.1205C60.3616 44.0687 60.3617 44.0687 60.4134 44.017C60.672 43.1377 61.3444 42.517 62.2237 42.3618Z" fill="white"/>
</g>
<path d="M81.0003 45.258C81.052 44.5856 81.4658 44.0684 81.9313 44.0684C82.3968 44.0684 82.6554 44.6373 82.6037 45.3097C82.552 45.9822 82.1382 46.5511 81.6727 46.4994C81.2589 46.4477 80.8968 45.9304 81.0003 45.258Z" fill="white"/>
<path d="M81.7249 42.3618C81.518 42.3101 81.4146 42.1549 81.4663 41.948C81.518 41.7411 81.7249 41.6377 81.8801 41.6377C82.5008 41.7411 83.018 42.0515 83.4318 42.4136C83.7939 42.7756 84.1042 43.1894 84.2594 43.7067C84.3111 43.9136 84.2077 44.1205 84.0525 44.1722C84.0008 44.1722 83.8973 44.1722 83.8456 44.1722C83.7939 44.1722 83.6904 44.1205 83.6387 44.1205C83.587 44.0687 83.587 44.0687 83.5353 44.017C83.3284 43.1377 82.6042 42.517 81.7249 42.3618Z" fill="white"/>
<path d="M77.639 56.4312C77.639 57.4657 75.0528 59.5863 71.8976 59.5863C68.7425 59.5863 66.1562 57.4657 66.1562 56.4312C66.1562 55.3967 68.7425 56.6381 71.8976 56.6381C75.0528 56.6381 77.639 55.3967 77.639 56.4312Z" fill="#263238"/>
<path d="M37.2929 90.6211C37.2929 90.6211 25.7584 92.8452 29.6894 108.052C29.6894 108.052 25.6032 107.069 24.3619 111.828C24.3619 111.828 20.2757 112.5 21.155 117.052C21.155 117.052 19.8101 118.707 21.0515 121.345C21.0515 121.345 19.7584 122.742 23.9998 125.431L28.3446 126.828C28.3446 126.828 33.4136 130.604 44.4825 130.604C55.5515 130.604 58.7067 130.294 53.7412 122.328C42.3101 104.069 37.2929 90.6211 37.2929 90.6211Z" fill="#263238"/>
<path d="M30.5185 112.656L30.3633 110.638C30.3633 110.38 30.5185 110.173 30.7771 110.173H31.0357C31.2943 110.173 31.5012 110.38 31.5012 110.638L31.3978 112.707C31.3978 112.914 31.1909 113.121 30.984 113.121C30.7253 113.069 30.5185 112.863 30.5185 112.656Z" fill="#263238"/>
<path d="M24.8798 114.414L24.7246 112.397C24.7246 112.139 24.8798 111.932 25.1384 111.932H25.397C25.6556 111.932 25.8625 112.139 25.8625 112.397L25.7591 114.466C25.7591 114.673 25.5522 114.88 25.3453 114.88C25.0867 114.828 24.8798 114.673 24.8798 114.414Z" fill="#263238"/>
<path d="M22.4485 117.362L21.4658 115.604C21.3623 115.397 21.4141 115.138 21.621 114.983L21.8279 114.88C22.0348 114.724 22.3451 114.828 22.4485 115.086L23.2244 117C23.3279 117.207 23.2244 117.466 23.0175 117.569C22.8623 117.673 22.552 117.569 22.4485 117.362Z" fill="#263238"/>
<path d="M21.8797 119.949L20.328 119.121C20.1211 119.018 20.0694 118.811 20.1728 118.604L20.2763 118.397C20.3797 118.19 20.6383 118.139 20.8452 118.242L22.2935 119.225C22.4487 119.328 22.5004 119.535 22.397 119.69C22.2935 119.949 22.0866 120.052 21.8797 119.949Z" fill="#263238"/>
<path d="M22.4482 123.208L20.793 123.001C20.5861 122.949 20.431 122.794 20.4827 122.587L20.5344 122.38C20.5861 122.173 20.793 122.018 20.9999 122.07L22.6551 122.483C22.8103 122.535 22.9654 122.69 22.9137 122.897C22.8103 123.104 22.6034 123.259 22.4482 123.208Z" fill="#263238"/>
<g opacity="0.3">
<path d="M30.5185 112.656L30.3633 110.638C30.3633 110.38 30.5185 110.173 30.7771 110.173H31.0357C31.2943 110.173 31.5012 110.38 31.5012 110.638L31.3978 112.707C31.3978 112.914 31.1909 113.121 30.984 113.121C30.7253 113.069 30.5185 112.863 30.5185 112.656Z" fill="white"/>
<path d="M24.8798 114.414L24.7246 112.397C24.7246 112.139 24.8798 111.932 25.1384 111.932H25.397C25.6556 111.932 25.8625 112.139 25.8625 112.397L25.7591 114.466C25.7591 114.673 25.5522 114.88 25.3453 114.88C25.0867 114.828 24.8798 114.673 24.8798 114.414Z" fill="white"/>
<path d="M22.4485 117.362L21.4658 115.604C21.3623 115.397 21.4141 115.138 21.621 114.983L21.8279 114.88C22.0348 114.724 22.3451 114.828 22.4485 115.086L23.2244 117C23.3279 117.207 23.2244 117.466 23.0175 117.569C22.8623 117.673 22.552 117.569 22.4485 117.362Z" fill="white"/>
<path d="M21.8797 119.949L20.328 119.121C20.1211 119.018 20.0694 118.811 20.1728 118.604L20.2763 118.397C20.3797 118.19 20.6383 118.139 20.8452 118.242L22.2935 119.225C22.4487 119.328 22.5004 119.535 22.397 119.69C22.2935 119.949 22.0866 120.052 21.8797 119.949Z" fill="white"/>
<path d="M22.4482 123.208L20.793 123.001C20.5861 122.949 20.431 122.794 20.4827 122.587L20.5344 122.38C20.5861 122.173 20.793 122.018 20.9999 122.07L22.6551 122.483C22.8103 122.535 22.9654 122.69 22.9137 122.897C22.8103 123.104 22.6034 123.259 22.4482 123.208Z" fill="white"/>
</g>
<g opacity="0.2">
<path d="M29.2255 124.242C30.4669 125.742 32.2772 123.984 33.5703 122.018C37.0359 116.794 39.7772 121.604 41.0703 119.897C42.3117 118.191 39.0531 113.691 33.26 117.984C30.4669 120.053 28.0359 122.794 29.2255 124.242Z" fill="white"/>
<path d="M41.2762 128.225C40.9659 129.621 36.4659 129.363 35.9486 126.311C35.4314 123.259 41.6383 126.828 41.2762 128.225Z" fill="white"/>
<path d="M35.6907 114.88C35.3803 115.449 34.3458 115.449 33.4148 114.932C32.432 114.414 32.2769 113.742 32.5872 113.173C32.8976 112.604 33.57 112.397 34.501 112.914C35.4838 113.432 36.001 114.311 35.6907 114.88Z" fill="white"/>
<path d="M30.3111 117.363C29.8973 117.88 28.9146 117.725 28.0353 117C27.2077 116.328 27.1559 115.604 27.5697 115.138C27.9835 114.621 28.6559 114.518 29.5353 115.242C30.3628 115.914 30.7249 116.897 30.3111 117.363Z" fill="white"/>
<path d="M27.6729 119.328C27.5177 119.949 26.535 120.259 25.4488 120.001C24.3626 119.742 24.0522 119.121 24.2074 118.501C24.3626 117.88 24.9315 117.466 26.0177 117.725C27.1039 117.983 27.8281 118.708 27.6729 119.328Z" fill="white"/>
<path d="M26.4314 122.121C26.328 122.639 25.3452 122.845 24.259 122.587C23.1728 122.328 22.8107 121.811 22.9659 121.294C23.0693 120.777 23.6383 120.466 24.7245 120.725C25.759 121.035 26.5349 121.656 26.4314 122.121Z" fill="white"/>
<path d="M27 124.708C26.8965 125.174 25.9138 125.329 24.8793 125.07C23.7931 124.812 23.431 124.346 23.5345 123.88C23.6379 123.415 24.2069 123.156 25.2414 123.415C26.3276 123.674 27.1034 124.243 27 124.708Z" fill="white"/>
</g>
<path opacity="0.6" d="M31.5012 105.57C28.9667 103.501 29.0185 100.449 29.7426 97.3457C28.8116 99.8802 28.5012 103.346 29.7426 108.053C29.7426 108.053 34.0357 108.828 37.7598 111.57C37.7081 111.57 34.0357 107.639 31.5012 105.57Z" fill="black"/>
<path d="M53.2255 82.1895C53.2255 82.1895 52.76 78.3619 56.0186 74.6378C52.6565 77.4309 49.5531 66.155 49.5531 66.155L47.2772 64.2412L45.8289 68.2757L42.5703 77.4309L53.2255 82.1895Z" fill="black"/>
<path d="M45.3092 51.8789C45.1023 51.1547 44.1712 50.9478 43.6023 51.4651C42.2057 52.9133 40.085 56.172 39.723 62.6892C39.2574 72.5168 29.4298 84.3099 38.9988 98.0168C48.5678 111.775 64.7057 117.258 64.2402 111.982C64.2402 111.982 68.4816 112.086 66.9298 107.948C66.9298 107.948 70.0333 105.672 67.4471 102.724C67.4471 102.724 70.085 99.5685 64.2402 98.0685C59.585 96.8788 53.6367 88.8616 53.223 82.1892C52.8609 76.4995 46.9643 57.2582 45.3092 51.8789Z" fill="#263238"/>
<path d="M68.8441 101.999H66.8268C66.5682 101.999 66.3613 101.793 66.3613 101.534V101.275C66.3613 101.017 66.5682 100.81 66.8786 100.861L68.8958 101.12C69.1027 101.172 69.3096 101.327 69.3096 101.534C69.3096 101.844 69.1027 101.999 68.8441 101.999Z" fill="#263238"/>
<path d="M69.4127 107.017L67.3954 106.655C67.1368 106.603 66.9816 106.396 67.0333 106.137L67.0851 105.879C67.1368 105.62 67.3954 105.465 67.654 105.517L69.6196 106.086C69.8265 106.137 69.9816 106.344 69.9299 106.603C69.8782 106.913 69.6713 107.068 69.4127 107.017Z" fill="#263238"/>
<path d="M68.0699 111.31L66.0526 111.258C65.794 111.258 65.5871 111.051 65.6388 110.793V110.534C65.6388 110.275 65.8975 110.069 66.1561 110.12L68.1733 110.379C68.3802 110.431 68.5354 110.586 68.5354 110.844C68.5354 111.103 68.3285 111.31 68.0699 111.31Z" fill="#263238"/>
<path d="M64.7584 113.379H63.0515C62.8446 113.379 62.6895 113.223 62.6895 113.016V112.81C62.6895 112.603 62.8964 112.396 63.1032 112.447L64.8101 112.706C65.017 112.706 65.1205 112.913 65.1205 113.068C65.1722 113.223 65.017 113.379 64.7584 113.379Z" fill="#263238"/>
<g opacity="0.3">
<path d="M68.8441 101.999H66.8268C66.5682 101.999 66.3613 101.793 66.3613 101.534V101.275C66.3613 101.017 66.5682 100.81 66.8786 100.861L68.8958 101.12C69.1027 101.172 69.3096 101.327 69.3096 101.534C69.3096 101.844 69.1027 101.999 68.8441 101.999Z" fill="white"/>
<path d="M69.4127 107.017L67.3954 106.655C67.1368 106.603 66.9816 106.396 67.0333 106.137L67.0851 105.879C67.1368 105.62 67.3954 105.465 67.654 105.517L69.6196 106.086C69.8265 106.137 69.9816 106.344 69.9299 106.603C69.8782 106.913 69.6713 107.068 69.4127 107.017Z" fill="white"/>
<path d="M68.0699 111.31L66.0526 111.258C65.794 111.258 65.5871 111.051 65.6388 110.793V110.534C65.6388 110.275 65.8975 110.069 66.1561 110.12L68.1733 110.379C68.3802 110.431 68.5354 110.586 68.5354 110.844C68.5354 111.103 68.3285 111.31 68.0699 111.31Z" fill="white"/>
<path d="M64.7584 113.379H63.0515C62.8446 113.379 62.6895 113.223 62.6895 113.016V112.81C62.6895 112.603 62.8964 112.396 63.1032 112.447L64.8101 112.706C65.017 112.706 65.1205 112.913 65.1205 113.068C65.1722 113.223 65.017 113.379 64.7584 113.379Z" fill="white"/>
</g>
<path d="M66.0506 102.983C66.0506 102.983 62.6886 103.19 61.3438 102C61.3438 102 63.1541 104.845 66.0506 102.983Z" fill="black"/>
<path d="M65.5859 107.896C65.5859 107.896 63.2066 107.896 61.2928 107.017C61.3445 107.017 60.6721 108.879 65.5859 107.896Z" fill="black"/>
<path d="M59.793 110.12C59.793 110.12 60.7757 111.31 62.6895 111.258C62.6895 111.31 59.8964 112.448 59.793 110.12Z" fill="black"/>
<path opacity="0.1" d="M109.448 95.8449C109.448 95.8449 133.189 119.431 100.603 128.793C68.0169 138.155 50.5341 119.121 50.4824 119.121C52.2928 122.431 53.8445 125.379 54.9307 127.397C57.9307 133.035 107.379 142.138 120.051 121.707C127.5 109.707 123.258 95.069 117.776 81.0518C122.276 92.2242 109.448 95.8449 109.448 95.8449Z" fill="black"/>
<path d="M75.931 113.535C75.931 113.535 82.6034 112.707 84.5689 111.724C93.5172 107.121 117.052 81.6726 124.034 104.121C131.017 126.621 102.724 135.466 88.1379 136.707C88.1379 136.707 84.5172 141.362 80.9999 137.948C80.9999 137.948 74.2758 140.173 69.7758 130.086C65.2758 120 68.8965 114.104 75.931 113.535Z" fill="#263238"/>
<path d="M72.1043 117.465L73.6043 116.12C73.8112 115.965 74.0698 115.965 74.225 116.172L74.3802 116.379C74.5353 116.586 74.5353 116.896 74.3284 117.051L72.6215 118.241C72.4146 118.345 72.2077 118.345 72.0526 118.189C71.9491 117.879 71.9491 117.62 72.1043 117.465Z" fill="#263238"/>
<path d="M83.5862 135.775L85.2414 134.585C85.4483 134.43 85.7069 134.482 85.8621 134.689L86.0173 134.896C86.1725 135.103 86.1207 135.413 85.8621 135.516L84.0518 136.499C83.8449 136.603 83.5863 136.551 83.4828 136.344C83.3276 136.189 83.3794 135.878 83.5862 135.775Z" fill="#263238"/>
<path d="M74.8979 121.345L77.2773 119.224C77.5876 118.966 78.0014 118.966 78.2083 119.224L78.4669 119.483C78.7255 119.741 78.6221 120.207 78.3117 120.466L75.6738 122.328C75.3635 122.535 75.0014 122.483 74.7945 122.276C74.5359 122.017 74.5876 121.604 74.8979 121.345Z" fill="#263238"/>
<path d="M78.362 125.792L80.7413 123.672C81.0516 123.413 81.4654 123.413 81.6723 123.672L81.9309 123.93C82.1896 124.189 82.0861 124.654 81.7758 124.913L79.1378 126.775C78.8275 126.982 78.4654 126.93 78.2585 126.723C78.0516 126.465 78.1034 126.051 78.362 125.792Z" fill="#263238"/>
<path d="M81.3121 130.965L84.0535 129.31C84.3638 129.103 84.7776 129.207 84.9845 129.465L85.1914 129.776C85.3983 130.086 85.2431 130.552 84.8293 130.707L81.9328 132.052C81.6224 132.207 81.2604 132.103 81.1052 131.845C80.8466 131.534 81.0017 131.172 81.3121 130.965Z" fill="#263238"/>
<g opacity="0.3">
<path d="M72.1043 117.465L73.6043 116.12C73.8112 115.965 74.0698 115.965 74.225 116.172L74.3802 116.379C74.5353 116.586 74.5353 116.896 74.3284 117.051L72.6215 118.241C72.4146 118.345 72.2077 118.345 72.0526 118.189C71.9491 117.879 71.9491 117.62 72.1043 117.465Z" fill="white"/>
<path d="M83.5862 135.775L85.2414 134.585C85.4483 134.43 85.7069 134.482 85.8621 134.689L86.0173 134.896C86.1725 135.103 86.1207 135.413 85.8621 135.516L84.0518 136.499C83.8449 136.603 83.5863 136.551 83.4828 136.344C83.3276 136.189 83.3794 135.878 83.5862 135.775Z" fill="white"/>
<path d="M74.8979 121.345L77.2773 119.224C77.5876 118.966 78.0014 118.966 78.2083 119.224L78.4669 119.483C78.7255 119.741 78.6221 120.207 78.3117 120.466L75.6738 122.328C75.3635 122.535 75.0014 122.483 74.7945 122.276C74.5359 122.017 74.5876 121.604 74.8979 121.345Z" fill="white"/>
<path d="M78.362 125.792L80.7413 123.672C81.0516 123.413 81.4654 123.413 81.6723 123.672L81.9309 123.93C82.1896 124.189 82.0861 124.654 81.7758 124.913L79.1378 126.775C78.8275 126.982 78.4654 126.93 78.2585 126.723C78.0516 126.465 78.1034 126.051 78.362 125.792Z" fill="white"/>
<path d="M81.3121 130.965L84.0535 129.31C84.3638 129.103 84.7776 129.207 84.9845 129.465L85.1914 129.776C85.3983 130.086 85.2431 130.552 84.8293 130.707L81.9328 132.052C81.6224 132.207 81.2604 132.103 81.1052 131.845C80.8466 131.534 81.0017 131.172 81.3121 130.965Z" fill="white"/>
</g>
<path opacity="0.2" d="M71.587 122.742C71.587 122.742 70.5008 125.845 69.3111 121.708C68.1215 117.57 77.2766 124.656 80.018 130.035C82.7594 135.414 81.3628 140.225 80.018 134.794C80.018 134.794 78.0525 133.604 78.3111 130.708C78.3111 130.708 75.5697 129.363 74.8456 126.259C74.8456 126.208 72.1042 125.328 71.587 122.742Z" fill="white"/>
<path opacity="0.2" d="M78.0531 134.276C77.2772 135.828 73.5531 129.466 73.2427 127.035C72.9841 124.604 78.8289 132.724 78.0531 134.276Z" fill="white"/>
<path opacity="0.6" d="M95.9469 103.655C91.3952 106.966 87.309 110.328 84.5676 111.724C82.6538 112.707 76.3952 113.483 75.9297 113.535C76.3435 113.483 82.2918 112.81 85.1883 116.173C88.24 119.69 85.3952 112.138 95.9469 103.655Z" fill="black"/>
<path d="M116.379 77.4313C115.552 75.4141 114.776 73.4485 113.948 71.5348C113.845 71.2761 113.741 70.9658 113.638 70.7072C113.534 70.3968 113.379 70.0865 113.276 69.7761C113.121 69.4141 112.966 69.052 112.81 68.6382C112.707 68.4313 112.655 68.2244 112.552 67.9658C112.345 67.3968 112.086 66.8279 111.879 66.2589C111.828 66.052 111.724 65.8968 111.672 65.6899C111.517 65.2761 111.362 64.8623 111.207 64.5003C111.103 64.2934 111.052 64.0865 110.948 63.8796C110.793 63.5175 110.69 63.1037 110.534 62.7416C110.483 62.5348 110.379 62.3279 110.328 62.121C110.172 61.6554 110.017 61.1899 109.862 60.7244C109.81 60.621 109.81 60.5175 109.759 60.4658C109.603 59.8968 109.397 59.3796 109.241 58.8106C109.19 58.6554 109.138 58.5003 109.086 58.3451C108.983 57.9313 108.879 57.5692 108.776 57.1554C108.724 56.9485 108.672 56.7934 108.621 56.5865C108.517 56.2244 108.414 55.8106 108.362 55.4485C108.31 55.2934 108.259 55.1382 108.259 54.9313C108.155 54.4141 108.052 53.8968 107.948 53.3796C107.897 53.0692 107.845 52.7589 107.741 52.3968C107.741 52.2934 107.69 52.2416 107.69 52.1382C107.638 51.9313 107.586 51.6727 107.534 51.4658C107.534 51.3623 107.483 51.2589 107.483 51.2072C107.431 51.0003 107.379 50.7934 107.328 50.5865C107.328 50.483 107.276 50.4313 107.276 50.3279C107.224 50.121 107.172 49.9141 107.121 49.7072C107.121 49.6554 107.069 49.552 107.069 49.5003C107.017 49.2934 106.966 49.0865 106.862 48.8796C106.862 48.8279 106.81 48.7761 106.81 48.7244C106.759 48.5175 106.655 48.2589 106.603 48.052C106.603 48.0003 106.552 47.9485 106.552 47.9485C106.448 47.6899 106.397 47.483 106.293 47.2244V47.1727C106.19 46.9141 106.086 46.6554 106.034 46.4485L101.948 42.4141L99.9828 43.6554C99.9828 43.6554 100.241 48.1554 98.9483 59.1727C97.8621 68.3796 93.0517 68.6899 91.5 68.5348C106.862 70.8106 116.276 77.3796 116.379 77.4313Z" fill="black"/>
<path d="M111.154 64.2933C109.758 60.4657 108.62 56.845 107.999 53.4313C107.12 48.7244 105.723 45.1037 104.12 42.3106C104.12 42.3106 99.3094 34.914 100.034 43.5519C100.758 52.1899 100.602 68.0692 94.9645 68.7416C89.3266 69.4657 72.0507 79.2933 72.0507 79.2933C72.0507 79.2933 62.2232 82.2416 64.137 87.0002C64.137 87.0002 61.2921 89.2243 64.6025 91.5002C64.6025 91.5002 64.499 96.2588 69.2576 94.6037C69.2576 94.6037 69.4128 98.3795 76.4473 95.1726L81.4645 94.0347C81.4645 94.0347 103.24 94.3968 110.068 86.4312C116.171 79.2933 112.24 67.1899 111.361 64.7071C111.258 64.5519 111.206 64.3968 111.154 64.2933Z" fill="#263238"/>
<path d="M63.1036 86.2247L65.0691 85.6557C65.3278 85.604 65.4312 85.3453 65.3795 85.0867L65.3278 84.8281C65.276 84.5695 64.9657 84.4143 64.7071 84.5178L62.7933 85.2936C62.5864 85.3971 62.4829 85.604 62.5347 85.8109C62.6381 86.1729 62.845 86.2764 63.1036 86.2247Z" fill="#263238"/>
<path d="M62.4823 89.8976L64.4996 89.5355C64.7582 89.4838 64.9134 89.2769 64.8617 89.0183L64.8099 88.7597C64.7582 88.5011 64.4996 88.3459 64.241 88.3976L62.2754 88.9666C62.0686 89.0183 61.9134 89.2252 61.9651 89.4838C62.0168 89.7942 62.2754 89.9493 62.4823 89.8976Z" fill="#263238"/>
<path d="M64.6031 94.604L66.2582 93.4143C66.4651 93.2592 66.5168 93.0005 66.3617 92.7936L66.2065 92.5868C66.0513 92.3799 65.741 92.3281 65.5341 92.535L64.0341 93.9316C63.8789 94.0868 63.8272 94.3454 63.9824 94.5005C64.1375 94.7074 64.3962 94.7592 64.6031 94.604Z" fill="#263238"/>
<path d="M69.3621 96.6727L70.9138 95.8969C71.1207 95.7934 71.1724 95.5865 71.069 95.3796L70.9655 95.1727C70.8621 94.9658 70.6035 94.9141 70.3966 95.0175L68.9483 96.0003C68.7931 96.1038 68.7414 96.3106 68.8448 96.4658C68.9483 96.7244 69.1552 96.7762 69.3621 96.6727Z" fill="#263238"/>
<g opacity="0.3">
<path d="M63.1036 86.2247L65.0691 85.6557C65.3278 85.604 65.4312 85.3453 65.3795 85.0867L65.3278 84.8281C65.276 84.5695 64.9657 84.4143 64.7071 84.5178L62.7933 85.2936C62.5864 85.3971 62.4829 85.604 62.5347 85.8109C62.6381 86.1729 62.845 86.2764 63.1036 86.2247Z" fill="white"/>
<path d="M62.4823 89.8976L64.4996 89.5355C64.7582 89.4838 64.9134 89.2769 64.8617 89.0183L64.8099 88.7597C64.7582 88.5011 64.4996 88.3459 64.241 88.3976L62.2754 88.9666C62.0686 89.0183 61.9134 89.2252 61.9651 89.4838C62.0168 89.7942 62.2754 89.9493 62.4823 89.8976Z" fill="white"/>
<path d="M64.6031 94.604L66.2582 93.4143C66.4651 93.2592 66.5168 93.0005 66.3617 92.7936L66.2065 92.5868C66.0513 92.3799 65.741 92.3281 65.5341 92.535L64.0341 93.9316C63.8789 94.0868 63.8272 94.3454 63.9824 94.5005C64.1375 94.7074 64.3962 94.7592 64.6031 94.604Z" fill="white"/>
<path d="M69.3621 96.6727L70.9138 95.8969C71.1207 95.7934 71.1724 95.5865 71.069 95.3796L70.9655 95.1727C70.8621 94.9658 70.6035 94.9141 70.3966 95.0175L68.9483 96.0003C68.7931 96.1038 68.7414 96.3106 68.8448 96.4658C68.9483 96.7244 69.1552 96.7762 69.3621 96.6727Z" fill="white"/>
</g>
<path d="M65.3281 90.9314C65.3281 90.9314 68.7936 89.121 71.0695 89.1728C71.0695 89.1728 67.3454 87.6728 65.3281 90.9314Z" fill="black"/>
<path d="M69.9297 93.5691C69.9297 93.5691 71.4814 92.3277 74.1711 92.1208C74.1711 92.1208 71.0159 90.6208 69.9297 93.5691Z" fill="black"/>
<path d="M65.5859 86.586C65.5859 86.586 67.9135 86.7928 70.2928 85.448C70.2928 85.3963 68.017 85.0342 65.5859 86.586Z" fill="black"/>
</svg>
