<svg width="150" height="150" viewBox="0 0 150 150" fill="none" xmlns="http://www.w3.org/2000/svg">
<path fill-rule="evenodd" clip-rule="evenodd" d="M119.97 76.4688C118.376 80.5312 115.814 84.0312 113.783 86.0625C108.876 91 100.783 97.0937 103.345 105.281C105.876 113.469 100.033 112.812 97.4388 115.25C94.8138 117.688 93.22 118.562 89.2825 117.625C86.5638 116.969 85.595 118.781 84.345 117.25C83.4388 118.531 81.6263 119.563 80.1575 117.594C79.5638 118.344 77.5013 119.062 76.5638 117.781C75.8138 118.5 74.3138 118.688 73.6888 117.75C72.9075 116.531 74.7513 113.062 79.0013 112.469C82.8763 111.938 88.8138 112.469 90.5013 109.781C94.2513 103.781 80.095 95.625 83.8138 78.8125L119.97 76.4688Z" fill="#B39B86"/>
<path fill-rule="evenodd" clip-rule="evenodd" d="M80.126 117.562C79.251 116.437 80.251 114.281 81.7197 113.906C80.0635 114.156 78.876 116.156 79.8447 117.812C79.9697 117.75 80.0635 117.656 80.126 117.562Z" fill="#B39B86"/>
<path fill-rule="evenodd" clip-rule="evenodd" d="M76.5631 117.75C75.6881 116.625 76.9068 114.438 78.4693 114.125C76.8443 114.219 75.3443 116.313 76.2818 117.969C76.3756 117.875 76.4693 117.813 76.5631 117.75Z" fill="#B39B86"/>
<path opacity="0.5" fill-rule="evenodd" clip-rule="evenodd" d="M37.4688 117.063C37.8125 117.063 38.0625 116.969 38.125 116.844C38.1562 116.969 38.2187 117.094 38.3125 117.188C38.75 117.125 39.125 116.875 39.1875 116.75C39.5 117.031 41.5 118.094 42.5625 116.25C43.6875 117.156 46.2187 118.062 47.25 115.625C49.3437 115.969 51.5938 115.094 52.3438 112.188C50.9375 114.281 48.4063 114.625 47.2813 114.031C46 116.469 42.8125 116.75 42.3125 115.062C41.3125 116.437 38.4375 116.125 38.1562 114.969C38.0625 115.156 37.3125 115.281 36.5625 115.156C36.5625 115.219 36.5625 115.281 36.5625 115.344C36.7188 116.313 37.0625 116.844 37.4688 117.063Z" fill="#8A7A6C"/>
<path fill-rule="evenodd" clip-rule="evenodd" d="M120.219 62.0935C130.126 70.406 131.532 75.281 126.907 93.9998C122.282 112.75 123.719 117.937 132.969 120.219C136.907 121.187 135.657 126.531 130.251 124.187C124.001 121.5 111.782 115.687 120.313 83.4373C121.313 76.3435 110.657 61.3435 120.219 62.0935Z" fill="#DBBCA0"/>
<path opacity="0.5" fill-rule="evenodd" clip-rule="evenodd" d="M134.595 124.125C133.814 124.813 132.345 125.062 130.251 124.156C124.001 121.469 111.782 115.656 120.314 83.4062C120.595 81.3125 119.907 78.5625 119.001 75.7188C120.97 73.75 122.814 72.125 125.189 70.6875C128.532 75.6562 119.251 95.5625 120.501 109.188C121.126 116.438 125.814 123.125 134.595 124.125Z" fill="#8F7866"/>
<path fill-rule="evenodd" clip-rule="evenodd" d="M40.1573 72.8443C44.7823 81.9068 52.1261 105.376 44.5948 109.188C40.4073 111.282 36.2823 112.938 36.5948 115.344C36.9698 118.094 39.0323 117.126 39.1886 116.782C39.5011 117.063 41.5011 118.126 42.5636 116.282C43.6886 117.188 46.1886 118.094 47.2511 115.657C49.6573 116.032 52.2511 114.844 52.5636 110.813C53.5011 98.6255 70.7198 80.8755 54.1573 61.2193C45.0948 50.4068 45.1886 65.313 40.1573 72.8443Z" fill="#B39B86"/>
<path fill-rule="evenodd" clip-rule="evenodd" d="M36.2199 43.375C45.1262 54.375 57.6262 58.2813 72.4699 56.1562C87.3137 54.0312 105.626 49.2812 120.251 62.0625C123.376 64.7812 125.001 67.625 125.251 70.625C125.845 77.875 119.689 85.2812 116.282 88.4375C111.439 92.875 104.782 101 107.345 109.188C109.876 117.375 104.032 116.719 101.439 119.156C98.8137 121.594 97.2199 122.469 93.2824 121.531C90.5637 120.875 89.5949 122.688 88.3449 121.156C87.4387 122.438 85.5949 123.469 84.1574 121.5C83.5637 122.25 81.5012 122.969 80.5637 121.688C79.8137 122.406 78.3137 122.594 77.6887 121.656C76.9074 120.437 78.7512 116.969 83.0012 116.375C86.8762 115.844 92.8137 116.375 94.5012 113.688C98.2512 107.688 84.0949 99.5312 87.8137 82.7188C79.4074 90.0938 68.5637 91.2812 54.1574 90.5625C39.6887 89.8125 29.5012 84.75 24.4699 65.3125C19.4074 45.9062 31.0012 46.2812 36.2199 43.375Z" fill="#DBBCA0"/>
<path opacity="0.3" fill-rule="evenodd" clip-rule="evenodd" d="M79.1565 67.4068C85.9377 67.8443 89.1877 67.188 95.3127 64.938C98.6565 63.7193 97.344 66.9693 94.1565 70.7505C93.4377 71.6255 94.094 66.9693 93.8127 68.188C92.719 73.1568 90.219 74.7818 89.4377 75.438C88.1877 76.4693 90.2502 72.813 89.2815 73.938C86.7502 76.813 83.9065 78.8755 83.219 79.2505C76.3127 82.8443 94.6565 70.0005 88.719 69.5943C87.5315 69.5005 86.2815 69.3755 85.0315 69.2193C84.219 69.1255 89.0315 68.438 88.2815 68.4693C78.219 68.938 73.6877 67.063 79.1565 67.4068Z" fill="#BA997D"/>
<path opacity="0.5" fill-rule="evenodd" clip-rule="evenodd" d="M103.814 68.3436C103.845 66.7811 110.251 72.9998 110.282 77.5311C110.282 79.2186 107.001 71.1873 107.439 73.0623C108.657 78.1873 107.907 83.6248 106.251 88.2186C105.72 89.6561 105.782 78.3436 105.689 79.7186C104.939 88.9998 101.564 94.7498 99.0948 96.8123C96.4073 99.0936 102.532 90.6561 103.407 81.2498C104.314 71.3436 103.782 70.4373 103.814 68.3436Z" fill="#E8CAB1"/>
<path opacity="0.5" fill-rule="evenodd" clip-rule="evenodd" d="M22.3136 61.0625C19.3136 46.0625 30.2823 46.5 35.5636 43.7188C49.8761 69.5 25.3136 76.0312 22.3136 61.0625Z" fill="#8F7866"/>
<path fill-rule="evenodd" clip-rule="evenodd" d="M85.0938 84.75C77.0938 90.2812 67.0313 91.1563 54.0938 90.5C53.375 90.4688 52.6562 90.4063 51.9375 90.3438C52.5 88.3125 53.6875 86.4375 55.8125 85.0625C61.4063 88.0625 64.875 88.8438 65.9688 88.7813C67.0625 88.6875 64.1563 87.2188 64.1563 85.4063C66.0313 86.7813 69.5 87.6875 73.1875 87.2188C76.875 86.75 71.7812 86.1875 70.0313 84.4063C72.6562 85.5 77.0937 86.5938 79.2812 86.2813C81.4687 85.9688 78.375 85.0625 76.5625 83.1875C80.9687 84.875 82.25 85.125 85.0938 84.75Z" fill="#F5EBE2"/>
<path opacity="0.5" fill-rule="evenodd" clip-rule="evenodd" d="M56.1875 74.8125C59.2813 81 59.7188 86.1562 59.25 90.6875C57.5938 90.6562 55.875 90.5938 54.0938 90.5H53.9688C55.3125 87.5 56.5 82.5938 56.1875 74.8125Z" fill="#8F7866"/>
<path opacity="0.5" fill-rule="evenodd" clip-rule="evenodd" d="M85.1875 84.6875C86.7188 78.8125 89.5938 75.4062 92.8438 74.3125C91.1875 75.6875 88.8437 77.9062 87.75 82.6562C86.9062 83.4062 86.0625 84.0937 85.1875 84.6875Z" fill="#8F7866"/>
<path fill-rule="evenodd" clip-rule="evenodd" d="M125.219 70.625C126.344 77.3438 122.531 84.3438 119.187 88.375C118.687 88.9688 120.5 84.5 120.188 85.0625C118.594 88 116.281 90.7812 114.031 93.5C113.031 94.7188 115.406 88.7812 114.719 90.125C113.188 93.25 111.25 96.5625 109.719 99.6562C109.406 100.312 109.937 95.9063 109.812 96.5938C109.156 100.281 108.75 102.75 108.062 105.062C107.844 105.781 107.812 102.219 107.656 102.938C107 105.875 107.5 110.188 107.594 110.625C106.75 109.312 105.594 104.594 103.781 101.531C104.938 102.094 105.469 104.25 105.719 103.344C106.062 102.125 106.531 101.188 106.281 94.7188C106.969 96.375 106.75 98.5312 107.156 97.9375C108.187 96.4062 109.094 94.6875 111.313 88.4375C111.438 89.875 109.938 93.0625 111.125 92.0938C112.125 91.2812 114.719 88.4063 116.719 83.3125C116.937 84.3125 115.969 87.75 116.844 86.8437C117.75 85.9062 120.281 82.2812 121.562 76.25C123.031 78.0312 121.281 81.3125 122.062 79.9375C123.625 77.1875 124.75 74.125 125.219 70.625Z" fill="#F5EBE2"/>
<path fill-rule="evenodd" clip-rule="evenodd" d="M84.0947 121.5C83.2197 120.375 84.2197 118.219 85.6885 117.844C84.0322 118.094 82.8447 120.094 83.8135 121.75C83.9385 121.656 84.0322 121.594 84.0947 121.5Z" fill="#8A7A6C"/>
<path fill-rule="evenodd" clip-rule="evenodd" d="M80.5006 121.656C79.6256 120.531 80.8443 118.344 82.4068 118.031C80.7818 118.125 79.2818 120.219 80.2193 121.875C80.3131 121.812 80.4068 121.75 80.5006 121.656Z" fill="#8A7A6C"/>
<path fill-rule="evenodd" clip-rule="evenodd" d="M27.8139 74.7187C27.4389 73.4687 27.0639 71 27.8139 68.8438C27.8139 72.625 29.5326 74.875 30.1576 75.125C31.1576 75.5312 32.0014 72.5937 32.6264 71.7812C32.3451 74.9062 33.4389 79.2187 34.1576 79.125C35.6889 78.875 35.1576 76.5625 36.4701 74.8437C36.6264 78.1562 36.7201 80.9375 37.3451 82.6875C38.1576 84.1563 38.7201 81.875 40.3764 80.375C40.1576 83.5 39.8451 85.0625 40.5639 87.6875C35.2514 85.375 31.0014 81.375 27.8139 74.7187Z" fill="#F5EBE2"/>
<path fill-rule="evenodd" clip-rule="evenodd" d="M21.157 41.6878C19.4695 41.1253 16.4695 38.969 14.7507 39.2815C13.0007 39.594 12.3757 41.0003 12.5632 42.9378C12.6882 44.9065 15.0007 47.5003 15.1882 48.6565C15.3757 49.8128 13.657 53.1565 16.032 58.2815C18.0632 62.6253 22.8132 66.5315 28.5945 66.1565C34.3757 65.8128 36.8132 62.4065 38.032 59.5628C40.5007 53.6878 38.2507 49.3753 38.4382 47.594C38.6257 45.6253 40.1257 43.2815 40.1257 40.844C40.0945 38.3753 38.2195 36.969 36.282 38.344C35.1882 39.1253 34.3132 40.5003 33.3132 41.1878C32.3757 41.844 29.4382 41.3753 26.7195 41.4065C24.2507 41.469 21.9382 41.9378 21.157 41.6878Z" fill="#DBBCA0"/>
<path opacity="0.5" fill-rule="evenodd" clip-rule="evenodd" d="M21.1562 41.6875C19.4688 41.125 16.4688 38.9687 14.75 39.2812C18.0938 39.9062 19.5938 41.8438 20.8438 42.7188C21.2188 42.9688 22.6875 42.3125 24.5 42.0312C24.9688 41.9688 23.3125 42.9375 23.8438 42.8438C25 42.6562 26.2187 42.375 27.2812 42.4062C28.3438 42.4375 29.5938 42.4062 30.875 42.6875C31.6562 42.875 29.75 41.875 30.25 41.9688C32.125 42.2812 33.5625 42.3438 33.7188 42.0312C34.4062 40.7812 35.5938 38.875 36.9062 38.0312C36.6875 38.125 36.5 38.25 36.2812 38.375C35.1875 39.1562 34.3125 40.5312 33.3125 41.2188C32.375 41.875 29.4375 41.4063 26.7188 41.4375C24.25 41.4688 21.9375 41.9375 21.1562 41.6875Z" fill="#F5EBE2"/>
<path opacity="0.5" fill-rule="evenodd" clip-rule="evenodd" d="M23.3135 57.1883C23.626 55.9383 23.0635 55.3446 22.501 55.2196C20.876 54.8446 20.2197 52.9696 20.8447 51.0008C21.251 49.7196 22.4385 49.3133 22.6885 49.7821C24.0635 52.4071 27.251 53.8758 23.3135 57.1883Z" fill="#F5EBE2"/>
<path opacity="0.5" fill-rule="evenodd" clip-rule="evenodd" d="M27.0008 41.969C27.8445 41.9377 29.0945 45.3752 29.8133 49.5315C29.9383 50.344 28.1883 46.1252 28.5945 47.5002C29.1883 49.5315 29.5008 51.094 29.907 53.2815C30.0008 53.7502 28.0633 49.719 28.657 51.094C30.2508 54.6877 30.407 60.0002 30.3133 60.4377C30.0008 62.3752 27.907 62.5002 26.8133 60.2502C26.532 59.6565 25.532 56.4377 26.5008 51.2502C26.5633 50.9065 25.282 54.719 25.407 53.8127C25.6883 51.6565 26.0008 49.4065 26.407 47.3127C26.5008 46.7815 25.4383 49.8127 25.5008 49.2815C25.8758 45.1877 26.407 42.0002 27.0008 41.969Z" fill="#F5EBE2"/>
<path opacity="0.5" fill-rule="evenodd" clip-rule="evenodd" d="M32.4387 56.9693C32.3449 55.7193 32.4387 55.438 32.6887 55.5318C34.6262 56.0943 36.3137 53.813 35.1887 51.6255C34.3762 50.1255 32.5949 49.313 32.4699 50.2818C32.0949 53.2193 29.5012 54.4068 32.4387 56.9693Z" fill="#F5EBE2"/>
<path fill-rule="evenodd" clip-rule="evenodd" d="M37.7813 47.2192C37 45.8442 35.75 44.2505 34.375 42.9067C34.7188 41.0317 36.625 37.4067 38.6875 38.7817C41.1875 40.4692 37.8125 45.0005 37.7813 47.2192Z" fill="#F5EBE2"/>
<path fill-rule="evenodd" clip-rule="evenodd" d="M23.3136 57.1875C23.6261 55.9375 23.0636 55.3438 22.5011 55.2188C20.8761 54.8438 19.7511 52.75 20.8449 51C23.1574 51.0625 26.3136 53.875 23.3136 57.1875Z" fill="#F5EBE2"/>
<path fill-rule="evenodd" clip-rule="evenodd" d="M32.439 56.9687C32.3453 55.7187 32.439 55.4375 32.689 55.5312C34.6265 56.0937 36.314 53.8125 35.189 51.625C32.7515 51.1875 30.6578 53.75 32.439 56.9687Z" fill="#F5EBE2"/>
<path fill-rule="evenodd" clip-rule="evenodd" d="M14.8125 53.9373C14.9375 55.1873 15.2812 56.6561 16.0312 58.2811C18.0625 62.6248 22.8125 66.5311 28.5938 66.1561C34.375 65.8123 36.8125 62.4061 38.0312 59.5623C38.875 57.5936 39.1562 55.8123 39.1875 54.2186C37.4688 53.9061 37.0625 54.9998 36.5 56.3436C36.1562 57.1873 35.75 54.6561 35.75 55.6248C35.7812 58.4686 35 61.9373 34.6875 62.6873C33.8125 64.7498 33.1875 62.0936 28.5625 61.8123C23.9375 61.5311 22.3125 64.2498 21.5625 63.0623C20.7812 61.8748 21.8438 60.7811 21.3438 58.6561C21.0625 57.4061 19.3125 54.0936 18.125 53.4373C17.3125 52.9686 19.5 56.0623 18.375 55.2498C17 54.2498 15.6875 53.5936 14.8125 53.9373Z" fill="#F5EBE2"/>
<path fill-rule="evenodd" clip-rule="evenodd" d="M31.032 62.9067C30.0632 62.7504 29.2195 63.1567 29.1257 63.7504C29.032 64.3754 29.7195 64.9692 30.6882 65.1254C31.657 65.2817 32.5007 64.8754 32.5945 64.2817C32.6882 63.6567 31.9695 63.0629 31.032 62.9067Z" fill="white"/>
<path fill-rule="evenodd" clip-rule="evenodd" d="M25.7822 62.9381C24.8134 62.9068 24.0009 63.3443 23.9697 63.9693C23.9384 64.5943 24.6884 65.1256 25.6572 65.1881C26.6259 65.2193 27.4384 64.7818 27.4697 64.1568C27.5009 63.5318 26.7509 63.0006 25.7822 62.9381Z" fill="white"/>
<path fill-rule="evenodd" clip-rule="evenodd" d="M23.8132 53.7188C23.407 54 22.8757 54.125 22.3132 54C21.282 53.7812 20.5945 52.75 20.8445 51.7187C20.8757 51.5312 20.9382 51.375 21.032 51.2188C22.657 51.3125 23.8132 52.3438 23.8132 53.7188Z" fill="#131F26"/>
<path fill-rule="evenodd" clip-rule="evenodd" d="M21.657 51.3125C22.657 51.5312 23.407 52.1875 23.6883 53C23.407 53.4062 22.8758 53.6562 22.3445 53.5312C21.6258 53.375 21.157 52.6875 21.3133 51.9687C21.3758 51.6875 21.5008 51.4688 21.657 51.3125Z" fill="#FFDA8F"/>
<path fill-rule="evenodd" clip-rule="evenodd" d="M23.3748 52.3437V52.375C23.281 52.7812 22.8748 53.0312 22.4685 52.9687C22.0623 52.875 21.8123 52.4687 21.8748 52.0625C21.9373 51.8125 22.0935 51.625 22.3435 51.5312C22.7498 51.7188 23.0935 52 23.3748 52.3437Z" fill="#131F26"/>
<path fill-rule="evenodd" clip-rule="evenodd" d="M32.125 54.0318C32.5312 54.3131 33.0625 54.4381 33.625 54.3443C34.6562 54.1256 35.3438 53.1256 35.125 52.0631C35.0938 51.8756 35.0313 51.7193 34.9375 51.5631C33.25 51.4693 32.2188 52.5943 32.125 54.0318Z" fill="#131F26"/>
<path fill-rule="evenodd" clip-rule="evenodd" d="M34.375 51.5625C34.6875 51.875 34.875 52.3437 34.75 52.8437C34.5937 53.5937 33.875 54.0625 33.125 53.9062C32.75 53.8125 32.4375 53.5937 32.25 53.3125C32.5625 52.375 33.2812 51.6875 34.375 51.5625Z" fill="#FFDA8F"/>
<path fill-rule="evenodd" clip-rule="evenodd" d="M33.5925 51.8125C33.9987 51.9062 34.2487 52.3125 34.1862 52.7188C34.0925 53.125 33.6862 53.375 33.28 53.3125C32.905 53.2187 32.655 52.9062 32.6862 52.5312C32.905 52.25 33.1862 52 33.53 51.8438C33.53 51.8125 33.5612 51.8125 33.5925 51.8125Z" fill="#131F26"/>
<path fill-rule="evenodd" clip-rule="evenodd" d="M35.7518 52.2811C35.9393 52.4998 36.0956 52.3748 35.9081 52.1561C34.1581 50.2186 31.5018 52.0936 31.3768 54.6873C31.2518 56.7498 33.0331 59.2186 33.7206 61.3436C33.2206 60.7811 32.5018 60.6561 31.4081 60.5936C31.2206 60.5623 31.1893 60.8436 31.3768 60.8748C33.0643 61.0936 33.9706 61.2811 34.0018 62.8436C33.9706 63.9686 33.3456 64.9998 31.3768 65.5311C30.0018 65.9061 28.9081 65.0623 28.7206 63.6248C28.6581 63.2498 28.5018 62.6873 28.3768 63.4998C28.1581 64.9686 26.7831 65.8436 25.3768 65.6873C23.8768 65.5311 22.1581 64.4686 22.0956 62.9061C22.0018 61.1873 23.6581 60.5936 25.0956 60.4998C25.2831 60.4998 25.2518 60.2186 25.0956 60.2186C23.9081 60.1873 22.9706 60.3123 22.3456 60.9998C23.0331 58.8436 24.7518 56.3748 24.7206 54.3436C24.6581 51.8436 20.9393 49.6873 19.0956 51.5311C18.8768 51.7498 19.0331 51.8748 19.2518 51.6561C20.7831 50.0936 23.9706 52.4373 24.0018 54.6248C23.7831 57.6873 17.4393 64.7186 25.3456 65.8748C26.6268 66.0623 27.6893 65.4061 28.5018 65.4686C29.3768 65.5311 30.2518 66.0623 31.5018 65.7186C38.6581 63.6873 32.0956 58.3748 32.0331 54.9373C32.1581 52.7498 34.2831 50.6873 35.7518 52.2811Z" fill="#8F7866"/>
<path d="M31.375 64.3436C34.125 65.6873 36.0625 68.5936 36.7812 71.1873M31.5313 63.7811C35.1563 63.4686 38.9688 65.5936 40.75 67.9061M31.625 63.1873C35.3438 61.5623 40.2187 62.7498 42.4062 64.7186M24.1875 63.9686C21.4688 65.4061 19.625 68.3436 18.9688 70.9686M24 63.4061C20.3438 63.1873 16.5938 65.4373 14.9062 67.7811M23.875 62.8123C20.125 61.2811 15.25 62.5936 13.1562 64.6248" stroke="white" stroke-width="0.7197" stroke-miterlimit="22.9256" stroke-linecap="round" stroke-linejoin="round"/>
<path fill-rule="evenodd" clip-rule="evenodd" d="M37.7813 47.2188C37.0313 46.0938 36.4688 45.1876 35.4688 44.1251C35.7188 42.6251 37.0312 39.3126 38.625 40.5001C40.3125 41.7813 37.8125 45.4376 37.7813 47.2188Z" fill="#8F7866"/>
<path fill-rule="evenodd" clip-rule="evenodd" d="M15.5949 48.5934C16.2511 47.2497 17.6261 45.9997 18.9699 44.6872C18.4386 41.5309 15.8449 38.9684 13.9386 40.4997C11.7199 42.2184 15.4386 46.4997 15.5949 48.5934Z" fill="#F5EBE2"/>
<path fill-rule="evenodd" clip-rule="evenodd" d="M25.0317 59.4069C24.6254 60.1569 25.0629 61.1569 26.6254 61.8756C27.9067 62.4381 28.2817 63.0006 28.2817 63.5631C28.2817 64.0006 27.9067 64.9069 26.9692 65.4069C27.9379 65.2194 28.1254 64.8756 28.5004 64.8444C28.8129 64.8131 28.9692 65.2819 30.2192 65.5631C29.0942 65.2506 28.7504 64.0944 28.7504 63.6256C28.7504 62.9694 29.1254 62.4694 30.1254 61.9069C31.4379 61.1881 32.1254 59.9069 31.5317 59.1256C30.5942 57.9069 29.5004 58.8444 28.4067 58.8444C27.2504 58.8756 25.7192 58.1569 25.0317 59.4069Z" fill="#131F26"/>
<path fill-rule="evenodd" clip-rule="evenodd" d="M27.1884 42.0623C27.8447 43.781 27.6884 45.031 27.6572 46.656C27.5947 48.1873 27.4072 49.781 28.0009 51.4998C28.0947 51.781 27.8134 51.8748 27.7197 51.5935C27.1259 49.8123 26.7509 48.031 26.8134 46.4685C26.8759 44.9373 27.5009 43.7498 26.9697 42.1248C26.6572 41.281 27.0322 41.6248 27.1884 42.0623Z" fill="#8F7866"/>
<path fill-rule="evenodd" clip-rule="evenodd" d="M15.5942 48.5936C16.1254 47.4999 17.0942 46.4999 18.1567 45.4686C17.7192 42.9061 15.6254 40.8436 14.1567 42.1561C12.6254 43.4999 15.4692 46.9061 15.5942 48.5936Z" fill="#8F7866"/>
<path fill-rule="evenodd" clip-rule="evenodd" d="M36.5018 40.2815C37.5643 39.969 38.5018 40.0003 38.6268 40.4065C38.7518 40.7815 37.4705 40.5628 36.7518 41.3128C37.4393 41.0628 38.5018 41.4065 38.5955 41.9065C38.7518 42.594 37.2205 41.6253 36.2205 42.3753C37.2518 42.6253 38.0955 43.219 38.1268 43.594C38.2205 44.5315 37.033 42.9378 35.7518 43.4065C36.6268 43.6253 37.2205 44.5003 37.283 45.0315C37.3455 45.5628 36.6268 44.5315 35.5018 44.1565C35.2518 42.7503 35.8455 40.6565 36.5018 40.2815Z" fill="#F5EBE2"/>
<path fill-rule="evenodd" clip-rule="evenodd" d="M17.0006 42.1566C15.3131 41.2816 14.5318 41.8129 14.4693 42.2191C14.4381 42.5941 15.6568 42.4066 16.5006 42.8754C15.7818 42.8129 14.8131 43.1566 14.7818 43.6254C14.7506 44.2816 15.8756 43.4691 16.9693 43.9066C16.0318 44.3441 15.1881 44.8754 15.2193 45.2191C15.2818 46.0629 16.5006 44.7816 17.8131 44.9066C17.0006 45.2816 16.2818 46.1879 16.3131 46.6879C16.3443 47.1879 17.1256 46.0629 18.1568 45.4379C18.1568 44.1879 17.6881 42.3441 17.0006 42.1566Z" fill="#F5EBE2"/>
<path fill-rule="evenodd" clip-rule="evenodd" d="M25.7191 60.0945C25.4378 60.5945 25.6253 61.0008 26.4066 61.4695C26.5316 61.532 26.5628 61.5008 26.5941 61.4695C26.7816 61.2195 27.2191 61.1883 27.5628 61.3758C27.9066 61.5945 28.0941 61.9695 27.9691 62.2508C27.9378 62.3133 27.9691 62.3445 28.0003 62.3758C28.1253 62.5008 28.2191 62.657 28.2816 62.782C28.3753 62.9383 28.3753 62.9695 28.4066 62.8133C28.4691 62.0633 28.3753 61.407 28.2816 60.6883C28.1878 59.907 26.1566 59.3445 25.7191 60.0945ZM28.7191 62.8445C28.6253 63.032 28.6253 62.9383 28.6253 62.8445C28.5316 62.1883 28.4691 61.532 28.5316 60.657C28.5941 59.6883 30.5316 59.4383 30.9691 59.907C31.3753 60.3133 31.0628 60.8133 30.5316 61.3445C30.4691 61.407 30.4066 61.4695 30.2503 61.3758C30.0316 61.2508 29.6878 61.2508 29.4066 61.4695C29.0941 61.6883 28.9378 62.032 29.0316 62.3133C29.0628 62.407 29.0316 62.407 29.0003 62.4695C28.8753 62.5945 28.7816 62.7195 28.7191 62.8445Z" fill="#A8907B"/>
<path fill-rule="evenodd" clip-rule="evenodd" d="M23.0019 54.3439C22.5956 54.4377 22.2519 54.5314 22.3456 54.7189C22.4081 54.9064 22.8456 55.0939 23.2519 55.0002C23.6581 54.9064 23.9394 54.5314 23.8769 54.3439C23.7831 54.1564 23.4081 54.2189 23.0019 54.3439Z" fill="white"/>
<path fill-rule="evenodd" clip-rule="evenodd" d="M33.1252 54.5936C33.5627 54.6249 33.8752 54.6561 33.8439 54.8436C33.8127 55.0311 33.4377 55.3124 33.0002 55.2811C32.5627 55.2499 32.2502 54.9374 32.2814 54.7499C32.3127 54.5624 32.6877 54.5624 33.1252 54.5936Z" fill="white"/>
<path fill-rule="evenodd" clip-rule="evenodd" d="M37.5945 55.188C37.1882 55.5005 37.0007 55.938 37.1882 56.1567C37.3757 56.3755 37.8757 56.2817 38.282 55.938C38.6882 55.6255 38.8757 55.188 38.6882 54.9692C38.4695 54.7505 38.0007 54.8442 37.5945 55.188Z" fill="white"/>
<path fill-rule="evenodd" clip-rule="evenodd" d="M16.6563 54.5939C17.2501 54.6877 17.6876 55.0002 17.6251 55.3127C17.5626 55.5939 17.0313 55.7502 16.4376 55.6564C15.8438 55.5627 15.4063 55.2502 15.4688 54.9377C15.5313 54.6252 16.0626 54.5002 16.6563 54.5939Z" fill="white"/>
<path fill-rule="evenodd" clip-rule="evenodd" d="M39.0638 77.5942C40.5013 84.8755 43.1888 110.157 35.7513 114.094C31.1888 116.5 27.4388 117.282 28.345 121.063C28.72 122.594 30.7513 122.563 30.9388 122.188C31.2513 123.344 34.095 123.657 35.095 122.282C35.595 123.969 38.7513 123.688 40.0638 121.25C42.5638 121.407 45.72 120.032 46.0325 116.094C47.1888 102.813 68.1263 81.938 51.8763 68.313C47.3763 64.563 45.0013 69.9067 39.0638 77.5942Z" fill="#DBBCA0"/>
<path opacity="0.5" fill-rule="evenodd" clip-rule="evenodd" d="M48.2185 71.4065C49.656 69.4065 56.0623 75.5627 55.3435 80.6252C55.0935 82.4377 52.531 74.7815 52.906 76.7502C53.531 79.9065 53.9998 83.8752 52.7498 87.1565C52.281 88.4065 51.3435 82.4377 51.406 83.6877C51.781 90.6252 47.9685 93.5627 47.1873 94.094C45.6248 95.1252 48.6248 89.6877 48.8435 83.094C49.0623 77.2502 47.031 73.094 48.2185 71.4065Z" fill="#E8CAB1"/>
<path opacity="0.5" fill-rule="evenodd" clip-rule="evenodd" d="M28.25 119.844C28.25 120.219 28.2812 120.594 28.375 121.031C28.75 122.562 30.7812 122.531 30.9687 122.156C31.2812 123.312 34.125 123.625 35.125 122.25C35.625 123.938 38.7813 123.656 40.0938 121.219C42.4375 121.344 45.3438 120.188 45.9688 116.812C44.2188 118.5 41.6875 119.406 40.125 119.312C38.8438 121.75 35.2813 122 34.7813 120.312C33.7813 121.687 30.9375 121.375 30.6562 120.219C30.5 120.563 29 120.75 28.25 119.844Z" fill="#8A7A6C"/>
<path fill-rule="evenodd" clip-rule="evenodd" d="M46.0937 116.094C46.2187 115.281 47.9062 110.156 48.4999 107.594C48.6249 107.031 47.9062 111.187 48.1562 110.594C49.5624 107.312 51.2812 103.312 52.0312 100.25C52.3124 99.0937 51.4374 104 51.9374 102.906C53.5624 99.2812 55.0624 94.625 55.7812 91.4687C56.0312 90.375 55.7187 94.9062 56.1249 93.875C57.9062 89.2187 58.9062 84.3437 57.9062 79.4062C57.9374 82.9062 57.1874 85.875 56.6562 87.0625C56.2187 88.125 55.8124 85.0937 54.8437 83.6875C55.3437 90.375 54.9062 91.4687 54.5312 92.4375C54.0624 93.5625 54.2187 90.7812 53.3124 89.5312C53.3749 92.875 52.0624 97.5 51.5624 98.375C50.9687 99.3437 51.3437 95.25 50.9062 93.9375C50.1249 100.031 48.6249 102.844 48.0312 103.625C47.4062 104.5 48.3749 101.594 47.8437 99.0937C47.1562 103.344 46.8749 107.344 46.0937 110.031C45.6249 111.812 45.4062 115.219 46.0937 116.094Z" fill="#F5EBE2"/>
<path fill-rule="evenodd" clip-rule="evenodd" d="M35.1574 122.281C34.2824 121.156 35.0949 118.844 36.5949 118.25C34.6574 118.844 33.9387 120.969 34.9074 122.625C35.0012 122.5 35.0949 122.406 35.1574 122.281Z" fill="#8A7A6C"/>
<path fill-rule="evenodd" clip-rule="evenodd" d="M31.0005 122.187C30.4693 120.406 31.1255 118.344 32.4068 117.75C30.9693 118.062 30.0005 120.313 30.6568 122.375C30.813 122.313 30.938 122.25 31.0005 122.187Z" fill="#8A7A6C"/>
<path fill-rule="evenodd" clip-rule="evenodd" d="M38.375 45.8438C47.0938 54.9688 58.7812 58.125 72.4687 56.1562C87.3125 54.0312 105.625 49.2812 120.25 62.0625C115.625 59.0937 109.594 57.0312 105.906 55.75C107.375 57.5312 110.969 58.4687 109.844 58.3125C104.375 57.5312 99.2812 56.4062 94.6562 54.9688C96.2187 56.125 100.25 57.1562 98.7187 57.3125C94.625 57.7812 84.3438 56.6875 79.5625 56.5625C81.4688 57.25 86.0938 57.4375 84.5312 57.75C79.9375 58.625 72.9375 58.3125 69.1875 58.0625C71.4375 58.875 76.2812 59.3125 74.6875 59.5625C70.9375 60.125 67.0312 60.0312 63.2188 58.9062C64.2812 60.3125 67.125 61.5312 65.5625 61.625C64.5625 61.6875 59.5312 59.2188 57.3438 57.3125C58.2812 59.0938 60 60.625 58.875 60.1875C55.5 58.8437 52.125 56.75 50.25 54.7812C49.1562 53.625 50.7187 57.4375 49.4062 56.5C45.5625 53.7187 42.0625 50.0937 38.5625 46.3437C38.4687 46.1562 38.4062 46 38.375 45.8438Z" fill="#E8CAB1"/>
<path fill-rule="evenodd" clip-rule="evenodd" d="M127.251 69.625C130.407 74.9688 130.032 81.3125 126.907 94C122.282 112.75 123.72 117.938 132.97 120.219C133.532 120.344 134.001 120.594 134.345 120.875C132.126 121.125 130.845 120.094 130.845 120.094C130.845 120.094 134.095 122.219 131.47 121.219C128.813 120.219 125.157 115.437 125.157 115.437C125.157 115.437 127.188 120.125 125.313 117.125C123.438 114.156 123.876 110.156 123.876 110.156C123.876 110.156 122.376 115.125 122.782 111.25C123.188 107.344 124.376 102.719 124.376 102.719C124.376 102.719 120.657 106 122.626 103.156C124.595 100.312 127.251 90.875 127.251 90.875C127.251 90.875 122.157 95.2812 124.251 92.1875C126.345 89.0938 127.97 82.3437 127.97 82.3437C127.97 82.3437 122.97 88.2813 124.313 85.8125C128.22 78.75 128.345 72.2188 127.251 69.625Z" fill="#E8CAB1"/>
<path opacity="0.5" fill-rule="evenodd" clip-rule="evenodd" d="M107.907 113.156C107.625 117.25 103.469 117.219 101.375 119.156C98.7504 121.594 97.1567 122.469 93.2192 121.531C90.5004 120.875 89.5317 122.688 88.2817 121.156C87.3754 122.438 85.5317 123.469 84.0942 121.5C83.5004 122.25 81.4379 122.969 80.5004 121.687C79.7504 122.406 78.2504 122.594 77.6254 121.656C77.4379 121.375 77.4067 120.969 77.5004 120.5C78.2192 120.812 79.6254 120.625 80.2192 120.094C81.1567 121.406 83.1254 120.687 83.7192 119.937C85.1567 121.906 87.0942 120.906 88.0004 119.625C89.2504 121.156 89.7817 119.281 92.5004 119.906C96.4379 120.844 98.0317 119.969 100.657 117.531C102.438 115.875 106.313 115.625 107.907 113.156Z" fill="#8A7A6C"/>
<path fill-rule="evenodd" clip-rule="evenodd" d="M19 51.7505C19.0312 51.7817 19.125 51.7817 19.25 51.6567C20.4375 50.4692 22.5938 51.6567 23.5312 53.2192C24.2812 54.5005 23.8125 55.688 23.1875 57.063C26.2188 53.7192 21.7188 49.1567 19 51.7505C19.0312 51.7505 19.0312 51.7192 19 51.7505Z" fill="#131F26"/>
<path fill-rule="evenodd" clip-rule="evenodd" d="M35.7513 52.2816C35.8451 52.4066 35.9388 52.4066 35.9701 52.3754C33.3138 49.4066 30.1263 54.7504 32.4701 56.5629C32.2513 55.9691 32.0951 55.4379 32.0638 54.9066C32.1576 52.8129 34.2513 50.7191 35.7513 52.2816Z" fill="#131F26"/>
<path fill-rule="evenodd" clip-rule="evenodd" d="M25.4704 59.0312C25.1579 59.2812 25.3767 59.6875 26.0329 59.4375C26.8454 59.125 27.4704 59.2812 27.8454 59.5312C28.1892 59.7812 28.6892 59.7812 29.0954 59.4375C29.5017 59.0625 30.4704 59.2187 31.0017 59.4687C31.4392 59.6562 31.6267 59.25 31.0017 58.875C30.3454 58.4687 29.5017 58.6875 28.8767 59C28.6267 59.125 28.1579 59.1562 27.8454 59.0312C27.5017 58.9375 26.1892 58.4375 25.4704 59.0312Z" fill="#273A45"/>
<path fill-rule="evenodd" clip-rule="evenodd" d="M22.3125 52.125C22.375 52.125 22.4687 52.0938 22.4687 52C22.4687 51.9375 22.4375 51.8438 22.3438 51.8438C22.2812 51.8438 22.1875 51.875 22.1875 51.9687C22.1875 52.0312 22.25 52.0937 22.3125 52.125Z" fill="white"/>
<path fill-rule="evenodd" clip-rule="evenodd" d="M33.375 52.4375C33.4375 52.4375 33.5313 52.4062 33.5313 52.3125C33.5313 52.25 33.5 52.1562 33.4062 52.1562C33.3438 52.1562 33.25 52.1875 33.25 52.2812C33.25 52.3437 33.3125 52.4062 33.375 52.4375Z" fill="white"/>
<path opacity="0.5" fill-rule="evenodd" clip-rule="evenodd" d="M44.75 55.3438C46.7812 58.3438 47.125 62.125 45.9063 65.5C47.5 63.375 49.0938 58.75 44.75 55.3438Z" fill="#BA997D"/>
<path opacity="0.5" fill-rule="evenodd" clip-rule="evenodd" d="M52.0937 67.5625C53.6875 70.8125 53.4375 74.625 51.75 77.7813C53.625 75.9375 55.875 71.5938 52.0937 67.5625Z" fill="#BA997D"/>
<path opacity="0.5" fill-rule="evenodd" clip-rule="evenodd" d="M46.1562 85.3438C47.7187 88.5938 47.5 92.4062 45.8125 95.5625C47.6562 93.7187 49.9375 89.375 46.1562 85.3438Z" fill="#BA997D"/>
<path opacity="0.5" fill-rule="evenodd" clip-rule="evenodd" d="M71.0625 65.25C73.375 68.0312 74.0938 71.7812 73.2188 75.25C74.5938 72.9688 75.7188 68.2188 71.0625 65.25Z" fill="#BA997D"/>
<path opacity="0.5" fill-rule="evenodd" clip-rule="evenodd" d="M98.7812 62.8438C101.094 65.625 101.812 69.375 100.937 72.8438C102.312 70.5625 103.438 65.8125 98.7812 62.8438Z" fill="#BA997D"/>
<path opacity="0.5" fill-rule="evenodd" clip-rule="evenodd" d="M77.4062 72C78.625 75.4062 78 79.1875 75.9688 82.125C78.0312 80.4688 80.75 76.375 77.4062 72Z" fill="#BA997D"/>
<path opacity="0.5" fill-rule="evenodd" clip-rule="evenodd" d="M104.906 69.5312C106.969 72.5 107.344 76.3125 106.125 79.6875C107.687 77.5625 109.25 72.9062 104.906 69.5312Z" fill="#BA997D"/>
<path opacity="0.5" fill-rule="evenodd" clip-rule="evenodd" d="M116.5 65.4688C117.156 69.0312 115.906 72.6562 113.438 75.2187C115.75 73.9375 119.094 70.375 116.5 65.4688Z" fill="#BA997D"/>
<path opacity="0.5" fill-rule="evenodd" clip-rule="evenodd" d="M97.5944 90.2187C95.3757 87.3437 94.8444 83.5625 95.8757 80.1562C94.4069 82.3438 93.0944 87.0625 97.5944 90.2187Z" fill="#BA997D"/>
<path opacity="0.5" fill-rule="evenodd" clip-rule="evenodd" d="M100 106.062C97.0313 104 95.3438 100.562 95.2813 97C94.5626 99.5625 94.7188 104.438 100 106.062Z" fill="#BA997D"/>
<path opacity="0.5" fill-rule="evenodd" clip-rule="evenodd" d="M104.781 89.2188C105.5 92.75 104.344 96.4062 101.906 99.0312C104.188 97.6875 107.469 94.0625 104.781 89.2188Z" fill="#BA997D"/>
<path fill-rule="evenodd" clip-rule="evenodd" d="M45.2187 71.75C46.7812 75 46.5625 78.8125 44.875 81.9688C46.75 80.0938 49 75.75 45.2187 71.75Z" fill="#E8CAB1"/>
<path fill-rule="evenodd" clip-rule="evenodd" d="M58.25 63.875C60.4688 66.75 61 70.5312 59.9688 73.9375C61.4375 71.7187 62.75 67.0312 58.25 63.875Z" fill="#E8CAB1"/>
<path fill-rule="evenodd" clip-rule="evenodd" d="M100.156 57.9062C102.719 60.4688 103.75 64.1562 103.156 67.6562C104.313 65.3125 105.031 60.4688 100.156 57.9062Z" fill="#E8CAB1"/>
<path fill-rule="evenodd" clip-rule="evenodd" d="M68.8443 84.4688C65.4693 83.1875 63.0006 80.2812 62.0631 76.8438C61.9693 79.4688 63.3131 84.1563 68.8443 84.4688Z" fill="#E8CAB1"/>
<path fill-rule="evenodd" clip-rule="evenodd" d="M44.4696 103.438C42.5321 100.375 42.3446 96.5625 43.6883 93.25C42.0008 95.3125 40.2508 99.875 44.4696 103.438Z" fill="#E8CAB1"/>
<path fill-rule="evenodd" clip-rule="evenodd" d="M97.9688 73.5C100.406 76.1562 101.281 79.875 100.562 83.375C101.844 81.0625 102.75 76.2812 97.9688 73.5Z" fill="#E8CAB1"/>
<path fill-rule="evenodd" clip-rule="evenodd" d="M109.969 59.4062C112.062 62.375 112.438 66.1563 111.281 69.5312C112.844 67.4062 114.375 62.75 109.969 59.4062Z" fill="#E8CAB1"/>
<path fill-rule="evenodd" clip-rule="evenodd" d="M102.437 104.406C103.469 107.875 102.625 111.594 100.438 114.437C102.594 112.906 105.5 109 102.437 104.406Z" fill="#E8CAB1"/>
<path fill-rule="evenodd" clip-rule="evenodd" d="M111.812 76.3438C113.187 79.6875 112.75 83.4688 110.844 86.5C112.844 84.75 115.344 80.5625 111.812 76.3438Z" fill="#E8CAB1"/>
<path fill-rule="evenodd" clip-rule="evenodd" d="M40.3446 113.313C37.3758 113.407 28.9696 118.063 30.4383 117.845C31.7196 117.657 33.2196 116.72 33.8446 116.595C34.7196 116.438 32.1883 118.47 33.7196 118.595C35.2508 118.72 37.0633 116.501 38.0633 116.376C39.4383 116.188 36.0321 118.688 37.3758 119.126C38.7508 119.563 40.4383 117.751 41.5321 116.188C42.3758 114.907 42.6571 113.22 40.3446 113.313Z" fill="#E8CAB1"/>
<path fill-rule="evenodd" clip-rule="evenodd" d="M94.7199 114.75C92.9699 115.75 89.8137 116.469 87.1262 116.344C84.4387 116.25 81.0324 116.875 80.6262 118C80.2199 119.094 82.2199 117.656 82.9387 117.625C83.6262 117.594 82.4074 118.219 82.6262 118.906C82.8449 119.594 86.0324 116.937 86.3137 117.469C86.5949 118 85.5324 118.031 85.6262 119.125C85.7199 120.219 89.0012 118.469 91.2199 117.531C94.7824 116.031 95.6262 114.219 94.7199 114.75Z" fill="#E8CAB1"/>
<path opacity="0.5" fill-rule="evenodd" clip-rule="evenodd" d="M85.4062 57.3125C87.6562 59.6562 88.2812 62.5937 87.3125 65.1562C88.7187 63.5625 89.9375 60.0625 85.4062 57.3125Z" fill="#BA997D"/>
<path fill-rule="evenodd" clip-rule="evenodd" d="M77.0312 58.6562C79.375 60.5312 80.125 63.0938 79.2188 65.5312C80.5938 63.9375 81.75 60.625 77.0312 58.6562Z" fill="#E8CAB1"/>
<path fill-rule="evenodd" clip-rule="evenodd" d="M92.8447 97.9688C90.5947 95.1563 89.9697 91.375 90.9385 87.9375C89.501 90.1562 88.251 94.875 92.8447 97.9688Z" fill="#E8CAB1"/>
</svg>
