<svg width="150" height="150" viewBox="0 0 150 150" fill="none" xmlns="http://www.w3.org/2000/svg">
<path d="M64.0072 82.7834C67.103 82.1552 69.9788 80.7889 72.8389 79.4855C81.529 75.5437 91.1778 72.1358 100.465 74.3187C107.112 75.8892 112.832 80.4435 116.494 86.207C122.261 95.2842 123.188 105.523 122.026 112.245C121.098 117.632 116.573 116.627 112.188 119.909C108.354 122.783 103.482 123.866 98.7522 124.542C83.9333 126.662 68.6588 125.468 54.3428 121.071C51.9542 120.333 49.5813 119.5 47.4126 118.26C39.3982 113.611 35.5638 103.639 36.1767 94.389C36.3339 92.0333 36.7582 89.6463 37.9367 87.6047C40.3411 83.443 45.684 81.3229 50.3041 81.0559C55.1128 80.7732 58.9157 83.8042 64.0072 82.7834Z" fill="#FBB857"/>
<path d="M36.461 94.7508C36.6182 92.3951 37.0425 90.008 38.2211 87.9664C39.8554 85.1396 42.8412 83.2551 46.0312 82.25C45.3869 82.8939 44.8212 83.6163 44.3655 84.4015C43.1869 86.4431 42.7626 88.8302 42.6054 91.1858C41.9926 100.436 45.8269 110.408 53.8414 115.057C56.01 116.313 58.3829 117.145 60.7715 117.868C75.0718 122.265 90.3621 123.459 105.181 121.338C107.994 120.93 110.854 120.38 113.51 119.407C113.18 119.705 112.818 119.988 112.457 120.255C108.622 123.129 103.751 124.212 99.0208 124.888C84.202 127.008 68.9274 125.814 54.6114 121.417C52.2228 120.679 49.8499 119.847 47.6812 118.606C39.6825 113.973 35.8639 104.001 36.461 94.7508Z" fill="#E2A350"/>
<path d="M53.6358 104.566C53.5258 104.848 53.3844 105.147 53.1016 105.257C52.8187 105.367 52.4258 105.068 52.5673 104.801C51.9701 107.408 51.3729 110.031 50.7915 112.638C49.5186 111.947 48.3715 111.052 47.3972 109.984C46.5014 113.172 46.1871 116.517 46.4386 119.815C43.8142 117.962 41.3785 115.81 39.2099 113.454C39.1313 114.491 39.257 115.543 39.6027 116.517C35.6584 111.146 33.5212 104.487 33.5997 97.8284C33.6155 96.1481 33.804 94.4049 34.6998 92.9915C35.5955 91.5938 37.0727 90.6986 38.5813 90.039C40.9385 89.0025 43.4999 88.4529 46.0614 88.3743C47.8843 88.3272 51.7501 88.233 53.2587 89.4265C54.8144 90.6672 54.9559 94.7504 55.003 96.5878C55.0973 99.3046 54.6259 102.037 53.6358 104.566Z" fill="#EFE1CA"/>
<path d="M47.0979 62.1318C44.5521 58.2842 43.7664 53.5572 43.4678 48.9558C43.1692 44.3543 43.3107 39.6901 42.3678 35.1829C41.7863 32.3561 40.7806 29.6393 39.5863 27.0009C38.2977 24.1584 36.7105 21.363 34.3219 19.3528C34.0705 19.133 33.7876 18.9288 33.4576 18.8974C32.6719 18.8189 32.2004 19.714 31.9962 20.4679C31.3361 22.9335 31.2576 25.509 31.179 28.0531C31.0219 33.267 30.8804 38.5751 32.389 43.5691C33.5048 47.244 35.4691 50.589 37.0091 54.1068C38.5491 57.6246 39.6649 61.5193 38.9263 65.2884L47.0979 62.1318Z" fill="#E2A350"/>
<path d="M53.7304 65.2882C53.7932 60.6711 55.789 56.3209 58.1305 52.3477C60.4719 48.3745 63.2063 44.5897 64.9663 40.3338C66.0663 37.664 66.7735 34.8529 67.2606 32.0104C67.7792 28.9323 68.0464 25.7286 67.2135 22.7134C67.1192 22.3993 67.0092 22.0695 66.7578 21.8496C66.1606 21.3471 65.2492 21.8182 64.652 22.3207C62.7191 23.9854 61.1948 26.0741 59.7019 28.1471C56.6376 32.3716 53.5261 36.6903 51.9861 41.6687C50.8389 45.3278 50.5875 49.2068 49.8803 52.9759C49.1731 56.7449 47.916 60.5925 45.1816 63.3094L53.7304 65.2882Z" fill="#FBB857"/>
<path d="M19.1266 75.7167C25.821 72.827 27.3296 64.9905 34.1969 61.8339C37.0255 60.5304 42.4313 59.918 45.5428 59.918C47.79 59.918 50.0844 60.0122 52.2372 60.7189C55.773 61.881 58.6488 64.6293 60.5345 67.833C63.0332 72.0889 63.8503 77.5384 61.9646 82.0456C61.666 85.1393 58.9631 86.4585 56.4645 88.3588C53.6673 90.4789 50.5558 92.3477 47.0986 92.9131C42.6828 93.6198 32.2797 94.6877 28.8225 92.9288C23.9196 90.4318 20.6824 85.4691 18.3566 80.4751C17.3194 78.2137 17.9009 76.2349 19.1266 75.7167Z" fill="#FBB857"/>
<path d="M61.5717 40.1616C59.1517 44.873 55.6316 49.019 53.7302 53.9659C52.8659 56.2116 52.3159 58.6458 50.8544 60.5774C50.713 60.7659 50.5558 60.9543 50.3358 61.0486C49.8801 61.2213 49.3615 60.8444 49.2201 60.3733C49.0786 59.9022 49.1886 59.3996 49.3301 58.9285C50.2415 55.6462 51.7501 52.5525 52.473 49.2231C52.913 47.1972 53.0387 45.1242 53.4944 43.0984C54.3587 39.2508 56.3545 35.7644 58.3188 32.3408C59.8589 29.6553 61.4303 26.9228 63.6304 24.7398C65.2332 23.1537 65.359 24.8498 65.2961 26.2475C65.2175 27.8964 65.0132 29.5454 64.6989 31.163C64.0704 34.2882 63.0332 37.3191 61.5717 40.1616Z" fill="#B28967"/>
<path d="M52.3308 54.2011C54.2479 49.2542 57.7523 45.1082 60.1723 40.3969C61.6338 37.5544 62.671 34.5077 63.2838 31.3825C63.5981 29.765 63.8024 28.116 63.881 26.467C63.9124 25.7918 63.8967 25.0536 63.6924 24.6453C65.201 23.2162 65.3267 24.8652 65.2639 26.2315C65.1853 27.8804 64.981 29.5294 64.6667 31.147C64.0538 34.2722 63.0167 37.3188 61.5552 40.1613C59.1352 44.8727 55.6151 49.0187 53.7136 53.9656C52.8493 56.2113 52.2993 58.6455 50.8379 60.5771C50.6964 60.7656 50.5393 60.9541 50.3193 61.0483C50.0207 61.1582 49.6907 61.0326 49.4707 60.797C50.9164 58.8811 51.4665 56.4469 52.3308 54.2011Z" fill="#9B775C"/>
<path d="M36.7746 68.1944C37.7331 67.0009 39.2417 66.2628 40.7661 66.2471C41.5518 66.2471 42.919 66.2471 43.7676 67.2522C44.2704 67.8489 44.2076 69.1995 43.4847 69.5136C43.4061 69.4351 40.8918 70.4873 40.8918 70.4873C39.7918 71.6023 38.5189 72.5603 37.1517 73.3141C36.9788 73.4083 37.1674 73.4083 36.9788 73.4083C36.5074 73.4083 35.8631 72.9686 35.7688 72.4974C35.4545 71.0212 35.8317 69.388 36.7746 68.1944Z" fill="#E2A350"/>
<path d="M44.0654 68.916C44.0654 68.916 39.5553 67.801 37.811 69.073C35.6738 70.6121 36.4124 73.1405 36.4124 73.1405C36.4124 73.1405 37.701 75.0878 40.7811 74.1456C42.8868 73.486 44.0654 68.916 44.0654 68.916Z" fill="#3F3D3A"/>
<path d="M38.9893 70.9268C38.8793 71.1781 38.7222 71.398 38.6279 71.6492C38.4864 72.0104 38.3922 72.4816 38.015 72.5915C37.7793 72.6543 37.5279 72.5444 37.3864 72.3559C37.245 72.1675 37.1821 71.9162 37.1821 71.6806C37.1664 71.0525 37.5279 70.2358 38.0936 69.906C38.8322 69.4977 39.3036 70.2358 38.9893 70.9268Z" fill="white"/>
<path d="M25.8043 79.2813C26.0243 79.8466 26.0557 80.4748 26.04 81.0873C25.9928 82.1709 25.71 83.2859 25.0342 84.1183C24.3428 84.9663 23.1956 85.4688 22.1585 85.2019C21.2785 84.9663 20.6184 84.2596 20.0842 83.5215C19.3456 82.5007 18.7641 81.2915 18.8113 80.0351C18.8741 78.5432 20.3042 76.7372 21.8913 76.6901C23.3999 76.6586 25.2857 77.8679 25.8043 79.2813Z" fill="#EFE1CA"/>
<path d="M19.1266 75.7162C19.3152 75.6377 19.5038 75.5434 19.6923 75.4492C20.4152 75.512 21.1381 75.8418 21.6881 76.2973C22.1124 76.6585 22.4581 77.2552 22.2381 77.7578C22.1595 77.9305 22.0338 78.0876 21.8924 78.2289C21.0438 79.1398 20.1952 80.0506 19.3466 80.9772C19.2523 81.0871 19.1423 81.1971 19.0166 81.2599C18.938 81.307 18.8595 81.3227 18.7652 81.3384C18.6237 81.0557 18.4823 80.7573 18.3566 80.4746C17.3194 78.2132 17.9009 76.2501 19.1266 75.7162Z" fill="#3F3D3A"/>
<path d="M34.7635 87.3064C32.532 85.2177 30.112 83.3489 27.5191 81.7156C27.079 81.4329 27.4876 80.7419 27.9276 81.0246C29.9862 82.3124 31.9506 83.7572 33.7892 85.3433C34.3078 85.7988 34.8263 86.2542 35.3292 86.741C35.7221 87.0865 35.1406 87.6519 34.7635 87.3064Z" fill="#8E6D54"/>
<path d="M32.0592 88.6402C30.1734 86.7871 28.2405 84.9811 26.2605 83.2379C26.1033 83.0965 26.1191 82.8139 26.2605 82.6725C26.4176 82.5155 26.6691 82.5312 26.8262 82.6725C28.8062 84.4157 30.7549 86.2217 32.6249 88.0749C33.002 88.4204 32.4206 89.0014 32.0592 88.6402Z" fill="#8E6D54"/>
<path d="M29.043 88.5C27.8644 87.385 26.6858 86.27 25.5072 85.155C25.13 84.7938 25.6958 84.2284 26.0729 84.5896C27.2515 85.7046 28.4301 86.8196 29.6087 87.9347C30.0016 88.2802 29.4201 88.8455 29.043 88.5Z" fill="#8E6D54"/>
<path d="M131.642 111.569C134.219 112.15 135.963 115.165 135.178 117.678C134.392 120.206 131.249 121.698 128.797 120.709C129.269 122.813 127.336 124.839 125.23 125.31C122.574 125.923 119.652 124.651 118.08 122.436C114.827 117.851 117.609 112.008 121.522 108.836C123.942 106.873 133.072 106.528 131.642 111.569Z" fill="#EFE1CA"/>
<path d="M132.461 116.862C132.461 116.8 132.461 116.721 132.461 116.658C132.461 116.627 132.461 116.595 132.446 116.564C132.461 116.627 132.446 116.533 132.43 116.517C132.414 116.454 132.398 116.391 132.383 116.328C132.367 116.297 132.367 116.266 132.351 116.25C132.351 116.234 132.304 116.124 132.336 116.187C132.288 116.077 132.226 115.952 132.147 115.857C132.131 115.826 132.116 115.81 132.1 115.779C132.053 115.716 132.116 115.794 132.068 115.747C132.021 115.7 131.974 115.637 131.927 115.59C131.88 115.543 131.833 115.496 131.786 115.465C131.77 115.465 131.707 115.402 131.738 115.433C131.707 115.418 131.691 115.402 131.66 115.386C131.55 115.308 131.44 115.245 131.33 115.198C131.298 115.182 131.298 115.182 131.33 115.198C131.314 115.198 131.298 115.182 131.283 115.182C131.251 115.166 131.22 115.151 131.188 115.151C131.125 115.135 131.078 115.119 131.015 115.103C130.984 115.088 130.937 115.088 130.905 115.088C130.968 115.103 130.89 115.088 130.874 115.088C130.811 115.088 130.733 115.088 130.67 115.088C130.497 115.088 130.355 114.946 130.355 114.774C130.355 114.601 130.497 114.46 130.67 114.46C131.958 114.428 133.121 115.606 133.074 116.894C133.074 117.067 132.933 117.208 132.76 117.208C132.603 117.176 132.461 117.035 132.461 116.862Z" fill="#FFF0D9"/>
<path d="M130.934 113.565C130.243 113.125 129.347 113.109 128.64 113.533C128.294 113.737 127.98 113.203 128.326 112.999C129.206 112.465 130.384 112.465 131.249 113.031C131.39 113.125 131.453 113.313 131.359 113.455C131.28 113.596 131.076 113.659 130.934 113.565Z" fill="#FFF0D9"/>
<path d="M129.554 110.534C129.02 110.157 128.407 109.937 127.763 109.906C127.276 109.89 126.663 109.953 126.395 110.424C126.207 110.769 125.657 110.455 125.861 110.11C126.207 109.482 126.977 109.277 127.653 109.277C128.454 109.277 129.24 109.529 129.884 109.984C130.026 110.078 130.088 110.251 129.994 110.408C129.9 110.549 129.696 110.628 129.554 110.534Z" fill="#FFF0D9"/>
<path d="M126.6 120.961C126.961 120.49 126.977 119.783 126.726 119.265C126.443 118.684 125.94 118.292 125.359 118.04C125.516 117.946 125.673 117.867 125.83 117.773C125.83 117.836 125.846 117.899 125.846 117.962C125.861 118.134 125.689 118.276 125.531 118.276C125.343 118.276 125.233 118.134 125.217 117.962C125.217 117.899 125.201 117.836 125.201 117.773C125.17 117.506 125.484 117.412 125.673 117.506C126.396 117.82 127.024 118.386 127.323 119.108C127.637 119.878 127.543 120.741 127.024 121.401C126.914 121.527 126.694 121.511 126.584 121.401C126.474 121.26 126.49 121.087 126.6 120.961Z" fill="#FFF0D9"/>
<path d="M129.097 119.233C129.082 119.123 129.097 119.264 129.097 119.202C129.097 119.17 129.082 119.139 129.082 119.123C129.066 119.06 129.066 119.013 129.05 118.95C129.019 118.84 128.987 118.73 128.94 118.621C128.924 118.558 128.924 118.573 128.893 118.511C128.862 118.464 128.846 118.401 128.814 118.354C128.767 118.259 128.704 118.149 128.642 118.055C128.532 117.898 128.39 117.741 128.233 117.584C128.06 117.427 127.903 117.317 127.699 117.207C127.557 117.129 127.51 116.924 127.589 116.783C127.683 116.626 127.871 116.595 128.013 116.673C128.972 117.191 129.6 118.165 129.742 119.233C129.757 119.406 129.584 119.547 129.427 119.547C129.223 119.531 129.129 119.39 129.097 119.233Z" fill="#FFF0D9"/>
<path d="M126.976 115.275C126.914 115.228 126.835 115.181 126.772 115.149C126.709 115.118 126.756 115.149 126.772 115.149C126.756 115.149 126.741 115.134 126.725 115.134C126.694 115.118 126.646 115.102 126.615 115.102C126.568 115.087 126.536 115.087 126.489 115.071C126.489 115.071 126.426 115.055 126.474 115.071C126.521 115.071 126.442 115.071 126.442 115.071C126.364 115.071 126.285 115.071 126.191 115.071C126.191 115.071 126.128 115.071 126.175 115.071C126.222 115.071 126.144 115.071 126.144 115.071C126.112 115.071 126.065 115.087 126.034 115.102C126.002 115.118 125.955 115.118 125.924 115.134C125.908 115.134 125.876 115.149 125.861 115.149C125.829 115.165 125.908 115.134 125.845 115.149C125.782 115.181 125.704 115.228 125.641 115.259C125.641 115.259 125.578 115.306 125.609 115.275C125.641 115.244 125.578 115.306 125.578 115.306C125.546 115.338 125.515 115.369 125.484 115.401C125.374 115.526 125.154 115.526 125.044 115.401C124.934 115.275 124.918 115.087 125.044 114.961C125.609 114.364 126.631 114.239 127.306 114.741C127.432 114.835 127.511 115.024 127.416 115.165C127.322 115.291 127.118 115.385 126.976 115.275Z" fill="#FFF0D9"/>
<path d="M91.8533 124.526C87.6575 122.877 83.4146 121.071 80.0831 118.04C76.7359 115.024 74.4101 110.517 75.0858 106.073C75.4158 103.953 76.3901 101.974 77.5845 100.184C78.9202 98.205 80.5545 96.4147 82.4717 94.9856C86.7461 91.8133 92.2147 90.6355 97.542 90.4627C99.4906 90.3999 101.486 90.4784 103.294 91.1851C105.085 91.8918 106.594 93.1953 107.914 94.6087C111.497 98.4877 113.948 103.686 113.477 108.931C113.288 111.083 112.549 113.281 110.931 114.71C108.244 117.097 104.174 116.658 100.622 116.077L91.8533 124.526Z" fill="#E2A350"/>
<path d="M110.789 94.9538C106.625 91.0277 100.261 90.4309 94.6191 91.3732C90.659 92.0328 86.6046 93.4619 83.9803 96.5085C82.3931 98.3459 81.4188 100.686 80.9945 103.089C80.2245 107.392 81.1359 111.962 83.5246 115.621C85.9132 119.28 89.7318 121.965 93.9748 122.986C90.549 122.923 86.6832 122.389 83.3046 122.955C81.8117 123.206 79.8002 123.19 78.6845 124.761C77.8202 125.986 78.2759 128.436 79.4545 129.378C80.1459 129.928 81.0888 129.975 81.9688 129.99C89.999 130.147 109.721 129.943 113.807 129.174C116.887 128.593 119.212 122.939 120.422 120.05C121.632 117.16 122.701 113.721 122.717 110.58C122.748 106.245 121.365 102.146 119.511 98.236C117.641 94.3256 114.592 90.9177 110.695 89.0332L110.789 94.9538Z" fill="#FBB857"/>
<path d="M68.314 106.136C67.1669 108.491 66.7583 111.177 67.1511 113.768C67.4654 115.825 66.5383 119.029 70.7812 120.395C73.8298 121.369 64.8097 123.521 63.3482 123.112C61.8868 122.704 60.6296 121.589 60.0796 120.176C59.4353 118.558 59.7024 116.705 60.221 115.04C61.2267 111.805 63.1439 108.884 65.7211 106.67L68.314 106.136Z" fill="#E2A350"/>
<path d="M68.566 107C64.9673 112.167 64.5745 118.841 63.1287 124.966C62.9716 125.61 62.7987 126.269 62.4373 126.835C61.2273 128.719 58.1943 129.944 55.9629 129.897C50.337 129.803 47.8227 129.191 42.3226 130.321C41.1126 130.572 39.7297 130.824 38.724 130.101C37.9697 129.583 37.6239 128.657 37.3725 127.761C37.1211 126.819 36.9325 125.798 37.2625 124.887C37.8911 123.144 40.044 122.5 41.8826 122.642C43.7212 122.783 43.0298 122.657 44.8841 122.595C47.807 122.5 51.7199 122.171 53.2757 119.689C54.8314 117.208 53.9514 113.439 54.69 110.612C55.4286 107.785 56.2457 104.896 57.9586 102.524C58.5086 101.755 59.1529 101.048 59.8601 100.42L68.566 107Z" fill="#FBB857"/>
<path d="M78.6688 124.746C79.1246 124.086 79.7531 123.709 80.4289 123.474C79.6431 124.118 79.046 125.044 79.0146 126.065C78.9831 127.18 79.7689 128.342 80.8689 128.515C80.7589 127.4 81.4503 126.253 82.4875 125.814C81.9375 126.442 82.1889 127.478 82.7861 128.044C83.3832 128.609 84.2475 128.813 85.049 128.954C86.369 129.174 87.689 129.284 89.0247 129.379C94.9806 129.771 100.968 129.803 106.939 129.473C110.114 129.3 113.398 128.97 116.242 127.635C115.488 128.452 114.671 129.033 113.791 129.19C109.705 129.96 89.9833 130.164 81.9532 130.007C81.0732 129.991 80.1303 129.944 79.4389 129.394C78.2603 128.421 77.8045 125.971 78.6688 124.746Z" fill="#E2A350"/>
<path d="M37.9224 123.866C37.8124 124.4 37.8124 124.997 37.8596 125.531C37.9696 126.819 38.3153 128.232 39.3839 128.97C39.3525 127.274 40.6882 125.657 42.3697 125.39C41.9139 125.939 41.9611 126.803 42.3854 127.384C42.794 127.965 43.5011 128.295 44.2083 128.421C44.9154 128.546 45.6383 128.483 46.3455 128.421C49.8027 128.154 53.2913 128.028 56.7642 128.044C57.8642 128.044 58.98 128.075 60.0643 127.871C60.85 127.73 61.5572 127.243 62.3115 127.023C61.0229 128.797 58.1314 129.912 55.9785 129.881C50.3527 129.787 47.8383 129.174 42.3382 130.305C41.1282 130.556 39.7453 130.808 38.7396 130.085C37.9853 129.567 37.6396 128.64 37.3881 127.745C37.1367 126.803 36.9481 125.782 37.2781 124.871C37.4196 124.494 37.6396 124.149 37.9224 123.866Z" fill="#E2A350"/>
<path d="M52.7565 92.5512C53.8722 94.4514 54.1551 96.7914 53.5265 98.9115C53.3851 99.414 52.5993 99.1941 52.7408 98.6916C53.3065 96.7757 53.0708 94.6713 52.0493 92.9595C51.7979 92.5198 52.505 92.1114 52.7565 92.5512Z" fill="#FFF0D9"/>
<path d="M51.3099 96.9797C51.4985 98.4088 51.4356 99.8536 51.1842 101.267C51.1371 101.487 50.8856 101.597 50.6813 101.55C50.4613 101.487 50.367 101.267 50.3985 101.047C50.6499 99.6966 50.6813 98.3303 50.4928 96.964C50.4613 96.7441 50.697 96.5557 50.9013 96.5557C51.1528 96.5714 51.2785 96.7598 51.3099 96.9797Z" fill="#FFF0D9"/>
<path d="M51.4831 104.346C51.2631 105.32 50.9959 106.262 50.6817 107.22C50.6188 107.424 50.3988 107.565 50.1788 107.502C49.9745 107.44 49.8331 107.22 49.8959 107C50.2102 106.058 50.4774 105.1 50.6974 104.126C50.7445 103.906 50.9959 103.781 51.2002 103.843C51.4202 103.906 51.546 104.126 51.4831 104.346Z" fill="#FFF0D9"/>
<path d="M48.3718 105.052C48.3718 106.104 48.3718 107.172 48.3718 108.224C48.3718 108.742 47.5703 108.742 47.5703 108.224C47.5703 107.172 47.5703 106.104 47.5703 105.052C47.5703 104.534 48.3718 104.534 48.3718 105.052Z" fill="#FFF0D9"/>
<path d="M43.7514 114.757C43.3114 113.548 42.7614 112.402 42.0857 111.302C41.8185 110.863 42.51 110.454 42.7771 110.894C43.4686 112.056 44.05 113.281 44.5214 114.553C44.6 114.757 44.4429 114.993 44.2386 115.056C44.0186 115.103 43.8143 114.961 43.7514 114.757Z" fill="#FFF0D9"/>
<path d="M40.3729 112.605C39.6815 111.443 38.99 110.296 38.2986 109.134C38.0314 108.695 38.7229 108.286 38.99 108.726C39.6815 109.888 40.3729 111.035 41.0643 112.197C41.3472 112.652 40.64 113.06 40.3729 112.605Z" fill="#FFF0D9"/>
<path d="M43.2957 109.041C43.0914 108.46 42.8714 107.878 42.6671 107.313C42.5885 107.109 42.7457 106.858 42.95 106.811C43.1857 106.763 43.3743 106.873 43.4528 107.093C43.6571 107.674 43.8771 108.255 44.0814 108.821C44.16 109.025 44.0028 109.276 43.7986 109.323C43.5628 109.386 43.3743 109.26 43.2957 109.041Z" fill="#FFF0D9"/>
<path d="M39.2585 107.628C38.96 106.639 38.6457 105.65 38.3471 104.66C38.2842 104.456 38.4257 104.22 38.63 104.158C38.85 104.095 39.07 104.236 39.1328 104.44C39.4314 105.43 39.7457 106.419 40.0443 107.408C40.1071 107.613 39.9657 107.848 39.7614 107.911C39.5414 107.974 39.3214 107.832 39.2585 107.628Z" fill="#FFF0D9"/>
<path d="M36.3645 107.502C35.4687 105.272 35.0287 102.87 35.0602 100.467C35.0602 99.9486 35.8773 99.9486 35.8616 100.467C35.8302 102.807 36.2702 105.131 37.1345 107.298C37.2131 107.502 37.0402 107.738 36.8516 107.801C36.6316 107.848 36.4431 107.707 36.3645 107.502Z" fill="#FFF0D9"/>
<path d="M37.8751 99.8384C37.7179 98.7862 37.6551 97.734 37.7494 96.6661C37.7651 96.4463 37.9222 96.2578 38.158 96.2578C38.3622 96.2578 38.5823 96.4463 38.5665 96.6661C38.488 97.6555 38.5194 98.6449 38.6765 99.6186C38.708 99.8384 38.6294 100.058 38.3937 100.121C38.1737 100.184 37.9065 100.058 37.8751 99.8384Z" fill="#FFF0D9"/>
<path d="M41.9599 98.7237C41.8185 98.2525 41.6928 97.7657 41.5513 97.2946C41.4885 97.0904 41.6142 96.8391 41.8342 96.792C42.0542 96.7449 42.2742 96.8548 42.3371 97.0747C42.4785 97.5458 42.6042 98.0327 42.7456 98.5038C42.8085 98.708 42.6828 98.9592 42.4628 99.0063C42.2428 99.0535 42.0228 98.9278 41.9599 98.7237Z" fill="#FFF0D9"/>
<path d="M34.5741 98.4094C34.3541 97.7184 34.2441 96.9803 34.2441 96.2579C34.2441 96.0538 34.4327 95.8496 34.6527 95.8496C34.8727 95.8653 35.0613 96.0224 35.0613 96.2579C35.0613 96.4307 35.0613 96.5877 35.077 96.7605C35.077 96.8547 35.0927 96.9332 35.1084 97.0274C35.1084 97.0589 35.1242 97.106 35.1242 97.1374C35.1084 97.0589 35.1242 97.1845 35.1399 97.2002C35.187 97.53 35.2656 97.8755 35.3756 98.1896C35.4384 98.3937 35.297 98.645 35.0927 98.6921C34.857 98.7549 34.6527 98.6293 34.5741 98.4094Z" fill="#FFF0D9"/>
</svg>
