<svg width="150" height="150" viewBox="0 0 150 150" fill="none" xmlns="http://www.w3.org/2000/svg">
<path d="M49.125 39.5625C46.125 28.375 38.5 19.875 16.25 20.4375C26.9375 24.1875 27.625 33.9375 26.6875 45.75C32.875 46 43.5 45.5625 49.125 39.5625Z" fill="#E0D0C5"/>
<path d="M52.249 66.625C50.999 57.9375 51.374 48 49.124 39.5625C43.4365 45.5625 32.8115 46 26.6865 45.6875C25.9365 54.6875 24.249 64.8125 25.1865 74.4375C31.3115 75.625 44.624 76.75 52.249 66.625Z" fill="#A8A294"/>
<path d="M70.5 107.375L68.875 87.6875C65.9375 87 63.5625 86 61.5625 84.6875C58 96.1875 49.625 101.125 43.9375 103.25C56.75 110 70.5 107.375 70.5 107.375Z" fill="#A8A294"/>
<path d="M61.5625 84.625C55.5 80.625 53.3125 74.0625 52.25 66.625C44.625 76.75 31.3125 75.625 25.1875 74.4375C25.75 79.9375 27.125 85.25 30.0625 90.0625C33.9375 96.375 38.875 100.5 43.875 103.188C49.5625 101.125 58 96.125 61.5625 84.625Z" fill="#E0D0C5"/>
<path d="M103.125 99.0625C103.125 82.9375 94.4375 62.25 83.625 62.25C72.8125 62.25 64.125 82.9375 64.125 99.0625C64.125 115.188 72.9375 120.625 83.6875 120.625C94.4375 120.625 103.125 115.188 103.125 99.0625Z" fill="#78746A"/>
<path d="M72.6248 87.8126C69.8748 77.6251 61.1248 69.9376 57.3748 76.8126C47.9998 93.8126 61.9373 111.5 60.7498 115.438C60.3123 116.875 56.4998 116.25 56.1248 119.563C56.0623 120.438 56.5623 121.188 57.3748 121.813C57.4998 123.438 59.3123 124.375 61.3748 124.188C64.8748 123.813 67.6873 122.563 68.1248 121.625V121.563C69.6873 118.375 74.8748 96.1251 72.6248 87.8126Z" fill="#78746A"/>
<path opacity="0.5" d="M59.3763 118.75C59.3763 118.75 56.3763 119.812 56.4388 118.375C56.3138 118.688 56.1888 119.063 56.1263 119.5C56.0638 120.375 56.5638 121.125 57.3763 121.75C57.4388 121.063 57.2513 119.75 59.3763 118.75Z" fill="#78746A"/>
<path d="M94.7495 87.8126C97.4995 77.6251 106.249 69.9376 109.999 76.8126C119.374 93.8126 105.437 111.5 106.624 115.438C107.062 116.875 110.874 116.25 111.249 119.563C111.312 120.438 110.812 121.188 109.999 121.813C109.874 123.438 108.062 124.375 105.999 124.188C102.499 123.813 99.687 122.563 99.2495 121.625V121.563C97.6245 118.375 92.4995 96.1251 94.7495 87.8126Z" fill="#78746A"/>
<path opacity="0.5" d="M108 118.75C108 118.75 111 119.812 110.937 118.375C111.062 118.688 111.187 119.063 111.25 119.5C111.312 120.375 110.812 121.125 110 121.75C109.937 121.063 110.125 119.75 108 118.75Z" fill="#78746A"/>
<path d="M75.8115 107.125C75.874 111.125 74.499 118.563 74.749 123.313C74.874 125.813 76.3115 126.938 75.4365 128.875C74.9365 130 71.749 134.375 67.4365 134.813C64.874 135.063 62.6865 133.938 62.5615 131.938C61.5615 131.188 60.874 130.188 60.999 129.125C61.4365 125.063 66.124 125.813 66.624 124.063C67.374 121.625 65.8115 110.563 65.999 106.5C66.124 103.938 75.749 104.375 75.8115 107.125Z" fill="#443835"/>
<path opacity="0.5" d="M64.999 128.25C64.999 128.25 61.3115 129.562 61.374 127.812C61.1865 128.188 61.0615 128.625 60.999 129.187C60.874 130.25 61.5615 131.187 62.5615 132C62.624 131.062 62.4365 129.437 64.999 128.25Z" fill="#443835"/>
<path d="M91.5626 107.125C91.5001 111.125 92.8751 118.563 92.6251 123.313C92.5001 125.813 91.0626 126.938 91.9376 128.875C92.4376 130 95.6251 134.375 99.9376 134.813C102.5 135.063 104.688 133.938 104.813 131.938C105.813 131.188 106.5 130.188 106.375 129.125C105.938 125.063 101.25 125.813 100.75 124.063C100 121.625 101.563 110.563 101.375 106.5C101.188 103.938 91.6251 104.375 91.5626 107.125Z" fill="#443835"/>
<path opacity="0.5" d="M102.375 128.25C102.375 128.25 106.063 129.562 106 127.812C106.188 128.188 106.312 128.625 106.375 129.187C106.5 130.25 105.812 131.187 104.812 132C104.687 131.062 104.937 129.437 102.375 128.25Z" fill="#443835"/>
<path d="M108.625 78.6875C106.125 56.8125 97.7496 59.9375 94.7496 57.625L83.6871 89.5L72.6246 57.625C69.6246 59.9375 61.2496 56.8125 58.7496 78.6875C57.2496 91.8125 55.3746 108.25 66.0621 111.812C70.0621 113.125 74.4371 113.25 75.7496 112.812C79.6871 111.5 81.6871 109.25 81.7496 103.375C82.9996 103.562 83.6871 103.562 83.6871 103.562C83.6871 103.562 84.3746 103.562 85.6246 103.375C85.6871 109.188 87.7496 111.5 91.6246 112.812C92.9371 113.25 97.3121 113.188 101.312 111.812C112 108.25 110.125 91.75 108.625 78.6875Z" fill="#8F8A7E"/>
<path d="M92.5625 98.375C90.8125 102.875 87.5 104.5 86.625 108.813C86 107.438 85.625 105.687 85.625 103.375C85.625 103.375 91.125 102.062 92.5625 98.375Z" fill="#78746A"/>
<path d="M74.8125 98.375C76.5625 102.875 79.875 104.5 80.75 108.813C81.375 107.438 81.75 105.687 81.75 103.375C81.75 103.375 76.1875 102.062 74.8125 98.375Z" fill="#78746A"/>
<path d="M108.625 72.1875C107.125 61.625 94.6875 47.3125 83.6875 46.75C72.6875 47.3125 60.25 61.6875 58.75 72.1875C58.75 72.1875 62.9375 71.5 67.5 72.1875C67.5 72.1875 66.5625 81.875 69.5625 87.25C69.5625 87.25 73.5625 85 76.8125 84.6875C76.8125 84.6875 79.625 93.25 83.6875 97.625C87.8125 93.25 90.5625 84.6875 90.5625 84.6875C93.8125 85 97.8125 87.25 97.8125 87.25C100.812 81.875 99.875 72.1875 99.875 72.1875C104.438 71.5 108.625 72.1875 108.625 72.1875Z" fill="#A8A294"/>
<path d="M66.6879 47.1248C63.4379 45.4373 58.5004 42.1248 56.1879 37.4998C52.8129 30.8123 53.0629 22.3123 56.5004 19.8748C60.5004 16.9998 67.3754 20.2498 71.5004 25.4373C75.0629 29.8748 76.1879 35.9998 76.8754 38.6873C77.9379 42.9373 70.6254 49.1873 66.6879 47.1248Z" fill="#443835"/>
<path d="M66.1254 41.1874C64.2504 40.1874 61.4379 38.3124 60.1254 35.6249C58.1879 31.7499 58.3129 26.8749 60.3129 25.4999C62.6254 23.8124 66.5629 25.6874 68.9379 28.6874C71.0004 31.2499 71.6254 34.7499 72.0629 36.3124C72.6254 38.8124 68.4379 42.3749 66.1254 41.1874Z" fill="#E0D0C5"/>
<path d="M100.687 47.1248C103.937 45.4373 108.875 42.1248 111.187 37.4998C114.562 30.8123 114.312 22.3123 110.875 19.8748C106.875 16.9998 99.9996 20.2498 95.8746 25.4373C92.3121 29.8748 91.1871 35.9998 90.4996 38.6873C89.4371 42.9373 96.6871 49.1873 100.687 47.1248Z" fill="#443835"/>
<path d="M101.249 41.1874C103.124 40.1874 105.936 38.3124 107.249 35.6249C109.186 31.7499 109.061 26.8749 107.061 25.4999C104.749 23.8124 100.811 25.6874 98.4362 28.6874C96.3737 31.2499 95.7487 34.7499 95.3112 36.3124C94.7487 38.8124 98.9362 42.3749 101.249 41.1874Z" fill="#E0D0C5"/>
<path d="M114.938 54.5625C102 50.25 102.062 28.9375 83.625 28.9375C65.25 28.9375 65.3125 50.25 52.3125 54.5625C60.5 70.625 73.9375 72.25 83.625 72.25C93.375 72.1875 106.812 70.5625 114.938 54.5625Z" fill="#A8A294"/>
<path d="M94.25 43.0623C90.625 39.0623 86.8125 42.1873 83.6875 42.1873C80.5625 42.1873 76.75 39.0623 73.125 43.0623C68.0625 48.6248 58.0625 58.7498 52.375 54.5623C60.5625 70.6248 74 72.2498 83.6875 72.2498C93.375 72.2498 106.812 70.6248 115 54.5623C109.25 58.7498 99.25 48.6248 94.25 43.0623Z" fill="#E0D0C5"/>
<path d="M90.0625 70.438C90.0625 61.938 83.6875 62.563 83.6875 62.563C83.6875 62.563 77.3125 61.938 77.3125 70.438C77.3125 74.313 80.5 75.8755 83.6875 75.8755C86.875 75.8755 90.0625 74.3755 90.0625 70.438Z" fill="#E0D0C5"/>
<path d="M83.6875 54.8125C83.6875 54.8125 72.75 58.8125 72.75 67.5C72.75 73.8125 80.375 73.375 83.6875 73.375C87 73.375 94.625 73.8125 94.625 67.5C94.625 58.8125 83.6875 54.8125 83.6875 54.8125Z" fill="#F9F9FC"/>
<path d="M88.625 66.3125C88.625 63.625 86.875 62.5625 83.6875 62.5625C80.5 62.5625 78.75 63.625 78.75 66.3125C78.75 70.3125 83.6875 72.1875 83.6875 72.1875C83.6875 72.1875 88.625 70.375 88.625 66.3125Z" fill="#443835"/>
<path d="M73.7491 61.4372C71.2491 64.4372 66.6866 63.8747 64.7491 61.9372C62.1241 59.3747 63.4366 55.4997 67.0616 53.8122C72.7491 51.1872 73.3116 47.7497 76.3741 48.7497C79.8116 49.8747 76.5616 58.0622 73.7491 61.4372Z" fill="#443835"/>
<path d="M74.5 54.875C74.5 53.5 73.375 52.4375 72.0625 52.4375C70.75 52.4375 69.625 53.5625 69.625 54.875C69.625 56.25 70.75 57.3125 72.0625 57.3125C73.375 57.3125 74.5 56.25 74.5 54.875Z" fill="#1F1918"/>
<path d="M93.5633 61.4372C96.0633 64.4372 100.626 63.8747 102.563 61.9372C105.188 59.3747 103.876 55.4997 100.251 53.8122C94.5633 51.1872 94.0008 47.7497 90.9383 48.7497C87.5008 49.8747 90.7508 58.0622 93.5633 61.4372Z" fill="#443835"/>
<path d="M97.5625 54.875C97.5625 53.5 96.4375 52.4375 95.125 52.4375C93.75 52.4375 92.6875 53.5625 92.6875 54.875C92.6875 56.25 93.8125 57.3125 95.125 57.3125C96.4375 57.3125 97.5625 56.25 97.5625 54.875Z" fill="#1F1918"/>
</svg>
