<svg width="150" height="150" viewBox="0 0 150 150" fill="none" xmlns="http://www.w3.org/2000/svg">
<path d="M120.63 106.579C119.642 107.034 118.495 107.152 117.438 106.915C117.161 106.856 116.875 106.767 116.598 106.846C116.292 106.935 116.084 107.222 115.818 107.399C114.928 107.973 114.404 107.083 113.614 106.372C113.495 106.826 112.201 107.063 111.875 106.727C111.549 106.391 111.559 105.838 111.746 105.403C111.934 104.968 112.27 104.622 112.557 104.256C113.525 103.001 113.989 101.449 114.434 99.9273C114.701 99.0279 114.968 98.0989 114.938 97.1599C114.899 95.8849 114.335 94.689 113.871 93.5029C113.14 91.6349 112.636 89.6779 112.379 87.6913C113.96 87.1971 115.65 86.2977 117.24 85.8035C118.327 85.4674 119.444 85.1116 120.294 84.3506L120.63 106.579Z" fill="#B3A99D"/>
<path d="M59.6212 88.6408C59.6212 88.6408 54.9571 91.1513 54.1468 91.5862C53.3365 92.0211 53.9491 93.1972 54.5618 95.0653C55.1745 96.9333 54.5519 97.8327 53.5835 98.0304C52.6151 98.2281 51.5084 98.3664 51.5084 98.3664C51.5084 98.3664 50.876 99.9478 49.1566 99.9478C47.4273 99.9379 46.3304 99.0385 45.9846 98.3467C45.6387 97.6548 45.7869 96.6862 45.7869 96.6862C45.7869 96.6862 44.1367 96.192 44.1367 95.1542C44.1466 94.1164 45.53 92.0507 45.53 92.0507C45.53 92.0507 44.9865 89.6984 46.1032 87.8403C47.2198 85.9821 52.9807 79.3798 54.71 79.3897C56.4393 79.3995 60.718 79.8344 62.2892 82.1966C63.8604 84.5589 64.2062 86.2786 63.7813 86.7629C63.3762 87.2373 59.6212 88.6408 59.6212 88.6408Z" fill="#C3BBB0"/>
<path d="M55.9949 79.4482C55.9257 81.9389 56.6471 84.6076 54.7795 86.6238C53.3368 88.1855 52.398 88.3436 50.2735 88.4128C51.815 89.8657 51.0146 90.8738 50.4612 91.0517C49.1766 91.457 52.2004 93.1669 52.4276 94.4913C52.6549 95.8157 52.2992 97.2785 51.3407 98.2174C51.4 98.2669 51.4592 98.3163 51.5185 98.3657C51.6668 98.3459 52.6747 98.2174 53.5739 98.0297C54.5423 97.832 55.1648 96.9326 54.5522 95.0645C53.9395 93.1965 53.3269 92.0203 54.1372 91.5855C54.9475 91.1506 59.6116 88.6401 59.6116 88.6401C59.6116 88.6401 63.3666 87.2366 63.7816 86.7523C64.1966 86.268 63.8607 84.5384 62.2895 82.186C61.0345 80.2884 58.0305 79.636 55.9949 79.4482Z" fill="#B3A99D"/>
<path d="M47.3192 56.0637C47.3192 56.0637 44.5919 55.0852 42.2499 58.6038C39.908 62.1125 37.7637 65.4334 36.7854 66.0166C35.8071 66.5997 32.2992 67.1829 31.5185 66.7974C30.7379 66.4119 28.7912 64.6526 27.6153 64.455C26.4493 64.2573 26.2516 66.0166 26.4493 66.7974C26.6469 67.5782 26.8347 69.1398 26.8347 69.1398C26.8347 69.1398 24.1765 70.1875 23.0599 68.9422C21.8939 67.6375 19.1567 67.6375 19.1567 67.6375C19.1567 67.6375 12.1901 59.5823 11.6071 59.1869C11.0241 58.8015 11.6071 62.6956 14.7297 67.3805C17.8523 72.0654 17.8523 72.0654 17.8523 72.0654C17.8523 72.0654 17.5954 73.3009 18.7614 74.2794C19.9274 75.2579 20.5796 75.0009 20.5796 75.0009L21.7456 77.541C21.7456 77.541 21.1626 80.8619 21.7456 82.4236C22.3286 83.9852 23.5046 84.766 23.5046 84.766C23.5046 84.766 23.5046 85.7445 26.0441 86.3277C28.5837 86.9108 27.8031 88.087 31.7063 86.9108C35.6095 85.7445 41.1432 84.3707 43.4851 82.6213C45.8271 80.8619 47.7145 78.3317 48.4951 78.3317C49.2758 78.3317 50.6394 81.8404 52.2007 81.455C53.762 81.0695 54.5427 80.091 55.7087 80.6742C56.8747 81.2573 56.4893 82.6213 58.2483 82.6213C60.0072 82.6213 60.5902 82.0381 61.3708 82.6213C62.1515 83.2044 63.9104 86.3276 64.6911 88.2846C65.4717 90.2218 67.4184 90.4195 67.4184 90.4195C67.4184 90.4195 67.8038 101.736 67.2207 102.715C66.6377 103.693 62.6851 105.374 62.4875 106.54C62.2898 107.706 64.0982 107.202 64.0982 107.202C64.0982 107.202 64.6812 108.368 66.2425 108.566C67.8038 108.764 69.5627 108.181 69.5627 108.181C69.5627 108.181 74.2466 108.961 74.632 107.983C75.0173 107.004 73.8513 105.64 74.0489 104.474C74.2466 103.308 76.134 96.923 77.0431 94.0666C77.9522 91.2003 78.4759 87.9486 78.4759 87.9486C78.4759 87.9486 98.249 91.4573 105.403 90.4195C112.558 89.3817 116.204 87.4247 116.204 87.4247C116.204 87.4247 117.765 94.9759 118.803 96.5375C119.84 98.0992 118.012 100.145 118.486 102.181C118.872 103.812 117.627 106.174 117.241 106.955C116.846 107.736 117.37 108.645 118.546 108.645C119.712 108.645 120.631 108.26 120.631 108.26C120.631 108.26 121.016 108.517 122.449 108.783C123.882 109.04 124.662 108.655 124.662 108.655C124.662 108.655 127.39 109.564 127.785 108.655C128.17 107.746 126.352 105.789 126.481 105.275C126.609 104.751 129.208 99.9375 129.08 97.5951C128.951 95.2527 128.823 89.9154 129.336 89.2631C129.86 88.6108 131.026 87.83 132.459 83.0166C133.892 78.2032 135.582 71.8282 133.368 66.234C131.155 60.6398 124.406 54.2451 122.064 53.4642C119.722 52.6834 114.909 53.4642 111.135 52.8119C107.36 52.1596 103.457 50.084 100.462 50.084C97.4683 50.084 95.5216 51.9026 92.3991 52.4265C89.2765 52.9503 82.5076 53.4642 79.6518 51.6456C76.7861 49.827 74.1873 48.7794 69.3749 49.0462C64.5626 49.3032 60.9163 49.9555 57.9222 49.0462C54.928 48.1369 52.5861 48.6607 50.511 50.8648C48.4358 53.0689 47.3192 56.0637 47.3192 56.0637Z" fill="#BCB5AC"/>
<path d="M68.9785 98.8106C71.5181 98.0298 72.3185 96.8536 72.3679 95.2129C72.4173 93.5722 71.5774 92.0501 71.1228 90.4687C70.6683 88.8873 69.7493 85.6554 71.1327 84.7658C72.526 83.8664 75.4905 85.7838 76.9332 84.9734C77.6052 84.5978 78.0696 83.9356 78.4846 83.2833C80.0459 80.8519 81.5479 78.3612 82.1309 75.5146C82.5954 77.9065 81.7455 80.6542 82.2297 83.0263C82.6744 85.2106 84.5025 86.6635 83.8306 88.8181C80.6586 88.3437 79.9076 88.0769 79.9076 88.0769C79.9076 88.0769 77.9609 91.2001 77.0419 94.0664C76.1328 96.9327 74.2454 103.308 74.0478 104.474C73.8501 105.64 75.0261 107.014 74.6308 107.983C74.4529 108.427 73.3956 108.507 72.2889 108.467C72.0122 108.348 71.7355 108.23 71.4588 108.121C73.5932 104.909 72.2691 100.827 68.9785 98.8106Z" fill="#B3A99D"/>
<path d="M43.8698 56.8443C43.8698 56.8443 41.9231 55.0257 41.5278 53.3356C41.1424 51.6455 40.4902 50.2124 39.3143 50.9932C38.1483 51.774 38.4052 54.1164 39.3143 55.4211C40.2234 56.7257 38.4052 57.2397 39.5713 58.2874C40.7373 59.3252 41.9132 59.4536 41.9132 59.4536L43.8698 56.8443Z" fill="#B3A99D"/>
<path d="M47.1212 58.6629C47.3781 57.7535 49.2062 56.0634 49.9869 54.6303C50.7675 53.1971 50.7675 50.4692 53.2379 51.1216C55.7083 51.7739 55.7083 58.5344 54.2755 59.582C52.8426 60.6198 49.9868 59.7105 49.72 60.2344C49.4631 60.7582 48.4157 61.9245 47.635 61.4006C46.8643 60.8768 47.1212 58.6629 47.1212 58.6629Z" fill="#B3A99D"/>
<path d="M28.6515 81.9594C28.7799 81.3071 26.1811 80.2693 25.5289 80.6548C24.8767 81.0402 24.096 82.9972 25.0052 83.1257C25.9143 83.2542 25.6573 81.5641 26.438 81.8211C27.2186 82.0879 28.6515 81.9594 28.6515 81.9594Z" fill="#9B9082"/>
<path d="M30.0751 84.0449C29.9466 84.6972 29.1659 85.2112 28.1284 84.8257C27.0908 84.4403 26.3102 84.1734 25.658 84.5688C25.0058 84.9542 23.5137 84.7664 23.5137 84.7664C23.5137 84.7664 24.6204 86.5257 26.0532 86.3281C26.0532 86.3281 27.2193 85.6164 28.7806 86.0019C30.3419 86.3874 30.0751 84.0449 30.0751 84.0449Z" fill="#9B9082"/>
<path d="M25.5299 79.6167C25.5299 79.6167 22.5358 78.3121 21.4982 80.1406C21.4883 80.1406 22.012 76.622 25.5299 79.6167Z" fill="#B3A99D"/>
<path d="M26.5665 72.9844C26.5665 72.9844 25.529 76.76 21.7542 77.5408L21.2305 76.3745C21.2305 76.3646 24.3531 75.4553 26.5665 72.9844Z" fill="#9B9082"/>
<path d="M20.5779 75.0005C20.5779 75.0005 22.0107 74.9313 22.9198 72.7272C23.8289 70.5132 23.572 69.7324 23.572 69.7324C23.572 69.7324 22.2676 72.3318 21.1016 72.9842C19.9356 73.6365 17.8506 72.0749 17.8506 72.0749C17.8506 72.0749 17.4652 72.9842 18.7597 74.2888C20.064 75.5836 20.5779 75.0005 20.5779 75.0005Z" fill="#B3A99D"/>
<path d="M19.146 67.647C19.146 67.647 19.3437 70.5825 17.15 71.0272C17.15 71.0272 13.9977 66.8958 12.7724 63.9999C11.3099 60.5406 11.3396 59.5522 11.4186 59.2854C11.4285 59.2557 11.4483 59.2063 11.468 59.1865C11.468 59.1865 13.2961 63.8714 15.3713 66.5993C17.4563 69.3371 19.146 67.647 19.146 67.647Z" fill="#9B9082"/>
<path d="M37.367 71.5518C37.8512 72.2338 36.8433 74.9321 35.282 74.2797C33.7207 73.6274 32.4164 72.5896 32.8116 71.9373C33.197 71.2948 36.7149 70.6425 37.367 71.5518Z" fill="#9B9082"/>
<path d="M36.1912 71.9372C36.4976 72.6982 35.1537 73.3703 34.8869 72.5895C34.6299 71.8087 35.9343 71.2947 36.1912 71.9372Z" fill="#3A352E"/>
<path d="M57.6641 61.2725C57.6641 61.2725 54.5416 67.6475 53.3755 67.9045C52.2095 68.1615 50.9051 69.8516 51.0336 71.6801C51.1621 73.4987 50.9051 76.365 49.8676 77.1458C48.83 77.9266 48.5039 78.3121 48.5039 78.3121C48.5039 78.3121 49.7391 79.8737 50.3913 81.04C51.0435 82.2063 52.081 82.2063 53.1186 81.5638C54.1562 80.9115 54.8084 80.9115 55.2036 80.9115C55.5989 80.9115 56.3697 82.6016 57.4171 82.8586C58.4547 83.1156 60.9251 82.3347 61.3895 82.6016C61.8441 82.8586 63.5338 85.9818 63.9291 87.158C64.3145 88.3243 64.9666 89.5004 65.7473 89.8859C66.5279 90.2813 67.4371 90.4097 67.4371 90.4097C67.4371 90.4097 66.0042 87.5435 66.1327 85.8533C66.2611 84.1632 66.1327 81.1685 66.1327 81.1685C66.1327 81.1685 68.3462 79.8638 71.5972 80.6446C74.8482 81.4254 77.5855 82.4632 77.5855 82.4632C77.5855 82.4632 75.1151 80.1208 70.5596 79.2115C66.0042 78.3022 63.6623 80.3778 62.7532 79.7353C61.8441 79.083 61.8441 75.8312 61.8441 75.8312C61.8441 75.8312 60.4112 78.4307 60.5397 79.9923C60.6682 81.5539 58.4547 81.8109 57.9408 79.6068C57.4171 77.3929 58.8499 76.8789 58.9784 74.0126C59.1069 71.1464 60.5397 65.5522 61.0634 64.119C61.5871 62.6859 62.8816 58.6533 62.8816 58.6533C62.8816 58.6533 58.593 63.7237 57.9408 66.4615C57.2886 69.1894 57.1602 75.1789 55.9942 76.4836C54.8281 77.7882 53.9091 79.4783 52.4862 79.083C51.0534 78.6975 51.1818 76.7405 51.9625 75.4359C52.7431 74.1312 52.0909 71.7888 52.6147 70.751C53.1384 69.7132 55.1937 68.0923 55.8657 66.59C57.0317 63.9312 57.6641 61.2725 57.6641 61.2725Z" fill="#A59C92"/>
<path d="M74.6412 107.983C74.8586 107.449 74.6017 106.797 74.3546 106.115C74.157 106.52 73.8309 106.866 73.2775 106.807C71.9732 106.678 71.1925 105.245 70.2834 105.769C69.3743 106.293 69.1174 107.588 68.7221 107.459C68.3367 107.331 67.5166 106.471 66.0541 106.372C65.3525 106.322 64.1074 107.202 64.1074 107.202C64.1074 107.202 64.5126 108.013 65.5403 108.398C65.7478 108.457 65.9849 108.517 66.2517 108.576C67.813 108.774 69.5719 108.191 69.5719 108.191C69.5719 108.191 74.2459 108.961 74.6412 107.983Z" fill="#9B9082"/>
<path d="M79.9078 88.077C79.9078 88.077 81.3505 82.5026 81.3505 79.6462C81.3505 77.4421 80.9355 75.2479 80.0462 71.8084C79.226 68.6357 78.1094 62.1421 78.1094 62.1421C78.1094 62.1421 80.6984 69.3374 81.3505 72.0654C82.0027 74.7933 83.9494 79.6165 83.564 82.0875C83.1786 84.5584 109.711 85.5962 112.972 83.6491C116.223 81.702 118.308 75.584 118.041 72.8462C117.784 70.1183 119.602 68.4183 119.988 66.5997C120.373 64.781 120.768 61.5293 120.768 61.5293C120.768 61.5293 121.292 66.5997 120.511 68.5566C119.731 70.5037 118.693 73.113 119.078 75.584C119.464 78.0549 116.213 87.4247 116.213 87.4247C116.213 87.4247 111.924 91.3288 99.0386 90.6764C86.153 90.0241 79.9078 88.077 79.9078 88.077Z" fill="#9B9082"/>
<path d="M127.469 107.084C127.469 107.084 126.51 108.517 125.186 107.993C124.149 107.578 123.101 106.688 122.192 106.955C121.283 107.212 120.245 107.993 119.198 107.993C118.16 107.993 117.251 106.955 117.251 106.955C117.251 106.955 116.075 108.981 117.903 109.248C119.722 109.505 120.413 108.527 120.413 108.527C120.413 108.527 121.639 109.634 122.686 109.723C124.119 109.841 124.672 108.645 124.672 108.645C124.672 108.645 126.322 109.743 127.241 109.367C128.664 108.764 127.469 107.084 127.469 107.084Z" fill="#9B9082"/>
<path d="M130.127 64.1287C130.127 64.1287 129.475 60.2247 126.352 57.6253C123.23 55.0258 121.797 53.7212 119.455 54.245C117.113 54.7689 112.3 54.8973 109.702 54.1165C107.103 53.3357 104.632 50.9933 99.8101 51.6456C94.9978 52.2979 91.6183 54.6404 85.5016 53.988C79.3849 53.3357 77.952 51.2601 73.1397 50.3409C68.3274 49.4316 62.7344 50.5979 62.7344 50.5979C62.7344 50.5979 72.1021 50.3409 76.1338 53.7212C80.1655 57.1014 88.6242 57.6253 94.6124 56.1921C100.601 54.759 102.024 53.0689 106.322 55.4113C110.611 57.7537 116.727 56.9729 119.722 56.9729C122.716 56.9729 129.742 61.4008 130.127 64.1287Z" fill="#D8D0C5"/>
<path d="M36.8439 79.6171C37.2096 80.5363 31.251 82.7404 30.7272 81.7026C30.2134 80.6648 36.0633 77.67 36.8439 79.6171Z" fill="#D8D0C5"/>
<path d="M53.5732 52.1894C53.5732 52.1894 52.1107 51.9818 51.6068 54.0475C51.3795 54.9667 50.9546 57.1708 49.917 57.8231C48.8794 58.4755 47.832 58.9894 48.8794 59.3848C49.917 59.7702 51.6364 58.4755 51.7451 57.0423C51.9823 53.7115 52.6344 52.6045 53.5732 52.1894Z" fill="#9B9082"/>
<path d="M123.267 101.233C123.267 101.233 122.23 102.142 121.449 101.756C120.669 101.371 120.283 100.976 120.283 100.976C120.283 100.976 120.412 102.666 121.449 102.666C122.487 102.666 123.267 101.233 123.267 101.233Z" fill="#B3A99D"/>
<path d="M70.4404 93.2463C71.8436 93.7603 71.2211 97.3481 70.144 96.8539C69.0768 96.3696 69.3732 92.8608 70.4404 93.2463Z" fill="#D8D0C5"/>
<path d="M31.5087 66.7969C31.5087 66.7969 28.2577 69.337 26.8248 69.1393L26.4395 66.7969C26.4395 66.7969 26.9632 67.5085 28.3861 67.5085C29.819 67.5184 31.5087 66.7969 31.5087 66.7969Z" fill="#B3A99D"/>
<path d="M45.5593 56.9726C45.5593 56.9726 44.5217 56.3203 42.5651 59.4436C40.6185 62.5668 38.2765 65.5616 37.6243 66.2139C36.9721 66.8663 35.0255 67.6471 33.8496 67.6471C32.6835 67.6471 32.0313 67.1232 31.5076 67.6471C30.9839 68.1709 29.9463 68.8134 28.642 69.3372C27.3376 69.861 24.8672 70.6418 24.8672 70.6418C24.8672 70.6418 28.2467 70.7703 29.9364 69.9895C31.6262 69.2087 31.2408 68.2994 32.6638 68.6849C34.0966 69.0703 36.567 69.0703 38.5137 67.1232C40.4604 65.1761 43.1976 60.0959 43.9782 58.9296C44.7786 57.7535 45.5593 56.9726 45.5593 56.9726Z" fill="#D8D0C5"/>
<path d="M51.5083 98.3665C51.5083 98.3665 52.6151 98.238 53.5835 98.0304C54.1171 97.9217 54.542 97.5956 54.7198 97.0223C54.1269 96.4688 53.3957 96.0735 52.5953 95.9944C51.37 95.8758 50.036 96.6171 49.7197 97.813C49.2652 97.0421 48.781 96.2415 48.03 95.7572C47.279 95.2729 46.1624 95.2136 45.5596 95.8857C45.7276 95.4706 45.5596 94.9566 45.194 94.7194C44.9568 94.5613 44.6208 94.5514 44.3639 94.6304C44.3442 94.9961 44.2355 94.7194 44.354 95.1543C44.2849 95.095 44.2256 95.0357 44.1564 94.9764C44.1465 95.0357 44.1465 95.095 44.1465 95.1543C44.1366 96.1921 45.7968 96.6863 45.7968 96.6863C45.7968 96.6863 45.6584 97.6549 45.9944 98.3467C46.3402 99.0386 47.4371 99.9479 49.1664 99.9479C50.8858 99.9479 51.5083 98.3665 51.5083 98.3665Z" fill="#9B9082"/>
<path d="M47.7742 88.0471C46.4006 87.3652 45.7978 90.3797 46.8749 90.9233C47.952 91.4669 49.5627 88.9466 47.7742 88.0471Z" fill="#D8D0C5"/>
<path d="M122.201 93.6813C119.938 93.2661 120.649 98.5935 121.845 98.7121C123.041 98.8208 125.432 94.2743 122.201 93.6813Z" fill="#D8D0C5"/>
</svg>
