<svg width="150" height="150" viewBox="0 0 150 150" fill="none" xmlns="http://www.w3.org/2000/svg">
<path d="M100.701 126.601C100.701 126.601 99.4508 129.401 99.3008 129.701H103.801L104.101 126.901L100.701 126.601Z" fill="#434241"/>
<path d="M106.201 91.0506C107.201 86.3506 112.151 85.2006 111.701 77.9006C111.651 77.2506 111.601 76.7006 111.551 76.1006L89.0508 85.3006C89.0508 85.3006 93.9008 90.9506 96.8008 95.7506C99.7008 100.551 104.051 101.201 104.401 105.251C104.751 109.301 102.701 121.801 101.601 124.001C101.351 124.551 101.101 125.051 100.951 125.501C100.401 126.901 100.301 127.401 100.301 127.401H104.151C104.151 127.401 104.251 127.451 104.401 126.751C104.901 126.201 105.551 126.201 105.451 124.901C105.351 123.351 105.001 120.751 105.001 120.751C105.701 117.801 106.501 111.251 107.151 109.401C108.601 105.251 110.201 103.551 109.601 101.701C109.001 99.9006 105.201 95.7506 106.201 91.0506Z" fill="#EA8E4C"/>
<path d="M106.2 91.0506C105.2 95.7506 109 99.9006 109.55 101.701C110.1 103.551 108.55 105.201 107.1 109.401C106.45 111.251 105.65 117.801 104.95 120.751C104.95 120.801 105.3 123.351 105.4 124.901C105.5 126.201 104.8 126.251 104.35 126.751C104.2 127.451 104.1 127.401 104.1 127.401H100.25C100.25 127.401 100.35 126.901 100.9 125.501C101.1 125.051 101.3 124.551 101.55 124.001C102.65 121.801 104.7 109.301 104.35 105.251C104 101.201 99.7 100.551 96.8 95.7506C93.9 90.9506 89 85.3006 89 85.3006L101.35 80.2506L104.75 78.8506L111.5 76.1006C111.55 76.7006 111.6 77.3006 111.65 77.9006C111.7 78.8506 111.7 79.6506 111.6 80.4006C110.95 85.5506 107.1 86.9506 106.2 91.0506Z" fill="url(#paint0_linear_846_26905)"/>
<path d="M109.55 101.7C110.1 103.55 108.55 105.2 107.1 109.4C106.45 111.25 105.65 117.8 104.95 120.75C104.95 120.8 105.3 123.35 105.4 124.9C105.5 126.2 104.8 126.25 104.35 126.75C104.2 127.45 104.1 127.4 104.1 127.4H102.1C102.75 126.4 103.45 125.45 103.9 124.4C104.85 122 104.4 119.35 104.55 116.75C104.75 113.9 105.7 111.15 106.3 108.4C106.9 105.6 107.15 102.6 105.95 100C104.7 97.3504 101.95 95.3504 101.5 92.4004C101.35 91.4004 101.8 90.1004 102.8 90.1504L99.0996 82.7004C99.6496 81.7004 100.45 80.8504 101.35 80.2004C102.35 79.5004 103.55 79.0004 104.75 78.8004C105.75 78.6004 106.8 78.6004 107.8 78.8004C109.15 79.0504 110.4 79.6004 111.55 80.3504C110.9 85.5004 107 86.9004 106.15 91.0004C105.2 95.7504 109 99.9004 109.55 101.7Z" fill="#E5E0E0"/>
<path d="M116.65 82.15C116.65 82.15 113.6 84.25 110.55 81.9C107.5 79.55 108.2 74.5 108.2 74.5L109.3 72.75C109.3 72.75 110.85 76.15 112.9 79.25C115 82.4 116.65 82.15 116.65 82.15Z" fill="#EA8E4C"/>
<path d="M53.0992 124.2L52.3492 126.8C52.3492 126.8 51.0992 129.6 50.9492 129.9H55.4492L55.7492 127.1L53.0992 124.2Z" fill="#434241"/>
<path d="M53.0488 84.5C53.5988 85.25 55.0988 98.05 54.6988 101.95C54.3488 105.85 55.1488 108.25 54.8488 111.5C54.5488 114.7 52.2988 126.85 52.2988 126.85L55.7488 127.1C55.7488 127.1 56.3988 126 56.6988 126C56.9988 126 56.4488 124.9 56.4988 121C56.5488 117.1 58.5488 109.2 58.9988 106.8C59.4488 104.4 57.9488 104.2 59.7488 96.5C61.2488 90 61.8988 86.2 61.8988 86.2L53.0488 84.5Z" fill="#EA8E4C"/>
<path d="M61.8488 86.1504C61.8488 86.1504 61.6988 87.0004 61.3988 88.6004C61.0488 90.3504 60.4988 93.0504 59.7488 96.4504C57.9988 104.15 59.4988 104.35 58.9988 106.75C58.5488 109.15 56.5488 117 56.4988 120.95C56.4488 124.85 56.9988 125.95 56.6988 125.95C56.3988 125.95 55.7488 127.05 55.7488 127.05L54.8488 127L52.2988 126.8C52.2988 126.8 54.5988 114.65 54.8988 111.4C55.1988 108.2 54.3988 105.75 54.7488 101.85C55.0988 97.9504 53.6488 85.1504 53.0988 84.4004L61.8488 86.1504Z" fill="url(#paint1_linear_846_26905)"/>
<path d="M59.6988 96.4505C57.9488 104.15 59.4488 104.35 58.9488 106.75C58.4988 109.15 56.4988 117 56.4488 120.95C56.3988 124.85 56.9488 125.95 56.6488 125.95C56.3488 125.95 55.6988 127.05 55.6988 127.05L54.7988 127C55.1988 122.1 56.1488 117.2 56.6488 112.25C57.2488 106.35 57.0988 100.4 56.8488 94.4505C56.7988 93.0005 56.1488 90.4005 57.3488 89.2005C58.2488 88.3005 59.9488 88.2005 61.3488 88.5505C61.0488 90.4005 60.4988 93.0505 59.6988 96.4505Z" fill="#E5E0E0"/>
<path d="M112.051 80.65C112.051 80.65 105.301 89.65 100.251 92.7C98.9508 93.5 97.8008 93.75 96.8508 93.25C87.5508 88.1 72.6008 99.35 63.3508 95.95C54.1508 92.55 48.1508 87.2 48.1508 76.9C48.1508 66.55 46.3008 52.3 46.3008 52.3L56.2508 49L58.9008 47C58.9008 47 60.5508 57.15 65.3008 62.2C68.1008 65.15 70.3008 66.75 78.0508 68C82.6508 68.75 88.7508 69.25 98.0008 69.3C109.351 69.4 111.301 73.05 112.051 80.65Z" fill="#DB6B49"/>
<path d="M100.251 92.7C98.9508 93.5 97.8008 93.75 96.8508 93.25C87.5508 88.1 72.6008 99.35 63.3508 95.95C54.1508 92.55 48.1508 87.2 48.1508 76.9C48.1508 66.55 46.3008 52.3 46.3008 52.3L59.1008 48.25C61.1508 60.5 57.5508 73.25 57.3008 78C57.0008 83.3 56.3008 90.6 66.1508 92.8C76.0008 95 84.1508 91.4 89.2008 90.65C95.0508 89.85 98.2508 91 100.251 92.7Z" fill="#EA8E4C"/>
<path d="M94.5492 89.5508C89.4492 89.2508 75.9992 95.0508 66.1492 92.8508C56.2992 90.6508 56.9992 83.3008 57.2992 78.0508C57.5492 73.3008 61.1492 60.5508 59.0992 48.3008L46.2992 52.3508C46.2992 52.3508 46.5992 54.5008 46.8992 57.7508C47.3992 63.7508 46.1492 67.5008 45.9992 67.9508C46.3492 67.7008 46.6492 67.4508 46.9992 67.2008C46.7492 68.6008 45.9992 73.6008 45.6992 75.0008C46.0992 74.5508 46.4992 74.1508 46.8492 73.7008C46.9992 75.3508 46.5992 75.8508 45.8492 77.3008C46.2992 76.8508 46.2492 77.2008 46.7492 76.7508C46.7992 77.7008 46.7492 78.7008 46.7492 78.9008C46.7492 89.2508 54.0492 92.6008 63.2492 95.9508C72.4492 99.3508 87.4492 88.1008 96.7492 93.2508C97.6992 93.7508 104.949 95.9508 106.249 95.1508C104.349 93.4508 96.2492 89.6508 94.5492 89.5508Z" fill="#EA8E4C"/>
<path d="M94.5492 89.5508C89.4492 89.2508 75.9992 95.0508 66.1492 92.8508C56.2992 90.6508 56.9992 83.3008 57.2992 78.0508C57.5492 73.3008 61.1492 60.5508 59.0992 48.3008L46.2992 52.3508C46.2992 52.3508 46.5992 54.5008 46.8992 57.7508C47.3992 63.7508 46.1492 67.5008 45.9992 67.9508C46.3492 67.7008 46.6492 67.4508 46.9992 67.2008C46.7492 68.6008 45.9992 73.6008 45.6992 75.0008C46.0992 74.5508 46.4992 74.1508 46.8492 73.7008C46.9992 75.3508 46.5992 75.8508 45.8492 77.3008C46.2992 76.8508 46.2492 77.2008 46.7492 76.7508C46.7992 77.7008 46.7492 78.7008 46.7492 78.9008C46.7492 89.2508 54.0492 92.6008 63.2492 95.9508C72.4492 99.3508 87.4492 88.1008 96.7492 93.2508C97.6992 93.7508 104.949 95.9508 106.249 95.1508C104.349 93.4508 96.2492 89.6508 94.5492 89.5508Z" fill="url(#paint2_linear_846_26905)"/>
<path d="M114.45 128.9C114 129.95 113.55 130.95 113 131.95C114.5 131.95 116 131.95 117.5 131.95C117.6 131.05 117.7 130.1 117.85 129.2C116.7 129.1 115.6 129 114.45 128.9Z" fill="#434241"/>
<path d="M118.301 126.65C118.301 126.75 118.251 126.85 118.251 126.95C117.851 128.5 117.851 127.8 117.851 129.25C116.651 129.05 115.451 129.25 114.251 129.05C113.951 121.4 113.801 109.8 110.951 103.35C109.651 100.4 107.501 98.55 105.201 96.95C102.451 95 99.4508 93.35 97.5508 90.45C101.751 86.4 107.751 83.35 111.951 79.25C112.751 83.85 112.501 90.35 113.051 94.6C113.601 98.85 117.501 101.1 116.951 104.8C116.401 108.5 116.151 114.4 116.551 117.6C116.901 120.85 118.751 124.7 118.301 126.65Z" fill="#DB6B49"/>
<path d="M62.3004 126.1L61.5504 128.7C61.5504 128.7 60.3004 131.5 60.1504 131.8H64.6504L64.9504 129L62.3004 126.1Z" fill="#434241"/>
<path d="M53.2987 41.3502C53.8987 40.7502 54.3487 40.4502 54.7487 39.7002C55.4987 38.4002 54.6987 36.0002 55.2487 34.6002C55.8987 36.1002 57.2487 37.4002 56.9487 39.0002C58.6987 38.4502 65.9487 35.3002 66.8487 33.7002C67.7487 32.1002 65.2987 30.8502 64.8987 29.1002C65.6987 29.5502 67.9487 30.7502 67.8487 31.7002C69.6987 29.0502 67.1987 24.4502 66.9487 23.0502C67.6487 24.2502 70.6487 27.0502 70.3487 28.4002C70.0987 29.7502 69.4987 32.8502 68.9487 34.1002C70.3487 32.9502 71.1487 32.3002 72.2987 30.9502C73.4987 29.6002 74.4487 28.0002 74.7987 26.2502C75.3487 23.6502 74.4987 21.0002 73.7487 18.4502C74.7487 19.3002 75.3487 20.5002 75.6987 21.7502C76.0487 23.0002 76.1487 24.3002 76.2487 25.6002C76.9987 24.8002 77.8987 24.2002 78.8987 23.7502C76.8987 27.2502 76.5987 28.9002 73.7487 31.8002C74.6487 30.9002 76.0987 30.9502 77.8987 29.9502C79.6487 28.9502 83.6487 26.6502 84.8987 26.4002C83.9487 27.1502 80.7487 30.4502 79.5987 30.9502C80.0987 31.4502 81.7987 31.1002 81.6487 32.3002C79.4987 31.8502 72.2987 33.7502 70.5487 35.0502C69.8987 35.5502 67.3487 36.7502 66.5987 37.2002C65.8487 37.6502 64.9987 37.9502 64.1487 38.2002C62.6487 38.6502 61.1487 39.1502 59.6487 39.6002C58.2487 40.0502 55.8987 41.0502 55.5487 42.8002C55.6487 42.8002 52.3987 43.4502 52.5487 43.3502C52.9987 43.1002 51.6987 43.0002 53.2987 41.3502Z" fill="#5E3E31"/>
<path d="M50.65 41.35C50.05 40.75 49.6 40.45 49.2 39.7C48.45 38.4 49.25 36 48.7 34.6C48.05 36.1 46.7 37.4 47 39C45.25 38.45 38 35.3 37.1 33.7C36.2 32.1 38.65 30.85 39.05 29.1C38.25 29.55 36 30.75 36.1 31.7C34.25 29.05 36.75 24.45 37 23.05C36.3 24.25 33.3 27.05 33.6 28.4C33.85 29.75 34.45 32.85 35 34.1C33.6 32.95 32.8 32.3 31.65 30.95C30.45 29.6 29.5 28 29.15 26.25C28.55 23.7 29.35 21 30.15 18.5C29.15 19.35 28.55 20.55 28.2 21.8C27.85 23.05 27.75 24.35 27.65 25.65C26.9 24.85 26 24.25 25 23.8C27 27.3 27.3 28.95 30.15 31.85C29.25 30.95 27.8 31 26 30C24.25 29 20.25 26.7 19 26.45C19.95 27.2 23.15 30.5 24.3 31C23.8 31.5 22.1 31.15 22.25 32.35C24.4 31.9 31.6 33.8 33.35 35.1C34 35.6 36.55 36.8 37.3 37.25C38.05 37.7 38.9 38 39.75 38.25C41.25 38.7 42.75 39.2 44.25 39.65C45.65 40.1 48 41.1 48.35 42.85C48.25 42.85 51.5 43.5 51.35 43.4C50.9 43.1 52.2 43 50.65 41.35Z" fill="#5E3E31"/>
<path d="M51.4499 42.3001V60.6501C51.4499 60.6501 48.7499 61.3001 47.7499 59.6001C46.7499 57.9001 47.4999 57.1501 46.2499 54.7501C44.9999 52.3501 43.5999 50.3501 44.1999 46.1001C44.5999 43.0501 43.7499 43.8501 44.4999 42.5501C45.2499 41.1501 47.7999 40.7001 49.1999 41.6501C50.4999 42.6001 51.4499 42.3001 51.4499 42.3001Z" fill="#EA8E4C"/>
<path d="M51.1992 42.3004V60.6504C51.1992 60.6504 53.8992 61.3004 54.8992 59.6004C55.8992 57.9004 55.1492 57.1504 56.3992 54.7504C57.6492 52.3504 59.2992 51.2504 58.8492 46.9504C58.5492 44.0504 59.0992 43.7004 58.1492 42.5504C57.1492 41.3004 54.8492 40.7004 53.4492 41.6504C52.0992 42.6004 51.1992 42.3004 51.1992 42.3004Z" fill="#EA8E4C"/>
<path d="M53.9504 59.0008C53.0004 54.7008 52.4004 47.6008 55.2504 44.8008L48.4004 44.5508C48.4004 44.5508 51.2004 47.0008 48.6504 58.7008L53.9504 59.0008Z" fill="url(#paint3_linear_846_26905)"/>
<path d="M53.1504 56.7504C52.6504 56.1504 51.1504 56.1504 51.1504 56.1504C51.1504 56.1504 49.6504 56.1504 49.1504 56.7504C48.6504 57.3504 48.0504 59.6504 48.5004 60.5504C48.9504 61.4004 50.4004 61.9504 51.1504 61.9504C51.9004 61.9504 53.3504 61.4004 53.8004 60.5504C54.3004 59.6504 53.6504 57.3504 53.1504 56.7504Z" fill="#FEEBC7"/>
<path d="M52.4008 59.5C52.4008 59.65 52.2008 60.15 51.2008 60.15C50.3508 60.15 50.0508 59.65 50.0508 59.5C50.0508 59.65 50.0508 59.8 50.1008 59.95C50.1508 60.1 50.2508 60.2 50.3508 60.3C50.4508 60.4 50.6508 60.5 50.8008 60.5C51.1008 60.55 51.3508 60.55 51.6508 60.5C51.8008 60.45 51.9508 60.4 52.1008 60.3C52.2008 60.2 52.3008 60.05 52.3508 59.95C52.4008 59.8 52.4008 59.65 52.4008 59.5Z" fill="#4F2311"/>
<path d="M51.3508 58.3496L51.2008 59.9996L51.0508 58.3496H51.3508Z" fill="#4F2311"/>
<path opacity="0.29" d="M51.7996 60.6996C51.6996 60.8996 51.5996 61.0496 51.4996 61.0996C51.3996 61.1996 51.2996 61.1996 51.1996 61.1996C51.0996 61.1996 50.9996 61.1496 50.8996 61.0996C50.7996 60.9996 50.6996 60.8996 50.5996 60.6996V60.6496C50.7996 60.5996 50.9996 60.6496 51.1996 60.5996C51.3996 60.5996 51.5996 60.5996 51.7996 60.6496V60.6996Z" fill="#6D6D6D"/>
<path d="M49.551 58.8504C50.001 59.1504 52.401 59.1504 52.801 58.8504C53.251 58.5504 52.801 57.6004 52.351 57.2004C51.951 56.8004 50.351 56.8004 49.951 57.2004C49.551 57.6004 49.101 58.5504 49.551 58.8504Z" fill="#4F2311"/>
<path opacity="0.65" d="M51 57.55C51.1 57.45 51.2 57.35 51.35 57.35C51.5 57.3 51.65 57.3 51.75 57.35C51.9 57.4 52 57.45 52.1 57.5C52.2 57.6 52.3 57.7 52.35 57.8C52.2 57.8 52.1 57.75 51.95 57.7C51.85 57.65 51.75 57.65 51.6 57.6C51.45 57.6 51.25 57.55 51 57.55Z" fill="white"/>
<path d="M65.1008 44.0004C65.1008 44.0004 64.1008 46.5004 62.0508 47.3004C60.5008 47.9004 58.9008 47.2504 57.8508 46.2504C57.5008 45.9004 57.2008 45.5504 56.9508 45.2004C56.1008 43.7504 55.0508 43.0504 55.0508 43.0504L57.2008 42.6504C57.2008 42.6504 57.8508 43.4004 60.1008 44.1004C60.4508 44.2004 60.8508 44.3004 61.2008 44.3004C63.1508 44.5504 65.1008 44.0004 65.1008 44.0004Z" fill="#E0B59D"/>
<path d="M56.9508 45.1992C57.1508 45.5492 57.4508 45.9492 57.8508 46.2492C58.1508 46.5492 58.5008 46.7992 58.9008 46.9992C59.4008 46.4492 60.1508 46.0992 60.9008 46.1492C62.1508 46.1992 63.1008 46.0492 64.1008 45.6992C64.8008 44.8492 65.1008 43.9992 65.1008 43.9992C65.1008 43.9992 63.1508 44.5492 61.2008 44.3492C60.8008 44.2992 60.4508 44.2492 60.1008 44.1492C57.9008 43.4992 57.2008 42.6992 57.2008 42.6992L55.0508 43.0992C55.0508 43.0492 56.0508 43.7492 56.9508 45.1992Z" fill="#D3865E"/>
<path d="M54.6504 42.5498C56.0004 41.6498 57.8504 41.9998 59.3004 43.2998C60.7504 44.6498 65.1004 43.9498 65.1004 43.9498C65.1004 43.9498 63.2004 45.8998 60.6504 45.3498C58.1004 44.7998 56.5004 42.1998 55.0504 42.9998L54.6504 42.5498Z" fill="#EA8E4C"/>
<path d="M37.4004 43.9994C37.4004 43.9994 38.4004 46.4994 40.4504 47.2994C42.0004 47.8994 43.6004 47.2494 44.6504 46.2494C45.0004 45.8994 45.3004 45.5494 45.5504 45.1994C46.4004 43.7494 47.4504 43.0494 47.4504 43.0494L45.3004 42.6494C45.3004 42.6494 44.6504 43.3994 42.4004 44.0994C42.0504 44.1994 41.6504 44.2994 41.3004 44.2994C39.3504 44.5494 37.4004 43.9994 37.4004 43.9994Z" fill="#E0B59D"/>
<path d="M45.5504 45.2002C45.3504 45.5502 45.0504 45.9502 44.6504 46.2502C44.3504 46.5502 44.0004 46.8002 43.6004 47.0002C43.1004 46.4502 42.3504 46.1002 41.6004 46.1502C40.3504 46.2002 39.4004 46.0502 38.4004 45.7002C37.7004 44.8502 37.4004 44.0002 37.4004 44.0002C37.4004 44.0002 39.3504 44.5502 41.3004 44.3502C41.7004 44.3002 42.0504 44.2502 42.4004 44.1502C44.6004 43.5002 45.3004 42.7002 45.3004 42.7002L47.4504 43.1002C47.4504 43.0502 46.4504 43.7502 45.5504 45.2002Z" fill="#D3865E"/>
<path d="M47.8504 42.5498C46.5004 41.6498 44.6504 41.9998 43.2004 43.2998C41.7504 44.6498 37.4004 43.9998 37.4004 43.9998C37.4004 43.9998 39.3004 45.9498 41.8504 45.3998C44.4004 44.8498 46.0004 42.2498 47.4504 43.0498L47.8504 42.5498Z" fill="#EA8E4C"/>
<path d="M54.0002 49.1001C54.4002 48.2001 55.2002 47.5001 56.1002 47.1001C56.3002 47.0001 56.5502 46.9501 56.8002 47.0001C57.3002 47.1001 57.5502 47.6001 57.6002 48.1001C57.7502 49.0001 57.5002 50.0001 57.0002 50.7501C56.5002 51.5501 55.7502 52.1501 54.9002 52.5501C54.6002 52.7001 54.2502 52.8001 53.9502 52.7001C53.6502 52.6001 53.5502 52.3001 53.6002 52.0501C53.6502 51.7501 53.6502 51.5501 53.6002 51.2501C53.6002 50.5001 53.7002 49.8001 54.0002 49.1001Z" fill="#FED99D"/>
<path d="M54.4004 51.5008C54.4504 51.0008 54.7004 49.8008 55.6504 49.1008C56.6504 48.3508 56.9004 48.3008 56.9004 48.3008C56.9004 48.3008 56.8004 48.4508 56.5004 49.1008C56.2004 49.7008 56.4004 50.7008 55.6504 51.0508C54.9004 51.3008 54.4004 51.5008 54.4004 51.5008Z" fill="#FEF9F9"/>
<path d="M54.5001 51.0008C54.5001 51.0008 54.3001 51.2008 55.7001 51.0008C57.1001 50.8008 56.9001 48.9508 56.0501 48.8008C56.0001 48.8008 54.8001 49.0008 54.5001 51.0008Z" fill="#4F3011"/>
<path opacity="0.65" d="M55.7515 49.4007C55.4515 49.6007 55.2015 49.9508 55.1015 50.2508C55.0515 50.5508 55.5015 50.0508 55.7515 49.9007C56.0015 49.8007 56.0015 49.2507 55.7515 49.4007Z" fill="white"/>
<path d="M48.6003 49.1001C48.2003 48.2001 47.4003 47.5001 46.5003 47.1001C46.3003 47.0001 46.0503 46.9501 45.8003 47.0001C45.3003 47.1001 45.0503 47.6001 45.0003 48.1001C44.8503 49.0001 45.1003 50.0001 45.6003 50.7501C46.1003 51.5501 46.8503 52.1501 47.7003 52.5501C48.0003 52.7001 48.3503 52.8001 48.6503 52.7001C48.9503 52.6001 49.0503 52.3001 49.0003 52.0501C48.9503 51.7501 48.9503 51.5501 49.0003 51.2501C49.0503 50.5001 48.9003 49.8001 48.6003 49.1001Z" fill="#FED99D"/>
<path d="M48.1992 51.5008C48.1492 51.0008 47.8992 49.8008 46.9492 49.1008C45.9492 48.3508 45.6992 48.3008 45.6992 48.3008C45.6992 48.3008 45.7992 48.4508 46.0992 49.1008C46.3992 49.7008 46.1992 50.7008 46.9492 51.0508C47.6992 51.3008 48.1992 51.5008 48.1992 51.5008Z" fill="#FEF9F9"/>
<path d="M48.1494 51.0008C48.1494 51.0008 48.3494 51.2008 46.9494 51.0008C45.5494 50.8008 45.7494 48.9508 46.5994 48.8008C46.5994 48.8008 47.8494 49.0008 48.1494 51.0008Z" fill="#4F3011"/>
<path opacity="0.65" d="M47.0504 49.4007C47.3504 49.6007 47.6004 49.9508 47.7004 50.2508C47.7504 50.5508 47.3004 50.0508 47.0504 49.9007C46.8004 49.8007 46.7504 49.2507 47.0504 49.4007Z" fill="white"/>
<path d="M68.7996 88.0496C68.7996 88.0496 68.4496 90.1996 67.6496 93.9996C67.3996 95.2996 67.0496 96.7496 66.6996 98.3996C64.9496 106.1 66.4496 106.3 65.9996 108.7C65.5496 111.1 65.7996 118.95 65.7996 122.9C65.7496 126.8 66.2996 127.9 65.9996 127.9C65.6996 127.9 65.0496 129 65.0496 129L63.1996 128.85L61.6496 128.75C61.6496 128.75 62.2496 116.6 62.4996 113.35C62.7996 110.15 61.3996 107.7 61.7496 103.8C62.0996 99.8996 60.6496 87.0996 60.0996 86.3496L68.7996 88.0496Z" fill="#DB6B49"/>
<path d="M104.699 70.2502C106.549 69.8002 113.299 72.7002 113.749 76.5002C114.149 80.3002 118.649 80.4502 118.649 80.4502C118.649 80.4502 116.149 83.8502 113.199 82.2002C110.299 80.5502 110.799 76.3502 109.049 74.3002C107.349 72.2002 104.699 70.2502 104.699 70.2502Z" fill="#DB6B49"/>
<path d="M117.849 129.3C116.649 129.1 115.449 129.3 114.249 129.1C113.949 121.45 113.799 109.85 110.949 103.4C109.649 100.45 107.499 98.6 105.199 97C106.699 97.55 108.149 98.2 109.299 99.25C110.699 100.55 111.499 102.35 112.099 104.15C114.349 111.05 113.699 118.85 117.199 125.2C117.549 125.8 117.899 126.4 118.249 126.95C117.849 128.55 117.799 127.8 117.849 129.3Z" fill="#E5E0E0"/>
<path d="M66.6504 98.3502C64.9004 106.05 66.4004 106.25 65.9504 108.65C65.5004 111.05 65.7504 118.9 65.7504 122.85C65.7004 126.75 66.2504 127.85 65.9504 127.85C65.6504 127.85 65.0004 128.95 65.0004 128.95L63.1504 128.8C63.6004 120.7 64.0504 112.6 64.5004 104.5C64.6004 102.45 64.7504 100.4 65.3004 98.4502C65.8004 96.8002 66.6004 95.3002 67.6504 93.9502C67.3504 95.2502 67.0004 96.7502 66.6504 98.3502Z" fill="#E5E0E0"/>
<defs>
<linearGradient id="paint0_linear_846_26905" x1="100.384" y1="127.414" x2="100.384" y2="76.1112" gradientUnits="userSpaceOnUse">
<stop offset="0.1784" stop-color="white" stop-opacity="0"/>
<stop offset="0.2922" stop-color="#E9E8E9" stop-opacity="0.1385"/>
<stop offset="0.4906" stop-color="#C9C7C8" stop-opacity="0.38"/>
<stop offset="0.6798" stop-color="#B2AFB0" stop-opacity="0.6103"/>
<stop offset="0.8543" stop-color="#A4A0A2" stop-opacity="0.8227"/>
<stop offset="1" stop-color="#9F9B9D"/>
</linearGradient>
<linearGradient id="paint1_linear_846_26905" x1="57.0893" y1="127.081" x2="57.0893" y2="84.49" gradientUnits="userSpaceOnUse">
<stop offset="0.1784" stop-color="white" stop-opacity="0"/>
<stop offset="0.2922" stop-color="#E9E8E9" stop-opacity="0.1385"/>
<stop offset="0.4906" stop-color="#C9C7C8" stop-opacity="0.38"/>
<stop offset="0.6798" stop-color="#B2AFB0" stop-opacity="0.6103"/>
<stop offset="0.8543" stop-color="#A4A0A2" stop-opacity="0.8227"/>
<stop offset="1" stop-color="#9F9B9D"/>
</linearGradient>
<linearGradient id="paint2_linear_846_26905" x1="76.0303" y1="83.057" x2="76.0303" y2="52.7024" gradientUnits="userSpaceOnUse">
<stop offset="0.1784" stop-color="white" stop-opacity="0"/>
<stop offset="0.1922" stop-color="#FDFDFD" stop-opacity="0.0167896"/>
<stop offset="0.5657" stop-color="#D5C8CA" stop-opacity="0.4714"/>
<stop offset="0.8463" stop-color="#BCA7AB" stop-opacity="0.8129"/>
<stop offset="1" stop-color="#B39B9F"/>
</linearGradient>
<linearGradient id="paint3_linear_846_26905" x1="51.8134" y1="42.4277" x2="51.8134" y2="57.1938" gradientUnits="userSpaceOnUse">
<stop stop-color="white" stop-opacity="0"/>
<stop offset="1" stop-color="#F9A54D"/>
</linearGradient>
</defs>
</svg>
