<svg width="150" height="150" viewBox="0 0 150 150" fill="none" xmlns="http://www.w3.org/2000/svg">
<path d="M122.748 57.856C123.338 58.5568 123.314 59.7988 122.503 60.2291C123.609 59.8971 124.985 59.6389 125.772 60.4751C125.969 60.6841 126.116 60.9546 126.3 61.1882C126.534 61.471 126.853 61.6924 127.124 61.9383C128.513 63.2417 128.562 65.6886 127.234 67.0535C128.169 66.6109 129.398 67.1027 129.877 68.0249C130.356 68.9471 130.135 70.1522 129.447 70.9268C128.759 71.7015 127.689 72.0827 126.645 72.0458C127.038 72.7467 126.681 73.6935 126.067 74.2099C125.44 74.7264 124.617 74.9108 123.818 75.0583C122.589 75.292 121.175 75.4272 120.241 74.6157C119.749 74.1853 119.467 73.5582 118.987 73.1401C118.029 72.304 116.529 72.4024 115.509 71.64C114.907 71.1973 114.55 70.4965 114.268 69.8079C113.051 66.8445 112.412 61.9752 114.145 59.0241C115.497 56.7001 120.929 55.7164 122.748 57.856Z" fill="#D8C8BA"/>
<path d="M129.89 67.9761C129.41 67.0539 128.181 66.562 127.247 67.0047C128.575 65.6521 128.525 63.1929 127.136 61.8895C126.866 61.6313 126.559 61.4222 126.313 61.1394C126.129 60.9181 125.981 60.6476 125.784 60.4262C124.998 59.5901 123.621 59.8483 122.515 60.1803C123.326 59.7499 123.351 58.508 122.761 57.8071C121.249 56.0242 117.23 56.4054 115.141 57.9301C116.96 57.5981 118.889 57.8686 119.836 58.9753C120.426 59.6762 120.401 60.9181 119.59 61.3484C120.696 61.0164 122.073 60.7582 122.859 61.5944C123.056 61.8034 123.203 62.0739 123.388 62.3075C123.621 62.5904 123.941 62.8117 124.211 63.0576C125.6 64.361 125.649 66.808 124.322 68.1728C125.256 67.7302 126.485 68.222 126.964 69.1442C127.444 70.0665 127.223 71.2715 126.534 72.0461C125.846 72.8208 124.777 73.202 123.732 73.1651C124.076 73.7676 123.855 74.5423 123.4 75.071C123.548 75.0464 123.683 75.0218 123.818 74.9972C124.617 74.8497 125.44 74.6529 126.067 74.1488C126.694 73.6323 127.05 72.6978 126.645 71.9847C127.69 72.0215 128.759 71.6404 129.447 70.8657C130.135 70.1033 130.369 68.8983 129.89 67.9761Z" fill="#F9E6D5"/>
<path d="M69.1108 99.0731C70.5734 104.889 71.4952 110.841 71.8762 116.829C73.1053 116.816 74.3221 116.939 75.5143 117.21C75.2808 111.332 75.0473 105.43 75.7232 99.6018C75.9445 97.6836 76.1657 95.458 74.7891 94.1177C73.5969 92.9619 71.4829 93.0602 70.2415 94.1669C69.0002 95.2736 68.6191 97.1672 69.1108 98.7657C68.951 98.1755 68.7789 97.5729 68.6191 96.9827L69.1108 99.0731Z" fill="#A48570"/>
<path d="M112.976 99.0731C114.439 104.889 115.36 110.841 115.741 116.829C116.971 116.816 118.187 116.939 119.38 117.21C119.146 111.332 118.912 105.43 119.588 99.6018C119.81 97.6836 120.031 95.458 118.654 94.1177C117.462 92.9619 115.348 93.0602 114.107 94.1669C112.865 95.2736 112.484 97.1672 112.976 98.7657C112.816 98.1755 112.644 97.5729 112.484 96.9827L112.976 99.0731Z" fill="#A48570"/>
<path d="M56.4013 87.9076C56.7577 88.1412 57.1633 88.3134 57.3845 88.7068C57.6918 89.2602 57.446 89.9611 57.4706 90.6005C57.5075 91.6702 58.4661 92.6293 59.4248 92.5556C59.1298 93.4655 58.8349 94.4492 59.1053 95.3837C59.3757 96.3182 60.4818 97.0068 61.1578 96.4043C60.6908 98.7282 63.1981 101.138 65.1892 100.278C64.2428 102.011 65.8775 104.704 67.6966 104.421C68.1267 104.36 68.5446 104.163 68.9748 104.077C69.7491 103.93 70.5603 104.151 71.3469 104.053C72.1336 103.966 72.9816 103.364 72.9448 102.479C73.8051 103.352 75.2063 103.487 76.1404 102.774C77.0745 102.073 77.4678 100.597 77.0376 99.3922C77.984 99.0602 78.8935 98.3717 79.1639 97.3142C79.4343 96.2567 78.7829 94.8918 77.7874 94.8304C78.8812 93.3917 78.6354 90.9202 77.2711 89.7028C78.4633 87.7231 77.2097 84.5015 75.0588 84.022C75.4029 82.7924 75.0219 81.3414 74.1493 80.4684C73.2766 79.5954 71.9369 79.3371 70.8799 79.8536C71.3224 79.2388 71.0888 78.2551 70.5603 77.7017C70.0318 77.1484 69.2944 76.9394 68.5815 76.7918C67.0083 76.4844 64.882 76.9025 64.7713 78.6486C64.3903 77.7632 63.4316 77.3329 62.559 77.382C61.6863 77.4189 60.8874 77.8493 60.1131 78.2551C57.8516 79.4847 52.1978 85.0918 56.4013 87.9076Z" fill="#D8C8BA"/>
<path d="M100.748 87.9076C101.104 88.1412 101.51 88.3134 101.731 88.7068C102.038 89.2602 101.792 89.9611 101.817 90.6005C101.854 91.6702 102.813 92.6293 103.771 92.5556C103.476 93.4655 103.181 94.4492 103.452 95.3837C103.722 96.3182 104.828 97.0068 105.504 96.4043C105.037 98.7282 107.545 101.138 109.536 100.278C108.589 102.011 110.224 104.704 112.043 104.421C112.473 104.36 112.891 104.163 113.321 104.077C114.096 103.93 114.907 104.151 115.693 104.053C116.48 103.966 117.328 103.364 117.291 102.479C118.152 103.352 119.553 103.487 120.487 102.774C121.421 102.073 121.814 100.597 121.384 99.3922C122.33 99.0602 123.24 98.3717 123.51 97.3142C123.781 96.2567 123.129 94.8918 122.134 94.8304C123.228 93.3917 122.982 90.9202 121.618 89.7028C122.81 87.7231 121.556 84.5015 119.405 84.022C119.749 82.7924 119.368 81.3414 118.496 80.4684C117.623 79.5954 116.283 79.3371 115.226 79.8536C115.669 79.2388 115.435 78.2551 114.907 77.7017C114.378 77.1484 113.641 76.9394 112.928 76.7918C111.355 76.4844 109.228 76.9025 109.118 78.6486C108.737 77.7632 107.778 77.3329 106.905 77.382C106.033 77.4189 105.234 77.8493 104.46 78.2551C102.21 79.4847 96.5566 85.0918 100.748 87.9076Z" fill="#D8C8BA"/>
<path d="M57.3354 99.0731C58.798 104.889 59.7198 110.841 60.1008 116.829C61.3299 116.816 62.5467 116.939 63.7389 117.21C63.5054 111.332 63.2719 105.43 63.9479 99.6018C64.1691 97.6836 64.3903 95.458 63.0138 94.1177C61.8215 92.9619 59.7075 93.0602 58.4661 94.1669C57.2248 95.2736 56.8438 97.1672 57.3354 98.7657C57.1756 98.1755 57.0035 97.5729 56.8438 96.9827L57.3354 99.0731Z" fill="#A48570"/>
<path d="M103.439 98.0026C103.157 103.991 102.333 109.967 100.969 115.808C102.149 116.14 103.279 116.619 104.349 117.222C105.811 111.528 107.286 105.811 109.634 100.413C110.396 98.642 111.256 96.5763 110.31 94.8917C109.499 93.4408 107.458 92.9243 105.947 93.6252C104.435 94.3261 103.525 96.0352 103.538 97.6952C103.55 97.0804 103.574 96.4533 103.587 95.8385L103.439 98.0026Z" fill="#A48570"/>
<path d="M30.665 59.3683C27.2113 59.8847 24.876 61.4955 21.2625 62.5776C20.4636 62.8112 19.2837 63.2785 17.9809 63.1432C16.9607 63.0449 15.8791 62.5776 14.859 61.348C13.421 59.6019 13.2243 56.8353 14.1338 54.7572C17.1574 47.8713 25.8839 40.6412 31.5377 38.3049C36.2451 36.3621 40.0675 37.1614 44.6028 41.3298C47.6387 44.121 50.3181 50.8224 50.822 54.9171C50.9818 56.1713 51.0432 57.487 50.6254 58.6797C50.1583 60.02 49.1259 61.0898 47.9828 61.9382C45.5984 63.7211 41.3949 65.3442 39.0105 62.885C37.9658 61.8029 37.6708 60.4381 36.1836 59.6757C34.4875 58.8027 32.4595 59.1101 30.665 59.3683Z" fill="#A48570"/>
<path d="M38.2975 60.9546C37.0561 61.7538 36.9209 63.795 38.0394 64.7541C37.4494 65.8484 36.9455 67.3978 37.9165 68.1724C38.1746 68.3692 38.4941 68.4798 38.7399 68.6889C39.502 69.3283 39.2316 70.521 39.3053 71.517C39.3668 72.513 40.5959 73.5828 41.1981 72.7958C40.559 73.7303 40.5467 75.0583 41.1858 75.9928C41.8249 76.9273 43.054 77.4192 44.1602 77.1732C43.263 79.3374 45.5737 82.0548 47.8597 81.5015C47.1715 82.9648 47.5156 84.8461 48.6709 85.9896C49.8263 87.1332 51.7068 87.4406 53.1694 86.7397C52.5917 87.9447 52.813 89.4817 53.6856 90.49C54.5705 91.4983 56.07 91.9041 57.336 91.486C57.2254 92.7771 58.1963 94.0682 59.4623 94.3387C60.3718 94.5355 61.3305 94.2527 62.2277 94.4371C62.9283 94.5847 63.5429 94.9904 64.2311 95.1626C64.9194 95.3347 65.8044 95.1626 66.0748 94.5109C66.677 95.2733 67.8201 95.2855 68.7911 95.2241C69.5654 95.1749 70.352 95.1257 71.1263 95.0765C72.38 95.0027 73.7811 94.8306 74.5432 93.8346C74.4448 95.0519 75.7108 96.0233 76.9276 96.0602C78.1444 96.1094 79.2751 95.5069 80.3444 94.9167C81.635 96.3799 84.339 96.1832 85.4083 94.5478C87.0921 95.7159 89.3782 95.9495 91.2587 95.138C91.8733 94.8675 92.4509 94.4986 93.1023 94.4002C93.7046 94.3019 94.3191 94.4371 94.9214 94.5601C96.2857 94.8552 97.6991 95.1503 99.088 94.9536C100.477 94.7568 101.866 93.9822 102.407 92.6911C105.147 94.2404 108.859 93.8592 111.231 91.7934C114.894 91.8795 118.483 89.4817 119.786 86.0511C121.076 85.9773 121.961 84.5756 121.949 83.2845C121.937 81.9934 121.285 80.8006 120.646 79.6817C121.875 79.1283 122.416 77.5913 122.195 76.2633C121.986 74.9353 121.187 73.7795 120.376 72.6974C121.384 72.8327 122.256 71.849 122.391 70.8407C122.527 69.8324 122.146 68.8364 121.765 67.9019C121.15 66.3895 120.535 64.877 119.933 63.3646C119.565 62.4547 119.184 61.5079 118.495 60.7947C117.807 60.0815 116.75 59.6512 115.816 59.9832C115.238 57.4624 112.608 55.5934 110.039 55.8762C109.818 54.2531 108.454 52.9743 106.917 52.421C105.381 51.8677 103.697 51.9292 102.075 52.1136C101.165 50.5274 99.1617 49.8757 97.3427 49.9249C95.5113 49.9741 93.2007 51.7078 93.2007 51.7078C93.2007 51.7078 91.8364 50.7241 89.5872 51.1422C87.2642 51.5726 84.9043 52.5931 84.9043 52.5931C84.2283 52.63 82.2741 52.0152 78.845 52.0152C75.0963 52.0152 73.2772 53.958 73.2772 53.958C72.0235 53.2694 68.7173 53.1711 67.0949 54.3146C64.563 52.3595 60.9987 51.8308 58.012 52.9497C57.0779 51.6217 55.4063 50.8225 53.7839 50.9455C53.6733 49.7158 52.4074 48.8428 51.1783 48.7321C49.9492 48.6215 50.109 49.5068 48.9659 49.9618C48.6832 50.0724 47.7 49.4576 46.7536 49.888C45.844 50.3061 45.1681 50.7733 45.1681 51.5849C45.1681 51.5849 43.2876 50.8717 42.0462 52.1136C41.5177 52.6423 41.321 53.54 41.7389 54.1548C41.3948 53.6506 40.2026 54.4253 39.4405 55.286C38.531 56.2943 39.3422 57.61 39.3422 57.61C38.15 57.4747 37.0807 59.5282 38.2975 60.9546Z" fill="#F9E6D5"/>
<path d="M39.2326 69.0947C39.1835 69.1685 39.122 69.2177 39.0605 69.2546C39.0728 69.2792 39.0851 69.3038 39.0974 69.3161C39.1343 69.2546 39.1835 69.1685 39.2326 69.0947Z" fill="#EFDDD0"/>
<path d="M42.1941 73.4713C41.7886 73.5574 41.3584 73.5574 40.9405 73.459C40.584 74.332 40.6578 75.3772 41.1863 76.1641C41.7394 76.9757 42.7349 77.4553 43.7059 77.4061C42.4154 76.6068 41.5919 74.9099 42.1941 73.4713Z" fill="#EFDDD0"/>
<path d="M122.418 71.0001C122.553 69.9918 122.172 68.9958 121.791 68.0613C121.177 66.5489 120.562 65.0364 119.96 63.524C119.591 62.6141 119.21 61.6673 118.522 60.9541C118.964 62.0362 119.394 63.1182 119.837 64.2003C120.218 65.1471 120.611 66.1431 120.464 67.1391C120.329 68.1474 119.456 69.1311 118.448 68.9958C119.259 70.0779 120.046 71.2337 120.267 72.5617C120.476 73.8897 119.948 75.439 118.718 75.9801C119.358 77.099 120.009 78.2917 120.021 79.5828C120.034 80.8739 119.149 82.2757 117.858 82.3495C116.555 85.7678 112.954 88.1779 109.304 88.0918C106.932 90.1576 103.22 90.5388 100.479 88.9894C99.9258 90.2805 98.5369 91.0552 97.1603 91.2519C95.7715 91.4487 94.3703 91.1536 92.9937 90.8585C92.3915 90.7232 91.7769 90.6002 91.1747 90.6986C90.5233 90.8093 89.9333 91.1782 89.3311 91.4364C87.4506 92.2479 85.1645 92.0266 83.4806 90.8462C82.4113 92.4816 79.7196 92.6783 78.4168 91.215C77.3475 91.8053 76.2167 92.4078 74.9999 92.3586C73.7831 92.3094 72.5172 91.3503 72.6155 90.133C71.8535 91.129 70.4523 91.2888 69.1987 91.3749C68.4243 91.4241 67.6377 91.4733 66.8634 91.5225C65.8924 91.5839 64.7494 91.5839 64.1471 90.8093C63.8767 91.4733 62.9918 91.6331 62.3035 91.461C61.6152 91.2888 60.9884 90.8831 60.3001 90.7355C59.3906 90.5511 58.4319 90.8339 57.5346 90.6371C56.2687 90.3666 55.2977 89.0755 55.4083 87.7844C54.6094 88.0426 53.7368 87.9811 52.9625 87.6492C52.7412 88.6943 53.0239 89.8502 53.7245 90.6617C54.6094 91.67 56.1089 92.0758 57.3749 91.6577C57.2642 92.9488 58.2352 94.2399 59.5012 94.5104C60.4107 94.7072 61.3694 94.4244 62.2666 94.6088C62.9672 94.7564 63.5817 95.1621 64.27 95.3343C64.9583 95.5064 65.8433 95.3343 66.1137 94.6826C66.7159 95.4449 67.859 95.4572 68.8299 95.3958C69.6043 95.3466 70.3909 95.2974 71.1652 95.2482C72.4189 95.1744 73.82 95.0023 74.582 94.0063C74.4837 95.2236 75.7497 96.195 76.9665 96.2319C78.1833 96.2811 79.314 95.6786 80.3833 95.0884C81.6739 96.5516 84.3778 96.3549 85.4472 94.7195C87.131 95.8876 89.4171 96.1212 91.2976 95.3097C91.9121 95.0392 92.4898 94.6703 93.1412 94.5719C93.7435 94.4735 94.358 94.6088 94.9603 94.7318C96.3245 95.0269 97.738 95.322 99.1269 95.1252C100.516 94.9285 101.905 94.1538 102.445 92.8627C105.186 94.4121 108.898 94.0309 111.27 91.9651C114.933 92.0512 118.522 89.6534 119.825 86.2228C121.115 86.149 122 84.7472 121.988 83.4561C121.976 82.165 121.324 80.9723 120.685 79.8534C121.914 79.3 122.455 77.763 122.234 76.435C122.025 75.107 121.226 73.9512 120.415 72.8691C121.41 72.9921 122.283 72.0084 122.418 71.0001Z" fill="#EFDDD0"/>
<path d="M45.8821 77.7999C45.2553 77.9474 44.6285 77.8613 44.0754 77.5908C43.6206 79.1155 44.653 80.837 46.0788 81.4764C45.4519 80.3821 45.3413 78.968 45.8821 77.7999Z" fill="#EFDDD0"/>
<path d="M51.7085 86.7879C50.8235 85.7797 50.6146 84.2426 51.1923 83.0376C50.0492 83.5909 48.6358 83.5049 47.5296 82.9023C47.419 84.0828 47.8246 85.3247 48.6726 86.1608C49.5822 87.0585 50.9342 87.4396 52.1878 87.2183C52.0157 87.0953 51.856 86.9478 51.7085 86.7879Z" fill="#EFDDD0"/>
<path d="M48.229 86.2849C48.5363 86.5677 48.9296 86.8013 49.0894 87.2194C49.3106 87.8096 48.9665 88.4613 48.905 89.1007C48.7944 90.1705 49.6056 91.2526 50.5643 91.314C50.1464 92.1625 49.7039 93.097 49.8391 94.0684C49.9743 95.0275 50.9699 95.8759 51.7196 95.3718C50.9207 97.5974 53.0594 100.352 55.1488 99.7861C53.9689 101.372 55.1857 104.262 57.0416 104.25C57.4841 104.25 57.9142 104.114 58.3567 104.09C59.1433 104.053 59.9176 104.385 60.7165 104.409C61.5032 104.434 62.4373 103.967 62.5233 103.081C63.2485 104.065 64.6127 104.397 65.6452 103.832C66.6776 103.266 67.2799 101.864 67.0217 100.622C68.005 100.426 69.0006 99.8722 69.4185 98.8762C69.8363 97.8679 69.3939 96.417 68.4106 96.2202C69.7012 94.9537 69.8118 92.4699 68.6318 91.0681C70.0945 89.2729 69.3078 85.9037 67.2553 85.129C67.7715 83.9609 67.5994 82.4731 66.862 81.4894C66.1122 80.4934 64.834 80.0507 63.7155 80.4073C64.244 79.8663 64.158 78.858 63.7032 78.2309C63.2607 77.6038 62.5602 77.2841 61.8719 77.0504C60.3601 76.5217 58.1846 76.6324 57.8282 78.3415C57.5824 77.4193 56.6851 76.8537 55.8248 76.7676C54.9644 76.6816 54.1041 76.989 53.2806 77.2841C50.8839 78.1571 44.4803 82.9034 48.229 86.2849Z" fill="#F9E6D5"/>
<path d="M60.1621 77.7636C61.2806 77.407 62.5588 77.8496 63.3086 78.8456C63.6404 79.2883 63.8494 79.817 63.9477 80.3827C64.4393 79.8293 64.3533 78.8456 63.9108 78.2308C63.4683 77.6037 62.7678 77.284 62.0795 77.0504C61.6001 76.8782 61.0593 76.7799 60.5308 76.7676C60.5185 77.1365 60.4079 77.5054 60.1621 77.7636Z" fill="#EFDDD0"/>
<path d="M68.6066 96.2206C69.8972 94.9541 70.0078 92.4702 68.8279 91.0685C70.2905 89.2732 69.5039 85.9041 67.4513 85.1294C67.9675 83.9613 67.7954 82.4734 67.058 81.4897C66.3205 80.506 65.0546 80.0634 63.9484 80.4077C64.059 81.1086 63.9853 81.8586 63.7026 82.498C65.7552 83.2727 66.5295 86.6419 65.0792 88.4371C66.2591 89.8389 66.1485 92.3227 64.8579 93.5892C65.8412 93.7859 66.2837 95.2369 65.8658 96.2452C65.4479 97.2535 64.44 97.8068 63.4691 97.9912C63.7272 99.2455 63.1249 100.647 62.0925 101.201C61.0601 101.766 59.6958 101.434 58.9706 100.45C58.8846 101.324 57.9505 101.803 57.1639 101.778C56.4018 101.754 55.6644 101.446 54.9023 101.459C54.9761 102.848 55.9594 104.275 57.2499 104.262C57.6924 104.262 58.1225 104.127 58.565 104.102C59.3516 104.066 60.126 104.398 60.9249 104.422C61.7115 104.447 62.6456 103.979 62.7316 103.094C63.4568 104.078 64.8211 104.41 65.8535 103.844C66.8859 103.279 67.4882 101.877 67.2301 100.635C68.2133 100.438 69.2089 99.8849 69.6268 98.8889C70.0324 97.8683 69.5899 96.4173 68.6066 96.2206Z" fill="#EFDDD0"/>
<path d="M46.1387 36.6452C48.3757 36.2025 50.6863 36.4116 52.9601 36.6083C51.0919 39.8053 48.0561 42.2892 44.5655 43.4819C43.7174 43.7647 42.7956 43.986 41.9476 43.7278C39.5877 43.0269 40.0793 40.6046 41.3207 39.2028C42.5375 37.8256 44.3443 37.0018 46.1387 36.6452Z" fill="#A48570"/>
<path d="M45.7336 38.7226C47.2945 38.0464 49.003 37.8127 50.6868 37.5791C49.9985 38.6489 49.0521 39.5342 48.0811 40.358C47.3806 40.9606 46.6554 41.5508 45.9302 42.1164C45.3403 42.5714 44.7135 43.0263 43.976 43.1616C43.4352 43.2599 42.5994 43.137 42.2676 42.6328C41.948 42.1533 42.4028 41.5508 42.6855 41.145C43.4106 40.0383 44.5414 39.2391 45.7336 38.7226Z" fill="#846D5C"/>
<path d="M32.5572 44.8833C33.5527 44.8833 34.7081 44.5759 35.1014 43.666C36.2321 44.3792 37.535 44.9325 38.8624 44.8218C40.1898 44.7235 41.5295 43.8136 41.7876 42.4979C41.8736 42.0798 41.8368 41.6371 41.7876 41.2068C41.7139 40.6411 41.5787 40.0755 41.3206 39.5591C40.8904 38.6983 40.116 38.0343 39.2434 37.6286C38.3707 37.2228 37.3998 37.0506 36.4411 37.0015C33.8723 36.8785 31.2789 37.69 29.2141 39.2148C28.3291 39.8665 27.014 40.8871 26.6822 41.9937C26.5224 42.5224 26.7313 42.9282 27.1861 43.2233C27.4442 43.3955 27.7515 43.4816 28.0587 43.4816C28.3291 43.4816 28.6979 43.2602 28.9068 43.3217C29.1035 43.3832 29.4476 43.8873 29.6565 44.0349C29.9147 44.2193 30.2096 44.3669 30.5046 44.4898C31.1437 44.7604 31.8566 44.8833 32.5572 44.8833Z" fill="#846D5C"/>
<path d="M26.0924 39.2639C26.1292 39.4853 26.203 39.7066 26.2153 39.9402C26.2276 40.2108 26.1415 40.469 26.1047 40.7395C26.0309 41.4773 26.4857 42.2396 27.174 42.5224C27.8622 42.793 28.7226 42.5593 29.1774 41.9691C30.0009 43.0266 31.3774 43.6168 32.7048 43.4815C34.0322 43.3463 35.2613 42.4856 35.8513 41.2805C36.5273 42.7438 38.457 43.457 39.9319 42.793C41.4068 42.1167 42.1442 40.1862 41.4805 38.7106C42.3531 38.8705 43.2381 37.9851 43.066 37.1244C43.6437 37.5917 44.6024 37.272 44.9096 36.5957C45.2169 35.9317 44.9465 35.0832 44.4057 34.5914C43.8649 34.0995 43.1029 33.9028 42.3654 33.8905C41.7386 32.6363 40.3497 31.8002 38.9486 31.8247C37.5474 31.8493 36.1831 32.747 35.6055 34.0258C34.9909 33.3372 33.9708 33.0544 33.0859 33.3372C32.2009 33.62 31.5372 34.4561 31.4512 35.3661C30.5539 34.9972 29.5338 34.7635 28.6243 35.1078C27.4689 35.5505 27.7885 36.3375 27.346 37.149C26.9281 37.9237 25.908 38.1081 26.0924 39.2639Z" fill="#F9E6D5"/>
<path d="M27.875 47.3915C27.4694 47.7235 27.0638 48.2277 27.2359 48.7318C27.3588 49.1007 27.7521 49.322 28.1331 49.3958C28.5142 49.4696 28.9075 49.4696 29.2885 49.5679C29.8293 49.7155 30.2963 50.0844 30.8248 50.2565C31.636 50.5147 32.521 50.2811 33.283 49.9245C33.959 49.6048 34.6473 49.0884 34.6965 48.3506C34.7333 47.7358 34.3031 47.1825 33.8115 46.8013C31.9925 45.4118 29.5466 46.0266 27.875 47.3915Z" fill="#846D5C"/>
<path d="M32.2496 48.4126C32.2496 49.2733 31.5613 49.9619 30.701 49.9619C29.8406 49.9619 29.1523 49.2733 29.1523 48.4126C29.1523 47.5519 29.8406 46.8633 30.701 46.8633C31.5613 46.8633 32.2496 47.5519 32.2496 48.4126Z" fill="#231F20"/>
<path d="M30.7387 48.1425C30.7387 48.4376 30.5051 48.6712 30.2101 48.6712C29.9152 48.6712 29.6816 48.4376 29.6816 48.1425C29.6816 47.8474 29.9152 47.6137 30.2101 47.6137C30.4928 47.6014 30.7387 47.8474 30.7387 48.1425Z" fill="white"/>
<path d="M14.6871 57.2655C14.6257 57.6713 14.7609 58.0894 14.8961 58.4829C15.0681 58.987 15.2402 59.4789 15.4123 59.983C15.4615 60.106 15.5598 60.2658 15.6827 60.2289C15.7319 60.2043 15.7687 60.1552 15.7933 60.106C15.9039 59.86 15.8179 59.5772 15.7687 59.3067C15.6827 58.9009 15.6458 58.4952 15.6581 58.0771C15.6704 57.8189 15.7073 57.5484 15.8425 57.3393C15.9531 57.1795 16.1129 57.0565 16.2604 56.9213C16.4324 56.7614 16.5799 56.5893 16.7151 56.4048C16.8872 56.1589 16.9978 55.7777 16.7643 55.5933C16.1252 55.0522 14.7732 56.7122 14.6871 57.2655Z" fill="#231F20"/>
<path d="M17.293 63.0201C17.4036 63.0447 18.8047 62.1471 19.4439 61.5446C20.0953 60.9421 20.8204 59.9092 20.8204 59.9092H21.2137C21.2137 59.9092 20.5623 60.9052 20.0092 61.4708C19.4439 62.0241 17.9813 63.1554 17.9813 63.1554L17.293 63.0201Z" fill="#231F20"/>
<path d="M59.9167 114.369C59.9167 114.369 59.0441 117.468 59.253 118.353C59.4497 119.226 64.2185 119.632 64.1325 118.82C64.0342 118.009 63.6286 113.976 63.6286 113.976L59.9167 114.369Z" fill="#231F20"/>
<path d="M71.6552 113.963C71.6552 113.963 70.635 118.144 71.0406 118.672C71.4462 119.213 75.9201 118.943 75.9078 118.672C75.8955 118.402 75.4039 113.963 75.4039 113.963H71.6552Z" fill="#231F20"/>
<path d="M101.485 113.447C101.485 113.447 99.5187 116.152 99.9858 117.222C100.453 118.292 103.894 119.448 104.361 119.005C104.828 118.562 105.099 114.283 105.099 114.283L101.485 113.447Z" fill="#231F20"/>
<path d="M115.571 114.492C115.571 114.492 114.255 118.956 115.202 119.288C116.222 119.644 118.619 119.681 119.762 119.497C120.401 119.386 119.282 114.492 119.282 114.492H115.571Z" fill="#231F20"/>
<path d="M91.0492 90.5885C91.3687 89.531 92.7822 89.3834 93.8883 89.4326C93.7163 88.8547 93.5442 88.2522 93.6425 87.662C93.7408 87.0718 94.2202 86.4938 94.8224 86.4815C95.1912 86.4692 95.5968 86.6783 95.9163 86.4938C96.5677 86.125 95.9163 84.9568 96.4325 84.4035C96.8136 83.9854 97.5633 84.2436 98.0058 83.887C98.5343 83.4813 98.2516 82.6328 98.4728 82.0057C98.7555 81.2311 99.9846 81.0466 100.489 81.6983C100.747 81.4032 101.017 81.0958 101.386 80.936C101.754 80.7884 102.234 80.8499 102.443 81.1819C102.615 81.4524 102.578 81.8336 102.799 82.0549C102.959 82.2271 103.217 82.2517 103.438 82.3131C104.938 82.6943 105.626 84.8093 104.655 86.0143C105.515 86.5553 105.995 87.6251 105.835 88.6211C105.663 89.6171 104.852 90.4778 103.868 90.6991C104.68 91.2771 104.52 92.6051 103.807 93.3059C103.106 94.0068 102.074 94.2281 101.103 94.4249C100.489 94.5479 99.874 94.6708 99.2594 94.7938C98.2393 95.0028 97.1823 95.1996 96.1621 95.0151C95.3264 94.8676 94.5643 94.4618 93.8392 94.0437C92.7207 93.4289 90.5452 92.1993 91.0492 90.5885Z" fill="#EFDDD0"/>
<path d="M98.9521 81.1451C99.1119 81.5508 99.37 81.9566 99.3208 82.3993C99.2471 83.0387 98.6203 83.4322 98.2515 83.9609C97.637 84.8462 97.8951 86.1988 98.7678 86.7521C97.9688 87.2932 97.1085 87.8957 96.7766 88.8056C96.4448 89.7155 96.9979 90.9697 97.932 90.9205C96.1252 92.4699 96.8381 95.9866 99.075 96.5522C97.2068 97.3392 96.9856 100.512 98.7432 101.446C99.1611 101.667 99.6281 101.766 100.058 101.975C100.82 102.344 101.398 103.032 102.135 103.45C102.873 103.868 103.967 103.93 104.471 103.204C104.692 104.446 105.823 105.43 107.064 105.455C108.305 105.479 109.535 104.557 109.891 103.327C110.911 103.659 112.116 103.684 112.988 103.008C113.861 102.344 114.131 100.831 113.296 100.167C115.115 99.7123 116.393 97.5728 115.95 95.753C118.175 94.9168 119.035 91.56 117.462 89.8262C118.495 89.0638 119.048 87.6744 118.814 86.4201C118.581 85.1659 117.573 84.1208 116.356 83.8625C117.106 83.6535 117.511 82.719 117.376 81.9443C117.253 81.1697 116.737 80.5303 116.208 79.9646C115.041 78.7227 112.927 77.7144 111.771 79.0424C111.98 78.0956 111.403 77.1488 110.628 76.6324C109.854 76.1159 108.895 75.9438 107.974 75.7962C105.306 75.3413 97.0102 76.2512 98.9521 81.1451Z" fill="#F9E6D5"/>
<path d="M113.924 80.3952C115.153 80.6534 116.148 81.6986 116.382 82.9528C116.443 83.2971 116.443 83.6414 116.407 83.998C117.144 83.7766 117.525 82.8544 117.402 82.0798C117.279 81.3051 116.763 80.6657 116.235 80.1001C115.878 79.7189 115.423 79.3623 114.944 79.0918C114.846 79.682 114.477 80.2353 113.924 80.3952Z" fill="#EFDDD0"/>
<path d="M118.84 86.5561C118.607 85.3141 117.611 84.269 116.407 84.0107C116.271 84.933 115.78 85.8183 115.03 86.3593C116.603 88.0931 115.743 91.4499 113.518 92.2861C113.961 94.1182 112.683 96.2455 110.864 96.7004C111.699 97.3767 111.429 98.8769 110.556 99.5408C109.684 100.205 108.479 100.18 107.459 99.8605C107.103 101.09 105.873 102.012 104.632 101.988C103.391 101.963 102.26 100.979 102.039 99.7376C101.535 100.463 100.441 100.402 99.7034 99.9835C98.9783 99.5654 98.4129 98.8891 97.6631 98.5203C97.3805 99.6884 97.7246 101.029 98.7693 101.582C99.1872 101.803 99.6543 101.902 100.084 102.111C100.846 102.48 101.424 103.168 102.162 103.586C102.899 104.004 103.993 104.066 104.497 103.34C104.718 104.582 105.849 105.566 107.09 105.591C108.332 105.615 109.561 104.693 109.917 103.463C110.937 103.795 112.142 103.82 113.014 103.144C113.887 102.48 114.157 100.967 113.322 100.303C115.141 99.8483 116.419 97.7087 115.976 95.8889C118.201 95.0527 119.062 91.6959 117.488 89.9621C118.521 89.1997 119.074 87.8103 118.84 86.5561Z" fill="#EFDDD0"/>
<path opacity="0.35" d="M50.6983 57.2412C51.4849 56.6141 52.7385 56.6756 53.4514 57.3765C53.8693 56.5526 54.5207 55.778 55.4056 55.532C56.2906 55.2738 57.4091 55.7288 57.6303 56.6264C58.1096 55.7165 59.2281 55.1877 60.2359 55.4214C61.2438 55.6427 62.0427 56.5895 62.0796 57.6224C63.0383 56.7371 64.5623 56.4051 65.6808 57.0814C66.7993 57.7453 67.1803 59.4914 66.2708 60.4259C66.9468 59.8357 68.0652 59.971 68.7166 60.5858C69.368 61.2006 69.577 62.1843 69.4418 63.0696C69.1714 64.828 67.549 66.2789 65.7791 66.3527C65.6316 66.3527 65.4473 66.3281 65.4104 66.1928C65.3735 66.0576 65.6685 66.0084 65.6193 66.1437C64.3165 66.2789 63.0137 65.1968 62.9154 63.8934C62.8785 63.3278 63.3578 62.6023 63.8372 62.8975C62.8047 63.2909 61.5019 62.7991 60.9857 61.8154C60.3343 63.1926 58.0973 63.377 57.2124 62.1474C56.7699 63.0204 56.1923 63.8566 55.3688 64.373C54.5453 64.8894 53.4268 65.037 52.591 64.5328C52.505 65.6026 51.4849 66.4388 50.4156 66.5125C49.3463 66.5863 48.3138 65.9961 47.6501 65.16C47.2937 64.705 47.0233 64.1271 47.1585 63.5737C47.2937 63.0204 47.982 62.59 48.4736 62.8975C47.7853 63.0573 47.0356 62.3687 47.1585 61.6678C47.2814 60.967 48.2155 60.5612 48.8055 60.9424C47.5641 60.1062 49.3463 59.6636 49.6044 59.3193C50.096 58.7045 49.9854 57.8191 50.6983 57.2412Z" fill="white"/>
<path opacity="0.35" d="M90.091 62.959C90.6441 62.3196 91.6642 62.1475 92.3894 62.5778C92.2296 61.6679 92.6721 60.6719 93.4587 60.1801C94.2453 59.6882 95.3392 59.7497 96.0766 60.303C96.0152 59.4054 96.5683 58.4832 97.4041 58.1266C98.2275 57.7577 99.2723 57.9668 99.8991 58.6308C101.14 57.0323 104.017 57.2413 105.024 58.9874C106.008 58.5447 107.163 58.3357 108.159 58.766C109.154 59.1841 109.842 60.4014 109.424 61.3851C110.346 61.0408 111.391 61.8893 111.489 62.873C111.588 63.8444 110.985 64.7789 110.211 65.3814C109.597 65.8609 108.785 66.1806 108.036 65.9962C107.274 65.8117 106.671 64.9633 106.942 64.2378C106.253 64.3608 105.565 64.4838 104.877 64.5944C105.233 65.406 105.061 66.4266 104.447 67.0783C103.832 67.73 102.837 67.9636 102.001 67.6562C102.087 67.9021 102.161 68.148 102.247 68.3816C101.399 68.7505 100.44 68.8243 99.5427 68.603C99.8622 69.2547 99.3583 70.0785 98.6823 70.3613C98.0063 70.6441 97.2443 70.5458 96.5191 70.4474C96.4945 71.5049 95.8185 72.5255 94.8598 72.9681C93.9012 73.4108 92.6844 73.2632 91.8609 72.5992C92.1927 72.8698 90.6687 73.5338 90.4474 73.5215C89.6731 73.4477 89.1938 72.7345 89.1692 72.009C86.2808 71.6278 88.5301 66.0454 90.0173 65.283C89.5994 64.5575 89.5256 63.623 90.091 62.959Z" fill="white"/>
<path opacity="0.35" d="M28.7847 38.5141C28.2193 38.6247 27.6416 38.8338 27.2852 39.2764C26.9287 39.7314 26.9042 40.4692 27.3589 40.8258C27.7277 41.1086 28.2685 41.0348 28.6495 40.7889C29.0305 40.5429 29.3009 40.1495 29.559 39.756C29.5713 40.4815 30.2227 41.1332 30.9479 41.1578C31.673 41.1823 32.3613 40.5675 32.4228 39.8544C32.9267 40.1618 33.615 40.1372 34.1066 39.7929C34.5859 39.4486 34.8441 38.8092 34.7334 38.2313C35.52 38.6001 36.3558 38.969 37.2039 38.8338C38.052 38.7108 38.8509 37.8378 38.5682 37.0262C38.8263 37.5058 39.5637 37.6041 39.9693 37.2353C40.3749 36.8664 40.3872 36.1778 40.0431 35.7597C39.6989 35.3416 39.0721 35.1941 38.5559 35.3662C38.4698 35.3908 38.3715 35.4523 38.3838 35.5507C38.3961 35.6368 38.5805 35.5753 38.5067 35.5138C37.7816 34.8252 36.6508 34.6039 35.7167 34.9728C35.348 35.1203 34.9793 35.6368 35.3111 35.8704C35.0407 35.4277 34.4753 35.1818 33.9591 35.2802C33.4429 35.3785 33.0127 35.8212 32.9267 36.3376C32.5211 36.1286 32.1032 35.9196 31.6361 35.8827C31.1814 35.8458 30.6775 36.0179 30.4562 36.4237C29.7311 35.8827 29.1042 36.7188 28.6618 37.1615C28.4037 37.4197 28.0472 37.432 28.1087 37.9238C28.1578 38.1821 28.4774 38.5755 28.7847 38.5141Z" fill="white"/>
</svg>
