<svg width="150" height="150" viewBox="0 0 150 150" fill="none" xmlns="http://www.w3.org/2000/svg">
<path d="M31.3942 101.035C32.0371 101.999 32.7871 102.963 33.6442 103.82C33.6442 103.927 33.6442 103.927 33.7514 104.035C36.3228 106.82 39.4299 109.285 43.0728 110.142C43.6085 110.249 44.1442 110.356 44.6799 110.463C46.2871 110.677 47.8942 110.57 49.5014 110.463C50.0371 110.463 50.8942 110.356 51.8585 110.142C54.0014 109.82 57.0014 109.285 59.7871 108.427C60.8585 108.106 61.9299 107.677 62.8942 107.249C66.1085 105.749 68.1442 103.713 66.9656 100.927C65.1442 96.5345 61.6085 99.106 58.8228 100.713C58.6085 100.82 58.3942 100.927 58.1799 101.035C57.6442 101.356 57.1085 101.57 56.4656 101.785C56.0371 101.999 55.6085 102.213 55.0728 102.32C53.6799 102.856 52.1799 103.285 50.6799 103.392C49.1799 103.606 47.6799 103.606 46.1799 103.285C45.8585 103.177 45.5371 103.177 45.2156 103.07C42.9656 102.427 40.8228 101.142 39.1085 99.4274C38.2514 98.5702 37.5014 97.7131 36.8585 96.7488C36.6442 96.4274 36.4299 96.106 36.2156 95.6774C34.9299 93.3202 33.9656 90.856 33.4299 88.1774C33.0014 85.9274 33.0014 83.5702 33.4299 81.3202C33.6442 80.2488 33.9656 79.1774 34.3942 78.106C35.1442 76.3917 36.0014 74.7845 36.8585 73.0702C37.6085 71.4631 38.2514 69.7488 38.4656 68.0345C38.6799 66.5345 38.4656 65.0345 37.6085 63.856C36.0014 61.606 32.5728 61.606 30.3228 63.106C28.0728 64.606 26.8942 67.2845 26.0371 69.856C25.9299 70.1774 25.8228 70.3917 25.8228 70.7131C25.0728 73.4988 24.6442 76.3917 24.5371 79.1774C24.4299 81.6417 24.6442 83.9988 25.0728 86.356C26.1442 91.606 28.1799 96.6417 31.3942 101.035Z" fill="#E65C24"/>
<path d="M25.9297 70.6067C29.2511 70.7138 32.5725 71.6781 35.7868 72.6424C36.2154 72.7495 36.5368 72.8567 36.9654 72.9638C37.7154 71.3567 38.3583 69.6424 38.5725 67.9281C38.7868 66.4281 38.5725 64.9281 37.7154 63.7495C36.1083 61.4995 32.6797 61.4995 30.4297 62.9995C28.1797 64.4995 27.0011 67.1781 26.144 69.7495C26.0368 70.0709 26.0368 70.2852 25.9297 70.6067Z" fill="#50230E"/>
<path d="M25.1802 86.3573C27.1088 87.0001 29.0373 87.5359 31.0731 87.8573C31.8231 87.9644 32.5731 88.0716 33.4302 88.1787C33.0016 85.9287 33.0016 83.5716 33.4302 81.3216C30.4302 80.893 27.5373 80.0359 24.6445 79.1787C24.5373 81.5359 24.7516 83.893 25.1802 86.3573Z" fill="#50230E"/>
<path d="M31.3945 101.035C32.0374 102 32.7874 102.964 33.6445 103.821C35.5731 102.428 37.3945 100.928 39.216 99.3211C38.3588 98.464 37.6088 97.6069 36.966 96.6426C35.1445 98.2497 33.216 99.7497 31.3945 101.035Z" fill="#50230E"/>
<path d="M44.6797 110.463C46.2868 110.678 47.894 110.571 49.5011 110.463C50.0368 110.463 50.894 110.356 51.8583 110.142C51.4297 107.892 51.0011 105.642 50.6797 103.285C49.1797 103.499 47.6797 103.499 46.1797 103.178C45.9654 104.035 45.8583 104.999 45.644 105.856C45.3225 107.356 45.0011 108.963 44.6797 110.463Z" fill="#50230E"/>
<path d="M59.7882 108.32C60.8597 107.999 61.9311 107.57 62.8954 107.142C61.5025 104.999 60.1097 102.749 58.8239 100.499C58.6097 100.606 58.3954 100.713 58.1811 100.82C57.6454 101.142 57.1097 101.356 56.4668 101.57C57.5382 103.928 58.6097 106.178 59.7882 108.32Z" fill="#50230E"/>
<path d="M47.3598 120.643C45.2169 120.75 42.8598 121.393 41.574 123.643C40.824 124.929 40.7169 126.964 41.574 127.929C42.0026 128.357 42.6455 128.464 43.1812 128.571C47.3598 129 51.6455 128.571 55.7169 127.5C56.1455 127.393 56.6812 127.179 57.0026 126.857C57.6455 126.214 57.7526 124.929 57.4312 123.964C57.1098 123 56.4669 122.357 55.824 121.821C53.6812 120 49.9312 120.429 47.3598 120.643Z" fill="#AB9770"/>
<path d="M50.8969 120.75C48.754 120.857 46.3969 121.5 45.1112 123.75C44.3612 125.036 44.254 127.072 45.1112 128.036C45.5397 128.464 46.1826 128.572 46.7183 128.679C50.8969 129.107 55.1826 128.679 59.254 127.607C59.6826 127.5 60.2183 127.286 60.5397 126.964C61.1826 126.322 61.2897 125.036 60.9683 124.072C60.6469 123.107 60.004 122.464 59.3612 121.929C57.2183 120.107 53.4683 120.536 50.8969 120.75Z" fill="#B5A077"/>
<path d="M65.2522 112.822C65.2522 114.857 64.9308 116.786 64.5022 118.5C64.5022 118.607 64.5022 118.607 64.5022 118.715C63.7522 121.715 61.3951 125.679 57.7522 124.715C54.9665 123.965 52.2879 121.822 50.8951 119.357C50.5737 118.822 50.3594 118.286 50.1451 117.75C49.8237 116.893 49.5022 116.036 49.1808 115.179C48.8594 114.107 48.5379 113.036 48.2165 112.072C48.2165 111.857 48.1094 111.643 48.1094 111.429C47.6808 109.822 47.3594 108.107 47.3594 106.5C47.3594 105 47.4665 103.5 48.0022 102C49.0737 99.0002 52.0737 96.5359 55.2879 96.8574C58.5022 97.1788 60.8594 99.9645 62.6808 102.536C63.2165 103.286 63.6451 104.036 63.9665 104.893C64.6094 106.393 64.9308 108 65.1451 109.715C65.2522 110.679 65.2522 111.75 65.2522 112.822Z" fill="#E65C24"/>
<path d="M57.8594 103.821C57.0022 106.071 56.0379 108.428 54.1094 109.821C52.5022 111.107 50.4665 111.536 48.4308 111.964C48.3237 111.964 48.3237 111.964 48.2165 111.964C48.2165 111.75 48.1094 111.536 48.1094 111.321C47.6808 109.714 47.3594 108 47.3594 106.393C50.8951 106.071 54.4308 105.214 57.8594 103.821Z" fill="#50230E"/>
<path d="M65.144 109.607C60.5368 113.035 55.5011 115.714 50.144 117.75C49.8225 116.893 49.5011 116.035 49.1797 115.178C54.8583 113.035 60.0011 109.5 63.9654 104.893C64.6083 106.285 64.9297 107.893 65.144 109.607Z" fill="#50230E"/>
<path d="M65.2525 112.822C65.2525 114.858 64.9311 116.787 64.5025 118.501C61.2882 118.929 58.0739 118.929 54.9668 118.501C58.5025 117.001 61.9311 115.072 65.2525 112.822Z" fill="#50230E"/>
<path d="M122.466 120.643C124.609 120.75 126.966 121.393 128.251 123.643C129.001 124.929 129.109 126.964 128.251 127.929C127.823 128.357 127.18 128.464 126.644 128.571C122.466 129 118.18 128.571 114.109 127.5C113.68 127.393 113.144 127.179 112.823 126.857C112.18 126.214 112.073 124.929 112.394 123.964C112.716 123 113.359 122.357 114.001 121.821C116.144 120 119.894 120.429 122.466 120.643Z" fill="#AB9770"/>
<path d="M118.929 120.75C121.071 120.857 123.429 121.5 124.714 123.75C125.464 125.036 125.571 127.072 124.714 128.036C124.286 128.464 123.643 128.572 123.107 128.679C118.929 129.107 114.643 128.679 110.571 127.607C110.143 127.5 109.607 127.286 109.286 126.964C108.643 126.322 108.536 125.036 108.857 124.072C109.179 123.107 109.821 122.464 110.464 121.929C112.607 120.107 116.357 120.536 118.929 120.75Z" fill="#B5A077"/>
<path d="M104.572 112.822C104.572 114.857 104.894 116.786 105.215 118.5C105.215 118.607 105.215 118.607 105.322 118.715C106.072 121.715 108.429 125.679 112.072 124.715C114.858 123.965 117.537 121.822 118.929 119.357C119.251 118.822 119.465 118.286 119.679 117.75C120.001 116.893 120.322 116.036 120.644 115.179C120.965 114.107 121.287 113.036 121.608 112.072C121.608 111.857 121.715 111.643 121.715 111.429C122.144 109.822 122.465 108.107 122.465 106.5C122.465 105 122.358 103.5 121.822 102C120.751 99.0002 117.751 96.5359 114.537 96.8574C111.322 97.1788 108.965 99.9645 107.144 102.536C106.608 103.286 106.179 104.036 105.858 104.893C105.215 106.393 104.894 108 104.679 109.715C104.572 110.679 104.572 111.75 104.572 112.822Z" fill="#E65C24"/>
<path d="M111.965 103.821C112.822 106.071 113.786 108.428 115.715 109.821C117.322 111.107 119.358 111.536 121.393 111.964C121.501 111.964 121.501 111.964 121.608 111.964C121.608 111.75 121.715 111.536 121.715 111.321C122.143 109.714 122.465 108 122.465 106.393C118.929 106.071 115.393 105.214 111.965 103.821Z" fill="#50230E"/>
<path d="M104.68 109.607C109.287 113.035 114.323 115.714 119.68 117.75C120.001 116.893 120.323 116.035 120.644 115.178C114.965 113.035 109.823 109.5 105.858 104.893C105.215 106.285 104.894 107.893 104.68 109.607Z" fill="#50230E"/>
<path d="M104.572 112.822C104.572 114.858 104.894 116.787 105.215 118.501C108.429 118.929 111.644 118.929 114.751 118.501C111.322 117.001 107.787 115.072 104.572 112.822Z" fill="#50230E"/>
<path d="M61.9301 120.644C59.7872 120.751 57.4301 121.394 56.1444 123.644C55.3944 124.929 55.2872 126.965 56.1444 127.929C56.5729 128.358 57.2158 128.465 57.7515 128.572C61.9301 129.001 66.2158 128.572 70.2872 127.501C70.7158 127.394 71.2515 127.179 71.5729 126.858C72.2158 126.215 72.3229 124.929 72.0015 123.965C71.6801 123.001 71.0372 122.358 70.3944 121.822C68.2515 120.001 64.5015 120.429 61.9301 120.644Z" fill="#D6BD8D"/>
<path d="M65.5727 120.75C63.4298 120.857 61.0727 121.5 59.7869 123.75C59.0369 125.036 58.9298 127.072 59.7869 128.036C60.2155 128.464 60.8584 128.572 61.3941 128.679C65.5727 129.107 69.8584 128.679 73.9298 127.607C74.3584 127.5 74.8941 127.286 75.2155 126.964C75.8584 126.322 75.9655 125.036 75.6441 124.072C75.3227 123.107 74.6798 122.464 74.0369 121.929C71.8941 120.107 68.0369 120.536 65.5727 120.75Z" fill="#EFD39D"/>
<path d="M78.7511 98.4647C78.7511 103.286 78.644 108.215 78.644 112.5C78.644 114.215 78.5368 115.822 78.5368 117.215C78.5368 118.608 78.4297 119.893 78.4297 120.965C78.3225 122.893 78.2154 124.286 78.1083 124.715C77.894 125.358 77.6797 125.786 77.2511 126.108C75.5368 127.393 72.2154 126.322 70.9297 125.893C69.1083 125.358 67.1797 124.608 65.6797 123.322C64.0725 121.929 63.3225 120 63.0011 117.858C62.894 117.429 62.7868 115.5 62.5725 112.608C62.4654 111.322 62.3583 109.715 62.2511 108.108C62.144 106.5 62.0368 104.786 62.0368 103.072C62.0368 101.893 61.9297 100.715 61.9297 99.5361C61.9297 98.7861 61.9297 98.0361 61.9297 97.179C61.9297 96.429 61.9297 95.679 61.9297 94.929C61.9297 91.179 62.0368 87.429 62.3583 83.8933C62.4654 82.5004 62.5725 81.1076 62.7868 79.8219C63.644 73.2861 65.4654 68.7861 68.6797 69.2147C72.3225 69.7504 77.0368 73.179 78.2154 76.0719C78.5368 76.8219 78.7511 80.1433 78.8583 84.7504C78.8583 85.6076 78.8583 86.679 78.8583 87.6433C78.8583 89.5719 78.8583 91.6076 78.9654 93.6433C78.7511 95.1433 78.7511 96.8576 78.7511 98.4647Z" fill="#FF6628"/>
<path d="M78.6445 87.5366C72.966 87.3223 67.3945 86.0366 62.1445 83.8937C62.2517 82.5008 62.3588 81.108 62.5731 79.8223C67.1802 82.2866 72.216 83.8937 77.3588 84.5366C77.7874 84.5366 78.216 84.6437 78.5374 84.6437C78.6445 85.5008 78.6445 86.4651 78.6445 87.5366Z" fill="#5C2811"/>
<path d="M78.7525 98.4644C73.3954 100.714 67.7168 102.214 61.9311 102.964C61.9311 101.786 61.8239 100.607 61.8239 99.4287C63.8597 98.6787 65.8954 97.7144 67.6097 96.5359C65.6811 96.8573 63.6454 97.0716 61.7168 97.0716C61.7168 96.3216 61.7168 95.5716 61.7168 94.8216C67.3954 95.0359 73.0739 94.6073 78.6454 93.4287C78.7525 95.143 78.7525 96.8573 78.7525 98.4644Z" fill="#5C2811"/>
<path d="M75.8588 109.072C73.3945 110.786 70.5017 111.643 67.5017 112.179C65.7874 112.393 64.1802 112.5 62.466 112.607C62.3588 111.322 62.2517 109.715 62.1445 108.107C66.5374 109.393 71.2517 109.715 75.8588 109.072Z" fill="#5C2811"/>
<path d="M78.536 112.501C78.536 114.215 78.4289 115.822 78.4289 117.215C73.9289 118.18 69.1074 117.965 64.6074 116.572C69.536 116.037 74.2503 114.644 78.536 112.501Z" fill="#5C2811"/>
<path d="M78.3231 120.965C78.216 122.893 78.1088 124.286 78.0017 124.715C77.7874 125.358 77.5731 125.786 77.1445 126.108C73.8231 124.929 70.8231 123.215 68.1445 121.072C71.466 121.501 74.8945 121.501 78.3231 120.965Z" fill="#5C2811"/>
<path d="M108.216 120.644C110.359 120.751 112.716 121.394 114.001 123.644C114.751 124.929 114.859 126.965 114.001 127.929C113.573 128.358 112.93 128.465 112.394 128.572C108.216 129.001 103.93 128.572 99.8586 127.501C99.43 127.394 98.8943 127.179 98.5728 126.858C97.93 126.215 97.8228 124.929 98.1443 123.965C98.4657 123.001 99.1086 122.358 99.7514 121.822C101.787 120.001 105.644 120.429 108.216 120.644Z" fill="#D6BD8D"/>
<path d="M104.573 120.75C106.716 120.857 109.073 121.5 110.359 123.75C111.109 125.036 111.216 127.072 110.359 128.036C109.93 128.464 109.287 128.572 108.752 128.679C104.573 129.107 100.287 128.679 96.216 127.607C95.7874 127.5 95.2517 127.286 94.9303 126.964C94.2874 126.322 94.1803 125.036 94.5017 124.072C94.8231 123.107 95.466 122.464 96.1088 121.929C98.2517 120.107 102.002 120.536 104.573 120.75Z" fill="#EFD39D"/>
<path d="M91.3934 98.4647C91.3934 103.286 91.5006 108.215 91.5006 112.5C91.5006 114.215 91.6077 115.822 91.6077 117.215C91.6077 118.608 91.7148 119.893 91.7148 120.965C91.822 122.893 91.9291 124.286 92.0363 124.715C92.2506 125.358 92.572 125.786 92.8934 126.108C94.6077 127.393 97.9291 126.322 99.2148 125.893C101.036 125.358 102.965 124.608 104.358 123.322C105.965 121.929 106.715 120 107.036 117.858C107.143 117.429 107.251 115.5 107.465 112.608C107.572 111.322 107.679 109.715 107.786 108.108C107.893 106.5 108.001 104.786 108.001 103.072C108.001 101.893 108.108 100.715 108.108 99.5361C108.108 98.7861 108.108 98.0361 108.108 97.179C108.108 96.429 108.108 95.679 108.108 94.929C108.108 91.179 108.001 87.429 107.679 83.8933C107.572 82.5004 107.465 81.1076 107.251 79.8219C106.393 73.2861 104.572 68.7861 101.358 69.2147C97.7148 69.7504 93.0006 73.179 91.822 76.0719C91.5006 76.8219 91.2863 80.1433 91.1791 84.7504C91.1791 85.6076 91.1791 86.679 91.072 87.6433C91.072 89.5719 91.072 91.6076 90.9648 93.6433C91.3934 95.1433 91.3934 96.8576 91.3934 98.4647Z" fill="#FF6628"/>
<path d="M91.5 87.5366C97.1786 87.3223 102.75 86.0366 108 83.8937C107.893 82.5008 107.786 81.108 107.571 79.8223C102.964 82.2866 97.9286 83.8937 92.7857 84.5366C92.3571 84.5366 91.9286 84.6437 91.6071 84.6437C91.5 85.5008 91.5 86.4651 91.5 87.5366Z" fill="#5C2811"/>
<path d="M91.3945 98.4644C96.7517 100.714 102.43 102.214 108.216 102.964C108.216 101.786 108.323 100.607 108.323 99.4287C106.287 98.6787 104.252 97.7144 102.537 96.5359C104.466 96.8573 106.395 97.0716 108.43 97.0716C108.43 96.3216 108.43 95.5716 108.43 94.8216C102.752 95.0359 97.0731 94.6073 91.5017 93.4287C91.3945 95.143 91.3945 96.8573 91.3945 98.4644Z" fill="#5C2811"/>
<path d="M94.2852 109.072C96.7494 110.786 99.6423 111.643 102.642 112.179C104.357 112.393 106.071 112.5 107.678 112.607C107.785 111.322 107.892 109.715 107.999 108.107C103.607 109.393 98.8923 109.715 94.2852 109.072Z" fill="#5C2811"/>
<path d="M91.5 112.501C91.5 114.215 91.6071 115.822 91.6071 117.215C96.1071 118.18 100.929 117.965 105.429 116.572C100.607 116.037 95.8929 114.644 91.5 112.501Z" fill="#5C2811"/>
<path d="M91.8223 120.965C91.9294 122.893 92.0366 124.286 92.1437 124.715C92.358 125.358 92.6794 125.786 93.0008 126.108C96.3223 124.929 99.3223 123.215 102.001 121.072C98.6794 121.501 95.2508 121.501 91.8223 120.965Z" fill="#5C2811"/>
<path d="M68.3579 73.3931C66.7507 80.7859 67.0721 88.9288 67.2864 95.4645C67.2864 97.1788 67.3936 99.0002 68.1436 100.607C68.8936 102.215 70.2864 103.607 72.1079 103.715C70.5007 111.215 72.6436 116.786 77.3579 115.179C76.5007 123.965 83.2507 125.464 84.5364 125.572C97.715 126.107 95.5721 120.536 95.0364 113.572C97.1793 114.429 102.429 115.393 101.251 101.679C102.536 102.215 103.715 100.5 104.036 99.1074C104.679 96.4288 105.536 90.8574 105.429 88.1788C105.322 82.6074 105.001 77.0359 103.286 71.7859C101.679 66.5359 98.5721 61.5002 93.965 58.5002C89.3578 55.5002 82.9293 54.8574 78.215 57.7502C72.5364 61.0716 69.7507 66.8574 68.3579 73.3931Z" fill="#FFE1A7"/>
<path d="M63.6444 35.464C63.1087 35.6783 62.573 35.8925 62.0373 36.214C60.8587 36.964 59.573 37.9283 58.6087 38.6783C58.3944 38.5711 58.1801 38.464 57.9659 38.3568C55.3944 37.1783 52.9301 35.7854 51.1087 33.6425C49.1801 31.2854 48.1087 28.0711 49.073 25.1783C50.0373 22.2854 53.4659 20.2497 56.2516 21.3211C58.7159 22.2854 59.8944 24.964 60.8587 27.4283C61.9301 30.1068 62.7873 32.7854 63.6444 35.464Z" fill="#FF6628"/>
<path d="M62.0375 36.214C60.8589 36.964 59.5732 37.9283 58.6089 38.6783C58.3946 38.5711 58.1803 38.464 57.966 38.3569C55.1803 36.6426 52.9303 33.964 51.6446 30.8569C51.3232 29.9997 51.0018 29.1426 51.1089 28.2854C51.1089 27.4283 51.5375 26.464 52.2875 26.0354C52.9303 25.714 53.6803 25.6069 54.3232 25.714C55.6089 25.9283 56.6803 26.7854 57.5375 27.7497C58.3946 28.714 58.9303 29.8926 59.5732 31.0711C60.3232 32.7854 61.1803 34.4997 62.0375 36.214Z" fill="#FF9E4F"/>
<path d="M102.965 33.6427C103.501 33.857 104.036 34.0713 104.572 34.3927C105.751 35.1427 107.036 36.107 108.001 36.857C108.215 36.7498 108.429 36.6427 108.643 36.5355C111.215 35.357 113.679 33.9641 115.501 31.8213C117.429 29.4641 118.501 26.2498 117.536 23.357C116.572 20.4641 113.143 18.4284 110.358 19.4998C107.893 20.4641 106.715 23.1427 105.751 25.607C104.679 28.3927 103.822 30.9641 102.965 33.6427Z" fill="#FF6628"/>
<path d="M104.572 34.4992C105.751 35.2492 107.037 36.2134 108.001 36.9634C108.215 36.8563 108.429 36.7492 108.644 36.642C111.429 34.9277 113.679 32.2492 114.965 29.142C115.287 28.2849 115.608 27.4277 115.501 26.5706C115.501 25.7134 115.072 24.7492 114.322 24.3206C113.787 23.9992 113.037 23.892 112.394 23.9992C111.108 24.2134 110.037 25.0706 109.179 26.0349C108.322 26.9992 107.787 28.1777 107.144 29.3563C106.287 31.0706 105.429 32.7849 104.572 34.4992Z" fill="#FF9E4F"/>
<path d="M118.287 51C118.287 55.8214 116.68 60.6428 114.002 64.7143C110.573 69.8571 105.752 73.3928 100.287 75.5357C90.1089 79.6071 77.5732 78.75 67.2875 74.25C63.6446 72.6428 60.3232 70.7143 57.5375 68.3571C53.2518 64.8214 49.5018 61.2857 48.5375 55.5C47.5732 50.0357 47.6803 46.7143 51.1089 42C55.9303 35.3571 63.1089 30.6428 70.9303 28.3928C73.3946 27.75 76.1803 27.2143 79.1803 27.1071C81.6446 26.8928 84.1089 27 86.6803 27.1071C101.573 28.1785 117.752 35.3571 118.287 50.3571C118.287 50.6785 118.287 50.8928 118.287 51Z" fill="#FF6628"/>
<path d="M105.323 73.0717C100.18 80.3574 82.2874 81.3217 74.1446 78.3217C71.6803 77.3574 69.216 76.0717 67.1803 74.3574C66.216 73.5003 65.466 72.6431 64.716 71.5717C60.8589 65.6788 64.716 58.9288 73.9303 51.536C79.1803 47.3574 79.6089 35.036 79.1803 27.2145C81.6446 27.0003 84.1089 27.1074 86.6803 27.2145C87.7517 34.7145 87.4303 45.8574 91.3946 49.8217C98.2517 56.6788 111.537 64.286 105.323 73.0717Z" fill="#EFD39D"/>
<path d="M71.4661 37.2847C70.5018 36.9633 69.5375 36.749 68.4661 36.749C66.3233 36.749 65.4661 39.749 67.3947 40.8205C68.2518 41.3562 69.2161 41.5705 70.2875 41.8919C71.5733 42.2133 72.859 41.4633 73.1804 40.1776C73.5018 38.8919 72.7518 37.7133 71.4661 37.2847Z" fill="#F0E6C0"/>
<path d="M98.1442 36.9639C96.7513 37.1782 95.037 37.6067 94.1799 38.7853C93.6442 39.5353 93.9656 40.821 94.8227 41.2496C96.1084 41.8925 97.8227 41.571 99.1084 41.1425C100.18 40.7139 101.037 39.7496 100.716 38.571C100.501 37.2853 99.3227 36.7496 98.1442 36.9639Z" fill="#F0E6C0"/>
<path d="M73.3939 60.429C71.5725 60.8576 69.7511 61.8219 68.8939 63.429C66.6439 67.7147 68.7868 72.7504 73.3939 73.5004C76.0725 73.929 79.3939 74.3576 81.7511 72.8576C83.7868 71.5719 84.1082 68.679 84.2154 66.2147C84.2154 65.1433 84.3225 63.9647 83.7868 63.0004C83.2511 61.929 82.2868 61.2862 81.2154 60.8576C79.0725 60.0004 75.7511 59.8933 73.3939 60.429Z" fill="#FFE1A7"/>
<path d="M94.1815 60.429C96.0029 60.8576 97.8243 61.8219 98.6815 63.429C100.931 67.7147 98.7886 72.7504 94.1815 73.5004C91.5029 73.929 88.1815 74.3576 85.7172 72.8576C83.6815 71.5719 83.36 68.679 83.2529 66.2147C83.2529 65.1433 83.1457 63.9647 83.6815 63.0004C84.2172 61.929 85.1815 61.2862 86.2529 60.8576C88.5029 60.0004 91.8243 59.8933 94.1815 60.429Z" fill="#FFE1A7"/>
<path d="M83.4667 59.7862C82.0738 59.8933 80.681 59.2505 79.2881 59.4648C77.4667 59.7862 77.2524 61.6076 78.3238 63.3219C80.5738 67.0719 85.6095 67.1791 87.9667 63.6433C88.931 62.1433 89.3595 59.6791 87.5381 59.1433C86.2524 58.7148 84.8595 59.6791 83.5738 59.7862C83.5738 59.7862 83.5738 59.7862 83.4667 59.7862Z" fill="#3A1B0B"/>
<path d="M83.6798 60.5371C83.4655 60.5371 83.2512 60.5371 83.0369 60.6443H82.9298C82.7155 60.6443 82.5012 60.6443 82.2869 60.7514C82.0726 60.9657 82.0726 61.3943 82.1798 61.6085C82.1798 61.7157 82.2869 61.7157 82.394 61.7157C82.394 61.7157 82.394 61.7157 82.5012 61.8228C82.9298 62.0371 83.4655 62.0371 83.894 61.8228C83.894 61.8228 84.0012 61.8228 84.0012 61.7157H84.1083C84.2155 61.7157 84.3226 61.6085 84.3226 61.3943C84.3226 60.8585 84.0012 60.6443 83.6798 60.5371Z" fill="white"/>
<path d="M58.7159 40.9287C55.2873 43.1787 52.6087 46.7144 52.1802 50.7859C51.6445 54.8573 53.4659 59.2501 57.0016 61.2859C57.9659 61.8216 59.0373 62.2501 59.8945 62.7859C61.073 63.4287 62.0373 64.393 62.7873 65.4644C63.0016 63.1073 61.5016 61.5001 59.7873 59.893C58.073 58.2859 56.0373 56.893 55.073 54.8573C54.1087 52.8216 54.2159 50.4644 54.8587 48.3216C55.5016 46.1787 56.6802 44.2501 57.8587 42.3216C58.2873 41.6787 57.8587 41.143 58.7159 40.9287Z" fill="#50230E"/>
<path d="M61.7157 44.5713C60.5371 46.2856 59.4657 47.9999 58.93 50.0356C58.3943 51.9641 58.5014 54.3213 59.68 55.9284C60.5372 56.9999 61.7157 57.7499 63.0014 58.1784C61.7157 56.9999 61.0729 55.3927 60.9657 53.6784C60.8586 51.9641 61.18 50.2499 61.5014 48.5356C61.8229 47.1427 61.5014 45.9641 61.7157 44.5713Z" fill="#50230E"/>
<path d="M110.359 41.6787C113.788 43.9287 116.467 47.4644 116.895 51.5359C117.431 55.6073 115.609 60.0001 112.074 62.0359C111.109 62.5716 110.038 63.0001 109.181 63.5359C108.002 64.1787 107.038 65.143 106.288 66.2144C106.074 63.8573 107.574 62.2501 109.288 60.643C111.002 59.0359 113.038 57.643 114.002 55.6073C114.967 53.5716 114.859 51.2144 114.217 49.0716C113.574 46.9287 112.395 45.0001 111.217 43.0716C110.788 42.5359 111.217 41.893 110.359 41.6787Z" fill="#50230E"/>
<path d="M107.251 45.3203C108.429 47.0346 109.501 48.7489 110.036 50.7846C110.572 52.7132 110.465 55.0703 109.286 56.6775C108.429 57.7489 107.251 58.4989 105.965 58.9275C107.251 57.7489 107.893 56.1417 108.001 54.4275C108.108 52.7132 107.786 50.9989 107.465 49.2846C107.251 47.8917 107.572 46.7132 107.251 45.3203Z" fill="#50230E"/>
<path d="M70.8209 33.2136C73.0709 31.9279 75.5352 31.4993 77.8923 31.8208C79.3923 32.035 80.7852 32.6779 82.2852 32.6779C84.428 32.785 86.4637 31.8208 88.4994 31.3922C91.8209 30.7493 95.2494 31.3922 98.2494 33.2136C95.7852 32.1422 93.1066 32.3565 90.6423 32.9993C88.178 33.6422 85.928 35.035 83.4637 35.3565C79.0709 35.8922 74.7852 32.5708 70.2852 33.1065C70.6066 33.1065 70.4994 33.3208 70.8209 33.2136Z" fill="#50230E"/>
<path d="M75.4297 35.6775C78.8583 37.8203 83.0368 38.6775 86.5725 36.856C88.394 35.8917 90.0011 34.2846 92.0368 34.0703C90.644 36.4275 88.6083 38.4632 86.3583 39.6417C84.1083 40.8203 81.5368 40.9275 79.2868 39.9632C77.4654 39.106 76.9297 37.1775 75.4297 35.6775Z" fill="#50230E"/>
<path d="M67.6074 49.179C67.6074 48.0004 68.5717 47.0361 69.7503 47.0361C70.9289 47.0361 71.8931 48.0004 71.8931 49.179C71.8931 50.3576 70.9289 51.3218 69.7503 51.3218C68.5717 51.429 67.6074 50.3576 67.6074 49.179Z" fill="#663333"/>
<path d="M94.9277 49.179C94.9277 48.0004 95.892 47.0361 97.0706 47.0361C98.2492 47.0361 99.2134 48.0004 99.2134 49.179C99.2134 50.3576 98.2492 51.3218 97.0706 51.3218C95.892 51.429 94.9277 50.3576 94.9277 49.179Z" fill="#663333"/>
</svg>
