<svg width="150" height="150" viewBox="0 0 150 150" fill="none" xmlns="http://www.w3.org/2000/svg">
<path d="M110.952 65.6699C110.952 65.6699 114.461 76.8236 123.839 80.4857C130.654 83.144 132.92 81.378 135.297 79.7979C136.949 78.7012 139.178 79.2403 138.676 80.9691C138.119 82.9396 134.517 84.4453 130.766 84.9286C127.479 85.3562 124.805 84.278 122.669 83.3299C115.427 80.0954 110.135 74.6301 109.021 67.6776L110.952 65.6699Z" fill="#F2903D"/>
<path d="M113.218 76.5079C113.237 76.1176 113.274 75.7458 113.385 75.374C113.515 74.9464 114.147 73.3477 114.648 72.79C115.057 73.3849 115.484 73.9798 115.967 74.5746C115.985 74.8907 115.985 75.1509 115.967 75.2996C115.837 76.3035 115.279 77.2329 114.444 77.8278C114.017 77.4002 113.608 76.9541 113.218 76.5079Z" fill="#28251F"/>
<path d="M119.42 79.6502C119.606 79.4085 120.015 79.0367 120.479 78.7207C120.757 78.9066 121.054 79.0925 121.352 79.2784C120.776 79.7803 120.163 80.2822 119.736 81.0258C119.625 81.2117 119.513 81.4162 119.402 81.6393C119.197 81.5091 118.993 81.3976 118.789 81.2675C118.9 80.6726 119.068 80.0963 119.42 79.6502Z" fill="#28251F"/>
<path d="M125.826 83.2189C125.436 82.5868 125.288 81.7875 125.418 81.0625C125.938 81.2298 126.421 81.3599 126.885 81.4715C126.68 82.0849 126.198 82.7913 125.826 83.2189Z" fill="#28251F"/>
<path d="M133.181 81.0811C133.441 81.3413 133.701 81.6016 134.053 81.7317C134.332 81.8432 134.666 81.8432 134.908 82.0291C135.112 82.1778 135.223 82.4381 135.316 82.6797C135.391 82.9214 135.483 83.256 135.539 83.6092C135.409 83.6836 135.279 83.7579 135.149 83.8323C134.666 84.0182 134.165 84.1855 133.645 84.3342C133.868 84.1483 134.146 83.9996 134.239 83.7394C134.332 83.4977 134.276 83.2374 134.146 83.0144C134.016 82.7913 133.812 82.624 133.626 82.4753C133.255 82.1778 132.884 81.899 132.475 81.6387C132.401 81.583 132.308 81.5272 132.234 81.4714C132.568 81.3599 132.884 81.2298 133.181 81.0811Z" fill="#28251F"/>
<path d="M42.0206 74.5186L44.2676 103.146C44.2676 103.146 41.8907 103.258 40.6651 104.466C39.8109 105.321 39.8666 106.641 39.978 107.348C40.0151 107.626 40.2565 107.812 40.5351 107.812H48.5014C48.7985 107.812 49.0585 107.571 49.0771 107.273L52.791 77.9576L42.0206 74.5186Z" fill="#C3743C"/>
<path d="M48.1859 97.7368C47.8517 96.6958 48.0002 95.5804 48.0374 94.4836C48.0931 92.1599 47.5174 89.6875 46.8675 87.4754C46.7375 87.0292 46.5889 86.6017 46.4961 86.1369C46.2547 84.9658 46.329 83.7761 46.2918 82.5863C46.2547 81.3966 46.0876 80.1697 45.4376 79.1845C44.7506 78.1434 43.5621 77.4556 43.0979 76.3031C43.7107 75.9313 44.5834 75.7082 45.4005 75.5967L50.2472 77.1396C50.7114 77.6415 51.1199 78.1806 51.5656 78.6825C51.8813 79.0543 52.2341 79.4075 52.5684 79.7607L49.6715 102.7C49.5044 102.384 49.5229 101.975 49.5229 101.603C49.5229 100.953 49.393 100.321 49.1516 99.7258C48.8544 99.038 48.4273 98.4246 48.1859 97.7368Z" fill="#E1BEA7"/>
<path d="M43.9712 107.794C43.9712 107.794 43.5255 106.66 44.6211 105.377C44.6211 105.377 43.3769 106.009 43.3769 107.794H43.9712Z" fill="#772638"/>
<path d="M40.7216 107.794C40.7216 107.794 40.6287 105.805 42.0586 105.191C42.0586 105.191 41.0373 105.991 41.1301 107.794H40.7216Z" fill="#772638"/>
<path d="M46.2914 94.6511C46.05 94.6697 45.8086 94.6883 45.5858 94.5954C45.3629 94.5024 45.1773 94.2793 45.2144 94.0563C45.2701 93.7403 45.6415 93.6287 45.9572 93.5915C46.8671 93.4986 47.8141 93.6473 48.6498 94.0005C49.0212 94.1678 49.9125 94.5396 50.6367 95.0229L50.4139 96.7146C50.2653 96.5287 50.1168 96.3242 49.9868 96.1755C49.4854 95.5992 48.9283 95.0415 48.1855 94.7813C47.5913 94.5768 46.9228 94.614 46.2914 94.6511Z" fill="#28251F"/>
<path d="M102.855 68.8857C102.855 68.8857 98.6212 75.6337 99.8283 81.6753C101.017 87.6983 103.134 91.8809 103.746 93.7399C104.304 95.4129 99.884 104.894 99.4569 107.292C99.4012 107.57 99.1783 107.756 98.8998 107.756L91.9919 107.812C91.6576 107.812 91.3791 107.515 91.4162 107.18C91.5091 106.344 91.7319 104.912 92.2519 104.336C92.9946 103.499 95.7987 103.704 95.9101 103.592C96.1886 103.313 98.2313 96.6584 97.897 95.2828C97.6742 94.3719 95.6315 90.1149 93.5517 87.4566C92.6604 86.3227 90.4135 85.6535 88.1108 84.1663C85.2325 82.3074 84.4526 80.374 84.4526 80.374L102.855 68.8857Z" fill="#C3743C"/>
<path d="M90.7853 81.4521C91.3981 81.861 91.9181 82.363 92.568 82.7162C93.5708 83.2367 94.5735 83.627 95.3163 84.5379C95.9477 85.3001 96.3376 86.3039 97.1547 86.8802C97.7118 87.2706 98.4174 87.4193 99.0116 87.7725C99.8844 88.293 100.423 89.2597 100.553 90.2821C100.683 91.2859 100.442 92.3269 99.9773 93.2192C99.6059 93.9256 99.1045 94.5948 98.9374 95.3756C98.7517 96.2865 99.0674 97.2345 98.8074 98.1268C98.4731 99.2794 97.2847 99.9672 96.8019 101.064C96.7462 101.194 96.6904 101.343 96.6347 101.473C97.2847 99.3166 98.0832 96.1749 97.8603 95.2826C97.6375 94.3718 95.5948 90.1148 93.515 87.4565C92.6237 86.3225 90.3768 85.6533 88.0742 84.1661C85.9572 82.7905 84.973 81.3777 84.6016 80.7457C86.5886 80.3739 89.1141 80.3553 90.7853 81.4521Z" fill="#E1BEA7"/>
<path d="M95.1665 107.794C95.1665 107.794 94.7208 106.66 95.8164 105.377C95.8164 105.377 94.5722 106.009 94.5722 107.794H95.1665Z" fill="#772638"/>
<path d="M91.9169 107.794C91.9169 107.794 91.824 105.805 93.2539 105.191C93.2539 105.191 92.2326 105.991 92.3254 107.794H91.9169Z" fill="#772638"/>
<path d="M99.4018 88.3118C98.6961 88.5163 98.009 88.7022 97.3034 88.9067C97.0991 88.9625 96.8577 89.0182 96.6535 88.9439C96.4492 88.8695 96.3192 88.5721 96.4678 88.4048C97.1548 87.9215 97.9719 87.624 98.8075 87.5125C99.4203 87.4381 100.107 87.4195 100.534 86.9734C100.757 86.7317 100.85 86.3971 100.943 86.0625C101.073 86.5086 101.222 86.9362 101.352 87.3452C100.999 87.624 100.609 87.8471 100.33 87.9772C100.015 88.1445 99.6989 88.2375 99.4018 88.3118Z" fill="#28251F"/>
<path d="M97.8971 95.2833C97.8414 95.0788 97.7114 94.7256 97.5072 94.2423C97.6557 94.2051 97.8043 94.1494 97.9157 94.0936C98.1385 93.9449 98.3428 93.759 98.5842 93.6289C99.197 93.2571 99.9583 93.2757 100.683 93.35C100.905 93.3686 101.147 93.4058 101.314 93.5359C101.722 93.8333 101.704 94.484 101.388 94.8929C101.073 95.3019 100.59 95.4878 100.107 95.6737C99.4013 95.9525 98.6399 96.1942 97.8971 96.2128C97.9343 95.8038 97.9343 95.4878 97.8971 95.2833Z" fill="#28251F"/>
<path d="M28.1141 42.9345C28.1141 42.9345 27.3713 39.6442 27.3899 38.3058C27.4085 37.3763 28.2441 37.2647 28.9683 37.3019C30.751 37.3763 31.9395 40.741 31.9395 40.741L28.1141 42.9345Z" fill="#D27733"/>
<path d="M21.3539 47.8234C22.1895 46.8567 22.9137 44.31 23.3965 43.5106C23.8793 42.7299 28.726 39.6812 28.726 39.6812C28.726 39.6812 31.9757 37.9896 36.6738 39.2908C39.1621 39.9786 40.7406 41.6145 43.006 42.6555C45.1415 43.6408 45.8472 43.585 47.9084 44.6446C50.2482 45.8529 52.0123 48.3625 54.4449 50.1285C56.469 51.5971 58.7159 53.7349 61.8356 54.497C69.8577 56.4861 81.7794 54.5714 91.7884 53.4746C99.1048 52.6753 105.883 55.0919 108.65 59.0514C112.364 64.3866 112.066 71.3577 105.326 75.6333C97.8792 80.3736 90.08 84.4447 73.6645 83.6082C57.2489 82.7716 48.3541 81.3774 44.6773 78.1243C41.0005 74.8711 40.7777 72.975 40.2206 68.9968C39.6635 65.0373 40.4063 63.8847 40.1278 62.1001C39.8492 60.3341 39.0507 58.7726 37.2123 58.3822C36.5995 58.2521 31.3815 56.3002 30.2116 56.1143C29.0603 55.9284 28.5032 55.7797 27.1662 56.3374C26.1077 56.7835 23.6936 57.0996 23.118 56.9694C22.5423 56.8393 21.9667 56.3374 21.6324 55.7425C21.3167 55.1477 21.3353 54.4041 21.3353 54.4041C21.3353 54.4041 20.5182 54.0323 19.9426 53.0285C19.7012 52.6009 18.457 52.0804 18.4384 51.1137C18.4384 50.4631 20.4997 48.79 21.3539 47.8234Z" fill="#F2903D"/>
<path d="M26.1832 41.3551C27.4831 40.4814 28.7272 39.7007 28.7272 39.7007C28.7272 39.7007 29.7671 39.1616 31.5312 38.9199C31.5127 39.3847 31.2527 39.8308 30.807 39.9423C30.5842 39.9981 30.3242 39.9423 30.1014 39.9981C29.7671 40.0725 29.5072 40.3513 29.21 40.5186C28.5973 40.8904 27.8545 40.8718 27.1674 41.0205C26.8888 41.0577 26.4989 41.2808 26.1832 41.3551Z" fill="#28251F"/>
<path d="M19.887 52.9922L19.8685 52.9736C19.8499 52.955 19.8313 52.9178 19.7942 52.8992C19.7756 52.8806 19.7756 52.8806 19.7571 52.862C19.7199 52.8434 19.7013 52.8063 19.6642 52.7877C19.6456 52.7877 19.6456 52.7691 19.6271 52.7691C19.6085 52.7505 19.5714 52.7319 19.5342 52.6947C19.5156 52.6761 19.4785 52.6575 19.4599 52.639C19.4228 52.6018 19.3857 52.5832 19.3485 52.546C19.3485 52.546 19.3485 52.546 19.33 52.5274C19.2928 52.4902 19.2371 52.4531 19.2 52.4159C19.2 52.4159 19.2 52.4159 19.1814 52.4159L19.1628 52.3973C19.1257 52.3601 19.07 52.3229 19.0328 52.2858L19.0143 52.2672C18.9586 52.2114 18.9214 52.1742 18.8657 52.1184C19.2371 51.6537 19.7199 51.189 20.1284 51.0031C20.8712 50.6685 21.4655 50.5569 22.2082 50.9287C22.5054 51.0774 22.7653 51.3191 22.8582 51.6165C22.951 51.914 22.8768 52.2672 23.0439 52.5274C23.1367 52.6761 23.3038 52.7877 23.471 52.8434C23.8424 52.9922 24.2509 53.0107 24.6409 52.9922C25.1608 52.9736 25.7736 52.8806 25.9964 52.4159C26.3307 51.7652 26.2193 51.3749 26.9435 50.9287C27.5006 50.5941 28.1691 50.4454 28.8005 50.371C29.8032 50.2595 30.8617 50.2595 31.753 49.7576C33.2386 48.9211 33.7771 47.0063 35.1327 45.9653C35.6526 45.5749 36.3583 45.3519 36.9711 45.5749C37.621 45.8166 38.011 46.4672 38.2152 47.1179C38.698 48.7723 39.0323 50.1851 38.9023 51.8954C38.7723 53.5498 38.9395 55.0556 39.5523 56.6171C40.0165 57.8068 40.945 58.7549 41.2421 60.0376C41.4464 60.8741 41.5021 61.9523 41.4464 62.826C41.3721 63.96 40.8521 64.9452 41.0007 66.1349C41.0935 66.9714 41.4278 67.7522 41.6692 68.5701C41.8363 69.1278 41.9663 69.7227 42.022 70.3176C42.0777 70.8195 41.9849 71.2099 42.1891 71.6932C42.5791 72.5669 43.4147 73.2175 44.2689 73.6079C45.1974 74.0355 46.2187 74.2585 47.1658 74.6117C48.0386 74.9463 48.967 75.4483 49.8027 75.8944C50.3226 76.1732 50.7126 76.6566 51.214 77.0098C52.3282 77.7719 53.6652 78.1066 54.9093 78.5341C57.1191 79.2777 59.496 79.6123 61.8172 79.2405C65.7168 78.6085 69.4679 76.6938 73.5161 77.8091C74.8531 78.1809 76.0415 78.9059 77.3228 79.445C78.6041 79.9841 80.0526 80.3187 81.3524 79.854C81.6124 79.761 81.8724 79.6309 82.021 79.3892C82.1695 79.129 82.1509 78.7944 82.2438 78.5155C82.5223 77.6604 83.6551 77.5117 84.565 77.5675C86.9976 77.7162 89.7459 78.8315 92.16 78.4226C92.4942 78.3668 92.847 78.2739 93.1813 78.2553C94.314 78.2367 95.3168 79.3892 95.1497 80.5046C94.9825 81.5456 93.0699 81.7501 92.1971 82.0103C90.9901 82.3635 89.7459 82.6424 88.5203 82.8841C85.6235 83.4417 82.6709 83.702 79.7369 83.7949C77.7128 83.8507 75.7073 83.8135 73.7018 83.702C71.9377 83.609 70.2664 83.5161 68.6694 83.4046C68.6694 83.4046 65.0483 83.1443 63.4885 83.0142C63.3214 82.9956 63.1542 82.977 63.0057 82.977C62.8943 82.9584 62.7643 82.9584 62.6529 82.9398C60.3317 82.7168 58.2333 82.4751 56.3577 82.1962C56.3206 82.1962 56.2649 82.1777 56.2278 82.1777C56.0049 82.1405 55.7821 82.1033 55.5593 82.0661C55.3921 82.0475 55.225 82.0103 55.0579 81.9732C50.3412 81.1738 47.1287 80.077 45.1603 78.5713C45.0303 78.4783 44.9003 78.3668 44.7889 78.2553C44.7703 78.2367 44.7517 78.2367 44.7517 78.2181C43.3776 76.9912 42.4863 75.9688 41.8735 74.9463C41.8177 74.8534 41.7806 74.779 41.7249 74.6861C41.4464 74.1842 41.2235 73.6637 41.0564 73.1246C41.0007 72.9387 40.945 72.7714 40.8893 72.5855C40.8336 72.3996 40.7964 72.2137 40.7593 72.0278C40.5736 71.1541 40.4436 70.206 40.2765 69.0907C40.0722 67.6035 40.0351 66.5067 40.0722 65.633C40.0908 65.3356 40.1093 65.0753 40.1279 64.8151C40.1836 64.1273 40.2579 63.5696 40.2579 62.9933C40.2579 62.733 40.2393 62.4728 40.2022 62.194C40.1651 61.9709 40.1279 61.7478 40.0722 61.5433C40.0536 61.4318 40.0165 61.3388 39.9794 61.2273C39.7937 60.6138 39.5151 60.0376 39.1437 59.5728C38.698 59.0337 38.0853 58.6434 37.2868 58.4575C37.2682 58.4575 37.2496 58.4389 37.2125 58.4389H37.1939C37.1753 58.4389 37.1568 58.4203 37.1382 58.4203C37.1196 58.4203 37.1196 58.4203 37.1011 58.4017C37.0825 58.4017 37.0454 58.3831 37.0268 58.3831C37.0082 58.3831 36.9897 58.3831 36.9897 58.3645C36.9525 58.3645 36.9339 58.3459 36.8968 58.3273C36.8782 58.3273 36.8597 58.3273 36.8597 58.3087C36.804 58.2902 36.7668 58.2716 36.7111 58.253C36.6925 58.253 36.6925 58.253 36.674 58.2344C36.6368 58.2158 36.5811 58.1972 36.544 58.1972C36.5254 58.1972 36.5068 58.1786 36.4697 58.1786C36.4326 58.16 36.3954 58.16 36.3583 58.1414C36.3397 58.1414 36.3026 58.1229 36.284 58.1229C36.2469 58.1043 36.1912 58.0857 36.154 58.0671C36.1354 58.0671 36.1169 58.0485 36.0983 58.0485C36.0426 58.0299 35.9683 58.0113 35.9126 57.9927C35.894 57.9927 35.894 57.9927 35.894 57.9741C35.8198 57.9555 35.7455 57.9184 35.6712 57.8998C35.6526 57.8998 35.6341 57.8812 35.6155 57.8812C35.3741 57.7882 35.1141 57.6953 34.8356 57.6023C33.4614 56.803 31.753 56.4126 30.3417 56.171C29.1904 55.9851 28.6333 55.8363 27.2963 56.394C26.2378 56.8402 23.8238 57.1562 23.2481 57.0261C22.6725 56.8959 22.0968 56.394 21.7626 55.7992C21.4469 55.2043 21.4655 54.4607 21.4655 54.4607C21.4655 54.4607 20.6484 54.0889 20.0727 53.0851C19.9428 53.0479 19.9242 53.0293 19.887 52.9922Z" fill="#FFE3CE"/>
<path d="M18.4392 51.1886C18.4392 51.1886 18.8663 51.2815 19.4048 51.2072C19.7391 51.1514 20.2404 50.7982 20.4076 50.8725C20.5004 50.9097 20.6118 51.0956 20.4818 51.5046C20.3519 51.9321 19.8876 52.3411 19.9433 53.0847C19.5348 52.843 18.4392 52.1738 18.4392 51.1886Z" fill="#28251F"/>
<path d="M22.9885 54.3674C23.2485 54.3488 23.3042 54.6462 23.0628 54.6834C22.3386 54.8135 21.3172 54.6648 21.3172 54.6648C21.3172 54.5347 21.3172 54.4603 21.3172 54.4603C21.3172 54.4603 21.1315 54.3674 21.0201 54.2744C21.0201 54.293 21.8372 54.4603 22.9885 54.3674Z" fill="#28251F"/>
<path d="M24.6957 45.3699C24.8443 45.184 25.0114 44.9981 25.2157 44.8866C25.6613 44.6449 26.1999 44.6821 26.6827 44.5892C27.5369 44.4219 28.2611 43.7898 29.1153 43.6783C29.2638 43.6597 29.4124 43.6597 29.5238 43.7341C29.7095 43.8642 29.7095 44.1616 29.6352 44.3847C29.4867 44.9796 29.171 45.5372 28.7253 45.9834C28.0011 46.7084 27.0726 46.95 26.1627 47.359C25.2899 47.7494 24.4172 48.3071 23.3958 48.1584C23.2659 48.1398 23.0987 48.1026 23.043 47.9725C22.9687 47.8052 23.0987 47.6193 23.2287 47.4891C23.7115 46.9872 24.0643 46.2436 24.4543 45.6674C24.5657 45.5558 24.6214 45.4629 24.6957 45.3699Z" fill="#FFE3CE"/>
<path d="M25.6979 46.7273C25.7165 47.2478 25.5308 47.6754 25.2894 47.6754C25.0294 47.6939 24.8066 47.285 24.7695 46.7645C24.7509 46.244 24.9366 45.8164 25.178 45.8164C25.438 45.8164 25.6794 46.2254 25.6979 46.7273Z" fill="#231F20"/>
<path d="M29.9147 41.6522C29.9147 41.6522 28.8376 37.0792 30.9174 36.8747C32.9972 36.6702 33.61 40.6855 34.0371 43.4926L29.9147 41.6522Z" fill="#F2903D"/>
<path opacity="0.2" d="M34.0185 43.5859C34.037 43.5859 34.037 43.5859 34.0185 43.5859C34.0742 43.5859 34.1113 43.5301 34.1113 43.493C33.9071 42.1731 33.6471 40.3513 33.1643 38.9943C33.1457 38.9571 33.09 38.9199 33.0529 38.9385C33.0157 38.9571 32.9786 39.0129 32.9972 39.0501C33.48 40.3885 33.7399 42.2103 33.9442 43.5116C33.9442 43.5673 33.9813 43.5859 34.0185 43.5859Z" fill="black"/>
<path d="M33.127 42.266C32.3656 41.9499 31.6228 41.5781 30.8986 41.1692C30.7315 41.0762 30.5643 40.9647 30.4529 40.816C30.3415 40.6487 30.3229 40.4628 30.3044 40.2583C30.2672 39.9794 30.2301 39.7006 30.2301 39.4218C30.2115 39.1429 30.2301 38.8641 30.3229 38.6038C30.4158 38.3436 30.6201 38.1205 30.8986 38.0275C31.1771 37.9346 31.5114 38.0461 31.7342 38.232C31.9571 38.4179 32.1242 38.6782 32.2542 38.957C32.7741 39.9794 32.9413 41.132 33.1084 42.266H33.127Z" fill="#FFE3CE"/>
<path d="M25.9788 43.716C26.1459 43.6416 26.3687 43.6044 26.4987 43.7346C26.6473 43.8833 26.5358 44.1435 26.4244 44.3294C26.183 44.7384 25.7374 45.0172 25.2731 45.1102C25.1617 45.1288 25.0317 45.1288 24.9203 45.1474C24.6789 45.166 24.4375 45.2403 24.2147 45.3704C24.0847 45.4448 23.9547 45.5378 23.8061 45.5006C23.7875 45.5006 23.7504 45.482 23.7318 45.4634C23.7133 45.4448 23.7133 45.4262 23.7133 45.4076C23.6947 45.3147 23.7504 45.2031 23.8061 45.1288C23.8804 45.0544 23.9547 44.9987 24.0475 44.9429C24.716 44.5339 25.236 43.9948 25.9788 43.716Z" fill="#28251F"/>
<path d="M26.8502 45.7975C26.8502 45.7604 26.8688 45.7232 26.9059 45.686C27.073 45.4815 27.4444 45.4443 27.6858 45.4443C28.2429 45.4443 28.6886 45.8161 29.1528 46.095C29.1714 46.1136 29.19 46.1136 29.2085 46.1507C29.2271 46.1693 29.2085 46.2065 29.2085 46.2251C29.1528 46.3924 28.9857 46.4853 28.8372 46.5969C28.4658 46.8943 28.2986 47.3219 27.853 47.5635C27.6858 47.6565 27.463 47.7123 27.2959 47.6193C27.2587 47.5449 27.3144 47.452 27.3887 47.3962C27.5559 47.2661 27.7415 47.1546 27.8901 47.0059C28.1129 46.7642 28.2244 46.3552 27.9087 46.1507C27.6487 45.9834 27.3145 45.9834 27.0359 45.9463C26.9616 45.9091 26.8688 45.8719 26.8502 45.7975Z" fill="#28251F"/>
<path d="M31.8462 52.8802C32.0133 52.75 32.2362 52.8802 32.3662 53.0475C32.719 53.5494 32.6447 54.3673 32.7004 54.9808C32.7004 55.0551 32.719 55.1109 32.719 55.1667C32.849 55.9474 33.1461 56.6352 33.5918 57.2859C33.6103 57.3045 33.6103 57.3045 33.6289 57.323C32.8676 57.0442 32.1248 56.7839 31.4934 56.5609C31.3448 56.1147 31.2706 55.6314 31.2706 55.0923C31.2706 54.3673 31.4005 53.6423 31.7534 53.0103C31.7719 52.9545 31.8091 52.8987 31.8462 52.8802Z" fill="#28251F"/>
<path d="M27.7797 52.2669C28.4853 51.2631 29.8595 50.8355 30.3423 49.6644C30.3794 49.59 30.398 49.5157 30.4537 49.4413C30.5094 49.3856 30.5837 49.3298 30.658 49.3484C30.788 49.367 30.8437 49.5157 30.8622 49.6458C30.8808 49.8317 30.8437 50.0362 30.8065 50.2221C30.6208 50.9471 30.1566 51.6163 29.6924 52.1926C29.2838 52.6945 28.5411 53.2336 27.8725 52.899C27.7611 52.8432 27.6683 52.7503 27.6683 52.6387C27.6311 52.49 27.7054 52.3785 27.7797 52.2669Z" fill="#28251F"/>
<path d="M21.8556 52.7131C21.837 52.7688 21.8927 52.8432 21.9484 52.8432C22.0041 52.8618 22.0784 52.806 22.0784 52.7502C22.097 52.6945 22.0412 52.6201 21.9855 52.6201C21.9298 52.6201 21.8556 52.6573 21.8556 52.7131Z" fill="#D0A27D"/>
<path d="M22.1895 53.1222C22.171 53.178 22.2267 53.2524 22.2824 53.2524C22.3381 53.271 22.4124 53.2152 22.4124 53.1594C22.4309 53.1037 22.3752 53.0293 22.3195 53.0293C22.2638 53.0293 22.2081 53.0665 22.1895 53.1222Z" fill="#D0A27D"/>
<path d="M21.0761 52.1182C21.0576 52.174 21.0947 52.2483 21.169 52.2669C21.2247 52.2855 21.299 52.2483 21.3175 52.174C21.3361 52.1182 21.299 52.0438 21.2247 52.0252C21.1504 52.0067 21.0947 52.0438 21.0761 52.1182Z" fill="#D0A27D"/>
<path d="M20.5371 52.8986C20.5185 52.9544 20.5556 53.0287 20.6299 53.0473C20.6856 53.0659 20.7599 53.0287 20.7785 52.9544C20.797 52.8986 20.7599 52.8243 20.6856 52.8057C20.6299 52.8057 20.5556 52.8428 20.5371 52.8986Z" fill="#D0A27D"/>
<path d="M21.2988 53.3449C21.2802 53.4007 21.3174 53.475 21.3916 53.4936C21.4473 53.5122 21.5216 53.475 21.5402 53.4007C21.5588 53.3449 21.5216 53.2705 21.4473 53.252C21.3731 53.252 21.3174 53.2891 21.2988 53.3449Z" fill="#D0A27D"/>
<path d="M33.6099 48.2148C33.2757 47.6571 32.7 47.2481 32.0686 47.0994C31.753 47.025 31.4373 47.025 31.1216 46.9135C30.8245 46.8206 30.5274 46.5789 30.4717 46.2629C30.4345 46.0212 30.5459 45.7796 30.6759 45.5751C30.8802 45.259 31.3259 44.9988 31.5858 45.2776C31.6787 45.3892 31.6973 45.5379 31.753 45.668C31.9015 46.077 32.2915 46.3372 32.6814 46.5231C33.0714 46.6904 33.4985 46.802 33.8699 47.025C34.4827 47.3968 34.8912 48.0661 35.0212 48.7725C35.1512 49.4789 35.0584 50.2224 34.8169 50.8917C34.6312 51.4122 34.3898 51.9513 34.5198 52.4904C34.5755 52.732 35.2812 54.2564 34.4456 53.7544C34.0927 53.55 34.0556 52.5461 34.0185 52.1929C33.9256 50.8917 34.3156 49.4231 33.6099 48.2148Z" fill="#28251F"/>
<path opacity="0.2" d="M20.7976 50.5194C20.8162 50.5194 20.8348 50.5194 20.8533 50.5008C21.819 49.6271 22.8589 48.4188 22.8589 48.4002C22.896 48.363 22.896 48.3073 22.8589 48.2701C22.8217 48.2329 22.766 48.2329 22.7289 48.2701C22.7103 48.2887 21.6704 49.4784 20.7234 50.3521C20.6862 50.3893 20.6862 50.445 20.7234 50.4822C20.7419 50.5194 20.7605 50.5194 20.7976 50.5194Z" fill="black"/>
<path d="M34.8355 38.9571V38.9385C35.4111 39.0128 36.0054 39.143 36.6367 39.3103C36.9895 39.4032 37.3424 39.5148 37.6766 39.6449C37.6952 39.6635 37.7323 39.6821 37.7509 39.7006C37.9737 39.8308 38.2337 39.9051 38.4751 39.9795C39.8864 40.5929 41.112 41.3923 42.1705 42.3032C42.5976 43.3256 42.8761 44.4967 43.6746 45.2589C43.9903 45.5749 44.3803 45.798 44.6774 46.1326C44.9745 46.4672 45.1602 46.9505 44.9745 47.3409C43.9346 47.0621 43.0061 46.3929 42.3933 45.5192C41.4648 44.1993 41.1677 42.3218 39.7564 41.5224C38.7722 40.9647 37.5281 41.1134 36.5439 40.5744C36.191 40.3513 34.7983 39.4032 34.8355 38.9571Z" fill="#28251F"/>
<path d="M103.19 107.794C103.19 107.794 103.097 105.805 104.527 105.191C104.527 105.191 103.506 105.991 103.599 107.794H103.19Z" fill="#772638"/>
<path d="M110.802 68.8857C110.802 68.8857 110.356 73.2543 110.449 79.4074C110.542 85.5419 112.956 90.3008 113.235 92.2527C113.476 93.9816 111.582 104.894 111.155 107.292C111.099 107.57 110.876 107.756 110.598 107.756L102.966 107.812C102.631 107.812 102.353 107.515 102.39 107.18C102.483 106.344 102.706 104.912 103.226 104.336C103.968 103.499 106.624 103.462 106.735 103.351C107.014 103.072 107.255 95.3758 106.921 94.0001C106.698 93.0893 104.191 89.4829 102.111 86.8246C100.069 84.2221 92.4182 82.1958 91.174 78.2363L110.802 68.8857Z" fill="#F2903D"/>
<path d="M106.438 107.794C106.438 107.794 105.992 106.66 107.088 105.377C107.088 105.377 105.844 106.009 105.844 107.794H106.438Z" fill="#772638"/>
<path d="M103.43 87.5685C104.377 87.9217 105.361 88.2005 106.178 88.7954C107.013 89.4274 107.608 90.3941 107.756 91.4165C107.831 91.8627 107.812 92.3274 107.831 92.7736C107.868 93.7402 107.905 94.837 108.22 95.7665C108.573 96.8261 109.149 97.7184 109.168 98.8709C109.186 100.023 108.592 101.25 107.496 101.604C107.311 101.659 107.125 101.697 106.939 101.678C107.088 99.2613 107.143 94.9857 106.921 94.0005C106.698 93.1082 104.284 89.6133 102.223 86.9736C102.594 87.2153 103.002 87.4012 103.43 87.5685Z" fill="#FFE3CE"/>
<path d="M101.034 85.8213C101.034 85.8399 101.053 85.8399 101.053 85.8585C101.053 85.8585 101.034 85.8399 101.034 85.8213Z" fill="#FFE3CE"/>
<path d="M108.481 84.1295C108.964 83.7205 109.948 81.9731 110.654 82.2333C110.71 82.7167 110.784 83.1814 110.877 83.6461C110.413 84.3897 109.354 85.0589 108.871 85.3378C108.147 85.7467 107.404 86.0999 106.717 86.5833C106.457 86.7692 106.142 86.9922 105.826 86.9179C106.142 85.6538 107.479 84.966 108.481 84.1295Z" fill="#28251F"/>
<path d="M110.858 91.0074C111.155 91.0446 111.471 91.249 111.471 91.5465C111.471 91.8997 111.081 92.1042 110.746 92.2157C110.097 92.4388 109.447 92.6618 108.834 92.9779C108.518 93.1452 108.24 93.3497 107.924 93.517C107.59 93.7029 107.255 93.8702 106.903 94.0189H106.884V94.0003C106.81 93.7029 106.513 93.1452 106.086 92.4388C106.847 92.2157 107.775 92.2901 108.481 91.974C109.279 91.6394 109.985 90.8958 110.858 91.0074Z" fill="#28251F"/>
<path d="M112.845 96.8075C110.988 97.3838 109.019 97.6069 107.069 97.4953C107.069 97.328 107.069 97.1793 107.069 97.012C108.165 96.9005 109.242 96.8447 110.319 96.6588C111.118 96.5287 111.898 96.3242 112.64 95.9896C112.752 95.9338 112.863 95.878 112.975 95.8223C112.919 96.1383 112.882 96.4729 112.845 96.8075Z" fill="#28251F"/>
<path d="M62.4096 78.218C62.6139 76.5821 62.4839 74.8904 62.0011 73.3103C61.6483 72.1578 61.1097 71.061 60.8869 69.8899C60.6455 68.7187 60.7755 67.3803 61.574 66.488C61.8154 66.2091 62.2053 65.9861 62.5396 66.1162C63.0038 66.3021 62.9853 66.9527 62.9481 67.436C62.4096 72.7341 66.8663 77.3071 66.3278 82.4564C66.3092 82.6794 66.2535 82.9397 66.1792 83.1999C64.6008 83.0884 63.1153 82.9583 61.7225 82.8096C61.704 81.1737 62.2611 79.3333 62.4096 78.218Z" fill="#28251F"/>
<path d="M67.0711 67.1759C67.2382 65.0382 66.9782 62.9189 66.514 60.8369C66.124 59.1267 64.8613 56.8402 64.9355 55.0928C65.8269 55.2043 66.7368 55.2787 67.7024 55.3344C68.3152 57.1004 68.7423 58.9594 68.8723 60.8183C69.0394 62.9747 68.7795 65.2055 67.8881 67.1759C67.6096 67.1574 67.3496 67.1574 67.0711 67.1759Z" fill="#28251F"/>
<path d="M42.3373 66.0229C41.0189 65.0935 44.1943 61.7102 44.3614 60.7621C44.5285 59.7769 44.25 58.7544 44.4543 57.7692C44.5657 57.2301 44.8442 56.7282 45.0485 56.2077C45.6241 54.7949 45.6427 53.5866 45.4199 52.1366C45.4013 51.9693 45.3827 51.7834 45.5127 51.6718C45.6241 51.5789 45.7913 51.5789 45.9212 51.6532C46.0512 51.7276 46.1441 51.8391 46.2184 51.9693C47.2026 53.6051 46.2741 55.7429 46.1069 57.4532C46.0141 58.3641 46.1812 59.2749 46.1812 60.1858C46.1812 61.5614 45.7541 62.9371 45.0113 64.0896C44.6399 64.6659 43.2287 66.655 42.3373 66.0229Z" fill="#28251F"/>
<path d="M39.9784 54.7207C40.4426 53.6983 39.6256 50.7797 40.554 50.1477C41.2411 49.683 41.2968 50.6124 41.2782 51.0028C41.2597 51.9323 41.3711 52.8618 41.3711 53.7912C41.3711 54.5534 41.2783 55.3342 40.8883 56.0034C40.5169 56.6726 39.8112 57.1745 39.0499 57.1745C38.8828 56.747 39.0313 56.2822 39.2542 55.8918C39.4956 55.4829 39.7927 55.1297 39.9784 54.7207Z" fill="#28251F"/>
<path d="M52.4942 56.2637C52.457 56.6727 52.4385 57.1002 52.2156 57.472C52.0114 57.8252 51.5286 58.0669 51.1757 57.8624C51.4543 56.3752 51.7514 54.8695 51.6214 53.3637C51.5657 52.7131 51.4357 52.0625 51.3057 51.4118C51.12 50.5939 50.0059 47.3779 50.2473 46.3369C51.3614 47.3407 52.4385 48.4933 53.6641 49.5157C53.6455 51.7465 52.717 53.9958 52.4942 56.2637Z" fill="#28251F"/>
<path d="M59.3471 56.301C58.3815 57.9741 58.7529 60.1491 57.9173 61.8965C56.9516 63.9599 54.4447 65.2054 54.1476 67.4547C54.129 67.6406 54.1105 67.8451 54.0176 67.9938C53.9062 68.1426 53.6648 68.2355 53.5348 68.1054C53.4791 68.0496 53.442 67.9752 53.4234 67.9009C53.2006 67.1015 53.3491 66.2464 53.6648 65.4843C53.9805 64.7221 54.4447 64.0343 54.8718 63.3279C55.596 62.1196 56.1903 60.8555 56.6545 59.5356C56.8588 58.9779 57.0259 58.4202 57.1002 57.844C57.2487 56.5985 57.0259 55.3158 56.9888 54.0517C56.9702 53.3825 57.063 52.8062 57.6201 52.5088C58.4186 53.0665 59.2914 53.5684 60.2385 53.9774C60.387 54.8325 59.7928 55.5203 59.3471 56.301Z" fill="#28251F"/>
<path d="M82.0755 57.1748C81.9269 58.0671 81.7784 58.9966 82.0569 59.8517C82.2055 60.2792 82.4469 60.6696 82.5583 61.0972C82.7811 61.8779 82.5583 62.6959 82.3355 63.4766C81.3884 66.8227 80.3857 70.3733 81.3699 73.7009C81.8898 75.4483 82.9297 76.9726 83.6911 78.6271C84.3967 80.1328 84.8052 81.7129 84.6752 83.386C83.8025 83.4789 82.9111 83.5533 81.9827 83.6276C81.9084 82.5495 82.0198 81.3411 81.9641 80.6719C81.8341 79.036 81.5741 77.3816 80.7756 75.913C80.3114 75.0579 79.6614 74.2771 79.3829 73.3477C78.8072 71.5259 79.68 69.5926 80.5157 67.8823C81.3513 66.1535 82.1684 64.183 81.4813 62.3984C81.3141 61.9709 81.0913 61.5991 80.9428 61.1715C80.6642 60.3722 80.7014 59.4985 80.7571 58.662C80.8128 57.6767 80.8685 56.7101 80.9242 55.7248C80.9428 55.3902 80.9613 55.0556 81.0356 54.7396C81.537 54.6838 82.0384 54.628 82.5212 54.5723C82.3912 55.446 82.2426 56.3197 82.0755 57.1748Z" fill="#28251F"/>
<path d="M72.883 76.9162C72.9758 76.0797 73.1986 75.2246 72.9387 74.4438C72.7344 73.8675 72.3073 73.3842 71.9916 72.8637C70.8774 71.0233 71.3788 68.6625 71.9916 66.599C72.4744 64.9818 72.9944 63.3645 73.57 61.7844C73.96 61.6542 74.3685 62.0632 74.4242 62.4722C74.48 62.8811 74.2757 63.2901 74.1086 63.6619C72.9572 66.0971 72.2145 69.0157 73.3843 71.4323C73.7743 72.2317 74.35 72.9381 74.6099 73.7746C75.037 75.0759 74.6842 76.4887 74.8699 77.8271C74.9628 78.5521 75.2227 79.2771 75.6127 79.9091C75.9098 80.3924 76.764 80.913 76.9497 81.3777C77.3954 82.4931 75.5941 82.8277 74.7585 82.4187C73.8486 81.954 73.3472 80.9501 73.0872 79.9649C72.8273 78.9611 72.7715 77.92 72.883 76.9162Z" fill="#28251F"/>
<path d="M77.2654 58.0857C77.1912 58.3274 76.9683 58.569 76.7084 58.5876C76.2627 58.6248 76.0027 58.1043 75.9099 57.6767C75.7056 56.8774 75.5942 56.0595 75.557 55.2229C76.1884 55.1858 76.8383 55.13 77.4883 55.0742C77.3583 55.8178 77.3026 56.5614 77.3397 57.305C77.3212 57.5652 77.3397 57.8255 77.2654 58.0857Z" fill="#28251F"/>
<path d="M91.6018 66.3576C91.2304 66.6551 90.6733 66.5993 90.2648 66.339C89.8748 66.0788 89.6149 65.6512 89.3735 65.2422C88.7978 64.2756 88.2407 63.216 88.3521 62.082C88.4078 61.5058 88.6492 60.9481 88.8721 60.409C89.2806 59.3122 89.5406 58.0853 89.132 56.9885C88.9278 56.4308 88.5564 55.9475 88.2778 55.427C87.9993 54.8879 87.9622 54.3674 88.0736 53.9584C88.7421 53.8841 89.392 53.8097 90.042 53.7354C90.0977 53.8283 90.1719 53.9212 90.2277 54.0142C91.1376 55.5571 91.3233 57.7135 91.1004 59.4423C90.989 60.3532 90.729 61.2269 90.6548 62.1378C90.5619 63.0487 90.6733 64.0153 91.1747 64.7775C91.4904 65.2422 91.9918 65.8929 91.6018 66.3576Z" fill="#28251F"/>
<path d="M88.9837 79.5376C89.0022 78.0505 89.2251 76.4704 88.5751 75.1133C87.9995 73.905 86.7739 72.9755 86.681 71.6557C86.6625 71.4884 86.681 71.3025 86.811 71.1909C87.0524 71.005 87.3867 71.2467 87.5724 71.4884C89.0394 73.3473 89.9307 75.6338 90.0978 77.9947C90.1536 78.6825 90.135 79.3889 90.265 80.0767C90.3207 80.4113 90.8406 81.4152 91.082 82.2331C90.5992 82.3632 90.0978 82.4748 89.5965 82.5863C89.0765 81.7126 88.9837 80.337 88.9837 79.5376Z" fill="#28251F"/>
<path d="M99.6794 67.6778C100.255 67.1016 101.035 66.6368 101.202 65.8561C101.276 65.5586 101.239 65.2426 101.239 64.9266C101.239 64.6106 101.295 64.2759 101.499 64.0529C101.703 63.8298 102.112 63.7369 102.335 63.9599C102.483 64.1086 102.502 64.3503 102.502 64.5548C102.502 65.2426 102.316 65.8746 102.223 66.5625C102.131 67.1945 101.982 67.808 101.759 68.4028C101.258 69.7041 100.385 70.8938 100.106 72.2694C99.9022 73.2175 99.9951 74.2399 99.6422 75.1508C99.2894 76.0617 98.1938 76.8239 97.3582 76.3405C96.9125 75.7457 97.3953 74.9463 97.7667 74.2957C98.2867 73.3662 98.4909 72.3066 98.6395 71.247C98.788 70.2432 98.7323 69.0349 99.308 68.1612C99.3823 67.9753 99.5308 67.8265 99.6794 67.6778Z" fill="#28251F"/>
<path d="M96.8395 59.5908C96.8395 58.494 96.0596 53.1402 97.8423 53.6235C99.6993 54.1255 98.2137 58.5684 97.7495 59.7023C97.638 59.9812 97.3781 60.3158 97.081 60.1856C96.8767 60.0927 96.8395 59.8138 96.8395 59.5908Z" fill="#28251F"/>
<path d="M108.872 64.0898C108.872 64.0712 108.872 64.034 108.89 64.0154C109.224 62.175 108.927 60.6507 108.537 58.9219C109.782 60.502 110.561 62.5096 110.914 64.4801C110.951 64.7218 110.989 64.9449 110.951 65.1865C110.896 65.5026 110.729 65.8 110.561 66.0602C109.466 67.8077 108.222 69.4807 107.367 71.3582C106.996 72.1762 106.736 73.0313 106.55 73.905C106.328 74.8902 106.439 75.9127 106.086 76.8607C105.993 77.1024 105.863 77.3626 105.659 77.53C105.455 77.6973 105.176 77.8088 104.916 77.7344C104.582 77.2883 104.526 76.6934 104.656 76.1543C104.786 75.6152 105.046 75.1319 105.306 74.6486C106.272 72.9012 106.718 71.005 107.367 69.1089C107.906 67.473 108.537 65.8186 108.872 64.0898Z" fill="#28251F"/>
<path d="M45.6615 76.9541C46.8314 80.3746 49.5982 86.379 50.9352 90.636C52.1423 94.5026 54.1849 98.9827 54.6492 102.849C54.6492 102.849 52.458 103.24 51.2324 104.467C50.3782 105.322 50.4339 106.642 50.5453 107.348C50.5824 107.627 50.8238 107.813 51.1024 107.813H60.4615C60.7586 107.813 61.0185 107.571 61.0371 107.274C61.0371 107.274 58.7159 90.3014 57.676 84.4643C57.3046 82.3637 56.469 75.7086 55.8748 74.7791C55.3362 73.9612 43.9159 66.9158 42.8018 68.5145C42.8203 68.5145 44.4359 73.3663 45.6615 76.9541Z" fill="#F2903D"/>
<path d="M54.3696 107.813C54.3696 107.813 53.9239 106.679 55.0195 105.396C55.0195 105.396 53.7754 106.029 53.7754 107.813H54.3696Z" fill="#772638"/>
<path d="M51.12 107.812C51.12 107.812 51.0272 105.823 52.457 105.21C52.457 105.21 51.4357 106.009 51.5286 107.812H51.12Z" fill="#772638"/>
<path d="M60.5918 103.946C60.4804 103.686 60.4247 103.333 60.369 103.147C59.8676 101.641 59.0877 100.247 58.6606 98.7043C58.1406 96.7895 58.2149 94.7447 57.6021 92.8486C57.2864 91.8447 56.785 90.9153 56.3951 89.93C56.0051 88.9448 55.7266 87.8852 55.8937 86.8442C56.0608 85.8217 56.7293 84.8365 57.7135 84.5391C58.4563 88.8332 59.8676 98.7414 60.5918 103.946Z" fill="#FFE3CE"/>
<path d="M54.4635 91.6957C54.2592 91.6399 54.0364 91.547 53.9436 91.3425C53.7579 90.9707 54.1664 90.5803 54.5192 90.3572C55.2063 89.9483 57.0075 88.5912 58.326 88.3682C58.4003 88.8329 58.4745 89.2976 58.5488 89.781C57.6575 90.2271 57.0633 91.1194 56.1533 91.547C55.6334 91.7886 55.0206 91.8444 54.4635 91.6957Z" fill="#28251F"/>
<path d="M51.9383 89.3528C51.9197 89.7432 51.3441 89.7803 50.6198 89.706C50.4899 89.3342 50.3599 88.9624 50.2299 88.572C51.1212 88.5162 51.9754 88.6464 51.9383 89.3528Z" fill="#28251F"/>
<path d="M48.0008 80.6723C48.1865 80.2261 48.3165 79.8729 48.5765 79.4454C49.0779 78.6275 49.5978 77.7909 49.7278 76.8429C49.8578 76.0063 49.6721 75.1698 49.505 74.3333C49.3379 73.441 48.9293 71.0987 50.3963 71.1173C51.8633 71.1359 51.6219 73.348 51.6219 74.2589C51.6405 75.5602 51.3805 76.8615 50.8977 78.0698C50.4335 79.2409 49.4864 80.189 49.0593 81.3787C48.9293 81.7877 48.8736 82.2152 48.7622 82.6242C48.6693 82.9588 48.5022 83.2934 48.2423 83.5351C47.9823 82.8844 47.7037 82.2338 47.4438 81.6018C47.6295 81.2858 47.8523 81.0069 48.0008 80.6723Z" fill="#28251F"/>
</svg>
