<svg width="150" height="150" viewBox="0 0 150 150" fill="none" xmlns="http://www.w3.org/2000/svg">
<path d="M118.615 101.02C119.249 99.0581 120.576 100.27 121.672 101.366C121.903 101.597 122.134 101.77 122.365 102.058C122.942 103.27 123.749 104.366 124.211 104.77C123.98 103.847 123.172 102.866 122.365 102.058C121.788 100.789 121.442 99.4043 122.307 98.712C123.865 97.5004 126.692 101.25 127.269 102.462C126.692 101.135 124.846 96.8658 127.846 97.5004C129.057 97.7312 130.211 98.712 131.249 99.7504C131.826 100.616 131.826 100.616 130.846 101.712C128.192 104.597 125.365 105.75 120.576 106.5C120.115 105.866 119.653 105.231 119.192 104.597C119.134 104.481 119.076 104.366 119.076 104.193C118.73 103.097 118.269 102.231 118.615 101.02Z" fill="#83A362"/>
<path d="M124.27 104.769C123.866 104.365 123.001 103.211 122.424 102.058C123.232 102.808 123.982 103.846 124.27 104.769Z" fill="#9EC472"/>
<path d="M123.808 89.8271C125.712 91.9618 127.327 94.4425 128.943 96.7502C129.693 97.6156 130.327 98.481 130.962 99.4041C131.077 99.5772 131.193 99.6925 131.25 99.8079C130.212 98.7695 129.116 97.7887 127.846 97.5579C124.846 96.9233 126.75 101.193 127.27 102.519C126.693 101.308 123.866 97.5579 122.308 98.7695C121.443 99.4618 121.731 100.789 122.366 102.116C122.135 101.885 121.904 101.654 121.673 101.423C120.577 100.327 119.25 99.1156 118.616 101.077C118.27 102.289 118.731 103.154 119.077 104.25C119.135 104.366 119.193 104.481 119.193 104.654C116.885 101.25 115.039 97.4425 112.27 94.5002L123.808 89.8271Z" fill="#9EC472"/>
<path d="M103.5 99.9232C99.2311 101.192 94.5003 101.481 90.1157 101.827C86.5965 102.058 83.0772 102.231 79.7311 102.058C73.7311 101.942 67.558 100.789 62.0772 98.827C56.308 96.8078 50.7696 93.9232 47.4234 88.6732C43.558 82.904 39.5196 72.5194 45.4042 66.577C52.0388 59.9424 62.1926 63.1732 70.2119 63.1732L103.5 99.9232Z" fill="#DBC283"/>
<path d="M62.5377 108.173C62.3069 106.846 61.7877 103.327 59.8839 103.212C58.2108 102.981 57.8069 106.846 57.5762 108.058C57.6916 106.846 58.2108 102.75 56.1339 102.577C55.2685 102.519 54.4031 104.539 53.8262 106.442C53.9416 105.808 54.0569 105.231 54.0569 104.885C54.1723 101.365 53.7685 97.7309 53.9416 94.0962C54.0569 90.8078 53.6531 87.1732 56.9416 85.0962C59.3646 83.5962 65.6531 82.7309 67.3262 85.327L67.9031 87.6924C66.4608 94.4424 67.0377 101.481 68.0185 108.231C67.4416 106.615 66.6916 104.885 65.6531 103.962C63.23 101.654 62.5377 106.5 62.5377 108.173Z" fill="#9EC472"/>
<path d="M53.8265 106.384C54.4034 104.538 55.2688 102.461 56.1342 102.519C58.2111 102.75 57.6919 106.788 57.5765 108C57.8073 106.788 58.2111 102.923 59.8842 103.153C61.7303 103.269 62.3073 106.788 62.538 108.115C62.538 106.442 63.1726 101.596 65.5957 103.903C66.6342 104.826 67.3842 106.557 67.9611 108.173C65.538 109.673 62.1342 109.673 59.1342 109.673C57.865 109.673 54.6919 109.903 53.8842 108.807C53.538 108.461 53.7111 107.365 53.8265 106.384Z" fill="#83A362"/>
<path d="M124.212 80.7689C127.328 79.0382 130.501 79.1535 132.982 75.8651C133.732 74.7112 136.732 69.4612 135.751 68.0766C134.77 66.692 133.501 69.692 132.982 70.442C132.001 71.942 130.847 73.0958 129.347 73.9612C126.982 75.4612 124.443 76.2112 121.674 76.3266C121.155 76.3266 120.693 76.2112 120.174 76.2112L124.212 80.7689Z" fill="#83A362"/>
<path d="M14.0775 80.0193C16.616 79.9039 18.5198 84.2886 19.5006 86.4809C19.8467 87.3462 21.1737 90.8655 20.5967 92.4232C20.0775 92.5962 19.5583 92.6539 18.9813 92.4809C17.4813 91.9616 16.3275 90.1155 15.5775 88.7309C14.4237 86.827 12.4621 82.8462 13.5583 80.5962C13.6737 80.3655 13.8467 80.1924 14.0775 80.0193Z" fill="#A9C687"/>
<path d="M20.2495 86.5962C21.2303 85.9616 23.2495 84.0577 22.788 82.5C22.2111 80.9423 19.788 81.8654 18.6919 82.2693C20.6534 81.0577 22.4419 78.6347 18.8072 78.4039C18.1726 78.4039 17.4803 78.4616 16.8457 78.577C21.1726 76.9616 28.3265 75.4039 29.1919 74.5962L34.3265 84.1154C30.1726 86.25 26.4226 88.5 22.5572 91.1539C22.038 91.5 21.5765 91.8462 21.0572 92.1347C22.0957 90.9231 23.3072 89.7116 23.5957 88.0962C24.3457 85.7308 21.8072 86.3654 20.2495 86.5962Z" fill="#83A362"/>
<path d="M18.8655 78.4614C22.5002 78.6922 20.7117 81.1153 18.7502 82.3268C19.8463 81.8653 22.2694 80.9999 22.8463 82.5576C23.3078 84.1153 21.2886 85.9614 20.3078 86.6537C21.8655 86.423 24.404 85.7883 23.7117 88.2114C23.4232 89.8268 22.2117 91.0384 21.1732 92.2499C21.0002 92.3653 20.8271 92.423 20.654 92.4807C21.2309 90.923 19.904 87.4037 19.5578 86.5383C18.5771 84.346 16.6732 80.0191 14.1348 80.0768C14.7117 79.6153 15.7502 79.1537 16.9617 78.6345C17.5386 78.5191 18.1732 78.4614 18.8655 78.4614Z" fill="#697758"/>
<path d="M38.4245 70.2693C37.4437 67.904 35.7706 66.1155 38.0206 63.9809C39.7514 62.3655 41.4245 63.0001 43.386 63.7501C45.636 64.7309 48.5206 65.8847 49.7898 68.1347C51.2898 70.6155 49.7898 73.0386 47.886 74.7693L38.4245 70.2693Z" fill="#594B3D"/>
<path d="M55.0974 84.4044C55.6166 83.0198 53.5974 81.7506 53.0781 80.6544C51.5781 78.1737 51.6935 75.116 50.7128 72.4044C50.0781 70.7891 48.8089 71.0198 47.3089 70.6737C45.8089 70.1544 44.9435 69.0583 43.9051 67.6737C41.7704 64.9044 39.6358 64.8467 36.232 64.5583C33.7512 64.4429 30.1166 63.9237 27.8089 65.0198C24.6935 66.4044 25.5012 69.8083 26.2512 72.4044C27.982 77.7698 29.4243 86.1352 36.2897 86.7121C39.5781 86.9429 42.6935 86.7121 45.8089 86.3083C45.982 86.366 54.3474 86.0775 55.0974 84.4044Z" fill="#9EC472"/>
<path d="M45.9805 71.6543C46.9035 71.9428 47.7112 72.5774 48.2305 73.4428C48.7497 74.3081 48.9228 75.2889 48.9805 76.2697C49.0382 78.2312 48.5189 80.0774 47.8843 81.8658C48.0574 79.962 48.4612 78.1158 48.4035 76.3274C48.4035 75.4043 48.2305 74.5389 47.8266 73.7312C47.4228 72.8081 46.7882 72.1158 45.9805 71.6543Z" fill="#83A362"/>
<path d="M46.0975 76.2696C45.9821 74.7696 45.809 73.2696 45.4629 71.8273C45.1167 70.385 44.5975 69.0003 43.9629 67.6157C45.0014 68.7696 45.636 70.2119 46.0398 71.7119C46.386 73.2119 46.4437 74.7696 46.0975 76.2696Z" fill="#83A362"/>
<path d="M34.905 79.2695C34.732 79.7888 34.3281 80.2503 33.8089 80.5388C33.3474 80.8272 32.7704 81.0003 32.1935 81.1157C31.6166 81.1734 31.0397 81.1734 30.5204 81.058C30.0012 80.9426 29.4243 80.6541 29.0781 80.1926C29.5397 80.4811 30.0589 80.5388 30.5781 80.5965C31.0974 80.6541 31.6166 80.5965 32.0781 80.5388C32.5974 80.4811 33.0589 80.3657 33.5204 80.1349C34.0974 79.9618 34.5589 79.6734 34.905 79.2695Z" fill="#83A362"/>
<path d="M28.5005 69.6348C28.6735 69.9809 28.6735 70.2694 28.7312 70.5002C28.7312 70.7886 28.7312 71.0194 28.6735 71.3655C28.3274 71.1925 28.212 70.8463 28.1543 70.5002C28.1543 70.2117 28.2697 69.8655 28.5005 69.6348Z" fill="#83A362"/>
<path d="M42.9246 76.2699C42.9246 74.8853 41.7707 73.7314 40.3861 73.7314C39.0015 73.7314 37.8477 74.8853 37.8477 76.2699C37.8477 77.6545 39.0015 78.8084 40.3861 78.8084C41.8284 78.8084 42.9246 77.6545 42.9246 76.2699Z" fill="#272525"/>
<path d="M131.136 88.0964C123.059 81.1733 123.867 67.6156 119.251 58.6733C116.77 53.5387 114.29 48.2887 109.155 45.8079C96.9243 39.8079 72.6358 42.2887 68.655 44.9425C65.1935 47.2502 51.1166 56.481 47.3666 58.5002C45.0589 59.6541 39.405 61.8464 38.0781 63.981C42.6358 63.1156 46.3858 66.4041 47.5397 68.0771C49.8474 71.1925 50.1935 75.0002 51.8089 78.4617C53.655 82.0964 54.9243 85.5579 57.5781 88.731C60.232 91.731 64.2127 94.5002 67.8474 96.5194C81.8666 103.962 97.4435 102.289 111.982 97.6733C117.29 96.0002 123.405 93.5194 127.847 89.8848L131.136 88.0964Z" fill="#91643A"/>
<path d="M124.329 82.2694C123.059 83.2502 121.502 83.8271 120.002 84.231C118.444 84.6925 116.886 84.981 115.329 85.2694C114.521 85.4425 113.771 85.6156 112.963 85.7886C112.156 85.9617 111.405 86.1348 110.598 86.3079C109.04 86.654 107.482 87.0579 105.925 87.4617L103.617 88.0386C102.867 88.2117 102.059 88.4425 101.309 88.6733C99.8093 89.1348 98.2517 89.654 96.694 90.0579C95.1363 90.4617 93.5209 90.6925 91.9055 90.6348C90.2901 90.5771 88.6747 90.5194 87.117 90.3463C83.944 90.0002 80.7709 89.3656 77.7132 88.3271C74.6555 87.3463 71.7132 85.9617 69.0593 84.0002C67.7901 83.0194 66.5786 81.9233 65.5401 80.7117C64.5017 79.4425 63.6363 78.0579 63.0593 76.5579C62.4824 75.0579 62.1363 73.4425 62.0786 71.8271C62.0786 71.0194 62.1363 70.2117 62.0786 69.4617C62.0209 68.7117 61.9055 67.904 61.5017 67.2694C60.7517 66.231 59.944 65.1925 59.0786 64.2117C58.6747 63.7502 58.2132 63.231 57.7517 62.7694C57.2901 62.3079 56.8286 61.8463 56.2517 61.5579C55.617 61.154 54.9824 60.8079 54.3478 60.5194C53.7132 60.1733 53.0209 59.8848 52.3286 59.5963C51.0017 59.0194 49.617 58.5002 48.2324 57.981C49.617 58.4425 51.0017 58.9617 52.3286 59.481C53.0209 59.7694 53.6555 60.0579 54.3478 60.3463C55.0401 60.6348 55.6747 60.981 56.3093 61.3848C56.8863 61.731 57.4055 62.1925 57.867 62.5963C58.3286 63.0579 58.7901 63.5194 59.2517 64.0386C60.117 65.0194 60.9824 66.0002 61.7324 67.0963C62.2517 67.7886 62.367 68.654 62.4247 69.4617C62.4824 70.2694 62.4247 71.0771 62.4247 71.8848C62.5401 73.4425 62.8286 75.0002 63.4632 76.4425C64.0978 77.8848 64.9055 79.2694 65.8863 80.481C66.9247 81.6925 68.0786 82.731 69.3478 83.7117C71.8863 85.5579 74.8286 86.9425 77.8286 87.8656C80.8863 88.8463 84.0017 89.481 87.117 89.8848C88.6747 90.0579 90.2901 90.1733 91.9055 90.231C93.4632 90.2887 95.0786 90.0579 96.5786 89.654C98.1363 89.3079 99.6363 88.7886 101.194 88.3271C101.944 88.0963 102.752 87.8656 103.502 87.6925L105.809 87.1733C108.925 86.4233 112.04 85.6733 115.213 85.154C116.771 84.8656 118.386 84.6348 119.886 84.231C121.502 83.7694 123.059 83.2502 124.329 82.2694Z" fill="#594B3D"/>
<path d="M123.059 83.1924C123.117 83.5385 123.405 83.9424 123.636 84.3462C123.867 84.7501 124.156 85.0962 124.386 85.5001C124.675 85.9039 124.963 86.2501 125.252 86.5962C125.54 86.9424 125.829 87.2885 126.232 87.6347C125.829 87.4039 125.482 87.0578 125.194 86.7116C124.848 86.3655 124.559 86.0193 124.213 85.6732C123.925 85.327 123.579 84.9808 123.29 84.577C123.002 84.1732 122.713 83.8847 122.482 83.3078L123.059 83.1924Z" fill="#594B3D"/>
<path d="M115.847 85.212C115.847 85.2697 115.847 85.5005 115.904 85.6735C115.962 85.8466 115.962 86.0774 116.02 86.2505C116.135 86.6543 116.251 87.0005 116.366 87.4043C116.597 88.1543 116.885 88.9043 117.116 89.6543L118.674 94.1543L116.827 89.7697C116.539 89.0197 116.193 88.3274 115.904 87.5774C115.789 87.2312 115.616 86.8274 115.501 86.4235C115.443 86.2505 115.385 86.0197 115.327 85.8466C115.327 85.7312 115.27 85.6735 115.27 85.5581C115.27 85.4428 115.212 85.3274 115.27 85.1543L115.847 85.212Z" fill="#594B3D"/>
<path d="M107.077 87.0581C107.192 88.7889 107.538 90.462 107.942 92.1927C108.115 93.0581 108.346 93.8658 108.577 94.7312C108.75 95.5966 108.865 96.4619 109.154 97.2696C108.808 96.4619 108.635 95.5966 108.404 94.7889C108.173 93.9812 107.885 93.1158 107.654 92.3081C107.192 90.635 106.731 88.9043 106.5 87.1735L107.077 87.0581Z" fill="#594B3D"/>
<path d="M98.0212 89.4814C98.0789 90.3468 97.9635 91.2122 97.9058 92.0199C97.8481 92.8276 97.8481 93.693 97.7904 94.5007L97.7327 97.0391C97.675 97.9045 97.675 98.7122 97.7327 99.5776C97.6173 98.7699 97.6173 97.9045 97.6173 97.0391L97.5596 94.5007C97.5596 93.6353 97.502 92.8276 97.502 91.9622C97.502 91.0968 97.5596 90.2891 97.502 89.4814H98.0212Z" fill="#594B3D"/>
<path d="M88.0386 90.2882C87.6925 92.019 87.0578 93.6344 86.3655 95.1921C85.6732 96.7498 85.0386 98.3075 84.6348 99.9805C84.9232 98.3075 85.5002 96.6921 86.0771 95.0767C86.654 93.4613 87.2309 91.8459 87.404 90.1729L88.0386 90.2882Z" fill="#594B3D"/>
<path d="M76.8477 88.0389C76.4438 88.7313 76.1554 89.4813 75.8669 90.289C75.7515 90.6928 75.5207 91.0966 75.4053 91.4428L74.9438 92.5966L74.0784 94.9043C73.79 95.712 73.3861 96.4043 73.0977 97.212C73.3861 96.4043 73.7323 95.6543 73.963 94.8466L74.713 92.4813L75.0592 91.2697C75.1746 90.8659 75.3477 90.5197 75.463 90.1159C75.6938 89.3082 75.9246 88.5005 76.3284 87.7505L76.8477 88.0389Z" fill="#594B3D"/>
<path d="M68.0215 83.135C66.8099 84.0581 66.0023 85.4427 65.1946 86.7696C64.7907 87.462 64.3869 88.1543 63.983 88.7889C63.5792 89.4812 63.1176 90.1158 62.7715 90.8081C63.0599 90.0581 63.4638 89.3658 63.8676 88.6735C64.2138 87.9812 64.6176 87.2889 64.9638 86.5389C65.7138 85.1543 66.4638 83.6543 67.6753 82.5581L68.0215 83.135Z" fill="#594B3D"/>
<path d="M63.6363 77.0773C62.7709 77.5389 61.9055 77.6543 61.0978 77.8273C60.2901 78.0004 59.4247 78.2312 58.617 78.4043C57.7517 78.5773 56.944 78.8081 56.0786 78.9235C55.2132 79.0389 54.3478 79.1543 53.4824 79.212C54.3478 79.0966 55.2132 78.9812 56.0209 78.8081C56.8863 78.635 57.694 78.3466 58.5017 78.1158C59.3093 77.885 60.117 77.5966 60.9824 77.3658C61.7901 77.1927 62.6555 77.0196 63.3478 76.5581L63.6363 77.0773Z" fill="#594B3D"/>
<path d="M56.8284 61.962C56.1361 62.4813 55.4438 63.0582 54.8092 63.6351C54.1169 64.212 53.54 64.8466 52.963 65.5389C52.3861 66.2313 51.8669 66.9236 51.1746 67.5005C50.4823 68.0774 49.7323 68.5389 49.0977 69.1159C49.7323 68.4813 50.4823 67.962 51.1169 67.3851C51.7515 66.7505 52.2707 66.0582 52.79 65.3082C53.3092 64.5582 53.8861 63.8659 54.5207 63.289C55.1553 62.6543 55.8477 62.0774 56.4823 61.5005L56.8284 61.962Z" fill="#594B3D"/>
<path d="M118.385 58.5003C117.174 58.0387 116.078 57.4618 114.982 56.7695C113.885 56.1349 112.789 55.4426 111.751 54.7503H111.808C111.347 54.5195 111.058 54.1734 110.712 54.1157C110.482 54.058 110.308 54.0003 110.193 54.0003C110.078 54.0003 109.962 54.1157 109.789 54.2887C109.097 54.8657 108.405 55.3849 107.655 55.9041C106.905 56.4234 106.212 56.8849 105.462 57.3464C105.116 57.5772 104.712 57.8657 104.366 58.0964C104.02 58.3272 103.674 58.6734 103.27 58.9041C103.097 58.9618 102.866 59.0772 102.635 59.0772C102.405 59.0772 102.116 59.0195 101.943 58.9618C101.597 58.7887 101.251 58.6734 100.847 58.5003L98.6546 57.6349L96.4623 56.7695L95.3661 56.3657C95.02 56.2503 94.6161 56.0772 94.3277 56.0195C93.9238 55.9618 93.6931 55.9618 93.4046 56.1926C93.2315 56.308 93.1161 56.4234 92.8854 56.5387C92.7123 56.6541 92.5392 56.7695 92.4238 56.8849L90.52 58.3849C89.2507 59.4234 87.9238 60.4041 86.5392 61.3272C86.1931 61.558 85.8469 61.7887 85.4431 61.9618C85.3277 62.0195 85.2123 62.0195 85.0969 62.0772C85.0392 62.0772 84.9238 62.0772 84.8661 62.0772C84.8084 62.0772 84.7508 62.0772 84.6931 62.0772C84.4623 62.0195 84.2892 61.9618 84.0584 61.9041C83.2508 61.6734 82.5008 61.3849 81.6931 61.0964C80.1354 60.5195 78.6354 59.8849 77.1354 59.2503L76.5584 59.0195L76.27 58.9041C76.2123 58.8464 76.0392 58.8464 76.0392 58.8464C76.0392 58.8464 75.8084 58.9041 75.6931 59.0195C75.52 59.1349 75.3469 59.2503 75.2315 59.3657C74.5969 59.8849 74.02 60.4041 73.3854 60.9811C72.1738 62.0772 71.02 63.2311 69.8661 64.3849C68.7123 65.5387 67.5008 66.6349 66.2315 67.7311C65.5969 68.308 65.02 68.8272 64.3854 69.3464C63.7508 69.8657 63.1161 70.4426 62.4238 70.7887C63.1161 70.3272 63.6931 69.7503 64.27 69.1734C64.8469 68.5964 65.4238 68.0195 66.0008 67.4426C67.1546 66.2887 68.2508 65.0772 69.4623 63.9234C70.6161 62.7695 71.8277 61.6157 73.0392 60.5195C73.6161 59.9426 74.2508 59.4234 74.8854 58.8464C75.0584 58.7311 75.2315 58.558 75.4046 58.4426C75.52 58.3849 75.5777 58.3272 75.6931 58.2695C75.7508 58.2695 75.8084 58.2118 75.8661 58.2118C75.9815 58.2118 76.0392 58.1541 76.0969 58.2118C76.27 58.2695 76.3277 58.2695 76.4431 58.3272L76.7315 58.4426L77.3084 58.6734C78.8084 59.308 80.3661 59.8849 81.8661 60.5195C82.6161 60.808 83.4238 61.0964 84.1738 61.3272C84.3469 61.3849 84.5777 61.4426 84.7508 61.4426C84.8084 61.4426 84.8661 61.4426 84.8661 61.4426H84.9238C84.9815 61.4426 85.0969 61.3849 85.1546 61.3849C85.5008 61.2118 85.8469 61.0387 86.1931 60.808C87.5777 59.9426 88.8469 58.9041 90.1161 57.9234L92.0777 56.3657C92.2508 56.2503 92.4238 56.1349 92.5969 56.0195C92.77 55.9041 92.9431 55.7887 93.1161 55.6734C93.2892 55.558 93.52 55.4426 93.8084 55.3849C94.0969 55.3272 94.3277 55.3849 94.5584 55.4426C95.02 55.558 95.3661 55.6734 95.7123 55.7887L96.8084 56.1926L99.0008 57.058L101.193 57.9234C101.539 58.0387 101.943 58.2118 102.289 58.3849C102.462 58.4426 102.578 58.5003 102.751 58.5003C102.866 58.5003 103.039 58.4426 103.212 58.3849C103.558 58.2118 103.905 57.9234 104.251 57.6349C104.655 57.3464 105.001 57.1157 105.347 56.8849C106.097 56.4234 106.789 55.9041 107.539 55.4426C108.232 54.9234 108.924 54.4041 109.616 53.8849C109.674 53.8272 109.789 53.7695 109.905 53.6541C110.02 53.5964 110.193 53.4811 110.308 53.4811C110.655 53.4234 110.828 53.5387 111.058 53.5964C111.635 53.7695 111.924 54.1157 112.212 54.2887C114.058 55.8464 116.135 57.3464 118.385 58.5003Z" fill="#594B3D"/>
<path d="M104.309 57.9232C105.289 62.2502 106.155 66.6348 106.905 71.0194C107.309 73.2117 107.655 75.404 107.943 77.5963C108.232 79.7886 108.52 82.0386 108.693 84.2309C108.52 82.0386 108.174 79.7886 107.828 77.5963C107.482 75.404 107.078 73.2117 106.616 71.0194C105.751 66.6348 104.77 62.3078 103.732 57.9809C103.674 57.8078 103.789 57.6925 103.963 57.6348C104.136 57.6925 104.309 57.8078 104.309 57.9232Z" fill="#594B3D"/>
<path d="M115.674 56.8851C116.713 61.0966 117.636 65.2505 118.444 69.5197C118.847 71.6543 119.251 73.7312 119.54 75.8658C119.828 78.0005 120.117 80.1351 120.174 82.2697C120.117 80.1351 119.77 78.0005 119.424 75.8658C119.078 73.7312 118.617 71.6543 118.155 69.5197C117.232 65.3081 116.194 61.1543 115.097 57.0004C115.04 56.8274 115.155 56.712 115.27 56.6543C115.501 56.6543 115.617 56.712 115.674 56.8851Z" fill="#594B3D"/>
<path d="M85.5575 61.6732C86.2499 63.8078 86.8268 65.8848 87.4037 68.0771C87.9806 70.2117 88.4422 72.3463 88.9037 74.5386C89.3075 76.7309 89.6537 78.8655 89.9422 81.0578C90.1729 83.2502 90.346 85.4425 90.346 87.6348C90.2883 85.4425 90.0575 83.2502 89.7691 81.0578C89.4229 78.8655 89.0768 76.7309 88.5575 74.5386C88.096 72.404 87.5191 70.2694 86.9422 68.1348C86.3652 66.0001 85.6729 63.9232 84.9806 61.8463C84.9229 61.6732 84.9806 61.5578 85.1537 61.5001C85.3268 61.4425 85.4999 61.5002 85.5575 61.6732Z" fill="#594B3D"/>
<path d="M109.906 53.8268C109.733 52.9037 109.387 52.0383 108.983 51.173C108.579 50.3076 108.117 49.4999 107.598 48.6922C107.079 47.8845 106.444 47.1922 105.752 46.4999C105.06 45.8076 104.31 45.2307 103.502 44.7114C104.31 45.2307 105.117 45.7499 105.867 46.3845C106.617 47.0191 107.252 47.7114 107.829 48.5191C108.406 49.2691 108.925 50.1345 109.387 50.9999C109.848 51.8653 110.194 52.7883 110.483 53.7114C110.54 53.8845 110.425 53.9999 110.31 54.0576C110.137 54.1153 109.963 53.9999 109.906 53.8268Z" fill="#594B3D"/>
<path d="M93.5215 55.7886C93.233 54.5771 92.8869 53.3078 92.4253 52.0963C91.9638 50.8848 91.4446 49.7309 90.7523 48.6348C90.1176 47.5386 89.3676 46.5002 88.4446 45.5771C87.5215 44.654 86.483 43.904 85.2715 43.3848C86.483 43.8463 87.5792 44.5963 88.5599 45.4617C89.483 46.3271 90.2907 47.3655 91.0407 48.4617C91.733 49.5578 92.3099 50.7117 92.8292 51.9232C93.3484 53.1348 93.7523 54.3463 94.0984 55.6155C94.1561 55.7886 94.0407 55.904 93.8676 55.9617C93.6946 56.0194 93.5792 55.9617 93.5215 55.7886Z" fill="#594B3D"/>
<path d="M75.6944 58.7313C75.4059 57.6351 75.0598 56.5389 74.6559 55.5005C74.2521 54.462 73.7906 53.4236 73.2713 52.3851C72.7521 51.4043 72.1752 50.4236 71.4252 49.5005C70.7329 48.6351 69.8675 47.8274 68.8867 47.2505C69.9252 47.7697 70.7906 48.5774 71.5406 49.4428C72.2906 50.3082 72.9252 51.2889 73.5021 52.2697C74.079 53.2505 74.5983 54.2889 75.0598 55.3274C75.5213 56.3659 75.9252 57.462 76.2713 58.5582C76.329 58.7313 76.2136 58.8466 76.0983 58.9043C75.9829 58.962 75.7521 58.9043 75.6944 58.7313Z" fill="#594B3D"/>
</svg>
