<svg width="154" height="112" viewBox="0 0 154 112" fill="none" xmlns="http://www.w3.org/2000/svg">
<g clip-path="url(#clip0_1724_33974)">
<path d="M70.4684 111.947H62.3967C62.3436 111.947 62.2905 111.947 62.2373 111.947H61.3877C61.3877 111.894 61.3877 111.894 61.3877 111.84C61.3877 111.734 61.3877 111.681 61.4408 111.575C61.4408 111.469 61.4408 111.416 61.4939 111.31C61.4939 111.204 61.4939 111.151 61.4939 111.045C61.7063 109.136 61.9187 107.227 62.2373 105.317L65.3174 104.044L66.0077 103.779C66.0608 103.779 66.0608 103.779 66.1139 103.832C66.2732 103.885 66.4325 103.991 66.5918 104.097C66.698 104.151 66.8574 104.257 66.9636 104.31C67.1229 104.416 67.3353 104.522 67.4946 104.628C68.3442 105.211 69.1408 105.901 69.6718 106.696C69.8842 107.014 70.0436 107.28 70.1498 107.651C70.3091 108.075 70.3622 108.552 70.4153 109.03C70.4684 109.454 70.4684 109.878 70.4684 110.302C70.4684 110.515 70.4684 110.674 70.4684 110.886C70.4684 111.151 70.4684 111.469 70.5215 111.734C70.4684 111.84 70.4684 111.894 70.4684 111.947Z" fill="#7F4028"/>
<path d="M72.2743 93.2786C72.1681 93.5968 72.115 93.915 72.0087 94.2332C71.9025 94.4984 71.7963 94.7635 71.7432 95.0287C71.5839 95.506 71.3715 95.9833 71.106 96.4076C70.4156 97.9456 69.4598 99.2714 68.557 100.65C68.1322 101.287 67.7605 101.976 67.3887 102.613C67.2294 102.878 67.1232 103.09 66.9639 103.355C66.8046 103.62 66.6984 103.832 66.5922 104.098C66.2736 104.734 65.9549 105.317 65.6363 105.954C65.5832 106.007 65.5832 106.007 65.5832 106.06C65.3177 106.643 64.9991 107.28 64.6805 107.863C64.6805 107.916 64.6274 107.969 64.6274 107.969C64.0963 108.977 63.2998 109.719 62.7687 110.621C62.6094 110.833 62.5032 111.045 62.397 111.31C62.3439 111.363 62.3439 111.469 62.3439 111.522C62.2908 111.628 62.2377 111.734 62.2377 111.841V111.894H62.2908H56.715C56.715 111.681 56.7149 111.522 56.7681 111.363C56.7681 111.363 56.7681 111.363 56.7681 111.31C56.8743 111.151 56.9805 110.992 57.0867 110.886C57.3522 110.568 57.6708 110.356 57.8832 110.037C58.2549 109.454 58.1487 108.765 58.1487 108.181C58.1487 106.855 58.0956 105.476 58.0425 104.045C57.9894 102.135 57.8832 100.226 57.4053 98.4759C57.3522 98.2638 57.2991 98.1047 57.246 97.8926C57.1398 97.4683 56.9805 97.097 56.8212 96.6728C56.5025 95.9833 56.1308 95.3469 55.7591 94.7635C55.4405 94.3393 55.1218 93.862 54.8032 93.4377C54.697 93.3316 54.6439 93.2256 54.5377 93.1195C53.9536 92.43 53.3163 91.6876 52.6791 90.9981C51.086 89.248 49.546 87.3918 48.8556 85.1644C48.3246 83.4142 48.3246 81.452 49.1743 79.967C49.4398 79.4897 49.8115 79.0654 50.2363 78.6942C51.2453 77.8456 52.5729 77.4744 53.5818 76.5728C54.6439 75.6712 55.2281 74.2924 56.2901 73.2847C56.6618 72.9135 57.0867 72.5953 57.5646 72.3831C57.777 72.2771 57.9894 72.224 58.2018 72.171C58.8922 72.0119 59.5825 72.171 60.1136 72.6483L63.406 75.353C65.0522 76.2016 66.6453 77.0501 68.026 78.1108C69.035 78.8533 69.9377 79.7018 70.6812 80.6565C71.3715 81.558 71.9025 82.5127 72.2743 83.6794C73.0177 86.9145 73.1239 90.2026 72.2743 93.2786Z" fill="#A95B35"/>
<path d="M67.0166 103.515C67.0166 103.78 67.0166 104.045 66.9634 104.31C66.8572 105.318 66.5386 106.326 66.1138 107.227C65.5828 108.447 64.7862 109.561 63.8303 110.568L63.7772 110.621C63.5117 110.887 63.2462 111.099 63.0338 111.364C62.9276 111.47 62.8745 111.523 62.7683 111.629C63.0338 111.682 63.2993 111.682 63.5117 111.735C63.6179 111.735 63.7241 111.788 63.7772 111.894V111.947H62.3435C62.2903 111.947 62.2372 111.947 62.1841 111.947H61.1221C61.1221 111.894 61.1221 111.841 61.1221 111.841C61.1221 111.788 61.1752 111.735 61.2283 111.682C61.2814 111.629 61.2814 111.629 61.3345 111.576C61.4407 111.523 61.4938 111.417 61.6 111.311C61.7593 111.152 61.9186 110.993 62.0779 110.834C63.0338 109.932 63.8834 108.977 64.5738 107.864C64.9455 107.28 65.211 106.697 65.4766 106.06C65.4766 106.007 65.5297 105.954 65.5297 105.901C65.5828 105.742 65.6359 105.583 65.689 105.477C65.8483 104.947 65.9545 104.363 66.0076 103.833C66.0076 103.78 66.0076 103.674 66.0076 103.621C66.0076 103.409 66.1669 103.144 66.4324 103.144C66.5917 103.144 66.8041 103.25 66.8572 103.409C66.9635 103.409 67.0166 103.462 67.0166 103.515Z" fill="#682F1B"/>
<path d="M59.7941 101.977C60.9624 101.234 62.4493 100.916 63.83 101.181C64.4141 101.287 64.2017 102.136 63.6707 102.03C62.5024 101.712 61.281 101.977 60.219 102.666C59.7941 102.931 59.3693 102.242 59.7941 101.977Z" fill="#682F1B"/>
<path d="M56.4488 75.2472C56.7144 74.5047 57.2454 73.8683 57.9888 73.7092C58.6792 73.497 59.5288 73.7092 60.0599 74.1865C60.2723 74.2926 60.2192 74.6638 60.0599 74.7699C59.9537 74.982 59.5819 74.929 59.4757 74.7699L59.4226 74.6638C59.3695 74.5577 59.2633 74.6108 59.2102 74.5577C59.0509 74.5047 59.0509 74.5047 58.9447 74.5047C58.9447 74.5047 58.8916 74.3986 58.7854 74.4517L58.6261 74.3986C58.6261 74.3986 58.5199 74.4517 58.4668 74.3456C58.3606 74.3986 58.3075 74.2926 58.2544 74.3456L58.1482 74.3986C58.0419 74.4517 58.0419 74.4517 57.9888 74.5047C58.095 74.4517 57.8826 74.5577 57.9888 74.5047L57.8826 74.5577C57.7764 74.6108 57.7764 74.6108 57.7233 74.6638L57.6171 74.7168C57.5109 74.7699 57.5109 74.929 57.4047 74.982C57.2985 75.035 57.3516 75.1411 57.2985 75.1941C57.2985 75.1941 57.2985 75.1941 57.2454 75.3532C57.1923 75.6184 57.033 75.7245 56.7144 75.6714C56.5019 75.7245 56.3426 75.4593 56.4488 75.2472Z" fill="#682F1B"/>
<path d="M134.565 111.947H85.019V112C84.9659 112 84.9128 111.947 84.8597 111.947H66.9639C67.017 111.841 67.0701 111.735 67.1232 111.629C67.2294 111.417 67.3356 111.204 67.4418 111.045C67.548 110.886 67.6011 110.78 67.7073 110.621C67.9728 110.25 68.2384 109.879 68.5039 109.507L67.9197 109.401C67.9197 108.977 68.0259 108.606 68.1321 108.288C68.3977 107.545 68.9287 107.015 69.5659 106.644C70.4156 106.166 71.4777 105.954 72.5397 105.954C73.177 105.954 73.8142 106.007 74.3984 106.113C75.0356 106.219 75.6728 106.378 76.3632 106.484C76.5225 106.537 76.6818 106.537 76.8411 106.591C77.0535 106.644 77.2659 106.697 77.4783 106.697C78.5404 106.856 79.5494 107.068 80.6115 107.227C81.4611 107.386 82.3108 107.492 83.1604 107.598C83.957 107.704 84.7535 107.81 85.5501 107.916C88.4177 108.288 91.3383 108.553 94.2059 108.712C95.7459 108.818 97.339 108.924 98.9321 108.977C99.357 108.977 99.7287 108.977 100.154 109.03C100.419 109.03 100.685 109.03 101.003 109.03C102.331 109.083 103.711 109.083 105.039 109.083C108.438 109.083 111.836 108.924 115.288 108.712C117.147 108.553 119.005 108.394 120.864 108.235C120.97 108.235 121.129 108.235 121.236 108.182C125.484 107.757 130.263 107.28 133.502 110.621C133.874 110.992 134.193 111.364 134.511 111.841C134.511 111.894 134.511 111.894 134.565 111.947Z" fill="#8E8B5E"/>
<path d="M149.062 97.0444C146.513 99.3779 143.008 100.651 139.663 99.8552C139.45 103.196 139.185 106.591 138.866 110.038C138.813 110.674 138.76 111.364 138.494 111.947H85.0191V112C84.9659 112 84.9128 111.947 84.8597 111.947H75.9915C75.8322 111.841 75.6197 111.735 75.4604 111.629C75.0356 111.364 74.5577 111.098 74.1328 110.833C73.6018 110.568 73.1239 110.303 72.5928 110.038C72.3804 109.932 72.168 109.826 71.9556 109.72C71.4246 109.454 70.8935 109.242 70.3625 109.03C69.7784 108.818 69.1942 108.606 68.6101 108.394C68.4508 108.341 68.3446 108.341 68.1852 108.288C67.7604 108.182 67.3356 108.076 66.9639 107.863C66.6453 107.704 66.3797 107.545 66.1673 107.28C66.1673 107.227 66.1142 107.227 66.1142 107.227C65.8487 106.909 65.6894 106.538 65.5832 106.113C65.5832 106.113 65.5832 106.113 65.5832 106.06C65.477 105.636 65.4239 105.212 65.3708 104.787C65.3708 104.522 65.3177 104.31 65.3177 104.098C65.3177 103.833 65.2646 103.515 65.2115 103.249C64.8928 101.022 64.3087 98.9006 63.8308 96.6732C63.7777 96.461 63.7246 96.3019 63.7246 96.0898C63.5653 95.2943 63.4059 94.4988 63.2997 93.7033C62.9811 91.3167 62.928 88.8771 63.5652 86.2254C63.7246 85.6421 63.8839 85.0056 64.1494 84.4223C63.7246 84.3162 63.2466 84.2632 62.8218 84.1571C58.6266 83.3086 54.5377 82.1418 50.5018 80.7099C50.077 80.5508 49.5459 80.3917 49.1742 80.0735C49.0149 79.9674 48.9087 79.8613 48.8025 79.7022C48.3777 79.1719 48.3246 78.4824 48.2184 77.8991C47.7935 73.9745 47.3156 69.9439 48.8025 66.3376C49.1742 65.383 49.6521 64.5345 50.2363 63.6859C50.3956 63.4738 50.5018 63.2616 50.6611 63.1025C50.8735 62.7843 51.0859 62.5192 51.3515 62.201C51.5108 62.0419 51.617 61.8297 51.7763 61.6706C51.9887 61.4585 52.148 61.2463 52.3604 61.0342C55.1749 57.7461 58.308 54.6701 61.4942 51.7002C62.1315 51.0638 62.8218 50.4804 63.459 49.897C63.6715 49.6849 63.8839 49.5258 64.0963 49.3137C65.3177 48.1999 66.5921 47.0862 67.8135 45.9725C68.6632 45.2831 69.5128 44.5406 70.3625 43.8511C70.4687 43.7451 70.5749 43.692 70.6811 43.639C71.3715 43.1087 72.0618 42.5783 72.7521 42.154L73.0708 41.9949C73.4425 41.7828 73.7611 41.5707 74.1328 41.4116C74.8232 41.0403 75.6197 40.7221 76.4163 40.51C77.4784 40.1918 78.5935 40.0857 79.7087 40.0327C81.9922 39.9266 84.2756 40.1918 86.5059 40.1918C90.0108 40.1918 93.5156 39.7145 96.7549 38.6008C97.0735 38.4947 97.4453 38.3886 97.7639 38.2825L100.578 34.6762C101.109 34.5702 101.481 34.358 102.012 34.252C103.18 37.9643 106.951 39.8205 110.774 41.0403C111.04 41.1464 111.305 41.1994 111.571 41.3055C112.102 41.4646 112.58 41.6237 113.058 41.7298C115.5 42.3662 117.89 43.0556 120.333 43.692C120.492 43.7451 120.651 43.7981 120.811 43.7981C121.076 43.8511 121.289 43.9572 121.554 44.0102H121.607C122.298 44.1693 122.935 44.3815 123.625 44.5406C125.643 45.0179 127.555 45.5482 129.307 46.6619C131.75 48.1469 133.237 50.5865 134.989 52.8139C138.547 57.4279 142.689 61.4585 146.247 66.0194C149.805 70.5804 152.938 75.6716 153.947 81.3463C154.691 86.7558 153.31 93.1199 149.062 97.0444Z" fill="#6DA8C6"/>
<path d="M97.8162 40.8281C97.0196 43.9571 95.5858 48.1999 96.0107 51.3819C96.4355 54.617 98.3472 57.9051 101.374 58.9128C104.029 59.8144 106.95 59.0188 109.18 57.3217C111.304 55.6247 112.844 53.1851 113.853 50.5864C113.96 50.2682 114.172 49.897 114.066 49.5788C113.96 49.0484 113.641 48.7832 113.375 48.359C109.711 44.8587 104.879 42.4191 99.8341 41.7297L97.8162 40.8281Z" fill="#A95B35"/>
<path d="M104.508 21.2588C103.711 23.4862 101.587 27.782 100.737 30.1155C100.95 28.6305 98.8255 27.8881 97.4979 28.5245C95.0551 29.6382 94.3648 33.2445 96.1703 35.1537C96.4889 35.4719 96.7013 35.6841 96.8606 35.9493C97.0731 36.4266 96.9669 37.169 96.7544 37.6463C95.3206 43.1089 97.0731 49.1548 101.109 53.0793C101.905 53.8748 102.808 54.5642 103.817 54.8824C104.72 55.2007 105.623 55.2007 106.632 55.0946C111.57 54.5112 115.128 50.0563 117.89 45.8136C117.89 46.7152 118.899 47.4046 119.908 47.2986C120.81 47.1925 121.607 46.6091 122.244 45.8666C123.147 44.859 123.837 43.6392 123.678 42.3664C123.572 41.0405 122.35 39.8738 121.023 40.0329C122.457 36.5857 123.943 33.1915 125.377 29.8503L104.508 21.2588Z" fill="#A95B35"/>
<path d="M139.131 77.5808L120.917 78.4824C121.926 74.4518 119.802 70.3152 117.093 67.1861C116.191 66.1785 115.288 65.2769 114.066 64.7466C112.739 64.1632 111.252 64.2693 109.712 64.2693C109.022 64.2693 108.119 64.3753 107.375 64.6935C106.366 65.1178 106.473 66.6028 107.482 66.8149C108.278 67.027 112.739 67.8226 113.535 67.8226C112.633 67.7165 107.959 66.921 107.057 67.1331C105.942 67.3452 105.729 68.9363 106.844 69.3605L113.111 71.3758C110.986 70.8985 108.862 70.4743 106.844 70.05C105.942 69.8378 104.614 70.1561 104.826 71.0576C104.826 71.2698 104.933 71.4819 105.145 71.588C107.163 73.8154 110.933 74.1336 112.314 76.7323C109.871 76.255 109.181 76.4141 106.738 76.1489C106.632 76.1489 106.419 76.1489 106.313 76.1489C104.986 76.3611 105.304 78.0581 106.101 78.8537C108.119 80.6568 109.871 79.5431 111.677 81.4523C113.376 83.3616 112.686 86.4906 114.385 88.3998C115.288 89.5135 116.828 89.9378 118.155 90.4151C121.713 91.847 124.846 94.1275 128.351 95.4533C132.599 97.0444 137.166 97.2565 141.733 97.4686C142.636 97.4686 143.539 97.5747 144.388 97.2565C145.61 96.8322 146.406 95.7185 147.044 94.6578C149.062 90.9454 148.955 86.4906 148.849 82.2478C146.513 79.1188 142.902 77.3687 139.131 77.5808Z" fill="#A95B35"/>
<path d="M96.8076 45.3359C97.6042 48.465 100.259 51.0636 103.18 52.4955C105.995 53.9275 109.552 54.0866 112.473 52.9198C110.455 54.723 107.8 55.7306 105.198 55.5185C102.543 55.3064 100.047 53.6093 99.038 51.1697C98.1352 49.2605 96.9138 47.2452 96.8076 45.3359Z" fill="#7F4028"/>
<path d="M51.5105 64.6938C53.7409 64.5877 55.9712 64.4817 58.2016 64.5877C60.3257 64.6938 62.556 65.012 64.574 65.7014C65.6891 66.1257 66.8043 66.603 67.8133 67.2925C68.0257 67.3985 68.3443 67.2925 68.3974 67.0803C68.5036 66.8682 68.3974 66.55 68.185 66.497C66.3795 65.2772 64.2554 64.4817 62.025 64.0574C59.7947 63.6331 57.4581 63.5801 55.2278 63.5801C53.9002 63.5801 52.6788 63.6861 51.4043 63.7922C51.1919 63.7922 50.9795 64.0043 50.9795 64.2165C51.0857 64.4817 51.2981 64.6938 51.5105 64.6938Z" fill="#1D4A5E"/>
<path d="M57.6699 62.095C60.2189 62.8905 62.6085 63.686 65.1575 64.6407C65.3699 64.7467 65.6885 64.5346 65.6885 64.3224C65.7947 64.1103 65.5823 63.8982 65.3699 63.7921C62.9271 62.8905 60.4313 61.9889 57.8823 61.2465C57.3513 61.0874 57.1389 61.8829 57.6699 62.095Z" fill="#1D4A5E"/>
<path d="M76.5754 41.9415C76.894 45.0705 76.5754 48.3056 76.0443 51.4346C75.4602 54.5636 74.6106 57.6926 73.6016 60.8216C73.0706 62.5187 72.4864 64.2689 71.9023 65.966C71.7961 66.1781 72.0085 66.4433 72.2209 66.4433C72.4333 66.5493 72.6457 66.3372 72.7519 66.1251C73.7609 63.1021 74.8761 59.9731 75.6726 56.8441C76.4692 53.7151 77.2126 50.5861 77.3719 47.351C77.4781 45.5478 77.4781 43.7446 77.3719 41.8885C77.3719 41.6763 77.1595 41.4642 76.9471 41.4642C76.7878 41.4111 76.5754 41.6233 76.5754 41.9415Z" fill="#1D4A5E"/>
<path d="M129.52 48.6768C129.414 48.6768 129.414 48.6768 129.52 48.6768C129.52 48.6768 129.626 48.6768 129.732 48.7828C129.838 48.8889 129.838 48.995 129.945 49.101C129.838 49.2071 129.732 49.4192 129.732 49.5253C129.626 49.5253 129.52 49.5253 129.414 49.5253C129.307 49.4192 129.307 49.4192 129.201 49.3132C129.201 49.2071 129.201 49.4192 129.201 49.4192C129.201 49.5253 129.201 49.5253 129.307 49.6314C129.307 49.7374 129.414 49.8435 129.414 49.9496C129.52 50.1617 129.52 50.4269 129.626 50.639C129.732 51.1694 129.838 51.5406 129.945 52.0709C130.157 52.9725 130.157 53.8741 130.263 54.7757C130.369 56.6849 130.263 58.5941 130.263 60.5034C130.263 62.4126 130.263 64.3218 130.582 66.2311C130.9 68.1403 131.378 69.9435 132.016 71.7466C132.706 73.7619 133.609 75.7772 134.671 77.7925C134.777 78.0047 135.096 78.1107 135.255 78.0047C135.467 77.8986 135.574 77.5804 135.467 77.4213C133.768 73.8149 132.016 69.9435 131.538 65.9129C131.007 61.9883 131.538 57.9577 131.219 53.9271C131.113 52.8134 131.007 51.6997 130.688 50.586C130.582 50.2678 130.582 50.1087 130.476 49.7905C130.369 49.4723 130.369 49.2071 130.157 48.995C129.945 48.6768 129.573 48.6768 129.36 48.995C129.148 49.3132 129.36 49.6844 129.785 49.6844C129.998 49.6844 130.21 49.4723 130.21 49.2601C129.945 48.8889 129.732 48.6768 129.52 48.6768Z" fill="#1D4A5E"/>
<path d="M101.587 89.301C101.587 93.4377 101.481 97.5743 101.375 101.711C101.269 104.204 101.109 106.696 101.003 109.136C100.95 110.09 100.897 111.045 100.844 112H99.9941C100.047 111.045 100.1 110.09 100.153 109.136C100.207 108.499 100.207 107.916 100.26 107.28C100.472 103.143 100.578 99.0062 100.684 94.8696C100.684 94.5514 100.684 94.1801 100.684 93.8619C100.684 93.3846 100.684 92.9603 100.684 92.483C100.738 89.6722 100.738 86.9145 100.684 84.1567C100.684 83.8915 100.684 83.6263 100.684 83.3612C100.684 83.043 100.684 82.7248 100.684 82.4065C100.684 81.8762 101.587 81.8762 101.481 82.4065C101.481 82.6717 101.481 82.9899 101.534 83.3081C101.534 83.5733 101.534 83.8385 101.534 84.1036C101.587 85.7477 101.587 87.5509 101.587 89.301Z" fill="#1D4A5E"/>
<path d="M104.826 103.514C104.136 103.726 104.029 104.522 104.295 105.052C104.614 105.742 105.41 105.848 105.994 105.529C106.685 105.211 107.322 104.628 107.322 103.832C107.322 103.143 106.738 102.4 105.994 102.4C105.569 102.4 105.198 102.613 104.985 102.878C104.667 103.196 104.56 103.567 104.667 104.097C104.667 104.31 104.985 104.522 105.198 104.416C105.41 104.31 105.516 104.097 105.516 103.938C105.516 104.044 105.516 103.938 105.516 103.832C105.516 103.938 105.516 103.726 105.516 103.832C105.516 103.832 105.516 103.832 105.516 103.726V103.62C105.516 103.62 105.623 103.514 105.623 103.408C105.623 103.408 105.623 103.302 105.729 103.302C105.729 103.302 105.835 103.302 105.835 103.196C105.835 103.196 105.835 103.196 105.941 103.196H106.047C106.047 103.196 106.047 103.196 105.941 103.196H106.047C106.154 103.196 105.941 103.196 106.047 103.196H106.154C106.154 103.196 106.154 103.196 106.26 103.196C106.366 103.196 106.154 103.09 106.26 103.196C106.26 103.196 106.26 103.196 106.366 103.196L106.472 103.302C106.472 103.302 106.472 103.408 106.578 103.408C106.578 103.408 106.578 103.408 106.578 103.514C106.685 103.62 106.578 103.408 106.578 103.514C106.578 103.514 106.578 103.514 106.578 103.62C106.578 103.62 106.578 103.62 106.578 103.726C106.578 103.726 106.578 103.832 106.578 103.938V104.044C106.578 104.044 106.578 104.044 106.578 104.151C106.578 104.257 106.472 104.257 106.472 104.363C106.472 104.363 106.472 104.363 106.472 104.469L106.366 104.575L106.26 104.681C106.26 104.681 106.154 104.681 106.154 104.787C106.154 104.787 106.047 104.893 105.941 104.893C106.047 104.893 105.835 104.999 105.941 104.893C105.941 104.893 105.941 104.893 105.835 104.893C105.729 104.893 105.729 104.893 105.623 104.893H105.516H105.41C105.516 104.893 105.304 104.893 105.41 104.893C105.304 104.893 105.304 104.893 105.198 104.893C105.304 104.893 105.198 104.893 105.091 104.893C105.198 104.999 105.198 104.893 105.091 104.893C105.091 104.893 105.091 104.893 104.985 104.787C105.091 104.787 104.985 104.893 104.985 104.787V104.681V104.522C104.985 104.522 104.985 104.522 104.985 104.416V104.31C104.985 104.416 104.985 104.204 104.985 104.31C104.985 104.31 104.985 104.31 104.985 104.204C105.091 104.097 104.879 104.204 104.985 104.204C105.198 104.097 105.41 103.885 105.304 103.726C105.304 103.567 105.145 103.408 104.826 103.514Z" fill="#1D4A5E"/>
<path d="M105.304 88.4529C105.091 88.9302 105.516 89.5666 105.888 89.8848C106.419 90.203 107.003 90.097 107.428 89.6727C107.853 89.2484 107.959 88.665 107.959 88.1347C107.853 87.5513 107.428 86.9149 106.844 86.8088C106.419 86.7028 106.154 86.9149 105.835 87.2331C105.623 87.5513 105.623 87.9226 105.835 88.1347C105.941 88.3468 106.26 88.4529 106.419 88.3468C106.578 88.2408 106.738 87.9226 106.631 87.7635C106.631 87.7635 106.631 87.7635 106.631 87.6574L106.738 87.5513H106.844C106.95 87.5513 106.738 87.5513 106.844 87.5513C106.844 87.5513 106.844 87.5513 106.95 87.5513L107.056 87.6574C107.056 87.6574 107.056 87.7635 107.163 87.7635C107.163 87.7635 107.163 87.7635 107.163 87.8695V87.9756C107.163 87.9756 107.163 87.9756 107.163 88.0817V88.2938C107.163 88.2938 107.163 88.2938 107.163 88.3999V88.5059V88.612C107.163 88.612 107.163 88.612 107.163 88.7181C107.163 88.7181 107.163 88.8241 107.056 88.8241L106.95 88.9302L106.844 89.0363C106.844 89.0363 106.844 89.0363 106.738 89.0363C106.844 89.0363 106.631 89.0363 106.738 89.0363H106.631H106.525H106.419H106.313C106.419 89.0363 106.207 89.0363 106.313 89.0363C106.313 89.0363 106.313 89.0363 106.207 89.0363C106.207 89.0363 106.207 89.0363 106.1 89.0363L105.994 88.9302L105.888 88.8241V88.7181V88.612V88.5059C105.994 88.2938 105.782 88.0286 105.569 88.0286C105.623 88.1877 105.41 88.2938 105.304 88.4529Z" fill="#1D4A5E"/>
<path d="M84.8591 111.947H83.1067C82.4164 111.628 81.7791 111.257 81.0888 110.939C80.8233 110.78 80.5578 110.674 80.2922 110.515C80.1329 110.409 79.9736 110.356 79.7612 110.25C79.0178 109.825 78.2743 109.401 77.5309 108.977C77.0529 108.712 76.575 108.446 76.044 108.128C75.9909 108.075 75.9378 108.075 75.8847 108.022C75.7253 107.916 75.566 107.81 75.4067 107.757C74.4509 107.174 73.4419 106.59 72.486 106.007C71.2647 105.264 70.0433 104.575 68.8219 103.886C68.2909 103.567 68.8219 102.878 69.2998 103.302C69.884 103.62 70.415 103.885 70.946 104.204C72.0612 104.893 73.2295 105.53 74.3978 106.219C74.9819 106.537 75.566 106.908 76.1502 107.227C76.1502 107.227 76.2033 107.227 76.2033 107.28C76.3626 107.333 76.4688 107.439 76.6281 107.492C76.8405 107.598 76.9998 107.704 77.2122 107.81C77.584 108.022 78.0088 108.287 78.3805 108.499C79.9205 109.401 81.4605 110.25 83.0005 111.045C83.266 111.204 83.5316 111.31 83.7971 111.469C84.2219 111.628 84.5405 111.788 84.8591 111.947Z" fill="#1D4A5E"/>
<path d="M132.174 111.947H128.829C127.183 111.523 125.59 111.152 123.997 110.834C123.041 110.674 122.032 110.568 121.076 110.515C119.908 110.462 118.739 110.462 117.518 110.621C116.721 110.728 115.978 110.834 115.234 110.993C114.013 111.258 112.792 111.576 111.623 111.947H109.181C111.199 111.258 113.217 110.621 115.234 110.197C116.562 109.932 117.943 109.773 119.323 109.72C119.854 109.667 120.439 109.72 120.97 109.72C124.74 109.932 128.457 111.152 132.174 111.947Z" fill="#1D4A5E"/>
<path d="M139.927 75.3531C142.636 75.7773 145.609 76.2546 147.84 77.9517C148.849 78.6412 149.645 79.6488 150.07 80.7625C150.601 82.0884 150.601 83.5733 150.495 85.0053C150.389 86.8084 150.283 88.5055 150.07 90.3617C150.07 90.5739 150.283 90.786 150.495 90.786C150.707 90.786 150.92 90.5739 150.92 90.3617C151.026 88.7707 151.132 87.0206 151.238 85.4295C151.345 83.9446 151.345 82.4066 150.92 80.8686C150.123 78.1639 147.68 76.4137 145.132 75.5122C143.538 74.9288 141.786 74.6106 140.087 74.3984C139.874 74.3984 139.556 74.5045 139.556 74.7166C139.556 75.0879 139.715 75.3531 139.927 75.3531Z" fill="#1D4A5E"/>
<path d="M148.53 93.8088C147.999 94.4983 147.521 95.2407 146.937 95.9302C146.831 96.1423 146.937 96.4075 147.15 96.5136C147.362 96.6196 147.574 96.5136 147.734 96.3014C148.265 95.612 148.743 94.8695 149.327 94.1801C149.433 93.9679 149.327 93.7027 149.114 93.5967C148.955 93.5967 148.743 93.7028 148.53 93.8088Z" fill="#1D4A5E"/>
<path d="M133.873 98.848C135.095 100.28 137.007 100.969 138.812 100.651C139.025 100.651 139.237 100.333 139.131 100.174C139.025 99.9617 138.812 99.8556 138.6 99.8556C137.06 100.068 135.467 99.4313 134.564 98.2646C134.458 98.0524 134.033 98.0524 133.98 98.2646C133.767 98.4767 133.767 98.6358 133.873 98.848Z" fill="#1D4A5E"/>
<path d="M140.565 73.1792C142.901 73.9747 145.344 74.7172 147.627 75.5127C147.84 75.6188 148.158 75.4066 148.158 75.1945C148.265 74.9824 148.052 74.7172 147.84 74.7172C145.503 73.9217 143.061 73.1792 140.777 72.3837C140.565 72.2776 140.246 72.4897 140.246 72.7019C140.14 72.861 140.352 73.0731 140.565 73.1792Z" fill="#1D4A5E"/>
<path d="M96.9139 55.7305C95.3739 53.9273 94.6836 51.5938 94.896 49.2603C94.896 49.0482 94.6836 48.8361 94.4712 48.8361C92.878 48.8361 91.338 48.8361 89.6918 48.8361C89.798 49.0482 90.0105 49.2603 90.1167 49.3134C90.7008 47.2981 91.9222 45.4949 93.6746 44.169C94.2056 43.7448 94.5774 43.4796 95.2146 43.2675C95.7456 42.9493 95.3208 42.2598 94.7898 42.578C92.7718 43.6917 91.1256 45.2828 90.1167 47.2981C89.798 47.8814 89.5856 48.5179 89.4263 49.1012C89.2139 49.3134 89.4263 49.5785 89.7449 49.5785C91.3381 49.5785 92.8781 49.5785 94.5243 49.5785C94.4181 49.4725 94.2056 49.2603 94.0994 49.1543C93.887 51.1696 94.3118 53.1849 95.3208 54.882C95.6394 55.3593 95.9049 55.7835 96.3298 56.3139C96.5422 56.526 96.7546 56.526 96.9139 56.3139C97.1263 56.1548 97.0201 55.8366 96.9139 55.7305Z" fill="#1D4A5E"/>
<path d="M108.755 59.7609C111.092 58.9654 113.216 57.4274 114.809 55.5182C114.597 55.5182 114.384 55.5182 114.225 55.5182C114.809 56.2076 115.34 56.9501 115.765 57.8517C115.871 58.0638 116.084 58.0638 116.19 58.0638C116.402 58.0638 116.509 57.9578 116.615 57.7456C117.518 55.4121 117.942 52.9195 117.73 50.4799C117.73 50.2678 117.518 50.0557 117.305 50.0557C117.093 50.0557 116.88 50.2678 116.88 50.4799C117.093 52.9195 116.668 55.306 115.765 57.5335C116.084 57.5335 116.296 57.4274 116.562 57.4274C116.137 56.5258 115.553 55.7303 114.969 54.9348C114.862 54.7227 114.438 54.7227 114.384 54.9348C112.844 56.738 110.933 58.0638 108.702 58.8593C108.49 58.9654 108.278 59.1775 108.384 59.3366C108.278 59.7609 108.49 59.867 108.755 59.7609Z" fill="#1D4A5E"/>
<path d="M85.921 84.6346C89.3727 83.6269 92.8245 82.8314 96.2231 82.195C99.4624 81.7177 102.702 81.2934 105.941 81.7177C107.64 81.9298 109.393 82.4071 110.986 83.2026C111.198 83.3087 111.517 83.3087 111.57 82.9905C111.676 82.7784 111.676 82.5132 111.358 82.4071C108.437 80.9222 104.985 80.604 101.746 80.71C100.153 80.8161 98.4003 81.0282 96.8072 81.1873C95.0017 81.5055 93.2493 81.7707 91.55 82.195C89.532 82.6193 87.6203 83.2026 85.6555 83.786C85.0714 84.0512 85.39 84.8467 85.921 84.6346Z" fill="#1D4A5E"/>
<path d="M89.9577 86.4372C92.2943 85.6416 94.737 84.8992 97.1267 84.5279C99.5694 84.1037 101.959 83.9445 104.508 83.8385C105.942 83.8385 107.323 83.9445 108.65 84.0506C108.863 84.0506 109.075 83.8385 109.075 83.6263C109.075 83.4142 108.863 83.2021 108.65 83.2021C106.101 82.9899 103.712 82.9899 101.163 83.2021C98.6136 83.4142 96.2239 83.7854 93.7812 84.4219C92.4536 84.7401 91.0729 85.2174 89.7453 85.6416C89.5329 85.7477 89.3205 85.9598 89.4267 86.172C89.4267 86.4372 89.6391 86.5432 89.9577 86.4372Z" fill="#1D4A5E"/>
<path d="M106.95 69.9436C107.853 70.527 108.968 70.6331 109.977 70.9513C110.986 71.2695 111.995 71.6407 112.791 72.2771C113.322 72.5954 113.8 72.9666 114.225 73.3909C114.65 73.8151 115.234 73.1787 114.809 72.8075C114.013 72.012 113.11 71.3756 112.101 70.8983C111.57 70.6861 111.092 70.3679 110.561 70.3149C110.03 70.1027 109.552 69.9967 108.968 69.8906C108.384 69.7845 107.853 69.5724 107.375 69.3072C107.162 69.2012 106.844 69.3072 106.791 69.5194C106.631 69.5194 106.737 69.8376 106.95 69.9436Z" fill="#682F1B"/>
<path d="M107.428 66.9208C108.543 67.5041 109.871 67.4511 110.986 67.7163C112.101 68.0345 113.216 68.6179 114.225 69.2012C114.809 69.6255 115.34 69.9968 115.924 70.421C116.137 70.5271 116.455 70.421 116.509 70.2089C116.615 69.9968 116.509 69.7846 116.296 69.6255C115.287 68.9361 114.278 68.1936 113.269 67.6102C112.738 67.292 112.154 67.1329 111.57 66.9208C110.986 66.7086 110.349 66.6026 109.764 66.4965C109.18 66.3904 108.437 66.2844 107.853 66.0722C107.64 65.9662 107.322 65.9662 107.269 66.2844C107.269 66.4965 107.269 66.8147 107.428 66.9208Z" fill="#682F1B"/>
<path d="M116.137 69.148C115.553 71.1633 114.225 72.8604 113.322 74.7696C113.11 75.353 112.898 75.8834 112.738 76.4667C112.738 76.6789 112.844 76.9971 113.057 76.9971C113.269 77.1031 113.588 76.891 113.588 76.6789C114.013 74.5575 115.393 72.9665 116.296 71.0572C116.615 70.4739 116.827 69.9435 116.987 69.3602C117.146 68.8298 116.349 68.6177 116.137 69.148Z" fill="#682F1B"/>
<path d="M120.492 79.0125C119.908 80.3384 119.271 81.6112 118.687 82.9371C118.58 83.1492 118.58 83.4144 118.899 83.5204C119.111 83.6265 119.43 83.6265 119.483 83.3083C120.067 81.9825 120.704 80.7096 121.289 79.3838C121.395 79.1716 121.395 78.9065 121.076 78.8004C120.917 78.6943 120.598 78.8004 120.492 79.0125Z" fill="#682F1B"/>
<path d="M146.512 87.6569C146.512 88.9827 146.194 90.2025 145.716 91.3693C145.61 91.5814 145.61 91.8466 145.928 91.9527C146.141 92.0587 146.459 92.0587 146.512 91.7405C147.097 90.4147 147.415 89.0358 147.415 87.6039C147.309 87.1796 146.512 87.1796 146.512 87.6569Z" fill="#682F1B"/>
<path d="M119.377 45.0713C120.386 44.3819 121.501 43.7455 122.616 43.2682C122.829 43.1621 122.935 42.8439 122.829 42.6848C122.722 42.4727 122.404 42.4727 122.244 42.4727C121.129 42.95 120.014 43.5864 119.005 44.2758C118.793 44.3819 118.686 44.7001 118.793 44.8592C119.005 45.0713 119.217 45.1244 119.377 45.0713Z" fill="#682F1B"/>
<path d="M120.598 43.7446C120.492 44.2749 120.492 44.7522 120.386 45.2295C120.386 45.3356 120.492 45.4417 120.492 45.5477C120.598 45.6538 120.704 45.6538 120.811 45.6538C121.129 45.6538 121.235 45.4417 121.235 45.2295C121.342 44.7522 121.342 44.2219 121.448 43.7446C121.448 43.6385 121.342 43.5325 121.342 43.4264C121.235 43.3203 121.129 43.3203 121.023 43.3203C120.811 43.3203 120.704 43.5325 120.598 43.7446Z" fill="#682F1B"/>
<path d="M97.3384 30.0093C97.3384 31.1231 97.3384 32.2368 97.126 33.2444C97.126 33.4566 97.3384 33.6687 97.5508 33.6687C97.8694 33.6687 97.9756 33.4566 97.9756 33.2444C98.0818 32.1307 98.188 31.017 98.188 30.0093C98.1349 29.532 97.3384 29.532 97.3384 30.0093Z" fill="#682F1B"/>
<path d="M96.4363 31.8655C96.5425 31.9716 96.755 32.1837 96.8612 32.2898C96.9674 32.2898 96.9674 32.3959 97.0736 32.3959C97.1798 32.3959 97.286 32.5019 97.3922 32.5019C97.4984 32.5019 97.6046 32.5019 97.7108 32.5019C97.817 32.3959 97.9232 32.2898 97.9232 32.1837C97.9232 32.0777 97.9232 31.9716 97.9232 31.8655C97.817 31.7595 97.817 31.6534 97.6046 31.6534C97.4984 31.6534 97.4984 31.6534 97.3922 31.5473H97.4984C97.3922 31.4413 97.286 31.4413 97.1798 31.3352C97.1798 31.3352 97.286 31.3352 97.286 31.4413C97.1798 31.3352 97.0736 31.2291 97.0736 31.2291C96.9674 31.123 96.8612 31.123 96.755 31.123C96.6487 31.123 96.5425 31.123 96.4363 31.2291C96.3301 31.2291 96.2239 31.4413 96.3301 31.5473V31.6534C96.3301 31.7595 96.3301 31.7595 96.4363 31.8655Z" fill="#682F1B"/>
<path d="M111.092 36.6911C110.986 38.1761 110.774 39.8202 110.561 41.3051C110.455 41.7294 110.455 42.1006 110.349 42.4188C110.349 42.631 110.243 42.8431 110.243 43.0022C110.243 43.1083 110.136 43.2143 110.243 43.2143C110.243 43.1083 110.243 43.1083 110.349 43.1083C110.455 43.1083 110.455 43.0022 110.349 43.1083C110.243 43.0022 110.136 43.0022 109.924 43.0022C109.712 42.8961 109.605 42.8961 109.499 42.7901C109.181 42.5779 108.968 42.4719 108.703 42.3128C108.172 41.8885 107.694 41.4112 107.269 40.8278C107.163 40.6157 106.844 40.5096 106.685 40.6157C106.472 40.7217 106.366 41.0399 106.472 41.199C107.269 42.4188 108.384 43.4265 109.818 43.9038C110.03 44.0099 110.243 44.0099 110.402 44.0099C110.614 43.9038 110.827 43.7977 110.933 43.4795C111.039 43.2674 111.039 43.0552 111.039 43.0022C111.039 42.7901 111.145 42.5249 111.145 42.3128C111.358 41.4112 111.464 40.6157 111.57 39.7141C111.676 38.7064 111.783 37.6988 111.889 36.7972C111.889 36.5851 111.676 36.3729 111.464 36.3729C111.305 36.2669 111.092 36.479 111.092 36.6911Z" fill="#682F1B"/>
<path d="M104.933 41.7293C104.827 43.0551 105.942 44.1688 107.269 44.2219C107.482 44.2219 107.694 44.0097 107.694 43.7976C107.694 43.5855 107.482 43.3733 107.269 43.3733H107.163C107.269 43.3733 107.269 43.3733 107.163 43.3733C107.057 43.3733 107.057 43.3733 106.951 43.3733C106.845 43.3733 106.845 43.3733 106.738 43.2673C106.845 43.2673 106.632 43.2673 106.738 43.2673H106.632C106.526 43.2673 106.526 43.1612 106.42 43.1612C106.42 43.1612 106.313 43.1612 106.313 43.0551C106.207 42.949 106.101 42.843 105.995 42.843C105.995 42.843 105.995 42.843 105.889 42.7369C105.889 42.843 105.782 42.6308 105.889 42.7369L105.782 42.6308C105.782 42.6308 105.676 42.5248 105.676 42.4187V42.3126C105.676 42.4187 105.676 42.2066 105.676 42.3126C105.676 42.2066 105.57 42.1005 105.57 41.9944C105.57 42.1005 105.57 41.8884 105.57 41.9944V41.8884C105.57 41.7823 105.57 41.7823 105.57 41.6762C105.57 41.4641 105.358 41.252 105.145 41.252C105.145 41.305 104.933 41.4111 104.933 41.7293Z" fill="#682F1B"/>
<path d="M105.622 48.4655C105.729 48.5716 105.729 48.5716 105.729 48.6776C105.729 48.6776 105.729 48.6776 105.729 48.7837V48.8898C105.729 48.8898 105.729 48.8898 105.729 48.9959V49.1019C105.729 49.1019 105.729 49.1019 105.729 49.208C105.729 49.3141 105.729 49.3141 105.729 49.4201C105.729 49.5262 105.729 49.3141 105.729 49.4201C105.729 49.4201 105.729 49.4201 105.729 49.5262C105.729 49.5262 105.729 49.6323 105.622 49.6323C105.622 49.6323 105.622 49.6323 105.622 49.7383C105.622 49.7383 105.622 49.7383 105.516 49.7383C105.516 49.7383 105.516 49.7383 105.41 49.7383C105.41 49.7383 105.41 49.7383 105.304 49.7383C105.304 49.7383 105.304 49.7383 105.198 49.7383C105.198 49.7383 105.091 49.7383 104.985 49.7383C104.879 49.7383 104.773 49.8444 104.667 49.9505C104.56 50.0565 104.56 50.1626 104.667 50.2687C104.667 50.3747 104.773 50.4808 104.879 50.5869C104.985 50.6929 105.091 50.6929 105.198 50.5869C105.782 50.4808 106.207 50.1096 106.419 49.5792C106.631 49.0489 106.419 48.3594 105.994 47.9882C105.782 47.7761 105.463 47.7761 105.41 47.9882C105.41 48.0943 105.41 48.2534 105.622 48.4655Z" fill="#682F1B"/>
<path d="M116.668 38.8663C116.456 39.5557 115.872 40.086 115.235 39.98C114.704 39.7678 114.438 39.0784 114.65 38.389C114.863 37.6995 115.447 37.1692 116.084 37.3813C116.562 37.3283 116.881 38.0707 116.668 38.8663Z" fill="black"/>
<path d="M106.367 34.5173C106.154 35.2067 105.57 35.7371 104.933 35.5249C104.402 35.3128 104.136 34.6234 104.349 33.9339C104.561 33.2445 105.145 32.7141 105.783 32.8202C106.367 33.0323 106.685 33.8278 106.367 34.5173Z" fill="black"/>
<path d="M121.395 40.5096C120.97 40.0323 120.28 40.6157 120.067 41.199C119.855 41.7824 119.271 42.5249 118.74 42.1006C118.633 41.9945 118.527 41.7824 118.421 41.6763C117.996 40.5626 118.952 39.1837 120.12 39.1837C119.908 38.4943 119.589 37.6988 119.695 36.8502C119.695 36.0547 120.12 35.2592 120.917 34.941C121.235 34.8349 121.713 34.7289 121.926 34.5167C122.244 34.1985 122.244 33.7212 122.351 33.1909C122.457 31.9711 123.041 30.7513 124.05 30.0619C122.244 29.9558 119.908 29.6376 119.377 27.8344C119.271 28.4178 118.474 28.736 117.837 28.6299C115.819 28.6299 113.801 27.9405 112.049 26.8268C111.04 27.4101 109.924 27.0389 109.34 26.4025C108.756 25.8191 108.331 24.8115 108.013 23.9099C106.791 24.5993 104.88 23.9099 104.561 22.478C103.764 24.5993 102.862 26.8268 102.012 28.9481C101.8 29.3724 101.587 29.8497 101.109 30.0619C100.578 30.1679 100.1 29.8497 99.9941 29.3724C99.7817 28.8951 99.8879 28.3648 99.8879 27.9405C99.1975 28.0466 98.3479 28.0466 97.6575 28.1526C97.4451 28.1526 97.1265 28.1526 96.9672 28.0466C96.6486 27.8344 96.861 27.3571 97.1796 27.145C97.4982 26.9328 97.8699 26.9328 98.2948 27.0389C98.0824 25.9252 97.9761 24.7054 98.6134 23.6978C99.1975 22.6901 100.525 22.1067 101.534 22.584C101.322 21.1521 102.437 19.7732 103.871 19.6672C103.286 18.1822 104.083 16.2199 105.57 15.7426C106.101 15.4244 106.579 15.3184 107.163 15.3184C108.491 15.3184 109.818 15.4244 110.827 16.2199C111.252 16.5381 111.518 17.0155 112.049 17.1215C112.367 17.2276 112.739 17.2276 113.058 17.3337C113.96 17.5458 114.757 18.0231 115.288 18.8186C115.394 19.0308 115.5 19.349 115.713 19.402C116.031 19.6141 116.297 19.5081 116.615 19.402C118.049 19.0838 119.536 19.7202 120.386 20.8339C120.917 20.0384 122.191 20.1445 123.041 20.7278C123.838 21.3112 124.262 22.3189 124.953 23.0613C125.271 23.3796 125.643 24.069 125.271 24.2811C126.386 24.2811 126.971 25.7131 127.183 26.7737C127.289 27.198 127.395 27.5693 127.395 28.0996C127.395 29.0012 126.971 30.0088 126.386 30.6983C126.971 30.6983 127.183 31.5998 126.971 32.1832C126.546 33.6151 125.962 34.888 124.953 36.1078C124.528 36.6381 124.05 37.1154 123.731 37.6988C123.413 38.3882 123.413 39.1837 123.041 39.9262C122.616 40.5096 121.448 40.8278 121.235 40.1383L121.395 40.5096Z" fill="black"/>
<path d="M97.6569 27.6228C97.1259 27.6228 96.7542 27.941 96.3294 28.2062C96.1169 28.4183 96.0107 28.5244 96.0107 28.7896C96.0107 29.2139 96.5418 29.479 96.9135 29.479C97.3383 29.479 97.6038 29.1608 98.0287 28.8957C98.4535 29.2139 98.9314 29.3199 99.4625 29.1078C99.1438 29.9033 99.6749 31.017 100.578 31.2292C100.153 31.3352 99.8873 31.9186 100.047 32.2368C100.259 32.6611 100.843 32.7671 101.268 32.4489C101.693 32.1307 101.693 31.6534 101.48 31.2292C102.065 31.5474 102.702 30.8049 102.702 30.2215C102.808 29.6381 102.596 28.8956 102.808 28.3123C102.702 28.5244 103.127 28.7365 103.339 28.6305C103.445 28.5244 103.445 28.2062 103.445 28.0471C103.445 27.7289 103.339 27.4637 103.339 27.1455C103.339 27.0395 103.339 26.9334 103.339 26.9334C103.339 26.7212 103.658 26.6152 103.87 26.6152C104.295 26.403 104.454 26.0318 104.454 25.5015C104.454 25.0772 104.348 24.706 104.136 24.2817C104.667 24.2817 105.038 23.7513 104.826 23.274C104.613 22.7967 104.136 22.4785 103.605 22.4785C103.074 22.4785 102.702 22.7967 102.383 23.168C101.958 23.6453 101.693 24.3877 101.799 25.0772L97.6569 27.6228Z" fill="black"/>
<path d="M123.837 29.4259C123.837 29.2138 123.519 29.1077 123.306 29.1077C122.775 29.1077 122.191 29.3199 121.873 29.585C121.554 30.0093 121.448 30.5927 121.873 31.017C122.085 31.2291 122.457 31.4412 122.404 31.7064C122.404 31.8125 122.297 31.9185 122.191 31.9185C121.395 32.5019 121.076 33.6156 121.501 34.5172C120.81 34.7293 120.067 35.1006 120.067 35.8431C119.961 36.3734 120.279 36.7446 120.492 37.275C120.598 37.4871 120.704 37.6993 120.917 37.6993C121.023 37.6993 121.235 37.6993 121.341 37.5932C121.926 37.275 122.244 36.6916 122.563 36.1082C123.147 34.9945 123.784 33.8808 124.368 32.661C124.953 31.5473 125.59 30.2214 125.165 29.0547L123.837 29.4259Z" fill="black"/>
<path d="M112.898 26.0851C112.686 25.5548 112.102 25.3957 111.465 25.5017C110.88 25.6078 110.456 26.1912 110.243 26.8276C109.925 27.517 109.818 28.3125 109.925 29.1611C110.031 29.7445 110.456 30.3809 111.04 30.646C111.571 30.8582 112.261 30.8582 112.633 30.4339C113.058 30.0096 113.217 29.2141 112.633 28.8959C112.314 28.6838 112.049 28.7898 111.73 28.8959C111.411 29.002 111.146 29.108 110.934 29.3202C110.403 29.7445 110.137 30.2218 110.031 30.8051C109.818 32.2371 111.146 33.5099 112.58 33.4038C112.898 33.4038 112.898 32.9795 112.58 32.9795C111.677 33.0856 110.668 32.3962 110.456 31.4946C110.243 30.593 110.88 29.5854 111.783 29.2671C111.996 29.1611 112.314 29.055 112.474 29.2671C112.686 29.3732 112.58 29.6914 112.474 29.8505C112.261 30.2748 111.783 30.4339 111.358 30.3809C110.827 30.2748 110.562 29.8505 110.349 29.4793C110.137 28.8959 110.137 28.2595 110.349 27.6761C110.456 27.1988 110.668 26.4563 111.146 26.1912C111.465 25.979 112.049 25.979 112.261 26.4033C112.58 26.5094 113.005 26.4033 112.898 26.0851Z" fill="black"/>
<path d="M109.286 31.2288C109.499 31.653 109.074 32.1304 108.702 32.3425C108.277 32.5546 107.8 32.4486 107.269 32.4486C106.844 32.3425 106.472 32.3425 106.047 32.3425C105.463 32.3425 104.72 32.3425 104.135 32.4486C103.923 32.4486 103.711 32.5546 103.551 32.4486C103.392 32.3425 103.339 32.0243 103.339 31.8652C103.445 31.653 103.657 31.4409 103.87 31.3348C105.41 30.3272 107.534 30.3272 108.915 31.3348L109.286 31.2288Z" fill="black"/>
<path d="M115.394 32.8203C114.969 33.0324 114.809 33.6158 114.969 34.0401C115.181 34.4644 115.5 34.8356 115.872 35.1538C116.19 35.472 116.456 35.6311 116.774 35.9493C117.199 36.3736 117.571 36.8509 117.889 37.4343C117.996 37.6464 118.102 37.7525 118.314 37.8586C118.527 37.9646 118.845 37.7525 118.898 37.5404C119.005 37.3282 119.005 37.063 119.005 36.8509C118.792 35.0477 117.412 33.4037 115.659 33.0324L115.394 32.8203Z" fill="black"/>
<path d="M31.6495 31.335C30.9592 31.6532 30.7467 32.6078 31.0123 33.3503C31.2778 34.0397 31.915 34.6231 32.4992 35.1004C31.0654 35.7368 30.6405 37.9112 31.5964 39.0779C30.906 39.5553 30.4812 40.4568 30.6936 41.3054C30.906 42.1539 31.6495 42.7903 32.4992 42.8434C32.0212 43.5328 31.9681 44.5405 32.446 45.2299C32.924 45.9194 33.8267 46.3436 34.6764 46.1845C34.6764 46.874 35.3136 47.5634 35.9509 47.6164C36.6412 47.6695 37.3847 47.2452 37.5971 46.5027C38.2343 47.0331 39.3495 46.4497 39.5619 45.5481C39.7743 44.6996 39.2964 43.851 38.7123 43.2146C39.2433 43.4798 39.8805 42.9494 39.9867 42.3661C40.0929 41.7827 39.7743 41.1993 39.4557 40.669C39.084 40.0856 38.606 39.5553 38.075 39.0249C38.3405 39.3962 38.9247 39.2901 39.1902 38.9719C39.4557 38.6006 39.4026 38.1233 39.2964 37.6991C38.9247 36.2671 37.5971 35.1004 36.1633 34.8352L31.6495 31.335Z" fill="#C23F37"/>
<path d="M83.9033 111.947H62.3964C62.3433 111.947 62.2902 111.947 62.2371 111.947H16.8867C17.7364 109.508 18.6922 107.068 19.8074 104.788C20.6571 103.038 21.5598 101.394 22.6219 99.7495L29.7378 98.6888L33.2426 98.1584L36.2695 97.7342L38.606 97.3629L50.6605 95.5598L54.2184 95.0294L55.6522 94.8173L63.1929 93.7036L70.8398 92.5898C71.3177 92.802 71.7957 93.0141 72.2736 93.2793C75.3536 94.8173 77.9557 97.0977 79.9205 99.8555C80.664 100.863 81.2481 101.924 81.7791 103.038C82.2571 104.045 82.5757 105.053 82.8943 106.114C83.0536 106.644 83.1598 107.121 83.266 107.652C83.5315 108.871 83.744 110.144 83.9033 111.417C83.9033 111.629 83.9033 111.788 83.9033 111.947Z" fill="#C23F37"/>
<path d="M91.9756 83.0964C91.9756 83.2555 91.9756 83.3615 91.9225 83.4676C91.7632 83.998 91.657 84.5813 91.4977 85.1117C91.3915 85.4299 91.2853 85.7481 91.2322 86.0663C90.6481 87.8164 89.7984 89.4074 88.3115 90.4151C87.8336 90.7333 87.037 90.5742 86.1343 90.1499C85.1784 89.7256 84.1163 88.9832 83.0012 88.2407C81.5674 87.233 80.1336 86.1724 78.9122 85.4829C78.1687 85.0586 77.5315 84.7404 77.0536 84.7404C77.2129 85.4299 77.4253 86.2254 77.7439 87.127C78.5405 89.5135 79.8149 92.5365 81.0894 95.5064C81.5143 96.514 81.9391 97.5217 82.3639 98.4763C83.4791 101.075 84.488 103.408 85.0722 104.946C84.3287 105.371 83.5853 105.742 82.895 106.166C82.1515 106.537 81.4612 106.962 80.7177 107.333C79.9743 107.757 79.2308 108.129 78.4874 108.553C78.2218 108.712 77.9032 108.871 77.5846 109.03C77.0005 109.348 76.3632 109.72 75.7791 110.038C75.6729 110.091 75.6198 110.144 75.5136 110.197C75.0356 110.462 74.5577 110.674 74.1329 110.939C73.3363 111.364 72.5398 111.735 71.6901 111.947C71.5839 112 71.4777 112 71.3715 112.053H62.397C62.3439 112.053 62.2908 112.053 62.2377 112.053H34.6239C31.2784 111.523 28.0922 110.462 25.3308 108.5C23.5253 107.227 21.826 105.53 19.808 104.84C19.3832 104.681 18.9053 104.575 18.4274 104.522C17.9494 101.87 17.8963 99.0597 18.3212 96.3549C18.4805 95.3473 18.6929 94.2866 19.0115 93.2789C19.0646 93.1198 19.1177 92.9607 19.1708 92.8016C19.808 90.9454 20.6046 89.0362 20.6046 87.0739C20.6046 86.7557 20.6046 86.4375 20.5515 86.1193C20.4453 85.2708 20.286 84.4753 20.2329 83.6797C20.1798 82.9373 20.2329 82.1948 20.3391 81.5054C20.3391 81.3462 20.3922 81.1871 20.4453 81.028C20.9232 79.1718 21.9853 77.4748 23.5253 76.308C21.3481 76.1489 19.3301 75.3534 17.4184 74.3457C16.3032 73.7624 15.188 73.126 14.126 72.4365C11.6301 70.9516 9.13426 69.5196 6.42598 68.9893C5.94805 68.8832 5.47012 68.8302 4.99219 68.7771C6.85081 65.489 8.81564 62.2539 11.0991 59.231C11.7894 58.3294 12.4798 57.4809 13.2232 56.6854C13.8074 56.049 14.3915 55.4125 15.0287 54.8292C17.3122 52.6548 19.9674 50.7986 22.9412 49.6318C23.7377 49.3136 24.5343 49.0484 25.3839 48.8363C26.9239 48.4651 28.7294 48.2529 30.5349 48.2529C32.606 48.2529 34.7301 48.412 36.6418 48.7302C37.2791 48.8363 37.9163 48.9424 38.5005 49.1015L47.2625 50.5864C49.1743 51.1698 51.086 51.541 53.0508 51.7532H53.1039C54.0598 51.8593 55.0156 51.9123 55.9715 51.9123C57.1398 51.9653 58.3612 51.9123 59.5294 51.8062C60.1667 51.7532 60.8039 51.6471 61.4411 51.5941C62.2377 51.488 63.0343 51.3819 63.8308 51.2228C64.9991 51.0107 66.2205 50.8516 67.3887 50.6925C68.3446 50.5864 69.3536 50.4804 70.3094 50.4804C70.628 50.4804 70.9467 50.4804 71.2653 50.4804C71.4777 50.4804 71.637 50.4804 71.8494 50.5334C71.9025 50.5334 71.9025 50.5334 71.9556 50.5334C72.1149 50.5334 72.3274 50.5334 72.4867 50.5864C73.7612 50.6925 74.9825 50.9577 76.1508 51.3819C76.3632 51.488 76.5756 51.541 76.8412 51.6471C76.8943 51.6471 76.8943 51.6471 76.9474 51.7002C78.2218 52.2305 79.337 53.026 80.2929 54.0337C83.5853 57.5869 90.9667 76.6792 91.9756 82.1418C91.9225 82.513 91.9756 82.8312 91.9756 83.0964Z" fill="#F59F18"/>
<path d="M37.3851 73.1787L42.1114 71.7998L40.7307 76.5198L42.1114 81.2399L37.3851 79.861L32.5527 81.2399L33.9865 76.5198L32.5527 71.7998L37.3851 73.1787Z" fill="#F2C794"/>
<path d="M66.7506 78.5889L71.583 77.21L70.1492 81.93L71.583 86.65L66.7506 85.2712L62.0244 86.65L63.4051 81.93L62.0244 77.21L66.7506 78.5889Z" fill="#F2C794"/>
<path d="M55.7588 68.6709L58.1485 67.9814L57.4581 70.368L58.1485 72.7545L55.7588 72.0651L53.3691 72.7545L54.0595 70.368L53.3691 67.9814L55.7588 68.6709Z" fill="#F2C794"/>
<path d="M84.5938 74.0273L86.9834 73.3379L86.2931 75.7244L86.9834 78.111L84.5938 77.4215L82.2041 78.111L82.8944 75.7244L82.2041 73.3379L84.5938 74.0273Z" fill="#F2C794"/>
<path d="M33.986 98.3701L38.7122 96.9912L37.3315 101.711L38.7122 106.537L33.986 105.105L29.2598 106.537L30.6405 101.711L29.2598 96.9912L33.986 98.3701Z" fill="#F2C794"/>
<path d="M19.5424 86.4378L24.2686 85.0059L22.8879 89.7259L24.2686 94.552L19.5424 93.1201L14.71 94.552L16.1438 89.7259L14.71 85.0059L19.5424 86.4378Z" fill="#F2C794"/>
<path d="M63.3522 103.779L68.1846 102.4L66.7508 107.12L68.1846 111.947L63.3522 110.515L58.626 111.947L60.0598 107.12L58.626 102.4L63.3522 103.779Z" fill="#F2C794"/>
<path d="M52.3604 93.8096L54.75 93.1201L54.0597 95.5067L54.75 97.8932L52.3604 97.2037L49.9707 97.8932L50.661 95.5067L49.9707 93.1201L52.3604 93.8096Z" fill="#F2C794"/>
<path d="M82.2575 88.4524L86.9837 87.0205L85.603 91.8466L86.9837 96.5667L82.2575 95.1347L77.5312 96.5667L78.9119 91.8466L77.5312 87.0205L82.2575 88.4524Z" fill="#F2C794"/>
<path d="M17.9489 67.3987L22.6751 65.9668L21.2944 70.7929L22.6751 75.5129L17.9489 74.1341L13.2227 75.5129L14.6033 70.7929L13.2227 65.9668L17.9489 67.3987Z" fill="#F2C794"/>
<path d="M33.6149 61.2461L36.0045 60.5566L35.3142 62.9432L36.0045 65.2767L33.6149 64.6403L31.2783 65.2767L31.9156 62.9432L31.2783 60.5566L33.6149 61.2461Z" fill="#F2C794"/>
<path d="M47.0494 54.1924L51.8819 52.8135L50.4481 57.5335L51.8819 62.3596L47.0494 60.9277L42.3232 62.3596L43.7039 57.5335L42.3232 52.8135L47.0494 54.1924Z" fill="#F2C794"/>
<path d="M76.4691 59.5488L81.1953 58.1699L79.8147 62.89L81.1953 67.7161L76.4691 66.2842L71.6367 67.7161L73.0705 62.89L71.6367 58.1699L76.4691 59.5488Z" fill="#F2C794"/>
<path d="M55.0153 24.4932C56.5022 29.7966 57.8829 37.4335 58.467 42.9491C58.5732 44.487 58.7326 46.1311 58.3608 47.6691C57.9891 49.2071 56.9801 50.639 55.4932 51.2224C56.3429 52.0709 55.9712 53.6089 55.0153 54.3514C54.1126 55.1469 52.785 55.253 51.6167 55.4121C46.9436 55.8894 41.6864 56.2076 38.1815 53.0786C37.4912 52.4422 36.8008 51.6467 36.5353 50.692C36.0574 48.8358 37.2257 46.9266 37.0664 45.0704C35.6326 45.3886 33.9332 45.1765 32.8181 44.2749C31.6498 43.3733 31.1188 41.6232 31.756 40.2443C32.3932 38.8654 34.3581 38.282 35.5264 39.1836C34.8891 35.6303 34.6767 31.971 34.9422 28.4177L55.0153 24.4932Z" fill="#F6A472"/>
<path d="M72.2202 53.8212C71.583 52.5483 71.1051 51.1164 71.1582 49.6845C71.2113 48.5177 71.6361 47.351 71.4768 46.2373C71.2644 44.6463 70.0961 43.2674 70.1492 41.7294C70.2023 41.199 70.4147 40.6687 70.8396 40.4035C71.3175 40.1383 71.9547 40.4566 72.3265 40.8278C72.6451 41.199 72.9106 41.7824 73.123 42.2597C73.7602 43.6386 74.7692 44.8054 75.9906 45.6539C76.6809 46.0782 77.4244 46.4494 77.7961 47.1389C78.4865 48.1995 78.1147 49.5784 77.4775 50.6391C76.3623 52.4423 74.2913 53.8212 72.1671 53.609L72.2202 53.8212Z" fill="#AA6844"/>
<path d="M91.1788 91.4224C91.285 90.9451 91.6567 90.5738 92.0284 90.3617C95.2678 88.8768 97.3388 85.2174 97.4981 81.6111C97.7105 77.7926 96.0112 74.0272 93.7809 70.8451C91.5505 67.6631 88.7891 64.9583 86.2933 61.9354C83.8505 59.0185 81.4609 55.7304 80.5581 51.965C79.974 49.6315 79.9209 47.1389 79.974 44.7523C79.974 44.1689 79.974 43.5325 79.7084 42.9492C79.4429 42.3658 78.8588 41.9945 78.2216 42.1006C79.8678 39.3959 81.4609 36.6381 83.1071 33.9864C83.2133 33.7212 83.4257 33.456 83.2133 33.1378C83.1071 32.8727 82.8415 32.7666 82.5229 32.7666C81.9919 32.7666 81.6202 33.0848 81.3016 33.403C79.2836 35.2592 77.5843 37.4866 76.416 40.0323C74.0264 39.2368 71.2119 39.5019 69.0878 40.8278C68.8222 41.0399 68.716 41.3581 68.7691 41.6233C68.8753 42.1006 69.3533 42.1006 69.725 41.9945C70.5747 41.9415 71.4243 41.8885 72.1678 41.7824C71.3712 42.0476 70.6278 42.4719 69.8843 43.0022C69.8312 43.9038 71.1057 44.1159 72.0084 43.9568C73.4422 43.7447 74.9291 43.5856 76.3629 43.3204L72.805 44.3811C72.5395 44.4341 72.3271 44.6993 72.3271 45.0175C72.3802 45.3357 72.6457 45.3887 72.9112 45.4948C73.7609 45.6009 74.6636 45.813 75.5133 45.9721C73.814 47.1389 72.0616 48.5708 71.7429 50.5861C71.4774 52.071 72.1147 53.556 72.6457 55.041C75.7257 63.4203 75.5664 72.4892 77.5312 81.1338C78.1153 83.6794 78.9119 86.172 80.4519 88.2934C81.9388 90.3087 84.2753 91.8467 86.7712 91.8467C86.8774 91.8467 87.0898 91.8997 87.2491 91.8997L88.9484 92.4831C89.3202 92.5891 89.7981 92.5891 90.1698 92.43C90.754 92.2709 91.0195 91.8997 91.1788 91.4224Z" fill="#F6A472"/>
<path d="M6.42573 68.5652C11.4706 68.247 18.9581 73.2852 23.525 75.5657C24.0561 75.8309 22.3568 78.6947 21.6664 81.3994C24.6402 82.5662 29.6319 84.3163 32.6588 85.4831C33.5616 85.8013 34.4643 86.1725 35.3671 86.2786C37.5975 86.3847 39.5092 85.0588 41.7395 84.7936C42.3768 84.7406 43.1202 84.7406 43.545 85.1649C44.1823 85.8013 43.8637 86.968 43.1733 87.5514C42.483 88.1348 41.5271 88.2409 40.6244 88.4C44.3416 89.8849 45.8285 92.2184 51.4575 93.6503C46.4126 96.5142 40.0933 95.0292 34.2519 95.3474C31.2781 95.4535 28.3575 96.1429 25.4368 96.4081C20.0202 96.8854 14.4975 96.0899 9.45262 94.1807C6.63814 93.12 3.92987 91.7941 1.3809 90.0971C1.00918 89.8319 0.690556 89.5667 0.425039 89.2485C-0.159099 88.453 0.0533149 87.3923 0.212625 86.3847C1.434 80.5509 3.50504 74.8762 6.26642 69.6259L6.42573 68.5652Z" fill="#F6A472"/>
<path d="M72.4334 44.6468C73.8672 44.1695 75.3541 43.8513 76.841 43.7452C76.9472 43.7452 77.1065 43.6391 77.1065 43.48C77.1065 43.3739 77.0003 43.2148 76.841 43.2148C75.301 43.3209 73.7079 43.6921 72.221 44.1164C72.1148 44.1695 71.9555 44.3286 72.0086 44.4346C72.1679 44.5937 72.3272 44.6468 72.4334 44.6468Z" fill="#682F1B"/>
<path d="M71.212 42.3128C72.752 41.9415 74.3451 41.6764 75.8851 41.4112C75.9913 41.4112 76.1506 41.1991 76.0975 41.093C76.0444 40.9869 75.8851 40.8809 75.7789 40.8809C74.2389 41.146 72.6458 41.4642 71.1058 41.7824C70.9996 41.8355 70.8403 41.9946 70.8934 42.1006C70.8934 42.3128 70.9996 42.3658 71.212 42.3128Z" fill="#682F1B"/>
<path d="M75.3003 45.8138C73.9196 46.8745 72.4327 48.0413 72.0079 49.7914C71.9017 50.2687 71.9017 50.746 71.9548 51.2763C71.9548 51.3824 72.1672 51.5415 72.2734 51.4885C72.3796 51.4355 72.4858 51.2764 72.4858 51.1703C72.2203 49.5262 73.3355 48.2004 74.5038 47.1927C74.8224 46.8745 75.1941 46.6093 75.6189 46.3442C75.7251 46.2911 75.8314 46.079 75.7252 45.9729C75.5658 45.8138 75.4596 45.7608 75.3003 45.8138Z" fill="#682F1B"/>
<path d="M76.4691 57.6397C77.0532 57.2685 77.7435 56.9503 78.487 56.7381C78.5932 56.6851 78.7525 56.526 78.6994 56.4199C78.6463 56.3139 78.487 56.1548 78.3808 56.2078C77.5842 56.4199 76.8939 56.7381 76.2566 57.1624C76.1504 57.2154 76.0442 57.4276 76.1504 57.5337C76.2035 57.6397 76.3629 57.6928 76.4691 57.6397Z" fill="#682F1B"/>
<path d="M39.0314 87.7103C40.1996 88.3997 41.3148 89.0892 42.4831 89.7786C43.7576 90.5741 45.1382 91.2636 46.4658 92.006C47.1031 92.3243 47.8465 92.6425 48.5369 92.9607C48.6431 93.0137 48.8555 92.9076 48.8555 92.7485C48.9086 92.6425 48.8024 92.4834 48.6431 92.4303C48.6962 92.4303 48.59 92.4303 48.59 92.4303C48.5369 92.4303 48.5369 92.4303 48.4838 92.3773C48.4307 92.3773 48.3776 92.3243 48.2714 92.3243C48.1651 92.2712 48.0058 92.2182 47.7934 92.1121C47.4748 92.0061 47.1562 91.7939 46.8907 91.6348C46.2534 91.3166 45.6162 90.9984 44.9258 90.5741C43.6514 89.8847 42.3238 89.0892 41.0493 88.3467C40.4651 88.0285 39.881 87.6572 39.2438 87.233C38.9782 87.0208 38.7127 87.5512 39.0314 87.7103Z" fill="#682F1B"/>
<path d="M41.7395 93.1198C43.5981 94.1805 45.7754 94.7638 47.8995 94.6578C48.4836 94.6578 49.1209 94.6047 49.705 94.4456C49.8112 94.4456 49.9705 94.2335 49.9174 94.1274C49.8643 94.0214 49.705 93.9153 49.5988 93.9153C47.5809 94.2335 45.5099 94.0214 43.5981 93.2789C43.0671 93.0668 42.5361 92.8016 42.0581 92.5894C41.6333 92.4834 41.3678 92.9607 41.7395 93.1198Z" fill="#682F1B"/>
<path d="M80.3455 110.515C80.1331 110.727 79.9738 110.833 79.7614 111.045C79.3365 111.417 78.9117 111.682 78.4869 112H77.4248C78.2745 111.523 79.1241 110.939 79.8145 110.303C79.8676 110.25 79.9207 110.25 79.9738 110.197C80.2393 109.879 80.611 110.25 80.3455 110.515Z" fill="#7E2322"/>
<path d="M27.5611 111.947H26.4459C25.1183 111.257 23.7908 110.515 22.4632 109.772C22.1445 109.666 22.4101 109.136 22.7287 109.295C23.8439 109.932 24.8528 110.515 25.968 111.098C26.499 111.417 27.0301 111.682 27.5611 111.947Z" fill="#7E2322"/>
<path d="M33.933 50.0033C33.8799 51.8595 34.7296 53.7157 35.9509 55.0415C37.3316 56.5265 39.1372 57.5872 41.102 58.1175C43.2261 58.7539 45.5096 58.913 47.7399 58.913C49.9703 58.9661 52.2006 58.913 54.2185 57.8524C55.9178 57.0038 57.2985 55.3067 57.4047 53.4505C57.4047 53.2384 57.4047 52.9732 57.4047 52.8141C57.4047 52.708 57.2985 52.5489 57.1392 52.5489C57.033 52.5489 56.8206 52.655 56.8737 52.8141C57.0861 54.5642 55.9709 56.2613 54.4841 57.1629C52.7316 58.2766 50.5013 58.3827 48.4303 58.3827C46.3061 58.3827 44.1289 58.3297 42.0578 57.7993C40.1992 57.322 38.3406 56.5795 36.9068 55.2007C35.6854 53.9809 34.6765 52.3368 34.5703 50.6397C34.5703 50.4276 34.5703 50.1624 34.5703 50.0033C34.5172 49.6851 33.933 49.6851 33.933 50.0033Z" fill="#A46416"/>
<path d="M23.8433 75.6713C24.5336 73.0726 25.2771 70.4739 25.9674 67.8222C26.6578 65.3296 27.3481 62.837 28.0916 60.3444C28.5695 58.9655 29.0474 57.6927 29.6316 56.3668C29.6847 56.2608 29.6847 56.0486 29.5254 55.9956C29.4192 55.9426 29.2067 55.9426 29.1536 56.1017C28.0385 58.4352 27.295 60.8217 26.5516 63.3143C25.8612 65.913 25.1178 68.4586 24.4274 71.0573C24.0557 72.5422 23.6309 73.9742 23.2061 75.4591C23.2592 75.8304 23.7902 75.9895 23.8433 75.6713Z" fill="#A46416"/>
<path d="M27.2951 56.8971C27.5075 57.7456 27.6137 58.5942 27.8261 59.3367C27.8261 59.4427 28.0385 59.6018 28.1447 59.5488C28.2509 59.4958 28.3571 59.3367 28.3571 59.2306C28.1447 58.3821 28.0385 57.5335 27.8261 56.791C27.8261 56.685 27.6137 56.5259 27.5075 56.5789C27.3482 56.5789 27.242 56.685 27.2951 56.8971Z" fill="#A46416"/>
<path d="M24.4806 71.853C22.4626 70.1559 20.1261 68.9892 17.7364 67.8755C15.7716 67.0269 13.7537 66.1784 11.7357 65.3298C11.2578 65.1177 10.8861 64.9586 10.4613 64.7995C10.1957 64.7464 9.98333 64.5873 9.77091 64.5343C9.6647 64.4813 9.45229 64.5873 9.45229 64.7464C9.39919 64.8525 9.50539 65.0646 9.6647 65.0646C10.1957 65.2768 10.7799 65.542 11.3109 65.7011C11.5233 65.7541 11.6826 65.8071 11.895 65.9662C12.1606 66.0723 12.373 66.1784 12.5854 66.2844C13.0633 66.4966 13.5413 66.6557 14.0192 66.9208C16.1433 67.8224 18.3737 68.724 20.4978 69.8377C21.7723 70.4741 22.9406 71.2696 24.0557 72.2243C24.1619 72.3303 24.3213 72.3303 24.4275 72.2243C24.6399 72.0652 24.6399 71.9061 24.4806 71.853Z" fill="#A46416"/>
<path d="M23.8433 102.931C25.9675 105.901 28.9944 108.181 32.3399 109.613C34.0392 110.303 35.8447 110.78 37.6502 111.045C39.8806 111.31 42.0578 111.098 44.2351 110.992C46.5185 110.78 48.8019 110.674 51.0323 110.886C53.3157 110.992 55.493 111.363 57.7764 111.575C62.0247 112.053 66.273 112.265 70.362 110.939C73.8668 109.772 77.053 107.651 79.4426 104.84C79.7613 104.522 80.0268 104.151 80.2923 103.779C80.5047 103.514 80.0268 103.196 79.8144 103.514C77.584 106.431 74.6102 108.712 71.2116 109.984C69.4592 110.674 67.5475 111.098 65.6888 111.257C63.4585 111.469 61.3344 111.31 59.104 111.151C56.8737 110.939 54.7495 110.621 52.5192 110.462C50.2888 110.25 48.1116 110.197 45.8813 110.356C43.5978 110.462 41.4206 110.833 39.1371 110.727C37.3316 110.674 35.473 110.356 33.7206 109.772C30.2688 108.659 27.242 106.59 24.9054 103.779C24.6399 103.461 24.3213 103.09 24.0557 102.719C24.1088 102.348 23.5778 102.666 23.8433 102.931Z" fill="#A46416"/>
<path d="M53.4755 98.7413C56.0245 98.6883 58.5204 98.5291 60.9631 97.8397C61.5473 97.6276 62.1845 97.4685 62.7687 97.2033C63.3528 96.9381 63.8838 96.6199 64.4149 96.3548C64.9459 96.0896 65.53 95.8774 66.1142 95.8774C66.7514 95.8774 67.4949 95.9835 68.1321 95.9835C69.619 95.9835 70.9997 95.3471 72.2742 94.7107C72.3804 94.6577 72.4866 94.4455 72.3804 94.3395C72.3273 94.2334 72.1149 94.1273 72.0087 94.2334C70.8935 94.7637 69.7252 95.3471 68.5038 95.4532C67.8666 95.5062 67.2293 95.4001 66.539 95.3471C65.9018 95.2941 65.2645 95.4001 64.6804 95.6653C64.0962 95.8774 63.5652 96.1957 63.0342 96.4608C62.5031 96.726 61.919 96.9912 61.3349 97.1503C60.1666 97.5215 58.9452 97.7867 57.6707 97.9458C56.29 98.0518 54.8562 98.1579 53.4224 98.211C53.1569 98.264 53.1569 98.7413 53.4755 98.7413Z" fill="#A46416"/>
<path d="M44.2881 67.3453C44.3943 68.0348 44.5005 68.7242 44.6067 69.4137C44.6067 69.5197 44.8191 69.6788 44.9253 69.6258C45.0315 69.5728 45.1377 69.4137 45.1377 69.3076C45.0315 68.6182 44.9253 67.9287 44.8191 67.2393C44.8191 67.1332 44.6067 66.9741 44.5005 67.0271C44.3943 67.0802 44.2881 67.2393 44.2881 67.3453Z" fill="#A46416"/>
<path d="M46.4652 67.0269C46.4652 67.3981 46.4121 67.8754 46.4121 68.2467C46.4121 68.3527 46.5183 68.5118 46.6776 68.5118C46.7838 68.5118 46.9431 68.4058 46.9431 68.2467C46.9431 67.8754 46.9962 67.3981 46.9962 67.0269C46.9962 66.9208 46.89 66.7617 46.7307 66.7617C46.5714 66.7617 46.4652 66.9208 46.4652 67.0269Z" fill="#A46416"/>
<path d="M50.0239 63.2088C50.077 63.2618 50.077 63.4209 50.077 63.527C50.077 63.58 50.077 63.6331 50.077 63.6331V63.6861C50.077 63.7922 50.077 63.8982 50.077 64.0043C50.077 64.0573 50.077 64.1104 50.077 64.1104C50.077 64.1634 50.077 64.0573 50.077 64.1104V64.1634C50.077 64.2695 50.1301 64.4816 50.2894 64.4816C50.3956 64.4816 50.608 64.4286 50.608 64.2695C50.6611 63.7922 50.6611 63.3149 50.5018 62.8906C50.5018 62.8376 50.4487 62.7845 50.3956 62.6784C50.3425 62.6254 50.2894 62.6254 50.1832 62.6784C50.077 62.9436 49.9708 63.0497 50.0239 63.2088Z" fill="#A46416"/>
<path d="M68.2906 57.4274C68.3968 58.1168 68.6093 58.8593 68.7686 59.4957C68.7686 59.6018 68.981 59.7609 69.0872 59.7078C69.1934 59.6548 69.2996 59.4957 69.2996 59.3896C69.1934 58.7002 68.981 57.9577 68.8217 57.3213C68.8217 57.2152 68.6093 57.0561 68.503 57.1092C68.2906 57.1092 68.2375 57.2683 68.2906 57.4274Z" fill="#A46416"/>
<path d="M70.3092 57.3746C70.5216 58.011 70.6278 58.5944 70.8402 59.2308C70.8933 59.3369 71.0526 59.496 71.1589 59.443C71.2651 59.3899 71.4244 59.2308 71.3713 59.1248C71.1588 58.4884 71.0526 57.905 70.8402 57.2686C70.7871 57.1625 70.6278 57.0034 70.5216 57.0564C70.3092 57.1095 70.2561 57.2155 70.3092 57.3746Z" fill="#A46416"/>
<path d="M68.3971 62.3074C69.0874 63.8454 70.0433 65.2773 70.9461 66.7092C71.9019 68.1411 72.9109 69.52 73.7605 71.005C74.6102 72.4899 75.3005 74.081 75.7254 75.725C76.2033 77.6873 76.2564 79.7026 76.3095 81.7179C76.3626 83.7862 76.5219 85.8545 76.575 87.9229C76.575 88.188 76.575 88.4532 76.6281 88.7184C76.6281 89.0366 77.2123 89.0366 77.2123 88.7184C77.1591 86.597 76.9998 84.4757 76.9467 82.3543C76.8936 80.339 76.8405 78.2707 76.4157 76.2554C76.0971 74.5052 75.4598 72.8081 74.6102 71.2702C73.7605 69.7852 72.8047 68.3533 71.9019 66.9213C70.946 65.4894 70.0433 64.0575 69.2467 62.5195C69.1936 62.3074 69.0343 62.1483 68.9812 61.9361C68.9281 61.8301 68.7157 61.724 68.6095 61.8301C68.3971 62.0422 68.344 62.1483 68.3971 62.3074Z" fill="#A46416"/>
<path d="M33.0836 40.8814C34.0395 41.4647 35.0484 41.9951 36.0574 42.5784C36.376 42.7906 36.6415 42.2602 36.3229 42.1011C35.3671 41.5178 34.3581 40.9874 33.3491 40.4041C33.0836 40.2449 32.8181 40.6692 33.0836 40.8814Z" fill="#682F1B"/>
<path d="M34.3575 42.6309C34.623 42.5248 34.9416 42.3657 35.2071 42.3127C35.2602 42.3127 35.3133 42.2597 35.4195 42.2066C35.4726 42.1536 35.4726 42.1006 35.4195 41.9945C35.4195 41.9415 35.3664 41.8884 35.3133 41.7824C35.2602 41.7824 35.2071 41.7293 35.1009 41.7824C34.8354 41.8884 34.5168 42.0475 34.2513 42.1006C34.1982 42.1006 34.1451 42.1536 34.0389 42.2066C33.9857 42.2597 33.9857 42.3127 34.0389 42.4188C34.0389 42.4718 34.092 42.5248 34.1451 42.6309C34.2513 42.6309 34.3044 42.6839 34.3575 42.6309Z" fill="#682F1B"/>
<path d="M34.4109 38.3355C34.3047 39.025 35.3668 39.3962 35.8978 38.9189C36.4289 38.4416 36.482 37.6991 36.482 36.9566C36.482 34.358 35.9509 31.7593 34.942 29.3728C36.0572 30.2213 38.022 29.1606 37.9158 27.7287C39.4558 28.6833 41.4737 28.8424 43.1199 28.0469C43.704 27.7817 44.3413 27.3575 44.9785 27.3575C45.6158 27.3575 46.1999 27.6757 46.784 27.8348C48.0054 28.153 49.4392 27.7287 50.2358 26.668C50.7137 27.1984 51.1916 27.7817 51.9351 27.9408C52.6254 28.153 53.4751 27.6757 53.4751 26.9862C54.0592 27.8348 55.7054 27.3044 55.7054 26.2968C55.5992 24.9179 55.0151 23.486 53.8468 22.7435C52.6785 21.948 50.9792 21.8949 50.0234 22.8496C47.2089 21.3646 43.8103 21.7889 40.6771 22.3192C39.7744 22.4253 38.8716 22.6374 37.8627 22.7965C35.8447 23.1147 33.4551 23.7511 32.8709 25.7134C30.4813 26.4028 29.4192 29.9561 31.1716 31.8123C31.384 32.0245 31.6496 32.2896 31.7027 32.5018C31.8089 32.9791 31.5965 33.4564 31.4372 33.9337C31.1716 34.8883 31.7027 36.002 32.5523 36.5324C31.9151 37.0097 31.7027 38.0173 32.2337 38.6007C32.7647 39.1841 33.7737 39.1841 34.3047 38.6007L34.4109 38.3355Z" fill="#C23F37"/>
<path d="M31.2777 27.3575C32.3929 25.8195 35.1012 24.7589 34.4108 22.9557C33.7205 21.1525 32.0743 19.7206 30.1626 19.2433C29.9502 19.7737 30.7998 20.304 31.3308 19.8797C31.8088 19.5615 31.915 18.819 31.8619 18.2357C31.6495 15.7961 29.7908 13.5687 27.4543 12.8262C25.4364 11.2882 22.9936 10.2805 20.3915 9.96233C20.4446 10.4927 20.9757 10.9169 21.5067 10.8109C20.8695 8.95469 18.7984 7.68187 16.8336 7.94704C14.8688 8.21221 13.2757 10.0154 13.1695 12.0307C12.6915 10.8109 10.9391 10.6518 9.77084 11.1821C7.16878 12.4019 6.21291 16.2204 7.96533 18.5008C8.44326 19.1372 9.71774 19.4555 9.77084 18.713C9.82395 18.1826 9.23981 17.8644 8.70878 17.8114C6.85016 17.5993 5.04464 19.1903 4.56671 20.9934C4.03567 22.7966 4.4605 24.7589 5.09774 26.562C5.62878 28.1 6.31912 29.638 7.5405 30.6457C8.76188 31.7063 10.6736 32.1306 12.1074 31.3351C12.6384 31.0699 13.0102 30.2214 12.4791 29.9562C11.0453 31.9185 11.8419 35.1005 14.0191 36.0551C16.2495 37.1158 19.1702 35.5778 19.6481 33.2443C19.7543 35.0475 21.9846 36.1612 23.6839 35.6309C25.4364 35.1005 26.6046 33.4034 26.9764 31.7594C27.826 32.9261 29.7908 32.3958 30.5343 31.229C31.4371 30.2744 31.3308 28.7364 31.2777 27.3575Z" fill="#C23F37"/>
<path d="M21.7727 81.1869C19.7548 80.9218 17.6838 80.8157 15.6658 80.8687C13.6479 80.9218 11.63 81.24 9.61206 81.7173C8.49688 81.9824 7.38171 82.3007 6.31964 82.6189C6.21343 82.6719 6.05412 82.831 6.10723 82.9371C6.16033 83.0431 6.31964 83.2022 6.42585 83.1492C8.28447 82.5128 10.2493 82.0355 12.2672 81.7173C14.2321 81.3991 16.25 81.346 18.2679 81.3991C19.3831 81.4521 20.4983 81.5051 21.6665 81.6642C21.7727 81.6642 21.9852 81.6112 21.9852 81.4521C22.0383 81.346 21.879 81.1869 21.7727 81.1869Z" fill="#682F1B"/>
<path d="M2.01818 86.8623C1.64645 87.3926 1.54024 88.0821 1.91197 88.6654C2.23059 89.1958 2.81473 89.514 3.45197 89.514C3.55818 89.514 3.71749 89.4079 3.71749 89.2488C3.71749 89.1427 3.61128 88.9836 3.45197 88.9836C2.97404 88.9836 2.60231 88.7715 2.3899 88.4003C2.17749 88.029 2.28369 87.4987 2.49611 87.1805C2.54921 87.0744 2.49611 86.8623 2.3899 86.8093C2.28369 86.7562 2.12438 86.7562 2.01818 86.8623Z" fill="#682F1B"/>
<g opacity="0.56">
<path d="M55.4932 51.3292C53.7407 52.1248 51.1918 51.6474 49.2801 51.4353C46.8373 51.1701 44.3414 50.905 42.0049 50.2686C46.147 52.6021 51.298 53.2385 55.918 51.9657C55.6525 51.6474 55.4401 51.3292 55.387 51.011L55.4932 51.3292Z" fill="#682F1B"/>
</g>
<path d="M50.1826 35.1538C50.2888 36.2144 50.8199 37.01 51.4571 37.8055C51.7757 38.1767 52.0943 38.4949 52.5192 38.8662C52.6254 38.9722 52.8378 39.1844 52.8909 39.3965C52.944 39.6617 52.8378 39.9268 52.7847 40.0859C52.5192 40.6693 52.2537 41.2527 51.9881 41.8891C51.935 41.9952 51.935 42.2073 52.0943 42.2603C52.2005 42.3134 52.413 42.3134 52.4661 42.1543C52.7316 41.5709 52.9971 41.0406 53.1564 40.4572C53.4219 39.9268 53.6343 39.3435 53.2626 38.7601C53.1564 38.548 52.944 38.3888 52.7316 38.1767C52.5192 37.9646 52.3599 37.8585 52.2006 37.6464C51.8819 37.2751 51.5633 36.9569 51.2978 36.4796C51.0323 36.0023 50.8199 35.525 50.7668 34.9947C50.7668 34.8886 50.6605 34.7295 50.5012 34.7295C50.2888 34.8886 50.1826 35.0477 50.1826 35.1538Z" fill="#682F1B"/>
<path d="M47.8989 42.5783C48.43 43.745 49.7576 44.3814 51.0321 44.0102C51.3507 43.9571 51.2445 43.3738 50.9258 43.4798C50.6072 43.5329 50.3948 43.5329 50.0762 43.5329C50.0762 43.5329 50.0762 43.5329 50.0231 43.5329H49.97C49.9169 43.5329 49.8638 43.5329 49.7576 43.4798C49.6514 43.4268 49.4921 43.4268 49.4389 43.3738C48.961 43.1086 48.5893 42.7904 48.3769 42.3131C48.3238 42.207 48.1114 42.101 48.0052 42.207C47.8458 42.2601 47.8458 42.3661 47.8989 42.5783Z" fill="#682F1B"/>
<path d="M43.385 38.3884C43.385 37.805 43.9161 37.2216 44.5533 37.2216C45.1374 37.2216 45.7216 37.752 45.7747 38.3354C45.7747 38.4414 45.8809 38.6005 46.0402 38.6005C46.1464 38.6005 46.3057 38.4945 46.3057 38.3354C46.2526 37.6459 45.7747 37.0625 45.0843 36.7974C44.4471 36.5322 43.6506 36.7974 43.2257 37.3807C42.9602 37.6989 42.854 38.0702 42.854 38.4945C42.8009 38.8127 43.385 38.8127 43.385 38.3884Z" fill="black"/>
<path d="M53.6873 38.07C53.6873 37.4867 54.2183 36.9033 54.8556 36.9033C55.4397 36.9033 56.0238 37.4336 56.0769 38.017C56.0769 38.1231 56.1831 38.2822 56.3425 38.2822C56.4487 38.2822 56.608 38.1761 56.608 38.017C56.5549 37.3276 56.0769 36.7442 55.3866 36.479C54.7494 36.2138 53.9528 36.479 53.528 37.0624C53.2625 37.3806 53.1562 37.7518 53.1562 38.1761C53.1562 38.3882 53.6873 38.3882 53.6873 38.07Z" fill="black"/>
<path d="M45.6692 31.3353C45.9347 31.2822 46.1471 31.5474 46.2002 31.7065C46.3064 32.2899 45.7223 32.7672 45.1381 32.8733C44.554 32.9793 43.9167 32.8733 43.3857 33.0854C43.0671 33.1915 42.7485 33.4566 42.4829 33.7218C42.2705 33.9339 42.005 34.0931 41.8457 34.3052C42.3767 32.6081 43.9698 31.6535 45.7223 31.2292C45.8285 31.1762 45.7754 31.1231 45.7223 31.2292L45.6692 31.3353Z" fill="#C23F37"/>
<path d="M52.5719 30.6986C52.3064 30.6455 52.094 30.9107 52.0409 31.0698C51.9347 31.6532 52.5188 32.1305 53.103 32.2365C53.6871 32.3426 54.3244 32.2365 54.8554 32.4487C55.174 32.5548 55.4926 32.8199 55.7582 33.0851C55.9706 33.2972 56.2361 33.4563 56.3954 33.6685C55.8644 31.9714 54.2713 31.0168 52.5188 30.5925C52.4657 30.4864 52.4126 30.5395 52.5188 30.5925L52.5719 30.6986Z" fill="#C23F37"/>
</g>
<defs>
<clipPath id="clip0_1724_33974">
<rect width="154" height="112" fill="white"/>
</clipPath>
</defs>
</svg>
