<svg width="152" height="112" viewBox="0 0 152 112" fill="none" xmlns="http://www.w3.org/2000/svg">
<g clip-path="url(#clip0_1724_33892)">
<path d="M123.51 33.4011C123.43 34.8309 124.584 36.7373 123.192 37.4125C121.958 38.0479 120.247 38.2068 118.974 37.611C119.173 37.2536 119.849 37.3727 119.969 37.8096C120.088 38.2465 119.889 38.604 119.531 39.0408C118.297 40.3118 116.069 40.7883 114.478 40.1132C112.568 39.994 110.658 39.438 108.986 38.4848C109.225 38.2465 109.862 38.2465 110.101 38.4848C108.907 39.2791 107.076 39.0011 106.002 37.8891C104.928 36.777 104.928 35.0692 105.843 33.838C105.047 34.3543 103.893 33.5997 103.495 32.7657C102.501 30.8593 103.814 28.1188 105.883 27.7217C106.48 27.5628 107.355 27.96 107.037 28.516C106.838 28.8735 106.32 28.7146 105.923 28.516C104.769 27.7217 104.45 26.0933 105.047 24.6635C105.604 23.2735 106.798 22.4394 107.992 21.6451C109.066 21.0493 110.18 20.4139 111.294 20.4139C112.528 20.3742 113.801 20.9699 114.279 22.1217C114.398 22.5586 114.279 23.2337 113.881 22.9954C114 21.0891 115.95 19.6196 117.701 20.2153C119.412 20.6919 120.486 22.916 119.69 24.5444C120.645 23.5118 122.356 23.9883 123.112 25.021C123.908 26.2125 123.828 27.6422 123.192 28.7543C124.226 28.4763 125.181 29.6281 125.022 30.7798C125.102 31.733 124.226 32.6068 123.51 33.4011Z" fill="#C23F37"/>
<path d="M103.296 75.9372C104.012 76.2152 104.768 76.1755 105.564 76.0961C108.15 75.6989 110.737 75.4606 113.323 75.0634L108.309 72.8393L112.806 63.3074C112.806 63.3074 121.401 52.028 127.648 51.8691C131.428 51.7897 133.696 50.3599 134.81 49.2876C134.571 47.7783 134.89 46.1102 134.73 44.4422C134.332 41.9003 132.621 39.6762 130.353 38.2464C128.205 36.7769 125.658 36.062 123.072 35.228C122.037 34.8705 120.883 34.7117 120.167 35.5457L119.968 35.4266C118.018 34.0762 115.472 33.9968 113.204 34.9102C111.095 35.784 109.384 37.6904 108.389 39.8351C108.11 40.55 107.872 41.384 107.235 42.0195C106.201 43.4095 104.171 44.1244 103.336 45.5939C101.943 48.0166 103.415 51.0748 102.898 53.7358C102.42 56.079 100.232 57.7471 100.073 60.1698C99.9136 63.0294 102.58 65.2932 102.619 68.2719C102.699 69.662 101.943 70.9727 101.704 72.4422C101.704 73.5542 102.023 75.3415 103.296 75.9372Z" fill="#C23F37"/>
<path d="M73.6123 90.7912C70.9464 100.601 67.5642 108.425 67.0469 118.632C78.3474 124.193 96.8898 125.702 108.787 121.373C105.087 115.336 106.121 107.035 109.464 100.8C100.232 96.4309 85.9872 92.777 75.8406 90.8309C75.5223 90.7514 75.0448 90.7514 74.7662 90.95C74.5275 91.1883 74.9652 91.6649 75.2039 91.4663L73.6123 90.7912Z" fill="#F6A472"/>
<path d="M100.193 64.5788C100.829 62.3547 100.829 60.0114 101.307 57.6682C102.699 50.6781 107.952 45.0384 113.005 39.8753C117.701 35.149 122.356 30.2639 126.892 25.5774C129.359 23.0356 131.946 20.4143 135.129 18.7859C136.362 18.1505 137.636 17.6341 138.909 16.959C140.461 16.2441 141.893 15.2114 143.485 14.1391C145.793 12.2327 148.299 10.4852 150.806 8.69797C151.602 8.18166 152.398 6.39443 151.244 6.23556C151.045 6.11641 150.766 6.19585 150.488 6.27528C129.399 13.3051 109.822 25.8554 96.4921 43.4497C93.7068 47.0242 91.2796 50.837 88.8921 54.7689C84.2366 61.9973 79.3822 69.5831 78.1089 78.1221C82.7644 77.01 99.5162 66.8029 100.193 64.5788Z" fill="#F6A472"/>
<path d="M111.573 125.026H64.1821C65.6942 116.13 67.6837 110.887 68.0816 110.49C68.0816 110.451 68.1214 110.451 68.1214 110.451C70.9067 111.086 73.891 111.602 76.9947 111.96C77.0743 111.96 77.1141 111.96 77.1936 112C77.8303 112.079 78.4669 112.119 79.1036 112.198C79.2628 112.198 79.4219 112.238 79.6209 112.238C85.3109 112.675 91.1999 112.476 96.4921 111.165C96.6114 111.126 96.691 111.126 96.8104 111.086C96.89 111.046 96.9298 111.046 97.0094 111.046C97.8052 110.848 98.5612 110.609 99.3172 110.331C99.4764 110.292 99.5957 110.212 99.7549 110.173C99.9141 110.133 100.033 110.053 100.193 110.014C100.392 109.934 100.591 109.855 100.789 109.775C101.148 109.656 101.466 109.497 101.784 109.339C101.824 109.339 101.824 109.339 101.864 109.299L101.983 109.497L103.495 111.92L103.694 112.238L103.814 112.436L103.973 112.675L107.076 117.719L107.315 118.076L107.355 118.156L109.543 121.73L111.573 125.026Z" fill="#C23F37"/>
<path d="M117.183 77.6455C115.909 82.2129 114.994 86.8597 114.557 91.7051C114.437 92.976 110.896 94.4455 111.214 95.5973C111.533 96.7491 115.432 101.197 116.148 102.111C119.57 106.519 123.828 107.075 127.767 111.166C122.952 113.112 117.819 114.502 112.686 115.416C111.015 115.694 109.185 115.892 107.832 115.019C106.24 113.867 106.041 111.921 105.246 110.213C103.773 107.155 99.8341 105.407 96.5713 106.162C96.1336 106.281 96.0938 106.758 96.4917 106.956C98.0833 108.108 99.9933 108.823 101.863 109.26C100.152 108.148 98.0435 107.472 96.0142 107.393C95.5367 107.353 95.3776 107.87 95.7357 108.108C97.566 109.657 99.7545 110.61 102.062 111.087C100.232 110.173 98.1629 109.498 96.054 109.26C95.7357 109.18 95.4969 109.577 95.5765 109.855C96.4519 111.325 99.9933 112.715 101.704 112.715C100.789 112.199 97.8048 111.722 96.8498 112.318C96.4519 112.596 96.5713 113.033 97.0488 113.033C99.3566 113.35 101.625 114.78 102.54 117.004C103.017 118.116 103.177 119.348 103.893 120.261C105.007 121.532 106.797 121.651 108.548 121.651C117.7 121.651 126.931 120.857 136.004 119.506C137.516 119.268 139.306 118.911 140.42 117.838C142.529 115.694 141.535 112.04 139.983 109.339C136.879 103.501 117.183 77.6455 117.183 77.6455Z" fill="#F6A472"/>
<path d="M112.448 72.9985C114.795 74.7063 117.74 77.3673 118.217 78.4794C116.785 83.5631 116.745 88.1305 115.512 93.3333C114.358 98.3375 112.647 104.176 107.713 105.645C103.216 107.035 98.7598 104.017 94.7409 101.475C87.8969 97.2255 81.0928 94.8425 73.0153 93.5716C71.3441 84.5957 76.1189 78.9163 80.5755 73.3163C85.032 67.7163 93.4676 62.2751 100.59 61.2822C103.216 67.478 105.962 68.2723 110.18 70.417L112.448 72.9985Z" fill="#EC8117"/>
<path d="M132.184 46.7463C130.712 52.942 123.47 64.976 121.799 65.8895C120.168 66.803 115.154 65.1746 113.682 63.864C113.722 64.0229 111.453 71.847 111.613 71.8073L113.642 74.0711C113.642 75.7789 114.159 81.776 113.523 83.3647C112.568 85.6682 111.573 88.2895 109.185 89.4016C107.952 90.037 106.559 90.1165 105.246 89.9973C100.352 89.4413 96.9697 84.5562 96.4524 79.7108C96.0545 74.786 98.0838 70.1789 100.591 66.0484C103.097 61.9179 106.281 58.0654 108.549 53.6966C106.161 54.1732 104.212 51.1151 105.246 49.0895C106.241 46.9448 109.384 46.3888 111.334 47.7392C113.642 45.237 115.87 42.4172 117.939 39.6768L132.184 46.7463Z" fill="#F6A472"/>
<path d="M97.9642 111.761C99.7548 111.444 101.545 112.198 102.58 113.628C102.819 113.866 102.421 114.144 102.182 113.906C101.346 112.556 99.7548 111.92 98.0836 112.198C97.805 112.278 97.6857 111.841 97.9642 111.761Z" fill="#8D532B"/>
<path d="M97.6458 111.683C96.8102 111.445 96.0143 110.889 95.3379 110.134C95.0594 109.737 94.8206 109.34 95.1787 108.942C95.4175 108.704 95.8552 108.585 96.3327 108.625C98.2028 108.585 99.9536 109.22 101.505 110.213C102.301 110.769 103.137 111.484 103.813 112.239C104.052 112.477 103.654 112.755 103.415 112.517C102.421 111.206 101.068 110.333 99.6751 109.776C98.9588 109.498 98.1232 109.26 97.2876 109.181C96.9693 109.101 96.4918 109.101 96.1735 109.181C96.0143 109.22 95.895 109.26 95.7358 109.3C95.5767 109.34 95.6562 109.618 95.696 109.776C96.2133 110.571 96.8499 111.167 97.8845 111.365C98.2028 111.405 97.9641 111.762 97.6458 111.683Z" fill="#8D532B"/>
<path d="M97.0093 108.902C96.4522 108.585 95.6962 108.148 95.9349 107.314C96.2135 106.599 97.0093 106.718 97.6857 106.837C99.0386 107.115 100.391 107.512 101.386 108.346C101.983 108.823 102.58 109.26 103.097 109.935C103.336 110.173 102.938 110.451 102.739 110.332C102.023 109.419 101.028 108.744 99.9538 108.267C99.3967 107.949 98.8794 107.79 98.3622 107.592C98.0438 107.512 97.8449 107.433 97.5266 107.353C97.2082 107.274 96.8501 107.234 96.7308 107.274C96.4522 107.353 96.3329 107.552 96.4124 107.83C96.492 108.108 96.8501 108.346 97.248 108.545C97.5664 108.585 97.3674 108.942 97.0093 108.902Z" fill="#8D532B"/>
<path d="M98.0441 106.877C97.8054 106.639 97.7258 106.321 97.5269 106.083C97.5269 106.083 97.4871 105.924 97.4473 105.804C98.0043 105.01 98.8797 105.248 99.7153 105.487C100.551 105.725 101.267 106.003 101.864 106.48C103.217 107.353 104.291 108.465 105.286 109.776C105.803 110.57 106.201 111.404 106.599 112.239C106.679 112.517 106.281 112.795 106.201 112.517C105.007 109.856 103.018 107.274 100.233 106.281C99.8745 106.083 99.397 106.043 99.0389 105.963C98.7206 105.884 98.0839 105.924 97.8452 106.122C97.8054 105.963 97.8054 105.963 97.7656 105.844C98.0043 106.083 98.0839 106.4 98.2829 106.639C98.5216 106.917 98.1237 107.155 98.0441 106.877Z" fill="#8D532B"/>
<path d="M128.205 111.047C129.041 111.762 129.717 112.517 130.553 113.232C130.792 113.47 130.394 113.748 130.195 113.629C129.359 112.914 128.683 112.159 127.847 111.444C127.609 111.206 127.967 110.809 128.205 111.047Z" fill="#8D532B"/>
<path d="M88.0166 102.389C87.9371 104.454 87.8575 106.361 87.7779 108.426C87.6983 108.744 87.2208 108.744 87.3004 108.386C87.38 106.321 87.4596 104.415 87.5392 102.349C87.579 102.032 88.0564 102.071 88.0166 102.389Z" fill="#8D532B"/>
<path d="M109.106 51.6314C108.429 50.8768 107.912 50.0825 107.196 49.3279C107.156 49.169 107.116 49.0498 107.275 49.0101C107.434 48.9704 107.554 48.9307 107.594 49.0896C108.27 49.8442 108.787 50.6385 109.504 51.3931C109.543 51.552 109.583 51.6711 109.424 51.7108C109.424 51.6711 109.145 51.7903 109.106 51.6314Z" fill="#8D532B"/>
<path d="M108.469 50.9955C108.31 51.0352 108.31 51.0352 108.31 51.0352C108.31 51.0352 108.31 51.0352 108.151 51.0749C107.991 51.1147 108.031 51.2735 107.912 51.3132C107.912 51.3132 107.753 51.353 107.792 51.5118C107.633 51.5515 107.673 51.7104 107.594 51.8693C107.474 52.0679 107.355 52.1076 107.315 51.9487C107.116 51.8296 107.076 51.7104 107.235 51.6707C107.434 51.3132 107.792 50.8764 108.19 50.6381C108.35 50.5983 108.469 50.5586 108.509 50.7175C108.708 50.7969 108.588 50.9558 108.469 50.9955Z" fill="#8D532B"/>
<path opacity="0.57" d="M113.562 63.9033L108.111 60.0508L112.607 67.2791L113.562 63.9033Z" fill="#8D532B"/>
<path d="M118.974 61.1636C117.661 61.521 116.188 60.8061 115.552 59.5749C115.512 59.4161 115.472 59.2969 115.631 59.2572C115.79 59.2175 115.91 59.1778 115.95 59.3366C116.387 60.3295 117.661 60.9253 118.815 60.6076C119.292 60.6076 119.411 61.0444 118.974 61.1636Z" fill="#8D532B"/>
<path d="M123.112 53.9354C122.236 55.8815 121.401 58.0262 120.525 59.9723C120.406 60.1708 120.247 60.0517 120.048 59.9325C119.61 59.4162 119.093 58.7808 118.655 58.2645C118.416 58.0262 118.814 57.7481 119.013 57.8673C119.61 58.3439 120.088 58.9794 120.406 59.5354C120.247 59.5751 120.127 59.6148 119.928 59.4957C120.804 57.5496 121.639 55.4049 122.515 53.4588C122.833 53.3794 123.191 53.5779 123.112 53.9354Z" fill="#8D532B"/>
<path d="M118.416 53.4579C117.899 53.8947 117.183 54.0933 116.506 53.9742C115.83 53.855 115.233 53.3784 115.034 52.6635C114.915 52.2267 114.835 51.9486 114.915 51.5912C114.875 51.4323 115.154 51.3529 115.154 51.3529C115.313 51.3132 115.353 51.472 115.392 51.5912C115.273 52.2664 115.591 52.9416 116.148 53.2593C116.705 53.577 117.501 53.5373 117.979 53.0607C118.138 53.021 118.257 52.9813 118.297 53.1401C118.536 53.299 118.576 53.4181 118.416 53.4579Z" fill="black"/>
<path d="M126.613 57.3504C126.096 57.7873 125.38 57.9859 124.703 57.8668C124.027 57.7476 123.43 57.271 123.231 56.5561C123.112 56.1192 123.032 55.8412 123.112 55.4838C123.072 55.3249 123.35 55.2455 123.35 55.2455C123.51 55.2058 123.549 55.3646 123.589 55.4838C123.47 56.1589 123.788 56.8341 124.345 57.1519C124.902 57.4696 125.698 57.4299 126.176 56.9533C126.335 56.9136 126.454 56.8738 126.494 57.0327C126.693 57.1916 126.733 57.3107 126.613 57.3504Z" fill="black"/>
<path d="M132.701 48.0171C132.542 49.7646 128.603 50.4001 126.931 49.4469C126.175 49.01 125.857 48.3349 125.22 47.8583C124.783 47.342 123.828 46.8256 123.111 47.0242C122.395 47.2228 122.077 47.7788 121.361 48.1363C120.167 48.9306 118.615 49.0498 117.382 48.5732C116.506 48.176 115.79 47.4214 114.835 47.3817C114.039 47.3022 113.323 47.62 112.686 47.6597C111.93 47.6994 111.174 47.3022 110.458 47.0242C109.742 46.7462 108.787 46.7065 108.27 47.1434C109.702 45.515 111.134 43.8469 112.607 42.2185C114.039 40.5902 115.472 38.9221 117.66 38.1675C119.53 37.4923 121.48 37.7703 123.271 38.5249C125.021 39.1604 126.533 40.1533 128.085 41.1462C129.398 41.9008 130.711 42.6157 131.507 43.8072C132.303 44.9987 133.895 46.7462 133.099 47.9377L132.701 48.0171Z" fill="#C23F37"/>
<path d="M125.101 51.3532C124.584 52.2667 125.022 53.4185 126.016 53.617C126.852 53.8553 127.568 54.1334 128.324 54.5702C127.648 53.1802 126.653 51.9092 125.459 50.9561L125.101 51.3532Z" fill="#C23F37"/>
<path d="M119.53 50.0423C119.411 50.082 119.411 50.082 119.53 50.0423C119.013 50.9557 117.74 50.9954 117.063 50.2408C116.427 49.6451 115.83 49.1685 115.233 48.6919C116.785 48.5728 118.297 48.9699 119.769 49.6451L119.53 50.0423Z" fill="#C23F37"/>
<path d="M104.808 111.921C103.933 112.794 102.898 113.549 101.824 114.303C101.585 114.542 101.307 114.145 101.545 113.906C102.58 113.152 103.495 112.437 104.37 111.563C104.649 111.364 105.047 111.722 104.808 111.921Z" fill="#8D532B"/>
<path d="M102.659 82.2522C102.063 83.5231 101.585 84.7543 100.988 85.9855C100.869 86.1841 100.869 86.1841 100.749 86.2238C100.59 86.2636 100.511 85.9855 100.511 85.9855C101.108 84.7146 101.506 83.3643 102.142 82.0933C102.341 81.6962 102.858 81.855 102.659 82.2522Z" fill="#8D532B"/>
<path d="M150.289 8.5388C150.01 8.14164 149.533 8.10192 149.095 8.22107C148.498 8.37993 148.021 8.81681 147.464 9.13454C146.389 9.73029 145.076 10.2466 143.922 10.5643C143.644 10.6438 143.525 10.2069 143.803 10.1275C145.315 9.88915 146.549 9.21398 147.742 8.41965C148.1 8.02249 148.777 7.66504 149.414 7.66504C149.891 7.70476 150.408 7.86362 150.727 8.41965C150.926 8.5388 150.528 8.81681 150.289 8.5388Z" fill="#8D532B"/>
<path d="M144.36 9.37343C143.883 10.4458 143.723 11.5975 144.002 12.6302C144.042 12.789 143.922 12.9479 143.803 12.9876C143.644 13.0273 143.485 12.9082 143.445 12.789C143.286 11.5975 143.405 10.2869 143.883 9.21457C144.002 9.01599 144.121 8.97627 144.161 9.13514C144.32 9.21457 144.32 9.21457 144.36 9.37343Z" fill="#8D532B"/>
<path d="M125.141 36.4199C127.409 36.5788 129.518 37.4128 131.149 38.8426C131.985 39.5575 132.86 40.4313 133.417 41.3447C133.975 42.2979 134.571 43.2114 134.89 44.4029C135.208 45.5547 135.526 46.7462 135.845 47.8979C136.123 48.9306 136.601 50.0426 137.476 50.9164C138.391 51.9093 139.704 52.1873 140.699 52.8625C141.614 53.3788 142.45 54.0937 143.166 55.0072C144.599 56.7944 145.355 58.9788 145.315 61.1632C145.235 61.4809 145.275 61.6398 145.235 61.9575C145.156 62.2752 144.678 62.2752 144.758 61.9178C144.957 59.8128 144.32 57.4696 143.246 55.7618C142.689 54.8086 141.853 54.0937 140.858 53.4185C139.903 52.7433 138.55 52.4653 137.556 51.671C135.606 50.3206 135.208 47.7391 134.651 45.7135C134.333 44.5618 134.054 43.5291 133.497 42.5759C132.94 41.6228 132.343 40.7093 131.508 39.9944C129.995 38.5249 127.966 37.3731 125.817 37.0157C125.499 36.9362 125.34 36.976 125.022 36.9362C124.942 36.9362 124.823 36.4994 125.141 36.4199Z" fill="#C23F37"/>
<path d="M77.1142 112.754C76.9948 112.953 76.9948 112.953 76.9948 112.953L77.0346 113.112L77.0744 113.271C77.1142 113.43 77.154 113.549 76.9948 113.588C76.8357 113.628 76.7163 113.668 76.6765 113.509C76.398 113.112 76.5571 112.437 76.9153 112.039C77.0744 112 77.1938 111.96 77.2336 112.119C77.2336 112.556 77.2734 112.715 77.1142 112.754Z" fill="#56462A"/>
<path d="M79.6605 112.198C79.5412 112.397 79.4218 112.437 79.4616 112.556C79.4616 112.556 79.4616 112.556 79.5014 112.715L79.382 112.913C79.382 112.913 79.4218 113.072 79.2626 113.112C79.2626 113.112 79.2626 113.112 79.3024 113.271C79.3422 113.43 79.2229 113.588 79.2626 113.747C79.3024 113.906 79.1433 113.946 79.0239 113.986C78.8647 114.025 78.8249 113.866 78.7852 113.747C78.7852 113.112 78.9045 112.476 79.382 111.881C79.5014 111.682 79.6208 111.642 79.6605 111.801C79.7401 112.039 79.7799 112.159 79.6605 112.198Z" fill="#56462A"/>
<path d="M104.41 92.579C101.505 91.7847 99.118 89.9577 97.606 87.3762C97.2478 86.701 96.8897 85.867 96.6908 85.1123C96.6112 84.8343 97.0489 84.7152 97.1285 84.9932C97.8447 87.6145 99.874 89.8783 102.301 91.2684C103.057 91.7053 103.773 91.9833 104.569 92.0627C104.927 92.301 104.768 92.8173 104.41 92.579Z" fill="#AD5C12"/>
<path d="M73.4532 92.4193C73.8113 92.0221 74.4082 91.8633 74.8856 91.8633C75.3631 91.903 75.9998 91.8633 76.5171 92.0619C77.671 92.2207 78.6658 92.4193 79.8197 92.5782C81.9684 92.9356 83.9977 93.4917 86.1066 94.1668C88.1757 94.842 90.1652 95.7158 92.1548 96.7484C94.1841 97.781 96.0542 98.8136 97.805 100.085C99.5558 101.316 101.346 102.706 102.858 104.175C103.097 104.414 103.256 104.533 103.495 104.771C103.734 105.009 103.336 105.287 103.137 105.168C100.113 102.229 96.6113 99.7271 92.871 97.6221C89.1705 95.6363 85.1118 94.0874 80.9736 93.3328C79.7799 93.0151 78.626 92.8562 77.5118 92.6973C76.8354 92.5782 76.3579 92.5385 75.7213 92.5385C75.2438 92.4987 74.4082 92.4193 74.05 92.8165C73.6124 93.0151 73.1747 92.6179 73.4532 92.4193Z" fill="#AD5C12"/>
<path d="M98.4412 93.8892C95.9742 91.7446 93.2287 89.8382 90.2842 88.2892C89.5282 87.8524 88.6528 87.4949 87.7376 87.0978C87.4193 87.0183 87.7376 86.4623 87.9365 86.7403C91.0004 88.0907 93.8255 89.8382 96.6109 91.9034C97.4067 92.4595 98.0433 93.0949 98.8392 93.6509C99.0381 93.7304 98.68 94.1673 98.4412 93.8892Z" fill="#AD5C12"/>
<path d="M95.8551 93.6508C93.1095 92.221 90.364 90.9104 87.6184 89.4806C87.3001 89.4011 87.6184 88.8451 87.8174 89.1231C90.5629 90.5529 93.3085 91.8635 96.054 93.2933C96.253 93.4125 96.0938 93.9288 95.8551 93.6508Z" fill="#AD5C12"/>
<path d="M129.558 41.6627C129.996 42.6556 130.274 43.6485 130.115 44.8003C129.876 45.6343 129.16 46.4683 128.245 46.5875C127.33 46.6669 126.414 46.3095 125.658 45.7137C125.061 45.2371 124.385 44.4825 124.027 43.8074C123.629 42.9733 123.35 41.9407 123.589 41.1066C123.549 40.9478 123.788 40.7492 123.987 40.8286C124.743 41.2655 125.26 42.0598 125.459 42.7747C125.539 43.6882 125.3 44.5222 124.703 45.1974C124.106 45.8329 123.191 46.0712 122.396 45.9918C121.401 45.7932 120.446 45.2769 119.968 44.6017C119.292 43.8471 118.814 42.735 118.695 41.6627C118.615 41.3847 119.053 41.2655 119.133 41.5435C119.73 42.6159 119.531 44.0854 118.695 45.118C117.78 46.3095 116.347 46.8655 114.955 47.0641C114.676 47.1435 114.557 46.7066 114.835 46.6272C116.069 46.4683 117.342 45.952 118.138 44.9194C118.854 44.0854 119.133 42.7747 118.536 41.8215C118.695 41.7818 118.814 41.7421 118.974 41.7024C119.133 43.3705 120.167 44.9988 121.759 45.5152C122.475 45.7932 123.191 45.5946 123.908 45.2371C124.425 44.8003 124.863 44.2045 124.823 43.4102C124.783 42.6556 124.385 41.8215 123.629 41.3847C123.788 41.3449 123.908 41.3052 124.027 41.1066C123.788 42.5761 124.544 44.1251 125.579 45.0783C126.176 45.5549 126.772 45.9917 127.608 46.1109C128.086 46.1506 128.404 46.1903 128.802 45.952C129.041 45.7137 129.319 45.5152 129.518 45.118C129.876 44.0854 129.399 42.9733 129.001 42.0996C129.001 41.3449 129.478 41.3449 129.558 41.6627Z" fill="#563017"/>
<path d="M63.0282 59.4156C60.8796 50.4 58.89 41.4241 56.7015 32.5277C56.5822 31.7731 56.3036 30.9787 55.8262 30.4227C55.1497 29.5489 54.1549 29.3106 53.0408 28.9135C45.8785 26.6099 39.0743 22.7574 33.3445 17.7929C31.4743 16.2043 29.5246 14.4567 27.0974 14.6553C26.1822 14.7348 25.2272 15.1319 24.4314 15.4099C21.4073 16.3631 15.3591 15.7674 14.9214 14.3376C14.6031 13.1064 18.9403 13.4638 20.1738 12.5504L8.99265 9.65106C8.03767 9.29362 8.39579 7.74468 9.39055 7.82411C10.2659 7.86383 15.3193 7.66525 16.155 7.98298C14.6031 7.62553 10.2659 5.95745 8.91307 5.3617C7.95809 5.00426 8.27642 3.61418 9.1916 3.49504C10.823 3.4156 14.8021 4.88511 16.3141 5.3617C15.3591 5.6 12.2555 4.32908 11.4597 4.01135C10.5047 3.6539 10.7036 2.06525 11.8576 2.1844C13.1707 2.30355 16.5529 3.6539 17.7864 4.09078C16.9508 3.8922 14.245 1.39007 13.4492 0.913475C13.1309 0.714894 13.29 0 13.8869 0C17.8659 0.595745 21.4869 2.26383 25.1476 3.81277C30.1612 5.79858 58.8502 14.1787 65.1769 21.0099C66.8481 22.8369 68.1214 25.061 69.2754 27.2057C73.4932 35.5064 75.0052 43.4099 76.8356 52.505C72.379 55.2057 68.2806 58.9787 63.0282 59.4156Z" fill="#A95B35"/>
<path d="M77.3128 122.167C77.1536 123.16 76.9547 124.114 76.6761 125.067H35.9306C35.8908 125.027 35.5725 125.027 35.095 125.067H22.5212C22.5609 124.59 22.6803 124.034 22.7997 123.438C22.8793 123.081 23.118 122.247 23.4761 121.175C24.4311 118.196 26.1023 113.509 26.341 112.278C26.7787 110.054 27.2164 107.552 27.9725 104.692C29.4845 99.1717 29.0468 90.1958 28.2112 90.3149C26.0227 90.6724 21.6856 96.193 21.6856 96.193L8.31592 80.7433C8.31592 80.7433 12.6531 74.1107 15.3986 70.8937C17.7065 68.3121 20.1337 65.81 23.0782 64.1816C28.2908 61.3617 34.5379 61.044 40.4667 60.8454L43.2122 60.9249H43.252L44.8835 60.9646L45.9578 61.0043C49.0217 59.8525 51.807 57.9064 54.1944 55.444C54.1944 55.4043 54.2342 55.4043 54.274 55.3646C55.1494 54.4511 55.9452 53.4979 56.7013 52.4653C58.1735 50.4398 59.3672 48.2554 60.2824 46.0312C60.7599 46.2298 61.1976 46.4284 61.6353 46.627C67.1662 49.01 70.9065 49.9234 76.9945 51.7901C77.0342 51.7901 77.0342 51.7901 77.074 51.8298C75.8803 55.722 76.3578 60.8454 75.4028 64.7774C74.6866 67.6766 74.0897 70.4965 74.0102 73.4355C74.0102 76.1362 74.5274 78.8766 74.9253 81.5376C75.0049 82.0937 75.0845 82.6497 75.1243 83.2057C75.3232 85.5887 75.4824 88.1703 75.6416 90.871C75.6814 91.2284 75.6814 91.6256 75.7212 91.983C75.7212 92.2213 75.7609 92.4199 75.7609 92.6582C75.8007 93.1745 75.8405 93.6908 75.8405 94.2071C76.1986 100.204 76.5568 106.44 77.074 112.079C77.1138 112.357 77.1138 112.596 77.1536 112.874C77.2332 113.47 77.273 114.026 77.3526 114.582C77.3526 114.74 77.3924 114.899 77.3924 115.058V115.138C77.6709 117.401 77.6311 119.864 77.3128 122.167Z" fill="#8CA3C4"/>
<path d="M41.8993 120.698C40.9443 119.626 38.7558 117.521 37.4825 116.726L42.4166 119.109C42.6155 119.109 42.7349 119.228 42.8145 119.149C43.2522 118.99 43.0532 118.355 42.7747 118.037C40.5066 115.019 36.2092 113.827 32.5485 115.138C31.8323 115.376 30.8773 115.853 30.1611 115.694C29.4448 115.535 28.8878 115.098 28.4103 114.542C23.4365 109.538 20.0941 102.667 15.2396 97.5831C16.8312 95.4384 16.9506 94.9618 18.7412 92.8171L9.43019 82.2129C6.4061 86.1845 3.34223 90.593 1.03438 94.9221C0.556889 95.7164 0.119193 96.5108 0.0396116 97.5037C-0.159341 99.0129 0.477308 100.403 1.31291 101.555C6.44589 110.014 15.16 115.813 23.4763 121.135C24.2721 121.611 25.0679 122.048 25.8637 122.088C26.6595 122.128 27.5349 121.77 28.2511 121.731C30.2804 121.651 31.7925 123.796 33.5831 124.749C34.3789 125.226 35.4532 124.272 34.8962 123.399C34.538 122.763 33.5831 121.492 33.026 120.817C34.2595 122.009 36.3286 123.478 37.9202 123.994C38.7161 124.233 39.5119 123.2 39.0344 122.446C38.5569 121.691 37.5223 120.499 36.6469 119.745C37.8804 120.936 39.6312 122.287 40.825 122.962C41.2229 123.2 41.8197 123.24 42.2574 122.843C42.9339 122.128 42.3768 121.254 41.8993 120.698Z" fill="#A95B35"/>
<path d="M10.1862 78.2812C13.0512 81.5379 15.9161 84.5564 18.7412 87.8131C19.4972 88.6868 20.3726 89.64 21.2082 90.4344C21.4072 90.6329 21.7255 90.3549 21.5266 90.1564C18.582 87.0188 15.7967 83.8812 12.8522 80.7039C12.0962 79.8301 11.2208 78.8769 10.4648 78.0032C10.3454 77.7649 10.0271 78.0429 10.1862 78.2812Z" fill="#363644"/>
<path d="M59.2082 49.3669C63.3862 51.0747 67.5643 52.5839 71.7821 53.8549C72.8962 54.252 74.1695 54.6095 75.2836 55.0066C75.602 55.1258 75.7213 54.6095 75.403 54.4903C71.1852 53.1797 66.8878 51.7896 62.7098 50.0818C61.5161 49.6052 60.402 49.208 59.2082 48.7314C59.1287 48.8506 58.8899 49.2478 59.2082 49.3669Z" fill="#363644"/>
<path d="M70.9862 110.173C69.3946 109.657 67.6438 109.458 66.0124 109.736C65.6941 109.816 65.893 110.253 66.092 110.253C67.6438 110.054 69.2752 110.173 70.8669 110.65C71.0658 110.689 71.225 110.213 70.9862 110.173Z" fill="#363644"/>
<path d="M40.5465 66.0882C40.7455 67.6371 41.7801 68.8286 43.0931 69.4244C44.4858 70.1393 45.9979 70.3378 47.5497 70.1393C49.1015 69.9407 50.7727 69.4244 52.3246 68.8286C53.9162 68.2329 55.5874 67.3194 56.5026 65.9293C57.2984 64.6584 57.7361 62.9506 57.0198 61.4811C56.9403 61.1634 56.423 61.4414 56.5821 61.64C57.2188 62.7917 56.9403 64.2215 56.224 65.3733C55.4282 66.8428 54.0356 67.6769 52.5633 68.1932C51.2104 68.8286 49.5392 69.3052 48.067 69.623C46.6345 69.9407 45.202 69.8613 43.8094 69.3449C42.3371 68.7492 41.2628 67.5577 40.9445 66.0882C40.9445 65.691 40.467 65.7705 40.5465 66.0882Z" fill="#363644"/>
<path d="M12.6131 98.6952C11.4194 98.2186 9.98696 98.0994 8.75346 98.4569C8.63408 98.5363 8.5545 98.6554 8.63408 98.7746C8.71367 98.8937 8.83304 98.9732 8.95241 98.8937C10.1859 98.576 11.4194 98.6554 12.5336 99.0129C12.6927 99.2115 12.9315 98.8143 12.6131 98.6952Z" fill="#682F1B"/>
<path d="M57.4573 25.7761C58.2929 26.6895 58.7704 27.8413 59.1285 28.9534C59.0887 29.1122 59.3672 29.152 59.3672 29.152C59.5264 29.1917 59.5264 29.0328 59.5662 28.9137C59.2478 27.6825 58.6112 26.491 57.8154 25.4186C57.696 25.2598 57.5368 25.3392 57.4971 25.4981C57.3777 25.4583 57.4971 25.6569 57.4573 25.7761Z" fill="#682F1B"/>
<path d="M18.4228 12.7891C21.0092 13.0671 22.8396 10.8032 25.3862 10.6444C26.1024 10.6444 26.6993 10.6444 27.3757 11.0813C27.6145 11.2798 28.0124 10.9224 27.7338 10.7238C26.7391 9.92949 25.3862 10.0486 24.0731 10.5252C22.8396 10.843 21.7652 11.6373 20.6113 12.1139C19.9747 12.2728 19.2186 12.3919 18.5024 12.3919C18.2239 12.3125 18.1443 12.7096 18.4228 12.7891Z" fill="#682F1B"/>
<path d="M17.3886 2.82001C16.8315 5.36186 16.3143 7.74483 15.7572 10.2867C15.6776 10.5647 16.1153 10.6441 16.1949 10.3661C16.7519 7.82427 17.2692 5.44129 17.8263 2.89944C17.8661 2.66115 17.4284 2.542 17.3886 2.82001Z" fill="#682F1B"/>
<path d="M10.7036 4.3293C12.6931 4.60731 14.7622 5.36192 16.5926 6.35483C16.8711 6.43426 17.1099 6.0371 16.8313 5.95767C15.001 4.96476 12.9319 4.21015 10.7832 3.89242C10.5046 3.81299 10.4251 4.24987 10.7036 4.3293Z" fill="#682F1B"/>
<path d="M19.6167 4.80571C20.89 5.08372 22.3224 5.24258 23.2774 6.19578C24.2324 7.14897 24.869 8.30074 25.9434 8.85677C26.6198 9.13478 27.336 9.29365 27.9329 9.13478C28.2512 9.05535 28.0523 8.57875 27.7339 8.65819C26.4607 9.09507 25.3863 7.98301 24.6701 7.10925C24.3518 6.59294 23.8743 6.03691 23.357 5.63975C22.8397 5.24258 22.3224 4.96457 21.646 4.68656C20.9696 4.40854 20.2533 4.24968 19.3779 4.20996C19.4177 4.32911 19.2983 4.72627 19.6167 4.80571Z" fill="#682F1B"/>
<path d="M56.0649 47.7393C55.4282 49.8442 56.1842 52.2272 57.6963 53.7761C58.0942 54.213 58.0544 54.8088 57.4973 55.0868C56.6617 55.4442 55.9057 55.6825 54.9109 55.6428C53.6774 55.5634 48.9026 52.1081 48.7036 50.7577L56.0649 47.7393Z" fill="black"/>
<path d="M32.0708 34.8313C32.0708 39.2 33.7022 56.3575 35.9305 56.9135C38.7556 57.7079 42.8938 58.0653 42.8938 58.0653C43.1326 60.5277 43.4907 62.9107 43.6499 65.254C43.7294 65.7703 43.7692 66.2866 44.0876 66.6043C44.3661 66.922 44.8834 67.0809 45.3609 67.2C47.987 67.7958 51.0907 66.9618 53.2792 65.0554C53.8362 64.5788 54.4729 64.0227 54.7116 63.2284C54.9504 62.4341 54.9106 61.5206 54.8708 60.8057C54.5127 57.1121 54.0352 53.4979 53.5577 49.7249C53.7965 50.6781 54.9902 50.9561 55.9451 50.4795C56.9001 50.0426 57.4572 49.1688 57.7357 48.1362C58.1336 46.8256 58.1336 45.3164 57.3776 44.244C56.6216 43.1717 55.03 42.6554 53.7567 43.41C53.3588 40.1135 52.364 35.2681 51.9661 31.9717L32.0708 34.8313Z" fill="#A95B35"/>
<path d="M53.0008 47.5405C53.7568 47.0639 54.473 46.8256 55.3086 46.6667C55.6269 46.5873 55.428 46.1504 55.229 46.1504C54.3934 46.3093 53.5578 46.6667 52.8018 47.1036C52.6824 47.183 52.6028 47.3022 52.6824 47.3816C52.8018 47.5007 52.8814 47.6199 53.0008 47.5405Z" fill="#682F1B"/>
<path d="M53.7568 46.865C54.1547 47.3018 54.5128 47.9373 54.473 48.533C54.5526 48.6522 54.672 48.7316 54.7914 48.6522C54.9107 48.5728 54.9903 48.4536 54.9107 48.3345C54.871 47.6196 54.473 46.9841 53.9956 46.4281C53.916 46.3089 53.717 46.3089 53.5977 46.3884C53.6772 46.5472 53.6772 46.7458 53.7568 46.865Z" fill="#682F1B"/>
<path opacity="0.4" d="M42.894 58.0648L50.7726 57.8662L43.3715 61.679L42.894 58.0648Z" fill="#7F4924"/>
<path d="M47.1118 43.8861C47.072 44.4818 46.6343 45.0776 46.2364 45.0379C45.8385 44.9981 45.361 44.4818 45.5202 43.7669C45.56 43.1712 45.9977 42.5754 46.3956 42.6152C46.7935 42.6152 47.1516 43.2506 47.1118 43.8861Z" fill="black"/>
<path d="M37.4429 43.3308C37.4031 43.9266 36.9654 44.5223 36.5675 44.4826C36.1696 44.4429 35.6921 43.9266 35.8512 43.2117C36.0104 42.4968 36.3287 42.0202 36.7266 42.0599C37.1245 42.0996 37.4827 42.7351 37.4429 43.3308Z" fill="black"/>
<path d="M44.5254 38.088C44.6846 38.922 44.406 40.1135 45.0825 40.471C45.4804 40.7092 45.7987 40.6298 46.316 40.5504C47.3505 40.4312 48.4647 40.7887 49.1411 41.3447C49.1013 40.2327 48.584 39.1603 47.7086 38.6043C46.7935 38.0483 45.5599 37.7702 44.5254 38.088Z" fill="black"/>
<path d="M38.5965 38.1279C38.5567 38.9223 39.074 39.9946 38.5169 40.6698C38.1986 40.9478 37.8007 40.9081 37.2834 40.9875C36.2488 41.1067 35.2938 41.5832 34.5378 42.2187C34.4185 41.1861 34.697 39.9946 35.453 39.3194C36.209 38.6442 37.363 38.2074 38.3975 38.2868L38.5965 38.1279Z" fill="black"/>
<path d="M40.7055 42.0199C39.7107 44.4028 39.4719 46.9447 40.1086 49.4071C40.1882 49.5262 40.3076 49.6057 40.3871 49.5262C41.0238 49.3674 41.74 49.3277 42.4562 49.0497C42.7746 48.9702 42.5756 48.5333 42.3767 48.5333C41.74 48.6922 41.0238 48.7319 40.3076 49.0099C40.3871 49.1291 40.3871 49.1291 40.5861 49.1291C40.029 46.7461 40.3076 44.2043 41.1829 41.9404C41.3023 41.861 40.8248 41.7419 40.7055 42.0199Z" fill="#682F1B"/>
<path d="M42.1778 50.4792C43.0532 51.0352 44.2071 50.5984 44.6846 49.6054C44.804 49.526 44.605 49.2877 44.605 49.2877C44.5254 49.1686 44.4061 49.2877 44.2867 49.3671C44.1673 49.6849 43.849 49.9629 43.5307 50.0423C43.2123 50.1218 42.8144 50.082 42.4961 49.9629C42.0982 49.9629 41.8595 50.3601 42.1778 50.4792Z" fill="#682F1B"/>
<path d="M39.1936 54.0534C38.6366 54.53 38.7957 55.364 39.3926 55.8009C39.4722 55.92 39.7109 55.92 39.9099 55.92C40.1088 55.92 40.2282 55.8406 40.1088 55.7215C40.1088 55.5229 40.0292 55.4037 39.9099 55.5229C39.9099 55.5229 39.9099 55.5229 39.8303 55.4037L39.7507 55.2846L39.6711 55.1654L39.5915 55.0463C39.5915 55.0463 39.5915 55.0463 39.512 54.9271C39.512 54.9271 39.512 54.9271 39.512 54.7285C39.512 54.7285 39.512 54.7286 39.6313 54.6491C39.7507 54.5697 39.7507 54.3314 39.6711 54.252C39.3926 53.8548 39.2732 53.9739 39.1936 54.0534Z" fill="#682F1B"/>
<path d="M55.6668 40.987C56.3433 41.7416 57.0595 42.814 58.094 42.8934C59.0888 43.1714 60.2825 42.1388 59.9642 41.0664C60.7998 40.9076 61.4762 39.9544 61.516 39.1203C61.4762 38.2069 60.9192 37.3331 60.1234 37.0948C61.0783 36.6579 61.1579 35.2281 60.6009 34.3544C60.0438 33.5203 58.8501 33.004 57.9747 32.6466C58.7307 30.2636 57.8155 27.4437 55.8658 26.0934C56.3035 24.3856 54.5527 22.6381 52.8417 22.4395C51.1307 22.2409 49.4197 23.1147 48.027 24.1473C46.0773 22.7969 42.9736 23.5913 41.8993 25.6962C40.626 24.7033 38.7956 24.5842 37.4427 25.4182C36.0501 26.2523 35.1349 27.8012 35.2145 29.4693C32.6281 28.2778 29.2061 30.7005 29.4448 33.5601C29.8825 33.4012 29.6836 32.7657 29.2857 32.726C28.7684 32.8054 28.3307 32.9643 28.1317 33.3615C27.2563 34.3147 27.0574 35.6253 27.4951 36.7771C27.9328 37.9288 29.0071 38.7232 30.3202 38.6835C30.1611 39.5969 31.3548 40.0735 32.1506 40.1132C32.9464 40.153 33.8616 40.3118 34.6176 40.0735C35.3338 39.8352 36.0103 39.0409 35.8511 38.2069C37.4427 39.1203 39.6312 38.3657 40.427 36.8962C41.7799 38.2069 44.3663 37.4523 45.1223 35.665C46.5946 36.2608 48.4647 36.3799 50.0166 35.7842C49.0616 36.0225 48.5045 37.3331 48.7433 38.2466C49.181 39.1998 50.3747 39.6764 51.2501 39.1203C50.4145 39.4778 49.937 40.4707 50.0961 41.3047C50.1359 42.2182 51.0113 43.0125 51.8071 43.0523C51.7276 44.0849 52.404 44.8395 53.0804 45.1572C53.9558 45.5147 54.9108 45.2764 55.4679 44.4026C56.0249 43.7274 56.1045 42.6948 56.3433 41.9005C56.8207 41.1062 57.8553 40.5898 58.5317 41.1459L55.6668 40.987Z" fill="black"/>
<path d="M51.1703 74.9449C49.897 73.952 48.7431 72.8399 47.5096 71.847C47.1117 71.6087 46.8331 71.291 46.5546 70.9733C46.475 70.8541 46.3556 70.9733 46.3556 70.9733C46.2363 71.0527 46.2363 71.0527 46.2363 71.291C45.9577 72.4825 45.8782 73.7137 45.5996 74.9052C45.719 74.8258 45.9179 74.8258 46.0373 74.7463C44.8834 73.6343 43.4111 72.84 41.8195 72.1251C41.1431 71.7676 40.4269 71.4102 39.7504 70.8541C39.1536 70.4173 38.5965 69.7421 38.318 69.2258C37.9598 68.5903 37.8007 67.7563 37.8405 66.9619C37.8405 66.7634 37.7609 66.6442 37.6415 66.7634C37.4426 66.7634 37.3232 66.8428 37.4426 66.9619C37.1242 68.5903 38.0394 70.0598 39.1138 71.0527C39.7106 71.4896 40.3871 72.0456 41.0635 72.4031C41.7399 72.7605 42.5358 73.1974 43.252 73.5548C44.0478 74.0314 44.8436 74.4683 45.4803 75.2229C45.6792 75.4215 45.8782 75.2626 45.918 75.0641C46.1965 73.8726 46.2761 72.6414 46.5546 71.4499C46.4352 71.5293 46.2363 71.5293 46.1169 71.6087C47.3902 72.6017 48.5441 73.7137 49.7776 74.7066C50.1755 74.9449 50.4541 75.2626 50.7326 75.5804C50.8122 75.6995 50.9316 75.5804 51.0509 75.5009C51.2499 75.2626 51.1703 74.9449 51.1703 74.9449Z" fill="#1D4A5E"/>
<path d="M53.3589 74.3489C53.9558 73.078 54.5526 71.966 55.1495 70.695C55.2688 70.3773 55.5076 70.0199 55.627 69.7021C55.7463 69.6227 55.5474 69.3844 55.5474 69.3844C55.4678 69.2652 55.3484 69.3844 55.2291 69.4638C54.6322 70.7347 54.0353 71.8468 53.4385 73.1177C53.3191 73.3957 53.0804 73.7929 52.961 74.1106C52.8416 74.1901 53.0406 74.4284 53.0406 74.4284C53.1599 74.5475 53.3589 74.5872 53.3589 74.3489Z" fill="#1D4A5E"/>
<path d="M51.7675 112.08C51.7675 112.08 51.7675 111.881 51.6879 111.96V111.762C51.6879 111.762 51.6879 111.762 51.8073 111.682C51.8073 111.682 51.9267 111.603 51.8073 111.484L51.9267 111.404C52.046 111.325 52.046 111.325 52.046 111.325C52.046 111.325 52.046 111.325 52.1654 111.246C52.1654 111.246 52.1654 111.246 52.2848 111.166L52.4042 111.087H52.6031C52.6031 111.087 52.6031 111.087 52.6827 111.206C52.6827 111.206 52.7623 111.325 52.8816 111.206L52.9612 111.325C53.0408 111.444 53.1602 111.524 53.1602 111.524C53.1602 111.524 53.1602 111.722 53.2398 111.643C53.2398 111.643 53.1204 111.722 53.2398 111.841L53.1204 111.921C53.1204 111.921 53.1204 111.921 53.001 112L52.8816 112.08C52.8816 112.08 52.8816 112.08 52.7623 112.159H52.5633H52.3644C52.3644 112.159 52.3644 112.159 52.2848 112.04C52.2848 112.04 52.2848 112.04 52.2052 111.921C52.1256 111.802 52.1256 111.802 52.1256 111.802L52.046 111.682C51.9665 111.563 51.7277 111.563 51.5288 111.563C51.4094 111.643 51.4094 111.881 51.4094 112.08C52.1654 113.152 53.9162 112.755 54.1947 111.563C54.2345 110.968 54.0754 110.332 53.5979 109.975C53.1204 109.657 52.4042 109.498 51.8471 109.975C51.2104 110.332 50.9717 111.126 51.2104 111.881C51.29 112 51.4094 112.08 51.6083 112.119C51.7675 112.278 51.8869 112.199 51.7675 112.08Z" fill="#1D4A5E"/>
<path d="M51.8471 95.7953C51.8471 95.7953 51.8471 95.5967 51.7675 95.6761V95.4776C51.7675 95.4776 51.7675 95.4776 51.8869 95.3981C51.8869 95.3981 52.0063 95.3187 51.8869 95.1995L52.0063 95.1201C52.1256 95.0407 52.1256 95.0407 52.1256 95.0407C52.1256 95.0407 52.1256 95.0407 52.245 94.9612C52.245 94.9612 52.245 94.9612 52.3644 94.8818L52.4837 94.8024H52.6827C52.6827 94.8024 52.6827 94.8024 52.7623 94.9215C52.7623 94.9215 52.8419 95.0407 52.9612 94.9215L53.0408 95.0407C53.1204 95.1598 53.2398 95.2393 53.2398 95.2393C53.2398 95.2393 53.2398 95.4378 53.3194 95.3584C53.3194 95.3584 53.2 95.4378 53.3194 95.557L53.2 95.6364C53.2 95.6364 53.2 95.6364 53.0806 95.7159L52.9612 95.7953C52.9612 95.7953 52.9612 95.7953 52.8419 95.8747H52.6429H52.444C52.444 95.8747 52.444 95.8747 52.3644 95.7556C52.3644 95.7556 52.3644 95.7556 52.2848 95.6364C52.2052 95.5173 52.2052 95.5173 52.2052 95.5173L52.1256 95.3981C52.0461 95.279 51.8471 95.279 51.6084 95.279C51.489 95.3584 51.489 95.557 51.489 95.7953C52.245 96.8676 53.9958 96.4705 54.2743 95.279C54.3141 94.6832 54.155 94.0478 53.6775 93.6903C53.2 93.3329 52.4838 93.2137 51.9267 93.6903C51.29 94.0478 51.0513 94.8421 51.29 95.5967C51.3696 95.7159 51.489 95.7953 51.6879 95.835C51.8073 96.1925 51.8073 95.9939 51.8471 95.7953Z" fill="#1D4A5E"/>
<path d="M50.8124 81.9349C50.8124 81.9349 50.8124 81.7364 50.7328 81.8158V81.6172C50.7328 81.6172 50.7329 81.6172 50.8522 81.5378C50.8522 81.5378 50.9716 81.4583 50.8522 81.3392L50.9716 81.2598C51.091 81.1803 51.091 81.1803 51.091 81.1803C51.091 81.1803 51.091 81.1803 51.2103 81.1009C51.2103 81.1009 51.2103 81.1009 51.3297 81.0215L51.4491 80.942H51.648C51.648 80.942 51.648 80.942 51.7276 81.0612C51.7276 81.0612 51.8072 81.1803 51.9266 81.0612L52.0061 81.1803C52.0857 81.2995 52.2051 81.3789 52.2051 81.3789C52.2051 81.3789 52.2051 81.5775 52.2847 81.4981C52.2847 81.4981 52.1653 81.5775 52.2847 81.6966L52.1653 81.7761C52.1653 81.7761 52.1653 81.7761 52.0459 81.8555L51.9266 81.9349C51.9266 81.9349 51.9266 81.9349 51.8072 82.0144H51.6082H51.4093C51.4093 82.0144 51.4093 82.0144 51.3297 81.8952C51.3297 81.8952 51.3297 81.8952 51.2501 81.7761C51.1705 81.6569 51.1705 81.6569 51.1705 81.6569L51.091 81.5378C51.0114 81.4186 50.7726 81.4186 50.5737 81.4186C50.4543 81.4981 50.4543 81.7364 50.4543 81.9349C51.2103 83.0073 52.9611 82.6101 53.2397 81.4186C53.2794 80.8229 53.1203 80.1874 52.6428 79.83C52.1653 79.4725 51.4491 79.3534 50.892 79.83C50.2554 80.1874 50.0166 80.9817 50.2554 81.7364C50.3349 81.8555 50.4543 81.9349 50.6533 81.9746C50.7726 82.3718 50.892 82.0541 50.8124 81.9349Z" fill="#1D4A5E"/>
</g>
<defs>
<clipPath id="clip0_1724_33892">
<rect width="152" height="112" fill="white"/>
</clipPath>
</defs>
</svg>
