<svg width="15" height="15" viewBox="0 0 15 15" fill="none" xmlns="http://www.w3.org/2000/svg">
<g clip-path="url(#clip0_2104_53284)">
<path d="M3.89 5.42802L2.59375 5.80802C2.17253 5.93167 1.78183 6.14206 1.44676 6.42568C1.11168 6.7093 0.839646 7.05988 0.648121 7.45489C0.45975 7.84455 0.354833 8.26924 0.340088 8.70179C0.325343 9.13433 0.401096 9.56519 0.562496 9.96677C0.566871 9.97802 0.572496 9.98864 0.576871 9.99989L1.65187 9.82427C2.66509 9.56036 3.59161 9.03591 4.33937 8.30302C4.39806 8.24556 4.46748 8.20023 4.54369 8.16961C4.61989 8.13899 4.70138 8.12367 4.7835 8.12455C4.86562 8.12542 4.94677 8.14245 5.02231 8.17468C5.09784 8.20691 5.16629 8.25371 5.22375 8.31239C5.2812 8.37108 5.32653 8.4405 5.35715 8.51671C5.38778 8.59291 5.40309 8.6744 5.40222 8.75652C5.40135 8.83864 5.38431 8.91979 5.35208 8.99533C5.31985 9.07086 5.27306 9.13931 5.21437 9.19677C4.29406 10.0951 3.15221 10.7336 1.905 11.0474L1.1725 11.1686C1.59398 11.8536 2.11655 12.471 2.7225 12.9999L4.00562 12.5236L4.88062 12.0861C5.78266 11.6328 6.55489 10.958 7.125 10.1249L7.44937 9.64927C7.4945 9.57899 7.55325 9.51846 7.62217 9.47127C7.69108 9.42408 7.76875 9.39118 7.85059 9.37452C7.93243 9.35785 8.01679 9.35776 8.09866 9.37425C8.18054 9.39074 8.25829 9.42347 8.3273 9.47051C8.39632 9.51755 8.4552 9.57794 8.50048 9.64813C8.54576 9.71831 8.57651 9.79686 8.59092 9.87913C8.60533 9.9614 8.6031 10.0457 8.58437 10.1271C8.56564 10.2085 8.53079 10.2853 8.48187 10.353L8.15812 10.8286C7.46848 11.8378 6.53356 12.6551 5.44125 13.2036L4.4725 13.6868L3.94562 13.8818C5.21539 14.6221 6.65957 15.0104 8.12937 15.0068H8.70687C8.83609 15.0067 8.96217 14.967 9.06812 14.893C10.3918 13.9934 11.488 12.7981 12.27 11.4018L5.4625 4.71802C4.96577 5.01129 4.43847 5.24937 3.89 5.42802Z" fill="white"/>
<path d="M14.822 1.42816C14.7033 1.30992 14.5426 1.24353 14.3751 1.24353C14.2076 1.24353 14.0469 1.30992 13.9282 1.42816L10.9507 4.40566L10.7507 4.21003C10.2234 3.695 9.53127 3.38259 8.79622 3.32782C8.06117 3.27306 7.33037 3.47946 6.73257 3.91066C6.67507 3.95191 6.6182 3.98628 6.56007 4.02628L12.827 10.1788C13.0264 9.63883 13.1729 9.0808 13.2645 8.51253C13.342 8.01747 13.3 7.51104 13.142 7.0355C12.984 6.55995 12.7147 6.12907 12.3563 5.77878L11.8563 5.28878L14.8232 2.32191C14.9413 2.20308 15.0075 2.04229 15.0072 1.87477C15.007 1.70726 14.9404 1.54666 14.822 1.42816Z" fill="white"/>
</g>
<defs>
<clipPath id="clip0_2104_53284">
<rect width="15" height="15" fill="white"/>
</clipPath>
</defs>
</svg>
