<svg width="15" height="15" viewBox="0 0 15 15" fill="none" xmlns="http://www.w3.org/2000/svg">
<path d="M14.375 6.87402H13.125V5.62401C13.125 5.27884 12.8452 4.99902 12.5 4.99902C12.1548 4.99902 11.875 5.27884 11.875 5.62401V6.87402H10.625C10.2798 6.87402 10 7.15383 10 7.49901C10 7.84418 10.2798 8.124 10.625 8.124H11.875V9.37401C11.875 9.71918 12.1548 9.99899 12.5 9.99899C12.8452 9.99899 13.125 9.71918 13.125 9.37401V8.124H14.375C14.7202 8.124 15 7.84418 15 7.49901C15 7.15383 14.7202 6.87402 14.375 6.87402Z" fill="white"/>
<path d="M5.625 7.5C7.69607 7.5 9.375 5.82107 9.375 3.75C9.375 1.67893 7.69607 0 5.625 0C3.55393 0 1.875 1.67893 1.875 3.75C1.875 5.82107 3.55393 7.5 5.625 7.5Z" fill="white"/>
<path d="M5.625 8.74902C2.51982 8.75248 0.00345703 11.2688 0 14.374C0 14.7192 0.279814 14.999 0.62499 14.999H10.625C10.9702 14.999 11.25 14.7192 11.25 14.374C11.2465 11.2688 8.73018 8.75245 5.625 8.74902Z" fill="white"/>
</svg>
