<svg width="15" height="15" viewBox="0 0 15 15" fill="none" xmlns="http://www.w3.org/2000/svg">
<g clip-path="url(#clip0_831_29208)">
<path d="M1.44342 10.7451L4.88092 14.1826C4.40028 14.3784 3.87257 14.428 3.36387 14.3252C2.85517 14.2224 2.3881 13.9719 2.02113 13.6049C1.65416 13.238 1.4036 12.7709 1.30084 12.2622C1.19808 11.7535 1.24768 11.2258 1.44342 10.7451ZM4.57905 1.23763C4.74149 1.20448 4.88411 1.10815 4.97554 0.969842C5.06696 0.831534 5.0997 0.662573 5.06655 0.500128C5.03339 0.337682 4.93707 0.19506 4.79876 0.103636C4.66045 0.0122122 4.49149 -0.0205246 4.32905 0.0126275C2.65301 0.30625 1.15218 1.22834 0.132796 2.59075C0.0402826 2.72424 0.00336397 2.8885 0.0298601 3.04873C0.0563562 3.20897 0.144186 3.3526 0.274746 3.4492C0.405306 3.5458 0.568342 3.58778 0.729321 3.56626C0.8903 3.54473 1.03658 3.46139 1.13717 3.33388C1.97102 2.21721 3.20426 1.46611 4.57905 1.23763ZM14.4997 10.0145C14.3378 9.97899 14.1685 10.0092 14.0289 10.0985C13.8893 10.1878 13.7909 10.3289 13.7553 10.4908C13.5178 11.8394 12.7768 13.0474 11.6822 13.8701C11.5482 13.9679 11.4586 14.1149 11.4331 14.2788C11.4075 14.4426 11.4481 14.6099 11.5459 14.7439C11.6437 14.8778 11.7907 14.9674 11.9546 14.993C12.1184 15.0185 12.2857 14.9779 12.4197 14.8801C13.7573 13.8748 14.6694 12.4045 14.9759 10.7595C14.9936 10.6793 14.9953 10.5964 14.9809 10.5156C14.9666 10.4347 14.9364 10.3575 14.8922 10.2883C14.8479 10.2191 14.7905 10.1593 14.7232 10.1124C14.6558 10.0654 14.5799 10.0321 14.4997 10.0145ZM12.604 3.2795L13.5665 2.317C13.6262 2.25935 13.6739 2.19038 13.7066 2.11413C13.7394 2.03788 13.7566 1.95587 13.7573 1.87288C13.758 1.78989 13.7422 1.70759 13.7108 1.63078C13.6794 1.55397 13.633 1.48419 13.5743 1.42551C13.5156 1.36682 13.4458 1.32041 13.369 1.28899C13.2922 1.25756 13.2099 1.24175 13.1269 1.24247C13.0439 1.24319 12.9619 1.26043 12.8857 1.29319C12.8094 1.32594 12.7404 1.37356 12.6828 1.43325L11.719 2.397C10.8562 1.71132 9.8005 1.31257 8.69977 1.25653C7.59905 1.2005 6.50835 1.48999 5.5803 2.0845L2.1428 4.2095C1.7397 4.45862 1.39819 4.7957 1.14384 5.19551C0.889487 5.59532 0.728882 6.04749 0.674053 6.51817C0.619224 6.98885 0.671591 7.46583 0.827233 7.9134C0.982875 8.36097 1.23776 8.76753 1.5728 9.10263L5.92217 13.452C6.25789 13.7878 6.66537 14.0432 7.11397 14.1988C7.56258 14.3545 8.04064 14.4064 8.5122 14.3507C8.98377 14.295 9.43657 14.1331 9.83656 13.8772C10.2365 13.6213 10.5733 13.278 10.8215 12.8733L13.0715 9.20075C13.5887 8.27841 13.8204 7.22328 13.7371 6.16912C13.6539 5.11496 13.2596 4.10926 12.604 3.2795Z" fill="white"/>
</g>
<defs>
<clipPath id="clip0_831_29208">
<rect width="15" height="15" fill="white"/>
</clipPath>
</defs>
</svg>
