<svg width="15" height="15" viewBox="0 0 15 15" fill="none" xmlns="http://www.w3.org/2000/svg">
<g clip-path="url(#clip0_87_2223)">
<path d="M13.875 1.35167C13.5187 1.05439 13.1007 0.840196 12.6513 0.724629C12.2019 0.609062 11.7324 0.595027 11.2769 0.683542L10.1744 0.953542C9.59903 1.05898 9.07886 1.36282 8.70441 1.81218C8.32996 2.26155 8.12493 2.82799 8.125 3.41292V13.0798C7.71054 13.1404 7.28946 13.1404 6.875 13.0798V3.41292C6.87707 2.83338 6.67678 2.2713 6.30868 1.82367C5.94058 1.37604 5.42777 1.07095 4.85875 0.961042L3.6875 0.676042C3.23697 0.593601 2.77383 0.611198 2.33086 0.727589C1.88789 0.84398 1.47592 1.05632 1.1241 1.34958C0.772292 1.64283 0.489241 2.00984 0.294989 2.42461C0.100736 2.83938 3.05078e-05 3.29178 0 3.74979L0 10.4954C3.59099e-05 11.2272 0.25686 11.9357 0.725708 12.4975C1.19456 13.0593 1.84569 13.4388 2.56563 13.5698L6.49438 14.2842C7.15935 14.405 7.84065 14.405 8.50563 14.2842L12.4375 13.5698C13.1569 13.4382 13.8073 13.0584 14.2755 12.4966C14.7437 11.9349 15.0001 11.2267 15 10.4954V3.74979C15.0003 3.29194 14.8996 2.83967 14.7052 2.42516C14.5107 2.01066 14.2273 1.64413 13.875 1.35167Z" fill="white"/>
</g>
<defs>
<clipPath id="clip0_87_2223">
<rect width="15" height="15" fill="white"/>
</clipPath>
</defs>
</svg>
