<svg width="15" height="13" viewBox="0 0 15 13" fill="none" xmlns="http://www.w3.org/2000/svg">
<path d="M3.12543 12.75C3.45695 12.75 3.77489 12.6183 4.00931 12.3839C4.24373 12.1495 4.37543 11.8315 4.37543 11.5V7.75C4.37543 7.41848 4.24373 7.10054 4.00931 6.86612C3.77489 6.6317 3.45695 6.5 3.12543 6.5V5.875C3.12543 4.71468 3.58636 3.60188 4.40684 2.78141C5.22731 1.96094 6.34011 1.5 7.50043 1.5C8.66075 1.5 9.77355 1.96094 10.594 2.78141C11.4145 3.60188 11.8754 4.71468 11.8754 5.875V6.5C11.5439 6.5 11.226 6.6317 10.9915 6.86612C10.7571 7.10054 10.6254 7.41848 10.6254 7.75V11.5H8.75043C8.58467 11.5 8.4257 11.5658 8.30849 11.6831C8.19128 11.8003 8.12543 11.9592 8.12543 12.125C8.12543 12.2908 8.19128 12.4497 8.30849 12.5669C8.4257 12.6842 8.58467 12.75 8.75043 12.75H11.8754C12.5917 12.7479 13.2855 12.4997 13.8406 12.0472C14.3958 11.5946 14.7786 10.965 14.9251 10.2639C15.0715 9.56277 14.9727 8.83261 14.645 8.19567C14.3174 7.55872 13.781 7.05365 13.1254 6.765V5.875C13.1254 4.38316 12.5328 2.95242 11.4779 1.89752C10.423 0.842632 8.99227 0.25 7.50043 0.25C6.00858 0.25 4.57784 0.842632 3.52295 1.89752C2.46806 2.95242 1.87543 4.38316 1.87543 5.875V6.765C1.2199 7.05365 0.683427 7.55872 0.355815 8.19567C0.0282035 8.83261 -0.07066 9.56277 0.0757754 10.2639C0.222211 10.965 0.605057 11.5946 1.16022 12.0472C1.71538 12.4997 2.40917 12.7479 3.12543 12.75Z" fill="white"/>
</svg>
