<svg width="15" height="15" viewBox="0 0 15 15" fill="none" xmlns="http://www.w3.org/2000/svg">
<g clip-path="url(#clip0_87_2168)">
<path d="M10.625 4.375C10.625 4.54076 10.5592 4.69973 10.4419 4.81694C10.3247 4.93415 10.1658 5 10 5H5C4.83424 5 4.67527 4.93415 4.55806 4.81694C4.44085 4.69973 4.375 4.54076 4.375 4.375C4.375 4.20924 4.44085 4.05027 4.55806 3.93306C4.67527 3.81585 4.83424 3.75 5 3.75H10C10.1658 3.75 10.3247 3.81585 10.4419 3.93306C10.5592 4.05027 10.625 4.20924 10.625 4.375ZM14.375 3.125V11.875C14.374 12.7035 14.0444 13.4978 13.4586 14.0836C12.8728 14.6694 12.0785 14.999 11.25 15H3.75C2.9215 14.999 2.12722 14.6694 1.54139 14.0836C0.955551 13.4978 0.625992 12.7035 0.625 11.875V3.125C0.625992 2.2965 0.955551 1.50222 1.54139 0.916387C2.12722 0.330551 2.9215 0.000992411 3.75 0L11.25 0C12.0785 0.000992411 12.8728 0.330551 13.4586 0.916387C14.0444 1.50222 14.374 2.2965 14.375 3.125ZM4.375 11.25C4.375 11.1264 4.33834 11.0055 4.26967 10.9028C4.20099 10.8 4.10338 10.7199 3.98918 10.6726C3.87497 10.6253 3.74931 10.6129 3.62807 10.637C3.50683 10.6611 3.39547 10.7206 3.30806 10.8081C3.22065 10.8955 3.16112 11.0068 3.13701 11.1281C3.11289 11.2493 3.12527 11.375 3.17258 11.4892C3.21988 11.6034 3.29999 11.701 3.40277 11.7697C3.50555 11.8383 3.62639 11.875 3.75 11.875C3.91576 11.875 4.07473 11.8092 4.19194 11.6919C4.30915 11.5747 4.375 11.4158 4.375 11.25ZM4.375 8.75C4.375 8.62639 4.33834 8.50555 4.26967 8.40277C4.20099 8.29999 4.10338 8.21988 3.98918 8.17257C3.87497 8.12527 3.74931 8.11289 3.62807 8.13701C3.50683 8.16113 3.39547 8.22065 3.30806 8.30806C3.22065 8.39547 3.16112 8.50683 3.13701 8.62807C3.11289 8.74931 3.12527 8.87497 3.17258 8.98918C3.21988 9.10338 3.29999 9.20099 3.40277 9.26967C3.50555 9.33834 3.62639 9.375 3.75 9.375C3.91576 9.375 4.07473 9.30915 4.19194 9.19194C4.30915 9.07473 4.375 8.91576 4.375 8.75ZM6.875 11.25C6.875 11.1264 6.83834 11.0055 6.76967 10.9028C6.70099 10.8 6.60338 10.7199 6.48918 10.6726C6.37497 10.6253 6.24931 10.6129 6.12807 10.637C6.00683 10.6611 5.89547 10.7206 5.80806 10.8081C5.72065 10.8955 5.66112 11.0068 5.63701 11.1281C5.61289 11.2493 5.62527 11.375 5.67257 11.4892C5.71988 11.6034 5.79999 11.701 5.90277 11.7697C6.00555 11.8383 6.12639 11.875 6.25 11.875C6.41576 11.875 6.57473 11.8092 6.69194 11.6919C6.80915 11.5747 6.875 11.4158 6.875 11.25ZM6.875 8.75C6.875 8.62639 6.83834 8.50555 6.76967 8.40277C6.70099 8.29999 6.60338 8.21988 6.48918 8.17257C6.37497 8.12527 6.24931 8.11289 6.12807 8.13701C6.00683 8.16113 5.89547 8.22065 5.80806 8.30806C5.72065 8.39547 5.66112 8.50683 5.63701 8.62807C5.61289 8.74931 5.62527 8.87497 5.67257 8.98918C5.71988 9.10338 5.79999 9.20099 5.90277 9.26967C6.00555 9.33834 6.12639 9.375 6.25 9.375C6.41576 9.375 6.57473 9.30915 6.69194 9.19194C6.80915 9.07473 6.875 8.91576 6.875 8.75ZM11.875 11.25C11.875 11.0842 11.8092 10.9253 11.6919 10.8081C11.5747 10.6908 11.4158 10.625 11.25 10.625H8.75C8.58424 10.625 8.42527 10.6908 8.30806 10.8081C8.19085 10.9253 8.125 11.0842 8.125 11.25C8.125 11.4158 8.19085 11.5747 8.30806 11.6919C8.42527 11.8092 8.58424 11.875 8.75 11.875H11.25C11.4158 11.875 11.5747 11.8092 11.6919 11.6919C11.8092 11.5747 11.875 11.4158 11.875 11.25ZM8.75 9.375C8.87361 9.375 8.99445 9.33834 9.09723 9.26967C9.20001 9.20099 9.28012 9.10338 9.32743 8.98918C9.37473 8.87497 9.38711 8.74931 9.36299 8.62807C9.33887 8.50683 9.27935 8.39547 9.19194 8.30806C9.10453 8.22065 8.99317 8.16113 8.87193 8.13701C8.75069 8.11289 8.62503 8.12527 8.51082 8.17257C8.39662 8.21988 8.29901 8.29999 8.23033 8.40277C8.16166 8.50555 8.125 8.62639 8.125 8.75C8.125 8.91576 8.19085 9.07473 8.30806 9.19194C8.42527 9.30915 8.58424 9.375 8.75 9.375ZM11.875 8.75C11.875 8.62639 11.8383 8.50555 11.7697 8.40277C11.701 8.29999 11.6034 8.21988 11.4892 8.17257C11.375 8.12527 11.2493 8.11289 11.1281 8.13701C11.0068 8.16113 10.8955 8.22065 10.8081 8.30806C10.7206 8.39547 10.6611 8.50683 10.637 8.62807C10.6129 8.74931 10.6253 8.87497 10.6726 8.98918C10.7199 9.10338 10.8 9.20099 10.9028 9.26967C11.0055 9.33834 11.1264 9.375 11.25 9.375C11.4158 9.375 11.5747 9.30915 11.6919 9.19194C11.8092 9.07473 11.875 8.91576 11.875 8.75ZM11.875 4.375C11.875 3.87772 11.6775 3.40081 11.3258 3.04917C10.9742 2.69754 10.4973 2.5 10 2.5H5C4.50272 2.5 4.02581 2.69754 3.67417 3.04917C3.32254 3.40081 3.125 3.87772 3.125 4.375C3.125 4.87228 3.32254 5.34919 3.67417 5.70083C4.02581 6.05246 4.50272 6.25 5 6.25H10C10.4973 6.25 10.9742 6.05246 11.3258 5.70083C11.6775 5.34919 11.875 4.87228 11.875 4.375Z" fill="white"/>
</g>
<defs>
<clipPath id="clip0_87_2168">
<rect width="15" height="15" fill="white"/>
</clipPath>
</defs>
</svg>
