<svg width="25" height="25" viewBox="0 0 25 25" fill="none" xmlns="http://www.w3.org/2000/svg">
<g clip-path="url(#clip0_2182_37028)">
<path d="M24.3497 21.2562L14.5467 11.4531L3.09358 0H2.19851L2.01575 0.464404C1.53337 1.69019 1.32727 2.9439 1.4198 4.08984C1.52527 5.39609 2.02151 6.527 2.85496 7.36045L11.7959 16.3014L12.9752 15.1221L21.241 24.3649C22.0633 25.1872 23.4786 25.236 24.3497 24.3649C25.2068 23.5078 25.2068 22.1132 24.3497 21.2562ZM7.65271 14.2306L0.65022 21.2331C-0.206812 22.0901 -0.206812 23.4847 0.65022 24.3417C1.46438 25.1559 2.87283 25.2277 3.75886 24.3417L10.7614 17.3392L7.65271 14.2306ZM23.9381 4.16255L19.9659 8.13472L18.9296 7.09849L22.9018 3.12627L21.8656 2.09004L17.8934 6.06221L16.8572 5.02598L20.8294 1.05381L19.7932 0.017627L14.6121 5.19878C13.9787 5.83164 13.5995 6.67486 13.5463 7.56865C13.5327 7.79526 13.4814 8.01816 13.3962 8.23018L16.7618 11.5958C16.9739 11.5105 17.1968 11.4592 17.4234 11.4457C18.3172 11.3926 19.1604 11.0134 19.7932 10.3799L24.9744 5.19883L23.9381 4.16255Z" fill="#8000FF"/>
</g>
<defs>
<clipPath id="clip0_2182_37028">
<rect width="25" height="25" fill="white"/>
</clipPath>
</defs>
</svg>
