<svg width="25" height="25" viewBox="0 0 25 25" fill="none" xmlns="http://www.w3.org/2000/svg">
<g clip-path="url(#clip0_2182_37033)">
<path d="M12.5 5.46875C14.0102 5.46875 15.2344 4.24453 15.2344 2.73438C15.2344 1.22422 14.0102 0 12.5 0C10.9898 0 9.76562 1.22422 9.76562 2.73438C9.76562 4.24453 10.9898 5.46875 12.5 5.46875Z" fill="#8000FF"/>
<path d="M21.3379 6.25H3.66211C3.31246 6.25 2.97713 6.3889 2.72989 6.63614C2.48265 6.88338 2.34375 7.21871 2.34375 7.56836C2.34375 7.91801 2.48265 8.25334 2.72989 8.50058C2.97713 8.74782 3.31246 8.88672 3.66211 8.88672H8.63672C8.97412 8.88672 9.36914 9.0376 9.59277 9.61914C9.854 10.2944 9.72607 11.5986 9.56494 12.6089L9.354 13.8027C9.3544 13.8058 9.35407 13.809 9.35306 13.812C9.35204 13.8149 9.35036 13.8176 9.34814 13.8198L7.65869 23.4297C7.59742 23.7785 7.67682 24.1374 7.87951 24.4279C8.0822 24.7183 8.39168 24.9167 8.74023 24.9795C8.91256 25.01 9.08922 25.0059 9.25997 24.9676C9.43071 24.9292 9.59214 24.8573 9.73487 24.756C9.8776 24.6548 9.99879 24.5262 10.0914 24.3777C10.184 24.2292 10.2462 24.0638 10.2744 23.8911L11.4419 17.2114C11.4419 17.2114 11.8164 15.625 12.5 15.625C13.1948 15.625 13.5615 17.2114 13.5615 17.2114L14.729 23.897C14.7572 24.0712 14.8199 24.2381 14.9133 24.3879C15.0067 24.5377 15.1289 24.6674 15.2729 24.7694C15.417 24.8715 15.5799 24.9438 15.7521 24.9823C15.9244 25.0208 16.1026 25.0245 16.2764 24.9934C16.4501 24.9623 16.6159 24.8969 16.7642 24.8011C16.9124 24.7053 17.04 24.5809 17.1397 24.4352C17.2394 24.2895 17.309 24.1254 17.3447 23.9526C17.3803 23.7797 17.3811 23.6014 17.3472 23.4282L15.6572 13.8184C15.6576 13.8153 15.6573 13.8122 15.6564 13.8092C15.6554 13.8063 15.6539 13.8036 15.6519 13.8013L15.4404 12.6074C15.2793 11.5972 15.1514 10.293 15.4126 9.61768C15.6353 9.0376 16.043 8.88525 16.354 8.88525H21.3379C21.6875 8.88525 22.0229 8.74636 22.2701 8.49912C22.5174 8.25188 22.6562 7.91655 22.6562 7.56689C22.6562 7.21724 22.5174 6.88191 22.2701 6.63467C22.0229 6.38743 21.6875 6.24854 21.3379 6.24854V6.25Z" fill="#8000FF"/>
</g>
<defs>
<clipPath id="clip0_2182_37033">
<rect width="25" height="25" fill="white"/>
</clipPath>
</defs>
</svg>
