<svg width="25" height="25" viewBox="0 0 25 25" fill="none" xmlns="http://www.w3.org/2000/svg">
<path d="M20.3125 9.86689e-08H4.6875C4.07189 -0.000126219 3.46229 0.121033 2.89352 0.356557C2.32475 0.592082 1.80796 0.937356 1.37266 1.37266C0.937356 1.80796 0.592082 2.32475 0.356557 2.89352C0.121033 3.46229 -0.000126219 4.07189 9.86689e-08 4.6875V20.3125C-0.000126219 20.9281 0.121033 21.5377 0.356557 22.1065C0.592082 22.6752 0.937356 23.192 1.37266 23.6273C1.80796 24.0626 2.32475 24.4079 2.89352 24.6434C3.46229 24.879 4.07189 25.0001 4.6875 25H20.3125C20.9281 25.0001 21.5377 24.879 22.1065 24.6434C22.6752 24.4079 23.192 24.0626 23.6273 23.6273C24.0626 23.192 24.4079 22.6752 24.6434 22.1065C24.879 21.5377 25.0001 20.9281 25 20.3125V4.6875C25.0001 4.07189 24.879 3.46229 24.6434 2.89352C24.4079 2.32475 24.0626 1.80796 23.6273 1.37266C23.192 0.937356 22.6752 0.592082 22.1065 0.356557C21.5377 0.121033 20.9281 -0.000126219 20.3125 9.86689e-08ZM17.3077 11.5385H7.69231L3.84615 6.73077C3.84615 6.73077 6.73077 2.88462 12.5 2.88462C18.2692 2.88462 21.1538 6.73077 21.1538 6.73077L17.3077 11.5385Z" fill="#8000FF"/>
<path d="M15.0126 10.5769L16.3289 4.81732L12.5193 10.5769H15.0126Z" fill="#8000FF"/>
</svg>
