<svg width="31" height="25" viewBox="0 0 31 25" fill="none" xmlns="http://www.w3.org/2000/svg">
<path d="M28.6882 3.393C28.2405 3.20654 27.7475 3.15753 27.272 3.25221C26.7964 3.34688 26.3597 3.58097 26.0177 3.92465L22.8498 7.0925L17.232 1.47465C16.7725 1.01535 16.1495 0.757324 15.4998 0.757324C14.8502 0.757324 14.2271 1.01535 13.7677 1.47465L8.14981 7.0925L4.98195 3.92465C4.63932 3.58212 4.20282 3.34886 3.72763 3.25437C3.25245 3.15988 2.75992 3.2084 2.3123 3.39379C1.86469 3.57918 1.48209 3.89312 1.21287 4.29593C0.943654 4.69873 0.799908 5.17231 0.799805 5.6568V18.6247C0.80175 20.2485 1.44769 21.8053 2.59592 22.9535C3.74416 24.1018 5.30095 24.7477 6.9248 24.7497H24.0748C25.6987 24.7477 27.2554 24.1018 28.4037 22.9535C29.5519 21.8053 30.1979 20.2485 30.1998 18.6247V5.6568C30.1999 5.17228 30.0564 4.69859 29.7873 4.29564C29.5182 3.89269 29.1357 3.57857 28.6882 3.393Z" fill="#FFCA7B"/>
</svg>
