<svg width="15" height="15" viewBox="0 0 15 15" fill="none" xmlns="http://www.w3.org/2000/svg">
<g clip-path="url(#clip0_786_4814)">
<path d="M0.943785 3.7989C1.0669 3.79874 1.18883 3.82295 1.30253 3.87015C1.41624 3.91735 1.51948 3.9866 1.60628 4.0739L6.40191 8.8689C6.54701 9.01403 6.71927 9.12916 6.90887 9.20771C7.09847 9.28626 7.30168 9.32669 7.50691 9.32669C7.71213 9.32669 7.91535 9.28626 8.10495 9.20771C8.29455 9.12916 8.46681 9.01403 8.61191 8.8689L13.4 4.08015C13.4865 3.99061 13.59 3.91919 13.7043 3.87006C13.8187 3.82092 13.9417 3.79506 14.0662 3.79398C14.1907 3.7929 14.3142 3.81662 14.4294 3.86376C14.5446 3.9109 14.6493 3.98051 14.7373 4.06853C14.8253 4.15656 14.8949 4.26123 14.9421 4.37645C14.9892 4.49166 15.0129 4.61511 15.0118 4.73959C15.0107 4.86407 14.9849 4.98709 14.9358 5.10147C14.8866 5.21585 14.8152 5.31929 14.7257 5.40578L9.93753 10.1945C9.29248 10.8384 8.41831 11.2 7.50691 11.2C6.59551 11.2 5.72134 10.8384 5.07628 10.1945L0.28066 5.39953C0.149462 5.26841 0.0601057 5.10133 0.0238969 4.91942C-0.012312 4.7375 0.00625437 4.54894 0.0772465 4.37758C0.148239 4.20622 0.268466 4.05977 0.422715 3.95676C0.576964 3.85376 0.758303 3.79882 0.943785 3.7989Z" fill="#7300E5"/>
</g>
<defs>
<clipPath id="clip0_786_4814">
<rect width="15" height="15" fill="white"/>
</clipPath>
</defs>
</svg>
