<svg width="20" height="24" viewBox="0 0 20 24" fill="none" xmlns="http://www.w3.org/2000/svg">
<path d="M16.581 2.14024L10.316 0.0512408C10.1109 -0.0170803 9.88913 -0.0170803 9.684 0.0512408L3.418 2.14024C2.42209 2.47129 1.55582 3.10774 0.942241 3.95918C0.328659 4.81062 -0.00103107 5.83375 2.42237e-06 6.88324V12.0002C2.42237e-06 19.5632 9.2 23.7402 9.594 23.9142C9.72182 23.971 9.86014 24.0004 10 24.0004C10.1399 24.0004 10.2782 23.971 10.406 23.9142C10.8 23.7402 20 19.5632 20 12.0002V6.88324C20.001 5.83363 19.6711 4.8104 19.0574 3.95895C18.4436 3.1075 17.5771 2.47112 16.581 2.14024ZM10 19.0002C9.80222 19.0002 9.60888 18.9416 9.44443 18.8317C9.27998 18.7218 9.15181 18.5657 9.07612 18.3829C9.00044 18.2002 8.98063 17.9991 9.01922 17.8052C9.0578 17.6112 9.15304 17.433 9.2929 17.2931C9.43275 17.1533 9.61093 17.058 9.80491 17.0195C9.99889 16.9809 10.2 17.0007 10.3827 17.0764C10.5654 17.1521 10.7216 17.2802 10.8315 17.4447C10.9414 17.6091 11 17.8025 11 18.0002C11 18.2655 10.8946 18.5198 10.7071 18.7073C10.5196 18.8949 10.2652 19.0002 10 19.0002ZM11 14.0002C11 14.2655 10.8946 14.5198 10.7071 14.7073C10.5196 14.8949 10.2652 15.0002 10 15.0002C9.73479 15.0002 9.48043 14.8949 9.2929 14.7073C9.10536 14.5198 9 14.2655 9 14.0002V6.00024C9 5.73502 9.10536 5.48067 9.2929 5.29313C9.48043 5.1056 9.73479 5.00024 10 5.00024C10.2652 5.00024 10.5196 5.1056 10.7071 5.29313C10.8946 5.48067 11 5.73502 11 6.00024V14.0002Z" fill="#DA1E28"/>
</svg>
