<svg width="25" height="25" viewBox="0 0 25 25" fill="none" xmlns="http://www.w3.org/2000/svg">
<g clip-path="url(#clip0_398_3964)">
<path d="M13.371 0.0285348C11.5851 -0.0964225 9.79327 0.163686 8.11663 0.791261C6.43999 1.41884 4.91771 2.39923 3.65281 3.66611C2.3879 4.93299 1.40988 6.4568 0.784926 8.13441C0.159968 9.81203 -0.0973442 11.6043 0.0303997 13.39C0.489775 20.0077 6.33561 24.9994 13.6283 24.9994H19.7919C21.1727 24.9977 22.4965 24.4485 23.4729 23.4721C24.4493 22.4957 24.9985 21.1719 25.0002 19.791V12.8535C25.039 9.64254 23.8618 6.53572 21.7047 4.15684C19.5476 1.77796 16.5705 0.303157 13.371 0.0285348ZM19.4794 10.116L12.4033 17.1025C12.0128 17.4915 11.4842 17.7099 10.933 17.7099C10.3819 17.7099 9.85316 17.4915 9.46269 17.1025L5.52103 13.2442C5.32349 13.0508 5.21088 12.7868 5.20795 12.5104C5.20502 12.234 5.31201 11.9677 5.5054 11.7702C5.69879 11.5727 5.96272 11.4601 6.23914 11.4571C6.51556 11.4542 6.78183 11.5612 6.97936 11.7546L10.9304 15.616L18.02 8.63687C18.2199 8.46096 18.4796 8.36829 18.7457 8.37792C19.0119 8.38755 19.2642 8.49873 19.4509 8.68862C19.6376 8.87852 19.7445 9.1327 19.7496 9.39895C19.7547 9.6652 19.6576 9.9233 19.4783 10.1202L19.4794 10.116Z" fill="#05C338"/>
</g>
<defs>
<clipPath id="clip0_398_3964">
<rect width="25" height="25" fill="white"/>
</clipPath>
</defs>
</svg>
