<svg width="232" height="172" viewBox="0 0 232 172" fill="none" xmlns="http://www.w3.org/2000/svg">
<g clip-path="url(#clip0_525_17019)">
<path d="M147.564 146.53H153.932V153.708H147.564V146.53Z" fill="#C6C7C9"/>
<path d="M133.427 145.86C133.427 145.86 137.272 180.446 138.08 190.286C105.314 190.286 105.314 190.286 105.314 190.286V177.469H103.697V190.306H73.3563C73.3563 190.306 74.5392 165.026 80.493 142.291C110.223 139.49 133.427 145.86 133.427 145.86Z" fill="#6FB590"/>
<path d="M103.698 177.468C103.698 177.468 99.3021 166.169 100.327 140.653C106.715 142.448 106.715 140.653 106.715 140.653L105.315 177.468H103.698Z" fill="#589975"/>
<path d="M14.647 44.1699H19.7334V45.7869C23.0455 48.0545 25.293 52.4518 25.293 57.4998C25.293 62.5675 23.0455 66.9648 19.7334 69.2128V70.8297H14.647C8.75222 70.8297 3.98121 64.8549 3.98121 57.4801C4.00093 50.1447 8.77193 44.1699 14.647 44.1699Z" fill="#FDB03E"/>
<path d="M19.7522 70.8691C13.8617 70.8691 9.08651 64.8923 9.08651 57.5195C9.08651 50.1467 13.8617 44.1699 19.7522 44.1699C25.6428 44.1699 30.418 50.1467 30.418 57.5195C30.418 64.8923 25.6428 70.8691 19.7522 70.8691Z" fill="#D38620"/>
<path d="M19.7316 66.9847C15.9752 66.9847 12.93 62.7471 12.93 57.5197C12.93 52.2923 15.9752 48.0547 19.7316 48.0547C23.488 48.0547 26.5332 52.2923 26.5332 57.5197C26.5332 62.7471 23.488 66.9847 19.7316 66.9847Z" fill="#FDB03E"/>
<path d="M19.7513 64.6184C16.9312 64.6184 14.6451 61.4402 14.6451 57.5197C14.6451 53.5991 16.9312 50.4209 19.7513 50.4209C22.5713 50.4209 24.8574 53.5991 24.8574 57.5197C24.8574 61.4402 22.5713 64.6184 19.7513 64.6184Z" stroke="#D38620" stroke-width="2.2892" stroke-miterlimit="10"/>
<path d="M32.883 59.7085H19.7135C18.4517 59.7085 17.4266 58.6832 17.4266 57.4212C17.4266 56.1592 18.4517 55.1338 19.7135 55.1338H32.883C34.1447 55.1338 35.1699 56.1592 35.1699 57.4212C35.1699 58.6832 34.1447 59.7085 32.883 59.7085Z" fill="#19657C"/>
<path d="M91.3963 22.0849C91.3963 22.0849 84.8904 20.7834 82.8992 14.7298C81.2037 9.56344 85.5804 13.6255 85.5804 13.6255C85.5804 13.6255 83.3921 9.64232 83.6878 6.17182C83.9835 2.68159 87.9659 8.26201 87.9659 8.26201C87.9659 8.26201 86.9802 2.99709 88.2617 0.49281C89.5628 -1.99176 93.2101 5.56053 95.7533 7.35494C98.3162 9.14935 109.159 9.44513 112.531 14.5129C114.325 10.0367 115.606 12.0283 115.113 14.9072C118.603 14.5129 119.49 16.2087 115.508 17.3918C118.583 24.5497 113.023 42.4741 111.722 45.7474C110.421 49.0404 107.148 27.1329 107.148 27.1329L106.951 21.7694C106.951 21.7891 100.091 15.3213 91.3963 22.0849Z" fill="#842A0F"/>
<path opacity="0.26" d="M90.7446 17.6087C91.8092 18.8116 92.3021 20.1327 92.5189 21.2764C92.1443 21.5327 91.7698 21.7891 91.3755 22.0849C91.3755 22.0849 84.8696 20.7834 82.8784 14.7298C81.1829 9.56345 85.5596 13.6255 85.5596 13.6255C85.5596 13.6255 83.3712 9.64232 83.667 6.17182C83.9627 2.68159 87.9451 8.26201 87.9451 8.26201C87.9451 8.26201 86.9593 2.99709 88.2408 0.49281C89.542 -1.99176 93.1892 5.56053 95.7324 7.35494C98.2954 9.14935 109.139 9.44513 112.51 14.5129C112.51 14.5129 104.348 10.924 99.3205 11.2198C94.2933 11.5156 93.5441 9.87895 92.3612 9.12963C91.1586 8.38032 89.9757 13.0142 92.3612 14.4931C87.4522 12.8762 86.565 13.6847 90.7446 17.6087Z" fill="white"/>
<path d="M85.0664 52.334C85.0664 52.334 67.7568 51.9396 63.5772 68.6611C52.2412 77.4162 48.2588 82.1882 48.2588 82.1882L38.7168 60.8919C38.7168 60.8919 40.3137 58.3087 41.1023 55.7256C41.8909 53.1424 40.1166 50.7565 38.1254 48.7649C36.1342 46.7733 31.7575 44.1901 28.5834 43.9929C25.4093 43.7957 19.2385 54.5425 18.4302 58.3285C17.6416 62.1145 22.6295 67.0836 23.6153 71.4612C24.601 75.8387 36.5482 108.473 40.7277 112.259C44.9073 116.045 55.1196 111.865 61.7438 105.299C68.3679 98.7322 81.498 85.3629 81.498 85.3629L85.0664 52.334Z" fill="#E48464"/>
<path d="M98.591 50.342L85.0666 52.3336C85.0666 52.3336 79.7042 67.8523 79.4874 92.7374C79.2902 117.622 80.4731 142.291 80.4731 142.291C80.4731 142.291 104.17 152.032 133.427 145.86C130.45 116.203 139.992 74.2214 139.992 71.027C134.019 57.3027 128.755 52.9252 128.755 52.9252L108.961 49.3955L98.591 50.342Z" fill="#19657C"/>
<path d="M96.9155 43.1844L95.2792 55.8241L113.535 57.5199L111.229 36.2236L106.26 36.7363L96.9155 43.1844Z" fill="#E48464"/>
<path d="M96.9169 43.1846L99.6179 41.3311L106.676 41.5085C106.676 41.5085 104.231 48.0749 96.1086 49.4355L96.9169 43.1846Z" fill="#590A06"/>
<path d="M90.745 17.6084C90.745 17.6084 87.6695 35.513 87.7681 41.8822C87.8667 48.2514 105.176 45.471 110.243 38.0962C109.04 30.2284 108.252 25.4565 110.243 21.8677C110.736 19.6986 98.8084 14.5323 90.745 17.6084Z" fill="#E48464"/>
<path d="M87.7677 41.8824C87.748 40.8768 87.8071 39.5951 87.9254 38.1556C88.8126 37.4063 89.7589 36.8936 90.3306 36.7358C92.1247 36.2626 93.6822 35.9077 93.6822 35.9077C93.6822 35.9077 98.118 35.1583 98.1574 38.4711C98.1969 41.1331 96.6985 44.1895 96.1071 45.2938C91.5727 45.8262 87.8071 44.86 87.7677 41.8824Z" fill="#842A0F"/>
<path d="M90.5483 30.0508C90.5483 30.0508 89.3457 35.4143 89.4443 36.4199C89.5429 37.4059 93.3281 35.8284 93.3281 35.8284" stroke="#721917" stroke-width="1.7188" stroke-miterlimit="10"/>
<path d="M95.8911 28.6907C95.8911 28.6907 98.3554 27.6062 101.924 30.4457C98.2963 30.6034 96.0094 31.057 96.0094 31.057C96.0094 31.057 95.5165 30.1696 95.8911 28.6907Z" fill="white"/>
<path d="M99.3404 28.9075C99.6953 29.3413 99.9121 29.8934 99.9121 30.5047C99.9121 30.5244 99.9121 30.5244 99.9121 30.5441C97.4675 30.7413 95.9889 31.0371 95.9889 31.0371C95.9889 31.0371 95.5157 30.1695 95.8706 28.6708C95.8903 28.6906 97.2309 28.099 99.3404 28.9075Z" fill="#842A0F"/>
<path d="M101.924 30.4452C101.924 30.4452 99.6172 27.8226 95.2799 28.8086" stroke="#721917" stroke-width="1.7188" stroke-miterlimit="10"/>
<path d="M94.9257 25.3188C94.9257 25.3188 99.7558 24.1159 102.693 26.423C102.634 24.2934 99.8544 21.8877 95.2806 22.499C94.078 23.9779 94.9257 25.3188 94.9257 25.3188Z" fill="#842A0F"/>
<path d="M89.4635 25.6344C89.5818 24.7865 89.7198 23.9978 89.8381 23.2287C90.0155 23.1301 90.2126 23.071 90.4492 23.0907C90.0944 23.7808 90.2521 25.5358 90.2521 25.5358L89.4635 25.6344Z" fill="#842A0F"/>
<path opacity="0.59" d="M102.318 35.4154C100.685 35.4154 99.3609 34.7179 99.3609 33.8576C99.3609 32.9972 100.685 32.2998 102.318 32.2998C103.951 32.2998 105.275 32.9972 105.275 33.8576C105.275 34.7179 103.951 35.4154 102.318 35.4154Z" fill="#A5131E"/>
<path d="M90.5288 38.9451C90.1739 38.7282 90.3119 38.1958 90.7259 38.1761C91.9483 38.1169 94.1366 37.9789 95.2801 37.5648C96.9164 36.9732 96.7193 39.0634 94.3338 39.3986C92.6777 39.6353 91.3174 39.4184 90.5288 38.9451Z" fill="white"/>
<path d="M108.036 32.0231C106.774 34.5471 107.641 37.5246 109.968 38.688C112.274 39.8317 115.172 38.7077 116.434 36.1837C117.696 33.6597 116.828 30.6822 114.502 29.5188C112.195 28.3554 109.297 29.4793 108.036 32.0231Z" fill="#E48464"/>
<path opacity="0.57" d="M110.065 34.4676C111.327 31.9435 114.205 30.8196 116.532 31.9633C116.591 32.0027 116.67 32.0421 116.729 32.0816C117.163 33.3436 117.104 34.8225 116.433 36.1634C115.171 38.6874 112.293 39.8113 109.967 38.6677C109.908 38.6282 109.829 38.5888 109.77 38.5493C109.336 37.3071 109.395 35.8281 110.065 34.4676Z" fill="#B55643"/>
<path opacity="0.57" d="M39.407 101.099C45.8734 101.099 51.3147 105.575 52.7539 111.609C47.9435 113.896 43.2316 114.527 40.7081 112.24C39.3872 111.037 37.2975 106.975 35.0105 101.809C36.3906 101.355 37.8692 101.099 39.407 101.099Z" fill="#B55643"/>
<path d="M48.2592 82.1885L53.1484 92.4422" stroke="#721917" stroke-width="2.2917" stroke-miterlimit="10"/>
<path d="M108.941 49.415L117.951 51.0123C117.202 56.9476 113.634 77.2382 100.306 75.0297C87.6692 72.9395 89.0295 57.4406 89.9955 51.6235L98.5715 50.3615L108.941 49.415Z" fill="#E48464"/>
<path d="M117.951 51.0127C117.202 56.948 113.634 77.2387 100.306 75.0302C87.6692 72.94 89.0295 57.441 89.9955 51.624" stroke="white" stroke-width="6.8752" stroke-miterlimit="10"/>
<path d="M139.992 71.0466C139.992 72.6438 137.607 83.9426 135.576 98.574C115.92 87.4723 121.48 59.4125 123.373 51.9785L128.755 52.9447C128.755 52.925 134.019 57.3026 139.992 71.0466Z" fill="#E48464"/>
<path d="M123.373 51.9785C123.373 51.9785 113.574 85.737 135.576 98.574" stroke="white" stroke-width="6.8752" stroke-miterlimit="10"/>
<path d="M42.9165 44.1699H48.0029V45.7869C51.315 48.0545 53.5625 52.4518 53.5625 57.4998C53.5625 62.5675 51.315 66.9648 48.0029 69.2128V70.8297H42.9165C37.0217 70.8297 32.2508 64.8549 32.2508 57.4801C32.2508 50.1447 37.0217 44.1699 42.9165 44.1699Z" fill="#FDB03E"/>
<path d="M48.0042 70.8691C42.1137 70.8691 37.3385 64.8923 37.3385 57.5195C37.3385 50.1467 42.1137 44.1699 48.0042 44.1699C53.8947 44.1699 58.6699 50.1467 58.6699 57.5195C58.6699 64.8923 53.8947 70.8691 48.0042 70.8691Z" fill="#D38620"/>
<path d="M47.9835 66.9847C44.2271 66.9847 41.1819 62.7471 41.1819 57.5197C41.1819 52.2923 44.2271 48.0547 47.9835 48.0547C51.74 48.0547 54.7852 52.2923 54.7852 57.5197C54.7852 62.7471 51.74 66.9847 47.9835 66.9847Z" fill="#FDB03E"/>
<path d="M48.4759 64.6184C45.6558 64.6184 43.3697 61.4402 43.3697 57.5197C43.3697 53.5991 45.6558 50.4209 48.4759 50.4209C51.2959 50.4209 53.582 53.5991 53.582 57.5197C53.582 61.4402 51.2959 64.6184 48.4759 64.6184Z" stroke="#D38620" stroke-width="2.2892" stroke-miterlimit="10"/>
<path d="M53.4045 59.7085H48.5546C47.2929 59.7085 46.2677 58.6832 46.2677 57.4212C46.2677 56.1592 47.2929 55.1338 48.5546 55.1338H53.4045C54.6662 55.1338 55.6914 56.1592 55.6914 57.4212C55.6717 58.6832 54.6662 59.7085 53.4045 59.7085Z" fill="#19657C"/>
<path d="M84.4754 75.4043C84.4754 75.4043 100.346 91.5343 117.951 95.0442C106.556 94.8273 95.1805 95.5766 84.4754 75.4043Z" fill="#114956"/>
<path d="M95.8722 27.8627C95.8722 27.8627 99.9532 27.4091 102.043 29.6571" stroke="#721917" stroke-width="0.5729" stroke-miterlimit="10"/>
<path opacity="0.57" d="M104.408 55.9228L99.9329 55.7256C99.9329 55.7256 100.11 60.9905 101.589 61.306C103.087 61.5821 104.408 55.9228 104.408 55.9228Z" fill="#B55643"/>
<path d="M95.0242 88.4387L98.8292 95.8333L100.603 94.9262L96.8182 87.5317L98.1983 86.8218L101.984 94.2163L103.758 93.3093L99.9726 85.9147L101.53 85.126L105.966 93.8417C106.755 95.3797 106.143 97.2727 104.606 98.0812L102.279 99.2643C100.741 100.053 98.8489 99.4418 98.0406 97.9037L93.5653 89.1683L95.0242 88.4387Z" fill="#C6C7C9"/>
<path d="M101.711 97.6957L103.658 96.6963L113.956 116.766L112.009 117.766L101.711 97.6957Z" fill="#C6C7C9"/>
<path d="M84.4371 52.1357C83.6091 55.0147 82.919 57.8936 82.3276 60.812C82.1896 61.5416 82.0319 62.2712 81.8939 63.0008L81.4996 65.1896C81.263 66.6488 81.0264 68.1079 80.8293 69.5869C80.6124 71.046 80.4547 72.5249 80.2773 74.0039L80.0801 76.2124C80.0407 76.587 80.0013 76.942 79.9815 77.3166L79.9027 78.4209C79.6661 81.3787 79.6267 84.3365 79.6267 87.2943C79.745 84.3365 79.883 81.3984 80.2378 78.4603L80.3561 77.356C80.3956 76.9814 80.4547 76.6265 80.4941 76.2518L80.7898 74.063C81.0264 72.6038 81.2236 71.1446 81.4996 69.7052C81.7559 68.246 82.0516 66.8065 82.3473 65.367L82.8205 63.2177C82.9782 62.5078 83.1556 61.7782 83.3331 61.0683C84.0428 58.2091 84.8117 55.3696 85.7383 52.5893L84.4371 52.1357Z" fill="white"/>
<path opacity="0.17" d="M107.227 19.1473C106.931 25.0037 105.433 39.5562 98.0986 44.9788C92.7361 46.0831 87.8074 45.2943 87.768 41.9027C87.6694 35.5336 90.7449 17.6289 90.7449 17.6289C96.1271 15.5584 103.244 17.1754 107.227 19.1473Z" fill="white"/>
<path d="M109.099 100.053C109.099 100.053 100.228 104.825 99.9319 107.073C100.09 108.709 100.839 109.163 100.839 109.163C100.839 109.163 100.287 112.456 101.233 113.047C102.475 113.501 103.697 113.678 103.697 113.678C103.697 113.678 103.816 116.932 107.542 117.977C111.268 119.022 113.535 119.417 113.535 119.417C113.535 119.417 110.499 101.394 109.099 100.053Z" fill="#CE7057"/>
<path d="M79.4887 146.372C79.4887 146.372 103.344 155.936 133.764 148.817" stroke="#479369" stroke-width="1.7835" stroke-miterlimit="10"/>
<path d="M127.828 150.021L132.422 190.306" stroke="#479369" stroke-width="1.7835" stroke-miterlimit="10"/>
<path d="M130.885 96.7793C130.885 96.7793 125.857 123.833 127.928 146.372" stroke="#114956" stroke-width="2.2917" stroke-miterlimit="10"/>
<path d="M128.756 52.9258C128.756 52.9258 144.37 53.123 152.532 71.2248C168.244 93.3098 175.618 101.473 175.618 101.473C175.618 101.473 188.551 118.786 178.2 123.953C168.244 128.725 149.949 123.164 139.007 120.778C128.066 118.392 115.921 119.792 113.536 119.378C111.15 118.984 109.987 117.189 110.263 115.592C110.539 113.995 110.638 113.009 109.494 111.609C108.351 110.209 108.154 108.631 108.745 106.64C109.337 104.648 108.292 102.854 108.41 101.059C108.548 99.2649 114.305 97.4705 117.498 97.6677C120.673 97.8649 134.02 101.059 139.382 101.256C144.744 101.454 145.947 101.651 145.947 101.651L132.423 82.7406C132.423 82.78 121.895 67.0641 128.756 52.9258Z" fill="#E48464"/>
<path opacity="0.57" d="M167.318 125.845C167.594 118.234 173.488 112.042 180.98 111.312C182.754 116.163 183.188 121.487 178.2 123.972C175.184 125.411 171.418 125.924 167.318 125.845Z" fill="#B55643"/>
<path d="M145.966 101.69C145.966 101.69 161.324 100.191 168.875 102.282" stroke="#721917" stroke-width="2.2917" stroke-miterlimit="10"/>
<path d="M136.977 89.1494L132.422 82.7803" stroke="#721917" stroke-width="2.2917" stroke-miterlimit="10"/>
<path d="M114.581 128.507C114.581 130.163 115.922 131.504 117.578 131.504C119.234 131.504 120.574 130.163 120.574 128.507C120.574 126.851 119.234 125.51 117.578 125.51C115.941 125.51 114.581 126.851 114.581 128.507Z" fill="#AD300E"/>
<path d="M116.907 130.48C118.563 130.48 119.904 129.139 119.904 127.482C119.904 127.088 119.825 126.713 119.687 126.358C120.239 126.911 120.594 127.66 120.594 128.508C120.594 130.164 119.253 131.505 117.597 131.505C116.335 131.505 115.251 130.736 114.817 129.632C115.35 130.164 116.079 130.48 116.907 130.48Z" fill="#8C240C"/>
<path opacity="0.44" d="M115.704 127.166C115.271 127.935 115.29 128.763 115.744 129.039C116.217 129.315 116.946 128.901 117.38 128.132C117.814 127.363 117.794 126.535 117.341 126.259C116.867 126.002 116.138 126.416 115.704 127.166Z" fill="white"/>
<path d="M119.152 131.507C118.778 129.894 119.781 128.283 121.393 127.909C123.005 127.535 124.616 128.538 124.99 130.151C125.364 131.763 124.361 133.374 122.749 133.748C121.137 134.123 119.526 133.119 119.152 131.507Z" fill="#AD300E"/>
<path d="M121.382 132.806C123.038 132.806 124.378 131.465 124.378 129.809C124.378 129.414 124.299 129.04 124.161 128.685C124.713 129.237 125.068 129.986 125.068 130.834C125.068 132.49 123.728 133.831 122.072 133.831C120.81 133.831 119.726 133.062 119.292 131.958C119.824 132.471 120.554 132.806 121.382 132.806Z" fill="#8C240C"/>
<path opacity="0.44" d="M120.179 129.494C119.745 130.263 119.765 131.091 120.218 131.367C120.672 131.643 121.421 131.229 121.855 130.46C122.288 129.691 122.269 128.863 121.815 128.587C121.362 128.33 120.613 128.725 120.179 129.494Z" fill="white"/>
<path d="M123.242 131.812C122.863 130.2 123.861 128.587 125.472 128.208C127.083 127.829 128.696 128.828 129.075 130.439C129.454 132.05 128.456 133.664 126.845 134.043C125.234 134.422 123.621 133.423 123.242 131.812Z" fill="#AD300E"/>
<path d="M125.464 133.101C127.12 133.101 128.46 131.76 128.46 130.103C128.46 129.709 128.382 129.334 128.244 128.979C128.796 129.532 129.15 130.281 129.15 131.129C129.15 132.785 127.81 134.126 126.154 134.126C124.892 134.126 123.808 133.357 123.374 132.253C123.906 132.766 124.636 133.101 125.464 133.101Z" fill="#8C240C"/>
<path opacity="0.44" d="M124.261 129.789C123.827 130.558 123.847 131.386 124.3 131.662C124.773 131.938 125.503 131.524 125.937 130.755C126.37 129.986 126.351 129.158 125.897 128.882C125.424 128.625 124.695 129.02 124.261 129.789Z" fill="white"/>
<path d="M100.82 109.143L106.734 106.186" stroke="#721917" stroke-width="2.2917" stroke-miterlimit="10"/>
<path d="M103.698 113.659L107.996 112.437" stroke="#721917" stroke-width="2.2917" stroke-miterlimit="10"/>
<path d="M104.645 116.084L108.41 116.459" stroke="#721917" stroke-width="2.2917" stroke-miterlimit="10"/>
<path d="M104.407 84.377C104.407 84.377 99.794 90.2532 91.8884 91.1208C83.9827 91.9884 92.6375 84.9686 95.7722 84.377C98.8871 83.7854 106.576 82.2079 104.407 84.377Z" fill="#C46733"/>
<path d="M91.8691 91.12C88.5767 91.4749 88.1627 90.4692 89.0104 89.1481C89.7004 89.1087 90.6073 88.9115 91.8691 88.4185C95.5952 86.9199 97.4878 85.2832 97.4878 85.2832C97.4878 85.2832 94.8263 88.596 93.5645 89.1678C92.3816 89.7002 101.687 87.0382 104.191 83.3311C104.822 83.4494 104.999 83.7649 104.388 84.3761C104.408 84.3761 99.7747 90.2523 91.8691 91.12Z" fill="#A54C11"/>
<path d="M216.527 76.1336C216.527 76.1336 215.246 66.6291 214.97 64.0657C214.694 61.5022 213.353 50.6766 211.855 48.3695C210.376 46.0624 208.681 46.4174 209.115 50.0456C206.473 49.2569 206.473 49.2569 206.473 49.2569C206.473 49.2569 205.388 43.6567 203.752 43.3412C202.116 43.0257 203.042 48.1329 203.042 48.1329L200.637 46.161C200.637 46.161 200.282 42.7891 198.863 40.8567C197.443 38.9045 196.517 45.4511 196.517 45.4511L203.22 68.9362L216.527 76.1336Z" fill="#843F31"/>
<path d="M128.067 49.691C127.101 48.922 126.47 47.7389 126.47 46.4177C126.47 45.0177 127.16 43.7754 128.224 43.0063C127.712 42.3162 127.396 41.4486 127.396 40.5218C127.396 38.4316 128.934 36.6963 130.965 36.4006C130.768 35.9076 130.649 35.3752 130.649 34.8231C130.649 32.7131 132.227 30.9582 134.257 30.6821C134.218 30.4849 134.198 30.268 134.198 30.0511C134.198 27.744 136.071 25.8707 138.378 25.8707C138.811 25.8707 139.206 25.9299 139.6 26.0482C139.797 23.9383 141.591 22.2622 143.76 22.2622C144.45 22.2622 145.081 22.4199 145.652 22.7157C146.126 20.9213 147.742 19.5804 149.694 19.5804C150.818 19.5804 151.843 20.034 152.592 20.7636C153.341 19.7185 154.583 19.0283 155.983 19.0283C158.29 19.0283 160.163 20.9016 160.163 23.2087C160.163 24.4904 159.591 25.6144 158.684 26.3834L161.168 66.2745L151.094 71.6774C151.094 71.6774 149.201 71.6972 146.678 71.1056C146.362 73.0972 144.647 74.6353 142.557 74.6353C140.251 74.6353 138.378 72.762 138.378 70.4549C138.378 69.883 138.496 69.3506 138.693 68.8577C138.397 68.9168 138.102 68.9563 137.786 68.9563C135.48 68.9563 133.607 67.083 133.607 64.7759C133.607 64.3223 133.685 63.8885 133.804 63.4942C133.745 63.4942 133.666 63.5139 133.607 63.5139C131.3 63.5139 129.427 61.6406 129.427 59.3335C129.427 58.525 129.664 57.756 130.078 57.125C128.047 56.8489 126.47 55.1137 126.47 52.984C126.47 51.6235 127.101 50.4403 128.067 49.691Z" fill="#491B24"/>
<g opacity="0.3">
<path d="M128.066 49.691C127.1 48.922 126.469 47.7389 126.469 46.4177C126.469 45.0177 127.159 43.7754 128.224 43.0063C127.711 42.3162 127.396 41.4486 127.396 40.5218C127.396 38.4316 128.934 36.6963 130.964 36.4006C130.767 35.9076 130.649 35.3752 130.649 34.8231C130.649 32.7131 132.226 30.9582 134.257 30.6821C134.217 30.4849 134.198 30.268 134.198 30.0511C134.198 27.744 136.071 25.8707 138.377 25.8707C138.811 25.8707 139.205 25.9299 139.6 26.0482C139.797 23.9383 141.591 22.2622 143.759 22.2622C144.449 22.2622 145.08 22.4199 145.652 22.7157C146.125 20.9213 147.742 19.5804 149.694 19.5804C150.817 19.5804 151.842 20.034 152.592 20.7636C153.341 19.7185 154.583 19.0283 155.983 19.0283C158.289 19.0283 160.162 20.9016 160.162 23.2087C160.162 24.4904 159.59 25.6144 158.683 26.3834L158.9 29.8342C158.782 29.8342 158.664 29.8145 158.545 29.8145C157.146 29.8145 155.923 30.5046 155.155 31.5497C154.405 30.8201 153.38 30.3666 152.256 30.3666C150.305 30.3666 148.688 31.7075 148.215 33.5019C147.643 33.2061 147.012 33.0484 146.322 33.0484C144.154 33.0484 142.36 34.7047 142.162 36.8344C141.768 36.7161 141.374 36.6569 140.94 36.6569C138.634 36.6569 136.761 38.5302 136.761 40.8373C136.761 41.0542 136.78 41.2514 136.82 41.4683C134.789 41.7443 133.212 43.4796 133.212 45.6092C133.212 46.1614 133.33 46.6938 133.527 47.1867C131.516 47.4825 129.979 49.2178 129.979 51.308C129.979 52.2347 130.294 53.1024 130.807 53.7925C129.841 54.4827 129.17 55.5869 129.072 56.8292C127.554 56.1982 126.469 54.7193 126.469 52.9643C126.469 51.6235 127.1 50.4403 128.066 49.691Z" fill="white"/>
</g>
<path d="M143.227 138.307C143.227 138.307 147.683 135.96 149.24 134.402C149.083 138.76 149.24 140.002 149.24 140.002L143.227 138.307Z" fill="#6B2F25"/>
<path d="M146.952 146.648C146.952 146.648 144.724 162.936 144.724 176.167C198.467 176.167 198.467 176.167 198.467 176.167C198.467 176.167 194.11 154.97 190.522 145.938C184.903 141.127 146.952 146.648 146.952 146.648Z" fill="#4292A5"/>
<path d="M165.545 62.2913C165.545 62.2913 176.841 65.5646 181.179 66.0378C184.57 82.7396 186.679 91.7511 187.842 97.2329C189.005 102.734 185.398 110.78 182.815 111.016C183.525 121.29 187.369 138.485 190.523 145.958C175.915 150.395 155.352 148.995 146.954 146.668C148.117 133.811 146.48 110.011 143.563 99.54C145.554 92.106 139.009 69.3111 139.009 69.3111C139.009 69.3111 154.662 64.4012 157.58 62.2913C160.498 60.1813 165.545 62.2913 165.545 62.2913Z" fill="#FDB03E"/>
<path d="M171.045 27.4095C171.045 27.4095 168.679 21.1587 159.965 20.3896C156.042 20.8037 149.339 34.2914 149.694 41.3704C153.203 43.0662 154.78 41.1338 154.78 41.1338L171.045 27.4095Z" fill="white"/>
<path d="M153.143 46.0422C153.143 46.0422 154.76 59.2538 153.892 67.2005C161.088 70.947 168.797 67.5554 168.797 67.5554C168.797 67.5554 165.938 57.3805 165.09 51.6621C164.243 45.9239 158.742 41.2506 153.143 46.0422Z" fill="#843F31"/>
<path d="M167.102 61.1477C159.354 58.2293 157.914 51.8799 157.914 51.8799L165.248 52.7475C165.702 55.2912 166.431 58.4265 167.102 61.1477Z" fill="#491B24"/>
<path d="M171.044 27.4084C171.044 27.4084 175.085 35.6311 176.8 43.3411C178.516 51.0512 179.284 56.3555 175.874 56.5133C172.443 56.671 158.742 55.8823 155.154 48.5666C151.881 40.6199 151.881 40.6199 151.881 40.6199C151.881 40.6199 157.657 26.7971 171.044 27.4084Z" fill="#843F31"/>
<path d="M147.092 47.0681C149.004 48.9809 151.863 49.2372 153.459 47.64C155.056 46.0428 154.8 43.2033 152.888 41.2708C150.975 39.3581 148.117 39.1018 146.52 40.699C144.923 42.2962 145.179 45.1554 147.092 47.0681Z" fill="#843F31"/>
<path d="M152.296 43.8542C153.242 44.8007 153.774 45.9641 153.893 47.1078C153.774 47.305 153.617 47.4824 153.459 47.6599C151.862 49.2571 149.023 49.0008 147.091 47.0881C146.145 46.1415 145.612 44.9781 145.494 43.8345C145.612 43.6373 145.77 43.4598 145.928 43.2823C147.525 41.6654 150.364 41.9414 152.296 43.8542Z" fill="#6B2F25"/>
<path d="M173.567 38.9834C173.567 38.9834 176.091 44.7018 176.327 45.7667C176.564 46.8118 171.832 45.5892 171.655 45.4709" stroke="#550E18" stroke-width="1.7943" stroke-miterlimit="10"/>
<path d="M168.619 36.9922C168.619 36.9922 162.31 34.6456 160.319 39.4373C159.55 37.0907 161.423 34.9414 163.296 34.409C165.169 33.8963 167.85 34.4681 168.619 36.9922Z" fill="#491B24"/>
<path d="M169.25 40.9561C168.718 40.5222 168.047 40.2659 167.377 40.1279C166.707 39.9898 165.977 39.9701 165.287 40.0884C164.597 40.2067 163.927 40.4434 163.336 40.818C163.04 40.9955 162.764 41.2124 162.508 41.449C162.37 41.5673 162.271 41.6856 162.153 41.8237C162.034 41.9617 161.936 42.0997 161.837 42.2378C162.172 42.1392 162.468 42.0011 162.784 41.8828C163.099 41.7842 163.375 41.6462 163.69 41.5673C164.282 41.3701 164.873 41.2321 165.484 41.1335C166.076 41.0349 166.687 40.9758 167.318 40.9561C167.929 40.9363 168.56 40.9363 169.25 40.9561Z" fill="#491B24"/>
<path d="M174.121 39.8115C174.18 39.6931 174.298 39.5354 174.397 39.3974C174.495 39.2593 174.594 39.1213 174.712 38.9833C174.929 38.7072 175.146 38.4509 175.402 38.1748C175.067 38.2931 174.732 38.4114 174.397 38.5495C174.239 38.6283 174.062 38.6875 173.904 38.7664C173.727 38.8452 173.589 38.9241 173.391 39.0227L174.121 39.8115Z" fill="#491B24"/>
<path d="M183.84 119.555C184.195 121.783 184.609 124.11 185.082 126.417L147.072 126.93C146.954 124.504 146.796 122.079 146.599 119.693C163.632 123.282 178.202 120.817 183.84 119.555Z" fill="white"/>
<path d="M172.701 36.2238C172.287 34.9815 172.582 33.2857 173.174 32.2012C173.45 32.8519 173.726 33.5618 174.002 34.2914C173.489 34.6857 172.957 35.2773 172.701 36.2238Z" fill="#491B24"/>
<path opacity="0.4" d="M160.674 46.1615C160.674 47.2658 162.35 48.1531 164.42 48.1531C166.49 48.1531 168.166 47.2658 168.166 46.1615C168.166 45.0573 166.49 44.1699 164.42 44.1699C162.35 44.1699 160.674 45.0573 160.674 46.1615Z" fill="#C7240C"/>
<path d="M149.635 48.7844C149.635 49.5929 150.286 50.2436 151.094 50.2436C151.902 50.2436 152.553 49.5929 152.553 48.7844C152.553 47.9759 151.902 47.3252 151.094 47.3252C150.286 47.3252 149.635 47.9759 149.635 48.7844Z" fill="white"/>
<path d="M143.227 67.9308C148.077 66.3139 155.647 63.6913 157.579 62.2913C160.497 60.1813 165.544 62.2913 165.544 62.2913C165.544 62.2913 171.813 64.1054 176.801 65.2293C177.984 70.3957 180.034 85.2045 165.09 86.8411C153.814 88.182 146.322 81.9114 143.227 67.9308Z" fill="#843F31"/>
<path d="M165.979 86.7032L165.091 81.5566" stroke="#550E18" stroke-width="1.7943" stroke-miterlimit="10"/>
<path d="M166.568 69.7646C166.568 69.7646 166.095 74.5563 164.755 74.6746C163.414 74.7929 161.423 70.2379 161.423 70.2379C161.423 70.2379 164.341 70.5731 166.568 69.7646Z" fill="#6B2F25"/>
<path d="M146.954 146.648C147.545 140.24 147.427 131.129 146.796 122.295C163.435 125.825 177.63 123.696 184.294 122.236C185.871 131.129 188.375 140.831 190.523 145.958C175.915 150.395 155.352 148.995 146.954 146.648Z" fill="#843F31"/>
<path d="M178.22 51.3084C178.378 53.1422 178.26 54.562 177.728 55.4493C176.466 53.5563 175.776 50.7168 175.776 50.7168L178.22 51.3084Z" fill="#6B2F25"/>
<path d="M172.502 143.453C172.502 144.479 172.956 145.327 173.528 145.327C174.099 145.327 174.553 144.498 174.553 143.453C174.553 142.428 174.099 141.58 173.528 141.58C172.976 141.58 172.502 142.428 172.502 143.453Z" fill="#6B2F25"/>
<path d="M151.508 152.149C151.508 152.149 149.753 163.882 151.153 176.187" stroke="#19657C" stroke-width="1.7943" stroke-miterlimit="10"/>
<path d="M191.291 148.028C191.291 148.028 177.491 154.003 146.795 149.921" stroke="#19657C" stroke-width="1.7943" stroke-miterlimit="10"/>
<path opacity="0.44" d="M154.997 113.383C163.1 114.31 182.795 111.017 182.795 111.017C182.893 112.357 183.031 113.817 183.229 115.355C165.722 119.831 147.21 112.496 154.997 113.383Z" fill="#56221C"/>
<path d="M208.107 69.8629C209.054 70.3559 211.794 67.0037 214.258 62.3698C216.703 57.7359 217.945 53.5752 216.999 53.0823C216.052 52.5893 213.312 55.9415 210.848 60.5754C208.403 65.1896 207.161 69.3503 208.107 69.8629Z" fill="#8DC9D3"/>
<path d="M189.478 38.4912L217 53.0831C216.054 52.5901 213.313 55.9423 210.849 60.5762C208.404 65.2101 207.162 69.3708 208.109 69.8638L180.587 55.2719L189.478 38.4912Z" fill="#8DC9D3"/>
<path d="M180.528 53.8717L176.289 51.3083C175.777 51.0125 175.54 50.4012 175.698 49.8294C175.895 49.1984 176.289 48.3111 177.157 47.2462C177.531 46.7927 178.202 46.6547 178.734 46.911C181.671 48.3505 182.145 48.9026 182.145 48.9026L180.528 53.8717Z" fill="white"/>
<path d="M213.234 52.3924L215.758 53.7727L207.99 68.4238L181.986 54.1671C181.986 54.1671 181.809 52.6488 183.228 52.3727C192.396 52.1164 213.234 52.3924 213.234 52.3924Z" fill="#BC5815"/>
<path d="M139.008 69.292C139.008 69.292 125.582 69.5286 120.555 93.2503C117.637 98.1603 107.01 113.107 102.673 118.964C98.3557 124.8 100.8 129.355 107.701 133.102C114.601 136.849 135.163 146.373 139.599 148.857C144.035 151.342 152.098 155.187 157.48 152.978C162.035 153.097 164.262 151.578 162.626 150.632C160.99 149.705 154.681 147.122 154.681 147.122C154.681 147.122 161.108 148.049 163.553 148.049C165.997 148.049 165.071 145.604 161.443 145.012C157.816 144.421 154.425 142.567 154.425 142.567C154.425 142.567 162.015 142.922 162.961 142.567C163.888 142.212 164.598 140.22 158.171 139.53C151.625 138.603 144.508 138.13 141.59 137.184C138.673 136.257 121.264 121.882 121.264 121.882L139.836 95.4785C139.836 95.4785 142.182 97.0363 143.582 99.5209C146.361 95.9321 142.97 72.8019 139.008 69.292Z" fill="#843F31"/>
<path d="M183.248 52.5507C183.248 53.2802 189.971 53.8718 198.251 53.8718C206.531 53.8718 213.254 53.2802 213.254 52.5507C213.254 51.8211 206.531 51.2295 198.251 51.2295C189.951 51.2295 183.248 51.8211 183.248 52.5507Z" fill="#D8691E"/>
<path d="M121.244 121.882L112.136 114.625" stroke="#550E18" stroke-width="1.7943" stroke-miterlimit="10"/>
<path d="M110.164 128.902C110.164 130.657 109.73 132.313 108.961 133.772C108.508 133.535 108.074 133.299 107.7 133.102C100.8 129.355 98.3549 124.8 102.672 118.963C102.672 118.944 102.692 118.944 102.692 118.924C107.01 120.186 110.164 124.169 110.164 128.902Z" fill="#6B2F25"/>
<path d="M139.816 95.4784L141.926 92.2051" stroke="#550E18" stroke-width="1.7943" stroke-miterlimit="10"/>
<path d="M157.461 152.959L151.093 150.849" stroke="#550E18" stroke-width="1.7943" stroke-miterlimit="10"/>
<path d="M178.182 52.4518C178.517 50.3813 179.325 48.6658 179.995 47.5615C181.829 48.5475 182.164 48.9418 182.164 48.9418L180.528 53.8912L178.182 52.4518Z" fill="#8DC9D3"/>
<path d="M147.309 138.209C147.309 138.209 156.693 138.958 159.453 139.688C162.213 140.417 165.19 142.192 162.075 142.665C158.98 143.139 154.406 142.547 154.406 142.547C154.406 142.547 159.118 144.223 161.424 144.992C163.711 145.761 165.052 146.471 164.756 147.615C164.461 148.778 154.643 147.082 154.643 147.082L158.034 148.364" stroke="#550E18" stroke-width="1.7943" stroke-miterlimit="10"/>
<path d="M182.834 45.7278C185.279 41.0938 188.039 37.7417 188.985 38.2346L191.646 39.6544C190.7 39.1614 187.96 42.5136 185.495 47.1475C183.051 51.7814 181.809 55.9421 182.755 56.4351L180.094 55.0153C179.167 54.5223 180.389 50.3617 182.834 45.7278Z" fill="white"/>
<path d="M207.984 68.442C207.156 68.0035 208.225 64.3639 210.372 60.3128C212.518 56.2616 214.928 53.3329 215.756 53.7714C216.583 54.21 215.514 57.8496 213.368 61.9007C211.222 65.9519 208.811 68.8805 207.984 68.442Z" fill="#A54C11"/>
<path d="M206.57 56.474C206.57 57.0064 207.004 57.4402 207.536 57.4402C208.068 57.4402 208.502 57.0064 208.502 56.474C208.502 55.9416 208.068 55.5078 207.536 55.5078C207.004 55.5078 206.57 55.9416 206.57 56.474Z" fill="#D8691E"/>
<path d="M202.055 56.0205C202.055 56.2966 202.272 56.5332 202.567 56.5332C202.844 56.5332 203.08 56.3163 203.08 56.0205C203.08 55.7444 202.863 55.5078 202.567 55.5078C202.272 55.5078 202.055 55.7247 202.055 56.0205Z" fill="#D8691E"/>
<path d="M195.589 56.3962C195.589 57.0666 196.121 57.5991 196.792 57.5991C197.462 57.5991 197.994 57.0666 197.994 56.3962C197.994 55.7258 197.462 55.1934 196.792 55.1934C196.121 55.1934 195.589 55.7258 195.589 56.3962Z" fill="#D8691E"/>
<path d="M192.395 56.0205C192.395 56.2966 192.612 56.5332 192.907 56.5332C193.183 56.5332 193.42 56.3163 193.42 56.0205C193.42 55.7444 193.203 55.5078 192.907 55.5078C192.612 55.5078 192.395 55.7247 192.395 56.0205Z" fill="#D8691E"/>
<path d="M199.551 59.6297C199.551 59.8466 199.729 60.0241 199.946 60.0241C200.162 60.0241 200.34 59.8466 200.34 59.6297C200.34 59.4128 200.162 59.2354 199.946 59.2354C199.729 59.2354 199.551 59.4128 199.551 59.6297Z" fill="#D8691E"/>
<path d="M205.782 59.9452C205.782 60.3396 206.097 60.6551 206.491 60.6551C206.886 60.6551 207.201 60.3396 207.201 59.9452C207.201 59.5509 206.886 59.2354 206.491 59.2354C206.097 59.2354 205.782 59.5509 205.782 59.9452Z" fill="#D8691E"/>
<path d="M204.58 58.5635C204.58 58.7804 204.758 58.9776 204.994 58.9776C205.211 58.9776 205.408 58.8001 205.408 58.5635C205.408 58.3466 205.231 58.1494 204.994 58.1494C204.777 58.1494 204.58 58.3269 204.58 58.5635Z" fill="#D8691E"/>
<path d="M205.387 63.2377C204.952 63.2377 204.599 62.8845 204.599 62.4489C204.599 62.0133 204.952 61.6602 205.387 61.6602C205.823 61.6602 206.176 62.0133 206.176 62.4489C206.176 62.8845 205.823 63.2377 205.387 63.2377Z" fill="#D8691E"/>
<path opacity="0.71" d="M191.864 41.9612L212.663 52.9839C213.156 53.2403 213.353 53.8713 213.096 54.3643C212.84 54.8572 212.209 55.0544 211.716 54.7981L190.898 43.7753C190.405 43.5189 190.208 42.8879 190.464 42.395C190.74 41.902 191.371 41.7048 191.864 41.9612Z" fill="white"/>
<path d="M181.177 66.018C181.177 66.018 192.71 63.3757 199.098 78.9536C204.697 87.9848 209.369 92.0468 209.369 92.0468C209.369 92.0468 205.939 74.8323 203.297 72.2295C200.655 69.6266 197.067 68.5223 195.667 66.511C194.267 64.48 192.552 60.832 194.583 60.3193C196.614 59.8066 199.413 62.1532 200.813 63.2377C207.516 65.111 209.389 70.5534 209.389 70.5534C209.389 70.5534 212.819 70.9872 216.545 76.1535C220.587 85.1847 226.974 110.582 227.901 115.256C228.828 119.929 222.755 127.876 213.568 120.856C204.381 113.836 189.575 93.4271 189.575 93.4271L186.598 91.5539L181.177 66.018Z" fill="#843F31"/>
<path d="M209.369 92.0469L211.854 107.467" stroke="#550E18" stroke-width="1.7943" stroke-miterlimit="10"/>
<path d="M217.631 119.772C217.631 114.645 221.672 110.445 226.739 110.208C227.31 112.535 227.725 114.31 227.902 115.256C228.671 119.062 224.767 125.056 218.301 123.321C217.867 122.236 217.631 121.034 217.631 119.772Z" fill="#6B2F25"/>
<path opacity="0.18" d="M171.044 27.4097C171.044 27.4097 175.085 35.6324 176.8 43.3424C178.516 51.0525 179.284 56.3568 175.874 56.5146C174.967 56.554 173.331 56.5343 171.359 56.3371C156.75 52.2553 156.1 41.2917 153.99 36.8747C156.75 32.8323 162.251 27.0153 171.044 27.4097Z" fill="white"/>
<path d="M176.801 65.21C176.801 65.21 181.651 85.0668 165.978 86.7034C150.6 88.3006 145.474 77.475 143.207 67.9311" stroke="white" stroke-width="5.3828" stroke-miterlimit="10"/>
<path opacity="0.44" d="M151.882 89.9766C151.882 89.9766 169.743 98.1599 177.491 97.5683C185.239 96.9767 183.504 89.7399 179.522 91.0217C175.559 92.3231 160.221 92.54 151.882 89.9766Z" fill="#56221C"/>
<path opacity="0.44" d="M144.369 97.1143C144.369 97.1143 148.292 110.957 148.766 122.69" stroke="#56221C" stroke-width="1.7943" stroke-miterlimit="10"/>
<path d="M180.172 161.832C180.172 161.832 177.589 168.142 174.001 170.942" stroke="#19657C" stroke-width="1.7943" stroke-miterlimit="10"/>
<path d="M171.655 163.942L175.381 176.168" stroke="#19657C" stroke-width="1.7943" stroke-miterlimit="10"/>
<g opacity="0.44">
<path d="M151.33 40.127C151.527 39.4566 151.783 38.8058 152.04 38.1551C152.316 37.5044 152.611 36.8734 152.946 36.2424C153.617 35.0001 154.386 33.7973 155.253 32.693C156.14 31.5888 157.126 30.5634 158.23 29.6563C159.334 28.7493 160.537 28 161.838 27.3887C160.537 27.9605 159.295 28.6901 158.151 29.5577C157.008 30.4254 155.983 31.431 155.056 32.5353C154.129 33.6395 153.321 34.8226 152.611 36.0649C152.256 36.6959 151.921 37.3269 151.626 37.9777C151.33 38.6284 151.054 39.2988 150.837 39.989L151.33 40.127Z" fill="#56221C"/>
</g>
</g>
<path d="M0 87H232V157C232 165.284 225.284 172 217 172H0V87Z" fill="url(#paint0_linear_525_17019)"/>
<defs>
<linearGradient id="paint0_linear_525_17019" x1="116" y1="169.271" x2="116" y2="88.3564" gradientUnits="userSpaceOnUse">
<stop stop-color="#8924F0"/>
<stop offset="1" stop-color="#8924F0" stop-opacity="0"/>
</linearGradient>
<clipPath id="clip0_525_17019">
<rect width="224" height="172" fill="white" transform="matrix(-1 0 0 1 228 0)"/>
</clipPath>
</defs>
</svg>
