<svg width="11" height="11" viewBox="0 0 11 11" fill="none" xmlns="http://www.w3.org/2000/svg">
<g clip-path="url(#clip0_703_30484)">
<path d="M4.6092 8.5214C5.51189 8.52251 6.38696 8.21021 7.08498 7.63784L9.41951 9.97197C9.49331 10.0432 9.59215 10.0827 9.69475 10.0818C9.79735 10.0809 9.89549 10.0398 9.96804 9.9672C10.0406 9.89465 10.0817 9.79651 10.0826 9.69391C10.0835 9.59131 10.0441 9.49247 9.97281 9.41866L7.63829 7.08453C8.20054 6.39654 8.51191 5.53769 8.52119 4.64922C8.53047 3.76076 8.2371 2.89559 7.68934 2.196C7.14158 1.49642 6.37204 1.00409 5.50729 0.79997C4.64254 0.595854 3.73407 0.692113 2.9313 1.07292C2.12852 1.45372 1.47925 2.09639 1.09025 2.89523C0.70126 3.69406 0.595715 4.6015 0.790976 5.46829C0.986237 6.33509 1.47068 7.10962 2.16462 7.66451C2.85856 8.2194 3.72069 8.5216 4.6092 8.5214ZM3.43529 4.21706H4.2179V3.43445C4.2179 3.33067 4.25912 3.23114 4.33251 3.15775C4.40589 3.08437 4.50542 3.04314 4.6092 3.04314C4.71298 3.04314 4.81251 3.08437 4.8859 3.15775C4.95928 3.23114 5.00051 3.33067 5.00051 3.43445V4.21706H5.78312C5.8869 4.21706 5.98643 4.25828 6.05981 4.33167C6.13319 4.40505 6.17442 4.50458 6.17442 4.60836C6.17442 4.71214 6.13319 4.81167 6.05981 4.88505C5.98643 4.95844 5.8869 4.99966 5.78312 4.99966H5.00051V5.78227C5.00051 5.88605 4.95928 5.98558 4.8859 6.05897C4.81251 6.13235 4.71298 6.17358 4.6092 6.17358C4.50542 6.17358 4.40589 6.13235 4.33251 6.05897C4.25912 5.98558 4.2179 5.88605 4.2179 5.78227V4.99966H3.43529C3.33151 4.99966 3.23198 4.95844 3.1586 4.88505C3.08521 4.81167 3.04399 4.71214 3.04399 4.60836C3.04399 4.50458 3.08521 4.40505 3.1586 4.33167C3.23198 4.25828 3.33151 4.21706 3.43529 4.21706Z" fill="white"/>
</g>
<defs>
<clipPath id="clip0_703_30484">
<rect width="9.3913" height="9.3913" fill="white" transform="translate(0.695312 0.695312)"/>
</clipPath>
</defs>
</svg>
