<svg width="390" height="410" viewBox="0 0 390 410" fill="none" xmlns="http://www.w3.org/2000/svg">
<path d="M187.098 345.176C227.206 348.683 276.499 341.914 304.817 306.876C337.195 266.634 324.538 208.191 331.808 159.889C338.698 114.316 348.734 67.3905 318.058 28.8981C290.972 -5.12237 255.128 -5.04532 218.119 8.40902C183.248 20.999 147.346 30.7678 112.878 44.4999C65.4601 63.4312 59.7287 115.56 64.2736 162.665C66.4763 186.1 70.5824 209.259 71.9751 232.785C73.626 259.594 74.511 285.738 93.9046 305.499C116.485 328.589 151.227 341.945 187.098 345.176Z" fill="#DDDDFF"/>
<g clip-path="url(#clip0_824_29857)">
<path d="M554.336 134.466V324.087H137.593V172.624H173.744V216.473H182.95V139.821H228.975V212.624H235.001V120.24H275.001V145.679H295.42V177.143H301.612V157.394H337.931V216.473H348.642V168.44H381.781V131.788H404.375V111.035H430.652V203.419H439.355V164.758H482.368V219.988H488.393V174.967H532.076V134.466H554.336Z" fill="#BFBFFF"/>
<path d="M148.137 178.147H141.945V186.516H148.137V178.147Z" fill="#DDDDFF"/>
<path d="M158.682 178.147H152.489V186.516H158.682V178.147Z" fill="#DDDDFF"/>
<path d="M169.393 178.147H163.2V186.516H169.393V178.147Z" fill="#DDDDFF"/>
<path d="M148.137 190.867H141.945V199.235H148.137V190.867Z" fill="#DDDDFF"/>
<path d="M158.682 190.867H152.489V199.235H158.682V190.867Z" fill="#DDDDFF"/>
<path d="M169.393 190.867H163.2V199.235H169.393V190.867Z" fill="#DDDDFF"/>
<path d="M148.137 203.419H141.945V211.787H148.137V203.419Z" fill="#DDDDFF"/>
<path d="M158.682 203.419H152.489V211.787H158.682V203.419Z" fill="#DDDDFF"/>
<path d="M169.393 203.419H163.2V211.787H169.393V203.419Z" fill="#DDDDFF"/>
<path d="M148.137 215.972H141.945V224.34H148.137V215.972Z" fill="#DDDDFF"/>
<path d="M158.682 215.972H152.489V224.34H158.682V215.972Z" fill="#DDDDFF"/>
<path d="M169.393 215.972H163.2V224.34H169.393V215.972Z" fill="#DDDDFF"/>
<path d="M359.856 174.466H353.663V181.495H359.856V174.466Z" fill="#DDDDFF"/>
<path d="M370.567 174.466H364.375V181.495H370.567V174.466Z" fill="#DDDDFF"/>
<path d="M381.111 174.466H374.919V181.495H381.111V174.466Z" fill="#DDDDFF"/>
<path d="M359.856 185.01H353.663V192.039H359.856V185.01Z" fill="#DDDDFF"/>
<path d="M370.567 185.01H364.375V192.039H370.567V185.01Z" fill="#DDDDFF"/>
<path d="M381.111 185.01H374.919V192.039H381.111V185.01Z" fill="#DDDDFF"/>
<path d="M359.856 195.553H353.663V202.582H359.856V195.553Z" fill="#DDDDFF"/>
<path d="M370.567 195.553H364.375V202.582H370.567V195.553Z" fill="#DDDDFF"/>
<path d="M381.111 195.553H374.919V202.582H381.111V195.553Z" fill="#DDDDFF"/>
<path d="M359.856 206.097H353.663V213.126H359.856V206.097Z" fill="#DDDDFF"/>
<path d="M370.567 206.097H364.375V213.126H370.567V206.097Z" fill="#DDDDFF"/>
<path d="M381.111 206.097H374.919V213.126H381.111V206.097Z" fill="#DDDDFF"/>
<path d="M359.856 216.809H353.663V223.838H359.856V216.809Z" fill="#DDDDFF"/>
<path d="M370.567 216.809H364.375V223.838H370.567V216.809Z" fill="#DDDDFF"/>
<path d="M381.111 216.809H374.919V223.838H381.111V216.809Z" fill="#DDDDFF"/>
<path d="M359.856 227.687H353.663V234.716H359.856V227.687Z" fill="#DDDDFF"/>
<path d="M370.567 227.687H364.375V234.716H370.567V227.687Z" fill="#DDDDFF"/>
<path d="M381.111 227.687H374.919V234.716H381.111V227.687Z" fill="#DDDDFF"/>
<path d="M359.856 238.397H353.663V245.427H359.856V238.397Z" fill="#DDDDFF"/>
<path d="M370.567 238.397H364.375V245.427H370.567V238.397Z" fill="#DDDDFF"/>
<path d="M381.111 238.397H374.919V245.427H381.111V238.397Z" fill="#DDDDFF"/>
<path d="M359.856 249.276H353.663V256.306H359.856V249.276Z" fill="#DDDDFF"/>
<path d="M370.567 249.276H364.375V256.306H370.567V249.276Z" fill="#DDDDFF"/>
<path d="M381.111 249.276H374.919V256.306H381.111V249.276Z" fill="#DDDDFF"/>
<path d="M223.285 145.177H188.138V150.365H223.285V145.177Z" fill="#DDDDFF"/>
<path d="M223.285 155.387H188.138V160.575H223.285V155.387Z" fill="#DDDDFF"/>
<path d="M223.285 165.596H188.138V170.784H223.285V165.596Z" fill="#DDDDFF"/>
<path d="M223.285 175.805H188.138V180.993H223.285V175.805Z" fill="#DDDDFF"/>
<path d="M223.285 186.014H188.138V191.202H223.285V186.014Z" fill="#DDDDFF"/>
<path d="M223.285 196.056H188.138V201.244H223.285V196.056Z" fill="#DDDDFF"/>
<path d="M223.285 206.265H188.138V211.453H223.285V206.265Z" fill="#DDDDFF"/>
<path d="M223.285 216.474H188.138V221.662H223.285V216.474Z" fill="#DDDDFF"/>
<path d="M323.203 162.081H312.324V167.102H323.203V162.081Z" fill="#DDDDFF"/>
<path d="M323.203 171.955H312.324V176.976H323.203V171.955Z" fill="#DDDDFF"/>
<path d="M323.203 181.83H312.324V186.851H323.203V181.83Z" fill="#DDDDFF"/>
<path d="M323.203 191.537H312.324V196.558H323.203V191.537Z" fill="#DDDDFF"/>
<path d="M323.203 201.411H312.324V206.432H323.203V201.411Z" fill="#DDDDFF"/>
<path d="M323.203 211.285H312.324V216.306H323.203V211.285Z" fill="#DDDDFF"/>
<path d="M323.203 221.16H312.324V226.181H323.203V221.16Z" fill="#DDDDFF"/>
<path d="M323.203 230.867H312.324V235.888H323.203V230.867Z" fill="#DDDDFF"/>
<path d="M337.931 162.081H327.052V167.102H337.931V162.081Z" fill="#DDDDFF"/>
<path d="M337.931 171.955H327.052V176.976H337.931V171.955Z" fill="#DDDDFF"/>
<path d="M337.931 181.83H327.052V186.851H337.931V181.83Z" fill="#DDDDFF"/>
<path d="M337.931 191.537H327.052V196.558H337.931V191.537Z" fill="#DDDDFF"/>
<path d="M337.931 201.411H327.052V206.432H337.931V201.411Z" fill="#DDDDFF"/>
<path d="M337.931 211.285H327.052V216.306H337.931V211.285Z" fill="#DDDDFF"/>
<path d="M337.931 221.16H327.052V226.181H337.931V221.16Z" fill="#DDDDFF"/>
<path d="M337.931 230.867H327.052V235.888H337.931V230.867Z" fill="#DDDDFF"/>
<path d="M252.407 125.596H241.026V133.629H252.407V125.596Z" fill="#DDDDFF"/>
<path d="M269.311 125.596H257.93V133.629H269.311V125.596Z" fill="#DDDDFF"/>
<path d="M252.407 137.312H241.026V145.345H252.407V137.312Z" fill="#DDDDFF"/>
<path d="M269.311 137.312H257.93V145.345H269.311V137.312Z" fill="#DDDDFF"/>
<path d="M252.407 149.026H241.026V157.06H252.407V149.026Z" fill="#DDDDFF"/>
<path d="M269.311 149.026H257.93V157.06H269.311V149.026Z" fill="#DDDDFF"/>
<path d="M252.407 160.742H241.026V168.776H252.407V160.742Z" fill="#DDDDFF"/>
<path d="M269.311 160.742H257.93V168.776H269.311V160.742Z" fill="#DDDDFF"/>
<path d="M252.407 172.624H241.026V180.657H252.407V172.624Z" fill="#DDDDFF"/>
<path d="M269.311 172.624H257.93V180.657H269.311V172.624Z" fill="#DDDDFF"/>
<path d="M252.407 184.34H241.026V192.373H252.407V184.34Z" fill="#DDDDFF"/>
<path d="M269.311 184.34H257.93V192.373H269.311V184.34Z" fill="#DDDDFF"/>
<path d="M252.407 196.055H241.026V204.088H252.407V196.055Z" fill="#DDDDFF"/>
<path d="M269.311 196.055H257.93V204.088H269.311V196.055Z" fill="#DDDDFF"/>
<path d="M252.407 207.771H241.026V215.804H252.407V207.771Z" fill="#DDDDFF"/>
<path d="M269.311 207.771H257.93V215.804H269.311V207.771Z" fill="#DDDDFF"/>
<path d="M290.231 149.026H278.85V157.06H290.231V149.026Z" fill="#DDDDFF"/>
<path d="M290.231 160.742H278.85V168.776H290.231V160.742Z" fill="#DDDDFF"/>
<path d="M290.231 172.624H278.85V180.657H290.231V172.624Z" fill="#DDDDFF"/>
<path d="M290.231 184.34H278.85V192.373H290.231V184.34Z" fill="#DDDDFF"/>
<path d="M290.231 196.055H278.85V204.088H290.231V196.055Z" fill="#DDDDFF"/>
<path d="M290.231 207.771H278.85V215.804H290.231V207.771Z" fill="#DDDDFF"/>
<path d="M252.407 219.486H241.026V227.52H252.407V219.486Z" fill="#DDDDFF"/>
<path d="M269.311 219.486H257.93V227.52H269.311V219.486Z" fill="#DDDDFF"/>
<path d="M290.231 219.486H278.85V227.52H290.231V219.486Z" fill="#DDDDFF"/>
<path d="M252.407 231.034H241.026V239.068H252.407V231.034Z" fill="#DDDDFF"/>
<path d="M269.311 231.034H257.93V239.068H269.311V231.034Z" fill="#DDDDFF"/>
<path d="M290.231 231.034H278.85V239.068H290.231V231.034Z" fill="#DDDDFF"/>
<path d="M252.407 242.582H241.026V250.615H252.407V242.582Z" fill="#DDDDFF"/>
<path d="M269.311 242.582H257.93V250.615H269.311V242.582Z" fill="#DDDDFF"/>
<path d="M290.231 242.582H278.85V250.615H290.231V242.582Z" fill="#DDDDFF"/>
<path d="M252.407 254.297H241.026V262.33H252.407V254.297Z" fill="#DDDDFF"/>
<path d="M269.311 254.297H257.93V262.33H269.311V254.297Z" fill="#DDDDFF"/>
<path d="M290.231 254.297H278.85V262.33H290.231V254.297Z" fill="#DDDDFF"/>
<path d="M252.407 265.845H241.026V273.878H252.407V265.845Z" fill="#DDDDFF"/>
<path d="M269.311 265.845H257.93V273.878H269.311V265.845Z" fill="#DDDDFF"/>
<path d="M290.231 265.845H278.85V273.878H290.231V265.845Z" fill="#DDDDFF"/>
<path d="M392.66 136.977H386.467V144.006H392.66V136.977Z" fill="#DDDDFF"/>
<path d="M392.66 147.521H386.467V154.55H392.66V147.521Z" fill="#DDDDFF"/>
<path d="M392.66 158.064H386.467V165.094H392.66V158.064Z" fill="#DDDDFF"/>
<path d="M392.66 168.607H386.467V175.637H392.66V168.607Z" fill="#DDDDFF"/>
<path d="M392.66 179.486H386.467V186.516H392.66V179.486Z" fill="#DDDDFF"/>
<path d="M392.66 190.197H386.467V197.226H392.66V190.197Z" fill="#DDDDFF"/>
<path d="M392.66 201.076H386.467V208.105H392.66V201.076Z" fill="#DDDDFF"/>
<path d="M392.66 211.787H386.467V218.816H392.66V211.787Z" fill="#DDDDFF"/>
<path d="M392.66 222.666H386.467V229.695H392.66V222.666Z" fill="#DDDDFF"/>
<path d="M392.66 233.712H386.467V240.741H392.66V233.712Z" fill="#DDDDFF"/>
<path d="M392.66 244.59H386.467V251.619H392.66V244.59Z" fill="#DDDDFF"/>
<path d="M392.66 255.469H386.467V262.498H392.66V255.469Z" fill="#DDDDFF"/>
<path d="M137.593 324.087H-164.336V154.215H-128.184V198.064H-118.812V173.294H-72.9535V212.624H-66.761V120.24H-26.9278V145.679H-6.34171V177.143H-0.149155V157.395H36.1693V216.473H46.7134V168.441H80.0193V131.788H102.614L128.723 131.956V203.419H137.426L137.593 324.087Z" fill="#BFBFFF"/>
<path d="M58.0944 174.466H51.9019V181.495H58.0944V174.466Z" fill="#DDDDFF"/>
<path d="M68.6385 174.466H62.4459V181.495H68.6385V174.466Z" fill="#DDDDFF"/>
<path d="M79.3499 174.466H73.1573V181.495H79.3499V174.466Z" fill="#DDDDFF"/>
<path d="M58.0944 185.009H51.9019V192.038H58.0944V185.009Z" fill="#DDDDFF"/>
<path d="M68.6385 185.009H62.4459V192.038H68.6385V185.009Z" fill="#DDDDFF"/>
<path d="M79.3499 185.009H73.1573V192.038H79.3499V185.009Z" fill="#DDDDFF"/>
<path d="M58.0944 195.553H51.9019V202.582H58.0944V195.553Z" fill="#DDDDFF"/>
<path d="M68.6385 195.553H62.4459V202.582H68.6385V195.553Z" fill="#DDDDFF"/>
<path d="M79.3499 195.553H73.1573V202.582H79.3499V195.553Z" fill="#DDDDFF"/>
<path d="M58.0944 206.097H51.9019V213.126H58.0944V206.097Z" fill="#DDDDFF"/>
<path d="M68.6385 206.097H62.4459V213.126H68.6385V206.097Z" fill="#DDDDFF"/>
<path d="M79.3499 206.097H73.1573V213.126H79.3499V206.097Z" fill="#DDDDFF"/>
<path d="M58.0944 216.808H51.9019V223.837H58.0944V216.808Z" fill="#DDDDFF"/>
<path d="M68.6385 216.808H62.4459V223.837H68.6385V216.808Z" fill="#DDDDFF"/>
<path d="M79.3499 216.808H73.1573V223.837H79.3499V216.808Z" fill="#DDDDFF"/>
<path d="M58.0944 227.687H51.9019V234.716H58.0944V227.687Z" fill="#DDDDFF"/>
<path d="M68.6385 227.687H62.4459V234.716H68.6385V227.687Z" fill="#DDDDFF"/>
<path d="M79.3499 227.687H73.1573V234.716H79.3499V227.687Z" fill="#DDDDFF"/>
<path d="M58.0944 238.397H51.9019V245.427H58.0944V238.397Z" fill="#DDDDFF"/>
<path d="M68.6385 238.397H62.4459V245.427H68.6385V238.397Z" fill="#DDDDFF"/>
<path d="M79.3499 238.397H73.1573V245.427H79.3499V238.397Z" fill="#DDDDFF"/>
<path d="M58.0944 249.276H51.9019V256.306H58.0944V249.276Z" fill="#DDDDFF"/>
<path d="M68.6385 249.276H62.4459V256.306H68.6385V249.276Z" fill="#DDDDFF"/>
<path d="M79.3499 249.276H73.1573V256.306H79.3499V249.276Z" fill="#DDDDFF"/>
<path d="M21.2738 162.081H10.395V167.102H21.2738V162.081Z" fill="#DDDDFF"/>
<path d="M21.2738 171.955H10.395V176.976H21.2738V171.955Z" fill="#DDDDFF"/>
<path d="M21.2738 181.83H10.395V186.851H21.2738V181.83Z" fill="#DDDDFF"/>
<path d="M21.2738 191.537H10.395V196.558H21.2738V191.537Z" fill="#DDDDFF"/>
<path d="M21.2738 201.411H10.395V206.432H21.2738V201.411Z" fill="#DDDDFF"/>
<path d="M21.2738 211.285H10.395V216.306H21.2738V211.285Z" fill="#DDDDFF"/>
<path d="M21.2738 221.16H10.395V226.181H21.2738V221.16Z" fill="#DDDDFF"/>
<path d="M21.2738 230.867H10.395V235.888H21.2738V230.867Z" fill="#DDDDFF"/>
<path d="M36.1693 162.081H25.2905V167.102H36.1693V162.081Z" fill="#DDDDFF"/>
<path d="M36.1693 171.955H25.2905V176.976H36.1693V171.955Z" fill="#DDDDFF"/>
<path d="M36.1693 181.83H25.2905V186.851H36.1693V181.83Z" fill="#DDDDFF"/>
<path d="M36.1693 191.537H25.2905V196.558H36.1693V191.537Z" fill="#DDDDFF"/>
<path d="M36.1693 201.411H25.2905V206.432H36.1693V201.411Z" fill="#DDDDFF"/>
<path d="M36.1693 211.285H25.2905V216.306H36.1693V211.285Z" fill="#DDDDFF"/>
<path d="M36.1693 221.16H25.2905V226.181H36.1693V221.16Z" fill="#DDDDFF"/>
<path d="M36.1693 230.867H25.2905V235.888H36.1693V230.867Z" fill="#DDDDFF"/>
<path d="M90.7308 136.977H84.5382V144.006H90.7308V136.977Z" fill="#DDDDFF"/>
<path d="M101.442 136.977H95.2498V144.006H101.442V136.977Z" fill="#DDDDFF"/>
<path d="M90.7308 147.521H84.5382V154.55H90.7308V147.521Z" fill="#DDDDFF"/>
<path d="M101.442 147.521H95.2498V154.55H101.442V147.521Z" fill="#DDDDFF"/>
<path d="M90.7308 158.064H84.5382V165.094H90.7308V158.064Z" fill="#DDDDFF"/>
<path d="M101.442 158.064H95.2498V165.094H101.442V158.064Z" fill="#DDDDFF"/>
<path d="M90.7308 168.607H84.5382V175.637H90.7308V168.607Z" fill="#DDDDFF"/>
<path d="M101.442 168.607H95.2498V175.637H101.442V168.607Z" fill="#DDDDFF"/>
<path d="M90.7308 179.486H84.5382V186.516H90.7308V179.486Z" fill="#DDDDFF"/>
<path d="M101.442 179.486H95.2498V186.516H101.442V179.486Z" fill="#DDDDFF"/>
<path d="M90.7308 190.197H84.5382V197.226H90.7308V190.197Z" fill="#DDDDFF"/>
<path d="M101.442 190.197H95.2498V197.226H101.442V190.197Z" fill="#DDDDFF"/>
<path d="M90.7308 201.076H84.5382V208.105H90.7308V201.076Z" fill="#DDDDFF"/>
<path d="M101.442 201.076H95.2498V208.105H101.442V201.076Z" fill="#DDDDFF"/>
<path d="M90.7308 211.787H84.5382V218.816H90.7308V211.787Z" fill="#DDDDFF"/>
<path d="M101.442 211.787H95.2498V218.816H101.442V211.787Z" fill="#DDDDFF"/>
<path d="M90.7308 222.666H84.5382V229.695H90.7308V222.666Z" fill="#DDDDFF"/>
<path d="M101.442 222.666H95.2498V229.695H101.442V222.666Z" fill="#DDDDFF"/>
<path d="M90.7308 233.712H84.5382V240.741H90.7308V233.712Z" fill="#DDDDFF"/>
<path d="M101.442 233.712H95.2498V240.741H101.442V233.712Z" fill="#DDDDFF"/>
<path d="M90.7308 244.59H84.5382V251.619H90.7308V244.59Z" fill="#DDDDFF"/>
<path d="M101.442 244.59H95.2498V251.619H101.442V244.59Z" fill="#DDDDFF"/>
<path d="M90.7308 255.469H84.5382V262.498H90.7308V255.469Z" fill="#DDDDFF"/>
<path d="M101.442 255.469H95.2498V262.498H101.442V255.469Z" fill="#DDDDFF"/>
<path d="M113.493 136.977H107.3V144.006H113.493V136.977Z" fill="#DDDDFF"/>
<path d="M124.037 136.977H117.844V144.006H124.037V136.977Z" fill="#DDDDFF"/>
<path d="M113.493 147.521H107.3V154.55H113.493V147.521Z" fill="#DDDDFF"/>
<path d="M124.037 147.521H117.844V154.55H124.037V147.521Z" fill="#DDDDFF"/>
<path d="M113.493 158.064H107.3V165.094H113.493V158.064Z" fill="#DDDDFF"/>
<path d="M124.037 158.064H117.844V165.094H124.037V158.064Z" fill="#DDDDFF"/>
<path d="M113.493 168.607H107.3V175.637H113.493V168.607Z" fill="#DDDDFF"/>
<path d="M124.037 168.607H117.844V175.637H124.037V168.607Z" fill="#DDDDFF"/>
<path d="M113.493 179.486H107.3V186.516H113.493V179.486Z" fill="#DDDDFF"/>
<path d="M124.037 179.486H117.844V186.516H124.037V179.486Z" fill="#DDDDFF"/>
<path d="M113.493 190.197H107.3V197.226H113.493V190.197Z" fill="#DDDDFF"/>
<path d="M124.037 190.197H117.844V197.226H124.037V190.197Z" fill="#DDDDFF"/>
<path d="M113.493 201.076H107.3V208.105H113.493V201.076Z" fill="#DDDDFF"/>
<path d="M124.037 201.076H117.844V208.105H124.037V201.076Z" fill="#DDDDFF"/>
<path d="M113.493 211.787H107.3V218.816H113.493V211.787Z" fill="#DDDDFF"/>
<path d="M124.037 211.787H117.844V218.816H124.037V211.787Z" fill="#DDDDFF"/>
<path d="M113.493 222.666H107.3V229.695H113.493V222.666Z" fill="#DDDDFF"/>
<path d="M124.037 222.666H117.844V229.695H124.037V222.666Z" fill="#DDDDFF"/>
<path d="M113.493 233.712H107.3V240.741H113.493V233.712Z" fill="#DDDDFF"/>
<path d="M124.037 233.712H117.844V240.741H124.037V233.712Z" fill="#DDDDFF"/>
<path d="M113.493 244.59H107.3V251.619H113.493V244.59Z" fill="#DDDDFF"/>
<path d="M124.037 244.59H117.844V251.619H124.037V244.59Z" fill="#DDDDFF"/>
<path d="M113.493 255.469H107.3V262.498H113.493V255.469Z" fill="#DDDDFF"/>
<path d="M124.037 255.469H117.844V262.498H124.037V255.469Z" fill="#DDDDFF"/>
</g>
<rect x="-16" y="313" width="415" height="122" fill="#BFBFFF"/>
<g clip-path="url(#clip1_824_29857)">
<path d="M145.174 119.578C151.33 106.822 157.265 94.0657 163.42 81.5295C163.86 80.4298 164.519 79.3302 165.398 78.6704C166.717 77.5707 168.256 77.5707 170.015 77.3508C181.445 76.2511 192.876 72.7322 202.988 67.2338C206.286 65.4743 209.803 63.4949 213.32 64.5946C214.639 65.0345 215.958 65.9142 217.057 66.574C221.234 68.9933 230.466 70.093 231.565 68.1136C232.445 66.3541 225.85 65.4743 224.311 63.7149L241.897 63.0551C243.436 62.8351 243.436 60.4159 241.897 60.1959C240.578 59.976 233.104 57.9966 231.785 58.2165C234.203 58.2165 241.238 57.1169 243.436 56.677C244.975 56.4571 244.975 54.2577 243.656 53.8179C241.238 53.1581 234.863 54.0378 232.445 54.2577C233.764 54.9175 238.82 54.0378 240.139 53.8179C241.677 53.5979 241.897 51.1786 240.139 50.9587C238.16 50.7388 232.665 51.6185 230.686 51.8384C232.005 51.8384 236.841 48.9793 238.16 48.5394C238.82 48.3195 238.82 47.2198 237.94 46.9999C231.785 46.56 225.85 47.8796 219.915 48.9793C211.781 50.2989 166.278 53.378 154.627 61.5155C151.549 63.7149 148.911 66.574 146.493 69.4332C137.481 80.4298 130.007 92.7461 124.291 105.722C130.007 111.221 137.481 117.159 145.174 119.578Z" fill="#A95B35"/>
<path d="M23.6116 346.55C23.6116 346.55 21.853 358.207 20.9737 363.925C20.9737 364.585 20.7539 365.025 20.3142 365.464C20.0944 365.684 19.6547 365.904 19.2151 365.904C15.0384 367.004 10.4221 366.784 6.46526 365.025C7.12473 357.547 7.78421 350.289 8.22386 342.811C8.22386 342.591 8.22386 342.151 8.44368 341.932C8.6635 341.712 9.32298 341.712 9.5428 341.932C13.06 342.811 16.797 343.251 20.3142 342.811L23.6116 346.55Z" fill="#F6A472"/>
<path d="M129.567 346.11C131.765 351.389 133.743 360.186 135.282 365.684C135.282 365.904 135.282 366.124 135.282 366.344C135.282 366.564 135.062 366.564 134.843 366.784C130.886 368.764 126.05 369.203 121.653 368.104C121.433 368.104 120.994 367.884 120.774 367.664C120.554 367.444 120.334 367.224 120.334 366.784C118.576 362.166 117.257 357.547 115.938 352.928C119.455 351.169 125.39 346.77 129.567 346.11Z" fill="#F6A472"/>
<path d="M97.4725 210.851C106.265 225.366 111.541 241.861 112.86 258.796C113.3 266.494 114.839 274.192 117.037 281.669C119.235 288.927 121.653 295.525 124.731 302.343C131.106 316.859 133.084 335.773 133.524 351.608C133.524 352.708 117.476 358.206 117.037 357.327C108.464 341.711 99.2311 324.117 96.813 306.522C96.3733 303.883 96.1535 301.024 95.494 298.604C94.6147 295.745 93.2958 293.326 92.1967 290.687C82.0847 270.673 73.0719 250.219 65.3781 229.325C59.223 246.48 51.749 262.975 43.1758 279.03C41.8569 281.449 40.5379 283.869 39.6586 286.508C38.5595 289.587 38.1199 292.666 37.6802 295.745C35.0423 311.8 23.6114 352.928 23.6114 352.928C23.6114 352.928 12.1806 352.048 8.00391 350.729C6.90479 332.694 6.68496 314.879 11.5211 297.505C13.4995 290.247 14.5986 282.769 16.3572 275.291C18.3356 266.054 17.2365 256.157 18.5555 246.7C19.6546 238.122 18.5555 226.906 20.7537 218.109C22.2925 211.73 25.1502 204.912 27.3484 200.514C29.107 196.775 34.163 191.057 36.1414 187.318C39.219 181.599 44.7146 180.5 49.7706 176.541L97.4725 210.851Z" fill="#8E8B5E"/>
<path d="M156.825 143.99C162.541 151.028 168.476 158.506 170.454 167.303C171.553 172.362 171.114 177.64 170.454 182.919C169.575 189.297 166.278 200.953 166.278 200.953L135.063 201.173C135.063 201.173 137.041 190.616 135.282 187.757C134.623 186.658 123.852 195.235 119.015 202.493C114.619 209.091 110.222 213.49 108.024 217.888C107.584 218.768 100.55 212.17 99.8906 212.83C99.2312 213.49 98.3519 213.49 97.6924 213.709C74.391 216.349 50.2103 203.593 38.9993 182.919C41.4173 176.321 42.0768 173.901 46.4733 167.303C49.1112 163.125 53.068 159.166 57.4645 156.307C69.7747 147.729 84.5029 135.633 96.3735 126.836C100.33 123.976 104.947 121.557 108.684 118.258C111.981 115.179 114.619 111.66 117.257 107.921C120.774 102.863 127.149 98.2442 130.446 92.9658C139.459 98.4642 144.295 101.983 153.967 106.382C149.131 115.839 147.373 127.935 151.11 137.832L156.825 143.99Z" fill="#8CA3C4"/>
<path d="M86.4814 202.713C88.6796 202.713 93.2959 203.153 95.4942 203.813L87.8003 200.514C87.5805 200.294 87.3607 200.294 87.3607 200.074C87.1408 199.414 88.0201 198.975 88.6796 198.975C94.395 198.535 100.11 202.274 102.309 207.772C102.748 208.872 103.188 210.411 104.067 211.071C104.947 211.731 106.046 211.951 107.145 211.951C117.916 212.61 129.127 209.531 139.899 209.971C140.778 206.012 141.218 205.353 141.877 201.174H163.42C161.881 208.652 159.903 216.569 157.265 223.607C156.825 224.927 156.386 226.246 155.286 227.346C153.748 229.105 151.549 229.765 149.351 229.985C134.403 232.624 119.015 228.446 104.507 224.267C103.188 223.827 101.869 223.387 100.99 222.507C100.11 221.628 99.6708 220.308 99.0113 219.428C97.0329 217.009 93.0761 217.449 90.2184 216.349C88.8994 215.909 88.8994 213.71 90.4382 213.49C91.5373 213.27 93.9554 213.05 95.2743 213.05C92.6364 212.83 88.8994 211.951 86.7012 210.631C85.6021 209.971 86.0417 207.992 87.3607 207.772C88.6796 207.552 91.0977 207.552 92.8563 207.772C90.2184 207.552 86.921 206.892 84.9426 206.232C84.2831 206.012 83.6236 205.353 83.6236 204.473C83.8435 202.933 85.3822 202.713 86.4814 202.713Z" fill="#A95B35"/>
<path d="M139.459 363.705C136.162 360.846 130.226 361.286 127.588 364.805C126.709 365.904 126.27 367.224 125.17 367.884C124.071 368.763 122.313 368.763 121.653 367.664C121.214 366.784 121.433 365.464 120.334 365.024C119.675 364.805 118.795 365.464 118.795 366.124C118.136 369.863 119.675 373.602 118.576 377.341C117.916 379.32 116.597 381.3 117.916 383.279C118.136 383.719 118.576 383.939 118.795 384.159C122.093 386.358 126.27 384.379 130.226 384.159C132.864 383.939 135.502 384.599 138.14 385.038C144.295 385.918 150.45 385.698 156.605 384.379C157.704 384.159 158.804 383.719 159.243 382.619C159.463 381.959 159.243 381.3 159.023 380.64C158.364 379.32 157.045 378.88 155.726 378.221C154.847 377.781 153.967 377.561 153.088 377.341C148.252 375.581 144.295 372.062 141.877 367.664L139.459 363.705Z" fill="#F59F18"/>
<path d="M24.7106 366.784C24.7106 367.004 24.7106 367.224 24.7106 367.444L25.1502 373.822C25.1502 374.701 25.3701 375.581 24.9304 376.241C24.2709 377.561 22.5123 377.561 20.9736 377.78C11.9608 378 2.94797 378 -5.84501 378.22C-7.6036 378.22 -9.58203 378.22 -11.1208 377.121C-11.5604 376.681 -12.0001 376.021 -12.0001 375.361C-12.0001 374.701 -11.7803 374.042 -11.3406 373.602C-8.4829 369.863 -2.76747 369.423 0.0902481 365.904C2.50832 363.045 2.72815 357.986 6.24534 356.667C9.32288 355.347 12.6202 357.767 14.159 360.626C14.8185 361.725 15.2581 362.825 16.1374 363.705C16.5771 364.145 17.2366 364.145 17.6762 364.145C18.9952 363.925 19.4348 362.825 19.8745 361.505C20.0943 360.406 20.3141 359.526 20.9736 358.646C21.633 357.986 23.1718 357.986 23.3917 358.866L24.7106 366.784Z" fill="#F59F18"/>
<path d="M24.4908 373.162C20.9736 375.361 16.5771 375.141 12.6203 374.922C10.2022 374.702 8.00394 374.482 5.58587 374.482C3.1678 374.482 0.529919 374.482 -1.88815 374.702C-4.74587 374.922 -7.38377 375.141 -10.2415 375.361C-10.6811 375.361 -10.6811 374.702 -10.2415 374.702C-5.40535 374.262 -0.349392 373.822 4.48675 373.822C6.90482 373.822 9.3229 373.822 11.5211 374.042C13.4996 374.262 15.6978 374.482 17.6762 374.262C19.8745 374.262 22.0727 373.822 24.0511 372.502C24.4908 372.282 24.7106 372.942 24.4908 373.162Z" fill="white"/>
<path d="M-5.62513 369.863C-3.20706 370.522 -1.00882 371.842 0.74978 373.601C0.969605 373.821 0.529962 374.481 0.310138 374.041C-1.44846 372.282 -3.42689 371.182 -5.84495 370.522C-6.2846 370.302 -6.06478 369.643 -5.62513 369.863Z" fill="white"/>
<path d="M24.7106 368.763C22.7322 370.302 21.1934 372.282 20.0943 374.481C19.8745 374.921 19.215 374.481 19.4348 374.041C20.5339 371.622 22.0727 369.642 24.2709 368.103C24.7106 367.883 25.1502 368.543 24.7106 368.763Z" fill="white"/>
<path d="M10.422 367.883C8.22378 365.024 4.70658 363.264 0.969567 363.484C0.529918 363.484 0.529918 362.825 0.969567 362.825C4.04711 362.605 7.12466 363.704 9.3229 365.684C9.98238 366.344 10.6418 366.783 11.0815 367.663C11.3013 367.883 10.6418 368.323 10.422 367.883Z" fill="white"/>
<path d="M8.66339 370.742C6.24532 368.103 3.38761 366.344 -0.129584 365.464C-0.569234 365.244 -0.349412 364.584 0.0902367 364.804C3.60743 365.684 6.68498 367.663 9.10305 370.302C9.32288 370.522 8.88322 370.962 8.66339 370.742Z" fill="white"/>
<path d="M13.0599 361.285C10.8616 365.904 6.90479 369.642 2.28848 371.622C0.969532 372.282 -0.349401 372.502 -1.88817 372.721C-2.32782 372.721 -2.54766 372.062 -2.10801 372.062C2.72813 371.182 7.34446 368.543 10.2022 364.584C11.0815 363.484 11.7409 362.165 12.4004 361.065C12.6202 360.405 13.2797 360.845 13.0599 361.285Z" fill="white"/>
<path d="M157.045 381.52C151.989 382.619 146.933 383.939 141.657 383.719C136.601 383.499 131.765 381.959 126.929 381.74C124.291 381.74 121.873 382.179 119.455 383.279C119.015 383.499 118.795 382.839 119.015 382.619C123.192 380.2 128.248 380.86 132.644 381.52C135.063 381.959 137.7 382.619 140.338 382.619C142.976 382.839 145.614 382.619 148.032 382.179C150.89 381.739 153.748 381.08 156.605 380.42C157.265 380.86 157.485 381.52 157.045 381.52Z" fill="white"/>
<path d="M124.731 381.74C123.632 379.76 121.653 378.441 119.455 378.001C119.015 378.001 119.235 377.121 119.675 377.341C122.093 377.781 124.071 379.32 125.39 381.52C125.61 381.74 124.951 382.18 124.731 381.74Z" fill="white"/>
<path d="M153.088 378.221C151.11 379.1 149.351 380.64 148.252 382.619C148.032 383.059 147.373 382.619 147.593 382.179C148.692 380.2 150.67 378.661 152.649 377.561C153.308 377.341 153.528 378.001 153.088 378.221Z" fill="white"/>
<path d="M144.955 373.162C143.416 374.262 141.877 375.361 140.778 376.681C140.558 377.121 139.899 376.461 140.338 376.241C141.657 374.922 143.196 373.602 144.735 372.502C144.955 372.282 145.174 372.942 144.955 373.162Z" fill="white"/>
<path d="M142.756 370.743C141.218 371.622 140.118 372.942 139.239 374.482C139.019 374.921 138.36 374.482 138.58 374.042C139.459 372.282 140.778 370.963 142.317 370.083C142.756 369.863 143.196 370.303 142.756 370.743Z" fill="white"/>
<path d="M150.01 380.2C144.515 378 138.799 375.581 135.062 370.743C133.963 369.203 133.084 367.444 132.205 365.904C131.985 365.464 132.644 365.244 132.864 365.464C133.743 367.004 134.403 368.323 135.282 369.643C136.162 370.963 137.041 372.062 138.36 372.942C140.558 374.921 143.196 376.241 145.834 377.341C147.373 378 148.911 378.66 150.45 379.32C150.67 379.76 150.45 380.42 150.01 380.2Z" fill="white"/>
<path d="M74.3909 224.706C71.3134 226.026 68.4556 227.785 65.5979 229.764C65.1583 229.984 64.9384 229.325 65.1583 229.105C67.7962 227.125 70.8737 225.366 73.9513 224.046C74.6107 223.826 74.8305 224.486 74.3909 224.706Z" fill="#84734F"/>
<path d="M31.3054 283.429C28.2279 283.868 25.1503 283.648 22.2926 282.549C21.8529 282.329 22.0728 281.669 22.5124 281.889C25.1503 282.989 28.2279 283.209 31.0856 282.769C31.5252 282.769 31.745 283.429 31.3054 283.429Z" fill="#84734F"/>
<path d="M110.662 286.288C108.684 287.828 106.705 289.147 104.947 290.687C104.507 290.907 104.287 290.247 104.507 290.027C106.485 288.487 108.464 287.168 110.222 285.628C110.662 285.408 111.102 286.068 110.662 286.288Z" fill="#84734F"/>
<path d="M132.205 348.31C128.907 350.509 125.17 352.268 121.214 353.588C120.114 354.028 119.015 354.248 117.916 354.688C117.477 354.908 117.257 354.028 117.696 354.028C121.653 352.928 125.39 351.389 128.907 349.629C130.007 349.189 130.886 348.529 131.765 347.87C132.205 347.43 132.425 348.09 132.205 348.31Z" fill="#84734F"/>
<path d="M23.1719 348.749C19.2151 348.309 15.4781 347.21 11.741 345.67C10.6419 345.23 9.76262 344.79 8.6635 344.351C8.22385 344.131 8.66351 343.471 9.10316 343.691C12.6204 345.45 16.3574 346.55 20.3142 347.43C21.4133 347.65 22.5124 347.869 23.6116 348.089C23.6116 348.089 23.6116 348.749 23.1719 348.749Z" fill="#84734F"/>
<path d="M40.9777 189.957C35.0424 196.995 32.8442 205.792 31.7451 214.59C31.0856 219.208 30.6459 223.827 30.2063 228.445C29.5468 233.724 28.8873 239.222 28.2279 244.501C26.4693 255.277 24.4908 266.054 22.0728 276.831C19.6547 287.388 16.797 298.164 14.1591 308.721C12.8401 314 11.5212 319.498 11.3014 324.996C11.0816 330.715 11.5212 336.213 12.4005 341.711C12.6203 343.031 12.8401 344.35 13.06 345.89C13.06 346.33 12.4005 346.55 12.4005 346.11C11.5212 340.612 10.8617 335.113 10.6419 329.395C10.4221 323.897 11.3014 318.618 12.6203 313.12C13.9393 307.622 15.478 302.343 16.797 297.065C18.1159 291.566 19.4349 286.288 20.7538 280.79C23.3917 270.013 25.59 259.236 27.3486 248.239C28.2279 242.741 29.1072 237.023 29.7666 231.524C30.2063 226.686 30.6459 222.067 31.3054 217.229C32.4045 208.431 34.1631 199.414 39.2191 191.936C39.8786 191.057 40.538 190.177 41.1975 189.517C40.7579 189.077 41.4173 189.737 40.9777 189.957Z" fill="#84734F"/>
<path d="M70.4341 228.885C73.2918 237.463 76.1496 246.26 79.6668 254.837C81.4253 259.016 83.1839 263.415 85.1624 267.374C87.1408 271.552 89.339 275.511 91.5373 279.47C93.7355 283.429 95.9338 287.388 97.9122 291.346C99.6708 295.085 100.99 299.044 102.309 303.003C104.727 310.921 106.705 319.058 108.903 326.976C111.102 334.893 113.52 343.031 117.477 350.289C117.916 351.168 118.356 352.048 119.015 352.928C119.235 353.368 118.576 353.588 118.356 353.368C114.179 346.11 111.541 338.412 109.123 330.495C106.925 322.577 104.947 314.22 102.528 306.302C101.429 302.343 100.11 298.384 98.5717 294.645C96.8131 290.467 94.8346 286.508 92.6364 282.549C90.4382 278.59 88.0201 274.632 86.0417 270.453C84.0632 266.494 82.0848 262.315 80.3262 258.136C76.809 249.779 73.9513 240.982 70.8738 232.404C70.4341 231.305 70.2143 230.205 69.7747 229.105C69.7747 228.665 70.4341 228.445 70.4341 228.885Z" fill="#84734F"/>
<path d="M167.157 196.335C160.562 196.335 154.187 196.115 147.592 196.115C145.834 196.115 143.855 196.115 142.097 195.895C141.657 195.895 141.657 195.235 142.097 195.235C148.692 195.455 155.066 195.455 161.661 195.675C163.42 195.675 165.398 195.675 167.157 195.675C167.596 195.675 167.596 196.335 167.157 196.335Z" fill="#363644"/>
<path d="M151.11 111C144.955 107.921 139.019 104.622 133.304 101.103C131.765 100.224 130.007 99.1238 128.468 98.2441C128.028 98.0242 128.468 97.3644 128.908 97.5843C134.623 101.103 140.558 104.622 146.713 107.701C148.472 108.581 150.011 109.461 151.769 110.34C151.769 110.56 151.549 111.22 151.11 111Z" fill="#363644"/>
<path d="M81.2056 209.751C74.6108 208.211 68.2359 206.012 62.3007 202.933C56.8051 200.074 51.7491 196.335 47.5724 191.936C45.1544 189.517 43.1759 186.658 41.4173 183.799C41.1975 183.359 41.857 183.139 42.0768 183.359C45.1544 188.637 49.1112 193.036 53.9473 196.775C59.0033 200.734 64.7187 203.593 70.654 205.792C74.1712 207.112 77.6884 208.211 81.4254 209.091C81.865 209.091 81.6452 209.751 81.2056 209.751Z" fill="#363644"/>
<path d="M69.335 158.726C71.5333 160.046 73.5117 161.805 74.8306 164.004C75.0505 164.444 74.391 164.664 74.1712 164.444C72.8522 162.465 71.0936 160.705 68.8954 159.386C68.6756 159.166 69.1152 158.506 69.335 158.726Z" fill="#363644"/>
<path d="M68.0161 161.806C69.1152 162.685 69.7747 163.785 70.2143 165.325C70.4341 165.764 69.7747 165.984 69.5548 165.544C69.1152 164.445 68.4557 163.345 67.3566 162.465C67.1368 162.245 67.1368 162.026 67.3566 162.026C67.5764 161.586 67.7962 161.586 68.0161 161.806Z" fill="#363644"/>
<path d="M150.67 149.269C148.692 150.589 146.273 150.589 144.295 149.709C142.097 148.83 140.338 147.29 139.019 145.311C137.7 143.331 136.601 140.912 135.722 138.493C134.843 136.073 134.183 133.214 134.843 130.795C135.502 128.596 137.041 126.396 139.459 125.736C139.899 125.517 140.118 126.396 139.679 126.396C137.7 126.836 136.381 128.596 135.722 130.575C134.843 132.994 135.282 135.414 136.162 137.613C136.821 139.812 137.92 142.232 139.019 144.211C140.118 146.19 141.657 147.73 143.636 148.83C145.834 149.929 148.252 149.929 150.23 148.83C150.67 148.39 151.11 149.049 150.67 149.269Z" fill="#363644"/>
<path d="M100.33 214.369C97.9121 213.05 95.0544 212.61 92.6363 213.27C92.1966 213.27 91.9768 212.61 92.4165 212.61C95.2742 211.95 98.3517 212.39 100.77 213.709C101.209 213.929 100.77 214.589 100.33 214.369Z" fill="#682F1B"/>
<path d="M99.0112 209.311C95.494 207.991 91.5372 207.551 87.8002 207.551C87.3605 207.551 87.3605 206.892 87.8002 206.892C91.757 206.892 95.494 207.331 99.2311 208.651C99.6707 208.651 99.4509 209.311 99.0112 209.311Z" fill="#682F1B"/>
<path d="M99.2312 206.012C96.5933 204.693 93.9554 203.813 91.3175 203.153C90.8779 203.153 91.0977 202.273 91.5373 202.493C94.1752 203.153 97.0329 204.253 99.6708 205.352C99.8907 205.572 99.6708 206.232 99.2312 206.012Z" fill="#682F1B"/>
<path d="M99.6707 204.033C100.11 207.991 100.77 211.73 101.209 215.689C101.209 215.909 100.99 216.129 100.77 216.129C100.55 216.129 100.33 215.909 100.33 215.689C99.8905 211.73 99.2311 207.991 98.7914 204.033C98.7914 203.813 99.0112 203.593 99.2311 203.593C99.4509 203.813 99.6707 203.813 99.6707 204.033Z" fill="#682F1B"/>
<path d="M105.606 212.61C106.046 214.809 106.046 217.009 105.826 219.208C105.826 219.648 105.166 219.648 105.166 219.208C105.386 217.009 105.386 214.809 104.947 212.83C104.947 212.39 105.606 212.17 105.606 212.61Z" fill="#682F1B"/>
<path d="M141.218 214.149C142.976 215.029 144.515 216.569 145.394 218.328C145.394 218.548 145.394 218.768 145.174 218.768C144.955 218.768 144.735 218.768 144.735 218.548C143.856 216.789 142.537 215.469 140.998 214.589C140.558 214.589 140.778 213.929 141.218 214.149Z" fill="#682F1B"/>
<path d="M164.519 71.1923C162.98 72.292 161.881 73.8315 161.002 75.371C161.002 75.591 160.562 75.591 160.562 75.591C160.342 75.591 160.342 75.3711 160.342 75.1511C161.222 73.3916 162.541 71.8521 164.079 70.5325C164.299 70.3126 164.519 70.5325 164.519 70.7524C164.739 70.7524 164.519 70.9724 164.519 71.1923Z" fill="#682F1B"/>
<path d="M226.949 64.5941C222.992 64.1543 221.014 60.1955 217.277 59.0958C216.178 58.8759 215.298 58.6559 214.199 59.0958C213.76 59.3157 213.32 58.6559 213.76 58.436C215.518 57.5563 217.497 58.2161 219.255 59.3157C221.014 60.1955 222.333 61.735 223.872 62.8347C224.751 63.2745 225.85 63.7144 226.949 63.9343C227.389 63.9343 227.389 64.5941 226.949 64.5941Z" fill="#682F1B"/>
<path d="M231.785 50.0789C231.785 54.0377 231.785 57.7766 231.785 61.7354C231.785 62.1753 231.126 62.1753 231.126 61.7354C231.126 57.7766 231.126 54.0377 231.126 50.0789C231.126 49.6391 231.785 49.6391 231.785 50.0789Z" fill="#682F1B"/>
<path d="M241.238 54.4776C238.16 54.2576 234.863 54.6975 231.785 55.5772C231.346 55.5772 231.126 54.9174 231.565 54.9174C234.643 54.0377 237.94 53.5978 241.238 53.8178C241.677 53.8178 241.677 54.4776 241.238 54.4776Z" fill="#682F1B"/>
<path d="M227.828 52.2781C225.85 52.2781 223.652 52.0582 221.893 53.1578C220.135 54.2575 218.816 55.797 217.057 56.2369C215.958 56.4568 214.859 56.4568 213.979 56.017C213.54 55.797 213.979 55.1372 214.419 55.3572C216.178 56.4568 218.156 55.1372 219.475 54.0376C220.135 53.3778 221.014 52.718 221.893 52.2781C222.772 51.8382 223.652 51.6183 224.751 51.3983C225.85 51.1784 226.949 51.1784 228.268 51.3983C228.268 51.6183 228.268 52.2781 227.828 52.2781Z" fill="#682F1B"/>
<path d="M156.166 112.98C154.407 115.84 150.89 117.379 147.593 117.159C146.713 117.159 146.054 117.819 146.274 118.699C146.713 120.018 147.153 121.118 148.252 122.218C149.571 123.537 158.364 125.517 160.123 124.417L156.166 112.98Z" fill="black"/>
<path d="M195.075 127.496C190.019 131.895 168.696 147.29 165.838 145.311C162.101 142.891 157.485 138.493 157.485 138.493C154.407 140.692 151.33 142.671 148.472 144.871C147.812 145.311 147.153 145.75 146.493 145.75C145.834 145.75 145.175 145.311 144.515 144.871C141.218 142.451 139.019 138.053 139.019 133.654C139.019 132.554 139.019 131.235 139.679 130.135C140.338 129.035 141.438 128.156 142.317 127.496C146.933 124.197 151.549 121.118 156.386 117.819C155.067 118.479 153.528 117.379 153.088 115.839C152.649 114.3 153.088 112.76 153.968 111.441C155.067 109.681 156.825 108.142 158.804 107.922C160.782 107.702 162.98 109.021 163.42 111.221C167.597 108.362 174.191 104.623 178.368 101.764L195.075 127.496Z" fill="#A95B35"/>
<path d="M159.463 116.279C159.243 114.96 158.804 113.86 158.144 112.761C157.924 112.321 158.584 112.101 158.804 112.321C159.463 113.42 159.903 114.74 160.123 116.06C160.123 116.279 160.123 116.499 159.903 116.499C159.683 116.499 159.463 116.499 159.463 116.279Z" fill="#682F1B"/>
<path d="M159.463 114.74C158.584 114.74 157.485 114.96 156.825 115.62C156.605 115.62 156.386 115.62 156.386 115.4C156.386 115.18 156.386 114.96 156.605 114.96C157.485 114.3 158.584 114.08 159.683 114.08C159.903 114.08 160.123 114.3 160.123 114.52C159.903 114.52 159.683 114.74 159.463 114.74Z" fill="#682F1B"/>
<path opacity="0.4" d="M157.485 138.492L149.791 129.255L152.868 141.571L157.485 138.492Z" fill="#7F4924"/>
<path d="M169.575 119.358C168.916 120.018 168.696 121.118 169.135 121.558C169.575 121.997 170.674 121.997 171.334 121.118C171.993 120.458 172.213 119.358 171.773 118.918C171.334 118.478 170.234 118.698 169.575 119.358Z" fill="black"/>
<path d="M179.907 129.915C179.247 130.575 179.027 131.674 179.467 132.114C179.907 132.554 181.006 132.554 181.665 131.674C182.325 130.795 182.545 129.915 182.105 129.475C181.665 129.035 180.566 129.255 179.907 129.915Z" fill="black"/>
<path d="M178.808 116.499C177.708 117.158 176.609 118.698 175.51 118.258C174.851 118.038 174.631 117.598 174.191 116.938C173.312 115.619 171.773 114.739 170.454 114.519C171.773 113.42 173.532 112.98 175.071 113.42C176.609 113.859 178.148 114.959 178.808 116.499Z" fill="black"/>
<path d="M184.743 123.317C183.864 124.197 182.105 124.637 181.885 125.957C181.885 126.616 182.325 127.056 182.764 127.716C183.644 129.036 184.083 130.575 184.083 132.115C185.402 131.235 186.501 129.695 186.501 128.156C186.501 126.616 185.842 124.857 184.743 123.757V123.317Z" fill="black"/>
<path d="M178.148 124.856C176.389 128.375 173.752 131.234 170.234 132.994C170.014 132.994 169.795 132.994 169.795 132.774C169.355 131.894 168.696 131.014 168.256 129.914C168.036 129.475 168.696 129.255 168.915 129.475C169.355 130.354 170.015 131.234 170.454 132.334C170.234 132.334 170.234 132.334 170.015 132.114C173.312 130.354 175.95 127.495 177.708 124.196C177.708 123.976 178.368 124.416 178.148 124.856Z" fill="#682F1B"/>
<path d="M166.937 131.675C165.398 131.235 164.739 129.475 165.398 127.936C165.398 127.716 165.838 127.716 165.838 127.716C166.058 127.716 166.058 127.936 166.058 128.156C165.838 128.596 165.838 129.255 166.058 129.695C166.278 130.135 166.717 130.575 167.157 130.795C167.596 131.235 167.377 131.895 166.937 131.675Z" fill="#682F1B"/>
<path d="M165.838 138.712C165.838 139.812 164.739 140.472 163.64 140.252C163.42 140.252 163.2 140.032 162.98 139.812C162.76 139.592 162.76 139.372 162.98 139.372C163.2 139.152 163.42 139.152 163.42 139.372C163.42 139.372 163.42 139.372 163.64 139.372H163.859H164.079H164.299C164.299 139.372 164.299 139.372 164.519 139.372C164.519 139.372 164.519 139.372 164.739 139.152C164.739 139.152 164.739 139.152 164.739 138.932C164.739 138.712 164.959 138.492 165.178 138.492C165.838 138.273 165.838 138.492 165.838 138.712Z" fill="#682F1B"/>
<path d="M164.299 106.602C162.76 106.602 160.782 106.822 159.683 105.722C158.364 104.843 158.364 102.423 159.903 101.763C159.243 100.664 159.683 98.9043 160.562 98.0246C161.661 97.1448 163.2 96.9249 164.299 97.5847C163.859 96.0452 165.398 94.5056 166.937 94.2857C168.476 94.0658 170.234 94.9455 171.553 95.6053C173.532 92.3063 177.708 90.5468 181.226 91.4266C182.764 89.2272 186.501 89.4471 188.48 91.2066C190.458 92.9661 191.118 95.8252 191.337 98.4644C194.855 99.3442 197.053 103.743 195.734 107.042C198.152 107.482 200.13 109.461 200.57 111.88C201.01 114.3 200.13 116.939 198.152 118.478C202.109 120.238 202.768 126.616 199.251 129.255C199.031 128.595 199.911 128.155 200.35 128.595C200.79 129.255 201.01 129.915 200.79 130.575C200.57 132.554 199.251 134.094 197.493 134.754C195.734 135.413 193.756 134.973 192.437 133.434C191.557 134.534 189.799 133.654 188.919 132.774C188.04 131.894 186.941 131.015 186.501 129.915C186.062 128.815 186.282 127.276 187.381 126.616C184.743 125.736 183.424 122.437 184.303 120.018C181.445 119.798 179.687 116.059 181.006 113.42C178.807 112.32 176.829 110.341 175.95 107.922C176.609 109.241 175.73 111.221 174.411 111.88C172.872 112.32 171.114 111.441 170.894 109.901C171.333 111.221 170.674 112.76 169.575 113.42C168.476 114.3 166.717 114.08 165.838 113.2C164.739 114.3 163.2 114.3 162.101 113.86C160.782 113.2 160.122 111.88 160.562 110.341C160.782 109.021 161.881 107.922 162.54 106.822C162.98 105.502 162.54 103.743 161.222 103.523L164.299 106.602Z" fill="black"/>
<path d="M129.787 145.97C132.205 146.41 134.623 146.63 137.041 147.069C137.7 147.289 138.36 147.289 139.019 147.289C139.239 147.289 139.239 147.509 139.239 147.509C139.239 147.729 139.239 147.729 139.019 147.949C137.92 149.489 136.601 150.808 135.502 152.348C135.502 152.128 135.282 151.908 135.282 151.688C137.7 151.908 140.119 152.788 142.537 153.887C143.636 154.327 144.735 154.767 146.054 154.987C147.153 155.207 148.472 155.207 149.351 154.987C150.45 154.767 151.549 154.107 152.429 153.228C152.649 153.008 152.868 153.008 152.868 153.228C153.088 153.447 153.088 153.667 152.868 153.667C151.33 155.647 148.692 156.087 146.493 155.867C145.394 155.647 144.075 155.427 142.976 154.987C141.877 154.547 140.558 154.107 139.459 153.667C138.14 153.228 136.821 152.788 135.282 152.788C134.843 152.788 134.843 152.348 135.063 152.128C136.162 150.588 137.481 149.269 138.58 147.729C138.58 147.949 138.8 148.169 138.8 148.389C136.381 147.949 133.963 147.729 131.545 147.289C130.886 147.069 130.226 147.069 129.567 147.069C129.347 147.069 129.347 146.849 129.347 146.63C129.347 146.19 129.787 145.97 129.787 145.97Z" fill="#1D4A5E"/>
<path d="M128.248 142.891C129.127 140.911 129.787 139.152 130.666 137.173C130.886 136.733 131.106 136.073 131.326 135.633C131.326 135.413 131.765 135.413 131.765 135.413C131.985 135.413 131.985 135.633 131.985 135.853C131.106 137.832 130.446 139.592 129.567 141.571C129.347 142.011 129.127 142.671 128.908 143.111C128.908 143.331 128.468 143.331 128.468 143.331C128.248 143.331 128.028 143.111 128.248 142.891Z" fill="#1D4A5E"/>
<path d="M86.4813 182.699C86.4813 182.699 86.7012 182.479 86.7012 182.699L86.921 182.479C86.921 182.479 86.921 182.479 86.921 182.259C86.921 182.259 86.921 182.039 87.1408 182.039V181.819C87.1408 181.599 87.1408 181.599 87.1408 181.599C87.1408 181.599 87.1408 181.599 87.1408 181.379C87.1408 181.379 87.1408 181.379 87.1408 181.159V180.939L86.921 180.719C86.921 180.719 86.921 180.719 86.7012 180.719C86.7012 180.719 86.4813 180.719 86.4813 180.5H86.2615C86.0417 180.5 85.8219 180.5 85.8219 180.5C85.8219 180.5 85.602 180.719 85.602 180.5C85.602 180.5 85.602 180.719 85.3822 180.719V180.939C85.3822 180.939 85.3822 180.939 85.3822 181.159V181.379C85.3822 181.379 85.3822 181.379 85.3822 181.599L85.602 181.819L85.8219 182.039C85.8219 182.039 85.8219 182.039 86.0417 182.039C86.0417 182.039 86.0417 182.039 86.2615 182.039C86.4813 182.039 86.4813 182.039 86.4813 182.039H86.7012C86.921 182.039 87.1408 182.259 87.3606 182.479C87.3606 182.699 87.1408 182.919 86.921 183.139C84.9426 183.359 83.6236 180.939 84.7227 179.4C85.3822 178.74 86.2615 178.3 87.1408 178.52C88.0201 178.74 88.8994 179.4 88.8994 180.5C89.1192 181.599 88.4598 182.699 87.3606 183.139C87.1408 183.139 86.921 183.139 86.7012 182.919C86.2615 182.919 86.2615 182.699 86.4813 182.699Z" fill="#1D4A5E"/>
<path d="M105.166 166.204C105.166 166.204 105.386 165.984 105.386 166.204L105.606 165.984C105.606 165.984 105.606 165.984 105.606 165.764C105.606 165.764 105.606 165.544 105.826 165.544V165.324C105.826 165.104 105.826 165.104 105.826 165.104C105.826 165.104 105.826 165.104 105.826 164.884C105.826 164.884 105.826 164.884 105.826 164.664V164.444L105.606 164.224C105.606 164.224 105.606 164.224 105.386 164.224C105.386 164.224 105.166 164.224 105.166 164.004H104.946C104.727 164.004 104.507 164.004 104.507 164.004C104.507 164.004 104.287 164.224 104.287 164.004C104.287 164.004 104.287 164.224 104.067 164.224V164.444C104.067 164.444 104.067 164.444 104.067 164.664V164.884C104.067 164.884 104.067 164.884 104.067 165.104L104.287 165.324L104.507 165.544C104.507 165.544 104.507 165.544 104.727 165.544C104.727 165.544 104.727 165.544 104.946 165.544C105.166 165.544 105.166 165.544 105.166 165.544H105.386C105.606 165.544 105.826 165.764 106.046 165.984C106.046 166.204 105.826 166.424 105.606 166.644C103.628 166.864 102.309 164.444 103.408 162.905C104.067 162.245 104.946 161.805 105.826 162.025C106.705 162.245 107.584 162.905 107.584 164.004C107.804 165.104 107.145 166.204 106.046 166.644C105.826 166.644 105.606 166.644 105.386 166.424C104.727 166.644 104.946 166.424 105.166 166.204Z" fill="#1D4A5E"/>
<path d="M122.093 153.448C122.093 153.448 122.313 153.228 122.313 153.448L122.532 153.228C122.532 153.228 122.532 153.228 122.532 153.008C122.532 153.008 122.532 152.788 122.752 152.788V152.568C122.752 152.348 122.752 152.348 122.752 152.348C122.752 152.348 122.752 152.348 122.752 152.128C122.752 152.128 122.752 152.128 122.752 151.908V151.688L122.532 151.468C122.532 151.468 122.532 151.468 122.313 151.468C122.313 151.468 122.093 151.468 122.093 151.249H121.873C121.653 151.249 121.433 151.249 121.433 151.249C121.433 151.249 121.213 151.468 121.213 151.249C121.213 151.249 121.213 151.468 120.994 151.468V151.688C120.994 151.688 120.994 151.688 120.994 151.908V152.128C120.994 152.128 120.994 152.128 120.994 152.348L121.213 152.568L121.433 152.788C121.433 152.788 121.433 152.788 121.653 152.788C121.653 152.788 121.653 152.788 121.873 152.788C122.093 152.788 122.093 152.788 122.093 152.788H122.313C122.532 152.788 122.752 153.008 122.972 153.228C122.972 153.448 122.752 153.668 122.532 153.888C120.554 154.108 119.235 151.688 120.334 150.149C120.994 149.489 121.873 149.049 122.752 149.269C123.632 149.489 124.511 150.149 124.511 151.249C124.731 152.348 124.071 153.448 122.972 153.888C122.752 153.888 122.532 153.888 122.313 153.668C121.653 153.888 121.873 153.448 122.093 153.448Z" fill="#1D4A5E"/>
<path d="M73.7314 191.936C73.7314 191.936 73.9513 191.716 73.9513 191.936L74.1711 191.716C74.1711 191.716 74.1711 191.716 74.1711 191.496C74.1711 191.496 74.1711 191.276 74.3909 191.276V191.056C74.3909 190.836 74.3909 190.836 74.3909 190.836C74.3909 190.836 74.3909 190.836 74.3909 190.617C74.3909 190.617 74.3909 190.617 74.3909 190.397V190.177L74.1711 189.957C74.1711 189.957 74.1711 189.957 73.9513 189.957C73.9513 189.957 73.7314 189.957 73.7314 189.737H73.5116C73.2918 189.737 73.072 189.737 73.072 189.737C73.072 189.737 72.8522 189.957 72.8522 189.737C72.8522 189.737 72.8522 189.957 72.6323 189.957V190.177C72.6323 190.177 72.6323 190.177 72.6323 190.397V190.617C72.6323 190.617 72.6323 190.617 72.6323 190.836L72.8522 191.056L73.072 191.276C73.072 191.276 73.072 191.276 73.2918 191.276C73.2918 191.276 73.2918 191.276 73.5116 191.276C73.7315 191.276 73.7314 191.276 73.7314 191.276H73.9513C74.1711 191.276 74.3909 191.496 74.6108 191.716C74.6108 191.936 74.3909 192.156 74.1711 192.376C72.1927 192.596 70.8737 190.177 71.9729 188.637C72.6323 187.977 73.5116 187.537 74.3909 187.757C75.2702 187.977 76.1495 188.637 76.1495 189.737C76.3694 190.836 75.7099 191.936 74.6108 192.376C74.3909 192.376 74.1711 192.376 73.9513 192.156C73.2918 192.376 73.5116 192.156 73.7314 191.936Z" fill="#1D4A5E"/>
</g>
<g clip-path="url(#clip2_824_29857)">
<path d="M243.432 76.9157C244.128 78.9972 243.2 82.235 245.52 82.6975C247.608 83.1601 250.16 82.6975 251.784 81.3099C251.32 80.8474 250.392 81.3099 250.392 82.0037C250.392 82.6975 250.856 83.1601 251.552 83.6226C253.872 85.0103 257.352 84.779 259.44 83.1601C262.224 82.235 264.776 80.6161 266.864 78.5346C266.4 78.3034 265.472 78.5346 265.24 78.9972C267.328 79.691 269.88 78.5346 271.04 76.4532C272.2 74.3718 271.504 71.8278 269.648 70.4401C271.04 70.9027 272.432 69.2838 272.664 67.8961C273.36 64.6583 270.344 61.1893 267.096 61.4205C266.168 61.4205 265.008 62.3456 265.704 63.0394C266.168 63.502 266.864 63.0394 267.328 62.5769C268.72 60.958 268.488 58.414 267.096 56.5638C265.704 54.7136 263.616 54.0198 261.528 53.326C259.672 52.8635 257.816 52.4009 256.192 52.8635C254.336 53.326 252.712 54.7136 252.48 56.5638C252.48 57.2576 252.944 58.1827 253.408 57.7202C252.48 54.9449 249 53.5573 246.68 55.1762C244.36 56.5638 243.664 60.2642 245.52 62.3456C243.664 61.1893 241.344 62.5769 240.648 64.4271C239.952 66.5085 240.648 68.59 242.04 69.9776C240.416 69.9776 239.488 72.059 240.184 73.6779C240.416 75.0656 242.04 75.9907 243.432 76.9157Z" fill="#C23F37"/>
<path d="M262.456 345.885C260.832 350.279 259.208 354.673 257.584 359.067C257.352 359.53 257.352 359.992 257.352 360.224C257.352 360.686 257.816 360.917 258.28 361.38C260.368 362.999 262.92 364.387 265.472 364.849C266.863 365.08 268.255 365.312 269.415 364.387C269.183 365.312 270.111 363.924 269.415 364.387C271.735 358.373 277.303 350.741 279.623 344.728C275.679 343.572 269.647 342.416 265.704 341.953L262.456 345.885Z" fill="#FED5B7"/>
<path d="M290.295 131.496C289.367 132.19 288.207 132.421 287.047 132.653C283.103 133.115 279.159 133.809 275.215 134.272L281.711 128.952L271.271 116.695C271.271 116.695 254.104 103.512 244.824 105.825C239.256 107.213 235.312 106.056 233.224 104.9C232.992 102.587 231.832 100.275 231.368 97.7306C230.904 93.7989 232.528 89.8673 235.312 86.8608C237.864 83.8542 241.344 81.7728 244.824 79.4601C246.216 78.535 247.84 77.8412 249.232 78.7663L249.464 78.535C251.784 75.7597 255.496 74.6034 259.208 75.0659C262.687 75.5285 265.935 77.6099 268.255 80.3852C268.951 81.3103 269.647 82.4666 270.807 83.1604C272.895 84.7793 276.143 85.0106 277.999 86.8608C281.015 89.8673 280.087 94.9553 281.943 98.6556C283.567 101.893 287.511 103.512 288.671 106.981C290.063 111.144 287.047 115.538 288.207 119.933C288.671 122.014 290.295 123.633 291.223 125.714C291.687 127.333 291.919 130.109 290.295 131.496Z" fill="#C23F37"/>
<path d="M339.943 141.44C347.831 154.854 355.951 165.03 360.823 179.832C346.439 192.552 319.759 202.265 300.503 200.646C303.519 190.239 298.647 178.444 291.223 170.581C303.055 160.405 322.543 149.304 336.695 142.366C337.159 142.134 337.855 141.903 338.319 142.134C338.783 142.366 338.319 143.291 337.855 143.059L339.943 141.44Z" fill="#F6A472"/>
<path d="M290.295 113.457C288.439 110.45 287.511 106.981 285.887 103.743C281.015 94.0298 271.039 87.7854 261.528 82.2349C252.712 77.1469 243.896 71.8277 235.312 66.7397C230.672 63.9644 225.8 61.1892 220.464 60.0328C218.376 59.5703 216.288 59.339 214.2 58.8764C211.648 58.4139 209.096 57.4888 206.312 56.5637C202.136 54.7135 197.728 53.0946 193.32 51.4757C191.928 51.0132 190.072 48.7005 191.696 48.0067C191.928 47.7754 192.392 47.7754 192.856 47.7754C226.728 49.6256 260.6 60.2641 287.279 80.8473C292.847 85.0102 297.951 89.6356 303.055 94.4923C312.799 103.281 323.007 112.532 328.343 124.558C320.919 124.789 292.151 116.463 290.295 113.457Z" fill="#F6A472"/>
<path d="M305.839 180.063C322.079 182.838 341.567 175.9 355.951 168.268C356.879 167.805 384.487 207.353 388.199 273.496C388.431 277.428 388.895 281.128 389.823 284.829C390.983 289.917 393.535 294.542 395.623 299.168C403.047 314.432 412.326 353.516 412.326 353.516L396.783 359.53C396.783 359.53 376.135 328.539 369.871 311.194C366.623 302.405 365.463 293.155 361.519 284.597C358.271 277.891 357.343 272.571 352.935 266.558C345.511 256.614 343.655 245.05 338.319 233.718C335.767 249.444 321.615 265.171 315.119 279.741C313.031 284.366 310.943 288.992 308.159 292.923C305.607 296.392 304.215 300.786 301.663 304.256C295.167 312.813 293.543 320.445 289.135 330.158C285.887 337.327 280.087 347.272 275.911 353.979C275.215 354.904 263.152 350.973 259.904 349.354C262.224 340.565 264.312 331.777 266.632 322.757C268.256 315.819 270.111 308.881 273.127 302.405C276.607 295.005 281.943 288.298 283.799 280.435C284.727 276.734 284.727 273.034 284.959 269.334C286.583 249.444 290.295 227.011 297.487 208.509L305.839 180.063Z" fill="#C23F37"/>
<path d="M270.575 139.59C274.287 145.834 277.535 152.31 280.087 159.248C280.783 161.098 286.583 161.792 286.583 163.642C286.583 165.492 282.639 173.587 281.943 175.206C278.695 183.069 272.663 185.613 268.487 193.245C276.375 194.17 284.495 194.17 292.383 193.476C294.935 193.245 297.719 192.782 299.343 190.932C301.199 188.619 300.735 185.613 301.199 182.838C302.127 177.75 307.231 173.587 312.335 173.356C313.031 173.356 313.263 174.049 312.799 174.512C310.943 176.825 308.391 178.675 305.839 180.062C307.927 177.75 310.711 175.9 313.727 174.974C314.423 174.743 314.887 175.437 314.423 175.9C312.335 178.906 309.551 181.219 306.303 182.838C308.623 180.756 311.407 178.906 314.423 177.75C314.887 177.518 315.351 177.981 315.351 178.444C314.655 180.988 310.015 184.457 307.463 185.15C308.623 183.994 312.799 182.144 314.423 182.606C315.119 182.838 315.119 183.531 314.423 183.763C311.175 185.15 308.391 188.157 307.927 191.857C307.695 193.707 307.927 195.558 307.231 197.177C306.071 199.489 303.519 200.414 300.967 201.108C287.511 204.809 273.591 207.353 259.671 208.971C257.351 209.203 254.568 209.434 252.48 208.278C248.536 205.965 248.536 200.183 249.696 195.558C252.016 185.613 270.575 139.59 270.575 139.59Z" fill="#F6A472"/>
<path d="M275.679 130.802C272.896 134.271 269.648 139.359 269.416 141.209C273.591 148.147 275.447 154.854 279.391 162.023C283.103 168.962 287.975 176.825 295.863 177.056C303.055 177.287 308.391 171.043 313.263 165.724C321.615 156.704 330.663 150.46 342.031 145.372C340.871 131.496 331.591 125.02 322.775 118.544C313.959 112.069 299.343 107.443 288.439 108.831C287.047 119.007 283.335 121.32 277.999 126.176L275.679 130.802Z" fill="#EC8117"/>
<path d="M236.008 100.043C240.648 108.6 256.192 123.401 258.976 124.095C261.76 124.789 268.488 120.394 270.112 117.85C270.112 118.082 276.608 128.72 276.376 128.72L274.288 132.883C274.984 135.427 276.608 144.447 278.232 146.528C280.551 149.535 283.103 153.004 287.047 153.698C289.135 154.16 291.223 153.698 293.079 153.004C300.039 150.229 303.055 141.671 301.895 134.271C300.503 126.87 295.631 120.857 290.295 115.769C284.959 110.681 278.696 106.287 273.592 100.736C277.304 100.505 278.928 95.1858 276.608 92.6419C274.288 89.8666 269.416 90.3291 267.096 93.1044C262.688 90.3291 258.28 87.0913 254.104 83.8535L236.008 100.043Z" fill="#F6A472"/>
<path d="M312.567 182.145C309.783 182.376 307.463 184.226 306.535 186.77C306.303 187.233 306.999 187.464 307.231 187.001C307.927 184.689 310.015 183.07 312.567 182.838C313.031 182.838 313.031 182.145 312.567 182.145Z" fill="#8D532B"/>
<path d="M313.031 181.913C314.191 181.219 315.119 180.063 315.815 178.675C316.047 177.981 316.279 177.287 315.583 176.825C315.119 176.594 314.423 176.594 313.727 176.825C310.943 177.519 308.623 179.138 306.767 181.219C305.839 182.375 304.911 183.763 304.215 185.151C303.983 185.613 304.679 185.844 304.911 185.382C305.839 183.069 307.463 181.219 309.319 179.831C310.247 179.138 311.407 178.444 312.567 177.981C313.031 177.75 313.727 177.519 314.191 177.519C314.423 177.519 314.655 177.519 314.887 177.519C315.119 177.519 315.119 177.981 315.119 178.212C314.655 179.6 313.959 180.756 312.567 181.45C312.103 181.682 312.567 182.144 313.031 181.913Z" fill="#8D532B"/>
<path d="M312.799 177.519C313.495 176.826 314.423 175.9 313.727 174.744C313.031 173.819 311.871 174.282 310.943 174.744C309.087 175.669 307.231 176.826 306.071 178.444C305.375 179.37 304.679 180.295 304.215 181.451C303.983 181.913 304.679 182.145 304.911 181.913C305.607 180.295 306.767 178.907 308.159 177.751C308.855 177.057 309.551 176.594 310.247 176.132C310.711 175.9 310.943 175.669 311.407 175.438C311.871 175.207 312.335 174.975 312.567 174.975C313.031 174.975 313.263 175.207 313.263 175.669C313.263 176.132 312.799 176.594 312.335 177.057C311.871 177.288 312.335 177.751 312.799 177.519Z" fill="#8D532B"/>
<path d="M310.479 174.975C310.711 174.512 310.711 174.05 310.943 173.587C310.943 173.587 310.943 173.356 310.943 173.125C309.783 172.199 308.623 172.893 307.463 173.587C306.303 174.281 305.375 174.975 304.679 175.9C303.055 177.75 301.895 179.831 300.967 182.144C300.503 183.532 300.271 184.919 300.039 186.307C300.039 186.77 300.735 187.001 300.735 186.538C301.431 182.144 303.287 177.519 306.999 174.975C307.463 174.512 308.159 174.281 308.623 174.05C309.087 173.818 310.015 173.587 310.479 173.818C310.479 173.587 310.479 173.587 310.479 173.356C310.247 173.818 310.247 174.281 310.015 174.743C309.783 175.206 310.479 175.437 310.479 174.975Z" fill="#8D532B"/>
<path d="M298.183 192.32C298.879 193.476 300.039 194.633 301.199 195.326C301.663 195.558 301.895 194.864 301.663 194.633C300.503 193.939 299.575 193.014 298.879 191.857C298.647 191.626 297.951 191.857 298.183 192.32Z" fill="#8D532B"/>
<path d="M267.792 193.245C266.864 194.633 266.168 196.021 265.24 197.408C265.008 197.871 265.704 198.102 265.936 197.871C266.864 196.483 267.56 195.095 268.488 193.708C268.72 193.245 268.024 192.783 267.792 193.245Z" fill="#8D532B"/>
<path d="M323.471 164.337C324.399 167.343 325.327 170.119 326.255 173.125C326.487 173.588 327.183 173.357 326.951 172.894C326.023 169.887 325.095 167.112 324.167 164.106C323.935 163.643 323.239 163.874 323.471 164.337Z" fill="#8D532B"/>
<path d="M271.967 97.9614C272.663 96.5737 273.127 95.1861 273.823 93.7985C273.823 93.5672 273.823 93.3359 273.591 93.3359C273.359 93.3359 273.127 93.3359 273.127 93.5672C272.431 94.9548 271.967 96.3425 271.271 97.7301C271.271 97.9614 271.271 98.1926 271.503 98.1926C271.503 98.1926 271.967 98.1926 271.967 97.9614Z" fill="#8D532B"/>
<path d="M272.664 96.8051C272.896 96.8051 272.896 96.8051 272.896 96.8051C272.896 96.8051 272.896 96.8051 273.128 96.8051C273.36 96.8051 273.36 97.0364 273.592 97.0364C273.592 97.0364 273.824 97.0364 273.824 97.2677C274.056 97.2677 274.056 97.499 274.288 97.7302C274.52 97.9615 274.752 97.9615 274.752 97.7302C274.984 97.499 274.984 97.2677 274.752 97.2677C274.288 96.8051 273.592 96.3426 272.896 96.1113C272.664 96.1113 272.432 96.1113 272.432 96.3426C272.2 96.5739 272.432 96.8051 272.664 96.8051Z" fill="#8D532B"/>
<path opacity="0.57" d="M270.344 117.851L276.839 109.987L273.127 122.476L270.344 117.851Z" fill="#8D532B"/>
<path d="M261.295 116.001C263.383 116.001 265.239 114.382 265.703 112.3C265.703 112.069 265.703 111.838 265.471 111.838C265.239 111.838 265.007 111.838 265.007 112.069C264.775 113.688 263.151 115.076 261.295 115.076C260.599 115.307 260.599 116.001 261.295 116.001Z" fill="#8D532B"/>
<path d="M252.247 106.981C254.335 109.525 256.423 112.3 258.511 114.844C258.743 115.075 258.975 114.844 259.207 114.613C259.671 113.688 260.135 112.531 260.599 111.606C260.831 111.144 260.135 110.912 259.903 111.144C259.207 112.069 258.743 113.225 258.511 114.15C258.743 114.15 258.975 114.15 259.207 113.919C257.119 111.375 255.031 108.6 252.943 106.056C252.48 106.056 252.016 106.518 252.247 106.981Z" fill="#8D532B"/>
<path d="M258.976 104.437C259.904 104.9 261.064 104.9 261.991 104.437C262.919 103.975 263.615 103.05 263.615 101.893C263.615 101.199 263.615 100.737 263.383 100.274C263.383 100.043 262.919 100.043 262.919 100.043C262.687 100.043 262.687 100.274 262.687 100.506C263.151 101.431 262.919 102.587 262.223 103.281C261.527 103.975 260.368 104.206 259.44 103.743C259.208 103.743 258.976 103.743 258.976 103.975C258.744 104.206 258.744 104.437 258.976 104.437Z" fill="black"/>
<path d="M248.536 113.457C249.464 113.919 250.624 113.919 251.552 113.457C252.48 112.994 253.176 112.069 253.176 110.913C253.176 110.219 253.176 109.756 252.944 109.294C252.944 109.062 252.48 109.062 252.48 109.062C252.248 109.062 252.248 109.294 252.248 109.525C252.712 110.45 252.48 111.606 251.784 112.3C251.088 112.994 249.928 113.225 249 112.763C248.768 112.763 248.536 112.763 248.536 112.994C248.304 113.225 248.304 113.457 248.536 113.457Z" fill="black"/>
<path d="M235.776 102.124C236.704 104.668 242.736 103.974 244.824 101.893C245.752 100.968 245.984 99.8115 246.68 98.8864C247.144 97.9613 248.304 96.805 249.464 96.805C250.624 96.805 251.32 97.4988 252.48 97.7301C254.568 98.4239 256.888 97.9613 258.512 96.805C259.672 95.8799 260.368 94.4923 261.76 94.0297C262.92 93.5672 264.08 93.7985 265.008 93.5672C266.168 93.3359 267.096 92.4108 268.023 91.717C268.951 91.0232 270.343 90.5606 271.271 91.0232C268.487 89.173 265.704 87.3228 262.92 85.4727C260.136 83.6225 257.352 81.7723 253.872 81.541C250.856 81.3098 248.072 82.4661 245.752 84.3163C243.432 85.9352 241.576 88.0167 239.72 90.0981C238.096 91.717 236.472 93.3359 235.776 95.4174C235.08 97.4988 233.456 100.737 235.08 102.124H235.776Z" fill="#C23F37"/>
<path d="M248.304 103.974C249.464 105.131 249.232 106.981 247.84 107.675C246.68 108.368 245.752 109.062 244.824 109.987C245.288 107.675 246.216 105.362 247.608 103.512L248.304 103.974Z" fill="#C23F37"/>
<path d="M255.96 99.8117C256.192 99.8117 256.192 99.8117 255.96 99.8117C257.12 100.968 258.976 100.505 259.672 99.1179C260.368 97.9615 261.064 97.0364 261.76 96.1113C259.44 96.5739 257.352 97.7302 255.496 99.3491L255.96 99.8117Z" fill="#C23F37"/>
<path d="M302.591 185.151C304.215 186.076 306.071 186.769 307.927 187.463C308.391 187.695 308.623 187.001 308.159 186.769C306.303 186.076 304.679 185.382 303.055 184.457C302.591 184.225 302.127 184.919 302.591 185.151Z" fill="#8D532B"/>
<path d="M293.775 140.515C295.167 142.134 296.327 143.753 297.719 145.372C297.951 145.603 297.951 145.603 298.183 145.603C298.415 145.603 298.415 145.141 298.415 145.141C297.023 143.522 295.863 141.672 294.471 140.053C294.007 139.59 293.311 140.053 293.775 140.515Z" fill="#8D532B"/>
<path d="M194.016 51.0133C194.248 50.3195 194.944 50.0883 195.64 50.0883C196.568 50.0883 197.496 50.5508 198.424 50.7821C200.28 51.2446 202.368 51.4759 204.224 51.4759C204.688 51.4759 204.688 50.7821 204.224 50.7821C201.904 51.0133 199.816 50.5508 197.728 49.857C197.032 49.3944 195.872 49.1632 194.944 49.3944C194.248 49.6257 193.552 50.0883 193.32 51.0133C193.088 51.2446 193.784 51.4759 194.016 51.0133Z" fill="#8D532B"/>
<path d="M203.064 49.8567C204.224 51.2443 204.92 52.8632 204.92 54.4821C204.92 54.7134 205.152 54.9447 205.384 54.9447C205.616 54.9447 205.848 54.7134 205.848 54.4821C205.616 52.632 204.92 50.7818 203.76 49.3942C203.528 49.1629 203.296 49.1629 203.296 49.3942C203.064 49.6254 203.064 49.6254 203.064 49.8567Z" fill="#8D532B"/>
<path d="M242.272 82.0039C239.024 83.1603 236.24 85.2417 234.384 88.017C233.456 89.4046 232.528 91.0235 232.064 92.6424C231.6 94.2613 231.136 95.8802 231.136 97.7304C231.136 99.5806 231.136 101.431 231.136 103.281C231.136 104.9 230.904 106.75 229.976 108.369C229.048 110.219 227.192 111.144 226.032 112.532C224.872 113.688 223.944 115.076 223.248 116.695C221.856 119.932 221.624 123.402 222.552 126.639C222.784 127.102 222.784 127.333 223.016 127.796C223.248 128.258 223.944 128.027 223.712 127.564C222.552 124.558 222.552 120.858 223.48 117.851C223.944 116.232 224.872 114.845 226.032 113.457C227.192 112.069 229.048 111.144 230.208 109.525C232.528 106.75 232.064 102.818 232.064 99.5806C232.064 97.7304 232.064 96.1115 232.528 94.4926C232.992 92.8737 233.456 91.2548 234.384 89.8671C236.008 87.0919 238.56 84.5479 241.576 83.1603C242.04 82.929 242.272 82.929 242.736 82.6977C242.736 82.6977 242.736 82.0039 242.272 82.0039Z" fill="#C23F37"/>
<path d="M251.784 366.005C250.856 368.549 249.928 371.093 249 373.637C248.304 375.256 247.84 377.569 249.232 378.957C250.392 380.113 252.48 379.882 254.104 379.65C257.816 379.188 261.76 379.419 265.24 380.344C266.632 380.807 268.024 381.269 269.184 380.344C271.04 379.188 270.112 376.413 270.112 374.1C270.112 372.481 270.576 371.093 270.808 369.475C271.272 366.468 270.576 363.23 270.112 360.224C269.648 357.68 268.72 354.442 266.168 353.748C264.544 353.285 262.688 354.211 261.296 355.136C258.976 356.523 256.656 358.142 254.568 359.992L251.784 366.005Z" fill="black"/>
<path d="M249 376.181C251.552 377.8 254.8 377.338 257.583 376.644C260.367 375.95 263.615 375.025 266.167 376.412C267.327 377.106 268.255 378.031 268.487 379.419C268.487 379.882 269.415 379.65 269.183 379.188C268.719 376.644 265.935 375.256 263.615 375.025C260.367 374.794 257.352 376.181 254.104 376.644C252.48 376.875 250.624 376.644 249.232 375.719C249 375.256 248.536 375.95 249 376.181Z" fill="white"/>
<path d="M255.727 376.644C257.583 375.025 258.743 372.944 260.599 371.325C261.527 370.631 262.687 370.169 263.847 370.169C265.239 370.169 266.399 370.862 267.095 372.019C268.023 373.406 268.023 375.025 267.327 376.413C267.095 376.875 267.791 377.107 268.023 376.875C268.719 375.488 268.719 373.869 268.255 372.481C267.559 371.094 266.399 370.169 265.007 369.706C263.615 369.475 262.223 369.706 261.063 370.169C259.903 370.862 258.975 371.787 258.279 372.713C257.351 373.869 256.423 375.025 255.263 376.182C254.799 376.644 255.263 377.107 255.727 376.644Z" fill="white"/>
<path d="M258.512 366.469C261.064 365.081 264.079 365.081 266.631 366.237C267.095 366.469 267.559 365.775 267.095 365.543C264.311 364.387 261.064 364.387 258.28 365.775C257.816 366.006 258.048 366.7 258.512 366.469Z" fill="white"/>
<path d="M258.048 362.999C261.064 361.843 264.312 362.305 266.864 363.924C267.328 364.156 267.56 363.462 267.328 363.231C264.544 361.612 261.064 361.149 257.816 362.305C257.352 362.537 257.584 363.231 258.048 362.999Z" fill="white"/>
<path d="M317.671 184.92C322.543 183.763 327.647 182.838 332.519 181.913C337.391 180.988 342.263 179.6 346.903 177.75C349.455 176.594 352.007 175.437 354.327 173.818C354.791 173.587 354.327 172.893 353.863 173.125C349.687 175.9 345.047 177.75 340.175 179.138C335.303 180.525 330.431 181.45 325.559 182.376C322.775 182.838 319.991 183.532 317.207 184.226C316.975 184.226 317.207 185.151 317.671 184.92Z" fill="#56462A"/>
<path d="M345.743 174.049C346.207 174.743 346.439 175.668 346.903 176.362C346.903 176.593 347.367 176.593 347.367 176.593C347.599 176.593 347.599 176.362 347.599 176.131C347.135 175.437 346.903 174.512 346.439 173.818C346.439 173.587 345.975 173.587 345.975 173.587C345.743 173.587 345.743 173.818 345.743 174.049Z" fill="#56462A"/>
<path d="M343.655 175.206C343.887 175.437 343.887 175.437 343.887 175.437V175.669V175.9C343.887 176.131 343.887 176.363 344.119 176.363C344.351 176.363 344.583 176.363 344.583 176.131C344.815 175.437 344.351 174.512 343.655 174.05C343.423 174.05 343.191 174.05 343.191 174.281C343.423 174.975 343.423 175.206 343.655 175.206Z" fill="#56462A"/>
<path d="M339.711 175.438C339.943 175.669 340.175 175.669 340.175 175.9C340.175 175.9 340.175 175.9 340.175 176.131L340.407 176.363C340.407 176.363 340.407 176.594 340.639 176.594C340.639 176.594 340.639 176.594 340.639 176.825C340.639 177.056 340.871 177.288 340.871 177.519C340.871 177.75 341.103 177.75 341.335 177.75C341.567 177.75 341.567 177.519 341.567 177.288C341.335 176.363 340.871 175.438 339.943 174.744C339.711 174.512 339.479 174.512 339.479 174.744C339.479 175.206 339.479 175.438 339.711 175.438Z" fill="#56462A"/>
<path d="M319.991 181.219C320.455 181.682 320.687 182.144 321.151 182.838L321.383 183.07H321.615C321.847 183.07 321.847 182.838 321.847 182.607C321.383 182.144 321.151 181.682 320.687 180.988L320.455 180.757H320.223C319.991 180.757 319.991 180.988 319.991 181.219Z" fill="#56462A"/>
<path d="M323.239 181.451C323.471 181.682 323.703 181.913 323.935 182.145H324.167H324.399V181.913V181.682C324.167 181.451 323.935 181.22 323.703 180.988H323.471H323.239V181.22C323.007 181.22 323.007 181.22 323.239 181.451Z" fill="#56462A"/>
<path d="M339.015 233.487C339.015 231.174 340.639 229.092 342.263 227.705C343.887 226.086 345.743 224.698 347.367 222.848C348.063 221.923 348.759 220.767 349.223 219.61C349.455 219.148 348.759 218.917 348.527 219.379C347.831 221.692 346.207 223.311 344.351 224.698C342.495 226.317 340.871 227.705 339.479 229.786C338.783 230.943 338.319 232.099 338.319 233.487C338.087 233.949 339.015 233.949 339.015 233.487Z" fill="#56462A"/>
<path d="M312.103 189.082C309.551 199.952 306.999 210.591 304.447 221.461C301.895 232.33 299.575 243.2 297.255 254.07C296.095 259.158 295.167 264.477 294.007 269.565C292.847 274.653 291.455 279.51 289.367 284.135C287.279 288.761 284.031 292.924 281.48 297.549C279.16 301.712 277.072 306.106 275.68 310.731C272.432 319.982 271.04 329.696 269.648 339.409C269.416 340.566 269.416 341.722 269.184 343.11C269.184 343.572 269.88 343.803 269.88 343.341C271.272 333.627 272.664 323.914 275.448 314.432C276.84 309.806 278.696 305.181 280.784 300.787C283.103 296.161 286.351 292.23 288.671 287.604C293.543 278.585 295.167 268.177 297.255 258.464C299.575 247.594 301.895 236.724 304.447 225.855C306.999 214.985 309.319 204.115 312.103 193.477C312.335 192.089 312.799 190.701 313.031 189.545C313.031 188.851 312.335 188.62 312.103 189.082Z" fill="#56462A"/>
<path d="M265.24 341.028C268.024 343.341 271.272 345.191 274.751 346.348C275.215 346.579 275.447 345.885 274.983 345.654C271.736 344.497 268.488 342.647 265.704 340.566C265.24 340.103 264.776 340.797 265.24 341.028Z" fill="#56462A"/>
<path d="M344.815 225.161C349.223 232.793 353.863 240.425 358.271 248.057C360.591 251.757 362.911 255.457 364.767 259.389C366.855 263.089 368.015 267.021 369.175 271.184C370.103 275.115 370.799 279.278 372.191 283.21C373.351 287.141 374.975 291.073 376.599 295.005C380.079 302.868 383.791 310.731 387.271 318.594C390.983 326.689 394.695 334.783 398.407 342.647C398.87 343.572 399.334 344.728 399.798 345.653C400.03 346.116 400.726 345.653 400.494 345.191C396.783 337.096 393.071 329.002 389.359 321.138C385.647 313.275 381.935 305.181 378.455 297.317C376.831 293.386 375.207 289.454 373.815 285.523C372.423 281.591 371.495 277.428 370.567 273.265C369.639 269.334 368.711 265.171 367.087 261.47C365.231 257.539 362.911 253.838 360.823 250.369C356.415 242.737 351.775 235.105 347.367 227.473C346.903 226.548 346.207 225.623 345.743 224.467C345.279 224.467 344.583 224.698 344.815 225.161Z" fill="#56462A"/>
<path d="M363.839 281.36C366.623 280.435 369.175 279.278 371.495 277.659C371.959 277.428 371.495 276.734 371.031 276.965C368.711 278.584 366.159 279.741 363.607 280.435C363.143 280.897 363.375 281.591 363.839 281.36Z" fill="#56462A"/>
<path d="M366.855 284.829C369.639 283.672 372.423 282.747 375.207 281.591C375.671 281.36 375.439 280.666 374.975 280.897C372.191 282.053 369.407 282.979 366.623 284.135C366.159 284.366 366.391 285.06 366.855 284.829Z" fill="#56462A"/>
<path d="M284.263 283.442C286.815 285.06 289.367 286.679 291.919 288.298C292.383 288.53 292.615 287.836 292.383 287.604C289.831 285.986 287.279 284.367 284.727 282.748C284.031 282.516 283.799 283.21 284.263 283.442Z" fill="#56462A"/>
<path d="M287.975 282.748C290.063 283.673 291.919 284.598 294.007 285.523C294.471 285.754 294.935 285.06 294.471 284.829C292.383 283.904 290.527 282.979 288.439 282.054C287.975 282.054 287.743 282.516 287.975 282.748Z" fill="#56462A"/>
<path d="M295.399 156.473C299.343 154.16 302.127 150.46 303.287 146.066C303.519 144.909 303.751 143.522 303.751 142.365C303.751 141.903 303.055 141.903 303.055 142.365C303.055 146.528 300.967 150.691 297.951 153.698C297.023 154.623 296.095 155.317 294.935 155.779C294.471 156.242 294.935 156.936 295.399 156.473Z" fill="#AD5C12"/>
<path d="M340.871 143.753C340.175 143.291 339.247 143.291 338.551 143.522C337.855 143.753 336.927 143.985 336.231 144.447C334.607 145.141 333.215 145.835 331.591 146.529C328.575 147.916 325.791 149.535 323.007 151.385C320.223 153.235 317.671 155.317 315.119 157.63C312.567 159.942 310.247 162.255 308.159 164.799C306.071 167.343 303.983 170.118 302.359 172.894C302.127 173.356 301.895 173.587 301.663 174.05C301.431 174.512 302.127 174.744 302.359 174.512C305.607 168.962 309.783 163.874 314.423 159.249C319.063 154.854 324.399 150.923 330.199 148.147C331.823 147.222 333.447 146.529 335.071 145.835C335.999 145.372 336.695 145.141 337.623 144.91C338.319 144.678 339.479 144.216 340.175 144.678C340.871 144.678 341.335 143.985 340.871 143.753Z" fill="#AD5C12"/>
<path d="M304.679 156.011C307.463 151.848 310.711 147.916 314.423 144.447C315.351 143.522 316.511 142.597 317.671 141.672C318.135 141.441 317.439 140.747 317.207 141.209C313.263 144.447 309.783 148.147 306.535 152.31C305.607 153.467 304.911 154.623 303.983 155.779C303.751 156.011 304.447 156.473 304.679 156.011Z" fill="#AD5C12"/>
<path d="M308.391 154.623C311.871 151.385 315.351 148.378 318.831 145.141C319.295 144.909 318.599 144.216 318.367 144.678C314.887 147.916 311.407 150.922 307.927 154.16C307.695 154.391 308.159 155.085 308.391 154.623Z" fill="#AD5C12"/>
<path d="M237.864 91.4862C237.632 93.1051 237.632 94.724 238.328 96.3429C239.024 97.4993 240.416 98.4243 241.808 98.1931C243.2 97.9618 244.36 97.0367 245.288 95.8804C245.984 94.9553 246.68 93.5676 246.912 92.4113C247.144 91.0236 247.144 89.4047 246.448 88.2484C246.448 88.0171 245.984 87.7858 245.752 88.0171C244.824 88.9422 244.36 90.3298 244.36 91.4862C244.592 92.8738 245.288 94.0302 246.448 94.724C247.608 95.4178 249 95.4178 250.16 94.9553C251.552 94.2615 252.712 93.1051 253.175 91.9487C253.871 90.5611 254.103 88.7109 253.871 87.092C253.871 86.6295 253.175 86.6295 253.175 87.092C252.712 88.9422 253.639 91.0236 255.263 92.18C257.119 93.5676 259.439 93.7989 261.527 93.5676C261.991 93.5676 261.991 92.8738 261.527 92.8738C259.671 93.1051 257.583 92.8738 255.959 91.7175C254.567 90.7924 253.639 88.9422 254.103 87.3233C253.871 87.3233 253.639 87.3233 253.407 87.3233C253.871 89.8673 252.943 92.6425 250.856 94.0302C249.928 94.724 248.768 94.724 247.608 94.4927C246.68 94.0302 245.752 93.3364 245.52 92.18C245.288 91.0236 245.52 89.636 246.448 88.7109C246.216 88.7109 245.984 88.7109 245.752 88.4797C246.68 90.5611 246.216 93.1051 245.056 94.9553C244.36 95.8804 243.664 96.8054 242.504 97.268C241.808 97.4993 241.344 97.7305 240.648 97.4993C240.184 97.268 239.72 97.0367 239.256 96.5742C238.328 95.1865 238.56 93.3364 238.792 91.9487C238.56 90.7924 237.864 91.0236 237.864 91.4862Z" fill="#563017"/>
</g>
<defs>
<clipPath id="clip0_824_29857">
<rect width="718.671" height="213.052" fill="white" transform="translate(-164.336 104.965)"/>
</clipPath>
<clipPath id="clip1_824_29857">
<rect width="256.755" height="338.698" fill="white" transform="matrix(-1 0 0 1 244.755 47)"/>
</clipPath>
<clipPath id="clip2_824_29857">
<rect width="245.222" height="341.126" fill="white" transform="translate(191 45)"/>
</clipPath>
</defs>
</svg>
