<svg width="25" height="25" viewBox="0 0 25 25" fill="none" xmlns="http://www.w3.org/2000/svg">
<g clip-path="url(#clip0_778_6791)">
<path d="M9.34334 20.1135L4.86719 15.6569V9.34334L9.34334 4.86719H15.6569L20.1135 9.34334V15.6569L15.6569 20.1135H9.34334Z" fill="#FF859E"/>
<path d="M9.9881 18.5299L6.46973 14.992V9.9881L9.9881 6.46973H14.992L18.5299 9.9881V14.992L14.992 18.5299H9.9881Z" fill="#FF6988"/>
<path d="M7.33008 24.9999L9.34337 20.1133H15.6569L17.6702 24.9999H7.33008Z" fill="#E01D46"/>
<path d="M9.34324 20.1133L4.86708 15.6567L0 17.67L7.32995 25L9.34324 20.1133Z" fill="#FF2150"/>
<path d="M17.6705 25L15.6572 20.1133L20.1138 15.6567L25.0005 17.67L17.6705 25Z" fill="#C70C33"/>
<path d="M20.1133 15.6569V9.34337L24.9999 7.33008V17.6702L20.1133 15.6569Z" fill="#E01D46"/>
<path d="M4.86708 15.6569V9.34337L0 7.33008V17.6702L4.86708 15.6569Z" fill="#FF4D72"/>
<path d="M20.1138 9.34324L15.6572 4.86708L17.6705 0L25.0005 7.32995L20.1138 9.34324Z" fill="#FF2150"/>
<path d="M9.34337 4.86708L7.33008 0H17.6702L15.6569 4.86708H9.34337Z" fill="#FF4D72"/>
<path d="M4.86708 9.34324L9.34324 4.86708L7.32995 0L0 7.32995L4.86708 9.34324Z" fill="#FF6384"/>
</g>
<defs>
<clipPath id="clip0_778_6791">
<rect width="25" height="25" fill="white"/>
</clipPath>
</defs>
</svg>
