<svg width="14" height="14" viewBox="0 0 14 14" fill="none" xmlns="http://www.w3.org/2000/svg">
<g clip-path="url(#clip0_2149_53984)">
<path d="M9.91669 8.16668C9.91669 8.32139 9.85523 8.46976 9.74583 8.57916C9.63644 8.68855 9.48806 8.75001 9.33335 8.75001H4.66669C4.51198 8.75001 4.3636 8.68855 4.25421 8.57916C4.14481 8.46976 4.08335 8.32139 4.08335 8.16668C4.08335 8.01197 4.14481 7.8636 4.25421 7.7542C4.3636 7.6448 4.51198 7.58335 4.66669 7.58335H9.33335C9.48806 7.58335 9.63644 7.6448 9.74583 7.7542C9.85523 7.8636 9.91669 8.01197 9.91669 8.16668ZM7.58335 9.91668H4.66669C4.51198 9.91668 4.3636 9.97814 4.25421 10.0875C4.14481 10.1969 4.08335 10.3453 4.08335 10.5C4.08335 10.6547 4.14481 10.8031 4.25421 10.9125C4.3636 11.0219 4.51198 11.0833 4.66669 11.0833H7.58335C7.73806 11.0833 7.88644 11.0219 7.99583 10.9125C8.10523 10.8031 8.16669 10.6547 8.16669 10.5C8.16669 10.3453 8.10523 10.1969 7.99583 10.0875C7.88644 9.97814 7.73806 9.91668 7.58335 9.91668ZM12.8334 6.11626V11.0833C12.8324 11.8566 12.5248 12.5979 11.9781 13.1447C11.4313 13.6915 10.6899 13.9991 9.91669 14H4.08335C3.31009 13.9991 2.56876 13.6915 2.02198 13.1447C1.4752 12.5979 1.16761 11.8566 1.16669 11.0833V2.91668C1.16761 2.14342 1.4752 1.40209 2.02198 0.855308C2.56876 0.308528 3.31009 0.000939695 4.08335 1.34451e-05H6.7171C7.25355 -0.00136726 7.78494 0.103606 8.28057 0.308865C8.77619 0.514123 9.22621 0.815594 9.6046 1.19585L11.6369 3.22935C12.0174 3.60749 12.3191 4.05736 12.5244 4.55292C12.7298 5.04847 12.8348 5.57984 12.8334 6.11626ZM8.77977 2.02068C8.59618 1.84286 8.39006 1.68989 8.16669 1.56568V4.08335C8.16669 4.23806 8.22815 4.38643 8.33754 4.49583C8.44694 4.60522 8.59531 4.66668 8.75002 4.66668H11.2677C11.1434 4.44337 10.9902 4.23743 10.8121 4.05418L8.77977 2.02068ZM11.6667 6.11626C11.6667 6.02001 11.648 5.92785 11.6393 5.83335H8.75002C8.28589 5.83335 7.84077 5.64897 7.51258 5.32078C7.18439 4.99259 7.00002 4.54748 7.00002 4.08335V1.1941C6.90552 1.18535 6.81277 1.16668 6.7171 1.16668H4.08335C3.61922 1.16668 3.17411 1.35105 2.84592 1.67924C2.51773 2.00743 2.33335 2.45255 2.33335 2.91668V11.0833C2.33335 11.5475 2.51773 11.9926 2.84592 12.3208C3.17411 12.649 3.61922 12.8333 4.08335 12.8333H9.91669C10.3808 12.8333 10.8259 12.649 11.1541 12.3208C11.4823 11.9926 11.6667 11.5475 11.6667 11.0833V6.11626Z" fill="#FFB547"/>
</g>
<defs>
<clipPath id="clip0_2149_53984">
<rect width="14" height="14" fill="white"/>
</clipPath>
</defs>
</svg>
