<svg width="40" height="40" viewBox="0 0 40 40" fill="none" xmlns="http://www.w3.org/2000/svg">
<path d="M20 40C31.0744 40 40 31.0744 40 20C40 8.92562 31.0744 0 20 0C8.92562 0 0 8.92562 0 20C0 31.0744 8.92562 40 20 40Z" fill="#18495E"/>
<path d="M20 0C8.92562 0 0 8.92562 0 20C0 31.0744 8.92562 40 20 40C31.0744 40 40 31.0744 40 20C40 8.92562 31.0744 0 20 0ZM20 35.2066C11.5702 35.2066 4.79339 28.4298 4.79339 20C4.79339 11.5702 11.5702 4.79339 20 4.79339C28.4298 4.79339 35.2066 11.5702 35.2066 20C35.3719 28.4298 28.4298 35.2066 20 35.2066Z" fill="#598DA4"/>
<path d="M5.95041 5.78512L9.2562 9.09091C12.0661 6.28099 15.8678 4.6281 20 4.6281V0C14.5455 0 9.42149 2.31405 5.95041 5.78512ZM34.2149 34.0496L30.9091 30.7438C28.0992 33.5537 24.2975 35.2066 20.1653 35.2066V40C25.4545 40 30.5785 37.6859 34.2149 34.0496ZM34.2149 5.78512L30.9091 9.09091C33.719 11.9008 35.3719 15.7025 35.3719 19.8347H40.1653C40 14.5455 37.8512 9.42149 34.2149 5.78512ZM5.95041 34.0496L9.2562 30.7438C6.44628 27.9339 4.79339 24.1322 4.79339 20H0C0 25.4545 2.31405 30.4132 5.95041 34.0496Z" fill="#CACACA"/>
<path d="M18.017 10.2481V12.0663C18.017 12.0663 16.1989 11.7357 14.0501 13.3886C13.8848 13.3886 13.8848 13.5539 13.8848 13.5539C13.0584 14.215 12.5625 15.2067 12.5625 16.5291C12.5625 17.8514 13.0584 18.8431 13.8848 19.5043L14.0501 19.6696L14.2154 19.8348L14.3807 20.0001C14.3807 20.0001 14.3807 20.0001 14.546 20.0001C14.546 20.0001 14.7113 20.0001 14.7113 20.1654C15.2071 20.496 15.703 20.6613 16.3642 20.8266C16.6947 20.9919 16.86 20.9919 17.1906 21.1572C17.5212 21.3225 18.017 21.3225 18.3476 21.4877C18.5129 21.4877 18.6782 21.4877 18.8435 21.653C20.0005 21.9836 20.827 22.1489 21.3228 22.4795C21.6534 22.6448 21.8187 22.8101 21.984 23.1406C21.984 23.3059 22.1493 23.4712 22.1493 23.6365C22.1493 24.2977 21.6534 24.9588 20.0005 24.7935C18.3476 24.7935 17.3559 24.1324 17.1906 23.1406L12.7278 23.9671C13.3889 26.1158 15.2071 27.4382 18.1823 27.934V30.2481L21.984 30.4134V28.0993C23.6369 27.934 24.7939 27.6034 25.7856 26.777C26.6121 26.1158 27.108 24.9588 27.2732 23.6365C27.2732 20.6613 24.9592 19.5043 22.3146 18.8431C19.8352 18.182 17.6865 18.0167 17.6865 16.5291C17.6865 15.5373 18.5129 15.2067 19.6699 15.2067C21.6534 15.2067 22.3146 16.3638 22.4799 17.1902L27.2732 16.3638C27.108 15.8679 26.9427 15.5373 26.7774 15.2067C26.4468 14.5456 25.9509 14.0497 25.2898 13.5539C24.298 12.7274 22.8104 12.3968 21.4881 12.0663V9.7522L17.8518 9.58691L18.017 10.2481Z" fill="#CACACA"/>
<path opacity="0.1" d="M18.017 10.2481V12.0663C18.017 12.0663 16.1989 11.7357 14.0501 13.3886C13.8848 13.3886 13.8848 13.5539 13.8848 13.5539C13.0584 14.215 12.5625 15.2067 12.5625 16.5291C12.5625 17.8514 13.0584 18.8431 13.8848 19.5043L14.0501 19.6696L14.2154 19.8348L14.3807 20.0001C14.3807 20.0001 14.3807 20.0001 14.546 20.0001C14.546 20.0001 14.7113 20.0001 14.7113 20.1654C15.2071 20.496 15.703 20.6613 16.3642 20.8266C16.6947 20.9919 16.86 20.9919 17.1906 21.1572C17.5212 21.3225 18.017 21.3225 18.3476 21.4877C18.5129 21.4877 18.6782 21.4877 18.8435 21.653C20.0005 21.9836 20.827 22.1489 21.3228 22.4795C21.6534 22.6448 21.8187 22.8101 21.984 23.1406C21.984 23.3059 22.1493 23.4712 22.1493 23.6365C22.1493 24.2977 21.6534 24.9588 20.0005 24.7935C18.3476 24.7935 17.3559 24.1324 17.1906 23.1406L12.7278 23.9671C13.3889 26.1158 15.2071 27.4382 18.1823 27.934V30.2481L21.984 30.4134V28.0993C23.6369 27.934 24.7939 27.6034 25.7856 26.777C26.6121 26.1158 27.108 24.9588 27.2732 23.6365C27.2732 20.6613 24.9592 19.5043 22.3146 18.8431C19.8352 18.182 17.6865 18.0167 17.6865 16.5291C17.6865 15.5373 18.5129 15.2067 19.6699 15.2067C21.6534 15.2067 22.3146 16.3638 22.4799 17.1902L27.2732 16.3638C27.108 15.8679 26.9427 15.5373 26.7774 15.2067C26.4468 14.5456 25.9509 14.0497 25.2898 13.5539C24.298 12.7274 22.8104 12.3968 21.4881 12.0663V9.7522L17.8518 9.58691L18.017 10.2481Z" fill="#CACACA"/>
<path opacity="0.15" d="M12.7285 23.9673C12.8938 24.2979 13.0591 24.6285 13.2244 24.959L14.5467 23.6367L12.7285 23.9673Z" fill="#CACACA"/>
<path opacity="0.15" d="M27.1092 23.4713C27.1092 22.149 26.6133 21.1573 25.7869 20.4961L18.1836 28.5953V30.0829L20.6629 30.2482L21.82 28.9258V27.9341C22.1505 27.9341 22.4811 27.9341 22.8117 27.7688L27.1092 23.4713Z" fill="#CACACA"/>
<path opacity="0.15" d="M12.5625 17.0247C12.5625 17.6858 12.8931 18.347 13.2237 18.8429L21.6534 9.91724L19.5046 9.75195L18.1823 11.2396V12.066C18.1823 12.066 17.8518 12.066 17.5212 12.066L12.5625 17.0247Z" fill="#CACACA"/>
<path opacity="0.15" d="M14.2153 19.8343L14.3806 19.9996L14.5459 20.1649C14.5459 20.1649 14.5459 20.1649 14.7112 20.1649C14.7112 20.1649 14.8765 20.1649 14.8765 20.3302C15.3724 20.6607 15.8682 20.826 16.5294 20.9913C16.6947 20.9913 16.86 20.9913 16.86 21.1566L19.6699 18.1814C18.5129 17.8508 17.6864 17.5202 17.6864 16.5285C17.6864 15.5368 18.5129 15.2062 19.6699 15.2062C20.4963 15.2062 21.1575 15.5368 21.6534 15.8674L24.4633 12.8922C23.6368 12.3963 22.6451 12.231 21.6534 12.0657V11.2393L13.8848 19.5037C14.0501 19.669 14.0501 19.669 14.2153 19.8343Z" fill="#CACACA"/>
</svg>
