<svg width="25" height="25" viewBox="0 0 25 25" fill="none" xmlns="http://www.w3.org/2000/svg">
<path d="M12.5 25C19.4215 25 25 19.4215 25 12.5C25 5.57851 19.4215 0 12.5 0C5.57851 0 0 5.57851 0 12.5C0 19.4215 5.57851 25 12.5 25Z" fill="#F77600"/>
<path d="M12.5 0C5.57851 0 0 5.57851 0 12.5C0 19.4215 5.57851 25 12.5 25C19.4215 25 25 19.4215 25 12.5C25 5.57851 19.4215 0 12.5 0ZM12.5 22.0041C7.23141 22.0041 2.99587 17.7686 2.99587 12.5C2.99587 7.23141 7.23141 2.99587 12.5 2.99587C17.7686 2.99587 22.0041 7.23141 22.0041 12.5C22.1074 17.7686 17.7686 22.0041 12.5 22.0041Z" fill="#FFAE35"/>
<path d="M3.71901 3.6157L5.78512 5.68182C7.54132 3.92562 9.91736 2.89256 12.5 2.89256V0C9.09091 0 5.88843 1.44628 3.71901 3.6157ZM21.3843 21.281L19.3182 19.2149C17.562 20.9711 15.1859 22.0041 12.6033 22.0041V25C15.9091 25 19.1116 23.5537 21.3843 21.281ZM21.3843 3.6157L19.3182 5.68182C21.0744 7.43802 22.1074 9.81405 22.1074 12.3967H25.1033C25 9.09091 23.657 5.88843 21.3843 3.6157ZM3.71901 21.281L5.78512 19.2149C4.02893 17.4587 2.99587 15.0826 2.99587 12.5H0C0 15.9091 1.44628 19.0083 3.71901 21.281Z" fill="#FCD227"/>
<path d="M11.2607 6.40492V7.54129C11.2607 7.54129 10.1243 7.33467 8.78131 8.36773C8.67801 8.36773 8.67801 8.47104 8.67801 8.47104C8.16148 8.88426 7.85156 9.5041 7.85156 10.3305C7.85156 11.157 8.16148 11.7768 8.67801 12.19L8.78131 12.2934L8.88462 12.3967L8.98793 12.5C8.98793 12.5 8.98793 12.5 9.09123 12.5C9.09123 12.5 9.19454 12.5 9.19454 12.6033C9.50445 12.8099 9.81437 12.9132 10.2276 13.0165C10.4342 13.1198 10.5375 13.1198 10.7441 13.2231C10.9507 13.3264 11.2607 13.3264 11.4673 13.4297C11.5706 13.4297 11.6739 13.4297 11.7772 13.533C12.5003 13.7396 13.0169 13.8429 13.3268 14.0496C13.5334 14.1529 13.6367 14.2562 13.74 14.4628C13.74 14.5661 13.8433 14.6694 13.8433 14.7727C13.8433 15.1859 13.5334 15.5991 12.5003 15.4958C11.4673 15.4958 10.8474 15.0826 10.7441 14.4628L7.95487 14.9793C8.36809 16.3223 9.50446 17.1487 11.364 17.4586V18.9049L13.74 19.0082V17.5619C14.7731 17.4586 15.4962 17.252 16.116 16.7355C16.6326 16.3223 16.9425 15.5991 17.0458 14.7727C17.0458 12.9132 15.5995 12.19 13.9466 11.7768C12.397 11.3636 11.054 11.2603 11.054 10.3305C11.054 9.71071 11.5706 9.5041 12.2937 9.5041C13.5334 9.5041 13.9466 10.2272 14.0499 10.7438L17.0458 10.2272C16.9425 9.91732 16.8392 9.71071 16.7359 9.5041C16.5292 9.09087 16.2193 8.78095 15.8061 8.47104C15.1863 7.95451 14.2565 7.7479 13.4301 7.54129V6.095L11.1573 5.9917L11.2607 6.40492Z" fill="#FCD227"/>
<path opacity="0.1" d="M11.2607 6.40492V7.54129C11.2607 7.54129 10.1243 7.33467 8.78131 8.36773C8.67801 8.36773 8.67801 8.47104 8.67801 8.47104C8.16148 8.88426 7.85156 9.5041 7.85156 10.3305C7.85156 11.157 8.16148 11.7768 8.67801 12.19L8.78131 12.2934L8.88462 12.3967L8.98793 12.5C8.98793 12.5 8.98793 12.5 9.09123 12.5C9.09123 12.5 9.19454 12.5 9.19454 12.6033C9.50445 12.8099 9.81437 12.9132 10.2276 13.0165C10.4342 13.1198 10.5375 13.1198 10.7441 13.2231C10.9507 13.3264 11.2607 13.3264 11.4673 13.4297C11.5706 13.4297 11.6739 13.4297 11.7772 13.533C12.5003 13.7396 13.0169 13.8429 13.3268 14.0496C13.5334 14.1529 13.6367 14.2562 13.74 14.4628C13.74 14.5661 13.8433 14.6694 13.8433 14.7727C13.8433 15.1859 13.5334 15.5991 12.5003 15.4958C11.4673 15.4958 10.8474 15.0826 10.7441 14.4628L7.95487 14.9793C8.36809 16.3223 9.50446 17.1487 11.364 17.4586V18.9049L13.74 19.0082V17.5619C14.7731 17.4586 15.4962 17.252 16.116 16.7355C16.6326 16.3223 16.9425 15.5991 17.0458 14.7727C17.0458 12.9132 15.5995 12.19 13.9466 11.7768C12.397 11.3636 11.054 11.2603 11.054 10.3305C11.054 9.71071 11.5706 9.5041 12.2937 9.5041C13.5334 9.5041 13.9466 10.2272 14.0499 10.7438L17.0458 10.2272C16.9425 9.91732 16.8392 9.71071 16.7359 9.5041C16.5292 9.09087 16.2193 8.78095 15.8061 8.47104C15.1863 7.95451 14.2565 7.7479 13.4301 7.54129V6.095L11.1573 5.9917L11.2607 6.40492Z" fill="#FCD227"/>
<path opacity="0.15" d="M7.95508 14.9796C8.05838 15.1862 8.16169 15.3928 8.265 15.5994L9.09144 14.7729L7.95508 14.9796Z" fill="#FCD227"/>
<path opacity="0.15" d="M16.9428 14.6696C16.9428 13.8431 16.6329 13.2233 16.1163 12.8101L11.3643 17.872V18.8018L12.9138 18.9051L13.637 18.0787V17.4588C13.8436 17.4588 14.0502 17.4588 14.2568 17.3555L16.9428 14.6696Z" fill="#FCD227"/>
<path opacity="0.15" d="M7.85156 10.6407C7.85156 11.0539 8.05817 11.4671 8.26479 11.777L13.5334 6.19852L12.1904 6.09521L11.364 7.02497V7.5415C11.364 7.5415 11.1573 7.5415 10.9507 7.5415L7.85156 10.6407Z" fill="#FCD227"/>
<path opacity="0.15" d="M8.88435 12.3968L8.98765 12.5001L9.09096 12.6034C9.09096 12.6034 9.09096 12.6034 9.19426 12.6034C9.19426 12.6034 9.29757 12.6034 9.29757 12.7067C9.60749 12.9133 9.9174 13.0166 10.3306 13.1199C10.4339 13.1199 10.5372 13.1199 10.5372 13.2232L12.2934 11.3637C11.5703 11.1571 11.0538 10.9505 11.0538 10.3307C11.0538 9.71085 11.5703 9.50424 12.2934 9.50424C12.81 9.50424 13.2232 9.71085 13.5331 9.91746L15.2893 8.05796C14.7728 7.74804 14.1529 7.64474 13.5331 7.54143V7.0249L8.67773 12.1902C8.78104 12.2935 8.78104 12.2935 8.88435 12.3968Z" fill="#FCD227"/>
</svg>
