<svg width="16" height="17" viewBox="0 0 16 17" fill="none" xmlns="http://www.w3.org/2000/svg">
<rect y="0.5" width="16" height="16" rx="8" fill="#FFAE35"/>
<g clip-path="url(#clip0_580_9100)">
<path d="M12.3056 5.52664C12.1595 5.46576 11.9985 5.44976 11.8432 5.48067C11.6879 5.51159 11.5453 5.58802 11.4336 5.70024L10.3992 6.73464L8.56482 4.90024C8.4148 4.75027 8.21135 4.66602 7.99922 4.66602C7.78709 4.66602 7.58364 4.75027 7.43362 4.90024L5.59922 6.73464L4.56482 5.70024C4.45294 5.5884 4.31041 5.51223 4.15524 5.48138C4.00008 5.45052 3.83925 5.46637 3.6931 5.5269C3.54694 5.58744 3.422 5.68995 3.3341 5.82148C3.24619 5.95301 3.19925 6.10764 3.19922 6.26584V10.5002C3.19985 11.0305 3.41077 11.5388 3.78571 11.9138C4.16064 12.2887 4.66898 12.4996 5.19922 12.5002H10.7992C11.3295 12.4996 11.8378 12.2887 12.2127 11.9138C12.5877 11.5388 12.7986 11.0305 12.7992 10.5002V6.26584C12.7993 6.10763 12.7524 5.95296 12.6645 5.82138C12.5767 5.68981 12.4518 5.58724 12.3056 5.52664Z" fill="#FFE5CC"/>
</g>
<defs>
<clipPath id="clip0_580_9100">
<rect width="9.6" height="9.6" fill="white" transform="translate(3.19922 3.7002)"/>
</clipPath>
</defs>
</svg>
