<svg width="18" height="18" viewBox="0 0 18 18" fill="none" xmlns="http://www.w3.org/2000/svg">
<path d="M9.21751 2.54858C8.22295 2.54858 7.26912 2.94367 6.56586 3.64693C5.8626 4.35019 5.46751 5.30402 5.46751 6.29858V7.79858C5.46751 8.36708 5.13676 8.92733 4.71376 9.30758C4.375 9.61182 4.13652 10.0117 4.02982 10.4543C3.92312 10.897 3.95322 11.3616 4.11615 11.7867C4.27909 12.2119 4.56718 12.5776 4.94237 12.8356C5.31756 13.0936 5.76219 13.2317 6.21751 13.2316H12.2175C12.6729 13.2318 13.1176 13.0938 13.4929 12.8359C13.8682 12.578 14.1565 12.2123 14.3195 11.7871C14.4825 11.3619 14.5127 10.8972 14.406 10.4545C14.2993 10.0118 14.0608 9.61186 13.722 9.30758C13.299 8.92733 12.9683 8.36708 12.9683 7.79858V6.29858C12.9683 5.30402 12.5732 4.35019 11.8699 3.64693C11.1666 2.94367 10.2128 2.54858 9.21826 2.54858H9.21751Z" stroke="#FFB547" stroke-width="1.5"/>
<path d="M11.01 15.2341L10.9785 15.2416C9.82772 15.524 8.62547 15.5214 7.47595 15.2341" stroke="#FFB547" stroke-width="1.5" stroke-linecap="round"/>
</svg>
