<svg width="312" height="68" viewBox="0 0 312 68" fill="none" xmlns="http://www.w3.org/2000/svg">
<path d="M0.5 5C0.5 2.23858 2.73858 0 5.5 0H306.5C309.261 0 311.5 2.23858 311.5 5V63C311.5 65.7614 309.261 68 306.5 68H5.5C2.73857 68 0.5 65.7614 0.5 63V5Z" fill="#F4F4FF"/>
<g clip-path="url(#clip0_2104_6392)">
<path d="M155.52 62.8785C183.671 62.8785 206.492 58.8482 206.492 53.8765C206.492 48.9048 183.671 44.8744 155.52 44.8744C127.369 44.8744 104.548 48.9048 104.548 53.8765C104.548 58.8482 127.369 62.8785 155.52 62.8785Z" fill="#DAE4FE"/>
<path d="M155.52 60.4178C190.601 60.4178 219.04 55.3973 219.04 49.2042C219.04 43.0111 190.601 37.9906 155.52 37.9906C120.439 37.9906 92 43.0111 92 49.2042C92 55.3973 120.439 60.4178 155.52 60.4178Z" fill="white"/>
<path d="M155.52 56.6177C180.799 56.6177 201.292 53.0058 201.292 48.5502C201.292 44.0946 180.799 40.4826 155.52 40.4826C130.241 40.4826 109.748 44.0946 109.748 48.5502C109.748 53.0058 130.241 56.6177 155.52 56.6177Z" fill="#DAE4FE"/>
<path d="M109.423 34.8317C108.271 37.2095 109.234 40.0713 111.612 41.2242C113.99 42.3771 116.852 41.4134 118.005 39.0355C119.157 36.6577 118.194 33.7959 115.816 32.643C113.438 31.4901 110.576 32.4538 109.423 34.8317Z" fill="#213622"/>
<path d="M120.624 42.2441C122.829 41.4982 124.012 39.1059 123.266 36.9009C122.52 34.6958 120.128 33.513 117.923 34.2589C115.718 35.0049 114.535 37.3971 115.281 39.6022C116.027 41.8072 118.419 42.99 120.624 42.2441Z" fill="#213622"/>
<path d="M120.584 38.3362C119.777 39.9233 120.489 41.8429 122.029 42.6289C123.617 43.4353 125.536 42.724 126.322 41.1834C127.128 39.5962 126.417 37.6767 124.877 36.8907C123.289 36.0843 121.344 36.7287 120.584 38.3362Z" fill="#213622"/>
<path d="M106.196 34.8587C105.389 36.4458 106.101 38.3654 107.641 39.1514C109.228 39.9578 111.127 39.293 111.934 37.7059C112.74 36.1187 112.076 34.2196 110.488 33.4132C108.901 32.6068 107.002 33.2715 106.196 34.8587Z" fill="#213622"/>
<path d="M115.511 51.3042L111.871 50.3745C111.871 50.3745 116.811 40.619 106.473 33.5936L107.895 32.4983C107.895 32.4983 111.593 33.6752 114.924 41.5106C114.924 41.5106 116.718 35.6438 115.918 32.41L118.746 33.0397C118.746 33.0397 118.516 39.2592 117.087 42.0149C117.087 42.0149 122.083 35.1672 125.718 35.0967L127.107 37.3685C127.107 37.3685 119.429 39.3266 115.511 51.3042Z" fill="#AABC46"/>
<path d="M107.505 38.1984C110.395 37.8051 112.419 35.1434 112.026 32.2534C111.633 29.3633 108.971 27.3394 106.081 27.7327C103.191 28.126 101.167 30.7878 101.56 33.6778C101.954 36.5678 104.615 38.5918 107.505 38.1984Z" fill="#698232"/>
<path d="M106.198 25.49C105.331 27.2166 106.074 29.3165 107.8 30.184C109.527 31.0515 111.627 30.3084 112.494 28.5817C113.362 26.855 112.619 24.7552 110.892 23.8877C109.165 23.0201 107.066 23.7633 106.198 25.49Z" fill="#698232"/>
<path d="M111.152 32.1514C110.596 33.2938 111.051 34.6578 112.194 35.2139C113.336 35.7699 114.7 35.3142 115.256 34.1718C115.812 33.0294 115.357 31.6654 114.214 31.1094C113.072 30.5533 111.708 31.009 111.152 32.1514Z" fill="#698232"/>
<path d="M116.078 35.586C118.031 36.4415 120.307 35.5524 121.162 33.6001C122.018 31.6479 121.129 29.3717 119.176 28.5162C117.224 27.6607 114.948 28.5499 114.092 30.5021C113.237 32.4544 114.126 34.7305 116.078 35.586Z" fill="#698232"/>
<path d="M123.032 34.1412C122.083 36.054 122.858 38.3341 124.77 39.2831C126.683 40.2322 128.963 39.4572 129.912 37.5444C130.861 35.6317 130.086 33.3516 128.174 32.4025C126.261 31.4535 123.96 32.275 123.032 34.1412Z" fill="#698232"/>
<path d="M126.913 44.2143C128.882 45.0288 131.139 44.0924 131.954 42.1227C132.769 40.1529 131.832 37.8958 129.862 37.0812C127.893 36.2667 125.636 37.2031 124.821 39.1728C124.006 41.1426 124.943 43.3997 126.913 44.2143Z" fill="#698232"/>
<path d="M127.428 33.8505C126.479 35.7633 127.254 38.0434 129.167 38.9925C131.08 39.9415 133.36 39.1665 134.309 37.2538C135.258 35.341 134.483 33.0609 132.57 32.1118C130.658 31.1628 128.357 31.9843 127.428 33.8505Z" fill="#698232"/>
<path d="M125.195 29.7111C124.246 31.6239 125.021 33.904 126.933 34.853C128.846 35.8021 131.126 35.0271 132.075 33.1143C133.024 31.2016 132.249 28.9215 130.337 27.9724C128.424 27.0234 126.123 27.8449 125.195 29.7111Z" fill="#698232"/>
<path d="M118.346 31.4229C117.397 33.3357 118.172 35.6158 120.085 36.5649C121.997 37.5139 124.277 36.7389 125.226 34.8262C126.176 32.9134 125.401 30.6333 123.488 29.6842C121.575 28.7352 119.295 29.5102 118.346 31.4229Z" fill="#698232"/>
<path d="M123.852 31.6017C126.251 32.0464 128.556 30.4621 129.001 28.063C129.445 25.664 127.861 23.3587 125.462 22.914C123.063 22.4693 120.758 24.0536 120.313 26.4527C119.868 28.8517 121.453 31.157 123.852 31.6017Z" fill="#698232"/>
<path d="M114.403 25.87C114.556 28.4319 116.454 30.4277 118.582 30.2516C120.69 30.122 122.329 27.9014 122.13 25.3192C121.977 22.7574 120.079 20.7616 117.951 20.9377C115.822 21.1138 114.251 23.3082 114.403 25.87Z" fill="#698232"/>
<path d="M108.496 28.2158C108.687 31.0713 110.756 33.3086 113.158 33.1414C115.559 32.9742 117.346 30.5414 117.13 27.619C116.94 24.7635 114.871 22.5262 112.469 22.6935C110.067 22.8607 108.306 25.3603 108.496 28.2158Z" fill="#698232"/>
<path d="M130.729 37.9588C130.729 37.9588 128.805 35.896 126.158 37.5083C126.158 37.5083 126.375 34.6094 128.385 34.3256C128.385 34.3256 127.099 34.982 126.737 36.8195C126.737 36.8195 128.946 35.0703 130.729 37.9588Z" fill="#AABC46"/>
<path d="M122.668 33.706C122.668 33.706 121.618 34.9645 122.76 36.4074C122.76 36.4074 121.059 36.4936 120.774 35.3711C120.774 35.3711 121.242 36.075 122.315 36.1571C122.315 36.1571 121.164 34.9875 122.668 33.706Z" fill="#213622"/>
<path d="M120.759 26.5487C120.759 26.5487 120.171 28.3977 122.089 29.4601C122.089 29.4601 120.269 30.3256 119.417 29.2317C119.417 29.2317 120.24 29.7585 121.47 29.3551C121.47 29.3551 119.682 28.6271 120.759 26.5487Z" fill="#AABC46"/>
<path d="M112.778 31.4784C112.778 31.4784 113.369 29.2427 109.479 28.7577C109.479 28.7577 112.587 29.5097 112.778 31.4784Z" fill="#AABC46"/>
<path d="M105.159 31.91C105.159 31.91 104.289 34.0234 108.068 35.0143C108.068 35.0143 105.097 33.8233 105.159 31.91Z" fill="#213622"/>
<path d="M115.482 31.8868C115.482 31.8868 114.611 34.0002 118.391 34.9911C118.437 35.0115 115.466 33.8204 115.482 31.8868Z" fill="#213622"/>
<path d="M120.617 40.7906C120.617 40.7906 116.262 43.2625 114.915 49.8798C114.936 49.8333 117.207 43.5103 120.617 40.7906Z" fill="#698232"/>
<path d="M112.41 38.1371C112.41 38.1371 115.345 42.1951 113.811 48.7308C113.791 48.7773 114.359 42.0404 112.41 38.1371Z" fill="#698232"/>
<path d="M114.897 46.3792L115.962 40.9132C115.915 40.8928 116.152 42.8819 114.897 46.3792Z" fill="#698232"/>
<path d="M163.404 25.8131C167.939 27.2967 171.679 18.7834 180.774 23.7718C189.542 28.4885 187.392 59.2518 166.997 53.3186C146.813 61.833 137.035 17.4144 163.404 25.8131Z" fill="#DD3D45"/>
<mask id="mask0_2104_6392" style="mask-type:luminance" maskUnits="userSpaceOnUse" x="147" y="22" width="39" height="33">
<path d="M163.404 25.8125C167.939 27.2961 171.679 18.7828 180.774 23.7712C189.541 28.4878 187.391 59.2512 166.997 53.318C146.812 61.8324 137.034 17.4138 163.404 25.8125Z" fill="white"/>
</mask>
<g mask="url(#mask0_2104_6392)">
<path d="M148.693 29.6754C148.693 29.6754 149.975 48.6282 158.017 50.0633C165.994 51.5509 168.032 47.9648 171.358 50.2125C174.685 52.4603 182.808 50.2826 185.453 43.7324C188.045 37.1173 190.821 59.3727 190.821 59.3727L165.675 64.8152L151.705 62.1662L143.152 40.0782L148.693 29.6754Z" fill="#AC2224"/>
</g>
<path d="M164.514 25.9889C164.514 25.9889 162.869 19.5835 166.672 16.7163L168.384 17.3704C168.384 17.3704 164.566 19.8204 165.479 25.8524L164.514 25.9889Z" fill="#AC2224"/>
<path d="M158.467 12.2962C162.761 14.942 164.192 20.5533 164.192 20.5533C164.192 20.5533 158.528 21.9197 154.234 19.2739C149.94 16.6281 148.509 11.0168 148.509 11.0168C148.509 11.0168 154.172 9.6504 158.467 12.2962Z" fill="#698232"/>
<mask id="mask1_2104_6392" style="mask-type:luminance" maskUnits="userSpaceOnUse" x="148" y="10" width="17" height="11">
<path d="M158.467 12.2962C162.761 14.942 164.192 20.5533 164.192 20.5533C164.192 20.5533 158.528 21.9197 154.234 19.2739C149.94 16.6281 148.509 11.0168 148.509 11.0168C148.509 11.0168 154.172 9.6504 158.467 12.2962Z" fill="white"/>
</mask>
<g mask="url(#mask1_2104_6392)">
<path d="M164.192 20.5526L165.077 36.4955L132.414 16.7527L148.509 11.0161C156.935 13.3225 164.192 20.5526 164.192 20.5526Z" fill="#AABC46"/>
</g>
<mask id="mask2_2104_6392" style="mask-type:luminance" maskUnits="userSpaceOnUse" x="148" y="10" width="17" height="11">
<path d="M158.467 12.2962C162.761 14.942 164.192 20.5533 164.192 20.5533C164.192 20.5533 158.528 21.9197 154.234 19.2739C149.94 16.6281 148.509 11.0168 148.509 11.0168C148.509 11.0168 154.172 9.6504 158.467 12.2962Z" fill="white"/>
</mask>
<g mask="url(#mask2_2104_6392)">
<path d="M161.073 18.0305C161.073 18.0305 156.992 16.1788 153.959 19.0671C153.959 19.0671 155.956 15.2987 161.073 18.0305Z" fill="#698232"/>
</g>
<mask id="mask3_2104_6392" style="mask-type:luminance" maskUnits="userSpaceOnUse" x="148" y="10" width="17" height="11">
<path d="M158.467 12.2962C162.761 14.942 164.192 20.5533 164.192 20.5533C164.192 20.5533 158.528 21.9197 154.234 19.2739C149.94 16.6281 148.509 11.0168 148.509 11.0168C148.509 11.0168 154.172 9.6504 158.467 12.2962Z" fill="white"/>
</mask>
<g mask="url(#mask3_2104_6392)">
<path d="M157.836 15.4953C157.836 15.4953 153.755 13.6436 150.722 16.5319C150.722 16.5319 152.837 12.7757 157.836 15.4953Z" fill="#698232"/>
</g>
<mask id="mask4_2104_6392" style="mask-type:luminance" maskUnits="userSpaceOnUse" x="148" y="10" width="17" height="11">
<path d="M158.467 12.2962C162.761 14.942 164.192 20.5533 164.192 20.5533C164.192 20.5533 158.528 21.9197 154.234 19.2739C149.94 16.6281 148.509 11.0168 148.509 11.0168C148.509 11.0168 154.172 9.6504 158.467 12.2962Z" fill="white"/>
</mask>
<g mask="url(#mask4_2104_6392)">
<path d="M157.285 15.0811C157.285 15.0811 154.316 11.6835 156.184 8.02015C156.184 8.02015 153.138 11.0259 157.285 15.0811Z" fill="#213622"/>
</g>
<mask id="mask5_2104_6392" style="mask-type:luminance" maskUnits="userSpaceOnUse" x="148" y="10" width="17" height="11">
<path d="M158.467 12.2962C162.761 14.942 164.192 20.5533 164.192 20.5533C164.192 20.5533 158.528 21.9197 154.234 19.2739C149.94 16.6281 148.509 11.0168 148.509 11.0168C148.509 11.0168 154.172 9.6504 158.467 12.2962Z" fill="white"/>
</mask>
<g mask="url(#mask5_2104_6392)">
<path d="M161.138 17.9771C161.138 17.9771 158.169 14.5795 160.036 10.9161C160.036 10.9161 157.043 13.9868 161.138 17.9771Z" fill="#213622"/>
</g>
<path d="M164.192 20.5528C164.192 20.5528 156.446 12.3217 148.561 11.0812C148.509 11.0163 155.238 13.0858 164.192 20.5528Z" fill="#213622"/>
<path d="M166.619 16.651C166.619 16.651 162.408 18.8818 164.461 25.9236C164.514 25.9885 163.092 19.7251 166.619 16.651Z" fill="#213622"/>
<path opacity="0.5" d="M178.242 27.544C178.242 27.544 184.611 36.4621 178.171 46.9488C178.171 46.9488 182.176 37.0384 178.242 27.544Z" fill="#ECB13B"/>
<path opacity="0.5" d="M175.105 36.536C175.105 36.536 176.105 44.0018 173.626 47.8386L175.105 36.536Z" fill="#ECB13B"/>
<path opacity="0.24" d="M176.817 30.9568C176.817 30.9568 179.158 38.088 177.347 42.3508L176.817 30.9568Z" fill="#ECB13B"/>
<path d="M121.469 44.9769C121.469 44.9769 126.338 55.9737 138.232 52.9846C150.125 49.9955 155.517 37.2336 155.517 37.2336L121.469 44.9769Z" fill="#213622"/>
<path d="M145.133 29.0917C145.619 28.9572 146.159 28.8596 146.698 28.762C150.827 28.2462 154.676 30.2867 155.638 33.5462C156.766 37.4714 153.611 41.5692 148.791 42.6276C148.611 42.6602 148.432 42.6927 148.305 42.7621C145.789 43.2177 143.318 44.1756 141.569 45.7915C139.693 47.4768 137.234 48.7573 134.449 49.2618C128.032 50.4701 121.835 47.5092 120.316 42.4484C118.576 36.6851 123.256 30.5015 130.395 28.9302C133.075 28.3522 135.651 28.4888 137.95 29.1397C140.122 29.86 142.703 29.7638 145.133 29.0917Z" fill="#698232"/>
<path d="M122.425 44.6184C124.841 47.7074 129.56 49.1726 134.127 48.2529C136.679 47.7443 139.028 46.6229 140.777 45.007C142.616 43.3748 145.145 42.2209 148.02 41.7002C148.2 41.6676 148.29 41.6513 148.469 41.6188C150.789 41.1059 152.856 39.7107 153.964 37.8861C154.741 36.539 155 35.1466 154.576 33.8314C154.425 33.2555 154.095 32.7121 153.727 32.2218C152.275 30.3504 149.552 29.4052 146.734 29.7299C146.231 29.7745 145.782 29.8558 145.349 30.0271C142.613 30.801 139.836 30.8399 137.431 30.1154C135.222 29.4482 132.841 29.369 130.432 29.8982C126.817 30.6919 123.642 32.8908 122.015 35.6911C120.776 37.8179 120.485 40.0514 121.145 42.1591C121.45 43.0781 121.83 43.8911 122.425 44.6184Z" fill="#AABC46"/>
<path d="M132.926 45.1274C135.963 44.3377 137.851 41.487 137.142 38.7603C136.433 36.0336 133.396 34.4635 130.358 35.2532C127.321 36.043 125.434 38.8936 126.143 41.6203C126.852 44.347 129.889 45.9172 132.926 45.1274Z" fill="#213622"/>
<path d="M132.529 43.531C129.47 44.317 126.486 42.955 125.85 40.4717C125.215 37.9884 127.144 35.319 130.204 34.533C133.263 33.747 136.247 35.1089 136.883 37.5923C137.518 40.0756 135.588 42.745 132.529 43.531Z" fill="#813D23"/>
<path d="M132.643 38.2673C131.581 38.5524 130.516 38.0494 130.263 37.1671C130.011 36.2848 130.726 35.3665 131.788 35.0814C132.85 34.7963 133.915 35.2993 134.168 36.1816C134.42 37.0638 133.705 37.9822 132.643 38.2673Z" fill="#9E5038"/>
<g opacity="0.43">
<path d="M146.971 46.1588C146.858 45.5298 146.18 45.3742 146.024 46.052C145.93 46.301 145.995 46.6604 146.044 46.93C146.035 47.3955 145.59 47.2441 145.346 46.9172C145.741 47.82 146.591 47.3877 146.285 46.4687C146.155 45.7499 146.608 45.4357 146.971 46.1588Z" fill="#698232"/>
<path d="M132.663 50.931C132.549 50.3021 131.871 50.1464 131.715 50.8242C131.621 51.0732 131.686 51.4327 131.735 51.7022C131.727 52.1678 131.282 52.0163 131.037 51.6895C131.432 52.5923 132.282 52.16 131.977 51.2409C131.846 50.5221 132.263 50.261 132.663 50.931Z" fill="#698232"/>
<path d="M143.802 46.0832C143.827 45.7075 143.333 45.2866 143.023 45.6212C142.802 45.9396 142.867 46.299 143.022 46.6421C143.042 46.4992 143.063 46.3563 143.12 46.1603C143.202 45.5887 143.504 45.7196 143.802 46.0832Z" fill="#698232"/>
<path d="M136.452 51.358C136.477 50.9823 135.983 50.5613 135.673 50.896C135.452 51.2144 135.517 51.5738 135.672 51.9169C135.693 51.774 135.713 51.6311 135.77 51.4351C135.799 50.8267 136.138 50.9045 136.452 51.358Z" fill="#698232"/>
<path d="M141.599 49.034C141.592 48.4786 140.975 47.8942 140.465 48.4044C140.17 48.8289 140.215 49.3312 140.439 49.801C140.501 49.3722 140.509 48.9067 140.73 48.5883C141.02 48.3966 141.371 48.797 141.599 49.034Z" fill="#698232"/>
</g>
<path d="M188.98 44.7441C197.712 38.8095 198.768 47.4807 195.308 48.8015C193.733 49.4149 197.356 50.805 197.354 52.7529C197.357 53.3784 197.284 53.807 196.03 54.6956C194.775 55.5842 194.317 55.4693 193.758 55.3003C191.92 54.6558 191.81 50.7775 190.709 52.0598C188.315 54.8859 180.443 51.0429 188.98 44.7441Z" fill="#9E5038"/>
<path d="M188.714 44.3678C196.902 38.8183 198.049 47.1741 194.827 48.3887C193.336 48.9428 192.932 47.2197 193.087 47.1726C195.782 46.4564 191.987 45.0001 192.649 47.7964C192.989 49.2512 196.774 50.3382 196.814 52.2564C196.817 52.8819 196.786 53.2808 195.615 54.1102C194.444 54.9396 193.986 54.8246 193.469 54.6261C191.672 53.9519 191.902 50.0213 190.684 49.1886C188.236 47.5945 188.381 51.6993 189.951 49.3942C190.047 49.2635 191.496 50.2461 190.521 51.4396C188.265 54.1054 180.732 50.2101 188.714 44.3678Z" fill="#D3C090"/>
<path d="M154.154 50.4018C149.948 50.242 146.384 53.5016 146.384 53.5016C146.384 53.5016 149.643 57.066 153.901 57.2246C158.107 57.3844 161.672 54.1248 161.672 54.1248C161.672 54.1248 158.412 50.5605 154.154 50.4018Z" fill="#698232"/>
<mask id="mask6_2104_6392" style="mask-type:luminance" maskUnits="userSpaceOnUse" x="146" y="50" width="16" height="8">
<path d="M154.154 50.4018C149.948 50.242 146.384 53.5016 146.384 53.5016C146.384 53.5016 149.643 57.066 153.901 57.2246C158.107 57.3844 161.672 54.1248 161.672 54.1248C161.672 54.1248 158.412 50.5605 154.154 50.4018Z" fill="white"/>
</mask>
<g mask="url(#mask6_2104_6392)">
<path d="M146.383 53.5016L138.378 64.2438L170.236 65.5121L161.619 54.0748C154.751 51.8233 146.383 53.5016 146.383 53.5016Z" fill="#AABC46"/>
</g>
<mask id="mask7_2104_6392" style="mask-type:luminance" maskUnits="userSpaceOnUse" x="146" y="50" width="16" height="8">
<path d="M154.154 50.4018C149.948 50.242 146.384 53.5016 146.384 53.5016C146.384 53.5016 149.643 57.066 153.901 57.2246C158.107 57.3844 161.672 54.1248 161.672 54.1248C161.672 54.1248 158.412 50.5605 154.154 50.4018Z" fill="white"/>
</mask>
<g mask="url(#mask7_2104_6392)">
<path d="M149.709 53.2203C149.709 53.2203 153.465 53.8518 154.157 57.2187C154.157 57.2187 154.485 53.6233 149.709 53.2203Z" fill="#698232"/>
</g>
<mask id="mask8_2104_6392" style="mask-type:luminance" maskUnits="userSpaceOnUse" x="146" y="50" width="16" height="8">
<path d="M154.154 50.4018C149.948 50.242 146.384 53.5016 146.384 53.5016C146.384 53.5016 149.643 57.066 153.901 57.2246C158.107 57.3844 161.672 54.1248 161.672 54.1248C161.672 54.1248 158.412 50.5605 154.154 50.4018Z" fill="white"/>
</mask>
<g mask="url(#mask8_2104_6392)">
<path d="M153.084 52.8866C153.084 52.8866 156.84 53.5181 157.532 56.885C157.532 56.885 157.912 53.3397 153.084 52.8866Z" fill="#698232"/>
</g>
<mask id="mask9_2104_6392" style="mask-type:luminance" maskUnits="userSpaceOnUse" x="146" y="50" width="16" height="8">
<path d="M154.154 50.4018C149.948 50.242 146.384 53.5016 146.384 53.5016C146.384 53.5016 149.643 57.066 153.901 57.2246C158.107 57.3844 161.672 54.1248 161.672 54.1248C161.672 54.1248 158.412 50.5605 154.154 50.4018Z" fill="white"/>
</mask>
<g mask="url(#mask9_2104_6392)">
<path d="M153.75 52.8714C153.75 52.8714 157.418 51.9159 157.801 48.473C157.801 48.473 158.495 51.9424 153.75 52.8714Z" fill="#213622"/>
</g>
<mask id="mask10_2104_6392" style="mask-type:luminance" maskUnits="userSpaceOnUse" x="146" y="50" width="16" height="8">
<path d="M154.154 50.4018C149.948 50.242 146.384 53.5016 146.384 53.5016C146.384 53.5016 149.643 57.066 153.901 57.2246C158.107 57.3844 161.672 54.1248 161.672 54.1248C161.672 54.1248 158.412 50.5605 154.154 50.4018Z" fill="white"/>
</mask>
<g mask="url(#mask10_2104_6392)">
<path d="M149.655 53.119C149.655 53.119 153.323 52.1636 153.706 48.7207C153.706 48.7207 154.402 52.2413 149.655 53.119Z" fill="#213622"/>
</g>
<path d="M146.383 53.5016C146.383 53.5016 155.61 51.291 161.672 54.1248C161.671 54.0736 156.097 52.4075 146.383 53.5016Z" fill="#213622"/>
</g>
<defs>
<clipPath id="clip0_2104_6392">
<rect width="311" height="62" fill="white" transform="translate(0.5 6)"/>
</clipPath>
</defs>
</svg>
