<svg width="312" height="68" viewBox="0 0 312 68" fill="none" xmlns="http://www.w3.org/2000/svg">
<path d="M0.75 5C0.75 2.23858 2.98858 0 5.75 0H306.75C309.511 0 311.75 2.23858 311.75 5V63C311.75 65.7614 309.511 68 306.75 68H5.75C2.98857 68 0.75 65.7614 0.75 63V5Z" fill="#F4F4FF"/>
<g clip-path="url(#clip0_2104_41233)">
<g clip-path="url(#clip1_2104_41233)">
<path d="M186.684 66.199C190.021 69.8374 192.828 73.212 196.165 76.8504C197.648 78.4322 199.237 80.0668 201.355 80.4887C202.521 80.6996 203.739 80.4887 204.904 80.1723C211.524 78.485 224.183 62.4025 227.149 61.1898C228.579 60.6097 230.168 60.557 231.492 59.8188C232.816 59.0806 233.716 57.1296 232.657 56.075C233.981 55.3895 233.452 52.8585 231.916 52.8058C233.293 51.8567 232.18 49.2202 230.591 49.4839C231.439 48.7984 230.856 47.2692 229.797 46.9528C228.738 46.6365 225.931 49.5893 224.818 49.6948C224.871 48.9566 224.077 48.3765 223.335 48.4293C222.594 48.4293 219.84 56.075 220.952 57.8151C216.45 59.9243 206.652 66.8318 202.468 69.521C200.72 66.3045 197.065 62.6662 195.317 59.397L186.684 66.199Z" fill="#F6A472"/>
<path d="M223.971 49.2202C224.395 49.853 224.871 50.4857 225.295 51.1185C225.507 51.4348 225.719 51.6985 225.931 52.0149C226.089 52.2785 226.248 52.5949 226.354 52.9113C226.46 53.3858 226.407 53.9658 226.037 54.2822C225.825 54.4404 225.613 54.4931 225.348 54.4404C225.136 54.3877 224.871 54.2822 224.659 54.124C224.13 53.7022 223.918 52.9113 223.759 52.2785C223.706 52.0149 223.229 52.1203 223.335 52.384C223.494 53.0694 223.706 53.7549 224.236 54.2822C224.659 54.7041 225.401 55.0204 225.984 54.7568C226.619 54.4931 226.884 53.8604 226.884 53.2276C226.831 52.4894 226.407 51.8567 225.984 51.2766C225.454 50.4857 224.924 49.7475 224.342 48.9566C224.289 48.8511 224.13 48.7984 224.024 48.8511C223.971 49.0093 223.918 49.1675 223.971 49.2202Z" fill="#682F1B"/>
<path d="M228.208 47.7965C227.308 48.482 226.672 49.4311 226.407 50.5384C226.354 50.8021 226.302 51.1185 226.302 51.3821C226.302 51.6458 226.302 51.9621 226.46 52.2258C226.619 52.4894 226.884 52.6476 227.202 52.5949C227.467 52.5422 227.732 52.4367 227.996 52.2785C228.314 52.0676 228.579 51.8039 228.844 51.5403C229.109 51.2767 229.373 51.013 229.638 50.7494C229.691 50.6966 229.744 50.5384 229.638 50.433C229.585 50.3275 229.426 50.3275 229.32 50.3803C228.42 51.0657 227.785 52.0676 227.573 53.2276C227.467 53.7549 227.414 54.5459 227.996 54.8095C228.473 55.0204 229.056 54.7568 229.479 54.4404C230.115 53.9658 230.803 53.544 231.439 53.0694C231.386 52.964 231.28 52.8058 231.227 52.7003C230.75 53.0167 230.327 53.3858 229.903 53.7549C229.691 53.9131 229.479 54.124 229.32 54.2822C229.162 54.4404 228.95 54.6513 228.844 54.8622C228.632 55.2841 228.685 55.7586 228.95 56.1277C229.267 56.4969 229.691 56.7605 230.168 56.8132C230.803 56.866 231.386 56.655 231.969 56.4969C232.233 56.3914 232.128 56.0223 231.863 56.075C230.856 56.2859 229.691 56.5496 229.109 57.4987C228.844 57.9205 228.738 58.4478 228.95 58.9224C229.109 59.2915 229.479 59.6079 229.85 59.7133C230.327 59.8188 230.803 59.7133 231.068 59.3442C231.121 59.2388 231.068 59.0806 230.962 59.0279C230.856 58.9751 230.698 59.0279 230.645 59.1333C230.592 59.186 230.698 59.0806 230.645 59.1333L230.592 59.186L230.539 59.2388C230.486 59.2388 230.486 59.2915 230.433 59.2915H230.38H230.327H230.274C230.327 59.2915 230.221 59.2915 230.221 59.2915H230.168C230.115 59.2915 230.115 59.2915 230.062 59.2915C230.009 59.2915 230.009 59.2915 229.956 59.2915C229.903 59.2915 229.903 59.2915 229.85 59.2388H229.797C229.744 59.2388 229.85 59.2388 229.797 59.2388C229.744 59.186 229.638 59.186 229.585 59.1333C229.532 59.0806 229.638 59.186 229.585 59.1333L229.532 59.0806L229.479 59.0279C229.426 58.9751 229.479 59.0806 229.479 59.0279C229.479 59.0279 229.479 58.9751 229.426 58.9751C229.426 58.9751 229.426 58.9751 229.426 58.9224C229.426 58.9224 229.373 58.8169 229.426 58.8697C229.268 58.5006 229.373 58.1315 229.532 57.8151C229.744 57.446 230.062 57.1823 230.486 56.9714C230.962 56.7605 231.492 56.655 232.022 56.5496C231.969 56.3914 231.916 56.2859 231.916 56.1277C231.121 56.3914 230.115 56.7605 229.426 56.075C229.32 55.9696 229.215 55.8114 229.162 55.6532C229.109 55.495 229.109 55.3368 229.215 55.1786C229.32 54.9677 229.479 54.8095 229.585 54.7041C229.744 54.5459 229.956 54.3877 230.115 54.2295C230.539 53.8604 230.962 53.544 231.386 53.2276C231.492 53.1749 231.545 53.0167 231.492 52.9113C231.439 52.8058 231.28 52.7531 231.174 52.8058C230.645 53.1749 230.115 53.544 229.585 53.9131C229.373 54.0713 229.162 54.2295 228.897 54.3877C228.738 54.4931 228.526 54.5459 228.314 54.5459H228.261H228.208H228.155C228.155 54.5459 228.102 54.5459 228.102 54.4931L228.049 54.4404C227.996 54.3877 227.996 54.335 227.996 54.2822C227.943 54.0713 227.943 53.7549 227.996 53.544C228.049 53.0694 228.208 52.5949 228.473 52.173C228.738 51.6985 229.109 51.2239 229.532 50.9075C229.426 50.8021 229.373 50.6966 229.268 50.5384C228.844 50.9603 228.42 51.3821 227.943 51.7512C227.732 51.9094 227.573 52.0676 227.361 52.173C227.255 52.2258 227.149 52.2258 227.043 52.2258C226.99 52.2258 226.884 52.1731 226.831 52.1203C226.725 51.9621 226.725 51.6985 226.725 51.5403C226.725 51.2767 226.778 51.0657 226.778 50.8548C226.884 50.3803 227.043 49.9057 227.308 49.4839C227.573 49.0093 227.943 48.5875 228.367 48.2711C228.473 48.2184 228.526 48.0602 228.473 47.9547C228.473 47.7438 228.314 47.6911 228.208 47.7965Z" fill="#682F1B"/>
<path d="M228.579 57.0769C227.308 56.4441 225.666 56.5496 224.501 57.3932C224.13 57.6042 223.865 57.9205 223.6 58.2369C223.547 58.3424 223.6 58.5006 223.706 58.5533C223.812 58.606 223.918 58.5533 224.024 58.4478C224.395 57.9733 224.924 57.5514 225.507 57.3405C225.666 57.2878 225.825 57.2351 225.984 57.1823C226.143 57.1296 226.302 57.1296 226.407 57.0769C226.566 57.0769 226.725 57.0241 226.884 57.0769C226.937 57.0769 227.043 57.0769 227.096 57.0769C227.149 57.0769 227.255 57.0769 227.308 57.0769C227.679 57.1296 227.996 57.2351 228.314 57.3932C228.42 57.446 228.579 57.446 228.632 57.2878C228.738 57.2878 228.685 57.1296 228.579 57.0769Z" fill="#682F1B"/>
<path d="M221.27 59.8188C221.852 60.3988 222.435 60.9261 223.018 61.5061C223.229 61.7171 223.547 61.4007 223.335 61.1898C222.753 60.6097 222.17 60.0824 221.588 59.5024C221.376 59.2915 221.058 59.6079 221.27 59.8188Z" fill="#682F1B"/>
<path d="M199.555 57.6042C201.408 60.9261 203.633 64.0371 206.281 66.8318C203.262 71.1556 200.031 75.2685 196.642 79.2759C195.953 77.7995 195.159 76.4285 194.205 75.163L199.555 57.6042Z" fill="#F59F18"/>
<path d="M177.681 48.1656C172.808 47.4274 168.518 46.4783 163.592 45.7401C161.474 45.4237 159.143 45.1073 157.289 46.1092C156.23 46.6892 155.436 47.5856 154.694 48.5347C150.563 53.9658 150.775 74.3721 149.239 77.1667C148.497 78.485 147.279 79.5396 146.644 80.9105C146.061 82.3342 146.591 84.3906 148.074 84.5488C147.438 85.9198 149.451 87.5544 150.669 86.658C150.192 88.2399 152.682 89.6636 153.794 88.3981C153.529 89.4527 154.959 90.2436 155.965 89.8745C156.972 89.4527 157.342 85.3925 158.137 84.6543C158.561 85.2343 159.567 85.1816 160.097 84.707C160.679 84.2325 158.084 76.534 156.071 75.9012C158.243 71.472 161.632 59.977 163.168 55.2841C166.558 56.7078 171.696 57.2878 175.085 58.7642L177.681 48.1656Z" fill="#F6A472"/>
<path d="M163.221 55.5477C163.327 55.3895 163.168 55.1786 163.115 55.0204C163.009 54.7041 162.903 54.4404 162.798 54.124C162.586 53.4385 162.321 52.7531 162.109 52.0676C162.109 51.9094 162.003 51.7512 162.003 51.593C162.003 51.4876 161.844 51.3821 161.738 51.4348C161.632 51.4876 161.579 51.593 161.579 51.6985C161.632 51.8039 161.685 51.9621 161.685 52.0676C161.791 52.384 161.897 52.6476 162.003 52.964C162.215 53.6495 162.427 54.3349 162.692 54.9677C162.745 55.0732 162.745 55.1786 162.798 55.3368C162.798 55.3895 162.798 55.3895 162.85 55.4423C162.85 55.4423 162.85 55.4423 162.85 55.495C162.85 55.4423 162.85 55.3895 162.85 55.3368C162.798 55.4423 162.798 55.6004 162.956 55.6532C163.009 55.7059 163.168 55.6532 163.221 55.5477Z" fill="#682F1B"/>
<path d="M185.466 46.9528C180.752 46.6892 176.092 46.3728 171.378 46.1092C171.219 51.013 170.53 55.9696 169.206 60.7152C170.477 61.2425 171.748 61.7698 173.02 62.2971C174.503 67.3591 171.801 72.632 168.571 76.7976C165.34 80.9633 163.486 79.5396 161.738 84.4961C165.128 87.8708 169.471 88.2926 173.708 90.5073C177.945 92.7219 189.756 90.1381 189.915 89.5581C190.816 86.2889 191.186 80.5414 193.146 77.4831C195.582 73.5812 199.502 70.5228 200.72 66.0936C202.203 60.7152 199.237 55.1786 196.377 50.3802C196.006 49.7475 195.582 49.1147 195.106 48.5347C192.881 46.1092 189.015 46.1092 185.784 46.6365L185.466 46.9528Z" fill="#F59F18"/>
<mask id="mask0_2104_41233" style="mask-type:luminance" maskUnits="userSpaceOnUse" x="161" y="46" width="41" height="46">
<path d="M185.466 46.9528C180.752 46.6892 176.092 46.3728 171.378 46.1092C171.219 51.013 170.53 55.9696 169.206 60.7152C170.477 61.2425 171.748 61.7698 173.02 62.2971C174.503 67.3591 171.801 72.632 168.571 76.7976C165.34 80.9633 163.486 79.5396 161.738 84.4961C165.128 87.8708 169.471 88.2926 173.708 90.5073C177.945 92.7219 189.756 90.1381 189.915 89.5581C190.816 86.2889 191.186 80.5414 193.146 77.4831C195.582 73.5812 199.502 70.5228 200.72 66.0936C202.203 60.7152 199.237 55.1786 196.377 50.3802C196.006 49.7475 195.582 49.1147 195.106 48.5347C192.881 46.1092 189.015 46.1092 185.784 46.6365L185.466 46.9528Z" fill="white"/>
</mask>
<g mask="url(#mask0_2104_41233)">
<path d="M205.381 42.7345L208.717 43.6836L206.122 46.0037L205.169 49.2729L202.891 46.6892L199.555 45.7401L202.15 43.4727L203.103 40.1508L205.381 42.7345Z" fill="#F2C794"/>
</g>
<mask id="mask1_2104_41233" style="mask-type:luminance" maskUnits="userSpaceOnUse" x="161" y="46" width="41" height="46">
<path d="M185.466 46.9528C180.752 46.6892 176.092 46.3728 171.378 46.1092C171.219 51.013 170.53 55.9696 169.206 60.7152C170.477 61.2425 171.748 61.7698 173.02 62.2971C174.503 67.3591 171.801 72.632 168.571 76.7976C165.34 80.9633 163.486 79.5396 161.738 84.4961C165.128 87.8708 169.471 88.2926 173.708 90.5073C177.945 92.7219 189.756 90.1381 189.915 89.5581C190.816 86.2889 191.186 80.5414 193.146 77.4831C195.582 73.5812 199.502 70.5228 200.72 66.0936C202.203 60.7152 199.237 55.1786 196.377 50.3802C196.006 49.7475 195.582 49.1147 195.106 48.5347C192.881 46.1092 189.015 46.1092 185.784 46.6365L185.466 46.9528Z" fill="white"/>
</mask>
<g mask="url(#mask1_2104_41233)">
<path d="M178.74 42.2599L182.076 43.2091L179.481 45.4764L178.528 48.7984L176.197 46.2146L172.914 45.2655L175.509 42.9981L176.462 39.6762L178.74 42.2599Z" fill="#F2C794"/>
</g>
<mask id="mask2_2104_41233" style="mask-type:luminance" maskUnits="userSpaceOnUse" x="161" y="46" width="41" height="46">
<path d="M185.466 46.9528C180.752 46.6892 176.092 46.3728 171.378 46.1092C171.219 51.013 170.53 55.9696 169.206 60.7152C170.477 61.2425 171.748 61.7698 173.02 62.2971C174.503 67.3591 171.801 72.632 168.571 76.7976C165.34 80.9633 163.486 79.5396 161.738 84.4961C165.128 87.8708 169.471 88.2926 173.708 90.5073C177.945 92.7219 189.756 90.1381 189.915 89.5581C190.816 86.2889 191.186 80.5414 193.146 77.4831C195.582 73.5812 199.502 70.5228 200.72 66.0936C202.203 60.7152 199.237 55.1786 196.377 50.3802C196.006 49.7475 195.582 49.1147 195.106 48.5347C192.881 46.1092 189.015 46.1092 185.784 46.6365L185.466 46.9528Z" fill="white"/>
</mask>
<g mask="url(#mask2_2104_41233)">
<path d="M196.483 56.3914L199.82 57.3405L197.224 59.6079L196.271 62.9298L193.993 60.3461L190.657 59.397L193.252 57.1296L194.205 53.8076L196.483 56.3914Z" fill="#F2C794"/>
</g>
<mask id="mask3_2104_41233" style="mask-type:luminance" maskUnits="userSpaceOnUse" x="161" y="46" width="41" height="46">
<path d="M185.466 46.9528C180.752 46.6892 176.092 46.3728 171.378 46.1092C171.219 51.013 170.53 55.9696 169.206 60.7152C170.477 61.2425 171.748 61.7698 173.02 62.2971C174.503 67.3591 171.801 72.632 168.571 76.7976C165.34 80.9633 163.486 79.5396 161.738 84.4961C165.128 87.8708 169.471 88.2926 173.708 90.5073C177.945 92.7219 189.756 90.1381 189.915 89.5581C190.816 86.2889 191.186 80.5414 193.146 77.4831C195.582 73.5812 199.502 70.5228 200.72 66.0936C202.203 60.7152 199.237 55.1786 196.377 50.3802C196.006 49.7475 195.582 49.1147 195.106 48.5347C192.881 46.1092 189.015 46.1092 185.784 46.6365L185.466 46.9528Z" fill="white"/>
</mask>
<g mask="url(#mask3_2104_41233)">
<path d="M191.239 46.3728L192.934 46.8474L191.61 48.0074L191.133 49.642L189.968 48.3765L188.326 47.902L189.65 46.7419L190.127 45.1073L191.239 46.3728Z" fill="#F2C794"/>
</g>
<mask id="mask4_2104_41233" style="mask-type:luminance" maskUnits="userSpaceOnUse" x="161" y="46" width="41" height="46">
<path d="M185.466 46.9528C180.752 46.6892 176.092 46.3728 171.378 46.1092C171.219 51.013 170.53 55.9696 169.206 60.7152C170.477 61.2425 171.748 61.7698 173.02 62.2971C174.503 67.3591 171.801 72.632 168.571 76.7976C165.34 80.9633 163.486 79.5396 161.738 84.4961C165.128 87.8708 169.471 88.2926 173.708 90.5073C177.945 92.7219 189.756 90.1381 189.915 89.5581C190.816 86.2889 191.186 80.5414 193.146 77.4831C195.582 73.5812 199.502 70.5228 200.72 66.0936C202.203 60.7152 199.237 55.1786 196.377 50.3802C196.006 49.7475 195.582 49.1147 195.106 48.5347C192.881 46.1092 189.015 46.1092 185.784 46.6365L185.466 46.9528Z" fill="white"/>
</mask>
<g mask="url(#mask4_2104_41233)">
<path d="M164.545 61.7698L167.829 62.7189L165.234 64.9863L164.28 68.3082L162.003 65.7245L158.666 64.7753L161.261 62.508L162.215 59.186L164.545 61.7698Z" fill="#F2C794"/>
</g>
<mask id="mask5_2104_41233" style="mask-type:luminance" maskUnits="userSpaceOnUse" x="161" y="46" width="41" height="46">
<path d="M185.466 46.9528C180.752 46.6892 176.092 46.3728 171.378 46.1092C171.219 51.013 170.53 55.9696 169.206 60.7152C170.477 61.2425 171.748 61.7698 173.02 62.2971C174.503 67.3591 171.801 72.632 168.571 76.7976C165.34 80.9633 163.486 79.5396 161.738 84.4961C165.128 87.8708 169.471 88.2926 173.708 90.5073C177.945 92.7219 189.756 90.1381 189.915 89.5581C190.816 86.2889 191.186 80.5414 193.146 77.4831C195.582 73.5812 199.502 70.5228 200.72 66.0936C202.203 60.7152 199.237 55.1786 196.377 50.3802C196.006 49.7475 195.582 49.1147 195.106 48.5347C192.881 46.1092 189.015 46.1092 185.784 46.6365L185.466 46.9528Z" fill="white"/>
</mask>
<g mask="url(#mask5_2104_41233)">
<path d="M177.098 52.964L180.382 53.9131L177.786 56.1805L176.886 59.5024L174.555 56.9187L171.272 55.9696L173.814 53.7022L174.767 50.3802L177.098 52.964Z" fill="#F2C794"/>
</g>
<mask id="mask6_2104_41233" style="mask-type:luminance" maskUnits="userSpaceOnUse" x="161" y="46" width="41" height="46">
<path d="M185.466 46.9528C180.752 46.6892 176.092 46.3728 171.378 46.1092C171.219 51.013 170.53 55.9696 169.206 60.7152C170.477 61.2425 171.748 61.7698 173.02 62.2971C174.503 67.3591 171.801 72.632 168.571 76.7976C165.34 80.9633 163.486 79.5396 161.738 84.4961C165.128 87.8708 169.471 88.2926 173.708 90.5073C177.945 92.7219 189.756 90.1381 189.915 89.5581C190.816 86.2889 191.186 80.5414 193.146 77.4831C195.582 73.5812 199.502 70.5228 200.72 66.0936C202.203 60.7152 199.237 55.1786 196.377 50.3802C196.006 49.7475 195.582 49.1147 195.106 48.5347C192.881 46.1092 189.015 46.1092 185.784 46.6365L185.466 46.9528Z" fill="white"/>
</mask>
<g mask="url(#mask6_2104_41233)">
<path d="M176.039 63.9317L177.733 64.4062L176.409 65.5663L175.933 67.2009L174.82 65.9354L173.125 65.4608L174.45 64.3008L174.926 62.6662L176.039 63.9317Z" fill="#F2C794"/>
</g>
<mask id="mask7_2104_41233" style="mask-type:luminance" maskUnits="userSpaceOnUse" x="161" y="46" width="41" height="46">
<path d="M185.466 46.9528C180.752 46.6892 176.092 46.3728 171.378 46.1092C171.219 51.013 170.53 55.9696 169.206 60.7152C170.477 61.2425 171.748 61.7698 173.02 62.2971C174.503 67.3591 171.801 72.632 168.571 76.7976C165.34 80.9633 163.486 79.5396 161.738 84.4961C165.128 87.8708 169.471 88.2926 173.708 90.5073C177.945 92.7219 189.756 90.1381 189.915 89.5581C190.816 86.2889 191.186 80.5414 193.146 77.4831C195.582 73.5812 199.502 70.5228 200.72 66.0936C202.203 60.7152 199.237 55.1786 196.377 50.3802C196.006 49.7475 195.582 49.1147 195.106 48.5347C192.881 46.1092 189.015 46.1092 185.784 46.6365L185.466 46.9528Z" fill="white"/>
</mask>
<g mask="url(#mask7_2104_41233)">
<path d="M187.055 53.7549L188.75 54.2295L187.426 55.3895L186.949 57.0241L185.837 55.7586L184.142 55.2841L185.466 54.124L185.943 52.4894L187.055 53.7549Z" fill="#F2C794"/>
</g>
<mask id="mask8_2104_41233" style="mask-type:luminance" maskUnits="userSpaceOnUse" x="161" y="46" width="41" height="46">
<path d="M185.466 46.9528C180.752 46.6892 176.092 46.3728 171.378 46.1092C171.219 51.013 170.53 55.9696 169.206 60.7152C170.477 61.2425 171.748 61.7698 173.02 62.2971C174.503 67.3591 171.801 72.632 168.571 76.7976C165.34 80.9633 163.486 79.5396 161.738 84.4961C165.128 87.8708 169.471 88.2926 173.708 90.5073C177.945 92.7219 189.756 90.1381 189.915 89.5581C190.816 86.2889 191.186 80.5414 193.146 77.4831C195.582 73.5812 199.502 70.5228 200.72 66.0936C202.203 60.7152 199.237 55.1786 196.377 50.3802C196.006 49.7475 195.582 49.1147 195.106 48.5347C192.881 46.1092 189.015 46.1092 185.784 46.6365L185.466 46.9528Z" fill="white"/>
</mask>
<g mask="url(#mask8_2104_41233)">
<path d="M165.817 52.7531L167.458 53.2276L166.187 54.3877L165.711 56.0223L164.545 54.7568L162.904 54.2822L164.175 53.1222L164.651 51.4876L165.817 52.7531Z" fill="#F2C794"/>
</g>
<mask id="mask9_2104_41233" style="mask-type:luminance" maskUnits="userSpaceOnUse" x="161" y="46" width="41" height="46">
<path d="M185.466 46.9528C180.752 46.6892 176.092 46.3728 171.378 46.1092C171.219 51.013 170.53 55.9696 169.206 60.7152C170.477 61.2425 171.748 61.7698 173.02 62.2971C174.503 67.3591 171.801 72.632 168.571 76.7976C165.34 80.9633 163.486 79.5396 161.738 84.4961C165.128 87.8708 169.471 88.2926 173.708 90.5073C177.945 92.7219 189.756 90.1381 189.915 89.5581C190.816 86.2889 191.186 80.5414 193.146 77.4831C195.582 73.5812 199.502 70.5228 200.72 66.0936C202.203 60.7152 199.237 55.1786 196.377 50.3802C196.006 49.7475 195.582 49.1147 195.106 48.5347C192.881 46.1092 189.015 46.1092 185.784 46.6365L185.466 46.9528Z" fill="white"/>
</mask>
<g mask="url(#mask9_2104_41233)">
<path d="M186.578 64.7753L189.915 65.7245L187.32 67.9918L186.367 71.3138L184.089 68.73L180.752 67.7809L183.348 65.5136L184.301 62.1916L186.578 64.7753Z" fill="#F2C794"/>
</g>
<mask id="mask10_2104_41233" style="mask-type:luminance" maskUnits="userSpaceOnUse" x="161" y="46" width="41" height="46">
<path d="M185.466 46.9528C180.752 46.6892 176.092 46.3728 171.378 46.1092C171.219 51.013 170.53 55.9696 169.206 60.7152C170.477 61.2425 171.748 61.7698 173.02 62.2971C174.503 67.3591 171.801 72.632 168.571 76.7976C165.34 80.9633 163.486 79.5396 161.738 84.4961C165.128 87.8708 169.471 88.2926 173.708 90.5073C177.945 92.7219 189.756 90.1381 189.915 89.5581C190.816 86.2889 191.186 80.5414 193.146 77.4831C195.582 73.5812 199.502 70.5228 200.72 66.0936C202.203 60.7152 199.237 55.1786 196.377 50.3802C196.006 49.7475 195.582 49.1147 195.106 48.5347C192.881 46.1092 189.015 46.1092 185.784 46.6365L185.466 46.9528Z" fill="white"/>
</mask>
<g mask="url(#mask10_2104_41233)">
<path d="M199.078 68.941L200.773 69.4155L199.449 70.5228L198.972 72.2102L197.86 70.8919L196.165 70.4174L197.489 69.3101L197.966 67.6227L199.078 68.941Z" fill="#F2C794"/>
</g>
<path d="M203.262 37.2506C204.798 36.2488 206.228 35.1415 207.552 33.876C205.963 33.4541 204.321 33.2432 202.68 33.2432C202.15 30.0795 201.408 26.7575 200.72 24.1738L184.354 27.3375C184.142 30.2904 184.301 33.1905 184.831 36.0906C183.877 35.3524 182.288 35.8269 181.759 36.9343C181.229 38.0416 181.653 39.4125 182.606 40.2035C183.56 40.9417 184.884 41.0999 186.049 40.8362C186.155 42.3654 185.254 43.9473 185.625 45.4237C185.837 46.2146 184.831 48.6929 185.413 49.2202C188.273 51.7512 192.458 53.6495 196.006 52.3312C196.642 52.0676 196.483 46.3728 196.483 46.3728C197.701 45.8982 203.05 44.2636 203.368 42.9981C203.686 41.7326 203.58 40.4144 203.474 39.1489C203.421 38.5161 203.315 37.8834 203.262 37.2506Z" fill="#F6A472"/>
<path d="M181.6 29.7104C181.017 29.974 180.858 30.7649 181.07 31.345C181.282 31.925 181.812 32.3996 182.288 32.7687C181.123 33.2959 180.752 35.036 181.547 35.9851C180.964 36.3543 180.647 37.0925 180.805 37.7779C180.964 38.4634 181.6 38.9907 182.288 39.0434C181.918 39.6235 181.865 40.4144 182.235 40.9944C182.606 41.5745 183.348 41.8908 184.036 41.7854C184.036 42.3654 184.566 42.8927 185.095 42.9454C185.678 42.9981 186.261 42.629 186.42 42.049C186.949 42.4708 187.85 41.9963 188.009 41.2581C188.167 40.5199 187.797 39.8871 187.32 39.3598C187.744 39.5707 188.273 39.1489 188.379 38.6743C188.485 38.1998 188.22 37.7252 187.956 37.3034C187.638 36.8288 187.267 36.407 186.843 35.9851C187.055 36.3015 187.532 36.1961 187.744 35.9324C187.956 35.616 187.903 35.2469 187.85 34.8778C187.532 33.7178 186.473 32.7687 185.307 32.5577L181.6 29.7104Z" fill="#C23F37"/>
<path d="M183.93 35.4051C183.824 35.9851 184.725 36.2488 185.148 35.8797C185.572 35.5106 185.625 34.8778 185.625 34.2978C185.625 32.1886 185.201 30.0795 184.354 28.1285C185.254 28.814 186.843 27.9703 186.79 26.8102C188.061 27.6012 189.703 27.7066 191.027 27.0739C191.504 26.863 192.034 26.4939 192.563 26.4939C193.093 26.4939 193.57 26.7575 194.046 26.863C195.053 27.1266 196.218 26.7575 196.854 25.9138C197.224 26.3357 197.648 26.8102 198.231 26.9684C198.813 27.1266 199.502 26.7575 199.502 26.1775C199.978 26.863 201.302 26.4411 201.302 25.5975C201.197 24.4902 200.72 23.3301 199.767 22.6974C198.813 22.0646 197.436 22.0119 196.642 22.8028C194.364 21.59 191.557 21.9591 189.015 22.381C188.273 22.4864 187.532 22.6446 186.737 22.7501C185.095 23.0137 183.136 23.541 182.659 25.1229C180.699 25.7029 179.852 28.5503 181.282 30.0795C181.441 30.2376 181.653 30.4486 181.706 30.6595C181.812 31.0286 181.6 31.4504 181.494 31.8195C181.282 32.6105 181.706 33.5069 182.394 33.9287C181.865 34.2978 181.706 35.1415 182.13 35.616C182.553 36.0906 183.401 36.0906 183.824 35.616L183.93 35.4051Z" fill="#C23F37"/>
<path d="M181.282 26.4411C182.183 25.1756 184.407 24.332 183.824 22.8555C183.242 21.3791 181.918 20.2191 180.382 19.85C180.223 20.2718 180.911 20.6936 181.335 20.3773C181.706 20.1136 181.812 19.5336 181.759 19.059C181.6 17.0553 180.064 15.2625 178.157 14.6825C176.515 13.417 174.503 12.6261 172.384 12.3624C172.437 12.7843 172.861 13.1534 173.285 13.0479C172.755 11.5187 171.06 10.5169 169.471 10.7278C167.882 10.9387 166.558 12.4151 166.505 14.0498C166.134 13.0479 164.704 12.9424 163.751 13.3643C161.633 14.3661 160.838 17.4772 162.268 19.3227C162.639 19.85 163.698 20.1136 163.751 19.4809C163.804 19.059 163.327 18.7954 162.904 18.7427C161.368 18.5845 159.938 19.85 159.514 21.3264C159.09 22.8028 159.408 24.3847 159.938 25.8611C160.361 27.1266 160.944 28.3394 161.95 29.1831C162.957 30.0267 164.493 30.3958 165.658 29.7631C166.082 29.5522 166.399 28.8667 165.976 28.6558C164.81 30.2377 165.446 32.8214 167.247 33.6123C169.047 34.4033 171.431 33.2432 171.855 31.345C171.961 32.8214 173.761 33.7178 175.138 33.296C176.568 32.8741 177.522 31.5032 177.84 30.1322C178.528 31.0813 180.117 30.6595 180.753 29.7104C181.441 28.814 181.335 27.5485 181.282 26.4411Z" fill="#C23F37"/>
<path d="M184.778 34.5615C185.996 35.247 187.744 34.7724 188.432 33.5596C189.121 32.3468 188.644 30.6068 187.426 29.9213C188.273 30.2377 189.227 30.5013 190.127 30.2377C191.027 30.0268 191.769 29.1304 191.61 28.234C193.252 28.3921 195.212 27.2321 195.053 25.5448C194.947 24.4374 193.94 23.6465 192.881 23.3829C191.822 23.1192 190.71 23.2774 189.65 23.4883C187.585 23.8574 185.519 24.332 183.507 24.912C182.818 25.0702 182.077 25.3338 181.759 25.9666C181.547 26.3884 181.6 26.863 181.653 27.2848C181.971 29.5522 182.606 31.7668 183.56 33.876L184.778 34.5615Z" fill="#C23F37"/>
<path d="M188.803 35.616C188.591 34.6142 187.638 33.876 186.631 33.8233C185.625 33.7705 184.619 34.2978 183.983 35.0888C183.136 36.1961 182.977 37.8307 183.666 39.0962C184.354 40.309 185.784 41.0999 187.214 40.9944C188.697 40.889 189.968 39.8344 190.975 38.7271L188.803 35.616Z" fill="#F6A472"/>
<path d="M185.413 35.8797C186.261 36.1433 186.949 36.8288 187.32 37.6198C187.426 37.8307 187.479 38.0943 187.532 38.358C187.532 38.4634 187.691 38.5689 187.797 38.5162C187.903 38.4634 187.956 38.358 187.956 38.2525C187.797 37.2507 187.161 36.3543 186.314 35.827C186.049 35.6688 185.784 35.5633 185.519 35.4579C185.413 35.4051 185.254 35.5106 185.254 35.616C185.202 35.7215 185.254 35.8797 185.413 35.8797Z" fill="#682F1B"/>
<path d="M185.784 37.7779C186.102 37.6198 186.42 37.4616 186.79 37.3034C186.896 37.2506 186.949 37.0925 186.896 36.987C186.843 36.8815 186.685 36.8288 186.579 36.8815C186.261 37.0397 185.943 37.1979 185.572 37.3561C185.466 37.4088 185.413 37.567 185.466 37.6725C185.572 37.7779 185.678 37.8307 185.784 37.7779Z" fill="#682F1B"/>
<path d="M199.449 34.0342C199.449 34.7724 199.025 35.4051 198.442 35.4051C197.913 35.4051 197.436 34.8251 197.436 34.0342C197.436 33.2432 197.86 32.6632 198.442 32.6632C198.972 32.6632 199.449 33.296 199.449 34.0342Z" fill="black"/>
<path d="M198.813 28.8667C199.025 28.814 199.184 29.0249 199.237 29.1831C199.343 29.6576 198.866 30.0267 198.389 30.1322C197.913 30.2376 197.383 30.1322 196.959 30.2904C196.695 30.3958 196.43 30.6067 196.218 30.8177C196.059 30.9759 195.847 31.134 195.688 31.2922C196.112 29.9213 197.436 29.1303 198.866 28.814C198.919 28.7085 198.972 28.7612 198.866 28.814L198.813 28.8667Z" fill="#C23F37"/>
<g opacity="0.56">
<path d="M196.218 46.2146C193.57 46.0037 192.087 45.5819 189.491 44.9491C191.716 46.2146 193.093 47.0056 195.529 47.8492C195.635 47.902 195.741 47.902 195.9 47.902C196.536 47.7965 195.9 46.5837 196.43 46.2146H196.218Z" fill="#682F1B"/>
</g>
<path d="M198.495 37.6198C199.184 38.4634 200.455 38.6743 201.408 38.1998C201.673 38.0416 201.461 37.6725 201.197 37.8307C200.826 38.0416 200.349 38.0943 199.925 37.9889C199.502 37.8834 199.078 37.6725 198.813 37.3034C198.76 37.1979 198.548 37.1979 198.495 37.3034C198.39 37.4088 198.39 37.5143 198.495 37.6198Z" fill="#682F1B"/>
<path d="M172.437 46.9528C172.49 48.7984 172.49 50.6439 172.384 52.4894C172.278 54.3349 172.119 56.1277 171.854 57.9205C171.695 58.9751 171.537 59.977 171.378 60.9788C171.378 61.0843 171.431 61.2425 171.537 61.2425C171.643 61.2952 171.801 61.1898 171.801 61.0843C172.119 59.2388 172.437 57.3932 172.596 55.5477C172.755 53.7022 172.861 51.8567 172.914 50.0111C172.914 48.9566 172.914 47.9547 172.861 46.9001C172.861 46.6892 172.384 46.6892 172.437 46.9528Z" fill="#A46416"/>
<path d="M183.771 50.8548C184.354 51.593 184.99 52.173 185.731 52.7531C186.473 53.2804 187.267 53.7022 188.114 54.0713C188.962 54.3877 189.809 54.6513 190.71 54.7568C191.61 54.8622 192.51 54.915 193.411 54.8095C194.311 54.704 195.212 54.4931 196.059 54.1768C196.165 54.124 196.271 54.0713 196.377 54.0186C196.483 53.9658 196.536 53.8077 196.483 53.7022C196.43 53.5967 196.271 53.5967 196.165 53.5967C194.576 54.2822 192.775 54.4931 191.027 54.2822C189.333 54.0713 187.638 53.4385 186.208 52.4894C185.413 51.9621 184.672 51.2766 184.089 50.4857C184.036 50.3802 183.824 50.433 183.771 50.4857C183.665 50.6439 183.665 50.7494 183.771 50.8548Z" fill="#A46416"/>
<path d="M184.566 47.2692C183.348 48.4293 182.129 49.642 180.964 50.8548C179.799 52.0676 178.687 53.3331 177.575 54.5986C176.939 55.3368 176.356 56.075 175.774 56.8132C175.721 56.9187 175.668 57.0241 175.774 57.1296C175.827 57.1823 176.039 57.2351 176.092 57.1296C177.151 55.8114 178.21 54.5459 179.375 53.2804C180.488 52.0149 181.653 50.8021 182.818 49.5893C183.507 48.9038 184.142 48.2711 184.831 47.5856C185.095 47.4274 184.778 47.111 184.566 47.2692Z" fill="#A46416"/>
<path d="M200.773 61.0843C200.72 62.1389 200.614 63.1935 200.402 64.2481C200.19 65.3026 199.925 66.3572 199.555 67.3591C199.184 68.3609 198.76 69.3628 198.231 70.2592C197.701 71.2083 197.118 72.1047 196.483 73.0011C195.847 73.8448 195.159 74.6885 194.364 75.4267C194.258 75.5321 194.152 75.6376 194.046 75.6903C193.835 75.9012 194.152 76.2176 194.364 76.0067C195.159 75.2685 195.9 74.4248 196.589 73.5811C197.277 72.7375 197.86 71.7883 198.389 70.8392C198.919 69.8901 199.396 68.8882 199.767 67.8336C200.137 66.8318 200.455 65.7772 200.667 64.7226C200.879 63.668 201.038 62.5607 201.144 61.4534C201.144 61.2952 201.144 61.1898 201.144 61.0316C201.144 60.9261 201.038 60.8206 200.932 60.8206C200.879 60.8734 200.773 60.9788 200.773 61.0843Z" fill="#A46416"/>
<path d="M195.953 77.3777C197.277 76.1122 198.548 74.7939 199.766 73.4757C201.038 72.1575 202.256 70.7865 203.421 69.4155C204.109 68.6246 204.745 67.8864 205.381 67.0955C205.434 66.99 205.487 66.8845 205.381 66.7791C205.275 66.6736 205.116 66.6736 205.063 66.7791C203.898 68.2028 202.732 69.5737 201.514 70.892C200.296 72.2629 199.025 73.5812 197.754 74.8994C197.065 75.6376 196.324 76.3231 195.582 77.0613C195.423 77.2195 195.741 77.5358 195.953 77.3777Z" fill="#A46416"/>
<path d="M176.727 63.8789C176.303 64.7753 175.88 65.6717 175.456 66.5154C175.403 66.6209 175.403 66.7791 175.562 66.8318C175.668 66.8845 175.827 66.8845 175.88 66.7263C176.303 65.8299 176.727 64.9335 177.151 64.0899C177.204 63.9844 177.204 63.8262 177.045 63.7735C176.939 63.7735 176.78 63.7735 176.727 63.8789Z" fill="#A46416"/>
<path d="M177.945 65.619C177.522 66.3572 177.151 67.0954 176.727 67.8337C176.568 68.0973 176.992 68.3082 177.098 68.0446C177.522 67.3064 177.892 66.5682 178.316 65.8299C178.475 65.5663 178.051 65.3554 177.945 65.619Z" fill="#A46416"/>
<path d="M182.394 61.6643C181.6 62.3498 180.964 63.1935 180.593 64.1953C180.54 64.3008 180.646 64.459 180.752 64.459C180.858 64.5117 180.964 64.4062 181.017 64.3008C181.388 63.4044 181.97 62.6134 182.712 61.9807C182.818 61.928 182.818 61.7698 182.712 61.6643C182.606 61.5589 182.5 61.6116 182.394 61.6643Z" fill="#A46416"/>
<path d="M188.962 64.8808C188.803 65.1445 188.644 65.3554 188.485 65.619C188.432 65.7245 188.485 65.8827 188.591 65.9354C188.697 65.9881 188.856 65.9354 188.909 65.8299C189.068 65.5663 189.227 65.3554 189.386 65.0917C189.438 64.9863 189.386 64.8281 189.28 64.7754C189.174 64.7226 189.015 64.7754 188.962 64.8808Z" fill="#A46416"/>
<path d="M189.915 65.6717C189.809 66.1463 189.756 66.6209 189.65 67.1482C189.65 67.2536 189.703 67.4118 189.809 67.4118C189.915 67.4118 190.074 67.3591 190.074 67.2536C190.18 66.7791 190.233 66.3045 190.339 65.7772C190.339 65.6718 190.286 65.5136 190.18 65.5136C190.074 65.4608 189.915 65.5136 189.915 65.6717Z" fill="#A46416"/>
<path d="M195.106 61.7698C195 62.0334 194.947 62.2443 194.841 62.508C194.788 62.6134 194.894 62.7716 195 62.7716C195.106 62.8244 195.211 62.7189 195.264 62.6134C195.37 62.3498 195.423 62.1389 195.529 61.8752C195.582 61.7698 195.476 61.6116 195.37 61.6116C195.264 61.6116 195.159 61.6643 195.106 61.7698Z" fill="#A46416"/>
<path d="M195.953 63.4571C195.847 63.8789 195.794 64.2481 195.688 64.6699C195.688 64.7753 195.741 64.9335 195.847 64.9335C195.953 64.9335 196.112 64.8808 196.112 64.7753C196.218 64.3535 196.271 63.9844 196.377 63.5626C196.377 63.4571 196.324 63.2989 196.218 63.2989C196.165 63.2989 196.006 63.3517 195.953 63.4571Z" fill="#A46416"/>
</g>
<g clip-path="url(#clip2_2104_41233)">
<path d="M148.95 30.0876L135.203 27.3663C134.312 26.334 132.998 25.7241 131.543 25.7241C130.793 25.7241 130.089 25.9118 129.432 26.1933C128.494 23.2843 125.772 21.126 122.535 21.126C120.705 21.126 119.063 21.8298 117.796 22.9089C116.67 18.4985 112.682 15.2142 107.896 15.2142C103.204 15.2142 99.3099 18.3578 98.09 22.6744C96.8701 21.736 95.3217 21.126 93.6326 21.126C90.3952 21.126 87.6739 23.2374 86.7355 26.1933C86.0787 25.9118 85.3749 25.7241 84.6242 25.7241C83.1227 25.7241 81.809 26.381 80.9175 27.4132L67.3579 30.0876H79.7446C79.7446 30.0876 79.7446 30.0876 79.7446 30.1345H136.329C136.329 30.1345 136.329 30.1345 136.329 30.0876H148.95Z" fill="url(#paint0_linear_2104_41233)"/>
<path d="M152.316 36.8831C159.865 42.2306 162.457 52.0814 164.541 61.0878C165.161 63.9023 165.837 66.8294 165.048 69.5877C164.372 71.8956 164.598 79.3821 162.964 81.1834C160.541 83.9417 156.203 81.0146 153.556 83.6039C153.218 77.5246 152.091 71.5015 150.344 65.7036C149.668 63.452 148.88 61.0315 149.725 58.8362L152.316 36.8831Z" fill="#4E8CA5"/>
<path d="M93.1616 52.7006C98.8517 52.7006 98.908 55.7403 103.64 58.8925C104.26 59.2865 104.936 59.7369 105.33 60.3561C105.894 61.2004 107.133 75.1604 107.302 80.2828C107.302 80.7331 113.499 80.508 114.232 80.8457C115.359 81.296 115.584 82.8721 115.246 84.0542C114.964 85.2363 114.345 86.4184 114.57 87.6568C114.739 88.7263 115.528 89.5707 116.035 90.5276C116.542 91.4845 116.823 92.7792 116.091 93.5673C115.19 94.4679 113.668 94.0176 112.485 93.3984C112.204 94.8619 109.95 95.4248 108.992 94.299C108.316 95.5937 106.176 95.5937 105.5 94.299C103.753 95.3686 101.387 93.7361 100.767 91.766C100.091 89.7958 100.485 87.6568 100.373 85.6304C100.091 81.4649 97.7812 77.806 96.0348 73.9783C93.5559 68.5181 92.2602 62.5514 91.0207 56.6972C90.739 55.4025 90.57 53.7138 91.6968 52.982L93.1616 52.7006Z" fill="#A95B35"/>
<path d="M93.8377 54.333C93.2743 54.2204 92.7672 54.5582 92.4292 55.0085C92.0912 55.5151 92.0912 56.1906 92.2039 56.7535C92.3165 57.0912 92.4292 57.4853 92.5982 57.823C92.6546 57.9356 92.7672 58.0482 92.8799 57.9919C92.9926 57.9356 93.1053 57.823 93.0489 57.7104C92.7672 57.0912 92.4856 56.3595 92.6546 55.684C92.7109 55.4025 92.8799 55.1774 93.0489 55.0085C93.1053 54.9522 93.2743 54.8396 93.3306 54.8396C93.4433 54.7833 93.556 54.7833 93.6686 54.7833C93.7813 54.7833 93.9503 54.727 93.9503 54.6145C94.0067 54.5582 93.9503 54.3893 93.8377 54.333Z" fill="#682F1B"/>
<path d="M160.823 78.8755C158.908 73.528 161.781 72.4585 163.133 66.942C163.302 66.2102 163.471 65.4785 163.922 64.8593C164.541 64.0149 176.992 56.2469 181.781 54.3893C182.175 54.2204 180.203 50.449 180.26 49.6046C180.316 48.3663 181.724 47.6908 182.964 47.5782C184.203 47.4656 185.499 47.5782 186.569 47.0153C187.527 46.5087 188.09 45.4955 188.767 44.6511C189.499 43.8068 190.626 43.1313 191.583 43.5816C192.766 44.1445 192.823 45.7206 192.654 47.0153C194.119 46.7901 195.414 48.704 194.626 49.9987C196.034 50.1675 196.766 52.2503 195.809 53.2635C197.386 54.5582 196.654 57.3164 195.02 58.6111C193.386 59.9057 191.245 60.2435 189.33 61.0315C185.499 62.664 182.795 66.0977 179.809 69.0248C175.471 73.1902 170.288 76.3988 165.161 79.551C164.034 80.2265 162.513 80.9583 161.443 80.1139L160.823 78.8755Z" fill="#A95B35"/>
<path d="M182.682 55.6277C183.414 56.8661 184.316 57.9919 185.386 58.9488C185.668 59.2303 186.006 59.5117 186.344 59.7369C186.457 59.7932 186.626 59.7369 186.682 59.6243C186.738 59.5117 186.682 59.3991 186.569 59.2865C185.499 58.4422 184.485 57.429 183.696 56.3595C183.471 56.0217 183.245 55.684 183.076 55.3462C182.907 55.1211 182.513 55.3462 182.682 55.6277Z" fill="#682F1B"/>
<path d="M180.992 49.0417C181.499 48.31 182.4 47.8596 183.245 47.7471C183.696 47.6908 184.203 47.6908 184.654 47.8034C185.161 47.9159 185.612 48.0848 186.006 48.31C186.964 48.8729 187.696 49.7172 188.316 50.6179C188.654 51.0682 188.935 51.5748 189.217 52.0814C189.33 52.3066 189.386 52.588 189.273 52.8132C189.161 53.0383 188.935 53.1509 188.71 53.2072C188.147 53.3761 187.583 53.0946 187.133 52.7569C186.907 52.588 186.682 52.3629 186.457 52.1377C186.175 51.9125 185.95 51.6311 185.668 51.4059C185.555 51.2934 185.443 51.1808 185.274 51.0682C185.161 51.1808 185.104 51.2934 184.992 51.4622C186.175 52.0251 186.964 53.3198 186.907 54.6145C186.907 55.1211 186.851 55.6277 186.907 56.078C186.907 56.1906 187.076 56.3032 187.189 56.2469C187.302 56.1906 187.358 56.078 187.358 55.9654C187.302 55.5151 187.358 55.0648 187.358 54.6145C187.358 54.2204 187.358 53.8827 187.245 53.4887C187.076 52.8132 186.682 52.194 186.175 51.6874C185.893 51.4059 185.555 51.1808 185.217 51.0119C185.104 50.9556 184.992 50.9556 184.879 51.0682C184.823 51.1808 184.823 51.2934 184.879 51.4059C185.386 51.9125 185.893 52.4192 186.457 52.9258C186.964 53.3761 187.583 53.7701 188.259 53.7701C188.879 53.7701 189.612 53.4324 189.724 52.8132C189.781 52.4192 189.668 52.0814 189.499 51.8C189.33 51.5185 189.217 51.2933 189.048 51.0119C188.428 49.9987 187.64 48.9855 186.626 48.31C185.724 47.6908 184.654 47.2967 183.527 47.353C182.513 47.4093 181.443 47.7471 180.767 48.5914C180.654 48.704 180.597 48.8166 180.541 48.9292C180.485 49.0417 180.541 49.2106 180.654 49.2669C180.766 49.2106 180.936 49.1543 180.992 49.0417Z" fill="#682F1B"/>
<path d="M189.668 43.6942C188.428 44.4822 187.865 45.9458 187.752 47.353C187.752 47.6908 187.696 48.0848 187.752 48.4225C187.752 48.7603 187.809 49.1543 187.921 49.4921C187.978 49.8298 188.147 50.2238 188.428 50.449C188.766 50.7304 189.161 50.7867 189.555 50.6742C190.062 50.5053 190.4 50.1113 190.738 49.7735C191.133 49.3795 191.527 48.9855 191.921 48.5914C191.809 48.4788 191.696 48.4226 191.527 48.31C191.133 48.9855 190.738 49.6609 190.288 50.3364C189.95 50.8993 189.555 51.4622 189.442 52.1377C189.386 52.4192 189.442 52.7569 189.611 52.9821C189.78 53.2635 190.062 53.4324 190.344 53.4324C190.964 53.545 191.583 53.2072 192.09 52.8132C192.71 52.3066 193.273 51.7437 193.724 51.0682C193.78 50.9556 193.724 50.843 193.668 50.7304C193.555 50.6742 193.442 50.6742 193.33 50.7304C192.485 51.4622 191.809 52.4192 191.358 53.4887C191.133 53.9953 190.964 54.6145 191.414 55.0085C191.809 55.4025 192.428 55.29 192.879 55.1211C193.499 54.8959 194.118 54.6145 194.682 54.2204C194.795 54.1642 194.851 53.9953 194.795 53.8827C194.738 53.7701 194.569 53.7138 194.457 53.7701C193.611 54.2204 192.879 54.8396 192.259 55.5151C191.921 55.8529 191.64 56.3032 191.752 56.8098C191.865 57.2601 192.203 57.5978 192.597 57.7667C193.048 57.9919 193.611 57.9919 194.118 57.823C194.231 57.7667 194.344 57.6541 194.288 57.5416C194.231 57.429 194.118 57.3164 194.006 57.3727C193.668 57.4853 193.273 57.5416 192.935 57.429C192.654 57.3164 192.316 57.0912 192.203 56.8098C192.09 56.472 192.428 56.1343 192.654 55.8529C192.935 55.5714 193.217 55.2337 193.555 55.0085C193.893 54.727 194.287 54.4456 194.682 54.2204C194.626 54.1079 194.513 53.939 194.457 53.8264C194.006 54.1641 193.555 54.3893 193.104 54.5582C192.879 54.6708 192.654 54.7271 192.372 54.7833C192.316 54.7833 192.203 54.7833 192.09 54.7833C192.034 54.7833 191.921 54.7833 191.865 54.727C191.696 54.6145 191.64 54.5019 191.64 54.2767C191.64 54.0516 191.696 53.8264 191.809 53.6575C192.034 53.2072 192.259 52.7569 192.541 52.3066C192.879 51.8563 193.273 51.4059 193.668 51.0119C193.555 50.8993 193.442 50.843 193.273 50.7304C192.879 51.2371 192.485 51.7437 191.978 52.1377C191.752 52.3066 191.527 52.4754 191.302 52.6443C191.076 52.7569 190.851 52.8695 190.569 52.8695C190.513 52.8695 190.457 52.8695 190.4 52.8695H190.344C190.288 52.8695 190.288 52.8695 190.231 52.8695C190.175 52.8695 190.062 52.7569 190.006 52.7006C189.95 52.6443 189.893 52.5317 189.893 52.4192C189.893 52.3066 189.893 52.194 189.893 52.0814C189.893 52.0251 189.893 51.9688 189.949 51.9125C189.949 51.8562 190.006 51.8 190.006 51.6874C190.062 51.5748 190.119 51.4622 190.175 51.3496C190.288 51.0682 190.513 50.7867 190.626 50.5053C191.02 49.7735 191.471 49.098 191.865 48.3663C191.978 48.1411 191.696 47.8596 191.471 48.0848C191.133 48.4226 190.795 48.7603 190.457 49.098C190.175 49.3795 189.893 49.7172 189.555 49.9424C189.386 50.055 189.273 50.1113 189.104 50.1675C188.992 50.1675 188.823 50.1675 188.71 50.055C188.597 49.9987 188.541 49.8861 188.485 49.7735C188.428 49.6609 188.372 49.5484 188.316 49.3795C188.203 49.0417 188.203 48.7603 188.147 48.4225C188.147 48.0848 188.09 47.7471 188.147 47.4093C188.203 46.7901 188.316 46.1147 188.541 45.5518C188.823 44.8763 189.217 44.3697 189.837 43.9756C190.175 43.9193 189.949 43.5253 189.668 43.6942Z" fill="#682F1B"/>
<path d="M191.245 55.9091C190.119 55.9654 189.048 56.3032 188.091 56.8661C187.809 57.035 188.091 57.429 188.316 57.2601C189.217 56.7535 190.231 56.4158 191.245 56.3595C191.358 56.3595 191.471 56.2469 191.471 56.1343C191.471 56.0217 191.358 55.9091 191.245 55.9091Z" fill="#682F1B"/>
<path d="M139.246 34.0123C122.739 34.744 126.344 35.0255 106.739 40.3168C101.725 41.6677 90.3446 49.4921 91.7531 52.982C92.3164 56.5283 98.4009 54.727 101.33 56.8098C102.683 57.7667 103.697 59.2303 105.161 60.0183C106.57 60.8064 114.119 58.4422 114.119 58.4422L121.725 59.6243C121.725 59.6243 121.612 71.8955 120.767 75.3293C119.133 81.8589 120.936 90.3024 117.95 96.3818C124.598 99.8155 132.485 103.305 139.302 100.21C141.217 99.3652 142.908 98.0142 144.879 97.4513C149.048 96.2692 153.612 98.5771 157.837 97.6202C158.175 97.5639 158.513 97.4513 158.738 97.2261C159.133 96.8884 159.302 96.3818 159.415 95.8752C160.654 90.1899 158.344 84.3357 158.4 78.5378C158.457 74.1472 159.809 69.9254 160.429 65.591C161.837 55.5714 159.02 44.9888 152.823 36.9956C148.034 36.489 143.302 35.4195 138.795 33.7871L139.246 34.0123Z" fill="#6DA8C6"/>
<path d="M135.246 18.7576C134.513 18.8702 134.119 19.7708 134.232 20.5026C134.344 21.2344 134.852 21.8536 135.359 22.4165C134.626 22.8668 134.063 23.6549 133.894 24.4992C133.725 25.1747 134.119 26.0753 134.739 25.9065C134.175 25.9065 133.725 26.4131 133.612 26.9197C133.499 27.4826 133.725 28.0455 134.063 28.4395C134.401 28.8336 134.852 29.115 135.359 29.0587C135.866 28.9461 136.204 28.327 135.922 27.9329C135.584 28.2144 135.697 28.7773 135.978 29.115C136.316 29.3965 136.767 29.509 137.218 29.4528C138.795 29.2839 139.978 27.4263 139.471 25.9065C139.189 25.9065 139.133 26.3568 139.359 26.4694C139.584 26.6383 139.866 26.5257 140.147 26.4131C141.443 25.7376 142.119 23.9926 141.556 22.5854C142.006 22.8105 142.57 22.5854 142.908 22.1913C143.246 21.7973 143.358 21.2907 143.358 20.7841C143.415 20.0523 143.189 19.2642 142.739 18.7013C142.288 18.1384 141.443 17.8007 140.767 18.0258L135.246 18.7576Z" fill="black"/>
<path d="M154.626 18.251C156.429 18.5324 158.232 18.8139 160.034 19.0954C158.739 19.7708 157.443 20.4463 156.147 21.1781C156.541 23.2045 156.823 25.231 156.992 27.3137C157.105 28.6647 157.556 30.6348 156.654 31.6481C155.415 33.1116 154.57 33.0553 152.711 32.5487C152.485 33.8434 151.415 40.7671 151.189 42.0617C151.133 42.4558 139.922 39.4161 136.823 37.84C136.598 37.7274 138.851 27.8203 139.246 25.4561C137.894 26.1879 136.316 25.1184 135.302 23.9926C134.851 23.486 133.274 20.3337 136.316 18.7013C137.274 18.1947 138.513 18.7013 139.584 18.9828C139.189 15.9431 138.964 14.1981 138.908 11.1584C143.809 10.7081 148.654 10.3141 153.556 9.86376C153.499 9.80747 154.57 15.8868 154.626 18.251Z" fill="#A95B35"/>
<path d="M135.922 18.8139C136.204 18.251 137.105 18.3636 137.612 18.8139C138.063 19.2642 138.344 19.9397 138.908 20.2774C139.471 20.6152 140.26 20.5589 140.711 20.1086C141.161 19.6583 141.33 18.9265 141.049 18.3073C141.612 18.0258 141.95 17.2941 141.781 16.6749C141.668 16.0557 141.049 15.5491 140.429 15.4928C141.161 15.5491 141.894 14.9299 141.894 14.1981C141.894 13.4663 141.161 12.7908 140.429 12.8471C141.668 12.8471 142.851 12.3405 143.696 11.4962C144.654 12.5094 146.57 12.2842 147.189 11.0459C148.147 11.8902 149.837 11.7776 150.626 10.7644C150.739 11.3836 151.415 11.7213 151.978 11.7213C152.598 11.7213 153.161 11.3836 153.668 11.1021C154.232 10.7644 154.908 10.1452 154.513 9.58231C155.358 9.24457 155.922 8.40021 155.922 7.49957C155.922 6.59893 155.415 5.75457 154.57 5.36054C154.344 5.24796 154.006 5.19167 153.781 5.36054C153.556 5.52941 153.612 5.97973 153.894 5.97973C153.274 4.00958 150.344 3.27781 148.879 4.74135C148.541 3.61555 147.527 2.7149 146.344 2.54603C145.161 2.37716 143.978 2.94006 143.358 3.95329C142.063 2.82748 139.753 3.10893 138.795 4.51619C137.556 4.12216 136.204 3.95329 135.077 4.57248C133.95 5.19167 133.33 6.7678 134.006 7.83731C132.992 9.35715 133.105 11.4962 134.288 12.9034C133.725 13.41 133.105 14.0292 132.936 14.761C132.767 15.4928 133.274 16.4497 134.006 16.4497C133.499 16.8437 133.33 17.5755 133.556 18.1947C133.781 18.7576 134.457 19.1516 135.077 19.0953C135.02 19.8834 136.147 20.2774 136.767 19.8271C137.443 19.4331 137.668 18.5887 137.894 17.857L135.922 18.8139Z" fill="black"/>
<path d="M152.035 19.4894C152.147 20.0523 151.922 20.6152 151.527 20.7278C151.133 20.8404 150.682 20.4463 150.513 19.8271C150.401 19.2642 150.626 18.7013 151.02 18.5888C151.471 18.5325 151.865 18.9265 152.035 19.4894Z" fill="black"/>
<path d="M152.035 15.0988C152.316 15.3239 152.26 15.7742 152.035 16.0557C151.809 16.3371 151.471 16.506 151.133 16.6186C150.851 16.7312 150.57 16.8438 150.288 17.0126C149.837 17.2378 149.443 17.4629 149.105 17.8007C148.992 17.9133 148.88 17.9696 148.711 17.9696C148.542 17.9696 148.373 17.8007 148.373 17.6318C148.373 17.4629 148.429 17.2941 148.485 17.1252C149.049 15.8868 150.457 15.0988 151.809 15.2113L152.035 15.0988Z" fill="black"/>
<path d="M152.879 22.9231C153.612 23.486 154.513 23.7674 155.415 23.8237C155.527 23.8237 155.64 23.7111 155.64 23.5986C155.64 23.486 155.527 23.3734 155.415 23.3734C154.57 23.3171 153.781 23.0357 153.105 22.529C152.992 22.4728 152.823 22.529 152.767 22.6416C152.71 22.6979 152.767 22.8668 152.879 22.9231Z" fill="#682F1B"/>
<path d="M136.88 21.347C137.612 22.0787 138.344 22.8668 139.077 23.5986C139.302 23.8237 139.64 23.486 139.415 23.2608C138.682 22.5291 137.95 21.741 137.218 21.0092C137.049 20.7841 136.711 21.1218 136.88 21.347Z" fill="#682F1B"/>
<path d="M136.992 23.1483C137.443 22.9231 137.894 22.6979 138.344 22.4728C138.457 22.4165 138.513 22.2476 138.457 22.135C138.401 22.0224 138.232 21.9662 138.119 22.0224C137.668 22.2476 137.218 22.4728 136.767 22.6979C136.654 22.7542 136.598 22.9231 136.654 23.0357C136.711 23.1483 136.823 23.2045 136.992 23.1483Z" fill="#682F1B"/>
<path d="M153.161 11.2147C153.161 10.8207 153.499 10.483 153.837 10.3704C154.288 10.2015 154.739 10.3141 155.077 10.5955C155.471 10.9333 155.696 11.4399 155.809 11.8902C155.922 12.3968 155.978 12.9034 155.865 13.4101C155.753 13.8041 155.471 14.2544 155.02 14.2544C154.682 14.2544 154.232 14.1418 154.119 13.7478C154.063 13.5789 154.119 13.4101 154.232 13.2975C154.344 13.1849 154.513 13.0723 154.682 13.0723C155.077 13.016 155.471 13.1849 155.753 13.4101C156.429 14.0855 156.598 15.2113 156.147 16.0557C156.091 16.1683 156.034 16.2809 155.978 16.3371C155.865 16.4497 156.034 16.6186 156.147 16.506C156.823 15.6054 156.823 14.3107 156.091 13.4101C155.753 13.016 155.302 12.7909 154.795 12.7909C154.344 12.7909 153.894 13.016 153.837 13.5226C153.781 13.973 154.175 14.367 154.57 14.4233C154.795 14.4796 155.02 14.4796 155.246 14.4233C155.471 14.3107 155.696 14.1418 155.809 13.9167C156.147 13.4101 156.147 12.7909 156.091 12.228C156.034 11.6651 155.809 11.0459 155.415 10.5955C155.077 10.2015 154.57 9.92006 154.006 9.97635C153.556 10.0326 153.049 10.3141 152.88 10.7644C152.823 10.877 152.823 10.9896 152.823 11.1022C152.936 11.3836 153.161 11.3836 153.161 11.2147Z" fill="black"/>
<path d="M155.471 29.2276C155.471 29.2839 155.527 29.2839 155.527 29.3402V29.3964C155.527 29.4527 155.584 29.509 155.584 29.6216V29.6779C155.584 29.7342 155.584 29.7342 155.584 29.7905C155.584 29.8468 155.584 29.8468 155.584 29.9031V29.9593C155.584 30.0156 155.584 30.1282 155.527 30.1845C155.527 30.2408 155.527 30.2408 155.471 30.2971V30.3534C155.415 30.5223 155.358 30.5785 155.189 30.6911C155.077 30.8037 155.077 30.9163 155.189 31.0289C155.302 31.1414 155.415 31.1414 155.527 31.0289C156.091 30.5222 156.203 29.6216 155.809 28.9461C155.753 28.8335 155.584 28.7773 155.471 28.8335C155.471 28.9461 155.415 29.115 155.471 29.2276Z" fill="#682F1B"/>
<path opacity="0.51" d="M152.71 32.4924C152.71 32.4924 141.274 29.115 141.95 29.115C142.626 29.115 152.316 35.2506 152.316 35.2506L152.71 32.4924Z" fill="#7F4028"/>
<path d="M95.4152 47.6345C95.4715 47.5219 95.5842 47.4656 95.6406 47.353L95.6969 47.2967H95.7532C95.8096 47.2967 95.8659 47.2405 95.9786 47.2405H96.0349C95.9786 47.2405 96.0913 47.2405 96.0349 47.2405C96.0913 47.2405 96.0913 47.2405 96.1476 47.2405C96.2039 47.2405 96.3166 47.2405 96.3729 47.2405C96.542 47.2405 96.6546 47.2404 96.7673 47.2967C97.1053 47.353 97.387 47.5219 97.7251 47.6345C98.0631 47.8034 98.4574 47.9722 98.7955 48.1411C100.204 48.8729 101.443 49.8298 102.739 50.6742C103.415 51.1245 104.035 51.5185 104.711 51.9125C105.387 52.3066 106.119 52.588 106.908 52.8695C107.64 53.1509 108.373 53.3761 109.105 53.7138C109.781 53.9953 110.457 54.3893 111.021 54.8959C111.471 55.3462 111.866 55.9091 112.091 56.5283C112.316 57.1475 112.373 57.7667 112.147 58.3296C112.091 58.4422 112.035 58.6111 111.978 58.7236C111.809 59.0051 112.26 59.2303 112.373 58.9488C113.162 57.6541 112.655 56.1343 111.809 55.0085C110.795 53.7701 109.218 53.1509 107.753 52.6443C106.964 52.3629 106.232 52.0814 105.5 51.7437C104.767 51.4059 104.091 50.9556 103.415 50.5053C102.063 49.6046 100.767 48.6477 99.3588 47.8596C99.0208 47.6345 98.6265 47.4656 98.2884 47.2967C97.9504 47.1279 97.6124 46.959 97.218 46.8464C96.6546 46.6775 95.8659 46.565 95.3025 46.959C95.1899 47.0716 95.0208 47.1842 94.9645 47.353C94.8518 47.6908 95.2462 47.9159 95.4152 47.6345Z" fill="#1D4A5E"/>
<path d="M95.5277 51.4059C96.5418 51.7437 97.4996 52.194 98.401 52.7569C99.3024 53.3198 100.147 53.9953 100.88 54.7833C101.274 55.2337 101.669 55.684 102.007 56.1343C102.063 56.2469 102.232 56.3032 102.345 56.2469C102.457 56.1906 102.514 56.0217 102.457 55.9091C101.838 55.0085 101.049 54.2204 100.204 53.4887C99.3587 52.7569 98.4573 52.194 97.4432 51.6874C96.8799 51.4059 96.3165 51.1808 95.6968 50.9556C95.5277 50.8993 95.3587 50.9556 95.3587 51.0682C95.3024 51.237 95.4151 51.3496 95.5277 51.4059Z" fill="#1D4A5E"/>
<path d="M98.739 51.3496C100.147 52.2503 101.5 53.2635 102.626 54.5019C102.964 54.8396 103.302 55.1774 103.584 55.5714C103.697 55.684 103.809 55.684 103.922 55.5714C104.035 55.4588 104.035 55.3462 103.922 55.2337C102.795 53.939 101.5 52.7569 100.147 51.8C99.7531 51.5185 99.3587 51.2371 98.9643 51.0119C98.739 50.7304 98.4573 51.1808 98.739 51.3496Z" fill="#1D4A5E"/>
<path d="M106.626 56.5283C107.302 56.9224 107.978 57.3164 108.654 57.7667C108.936 57.9356 109.161 57.4853 108.88 57.3727C108.204 56.9787 107.528 56.5846 106.852 56.1343C106.57 55.9654 106.345 56.3595 106.626 56.5283Z" fill="#1D4A5E"/>
<path d="M123.922 38.3466C123.64 41.0485 123.359 43.8067 123.021 46.5087C122.682 49.2106 122.344 51.9125 122.006 54.6145C121.781 56.1343 121.612 57.6541 121.387 59.174C121.387 59.2865 121.443 59.4554 121.556 59.4554C121.668 59.5117 121.837 59.3991 121.837 59.2865C122.232 56.5283 122.626 53.8264 122.964 51.0682C123.302 48.3662 123.64 45.608 123.922 42.9061C124.091 41.3863 124.26 39.8664 124.429 38.3466C124.429 38.234 124.316 38.1214 124.204 38.1214C124.035 38.1214 123.922 38.234 123.922 38.3466Z" fill="#1D4A5E"/>
<path d="M121.612 41.4426C122.345 42.2869 122.852 43.2438 123.133 44.3134C123.19 44.5948 123.697 44.4822 123.584 44.2008C123.246 43.075 122.683 42.0055 121.95 41.1048C121.894 40.9922 121.725 40.9922 121.612 41.1048C121.499 41.2174 121.556 41.33 121.612 41.4426Z" fill="#1D4A5E"/>
<path d="M112.035 46.2272C112.035 46.6775 112.035 47.0716 112.035 47.5219C112.035 47.6345 112.147 47.7471 112.26 47.7471C112.373 47.7471 112.485 47.6345 112.485 47.5219C112.485 47.0716 112.485 46.6775 112.485 46.2272C112.485 46.1146 112.373 46.0021 112.26 46.0021C112.147 45.9458 112.035 46.0583 112.035 46.2272Z" fill="#1D4A5E"/>
<path d="M114.908 47.5782C115.021 48.1411 115.133 48.6477 115.246 49.2106C115.246 49.3232 115.415 49.4358 115.528 49.3795C115.64 49.3232 115.697 49.2106 115.697 49.098C115.584 48.5351 115.471 48.0285 115.359 47.4656C115.359 47.353 115.19 47.2405 115.077 47.2967C114.964 47.353 114.908 47.4656 114.908 47.5782Z" fill="#1D4A5E"/>
<path d="M118.007 49.6046C118.119 49.8298 118.232 50.055 118.345 50.2801C118.345 50.3364 118.457 50.3927 118.514 50.3927C118.57 50.3927 118.626 50.3927 118.683 50.3927C118.795 50.3364 118.852 50.1675 118.795 50.055C118.683 49.8298 118.57 49.6046 118.457 49.3795C118.457 49.3232 118.345 49.2669 118.288 49.2669C118.232 49.2669 118.176 49.2669 118.119 49.2669C117.95 49.3232 117.95 49.4358 118.007 49.6046Z" fill="#1D4A5E"/>
<path d="M148.542 45.214C147.246 44.2571 145.95 43.3001 144.598 42.2869C144.204 42.0055 143.865 41.724 143.471 41.4426C143.415 41.3863 143.302 41.3863 143.246 41.4426C143.189 41.4988 143.133 41.5551 143.133 41.6677C142.964 42.9061 142.851 44.1445 142.682 45.3829C142.795 45.3266 142.964 45.2703 143.077 45.214C141.837 44.0882 140.204 43.469 138.682 42.7935C137.95 42.4558 137.218 42.118 136.542 41.6114C135.922 41.1611 135.359 40.5982 134.964 39.979C134.513 39.3035 134.288 38.5155 134.344 37.6711C134.344 37.5585 134.232 37.446 134.119 37.446C133.95 37.446 133.894 37.5585 133.894 37.6711C133.725 39.3035 134.739 40.7108 135.922 41.724C136.542 42.2306 137.274 42.6247 138.006 43.0187C138.795 43.3564 139.584 43.6942 140.316 44.0882C141.161 44.4822 142.006 44.9325 142.682 45.608C142.851 45.7769 143.077 45.6643 143.077 45.4392C143.246 44.2008 143.358 42.9624 143.527 41.724C143.415 41.7803 143.302 41.8366 143.189 41.9492C144.485 42.9061 145.781 43.863 147.133 44.8763C147.527 45.1577 147.865 45.4392 148.26 45.7206C148.373 45.7769 148.542 45.7206 148.598 45.608C148.711 45.4392 148.654 45.2703 148.542 45.214Z" fill="#1D4A5E"/>
<path d="M150.795 46.565C151.302 45.2703 151.809 44.0319 152.316 42.7372C152.485 42.3995 152.598 42.0055 152.767 41.6677C152.823 41.5552 152.711 41.3863 152.598 41.3863C152.485 41.33 152.372 41.4426 152.316 41.5552C151.809 42.8498 151.302 44.0882 150.795 45.3829C150.626 45.7206 150.513 46.1147 150.344 46.4524C150.288 46.565 150.401 46.7338 150.513 46.7338C150.626 46.7901 150.739 46.7338 150.795 46.565Z" fill="#1D4A5E"/>
<path d="M148.485 42.6247C149.161 45.8895 149.668 49.2106 150.006 52.5317C150.401 55.8529 150.626 59.174 150.795 62.5514C150.964 65.8725 151.02 69.2499 150.964 72.571C150.964 75.8922 150.851 79.2696 150.739 82.5907C150.626 85.9681 150.457 89.2892 150.344 92.6666C150.344 93.0607 150.288 93.511 150.288 93.905C150.288 94.1865 150.739 94.1865 150.795 93.905C150.964 90.5276 151.077 87.2065 151.246 83.8291C151.358 80.4517 151.471 77.0742 151.471 73.7531C151.471 70.3757 151.471 67.0546 151.358 63.6772C151.246 60.2998 151.02 56.9787 150.682 53.6012C150.344 50.2801 149.837 46.959 149.217 43.6942C149.161 43.3001 149.048 42.9061 148.992 42.4558C148.879 42.1743 148.429 42.3432 148.485 42.6247Z" fill="#1D4A5E"/>
<path d="M146.175 57.0912C146.175 57.0349 146.175 56.9786 146.119 56.9786V56.9224V56.8661C146.119 56.8661 146.119 56.8661 146.119 56.8098C146.119 56.7535 146.119 56.6972 146.175 56.6972C146.175 56.6972 146.175 56.6972 146.175 56.6409C146.175 56.6409 146.175 56.5846 146.232 56.5846C146.232 56.5283 146.288 56.5283 146.288 56.472L146.344 56.4157C146.401 56.3595 146.401 56.3595 146.457 56.3032C146.457 56.3032 146.513 56.3032 146.513 56.2469C146.513 56.2469 146.57 56.2469 146.57 56.1906C146.57 56.1906 146.626 56.1343 146.626 56.1906C146.682 56.1906 146.682 56.1343 146.739 56.1343H146.795C146.739 56.1343 146.795 56.1343 146.851 56.1343H146.908C146.964 56.1343 147.02 56.1343 147.02 56.1906C147.02 56.1906 147.02 56.1906 147.077 56.1906H147.133C147.133 56.1906 147.189 56.1906 147.189 56.2469C147.246 56.2469 147.246 56.3032 147.302 56.3032L147.358 56.3595C147.415 56.4157 147.471 56.5283 147.471 56.5846C147.471 56.5283 147.471 56.5846 147.471 56.6409V56.6972C147.471 56.7535 147.471 56.8098 147.527 56.8098V56.8661V56.9224V56.9786C147.527 56.9224 147.527 57.0349 147.527 57.0349V57.0912V57.1475C147.527 57.1475 147.527 57.1475 147.527 57.2038C147.527 57.2601 147.471 57.2601 147.471 57.3164L147.415 57.3727C147.415 57.3727 147.358 57.3727 147.358 57.429C147.302 57.429 147.302 57.4853 147.246 57.4853H147.189C147.133 57.4853 147.133 57.4853 147.077 57.5416C147.077 57.5416 147.077 57.5416 147.02 57.5416C146.964 57.5416 147.077 57.5416 147.02 57.5416H146.964C146.908 57.5416 146.851 57.5416 146.795 57.5416C146.795 57.5416 146.795 57.5416 146.739 57.5416C146.682 57.5416 146.795 57.5416 146.739 57.5416H146.682C146.626 57.5416 146.57 57.5416 146.57 57.4853C146.57 57.4853 146.513 57.4853 146.513 57.429C146.513 57.429 146.457 57.429 146.457 57.3727C146.401 57.3164 146.401 57.3164 146.344 57.2601L146.288 57.2038C146.232 57.0912 146.063 57.0349 145.95 57.0912C145.837 57.1475 145.781 57.3164 145.837 57.429C146.344 58.2733 147.753 58.1607 148.035 57.2038C148.147 56.7535 148.035 56.2469 147.696 55.9091C147.358 55.5714 146.795 55.4588 146.344 55.7403C145.837 56.0217 145.556 56.6409 145.725 57.2038C145.781 57.3164 145.894 57.429 146.006 57.3727C146.119 57.3727 146.232 57.2038 146.175 57.0912Z" fill="#1D4A5E"/>
<path d="M164.147 63.0017C163.133 63.6209 162.288 64.5215 161.612 65.4785C161.443 65.7599 161.274 66.0414 161.105 66.3228C161.048 66.4354 161.048 66.6043 161.217 66.6606C161.33 66.7168 161.499 66.7168 161.555 66.548C162.062 65.5347 162.739 64.6341 163.64 63.9023C163.865 63.6772 164.147 63.5083 164.429 63.3394C164.541 63.2831 164.598 63.1143 164.541 63.0017C164.429 62.9454 164.26 62.8891 164.147 63.0017Z" fill="#1D4A5E"/>
</g>
</g>
<defs>
<linearGradient id="paint0_linear_2104_41233" x1="108.179" y1="16.7428" x2="108.179" y2="33.6544" gradientUnits="userSpaceOnUse">
<stop offset="0.00140056" stop-color="white"/>
<stop offset="1" stop-color="white" stop-opacity="0"/>
</linearGradient>
<clipPath id="clip0_2104_41233">
<rect width="311" height="68" fill="white" transform="translate(0.25)"/>
</clipPath>
<clipPath id="clip1_2104_41233">
<rect width="111.171" height="184.645" fill="white" transform="translate(122.28 1.35483)"/>
</clipPath>
<clipPath id="clip2_2104_41233">
<rect width="137.802" height="185.516" fill="white" transform="translate(72.8237 -3)"/>
</clipPath>
</defs>
</svg>
