<svg width="312" height="68" viewBox="0 0 312 68" fill="none" xmlns="http://www.w3.org/2000/svg">
<path d="M0.5 5C0.5 2.23858 2.73858 0 5.5 0H306.5C309.261 0 311.5 2.23858 311.5 5V63C311.5 65.7614 309.261 68 306.5 68H5.5C2.73857 68 0.5 65.7614 0.5 63V5Z" fill="#F4F4FF"/>
<g clip-path="url(#clip0_2002_39802)">
<path d="M187.506 68.0011H217.024V56.5588H187.506V68.0011Z" fill="#193D6D"/>
<path d="M188.751 60.2158C188.596 60.2158 188.475 60.0921 188.475 59.9419V58.6916C188.475 58.3735 188.601 58.0774 188.824 57.8565C189.047 57.6356 189.352 57.5119 189.667 57.5119H195.566C195.721 57.5119 195.843 57.6356 195.843 57.7859C195.843 57.9361 195.717 58.0598 195.566 58.0598H189.667C189.497 58.0598 189.333 58.126 189.216 58.2453C189.095 58.3646 189.027 58.5281 189.027 58.6916V59.9419C189.027 60.0921 188.901 60.2158 188.751 60.2158Z" fill="white"/>
<path d="M188.751 63.4852C188.596 63.4852 188.475 63.3615 188.475 63.2113V61.6163C188.475 61.4661 188.601 61.3424 188.751 61.3424C188.906 61.3424 189.027 61.4661 189.027 61.6163V63.2113C189.027 63.3615 188.901 63.4852 188.751 63.4852Z" fill="white"/>
<path d="M203.151 63.1607C203.642 62.674 203.642 61.8849 203.151 61.3982C202.661 60.9116 201.866 60.9116 201.376 61.3982C200.885 61.8849 200.885 62.674 201.376 63.1607C201.866 63.6473 202.661 63.6473 203.151 63.1607Z" fill="#BF755A"/>
<path d="M202.264 65.0316C203.795 65.0316 205.037 63.7993 205.037 62.2793C205.037 60.7592 203.795 59.527 202.264 59.527C200.732 59.527 199.491 60.7592 199.491 62.2793C199.491 63.7993 200.732 65.0316 202.264 65.0316Z" fill="#DBB2A3" stroke="#935139" stroke-width="0.722499" stroke-miterlimit="1.1426" stroke-linecap="round" stroke-linejoin="round"/>
<path fill-rule="evenodd" clip-rule="evenodd" d="M201.019 61.9125C201.032 61.8751 201.067 61.8503 201.107 61.8503C201.146 61.8503 201.182 61.8751 201.194 61.9125C201.257 62.1032 201.336 62.3478 201.374 62.4618C201.387 62.4991 201.422 62.524 201.462 62.524C201.581 62.524 201.84 62.524 202.042 62.524C202.082 62.524 202.118 62.5489 202.13 62.5862C202.143 62.6235 202.128 62.665 202.097 62.6878C201.932 62.8059 201.723 62.9573 201.627 63.0278C201.595 63.0506 201.581 63.092 201.593 63.1293C201.631 63.2434 201.71 63.4859 201.773 63.6787C201.786 63.716 201.771 63.7575 201.74 63.7803C201.708 63.8031 201.664 63.8031 201.631 63.7803C201.466 63.6621 201.257 63.5108 201.161 63.4403C201.13 63.4175 201.086 63.4175 201.052 63.4403C200.956 63.5108 200.745 63.6621 200.583 63.7803C200.551 63.8031 200.507 63.8031 200.474 63.7803C200.443 63.7575 200.428 63.716 200.44 63.6787C200.503 63.4859 200.583 63.2434 200.62 63.1293C200.633 63.092 200.618 63.0506 200.587 63.0278C200.491 62.9573 200.28 62.8059 200.117 62.6878C200.085 62.665 200.071 62.6235 200.083 62.5862C200.096 62.5489 200.131 62.524 200.171 62.524C200.374 62.524 200.633 62.524 200.752 62.524C200.791 62.524 200.827 62.4991 200.839 62.4618C200.877 62.3499 200.956 62.1053 201.019 61.9125Z" fill="#BF755A"/>
<path fill-rule="evenodd" clip-rule="evenodd" d="M203.323 61.9125C203.336 61.8751 203.371 61.8503 203.411 61.8503C203.45 61.8503 203.486 61.8751 203.498 61.9125C203.561 62.1032 203.64 62.3478 203.678 62.4618C203.691 62.4991 203.726 62.524 203.766 62.524C203.885 62.524 204.144 62.524 204.346 62.524C204.386 62.524 204.422 62.5489 204.434 62.5862C204.447 62.6235 204.432 62.665 204.401 62.6878C204.236 62.8059 204.027 62.9573 203.931 63.0278C203.899 63.0506 203.885 63.092 203.897 63.1293C203.935 63.2434 204.014 63.4859 204.077 63.6787C204.089 63.716 204.075 63.7575 204.044 63.7803C204.012 63.8031 203.968 63.8031 203.935 63.7803C203.77 63.6621 203.561 63.5108 203.465 63.4403C203.434 63.4175 203.39 63.4175 203.356 63.4403C203.26 63.5108 203.049 63.6621 202.886 63.7803C202.855 63.8031 202.811 63.8031 202.778 63.7803C202.747 63.7575 202.732 63.716 202.744 63.6787C202.807 63.4859 202.886 63.2434 202.924 63.1293C202.937 63.092 202.922 63.0506 202.891 63.0278C202.795 62.9573 202.584 62.8059 202.421 62.6878C202.389 62.665 202.375 62.6235 202.387 62.5862C202.4 62.5489 202.435 62.524 202.475 62.524C202.678 62.524 202.937 62.524 203.056 62.524C203.095 62.524 203.131 62.4991 203.143 62.4618C203.181 62.3499 203.26 62.1053 203.323 61.9125Z" fill="#BF755A"/>
<path fill-rule="evenodd" clip-rule="evenodd" d="M202.177 60.26C202.19 60.2227 202.225 60.1978 202.265 60.1978C202.304 60.1978 202.34 60.2227 202.352 60.26C202.415 60.4528 202.494 60.6953 202.532 60.8094C202.545 60.8467 202.58 60.8715 202.62 60.8715C202.739 60.8715 202.998 60.8715 203.2 60.8715C203.24 60.8715 203.276 60.8964 203.288 60.9337C203.301 60.9711 203.286 61.0125 203.255 61.0353C203.09 61.1535 202.881 61.3048 202.785 61.3753C202.753 61.3981 202.739 61.4396 202.751 61.4769C202.789 61.5909 202.868 61.8334 202.931 62.0262C202.943 62.0636 202.929 62.105 202.898 62.1278C202.866 62.1506 202.822 62.1506 202.789 62.1278C202.624 62.0097 202.415 61.8583 202.319 61.7878C202.288 61.765 202.244 61.765 202.21 61.7878C202.114 61.8583 201.903 62.0097 201.74 62.1278C201.709 62.1506 201.665 62.1506 201.632 62.1278C201.601 62.105 201.586 62.0636 201.598 62.0262C201.661 61.8334 201.74 61.5909 201.778 61.4769C201.791 61.4396 201.776 61.3981 201.745 61.3753C201.649 61.3048 201.438 61.1535 201.275 61.0353C201.243 61.0125 201.229 60.9711 201.241 60.9337C201.254 60.8964 201.289 60.8715 201.329 60.8715C201.532 60.8715 201.791 60.8715 201.91 60.8715C201.949 60.8715 201.985 60.8467 201.997 60.8094C202.035 60.6974 202.114 60.4528 202.177 60.26Z" fill="#BF755A"/>
<path fill-rule="evenodd" clip-rule="evenodd" d="M218.191 55.8369C218.191 55.6449 218.115 55.4646 217.975 55.325C217.841 55.1913 217.655 55.1157 217.463 55.1157C212.822 55.1157 187.5 55.1157 187.5 55.1157V56.5581H217.463C217.655 56.5581 217.841 56.4825 217.975 56.3487C218.115 56.2149 218.191 56.0288 218.191 55.8369Z" fill="#0A2445"/>
<path fill-rule="evenodd" clip-rule="evenodd" d="M193.885 54.1738C193.938 52.6187 198.955 52.2951 202.721 49.7838C206.511 52.609 211.503 52.6235 211.557 54.1738V55.1155H193.88L193.885 54.1738Z" fill="#BF755A"/>
<path d="M210.23 54.3611H195.21C195.129 54.3611 195.062 54.2983 195.062 54.2162C195.062 54.1341 195.129 54.0713 195.21 54.0713H210.23C210.312 54.0713 210.378 54.1341 210.378 54.2162C210.378 54.2983 210.312 54.3611 210.23 54.3611Z" fill="#935139"/>
<path fill-rule="evenodd" clip-rule="evenodd" d="M200.44 44.9601C200.44 44.9601 200.946 45.7087 201.364 47.0368C201.501 47.4714 201.642 47.9302 201.637 48.4228C201.632 48.9203 201.476 49.3694 201.335 49.8089C200.912 51.1225 200.44 51.8856 200.44 51.8856C200.44 53.1364 205.004 53.1364 205.004 51.8856C205.004 51.8856 204.527 51.1177 204.109 49.8089C203.968 49.3742 203.812 48.9203 203.807 48.4228C203.802 47.9302 203.943 47.4714 204.079 47.0368C204.498 45.7087 205.004 44.9601 205.004 44.9601C205.004 43.7092 203.982 42.6951 202.722 42.6951C201.462 42.6951 200.44 43.7092 200.44 44.9601Z" fill="#935139"/>
<path d="M209.499 40.5232C209.12 40.5232 208.8 40.2319 208.768 39.8507C208.736 39.4483 209.04 39.0988 209.445 39.0723C212.7 38.8288 214.716 37.1396 214.839 34.5557C214.876 33.7244 214.673 33.1048 214.209 32.6654C213.201 31.7123 211.297 31.8817 211.275 31.887C210.875 31.9241 210.512 31.6328 210.475 31.2357C210.432 30.8386 210.726 30.4785 211.131 30.4415C211.238 30.4309 213.713 30.1979 215.218 31.6064C216.002 32.3424 216.364 33.359 216.306 34.6245C216.231 36.2289 215.58 37.6215 214.423 38.6646C213.238 39.7289 211.558 40.3749 209.557 40.5232C209.536 40.5232 209.515 40.5232 209.499 40.5232Z" fill="#935139"/>
<path d="M195.028 40.5232C195.012 40.5232 194.99 40.5232 194.969 40.5232C192.968 40.3749 191.288 39.7289 190.104 38.6646C188.951 37.6268 188.301 36.2289 188.22 34.6245C188.162 33.359 188.525 32.3424 189.309 31.6064C190.808 30.1926 193.288 30.4309 193.395 30.4415C193.795 30.4838 194.089 30.8386 194.051 31.241C194.009 31.6381 193.651 31.9293 193.251 31.8923C193.219 31.887 191.325 31.7228 190.317 32.6707C189.853 33.1101 189.65 33.7244 189.688 34.561C189.81 37.1449 191.827 38.834 195.081 39.0776C195.486 39.1094 195.785 39.4589 195.758 39.856C195.732 40.2372 195.412 40.5232 195.028 40.5232Z" fill="#935139"/>
<path fill-rule="evenodd" clip-rule="evenodd" d="M193.071 32.1076V28.571C193.071 28.0675 193.48 27.6614 193.988 27.6614C197.224 27.6614 208.097 27.6614 211.333 27.6614C211.574 27.6614 211.807 27.7589 211.979 27.9294C212.151 28.0999 212.249 28.3314 212.249 28.571C212.249 29.8825 212.249 32.1523 212.249 32.1523C212.233 39.8712 207.942 46.1325 202.66 46.1325C197.367 46.1325 193.071 39.8509 193.071 32.1076Z" fill="#BF755A"/>
<path fill-rule="evenodd" clip-rule="evenodd" d="M212.891 28.7101C212.891 28.4319 212.782 28.1666 212.581 27.9692C212.384 27.7719 212.114 27.6619 211.834 27.6619C208.315 27.6619 196.998 27.6619 193.479 27.6619C193.199 27.6619 192.929 27.7719 192.732 27.9692C192.536 28.1666 192.422 28.4319 192.422 28.7101C192.422 28.9883 192.531 29.2536 192.732 29.451C192.929 29.6483 193.199 29.7583 193.479 29.7583C196.998 29.7583 208.315 29.7583 211.834 29.7583C212.114 29.7583 212.384 29.6483 212.581 29.451C212.782 29.2536 212.891 28.9883 212.891 28.7101Z" fill="#DBB2A3"/>
<path d="M211.298 28.9727H194.124C193.977 28.9727 193.862 28.855 193.862 28.7129C193.862 28.5667 193.982 28.453 194.124 28.453H211.293C211.44 28.453 211.555 28.5708 211.555 28.7129C211.56 28.855 211.444 28.9727 211.298 28.9727Z" fill="#935139"/>
<path d="M205.728 37.3811C205.996 35.6986 204.839 34.1192 203.144 33.8535C201.449 33.5878 199.857 34.7363 199.589 36.4188C199.321 38.1013 200.478 39.6806 202.173 39.9463C203.868 40.2121 205.459 39.0635 205.728 37.3811Z" fill="#DBB2A3"/>
<path d="M202.659 42.5715C199.51 42.5715 196.946 40.0263 196.946 36.9005C196.946 33.7747 199.51 31.2294 202.659 31.2294C205.808 31.2294 208.373 33.7747 208.373 36.9005C208.373 40.0263 205.813 42.5715 202.659 42.5715ZM202.659 31.4818C199.65 31.4818 197.2 33.9135 197.2 36.9005C197.2 39.8874 199.65 42.3191 202.659 42.3191C205.668 42.3191 208.118 39.8874 208.118 36.9005C208.118 33.9093 205.668 31.4818 202.659 31.4818Z" fill="#935139"/>
<path d="M202.418 36.2953C202.681 36.2953 202.944 36.2953 202.944 36.0339C203.208 35.7726 203.208 35.7726 203.208 35.5112C203.208 35.2499 203.208 35.2499 202.944 34.9885C202.944 34.7272 202.681 34.7272 202.681 34.7272C202.418 34.7272 202.418 34.7272 202.154 34.7272C202.154 34.7272 201.891 34.7272 201.891 34.9885C201.891 34.9885 201.891 35.2499 201.628 35.2499C201.628 35.2499 201.628 35.5112 201.364 35.5112C201.364 35.5112 201.364 35.5112 201.101 35.7726H200.838C200.838 35.7726 200.575 35.7726 200.575 35.5112V35.2499C200.575 35.2499 200.575 34.9885 200.575 34.7272C200.575 34.4659 200.838 34.4659 200.838 34.2045C201.364 34.2045 201.628 34.2045 201.891 33.9432C202.154 33.9432 202.418 33.9432 202.681 33.9432C202.944 33.9432 203.208 33.9432 203.471 33.9432C203.734 33.9432 203.997 34.2045 203.997 34.2045C204.261 34.4659 204.261 34.4659 204.261 34.7272C204.261 34.9885 204.261 34.9885 204.261 35.2499C204.261 35.5112 204.261 35.7726 203.997 36.0339C203.997 36.2953 203.734 36.2953 203.471 36.5566C203.734 36.5566 203.734 36.8179 203.997 36.8179C204.261 37.0793 204.261 37.0793 204.261 37.3406C204.261 37.602 204.261 37.602 204.261 37.8633C204.261 38.1246 204.261 38.386 203.997 38.6473C203.997 38.9087 203.734 39.17 203.471 39.17C203.208 39.4314 202.944 39.4314 202.681 39.6927C202.418 39.6927 202.154 39.954 201.891 39.954C201.628 39.954 201.364 39.954 201.101 39.6927C200.838 39.6927 200.575 39.4314 200.575 39.17C200.311 38.9087 200.311 38.9087 200.311 38.6473C200.311 38.386 200.311 38.386 200.311 38.1246C200.311 37.8633 200.311 37.8633 200.575 37.8633L200.838 37.602H201.101C201.101 37.602 201.101 37.602 201.364 37.8633C201.628 38.1246 201.628 38.386 201.891 38.6473C202.154 38.9087 202.154 38.9087 202.681 38.9087C202.944 38.9087 202.944 38.9087 203.208 38.9087C203.471 38.9087 203.471 38.6473 203.471 38.6473C203.471 38.386 203.734 38.386 203.734 38.1246C203.734 37.8633 203.734 37.602 203.471 37.3406C203.208 37.0793 202.944 37.0793 202.681 37.0793H202.418H202.154C201.891 37.0793 201.891 37.0793 201.891 37.0793V36.8179C201.891 36.8179 201.891 36.5566 202.154 36.5566C201.891 36.2953 202.154 36.2953 202.418 36.2953Z" fill="#BF3D32"/>
<path d="M196.037 39.3303C195.89 39.3303 195.747 39.2451 195.686 39.0989C194.012 35.1927 194.188 31.4896 194.196 31.3353C194.209 31.1241 194.389 30.9658 194.601 30.9739C194.814 30.9861 194.974 31.1647 194.966 31.3718C194.966 31.4084 194.794 35.0587 196.397 38.7984C196.479 38.9933 196.389 39.2167 196.193 39.2979C196.14 39.3182 196.086 39.3303 196.037 39.3303Z" fill="#DBB2A3"/>
<path d="M197.76 42.3392C197.641 42.3392 197.526 42.2864 197.453 42.1849C197.052 41.6489 196.684 41.0723 196.352 40.4673C196.25 40.2805 196.32 40.0531 196.508 39.9516C196.692 39.8501 196.925 39.9191 197.027 40.1059C197.342 40.6784 197.69 41.2266 198.071 41.7301C198.197 41.9006 198.161 42.1361 197.993 42.262C197.919 42.3148 197.841 42.3392 197.76 42.3392Z" fill="#DBB2A3"/>
<path d="M122.183 53.4931H92.6658V68.001H122.183V53.4931Z" fill="#193D6D"/>
<path d="M94.581 58.1933C94.4259 58.1933 94.3047 58.0696 94.3047 57.9194V56.0284C94.3047 55.7103 94.4307 55.4143 94.6537 55.1934C94.8767 54.9725 95.1821 54.8488 95.4972 54.8488H101.396C101.552 54.8488 101.673 54.9725 101.673 55.1227C101.673 55.2729 101.547 55.3966 101.396 55.3966H95.4972C95.3275 55.3966 95.1627 55.4629 95.0463 55.5822C94.9252 55.7015 94.8573 55.8649 94.8573 56.0284V57.9194C94.8573 58.0696 94.7361 58.1933 94.581 58.1933Z" fill="white"/>
<path d="M94.581 61.5952C94.4259 61.5952 94.3047 61.4715 94.3047 61.3213V59.7264C94.3047 59.5761 94.4307 59.4524 94.581 59.4524C94.7313 59.4524 94.8573 59.5761 94.8573 59.7264V61.3213C94.8573 61.4715 94.7361 61.5952 94.581 61.5952Z" fill="white"/>
<path d="M109.338 62.6484C110.395 61.5989 110.395 59.8974 109.338 58.8479C108.28 57.7985 106.566 57.7985 105.509 58.8479C104.451 59.8974 104.451 61.5989 105.509 62.6484C106.566 63.6979 108.28 63.6979 109.338 62.6484Z" fill="#AAB9CC"/>
<path d="M107.424 64.791C109.674 64.791 111.498 62.9806 111.498 60.7473C111.498 58.514 109.674 56.7036 107.424 56.7036C105.174 56.7036 103.35 58.514 103.35 60.7473C103.35 62.9806 105.174 64.791 107.424 64.791Z" fill="#CFD8E2" stroke="#8096B3" stroke-width="1.55959" stroke-miterlimit="1.6787" stroke-linecap="round" stroke-linejoin="round"/>
<path fill-rule="evenodd" clip-rule="evenodd" d="M105.451 59.1114C105.464 59.0743 105.498 59.0473 105.539 59.0473C105.58 59.0473 105.614 59.0743 105.627 59.1114C105.74 59.4521 105.926 60.0221 105.988 60.211C106.001 60.2481 106.035 60.2751 106.076 60.2751C106.276 60.2751 106.878 60.2751 107.242 60.2751C107.282 60.2751 107.316 60.3021 107.33 60.3392C107.344 60.3763 107.33 60.4168 107.296 60.4404C107.004 60.6529 106.514 61.0037 106.355 61.1184C106.324 61.142 106.31 61.1825 106.321 61.2196C106.382 61.4085 106.569 61.9786 106.681 62.3193C106.694 62.3564 106.681 62.3969 106.647 62.4205C106.616 62.4441 106.572 62.4441 106.538 62.4205C106.246 62.208 105.757 61.8572 105.597 61.7425C105.566 61.7189 105.522 61.7189 105.488 61.7425C105.325 61.8605 104.839 62.2113 104.547 62.4205C104.516 62.4441 104.472 62.4441 104.438 62.4205C104.407 62.3969 104.394 62.3564 104.404 62.3193C104.516 61.9786 104.703 61.4085 104.764 61.2196C104.778 61.1825 104.764 61.142 104.73 61.1184C104.567 61.0004 104.081 60.6496 103.789 60.4404C103.758 60.4168 103.745 60.3763 103.755 60.3392C103.768 60.3021 103.802 60.2751 103.843 60.2751C104.203 60.2751 104.808 60.2751 105.009 60.2751C105.05 60.2751 105.084 60.2481 105.097 60.211C105.155 60.0221 105.342 59.4521 105.451 59.1114Z" fill="#8096B3"/>
<path fill-rule="evenodd" clip-rule="evenodd" d="M109.203 59.1114C109.216 59.0743 109.25 59.0473 109.291 59.0473C109.332 59.0473 109.366 59.0743 109.38 59.1114C109.492 59.4521 109.679 60.0221 109.74 60.211C109.753 60.2481 109.787 60.2751 109.828 60.2751C110.029 60.2751 110.63 60.2751 110.994 60.2751C111.035 60.2751 111.069 60.3021 111.082 60.3392C111.096 60.3763 111.082 60.4168 111.048 60.4404C110.756 60.6529 110.267 61.0037 110.107 61.1184C110.076 61.142 110.063 61.1825 110.073 61.2196C110.134 61.4085 110.321 61.9786 110.433 62.3193C110.447 62.3564 110.433 62.3969 110.399 62.4205C110.369 62.4441 110.324 62.4441 110.29 62.4205C109.998 62.208 109.509 61.8572 109.349 61.7425C109.318 61.7189 109.274 61.7189 109.24 61.7425C109.077 61.8605 108.591 62.2113 108.299 62.4205C108.268 62.4441 108.224 62.4441 108.19 62.4205C108.16 62.3969 108.146 62.3564 108.156 62.3193C108.268 61.9786 108.455 61.4085 108.516 61.2196C108.53 61.1825 108.516 61.142 108.482 61.1184C108.319 61.0004 107.833 60.6496 107.541 60.4404C107.51 60.4168 107.497 60.3763 107.507 60.3392C107.521 60.3021 107.555 60.2751 107.595 60.2751C107.956 60.2751 108.561 60.2751 108.761 60.2751C108.802 60.2751 108.836 60.2481 108.849 60.211C108.904 60.0221 109.091 59.4521 109.203 59.1114Z" fill="#8096B3"/>
<path fill-rule="evenodd" clip-rule="evenodd" d="M91.4999 52.7734C91.4999 52.5814 91.5756 52.4011 91.7096 52.2615C91.8435 52.1278 92.0298 52.0522 92.2219 52.0522C96.8625 52.0522 122.185 52.0522 122.185 52.0522V53.4946H92.2219C92.0298 53.4946 91.8435 53.419 91.7096 53.2852C91.5756 53.1456 91.4999 52.9653 91.4999 52.7734Z" fill="#0A2445"/>
<path fill-rule="evenodd" clip-rule="evenodd" d="M99.0398 51.1109C99.0933 49.5558 104.11 49.2323 107.876 46.7209C111.666 49.5462 116.658 49.5607 116.712 51.1109V52.0527H99.0398V51.1109Z" fill="#AAB9CC"/>
<path d="M115.391 51.2934H100.367C100.286 51.2934 100.22 51.2307 100.22 51.1486C100.22 51.0665 100.286 51.0037 100.367 51.0037H115.388C115.469 51.0037 115.535 51.0665 115.535 51.1486C115.535 51.2307 115.473 51.2934 115.391 51.2934Z" fill="#8096B3"/>
<path fill-rule="evenodd" clip-rule="evenodd" d="M105.6 41.8924C105.6 41.8924 106.106 42.641 106.524 43.9691C106.661 44.4037 106.802 44.8626 106.797 45.3552C106.792 45.8526 106.636 46.3017 106.495 46.7412C106.072 48.0548 105.6 48.8179 105.6 48.8179C105.6 50.0687 110.159 50.0687 110.159 48.8179C110.159 48.8179 109.682 48.05 109.264 46.7412C109.123 46.3066 108.967 45.8526 108.962 45.3552C108.957 44.8626 109.098 44.4037 109.234 43.9691C109.653 42.641 110.159 41.8924 110.159 41.8924C110.159 40.6416 109.137 39.6274 107.877 39.6274C106.622 39.6274 105.6 40.6416 105.6 41.8924Z" fill="#8096B3"/>
<path d="M114.657 37.4609C114.278 37.4609 113.958 37.1697 113.926 36.7884C113.894 36.386 114.198 36.0365 114.603 36.0101C117.858 35.7665 119.874 34.0774 119.997 31.4934C120.034 30.6568 119.831 30.0373 119.362 29.6031C118.359 28.6606 116.455 28.8247 116.433 28.8247C116.033 28.8671 115.67 28.5759 115.628 28.1734C115.585 27.7763 115.878 27.4162 116.284 27.3739C116.391 27.3633 118.866 27.1303 120.37 28.5388C121.154 29.2748 121.522 30.2914 121.458 31.557C121.384 33.1613 120.733 34.5539 119.575 35.597C118.391 36.6613 116.711 37.3073 114.71 37.4556C114.694 37.4609 114.678 37.4609 114.657 37.4609Z" fill="#8096B3"/>
<path d="M100.191 37.4609C100.175 37.4609 100.153 37.4609 100.132 37.4609C98.1317 37.3126 96.4512 36.6667 95.267 35.6024C94.1147 34.5645 93.4638 33.1666 93.3838 31.5623C93.3251 30.2967 93.6879 29.2801 94.4721 28.5441C95.9711 27.1303 98.4517 27.3686 98.5584 27.3792C98.9585 27.4216 99.2519 27.7763 99.2146 28.1787C99.1719 28.5759 98.8145 28.8671 98.4144 28.83C98.3931 28.83 96.4886 28.6553 95.4803 29.6084C95.0162 30.0479 94.8135 30.6621 94.8509 31.4987C94.9735 34.0827 96.99 35.7718 100.244 36.0154C100.65 36.0471 100.948 36.3966 100.922 36.7937C100.89 37.1697 100.57 37.4609 100.191 37.4609Z" fill="#8096B3"/>
<path fill-rule="evenodd" clip-rule="evenodd" d="M98.2322 29.0433V25.5066C98.2322 25.0031 98.6413 24.5971 99.1485 24.5971C102.384 24.5971 113.258 24.5971 116.494 24.5971C116.735 24.5971 116.968 24.6945 117.14 24.8651C117.312 25.0356 117.41 25.2671 117.41 25.5066C117.41 26.8182 117.41 29.088 117.41 29.088C117.39 36.8069 113.098 43.0682 107.817 43.0682C102.528 43.0682 98.2322 36.7825 98.2322 29.0433Z" fill="#AAB9CC"/>
<path fill-rule="evenodd" clip-rule="evenodd" d="M118.053 25.6453C118.053 25.367 117.944 25.1017 117.743 24.9044C117.547 24.707 117.276 24.597 116.997 24.597C113.477 24.597 102.16 24.597 98.6411 24.597C98.3617 24.597 98.0909 24.707 97.8945 24.9044C97.698 25.1017 97.5845 25.367 97.5845 25.6453C97.5845 25.9235 97.6936 26.1888 97.8945 26.3861C98.0909 26.5835 98.3617 26.6935 98.6411 26.6935C102.16 26.6935 113.477 26.6935 116.997 26.6935C117.276 26.6935 117.547 26.5835 117.743 26.3861C117.94 26.1888 118.053 25.9203 118.053 25.6453Z" fill="#CFD8E2"/>
<path d="M116.456 25.9044H99.286C99.1394 25.9044 99.0239 25.7866 99.0239 25.6445C99.0239 25.4983 99.1439 25.3846 99.286 25.3846H116.456C116.602 25.3846 116.718 25.5024 116.718 25.6445C116.722 25.7866 116.602 25.9044 116.456 25.9044Z" fill="#8096B3"/>
<path d="M107.818 38.6958C110.524 38.6958 112.717 36.5187 112.717 33.8331C112.717 31.1474 110.524 28.9703 107.818 28.9703C105.112 28.9703 102.919 31.1474 102.919 33.8331C102.919 36.5187 105.112 38.6958 107.818 38.6958Z" fill="#CFD8E2"/>
<path d="M107.82 39.5035C104.671 39.5035 102.106 36.9583 102.106 33.8325C102.106 30.7067 104.671 28.1614 107.82 28.1614C110.969 28.1614 113.533 30.7067 113.533 33.8325C113.533 36.9583 110.969 39.5035 107.82 39.5035ZM107.82 28.4138C104.811 28.4138 102.361 30.8455 102.361 33.8325C102.361 36.8194 104.811 39.2511 107.82 39.2511C110.829 39.2511 113.279 36.8194 113.279 33.8325C113.279 30.8455 110.829 28.4138 107.82 28.4138Z" fill="#8096B3"/>
<path d="M107.203 35.8069H109.342C109.609 35.8069 109.609 35.8069 109.877 35.8069L110.144 36.0723C110.144 36.0723 110.144 36.3377 109.877 36.3377L109.609 36.6031H106.4C106.133 36.6031 106.133 36.6031 105.866 36.3377C105.866 36.3377 105.598 36.0723 105.598 35.8069V35.5414C105.598 35.276 105.866 35.276 105.866 35.276C106.4 35.0106 106.668 34.7452 106.935 34.4798C107.203 34.2144 107.47 33.9489 107.47 33.9489C108.005 33.9489 108.005 33.6835 108.272 33.4181L108.54 33.1527C108.54 32.8873 108.54 32.8873 108.54 32.6219C108.54 32.3564 108.54 32.3564 108.54 32.091C108.54 31.8256 108.272 31.8256 108.272 31.8256C108.005 31.8256 108.005 31.8256 107.737 31.8256C107.47 31.8256 107.203 32.091 106.935 32.3564V32.6219C106.668 32.6219 106.668 32.8873 106.668 32.8873L106.4 33.1527C106.133 33.1527 106.133 33.1527 106.133 33.1527V32.8873C106.133 32.6219 106.133 32.6219 106.133 32.3564C106.133 32.091 106.4 32.091 106.4 31.8256C106.4 31.2948 106.668 31.0294 106.935 31.0294C107.203 31.0294 107.47 30.7639 107.737 30.7639C108.272 30.7639 108.54 30.7639 108.807 31.0294C109.074 31.0294 109.342 31.2948 109.342 31.2948C109.609 31.5602 109.609 31.5602 109.609 31.8256C109.609 32.091 109.609 32.3564 109.609 32.3564C109.609 32.6219 109.609 32.8873 109.342 33.1527C109.342 33.6835 109.342 33.9489 109.074 34.2144C108.807 34.2144 108.54 34.4798 108.272 34.7452C107.737 35.276 107.47 35.5414 107.203 35.8069Z" fill="#BF3E33"/>
<path d="M101.198 36.2619C101.051 36.2619 100.908 36.1767 100.846 36.0305C99.1733 32.1243 99.3492 28.4212 99.3574 28.2669C99.3697 28.0557 99.5497 27.8974 99.7624 27.9055C99.9751 27.9177 100.135 28.0963 100.126 28.3034C100.126 28.34 99.9547 31.9903 101.558 35.73C101.64 35.9249 101.55 36.1483 101.354 36.2295C101.296 36.2538 101.247 36.2619 101.198 36.2619Z" fill="#CFD8E2"/>
<path d="M102.92 39.2708C102.802 39.2708 102.687 39.218 102.614 39.1165C102.213 38.5805 101.845 38.0039 101.513 37.3989C101.411 37.2162 101.481 36.9847 101.669 36.8832C101.853 36.7817 102.086 36.8507 102.188 37.0375C102.503 37.61 102.851 38.1582 103.231 38.6617C103.358 38.8322 103.321 39.0677 103.154 39.1936C103.08 39.2464 102.998 39.2708 102.92 39.2708Z" fill="#CFD8E2"/>
<path d="M172.657 44.7153H138.107V68H172.657V44.7153Z" fill="#0A2445"/>
<path d="M140.387 50.4535C140.232 50.4535 140.11 50.3298 140.11 50.1796V47.3609C140.11 46.707 140.644 46.1768 141.303 46.1768H149.422C149.577 46.1768 149.699 46.3005 149.699 46.4508C149.699 46.601 149.573 46.7247 149.422 46.7247H141.303C140.949 46.7247 140.663 47.0074 140.663 47.3565V50.1752C140.663 50.3298 140.537 50.4535 140.387 50.4535Z" fill="white"/>
<path d="M140.387 54.4254C140.232 54.4254 140.11 54.3017 140.11 54.1515V51.8806C140.11 51.7304 140.236 51.6067 140.387 51.6067C140.542 51.6067 140.663 51.7304 140.663 51.8806V54.1515C140.663 54.3017 140.537 54.4254 140.387 54.4254Z" fill="white"/>
<path d="M160.399 61.1364C163.17 58.3861 163.17 53.9269 160.399 51.1765C157.628 48.4262 153.135 48.4262 150.364 51.1765C147.593 53.9269 147.593 58.3861 150.364 61.1364C153.135 63.8868 157.628 63.8868 160.399 61.1364Z" fill="#FBCB22"/>
<path d="M155.384 62.7017C159.025 62.7017 161.977 59.772 161.977 56.1581C161.977 52.5441 159.025 49.6144 155.384 49.6144C151.743 49.6144 148.791 52.5441 148.791 56.1581C148.791 59.772 151.743 62.7017 155.384 62.7017Z" fill="#FEEDB4" stroke="#ECA400" stroke-width="4.08404" stroke-miterlimit="2.7166" stroke-linecap="round" stroke-linejoin="round"/>
<path fill-rule="evenodd" clip-rule="evenodd" d="M155.209 52.2482C155.233 52.1769 155.305 52.1214 155.385 52.1214C155.465 52.1214 155.537 52.1689 155.561 52.2482C155.824 53.0488 156.303 54.5153 156.447 54.9513C156.471 55.0226 156.543 55.0781 156.623 55.0781C157.086 55.0781 158.635 55.0781 159.482 55.0781C159.562 55.0781 159.634 55.1256 159.658 55.2049C159.681 55.2763 159.658 55.3634 159.594 55.411C158.907 55.9025 157.653 56.8061 157.278 57.0756C157.214 57.1232 157.19 57.2025 157.214 57.2817C157.358 57.7177 157.837 59.1842 158.1 59.9769C158.124 60.0482 158.1 60.1354 158.036 60.183C157.972 60.2305 157.885 60.2305 157.821 60.183C157.134 59.6915 155.88 58.7878 155.505 58.5183C155.441 58.4708 155.353 58.4708 155.289 58.5183C154.914 58.7878 153.66 59.6915 152.973 60.183C152.909 60.2305 152.821 60.2305 152.757 60.183C152.694 60.1354 152.67 60.0561 152.694 59.9769C152.957 59.1762 153.436 57.7098 153.58 57.2817C153.604 57.2104 153.58 57.1232 153.516 57.0756C153.141 56.8061 151.887 55.9025 151.2 55.411C151.136 55.3634 151.112 55.2842 151.136 55.2049C151.16 55.1336 151.232 55.0781 151.312 55.0781C152.159 55.0781 153.708 55.0781 154.171 55.0781C154.251 55.0781 154.323 55.0305 154.347 54.9513C154.467 54.5074 154.946 53.0488 155.209 52.2482Z" fill="#FBCB22"/>
<path fill-rule="evenodd" clip-rule="evenodd" d="M137.102 43.998C137.102 43.6025 137.424 43.2768 137.829 43.2768C142.521 43.2768 168.541 43.2768 173.233 43.2768C173.632 43.2768 173.96 43.5967 173.96 43.998C173.96 44.3935 173.639 44.7192 173.233 44.7192C168.541 44.7192 142.521 44.7192 137.829 44.7192C137.424 44.7192 137.102 44.3935 137.102 43.998Z" fill="#193D6D"/>
<path fill-rule="evenodd" clip-rule="evenodd" d="M144.96 42.1398C145.024 40.267 151.065 39.8773 155.601 36.8529C160.166 40.2554 166.178 40.2728 166.242 42.1398V43.2739H144.96V42.1398Z" fill="#FBCB22"/>
<path d="M164.646 42.3363H146.557C146.478 42.3363 146.412 42.2723 146.412 42.1909C146.412 42.1095 146.478 42.0455 146.557 42.0455H164.646C164.725 42.0455 164.791 42.1095 164.791 42.1909C164.791 42.2723 164.725 42.3363 164.646 42.3363Z" fill="#ECA400"/>
<path fill-rule="evenodd" clip-rule="evenodd" d="M152.854 31.0438C152.854 31.0438 153.464 31.9511 153.968 33.5448C154.132 34.0682 154.302 34.6207 154.296 35.214C154.29 35.8131 154.102 36.354 153.932 36.8832C153.423 38.4652 152.854 39.3842 152.854 39.3842C152.854 40.8905 158.351 40.8905 158.351 39.3842C158.351 39.3842 157.776 38.4594 157.272 36.8832C157.103 36.3598 156.915 35.8131 156.909 35.214C156.903 34.6207 157.073 34.0682 157.237 33.5448C157.741 31.9453 158.351 31.0438 158.351 31.0438C158.351 29.5374 157.12 28.3161 155.602 28.3161C154.085 28.3161 152.854 29.5374 152.854 31.0438Z" fill="#ECA400"/>
<path fill-rule="evenodd" clip-rule="evenodd" d="M144.908 19.5518C138.715 19.1259 136.056 17.2909 134.864 14.6198C133.678 11.954 133.619 8.08418 134.456 8.05789C134.933 8.0684 135.738 8.09469 136.146 8.05789C137.11 8.05263 136.321 8.77297 137.709 11.0917C139.738 14.4884 143.737 14.888 143.737 14.888V11.9856C143.737 11.9856 140.283 12.6428 138.795 9.88766C137.306 7.13774 138.228 5.97573 137.259 6.00202C135.913 6.03357 133.799 6.02305 132.708 6.00202C131.447 5.97573 131.924 11.4493 133.116 14.6934C134.303 17.9376 138.715 22.0967 144.903 22.6225C144.924 22.0546 144.908 20.1722 144.908 19.5518Z" fill="#ECA400"/>
<path fill-rule="evenodd" clip-rule="evenodd" d="M166.148 19.5517C172.34 19.1258 174.999 17.2908 176.191 14.6198C177.378 11.954 177.436 8.08412 176.599 8.05783C176.122 8.06834 175.317 8.09463 174.909 8.05783C173.945 8.05257 174.735 8.77291 173.347 11.0917C171.318 14.4883 167.318 14.8879 167.318 14.8879V11.9855C167.318 11.9855 170.772 12.6428 172.261 9.8876C173.749 7.13768 172.833 5.97567 173.797 6.00196C175.142 6.03351 177.256 6.02299 178.347 6.00196C179.608 5.97567 179.131 11.4492 177.939 14.6934C176.753 17.9375 172.34 22.0966 166.153 22.6224C166.132 22.0545 166.148 20.1722 166.148 19.5517Z" fill="#ECA400"/>
<path fill-rule="evenodd" clip-rule="evenodd" d="M141.795 12.3682V8.72732C141.795 8.00612 142.082 7.30819 142.598 6.80218C143.114 6.29036 143.811 6.00537 144.537 6.00537C149.799 6.00537 161.249 6.00537 166.511 6.00537C167.238 6.00537 167.941 6.29036 168.451 6.80218C168.966 7.314 169.254 8.00612 169.254 8.72732C169.254 10.4838 169.254 12.4322 169.254 12.4322C169.23 23.4887 163.083 32.4572 155.519 32.4572C147.948 32.4572 141.795 23.4538 141.795 12.3682Z" fill="#FBCB22"/>
<path fill-rule="evenodd" clip-rule="evenodd" d="M170.188 7.50066C170.188 6.67115 169.513 5.99921 168.675 5.99921C163.634 5.99921 147.423 5.99921 142.383 5.99921C141.551 5.99921 140.869 6.67115 140.869 7.50066C140.869 8.33016 141.545 9.00211 142.383 9.00211C147.423 9.00211 163.634 9.00211 168.675 9.00211C169.506 8.99747 170.188 8.33016 170.188 7.50066Z" fill="#FEEDB4"/>
<path d="M167.897 7.76158H143.304C143.157 7.76158 143.043 7.64526 143.043 7.49985C143.043 7.35445 143.164 7.23813 143.304 7.23813H167.897C168.043 7.23813 168.158 7.35445 168.158 7.49985C168.164 7.64526 168.043 7.76158 167.897 7.76158Z" fill="#FBCB22"/>
<path d="M160.041 23.7055C162.532 21.2331 162.532 17.2245 160.041 14.752C157.55 12.2796 153.511 12.2796 151.02 14.752C148.529 17.2245 148.529 21.2331 151.02 23.7055C153.511 26.1779 157.55 26.1779 160.041 23.7055Z" fill="#FEEDB4"/>
<path d="M155.526 27.3541C151.015 27.3541 147.342 23.7083 147.342 19.231C147.342 14.7536 151.015 11.1079 155.526 11.1079C160.043 11.1019 163.716 14.7476 163.716 19.231C163.716 23.7083 160.043 27.3541 155.526 27.3541ZM155.526 11.4694C151.215 11.4694 147.706 14.9525 147.706 19.231C147.706 23.5095 151.215 26.9925 155.526 26.9925C159.836 26.9925 163.346 23.5095 163.346 19.231C163.346 14.9465 159.843 11.4694 155.526 11.4694Z" fill="#ECA400"/>
<path d="M156.57 21.9719H157.707C158.018 21.9719 158.246 22.0417 158.404 22.1813C158.563 22.3209 158.639 22.5128 158.639 22.7454C158.639 23.2514 158.281 23.5074 157.566 23.5306H153.963C153.248 23.5132 152.89 23.2514 152.89 22.7454C152.89 22.5128 152.967 22.3267 153.125 22.1813C153.283 22.0417 153.517 21.9719 153.822 21.9719H154.988V17.383C154.01 18.1274 153.353 18.4997 153.013 18.4997C152.849 18.4997 152.709 18.4357 152.586 18.3077C152.463 18.1798 152.398 18.0286 152.398 17.8657C152.398 17.668 152.463 17.5284 152.586 17.4353C152.709 17.3423 152.926 17.2259 153.236 17.0805C153.705 16.8653 154.074 16.6327 154.355 16.3942C154.637 16.1558 154.883 15.8824 155.1 15.5858C155.316 15.2892 155.457 15.103 155.521 15.0332C155.586 14.9635 155.709 14.9286 155.891 14.9286C156.096 14.9286 156.26 15.0042 156.383 15.1612C156.506 15.3182 156.57 15.5334 156.57 15.8068V21.9719Z" fill="#BF3F34"/>
<path d="M146.044 22.7081C145.833 22.7081 145.628 22.5859 145.54 22.3766C143.143 16.7814 143.395 11.4771 143.407 11.2561C143.425 10.9537 143.682 10.7268 143.987 10.7385C144.292 10.7559 144.52 11.0118 144.509 11.3143C144.503 11.3782 144.268 16.6011 146.559 21.952C146.677 22.2311 146.548 22.551 146.266 22.6674C146.184 22.6964 146.114 22.7081 146.044 22.7081Z" fill="#FEEDB4"/>
<path d="M148.511 27.0178C148.341 27.0178 148.177 26.9422 148.071 26.7968C147.497 26.0291 146.97 25.2032 146.495 24.3366C146.349 24.0749 146.448 23.7433 146.718 23.5979C146.981 23.4525 147.315 23.5514 147.462 23.819C147.913 24.639 148.411 25.4242 148.956 26.1454C149.138 26.3897 149.085 26.727 148.845 26.9073C148.739 26.9829 148.622 27.0178 148.511 27.0178Z" fill="#FEEDB4"/>
</g>
<defs>
<clipPath id="clip0_2002_39802">
<rect width="311" height="62" fill="white" transform="translate(0.5 6)"/>
</clipPath>
</defs>
</svg>
