<svg width="311" height="68" viewBox="0 0 311 68" fill="none" xmlns="http://www.w3.org/2000/svg">
<path d="M0 5C0 2.23858 2.23858 0 5 0H306C308.761 0 311 2.23858 311 5V63C311 65.7614 308.761 68 306 68H5C2.23857 68 0 65.7614 0 63V5Z" fill="#FFDADC"/>
<g clip-path="url(#clip0_4001_40699)">
<path d="M149.643 46.0386C148.697 43.8019 146.147 42.7729 143.944 43.7343C143.64 43.8696 143.331 43.9952 143.017 44.1208C141.609 44.599 138.973 45.3768 135.653 45.8261C134.069 46.0435 132.513 46.1642 130.995 46.1884C129.478 46.1642 127.927 46.0435 126.338 45.8261C123.018 45.372 120.382 44.5942 118.974 44.1208C118.665 44 118.356 43.8696 118.047 43.7343C115.854 42.7729 113.304 43.8019 112.357 46.0386C111.42 48.2512 112.405 50.8068 114.555 51.7923L114.531 51.8454C114.645 51.8937 115.197 52.1208 116.11 52.4348C121.063 54.343 125.991 55 130.42 55C130.615 55 130.805 55 131 54.9952C131.191 55 131.386 55 131.581 55C136.009 55 140.938 54.343 145.89 52.4348C146.803 52.1208 147.355 51.8937 147.469 51.8454L147.446 51.7923C149.596 50.8068 150.581 48.2464 149.643 46.0386Z" fill="#FFB985"/>
<path d="M131.571 51.4541C122.299 51.4541 115.235 48.5314 114.792 48.3478C112.928 47.5555 112.043 45.3816 112.823 43.4879C113.598 41.5942 115.739 40.7004 117.604 41.4831C117.713 41.5314 121.196 42.9517 126.214 43.6376C130.767 44.2608 137.584 44.4009 144.215 41.5024C146.071 40.6908 148.226 41.5604 149.025 43.4492C149.824 45.3333 148.968 47.5217 147.108 48.3333C141.746 50.6715 136.361 51.4541 131.571 51.4541Z" fill="#D34B48"/>
<path d="M149.643 38.6667C148.697 36.43 146.147 35.3961 143.944 36.3623C143.64 36.4976 143.331 36.6232 143.017 36.7488C141.609 37.2271 138.973 38.0048 135.653 38.4541C134.069 38.6715 132.513 38.7923 130.995 38.8164C129.478 38.7923 127.927 38.6715 126.338 38.4541C123.018 38 120.382 37.2222 118.974 36.7488C118.665 36.628 118.356 36.4976 118.047 36.3623C115.854 35.3961 113.304 36.43 112.357 38.6667C111.42 40.8792 112.405 43.4348 114.555 44.4203L114.531 44.4734C114.645 44.5217 115.197 44.7488 116.11 45.0628C121.063 46.971 125.991 47.628 130.42 47.628C130.615 47.628 130.805 47.628 131 47.6232C131.191 47.628 131.386 47.628 131.581 47.628C136.009 47.628 140.938 46.971 145.89 45.0628C146.803 44.7488 147.355 44.5217 147.469 44.4734L147.446 44.4203C149.596 43.4348 150.581 40.8744 149.643 38.6667Z" fill="#FFB985"/>
<path d="M148.559 44.5024C148.549 44.3816 148.54 44.2705 148.53 44.1643C148.516 44.0242 148.506 43.8647 148.497 43.7391C148.492 43.6812 148.492 43.628 148.492 43.5894C148.559 43.4396 148.554 43.2657 148.468 43.1159C148.326 42.8744 148.021 42.8019 147.788 42.942C147.526 43.1015 147.484 43.3527 147.507 43.7971C147.517 43.9324 147.526 44.0821 147.541 44.2512C147.545 44.2899 147.545 44.3285 147.55 44.372C147.655 45.6039 147.788 47.6377 146.613 48.5459C146.442 48.6763 146.247 48.7874 146.018 48.8647C145.923 48.8986 145.838 48.9082 145.757 48.8937C145.448 48.8357 145.21 48.372 144.763 47.1353C144.591 46.657 144.41 46.1546 144.182 45.6812C143.897 45.0821 143.535 44.5266 143.031 44.1208C142.922 44.0338 142.807 43.9517 142.684 43.8792C142.26 43.628 141.875 43.5845 141.542 43.744C141.176 43.9227 140.971 44.2899 140.828 44.7826C140.724 45.1546 140.652 45.599 140.576 46.087C140.543 46.2947 140.51 46.4976 140.476 46.6908C140.215 48.1546 139.848 49.2271 138.788 49.3672C138.426 49.4155 138.264 49.3188 138.174 49.2415C137.812 48.9324 137.703 48.0821 137.641 47.2077C137.627 47.0193 137.617 46.8261 137.608 46.6425C137.589 46.2754 137.57 45.8986 137.532 45.5314C137.456 44.7971 137.318 44.0966 136.98 43.5942C136.747 43.2464 136.428 42.9952 135.971 42.8841C135.153 42.6908 134.463 42.7826 133.921 43.1594C133.621 43.3672 133.388 43.6473 133.198 43.9758C132.855 44.5749 132.675 45.3382 132.541 46.1353C132.489 46.4541 132.442 46.7729 132.399 47.0966C132.37 47.2802 132.346 47.4589 132.323 47.6329C132.118 48.9903 131.89 49.8599 131.29 49.9179C129.973 50.0483 129.73 49.3285 129.478 47.6667C129.478 47.657 129.473 47.6425 129.473 47.6329C129.397 47.1208 129.311 46.5749 129.121 46.1208C128.926 45.657 128.622 45.285 128.098 45.1353C127.275 44.8937 126.709 45.2367 126.291 45.8309C125.991 46.256 125.763 46.8068 125.572 47.372C125.482 47.628 125.401 47.8889 125.325 48.1353C124.849 49.6522 124.454 50.7246 123.745 50.6812C123.579 50.6715 123.508 50.6087 123.455 50.5507C123.08 50.1159 123.175 48.7343 123.26 47.5121C123.27 47.3575 123.279 47.1981 123.294 47.0435C123.332 46.4493 123.36 45.8599 123.336 45.3092C123.298 44.4444 123.137 43.686 122.685 43.1836C122.604 43.0966 122.518 43.0145 122.428 42.9469C122.133 42.7295 121.771 42.6135 121.353 42.599C121.338 42.599 121.324 42.599 121.31 42.599C121.238 42.599 121.167 42.6039 121.101 42.6184C120.401 42.7295 119.964 43.4106 119.65 44.343C119.474 44.8696 119.331 45.4783 119.207 46.1111C119.141 46.4493 119.079 46.7971 119.017 47.1401C118.879 47.8986 118.665 49.0821 118.437 49.5942C118.403 49.6715 118.365 49.7391 118.332 49.7826C118.208 49.7053 118.104 49.6039 118.008 49.4734C117.452 48.715 117.304 47.1063 117.171 45.6667C117.166 45.599 117.157 45.5314 117.152 45.4638C117.086 44.7633 117.019 44.0676 116.9 43.4251C116.729 42.5072 116.458 41.7101 115.958 41.2222C115.668 40.942 115.306 40.7585 114.84 40.7101C114.298 40.657 113.817 40.8406 113.465 41.2415C113.132 41.6184 112.909 42.1787 112.785 42.942C112.737 43.2271 112.709 43.5411 112.695 43.8792C112.671 44.3333 112.676 44.8358 112.704 45.3913C112.714 45.5942 112.728 45.8019 112.747 46.0193C112.752 46.0725 112.757 46.1256 112.761 46.1787C112.904 47.8309 113.194 49.2415 113.208 49.2995C113.266 49.57 113.527 49.7488 113.798 49.6908C114.065 49.6329 114.241 49.3672 114.184 49.0918C114.108 48.7198 114.031 48.3043 113.965 47.8599C113.794 46.7246 113.665 45.43 113.679 44.314C113.679 44.1739 113.684 44.0338 113.694 43.8986C113.736 43.0048 113.893 42.2705 114.212 41.9082C114.355 41.7488 114.521 41.686 114.75 41.7101C115.363 41.7729 115.687 42.4058 115.891 43.4058C115.991 43.8841 116.063 44.4493 116.125 45.0725C116.148 45.2899 116.167 45.5169 116.191 45.7488C116.296 46.9179 116.405 48.1063 116.724 49.0531C116.962 49.7681 117.319 50.343 117.885 50.6667C118.165 50.8261 118.47 50.8454 118.736 50.7198C119.031 50.5797 119.245 50.2899 119.417 49.8502C119.645 49.2705 119.807 48.4251 120.011 47.314C120.068 47 120.125 46.6763 120.187 46.3672C120.311 45.7295 120.449 45.1256 120.62 44.6232C120.625 44.6087 120.63 44.5942 120.634 44.5797C120.763 44.2126 121.024 43.6039 121.334 43.6039H121.338C121.705 43.6135 121.871 43.7536 121.966 43.8551C122.195 44.1063 122.299 44.5459 122.342 45.0725C122.385 45.6039 122.361 46.2319 122.323 46.8502C122.314 47.0483 122.299 47.2415 122.285 47.4348C122.204 48.6039 122.128 49.7295 122.371 50.5314C122.452 50.7923 122.566 51.0242 122.723 51.2077C122.965 51.4928 123.303 51.6522 123.698 51.6763C123.736 51.6812 123.779 51.6812 123.817 51.6812C124.383 51.6812 124.811 51.4155 125.154 51C125.682 50.3575 125.996 49.3575 126.286 48.43C126.4 48.0628 126.509 47.7391 126.609 47.4638C127.004 46.372 127.328 45.942 127.841 46.0918C128.212 46.2029 128.35 46.7488 128.479 47.5845C128.488 47.657 128.503 47.7295 128.512 47.8019C128.712 49.1304 129.012 51.1401 131.4 50.9082C132.798 50.7729 133.117 49.2077 133.35 47.5894C133.369 47.4686 133.383 47.3478 133.402 47.2271C133.455 46.8406 133.512 46.4396 133.583 46.0483C133.75 45.1449 134.002 44.3237 134.497 43.9807C134.568 43.9324 134.644 43.8937 134.725 43.8599C134.915 43.7874 135.139 43.7681 135.396 43.7923C135.51 43.8019 135.629 43.8261 135.757 43.8551C136.276 43.9758 136.461 44.6667 136.556 45.686C136.585 45.9903 136.609 46.3237 136.628 46.686C136.637 46.9034 136.652 47.1159 136.666 47.3237C136.742 48.4493 136.894 49.4541 137.551 50.0048C137.912 50.3092 138.374 50.43 138.926 50.3575C140.876 50.1063 141.28 48.0386 141.537 46.4348C141.547 46.3672 141.556 46.2995 141.57 46.2367C141.656 45.6957 141.799 44.7971 141.975 44.6473C141.999 44.6473 142.065 44.6618 142.198 44.7391C142.636 44.9952 142.964 45.4493 143.231 45.971C143.473 46.4444 143.664 46.971 143.844 47.4686C144.087 48.1401 144.315 48.7778 144.644 49.2271C144.658 49.2464 144.672 49.2657 144.686 49.2802C145.238 49.9952 145.895 49.9614 146.351 49.8068C147.612 49.3768 148.197 48.401 148.449 47.3333C148.668 46.3527 148.621 45.2899 148.559 44.5024Z" fill="#FFCC7B"/>
</g>
<path d="M186.47 31.1396C186.554 30.1663 181.6 29.3587 175.418 29.3587C169.258 29.3587 164.304 30.1663 164.387 31.1396C164.408 31.3467 166.802 59.9031 166.822 60.0481C166.864 60.6279 170.735 61.1042 175.439 61.1042C180.143 61.1042 183.993 60.6279 184.056 60.0481C184.056 59.9031 186.449 31.3467 186.47 31.1396Z" fill="#DAE4FE"/>
<path d="M187.449 27.1015C187.532 26.0454 182.141 25.1757 175.418 25.1757C168.696 25.1757 163.326 26.0454 163.409 27.1015C163.43 27.3293 166.032 58.4328 166.052 58.5778C166.115 59.2197 170.319 59.7167 175.418 59.7167C180.539 59.7167 184.743 59.199 184.785 58.5778C184.805 58.4328 187.428 27.3293 187.449 27.1015Z" fill="white"/>
<path d="M215.248 54.0841L206.589 50.2117L191 52.6967L200.866 56.4242L215.248 54.0841Z" fill="#D3D4D5"/>
<path d="M211.876 54.6847L202.76 50.7916L193.206 52.2618L203.488 56.01L211.876 54.6847Z" fill="#6073C9"/>
<path d="M210.752 54.6433L199.076 51.682L194.413 52.3861L205.84 55.3473L210.752 54.6433Z" fill="#495AAB"/>
<path d="M214.186 54.2912L205.445 50.4188" stroke="#909295" stroke-width="1.7008" stroke-miterlimit="10"/>
<path d="M212.937 54.4983L204.196 50.6259" stroke="#909295" stroke-width="1.7008" stroke-miterlimit="10"/>
<path d="M202.656 56.1342L192.811 52.4482" stroke="#909295" stroke-width="1.7008" stroke-miterlimit="10"/>
<path d="M201.802 56.2999L191.958 52.5931" stroke="#909295" stroke-width="1.7008" stroke-miterlimit="10"/>
<path d="M141.892 55.0367L133.233 51.1643L116 53.8564L125.241 57.8323L141.892 55.0367Z" fill="#D3D4D5"/>
<path d="M138.52 55.6373L129.404 51.7234L119.851 53.2144L130.132 56.9626L138.52 55.6373Z" fill="#6073C9"/>
<path d="M137.396 55.5958L125.72 52.6346L121.058 53.3387L132.484 56.2999L137.396 55.5958Z" fill="#495AAB"/>
<path d="M140.83 55.2438L132.089 51.3714" stroke="#909295" stroke-width="1.7008" stroke-miterlimit="10"/>
<path d="M139.581 55.4509L130.84 51.5785" stroke="#909295" stroke-width="1.7008" stroke-miterlimit="10"/>
<path d="M128.384 57.2111L118.518 53.525" stroke="#909295" stroke-width="1.7008" stroke-miterlimit="10"/>
<path d="M127.135 57.3975L117.27 53.7114" stroke="#909295" stroke-width="1.7008" stroke-miterlimit="10"/>
<mask id="mask0_4001_40699" style="mask-type:luminance" maskUnits="userSpaceOnUse" x="163" y="25" width="25" height="35">
<path d="M187.449 27.1015C187.532 26.0454 182.141 25.1757 175.418 25.1757C168.696 25.1757 163.326 26.0454 163.409 27.1015C163.43 27.3293 166.032 58.4328 166.052 58.5778C166.115 59.2197 170.319 59.7167 175.418 59.7167C180.539 59.7167 184.743 59.199 184.785 58.5778C184.805 58.4328 187.428 27.3293 187.449 27.1015Z" fill="white"/>
</mask>
<g mask="url(#mask0_4001_40699)">
<path d="M175.418 33.1483C168.696 33.1483 163.159 32.3821 162.868 31.4295C163.7 40.6446 165.095 55.9893 165.095 56.1135C165.157 56.7762 169.799 57.3146 175.418 57.3146C181.038 57.3146 185.679 56.7762 185.742 56.1135L187.99 31.3881C187.906 32.3613 182.266 33.1483 175.418 33.1483Z" fill="#DD5325"/>
</g>
<mask id="mask1_4001_40699" style="mask-type:luminance" maskUnits="userSpaceOnUse" x="163" y="25" width="25" height="35">
<path d="M187.449 27.1015C187.532 26.0454 182.141 25.1757 175.418 25.1757C168.696 25.1757 163.326 26.0454 163.409 27.1015C163.43 27.3293 166.032 58.4328 166.052 58.5778C166.115 59.2197 170.319 59.7167 175.418 59.7167C180.539 59.7167 184.743 59.199 184.785 58.5778C184.805 58.4328 187.428 27.3293 187.449 27.1015Z" fill="white"/>
</mask>
<g mask="url(#mask1_4001_40699)">
<path d="M175.418 37.4141C181.558 37.4141 186.72 36.7722 187.782 35.9438L187.99 33.7488C187.906 34.7221 182.266 35.5297 175.418 35.5297C168.696 35.5297 163.159 34.7635 162.868 33.8109C162.93 34.4943 162.993 35.2191 163.055 35.9645C164.138 36.7929 169.299 37.4141 175.418 37.4141Z" fill="#AB3A15"/>
</g>
<mask id="mask2_4001_40699" style="mask-type:luminance" maskUnits="userSpaceOnUse" x="163" y="25" width="25" height="35">
<path d="M187.449 27.1015C187.532 26.0454 182.141 25.1757 175.418 25.1757C168.696 25.1757 163.326 26.0454 163.409 27.1015C163.43 27.3293 166.032 58.4328 166.052 58.5778C166.115 59.2197 170.319 59.7167 175.418 59.7167C180.539 59.7167 184.743 59.199 184.785 58.5778C184.805 58.4328 187.428 27.3293 187.449 27.1015Z" fill="white"/>
</mask>
<g mask="url(#mask2_4001_40699)">
<path d="M175.418 41.1002C181.538 41.1002 186.699 40.4789 187.782 39.6299L187.99 37.3106C187.906 38.2839 182.266 39.0915 175.418 39.0915C168.696 39.0915 163.159 38.3253 162.868 37.3727C162.93 38.0975 162.993 38.843 163.076 39.6299C164.179 40.4789 169.32 41.1002 175.418 41.1002Z" fill="#AB3A15"/>
</g>
<path d="M175.398 26.998C182.111 26.998 187.553 26.3305 187.553 25.507C187.553 24.6836 182.111 24.0161 175.398 24.0161C168.685 24.0161 163.243 24.6836 163.243 25.507C163.243 26.3305 168.685 26.998 175.398 26.998Z" fill="#F1F1F1"/>
<path d="M188.427 25.1757C188.177 24.3267 182.349 23.6433 175.398 23.6433C168.425 23.6433 162.597 24.306 162.348 25.1757C162.285 25.3828 162.077 26.1076 162.015 26.3147C161.723 27.2465 167.697 28.0541 175.398 28.0541C183.099 28.0541 189.072 27.2672 188.781 26.3147C188.697 26.1076 188.468 25.3621 188.427 25.1757Z" fill="#DAE4FE"/>
<path d="M188.406 25.1757C188.677 26.0662 182.849 26.8116 175.377 26.8116C167.905 26.8116 162.077 26.0662 162.348 25.1757C162.597 24.3267 168.446 23.6433 175.377 23.6433C182.329 23.6433 188.156 24.306 188.406 25.1757Z" fill="#F1F1F1"/>
<path d="M186.991 23.9125C186.741 23.1463 181.558 22.5458 175.314 22.5458C169.05 22.5458 163.825 23.1463 163.596 23.9125C163.534 24.0989 163.347 24.7615 163.284 24.9479C163.014 25.7969 168.363 26.5217 175.314 26.5217C182.266 26.5217 187.594 25.7969 187.345 24.9479C187.261 24.7615 187.053 24.0989 186.991 23.9125Z" fill="#DAE4FE"/>
<path d="M186.991 23.9125C187.24 24.7201 182.016 25.4035 175.314 25.4035C168.612 25.4035 163.388 24.7201 163.638 23.9125C163.888 23.1463 169.112 22.5458 175.314 22.5458C181.517 22.5458 186.741 23.1463 186.991 23.9125Z" fill="#F1F1F1"/>
<path d="M184.202 23.9125C184.347 24.513 180.393 25.01 175.398 25.01C170.382 25.01 166.448 24.513 166.573 23.9125C166.718 23.3327 170.652 22.8771 175.377 22.8771C180.101 22.8771 184.077 23.3327 184.202 23.9125Z" fill="#DAE4FE"/>
<path d="M182.828 23.9125C182.828 24.0989 182.162 24.2438 181.329 24.2438C180.497 24.2438 179.831 24.0989 179.831 23.9125C179.831 23.7261 180.497 23.5812 181.329 23.5812C182.141 23.5812 182.828 23.7261 182.828 23.9125Z" fill="#6073C9"/>
<mask id="mask3_4001_40699" style="mask-type:luminance" maskUnits="userSpaceOnUse" x="179" y="6" width="8" height="19">
<path d="M182.537 23.7261L186.262 6.5177L184.223 6L180.206 23.6847C179.956 23.7468 179.789 23.8297 179.789 23.9125C179.789 24.0989 180.455 24.2438 181.288 24.2438C182.12 24.2438 182.786 24.0989 182.786 23.9125C182.828 23.8504 182.724 23.7675 182.537 23.7261Z" fill="white"/>
</mask>
<g mask="url(#mask3_4001_40699)">
<path d="M185.908 6.994C185.929 6.93188 185.575 6.80763 185.097 6.68338C184.639 6.57984 184.243 6.51772 184.243 6.57984C184.243 6.60055 180.185 25.0307 180.185 25.0515C180.164 25.1136 180.518 25.2378 180.996 25.3621C181.454 25.4656 181.829 25.507 181.85 25.4656C181.85 25.4449 185.908 6.994 185.908 6.994Z" fill="white"/>
<path d="M185.888 6.99402C185.867 7.05614 185.492 7.01472 185.055 6.89048C184.618 6.76623 184.243 6.64198 184.264 6.60056C184.285 6.53844 184.66 6.57986 185.097 6.7041C185.534 6.82835 185.909 6.93189 185.888 6.99402Z" fill="#DAE4FE"/>
<path d="M185.679 8.00867C185.013 8.48496 184.347 8.62992 183.806 8.50567C183.848 8.29859 183.889 8.09151 183.952 7.90513C184.493 7.98797 185.18 7.78089 185.846 7.26318C185.804 7.51168 185.742 7.76018 185.679 8.00867Z" fill="#DD5325"/>
<path d="M185.138 10.473C184.472 10.9493 183.806 11.0942 183.265 10.97C183.307 10.7629 183.348 10.5558 183.411 10.3694C183.952 10.4523 184.639 10.2452 185.305 9.72748C185.263 9.97598 185.201 10.2245 185.138 10.473Z" fill="#DD5325"/>
<path d="M184.597 12.9165C183.931 13.3928 183.265 13.5378 182.724 13.4135C182.766 13.2064 182.807 12.9993 182.87 12.813C183.411 12.8958 184.098 12.6887 184.764 12.171C184.722 12.4195 184.66 12.668 184.597 12.9165Z" fill="#DD5325"/>
<path d="M184.056 15.3807C183.39 15.857 182.724 16.002 182.183 15.8777C182.224 15.6707 182.266 15.4636 182.329 15.2772C182.87 15.36 183.557 15.153 184.223 14.6353C184.181 14.8838 184.119 15.1322 184.056 15.3807Z" fill="#DD5325"/>
<path d="M183.515 17.8243C182.849 18.3006 182.183 18.4456 181.642 18.3213C181.683 18.1143 181.725 17.9072 181.787 17.7208C182.328 17.8036 183.015 17.5966 183.681 17.0789C183.64 17.3274 183.577 17.5759 183.515 17.8243Z" fill="#DD5325"/>
<path d="M182.974 20.2679C182.308 20.7442 181.642 20.8891 181.101 20.7649C181.142 20.5578 181.184 20.3507 181.246 20.1644C181.787 20.2472 182.474 20.0401 183.14 19.5224C183.099 19.7709 183.036 20.0194 182.974 20.2679Z" fill="#DD5325"/>
<path d="M182.433 22.7321C181.767 23.2084 181.1 23.3534 180.559 23.2291C180.601 23.022 180.643 22.815 180.705 22.6286C181.246 22.7114 181.933 22.5043 182.599 21.9866C182.557 22.2351 182.495 22.4836 182.433 22.7321Z" fill="#DD5325"/>
</g>
<path d="M176 63.3407L184.013 66.4676L196.064 60.0688L187.094 57.3975L176 63.3407Z" fill="#D3D4D5"/>
<path d="M178.581 61.8704L186.989 64.9352L194.378 61.0835L185.075 58.4536L178.581 61.8704Z" fill="#DD5325"/>
<path d="M179.518 61.7048L189.758 63.0301L193.379 61.1664L183.326 59.7996L179.518 61.7048Z" fill="#AB3A15"/>
<path d="M176.812 62.8644L184.887 65.9706" stroke="#909295" stroke-width="1.7008" stroke-miterlimit="10"/>
<path d="M177.395 62.5123L185.47 65.6185" stroke="#909295" stroke-width="1.7008" stroke-miterlimit="10"/>
<path d="M185.72 58.1223L194.649 60.7522" stroke="#909295" stroke-width="1.7008" stroke-miterlimit="10"/>
<path d="M186.365 57.7495L195.315 60.3794" stroke="#909295" stroke-width="1.7008" stroke-miterlimit="10"/>
<path d="M173.004 57.2939L143.22 57.6045C141.971 57.6045 141.805 56.4035 141.763 55.1196C141.722 53.8357 141.742 52.821 142.991 52.821L172.921 52.7589C174.17 52.7589 174.336 53.8357 174.274 55.1196C174.232 56.4242 174.253 57.2939 173.004 57.2939Z" fill="#762F0E"/>
<path opacity="0.5" d="M142.658 55.0574C142.658 55.0574 143.387 54.6847 144.323 55.0574C145.26 55.4302 145.489 54.1463 147.612 54.6433C149.714 55.1403 150.609 55.016 151.192 55.2024C151.775 55.3888 153.44 54.8711 153.981 55.016C154.522 55.161 156.52 54.8711 156.749 55.016C156.957 55.161 158.06 54.7882 158.435 55.0574C158.83 55.3267 160.162 54.7675 160.579 55.016C160.995 55.2438 162.306 54.7054 162.743 54.8918C163.18 55.0782 163.68 54.4776 164.096 54.6433C164.512 54.809 165.116 55.0782 165.116 55.0782C165.116 55.0782 164.179 54.7882 163.763 55.0367C163.368 55.2645 162.556 55.2231 161.973 55.4509C161.39 55.6787 159.933 55.8029 159.538 55.7615C159.142 55.7201 155.979 55.8858 155.667 55.7615C155.354 55.6373 151.587 55.8444 151.462 55.7615C151.337 55.6787 147.945 55.1817 147.945 55.1817C147.945 55.1817 146.134 54.9539 146.009 54.9746C145.884 54.9953 144.864 55.4716 144.864 55.4716L144.074 55.4095C144.074 55.3888 142.2 55.4302 142.658 55.0574Z" fill="#4D170C"/>
<path opacity="0.5" d="M142.346 53.7528C142.346 53.7528 142.845 53.5043 143.511 53.7528C144.178 54.0013 144.323 53.1109 145.801 53.4629C147.279 53.8149 147.903 53.7114 148.299 53.8564C148.715 53.9806 149.88 53.6286 150.255 53.7321C150.63 53.8357 152.045 53.6286 152.191 53.7321C152.336 53.8357 153.106 53.5665 153.377 53.7735C153.648 53.9599 154.584 53.5665 154.876 53.7321C155.167 53.8978 156.083 53.525 156.395 53.6493C156.707 53.7735 157.04 53.3594 157.332 53.4629C157.623 53.5665 158.039 53.7735 158.039 53.7735C158.039 53.7735 157.373 53.5665 157.103 53.7321C156.811 53.8978 156.249 53.8564 155.854 54.022C155.458 54.1877 154.418 54.2705 154.147 54.2498C153.877 54.2291 151.65 54.3327 151.441 54.2498C151.233 54.167 148.59 54.3119 148.486 54.2498C148.382 54.1877 146.03 53.8357 146.03 53.8357C146.03 53.8357 144.76 53.67 144.677 53.6907C144.594 53.7114 143.865 54.0427 143.865 54.0427L143.303 54.0013C143.324 53.9806 142.013 54.022 142.346 53.7528Z" fill="#4D170C"/>
<path opacity="0.5" d="M158.102 56.3C158.102 56.3 158.601 56.0515 159.247 56.3C159.892 56.5485 160.079 55.6787 161.515 56.01C162.951 56.3621 163.555 56.2585 163.95 56.3828C164.346 56.507 165.511 56.155 165.865 56.2585C166.24 56.3621 167.614 56.155 167.759 56.2585C167.905 56.3621 168.654 56.1136 168.925 56.3C169.195 56.4863 170.111 56.1136 170.403 56.2585C170.694 56.4242 171.589 56.0515 171.88 56.1757C172.172 56.3 172.525 55.8858 172.817 56.01C173.108 56.1136 173.504 56.3 173.504 56.3C173.504 56.3 172.858 56.1136 172.588 56.2585C172.297 56.4242 171.755 56.3828 171.36 56.5485C170.964 56.7141 169.945 56.797 169.674 56.7555C169.403 56.7348 167.218 56.8384 167.01 56.7555C166.802 56.6727 164.2 56.8177 164.117 56.7555C164.034 56.6934 161.723 56.3621 161.723 56.3621C161.723 56.3621 160.495 56.1964 160.391 56.2171C160.308 56.2378 159.6 56.5692 159.6 56.5692L159.059 56.5278C159.059 56.507 157.769 56.5485 158.102 56.3Z" fill="#4D170C"/>
<path opacity="0.5" d="M172.026 54.4155C172.026 54.4155 171.505 54.664 170.86 54.4155C170.215 54.167 170.007 55.0574 168.55 54.7054C167.093 54.3534 166.469 54.4569 166.073 54.3119C165.678 54.1877 164.491 54.5397 164.117 54.4362C163.742 54.3326 162.327 54.5397 162.181 54.4362C162.035 54.3326 161.265 54.6019 160.995 54.3948C160.724 54.2084 159.788 54.6019 159.496 54.4362C159.205 54.2705 158.289 54.6433 157.977 54.519C157.665 54.3948 157.332 54.8089 157.04 54.7054C156.749 54.6019 156.333 54.3948 156.333 54.3948C156.333 54.3948 156.999 54.6019 157.269 54.4362C157.54 54.2705 158.102 54.3119 158.518 54.1463C158.913 53.9806 159.954 53.8978 160.225 53.9185C160.495 53.9392 162.722 53.8357 162.93 53.9185C163.139 54.0013 165.782 53.8564 165.886 53.9185C165.969 53.9806 168.321 54.3326 168.321 54.3326C168.321 54.3326 169.57 54.4983 169.674 54.4776C169.757 54.4569 170.506 54.1256 170.506 54.1256L171.048 54.167C171.048 54.1877 172.359 54.1463 172.026 54.4155Z" fill="#4D170C"/>
<path d="M142.637 58.4536C152.878 58.4536 163.139 58.4536 173.379 58.4536C173.358 58.8264 173.358 59.1784 173.337 59.5511C173.296 60.9179 171.547 62.2018 169.341 62.7402C167.01 63.2993 164.075 63.32 161.578 63.4028C158.809 63.5064 156 63.4857 153.231 63.3407C149.277 63.1336 143.782 62.9059 142.762 60.1931C142.679 59.986 142.637 59.7789 142.637 59.5719C142.679 59.1991 142.658 58.8264 142.637 58.4536Z" fill="#FFB458"/>
<path d="M173.316 59.7996C173.337 59.7168 173.337 59.634 173.358 59.5511L173.4 58.4536H142.637L142.679 59.5511C142.679 59.634 142.7 59.7168 142.721 59.7996H173.316Z" fill="#DEA94D"/>
<path d="M146.55 56.9212C146.03 56.7969 145.551 56.3413 145.031 56.4863C144.656 56.5898 144.511 56.9626 144.198 57.1904C143.491 57.7081 143.095 57.004 142.471 56.9626C142.096 56.9419 141.638 57.2318 141.326 57.356C141.076 57.4596 140.951 57.6874 141.035 57.9151L141.284 58.6813C141.326 58.8056 141.43 58.9298 141.597 58.992L143.054 59.6546C143.178 59.7167 143.345 59.7375 143.491 59.696L145.177 59.344C145.281 59.3233 145.385 59.3233 145.489 59.344C146.405 59.5718 147.195 59.9238 148.09 59.5097C148.569 59.2819 148.944 59.1369 149.464 59.2612C150.026 59.3854 150.317 59.7375 150.963 59.489C151.171 59.4061 151.337 59.2819 151.566 59.2405C152.003 59.1783 152.399 59.5304 152.836 59.5511C153.398 59.5925 153.877 59.1783 154.439 59.199C155.105 59.2198 155.5 59.841 156.083 60.1102C157.581 60.7729 159.142 59.2612 160.807 59.7167C161.224 59.841 161.619 60.0274 162.056 60.0274C162.66 60.0274 163.18 59.6546 163.784 59.5925C164.429 59.5304 165.053 59.8203 165.699 59.8617C166.927 59.9652 168.196 59.1783 169.341 59.5511C169.903 59.7375 170.382 60.1723 170.964 60.0895C171.485 60.0067 171.88 59.5511 172.401 59.5511C172.692 59.5511 172.983 59.696 173.275 59.6753C174.315 59.5718 175.585 56.3827 174.086 56.362C173.733 56.362 173.4 56.507 173.087 56.652C172.775 56.7969 172.463 56.9419 172.109 56.9419C171.485 56.9419 171.006 56.9004 170.402 56.7969C169.612 56.652 168.717 56.9419 167.905 56.9626C167.176 56.9833 166.594 57.1489 165.928 56.9212C164.949 56.5898 164.408 56.9626 163.492 56.9212C162.66 56.8797 162.16 55.9893 161.349 56.01C160.745 56.0307 160.308 56.5691 159.704 56.652C158.976 56.7555 158.31 56.1757 157.561 56.1757C156.562 56.155 155.937 57.0247 154.896 57.0454C154.126 57.0661 153.377 56.6519 152.628 56.7348C151.858 56.8176 151.192 57.4181 150.422 57.3146C149.839 57.2525 149.381 56.7969 148.798 56.6934C148.049 56.6105 147.3 57.0868 146.55 56.9212Z" fill="#8DA664"/>
<path d="M172.088 53.6286L166.906 57.8945L164.221 56.3828C160.246 54.167 155.708 52.966 151.067 52.966H143.179L143.137 51.9927H172.9C172.879 52.6139 172.588 53.2145 172.088 53.6286Z" fill="#FFE158"/>
<path d="M173.67 52.6968L147.924 51.1022L147.987 49.4042L173.837 50.9987L173.67 52.6968Z" fill="#AB3A15"/>
<path d="M168.259 52.2825H142.471L142.388 49.9839H168.3L168.259 52.2825Z" fill="#DD5325"/>
<path d="M163.18 50.0254C163.388 50.1911 163.492 50.3567 163.472 50.5224C163.409 51.3921 160.162 51.8891 156.187 51.6199C152.232 51.3507 149.069 50.4396 149.131 49.5698C149.152 49.4042 149.256 49.2592 149.485 49.1143C148.881 49.3213 148.528 49.5698 148.507 49.8598C148.444 50.8123 151.878 51.8063 156.166 52.0962C160.454 52.3861 163.992 51.8477 164.054 50.8952C164.075 50.6052 163.763 50.3153 163.18 50.0254Z" fill="white"/>
<path d="M171.297 49.0107C171.485 49.1556 171.61 49.3006 171.61 49.4663C171.651 50.336 168.779 51.1643 165.199 51.33C161.619 51.4957 158.685 50.8951 158.643 50.0254C158.643 49.8597 158.726 49.694 158.914 49.5491C158.393 49.8183 158.102 50.1082 158.102 50.3981C158.143 51.3507 161.328 51.9719 165.22 51.8063C169.112 51.6406 172.213 50.7295 172.172 49.7769C172.172 49.487 171.859 49.2178 171.297 49.0107Z" fill="#F6DD99"/>
<path d="M156.457 49.5284C156.645 49.6733 156.749 49.839 156.749 50.0047C156.728 50.8744 153.814 51.5371 150.234 51.4542C146.654 51.3921 143.761 50.6259 143.782 49.7562C143.782 49.5905 143.886 49.4456 144.073 49.3006C143.532 49.5284 143.22 49.7976 143.22 50.1082C143.199 51.0608 146.342 51.8891 150.234 51.9512C154.126 52.0341 157.29 51.3093 157.311 50.3774C157.29 50.0668 156.978 49.7976 156.457 49.5284Z" fill="#F6DD99"/>
<path d="M173.691 50.5845C173.691 50.5845 142.388 50.5845 142.367 50.5845C142.138 50.5845 142.616 46.5879 142.721 46.1737C143.074 44.807 143.782 43.5645 144.927 42.674C146.342 41.5765 148.215 41.0795 149.984 40.9345C154.272 40.6032 158.518 40.7068 162.805 40.6032C164.699 40.5618 166.614 40.6032 168.383 41.2037C172.421 42.5705 173.837 46.7328 173.691 50.5845Z" fill="#C29344"/>
<path d="M142.45 48.8657C142.367 49.4248 142.325 49.984 142.346 50.5638H173.67C173.691 49.984 173.649 49.4041 173.566 48.8657H142.45Z" fill="#FFB458"/>
<path d="M146.883 45.0554C146.197 45.1797 147.071 43.9165 147.216 43.8544C147.362 43.7922 147.3 44.9726 146.883 45.0554Z" fill="#F3D544"/>
<path d="M150.484 44.9312C149.943 45.0554 150.463 44.02 150.567 43.9786C150.671 43.9165 150.817 44.8484 150.484 44.9312Z" fill="#F3D544"/>
<path d="M149.506 43.2953C148.965 43.4195 149.464 42.3841 149.589 42.3427C149.693 42.2806 149.818 43.2124 149.506 43.2953Z" fill="#F3D544"/>
<path d="M154.064 45.0968C153.356 45.3039 153.835 43.8751 153.981 43.7922C154.126 43.7301 154.501 44.9726 154.064 45.0968Z" fill="#F3D544"/>
<path d="M155.979 43.6059C155.271 43.813 155.75 42.3634 155.896 42.3013C156.041 42.2391 156.416 43.4816 155.979 43.6059Z" fill="#F3D544"/>
<path d="M157.54 44.9105C157.04 45.0347 157.352 44.0201 157.457 43.9579C157.561 43.9372 157.852 44.8484 157.54 44.9105Z" fill="#F3D544"/>
<path d="M162.452 43.0882C161.952 43.2124 162.264 42.177 162.368 42.1356C162.472 42.0942 162.764 43.0053 162.452 43.0882Z" fill="#F3D544"/>
<path d="M161.141 45.0762C160.495 45.2418 160.724 43.8958 160.849 43.8337C160.974 43.7716 161.536 44.9726 161.141 45.0762Z" fill="#F3D544"/>
<path d="M164.679 45.0968C164.034 45.2418 164.179 43.8751 164.283 43.8129C164.408 43.7508 165.074 45.014 164.679 45.0968Z" fill="#F3D544"/>
<path d="M168.196 44.9105C167.759 45.0555 167.655 44.0408 167.738 43.9786C167.801 43.9372 168.467 44.8277 168.196 44.9105Z" fill="#F3D544"/>
<path d="M171.776 45.0969C171.152 45.2418 170.985 43.8544 171.11 43.7923C171.214 43.7508 172.172 45.014 171.776 45.0969Z" fill="#F3D544"/>
<path d="M143.262 47.5611C142.575 47.7682 143.428 46.3808 143.574 46.2979C143.72 46.2358 143.678 47.4369 143.262 47.5611Z" fill="#F3D544"/>
<path d="M147.029 47.6233C146.301 47.8096 147.154 46.3187 147.3 46.2565C147.466 46.1737 147.487 47.5197 147.029 47.6233Z" fill="#F3D544"/>
<path d="M150.9 47.6233C150.172 47.8303 150.817 46.3187 150.963 46.2358C151.108 46.1737 151.337 47.499 150.9 47.6233Z" fill="#F3D544"/>
<path d="M154.751 47.7061C153.981 47.9546 154.459 46.2565 154.626 46.1737C154.772 46.0908 155.23 47.5611 154.751 47.7061Z" fill="#F3D544"/>
<path d="M158.58 47.6025C157.935 47.8303 158.185 46.3393 158.31 46.2565C158.414 46.1944 158.976 47.4783 158.58 47.6025Z" fill="#F3D544"/>
<path d="M162.368 47.5611C161.786 47.7475 161.91 46.4015 162.015 46.3187C162.119 46.2565 162.722 47.4369 162.368 47.5611Z" fill="#F3D544"/>
<path d="M166.136 47.5405C165.574 47.6854 165.615 46.4015 165.719 46.3394C165.824 46.2773 166.469 47.4369 166.136 47.5405Z" fill="#F3D544"/>
<path d="M169.924 47.5404C169.362 47.6647 169.341 46.3808 169.445 46.3393C169.549 46.2772 170.257 47.4576 169.924 47.5404Z" fill="#F3D544"/>
<path d="M169.133 43.8958C168.571 44.02 168.55 42.7361 168.654 42.674C168.758 42.6119 169.466 43.813 169.133 43.8958Z" fill="#F3D544"/>
<path d="M208.483 55.283C208.483 54.0196 205.02 53 200.741 53C196.463 53 193 54.0196 193 55.283C193 55.6376 194.654 60.3366 195.625 61.1567C196.286 61.7108 197.918 62.3757 200.741 62.3757C203.565 62.3757 205.219 61.7329 205.858 61.1567C206.829 60.3366 208.483 55.6376 208.483 55.283Z" fill="white"/>
<path d="M200.741 57.4109C204.725 57.4109 207.954 56.4582 207.954 55.283C207.954 54.1079 204.725 53.1552 200.741 53.1552C196.758 53.1552 193.529 54.1079 193.529 55.283C193.529 56.4582 196.758 57.4109 200.741 57.4109Z" fill="#DAE4FE"/>
<path d="M200.742 57.4107C204.627 57.4107 207.777 56.6665 207.777 55.7484C207.777 54.8303 204.627 54.086 200.742 54.086C196.856 54.086 193.706 54.8303 193.706 55.7484C193.706 56.6665 196.856 57.4107 200.742 57.4107Z" fill="#DD5325"/>
<path d="M207.623 56.4576C206.344 57.1891 203.763 57.6989 200.764 57.6989C197.808 57.6989 195.25 57.2112 193.97 56.502" stroke="#DAE4FE" stroke-width="1.1339" stroke-miterlimit="10"/>
<path d="M200.896 54.7068C201.58 54.9063 202.969 54.729 203.675 55.1945" stroke="#AB3A15" stroke-width="1.1339" stroke-miterlimit="10"/>
<path d="M196.044 55.1943C196.044 55.1943 197.279 54.5737 198.36 54.751" stroke="#AB3A15" stroke-width="1.1339" stroke-miterlimit="10"/>
<path d="M199.904 56.6351C200.698 56.7903 201.536 56.7903 202.021 56.7016C202.506 56.6129 203.212 56.48 203.521 56.48C203.829 56.48 205.748 56.2361 205.947 55.7928" stroke="#AB3A15" stroke-width="1.1339" stroke-miterlimit="10"/>
<path d="M195.139 55.6376C195.139 55.6376 195.382 56.2139 196.639 56.1253C197.918 56.0366 198.778 55.9479 199.153 56.0366C199.506 56.1474 200.741 56.1474 201.094 56.0144" stroke="#AB3A15" stroke-width="1.1339" stroke-miterlimit="10"/>
<path d="M198.867 55.3053C198.867 55.3053 200.014 55.0615 200.808 55.1945" stroke="#AB3A15" stroke-width="1.1339" stroke-miterlimit="10"/>
<defs>
<clipPath id="clip0_4001_40699">
<rect width="38" height="19" fill="white" transform="translate(112 36)"/>
</clipPath>
</defs>
</svg>
