<svg width="22" height="22" viewBox="0 0 22 22" fill="none" xmlns="http://www.w3.org/2000/svg">
<g clip-path="url(#clip0_778_4343)">
<path d="M16.5004 11.916C15.6941 11.9133 14.9095 12.1772 14.2689 12.6667C13.6282 13.1562 13.1674 13.8438 12.9582 14.6225C12.749 15.4011 12.8031 16.2271 13.1122 16.9718C13.4213 17.7165 13.9679 18.338 14.667 18.7397V21.3366C14.667 21.4674 14.7057 21.5952 14.7783 21.704C14.8509 21.8127 14.9542 21.8975 15.075 21.9475C15.1958 21.9976 15.3287 22.0107 15.457 21.9851C15.5852 21.9596 15.703 21.8966 15.7954 21.8041L16.5004 21.1001L17.2053 21.8041C17.2977 21.8966 17.4155 21.9596 17.5438 21.9851C17.672 22.0107 17.8049 21.9976 17.9257 21.9475C18.0465 21.8975 18.1498 21.8127 18.2224 21.704C18.295 21.5952 18.3338 21.4674 18.3337 21.3366V18.7397C19.0328 18.338 19.5794 17.7165 19.8885 16.9718C20.1976 16.2271 20.2518 15.4011 20.0425 14.6225C19.8333 13.8438 19.3725 13.1562 18.7319 12.6667C18.0912 12.1772 17.3066 11.9133 16.5004 11.916Z" fill="#B885FF"/>
<path d="M11 15.5833C10.9989 14.6175 11.2524 13.6685 11.735 12.8319C12.2176 11.9953 12.9122 11.3007 13.7488 10.8182C14.5855 10.3356 15.5345 10.0822 16.5003 10.0833C17.4661 10.0845 18.4146 10.3403 19.25 10.8249V4.58333C19.2485 3.3682 18.7652 2.20326 17.906 1.34404C17.0467 0.484809 15.8818 0.00145554 14.6667 0L7.33333 0C6.1182 0.00145554 4.95326 0.484809 4.09403 1.34404C3.23481 2.20326 2.75146 3.3682 2.75 4.58333V15.5833C2.75146 16.7985 3.23481 17.9634 4.09403 18.8226C4.95326 19.6819 6.1182 20.1652 7.33333 20.1667H12.8333V19.6717C12.2568 19.158 11.7954 18.5281 11.4795 17.8235C11.1635 17.119 11.0001 16.3555 11 15.5833ZM7.33333 3.66667H14.6667C14.9098 3.66667 15.1429 3.76324 15.3148 3.93515C15.4868 4.10706 15.5833 4.34022 15.5833 4.58333C15.5833 4.82645 15.4868 5.05961 15.3148 5.23151C15.1429 5.40342 14.9098 5.5 14.6667 5.5H7.33333C7.09022 5.5 6.85706 5.40342 6.68515 5.23151C6.51324 5.05961 6.41667 4.82645 6.41667 4.58333C6.41667 4.34022 6.51324 4.10706 6.68515 3.93515C6.85706 3.76324 7.09022 3.66667 7.33333 3.66667ZM7.33333 7.33333H14.6667C14.9098 7.33333 15.1429 7.42991 15.3148 7.60182C15.4868 7.77373 15.5833 8.00689 15.5833 8.25C15.5833 8.49312 15.4868 8.72627 15.3148 8.89818C15.1429 9.07009 14.9098 9.16667 14.6667 9.16667H7.33333C7.09022 9.16667 6.85706 9.07009 6.68515 8.89818C6.51324 8.72627 6.41667 8.49312 6.41667 8.25C6.41667 8.00689 6.51324 7.77373 6.68515 7.60182C6.85706 7.42991 7.09022 7.33333 7.33333 7.33333ZM10.0833 12.8333H7.33333C7.09022 12.8333 6.85706 12.7368 6.68515 12.5648C6.51324 12.3929 6.41667 12.1598 6.41667 11.9167C6.41667 11.6736 6.51324 11.4404 6.68515 11.2685C6.85706 11.0966 7.09022 11 7.33333 11H10.0833C10.3264 11 10.5596 11.0966 10.7315 11.2685C10.9034 11.4404 11 11.6736 11 11.9167C11 12.1598 10.9034 12.3929 10.7315 12.5648C10.5596 12.7368 10.3264 12.8333 10.0833 12.8333Z" fill="#B885FF"/>
</g>
<defs>
<clipPath id="clip0_778_4343">
<rect width="22" height="22" fill="white"/>
</clipPath>
</defs>
</svg>
