<svg width="22" height="22" viewBox="0 0 22 22" fill="none" xmlns="http://www.w3.org/2000/svg">
<path d="M11.4986 8.745V9.8511C11.4986 10.2024 11.5688 10.4971 11.7072 10.7268C11.8982 11.0437 12.2118 11.2252 12.5678 11.2252C12.9166 11.2252 13.2632 11.0554 13.5979 10.7207L17.2512 7.06737C18.0533 6.26523 18.0533 4.96005 17.2512 4.15791L13.5979 0.504539C13.2631 0.169727 12.9166 0 12.5678 0C12.0356 0 11.4986 0.424961 11.4986 1.37414V2.37875C6.31183 2.68499 2.01796 6.66548 1.37979 11.877C1.36243 12.0186 1.39253 12.1619 1.46537 12.2845C1.5382 12.4071 1.64966 12.5021 1.78228 12.5546C1.9149 12.6071 2.0612 12.6142 2.19825 12.5746C2.3353 12.5351 2.45536 12.4512 2.5396 12.3361C4.25131 9.99728 6.99963 8.60097 9.8913 8.60097C10.4303 8.6013 10.9681 8.6495 11.4986 8.745Z" fill="#B885FF"/>
<path d="M20.2061 9.44566C20.0735 9.39313 19.9272 9.38611 19.7901 9.42569C19.6531 9.46527 19.533 9.54922 19.4488 9.66437C17.7373 12.003 14.9889 13.3993 12.0973 13.3993C11.5583 13.399 11.0204 13.3508 10.49 13.2553V12.1492C10.49 11.2 9.95287 10.775 9.42079 10.775C9.07201 10.775 8.72538 10.9449 8.39053 11.2797L4.7372 14.9329C3.93523 15.735 3.93523 17.0402 4.73737 17.8425L8.39057 21.4957C8.72534 21.8305 9.07197 22.0003 9.42079 22.0003C9.95287 22.0003 10.49 21.5753 10.49 20.6261V19.6215C15.677 19.3152 19.9706 15.3347 20.6088 10.1234C20.6262 9.98183 20.5961 9.83846 20.5232 9.71579C20.4503 9.59313 20.3388 9.49812 20.2061 9.44566Z" fill="#B885FF"/>
</svg>
