<svg width="65" height="65" viewBox="0 0 65 65" fill="none" xmlns="http://www.w3.org/2000/svg">
<path d="M32.4999 0.232422C26.118 0.232422 19.8794 2.12487 14.573 5.67047C9.26669 9.21606 5.1309 14.2555 2.68865 20.1516C0.246403 26.0478 -0.3926 32.5357 0.852446 38.7949C2.09749 45.0542 5.17067 50.8037 9.68335 55.3164C14.196 59.8291 19.9455 62.9023 26.2048 64.1473C32.4641 65.3923 38.952 64.7533 44.8481 62.3111C50.7442 59.8688 55.7837 55.7331 59.3293 50.4267C62.8749 45.1203 64.7673 38.8818 64.7673 32.4999C64.7581 23.9448 61.3555 15.7429 55.3062 9.69356C49.2569 3.64424 41.0549 0.241675 32.4999 0.232422V0.232422ZM43.2557 35.1888H35.1888V43.2557C35.1888 43.9688 34.9055 44.6528 34.4013 45.1571C33.897 45.6613 33.213 45.9446 32.4999 45.9446C31.7867 45.9446 31.1028 45.6613 30.5985 45.1571C30.0942 44.6528 29.8109 43.9688 29.8109 43.2557V35.1888H21.7441C21.0309 35.1888 20.347 34.9055 19.8427 34.4012C19.3384 33.897 19.0551 33.213 19.0551 32.4999C19.0551 31.7867 19.3384 31.1028 19.8427 30.5985C20.347 30.0942 21.0309 29.8109 21.7441 29.8109H29.8109V21.7441C29.8109 21.0309 30.0942 20.347 30.5985 19.8427C31.1028 19.3384 31.7867 19.0551 32.4999 19.0551C33.213 19.0551 33.897 19.3384 34.4013 19.8427C34.9055 20.347 35.1888 21.0309 35.1888 21.7441V29.8109H43.2557C43.9688 29.8109 44.6528 30.0942 45.1571 30.5985C45.6613 31.1028 45.9446 31.7867 45.9446 32.4999C45.9446 33.213 45.6613 33.897 45.1571 34.4012C44.6528 34.9055 43.9688 35.1888 43.2557 35.1888Z" fill="url(#paint0_linear_778_4339)"/>
<defs>
<linearGradient id="paint0_linear_778_4339" x1="64.7673" y1="32.4999" x2="0.232422" y2="32.4999" gradientUnits="userSpaceOnUse">
<stop stop-color="#FF6B00"/>
<stop offset="1" stop-color="#8E00E5"/>
</linearGradient>
</defs>
</svg>
