<svg width="65" height="65" viewBox="0 0 65 65" fill="none" xmlns="http://www.w3.org/2000/svg">
<g clip-path="url(#clip0_526_16588)">
<path d="M32.5 0C14.5507 0 0 14.5507 0 32.5C0 50.4493 14.5507 65 32.5 65C50.4493 65 65 50.4493 65 32.5C64.9806 14.5587 50.4413 0.0194238 32.5 0ZM43.3333 39.5064C44.4338 40.5194 44.5049 42.2327 43.492 43.3333C42.479 44.4338 40.7657 44.5049 39.6651 43.492C39.61 43.4413 39.5572 43.3884 39.5064 43.3333L32.5 36.3295L25.4963 43.3333C24.4203 44.3724 22.7058 44.3426 21.6667 43.2666C20.6531 42.2171 20.6531 40.5533 21.6667 39.5037L28.6705 32.5L21.6667 25.4963C20.6276 24.4203 20.6574 22.7058 21.7334 21.6667C22.7829 20.6531 24.4467 20.6531 25.4963 21.6667L32.5 28.6705L39.5064 21.6667C40.5194 20.5662 42.2327 20.4951 43.3333 21.508C44.4338 22.521 44.5049 24.2343 43.492 25.3349C43.4413 25.39 43.3884 25.4428 43.3333 25.4936L36.3295 32.5L43.3333 39.5064Z" fill="#DA1E28"/>
</g>
<defs>
<clipPath id="clip0_526_16588">
<rect width="65" height="65" fill="white"/>
</clipPath>
</defs>
</svg>
