<svg width="22" height="22" viewBox="0 0 22 22" fill="none" xmlns="http://www.w3.org/2000/svg">
<g clip-path="url(#clip0_778_4323)">
<path d="M5.04167 19.25C4.43388 19.25 3.85098 19.0086 3.42121 18.5788C2.99144 18.149 2.75 17.5661 2.75 16.9583V1.375C2.75 1.01033 2.60513 0.660591 2.34727 0.402728C2.08941 0.144866 1.73967 0 1.375 0V0C1.01033 0 0.660591 0.144866 0.402728 0.402728C0.144866 0.660591 0 1.01033 0 1.375L0 16.9583C0 18.2955 0.531174 19.5778 1.47667 20.5233C2.42217 21.4688 3.70453 22 5.04167 22H20.625C20.9897 22 21.3394 21.8551 21.5973 21.5973C21.8551 21.3394 22 20.9897 22 20.625C22 20.2603 21.8551 19.9106 21.5973 19.6527C21.3394 19.3949 20.9897 19.25 20.625 19.25H5.04167Z" fill="#B885FF"/>
<path d="M17.875 16.5C18.2397 16.5 18.5894 16.3551 18.8473 16.0973C19.1051 15.8394 19.25 15.4897 19.25 15.125V9.625C19.25 9.26033 19.1051 8.91059 18.8473 8.65273C18.5894 8.39487 18.2397 8.25 17.875 8.25C17.5103 8.25 17.1606 8.39487 16.9027 8.65273C16.6449 8.91059 16.5 9.26033 16.5 9.625V15.125C16.5 15.4897 16.6449 15.8394 16.9027 16.0973C17.1606 16.3551 17.5103 16.5 17.875 16.5Z" fill="#B885FF"/>
<path d="M6.875 16.5C7.23967 16.5 7.58941 16.3551 7.84727 16.0973C8.10513 15.8394 8.25 15.4897 8.25 15.125V9.625C8.25 9.26033 8.10513 8.91059 7.84727 8.65273C7.58941 8.39487 7.23967 8.25 6.875 8.25C6.51033 8.25 6.16059 8.39487 5.90273 8.65273C5.64487 8.91059 5.5 9.26033 5.5 9.625V15.125C5.5 15.4897 5.64487 15.8394 5.90273 16.0973C6.16059 16.3551 6.51033 16.5 6.875 16.5Z" fill="#B885FF"/>
<path d="M12.375 16.4993C12.7397 16.4993 13.0894 16.3545 13.3473 16.0966C13.6051 15.8388 13.75 15.489 13.75 15.1243V5.04102C13.75 4.67634 13.6051 4.32661 13.3473 4.06874C13.0894 3.81088 12.7397 3.66602 12.375 3.66602C12.0103 3.66602 11.6606 3.81088 11.4027 4.06874C11.1449 4.32661 11 4.67634 11 5.04102V15.1243C11 15.489 11.1449 15.8388 11.4027 16.0966C11.6606 16.3545 12.0103 16.4993 12.375 16.4993Z" fill="#B885FF"/>
</g>
<defs>
<clipPath id="clip0_778_4323">
<rect width="22" height="22" fill="white"/>
</clipPath>
</defs>
</svg>
