<svg width="63" height="23" viewBox="0 0 63 23" fill="none" xmlns="http://www.w3.org/2000/svg">
<path d="M0 11.3115C0 5.06432 5.06432 0 11.3115 0H51.5C57.8513 0 63 5.14873 63 11.5C63 17.8513 57.8513 23 51.5 23H11.6885C5.23313 23 0 17.7669 0 11.3115Z" fill="url(#paint0_linear_713_26430)"/>
<path d="M16.91 16V6.64H22.5455V8.2065H18.4765V10.54H21.7655V12.1H18.4765V16H16.91ZM23.7147 16V6.64H27.5822C27.6732 6.64 27.7902 6.64433 27.9332 6.653C28.0762 6.65733 28.2084 6.67033 28.3297 6.692C28.8714 6.77433 29.3177 6.95417 29.6687 7.2315C30.024 7.50883 30.2862 7.85983 30.4552 8.2845C30.6285 8.70483 30.7152 9.17283 30.7152 9.6885C30.7152 10.4512 30.5224 11.1077 30.1367 11.658C29.751 12.204 29.1595 12.542 28.3622 12.672L27.6927 12.7305H25.2812V16H23.7147ZM29.0902 16L27.2442 12.191L28.8367 11.84L30.8647 16H29.0902ZM25.2812 11.268H27.5172C27.6039 11.268 27.7014 11.2637 27.8097 11.255C27.918 11.2463 28.0177 11.229 28.1087 11.203C28.3687 11.138 28.5724 11.0232 28.7197 10.8585C28.8714 10.6938 28.9775 10.5075 29.0382 10.2995C29.1032 10.0915 29.1357 9.88783 29.1357 9.6885C29.1357 9.48917 29.1032 9.2855 29.0382 9.0775C28.9775 8.86517 28.8714 8.67667 28.7197 8.512C28.5724 8.34733 28.3687 8.2325 28.1087 8.1675C28.0177 8.1415 27.918 8.12633 27.8097 8.122C27.7014 8.11333 27.6039 8.109 27.5172 8.109H25.2812V11.268ZM32.2967 16V6.64H38.3417V8.109H33.8632V10.4165H37.5617V11.8855H33.8632V14.531H38.3417V16H32.2967ZM39.9012 16V6.64H45.9462V8.109H41.4677V10.4165H45.1662V11.8855H41.4677V14.531H45.9462V16H39.9012Z" fill="#F4F4FF"/>
<defs>
<linearGradient id="paint0_linear_713_26430" x1="-5.08202e-08" y1="13.7258" x2="62.9999" y2="14.1141" gradientUnits="userSpaceOnUse">
<stop stop-color="#05C338"/>
<stop offset="1" stop-color="#8CE201"/>
</linearGradient>
</defs>
</svg>
