<svg xmlns="http://www.w3.org/2000/svg" xmlns:xlink="http://www.w3.org/1999/xlink" viewBox="0 0 390.04 475.11"><defs><style>.cls-1,.cls-36{fill:#fff;}.cls-2{fill:none;}.cls-3{fill:#dcdcfe;}.cls-4{fill:#ddf;}.cls-5{fill:url(#linear-gradient);}.cls-6{fill:#7f4028;}.cls-7{fill:#a95b35;}.cls-8{fill:#682f1b;}.cls-9{fill:#f59f18;}.cls-10{fill:#8e8b5e;}.cls-11{mask:url(#mask);}.cls-12{mask:url(#mask-2);}.cls-13{mask:url(#mask-3);}.cls-14{mask:url(#mask-4);}.cls-15{fill:#6da8c6;}.cls-16{fill:#1d4a5e;}.cls-17{fill:#54472d;}.cls-18{fill:#f6a472;}.cls-19{fill:#606060;}.cls-20{fill:#551c09;}.cls-21{fill:#69301c;}.cls-22{opacity:0.55;}.cls-23{fill:#7e2322;}.cls-24{fill:#3f3d3d;}.cls-25{fill:#c23f37;}.cls-26{mask:url(#mask-5);}.cls-27{fill:#93cee5;}.cls-28{mask:url(#mask-18);}.cls-29{mask:url(#mask-29);}.cls-30{fill:#f2c794;}.cls-31{mask:url(#mask-39);}.cls-32{fill:#aa6844;}.cls-33{fill:#a46416;}.cls-34{opacity:0.56;}.cls-35{clip-path:url(#clip-path);}.cls-36,.cls-39,.cls-41{opacity:0.5;isolation:isolate;}.cls-37{clip-path:url(#clip-path-2);}.cls-38,.cls-39{fill:#2c2e3e;}.cls-40,.cls-41{fill:#fe982c;}</style><linearGradient id="linear-gradient" x1="195.04" y1="347.03" x2="195.04" y2="505.44" gradientUnits="userSpaceOnUse"><stop offset="0" stop-color="#41756a"/><stop offset="0.35" stop-color="#629e91"/><stop offset="0.96" stop-color="#a1eddc"/></linearGradient><mask id="mask" x="10.96" y="224.39" width="127.17" height="203.62" maskUnits="userSpaceOnUse"><g id="mask0_1722_32502" data-name="mask0 1722 32502"><path class="cls-1" d="M25.18,246.81c-5.37,6.49-6.51,16.24-7.33,25.33Q12.22,333.78,11,395.58c-.16,4.71,0,9.9,2.61,13.48,2,2.6,4.88,3.73,7.65,4.54a68.46,68.46,0,0,0,33.89,1.14c2-.49,4.07-1,5.7-2.43,4.72-3.9,4.89-12.19,4.89-19a261.11,261.11,0,0,1,11.56-78.77q-2.93,40-2.93,80.4c0,6,.49,13,4.4,16.56,2.6,2.28,6,2.6,9.12,2.6a90,90,0,0,0,36.49-7.79c1.79-.82,3.58-1.63,4.56-3.41,1.14-1.63,1.31-3.9,1.63-6,5.21-42.72,10.43-86.08,5.7-128.8-.81-7.14-2.12-14.94-6.68-19.49-5.21-5.36-12.87-4.54-19.71-3.89a249.35,249.35,0,0,1-75.26-3.25c-4.24-.81-10.26,0-10.43,5.19Z"/></g></mask><mask id="mask-2" x="10.96" y="218.87" width="127.17" height="205.47" maskUnits="userSpaceOnUse"><g id="mask1_1722_32502" data-name="mask1 1722 32502"><path class="cls-1" d="M25.18,246.81c-5.37,6.49-6.51,16.24-7.33,25.33Q12.22,333.78,11,395.58c-.16,4.71,0,9.9,2.61,13.48,2,2.6,4.88,3.73,7.65,4.54a68.46,68.46,0,0,0,33.89,1.14c2-.49,4.07-1,5.7-2.43,4.72-3.9,4.89-12.19,4.89-19a261.11,261.11,0,0,1,11.56-78.77q-2.93,40-2.93,80.4c0,6,.49,13,4.4,16.56,2.6,2.28,6,2.6,9.12,2.6a90,90,0,0,0,36.49-7.79c1.79-.82,3.58-1.63,4.56-3.41,1.14-1.63,1.31-3.9,1.63-6,5.21-42.72,10.43-86.08,5.7-128.8-.81-7.14-2.12-14.94-6.68-19.49-5.21-5.36-12.87-4.54-19.71-3.89a249.35,249.35,0,0,1-75.26-3.25c-4.24-.81-10.26,0-10.43,5.19Z"/></g></mask><mask id="mask-3" x="10.96" y="225.04" width="127.17" height="215.54" maskUnits="userSpaceOnUse"><g id="mask2_1722_32502" data-name="mask2 1722 32502"><path class="cls-1" d="M25.18,246.81c-5.37,6.49-6.51,16.24-7.33,25.33Q12.22,333.78,11,395.58c-.16,4.71,0,9.9,2.61,13.48,2,2.6,4.88,3.73,7.65,4.54a68.46,68.46,0,0,0,33.89,1.14c2-.49,4.07-1,5.7-2.43,4.72-3.9,4.89-12.19,4.89-19a261.11,261.11,0,0,1,11.56-78.77q-2.93,40-2.93,80.4c0,6,.49,13,4.4,16.56,2.6,2.28,6,2.6,9.12,2.6a90,90,0,0,0,36.49-7.79c1.79-.82,3.58-1.63,4.56-3.41,1.14-1.63,1.31-3.9,1.63-6,5.21-42.72,10.43-86.08,5.7-128.8-.81-7.14-2.12-14.94-6.68-19.49-5.21-5.36-12.87-4.54-19.71-3.89a249.35,249.35,0,0,1-75.26-3.25c-4.24-.81-10.26,0-10.43,5.19Z"/></g></mask><mask id="mask-4" x="10.96" y="206.69" width="127.17" height="232.09" maskUnits="userSpaceOnUse"><g id="mask3_1722_32502" data-name="mask3 1722 32502"><path class="cls-1" d="M25.18,246.81c-5.37,6.49-6.51,16.24-7.33,25.33Q12.22,333.78,11,395.58c-.16,4.71,0,9.9,2.61,13.48,2,2.6,4.88,3.73,7.65,4.54a68.46,68.46,0,0,0,33.89,1.14c2-.49,4.07-1,5.7-2.43,4.72-3.9,4.89-12.19,4.89-19a261.11,261.11,0,0,1,11.56-78.77q-2.93,40-2.93,80.4c0,6,.49,13,4.4,16.56,2.6,2.28,6,2.6,9.12,2.6a90,90,0,0,0,36.49-7.79c1.79-.82,3.58-1.63,4.56-3.41,1.14-1.63,1.31-3.9,1.63-6,5.21-42.72,10.43-86.08,5.7-128.8-.81-7.14-2.12-14.94-6.68-19.49-5.21-5.36-12.87-4.54-19.71-3.89a249.35,249.35,0,0,1-75.26-3.25c-4.24-.81-10.26,0-10.43,5.19Z"/></g></mask><mask id="mask-5" x="208.56" y="343.7" width="39.51" height="91.42" maskUnits="userSpaceOnUse"><g id="mask4_1722_32502" data-name="mask4 1722 32502"><path class="cls-1" d="M243.81,343.7c-1.27,11.78-4.09,43.63-5.36,55.31-.58,4.87,1.85,18.6,4.48,22.79,1.17,1.95,3,3.5,4.19,5.55s1.46,4.67-.29,6.43-4.68,1.65-6.72.68-3.51-2.83-4.87-4.58c-3.89-5-7.69-9.83-11.59-14.8a12.68,12.68,0,0,1-2.24-3.6c-.77-2.24-.29-4.78,0-7.21.49-5-.48-9.83-1.55-14.7-1.47-7.4-9.74-15.58-11.3-23,7.69-1.56,19.86-19.09,27.65-19.19Z"/></g></mask><mask id="mask-18" x="171.89" y="348.77" width="29.08" height="87.04" maskUnits="userSpaceOnUse"><g id="mask17_1722_32502" data-name="mask17 1722 32502"><path class="cls-1" d="M201,369.12c-5.84,17.33-5.25,36.13-1.75,54.34.68,3.6,1.36,7.88-1.36,10.51s-8.08,2.24-11.3-.29-4.57-6.52-4.86-10.22c-.49-6.14,1.36-12.27-.1-18.31-.68-2.83-2.14-5.45-3.31-8.18a69.49,69.49,0,0,1-3.7-48.2,50,50,0,0,0,22.39,6Z"/></g></mask><mask id="mask-29" x="139.43" y="160.55" width="130.42" height="96.4" maskUnits="userSpaceOnUse"><g id="mask28_1722_32502" data-name="mask28 1722 32502"><path class="cls-1" d="M189.58,161.8c-5.84-1.26-13.83-1.85-19.67-.39-7.11,1.76-13.34,6.33-18.21,11.79S143,185,139.43,191.31c10.13.68,17.82,10.52,27.85,11.29a12.79,12.79,0,0,0-5,11.11c.09,1.65.58,3.31.58,5.06,0,2.92-1.17,5.74-2.14,8.57a37,37,0,0,0-1.07,17.53c4,.39,7,3.6,10.32,5.94,8.56,6,19.86,6.23,30.37,6.13,10.23-.1,20.45-.1,30.77-.19a29.83,29.83,0,0,0,8.28-.78,31.37,31.37,0,0,0,5.74-2.63c4.77-2.63,9.54-5.16,14.32-7.79-2.44-6.62-10.52-23.57-12-30.38,3.7.29,13.83,10.61,16.84,8.56,3.32-2.23,4.48-6.52,5.46-10.41.87-3.51-12.17-38.18-17.63-44.12-3.7-4-9.44-5.35-14.89-5.25s-10.81,1.46-16.17,1.94a50.69,50.69,0,0,1-18.4-1.85Z"/></g></mask><mask id="mask-39" x="139.43" y="156.64" width="130.42" height="100.31" maskUnits="userSpaceOnUse"><g id="mask38_1722_32502" data-name="mask38 1722 32502"><path class="cls-1" d="M189.58,161.8c-5.84-1.26-13.83-1.85-19.67-.39-7.11,1.76-13.34,6.33-18.21,11.79S143,185,139.43,191.31c10.13.68,17.82,10.52,27.85,11.29a12.79,12.79,0,0,0-5,11.11c.09,1.65.58,3.31.58,5.06,0,2.92-1.17,5.74-2.14,8.57a37,37,0,0,0-1.07,17.53c4,.39,7,3.6,10.32,5.94,8.56,6,19.86,6.23,30.37,6.13,10.23-.1,20.45-.1,30.77-.19a29.83,29.83,0,0,0,8.28-.78,31.37,31.37,0,0,0,5.74-2.63c4.77-2.63,9.54-5.16,14.32-7.79-2.44-6.62-10.52-23.57-12-30.38,3.7.29,13.83,10.61,16.84,8.56,3.32-2.23,4.48-6.52,5.46-10.41.87-3.51-12.17-38.18-17.63-44.12-3.7-4-9.44-5.35-14.89-5.25s-10.81,1.46-16.17,1.94a50.69,50.69,0,0,1-18.4-1.85Z"/></g></mask><clipPath id="clip-path"><rect class="cls-2" x="190.04" y="73.11" width="68" height="53"/></clipPath><clipPath id="clip-path-2"><rect class="cls-2" x="198.04" y="85.11" width="51" height="26"/></clipPath></defs><title>Asset 2</title><g id="Layer_2" data-name="Layer 2"><g id="Layer_1-2" data-name="Layer 1"><rect class="cls-3" width="390.04" height="475.11"/><path class="cls-4" d="M390,102.46V277.61c-10.7,17.62-22.69,34.78-33.47,52.06q-3.3,5.28-6.42,10.59l-1.47,2.52h0c-.24.41-.48.83-.71,1.25s-.6,1-.9,1.58q-1.27,2.26-2.5,4.53-1.86,3.44-3.59,6.9c-.65,1.29-1.28,2.58-1.9,3.87q-2.41,5.08-4.82,10.19-3,6.24-5.91,12.48c-16.65,35-34.54,69.15-64.08,91.52H122.9c-13.32-10.51-25.42-23.8-36.54-38.82q-2.46-3.3-5-6.59-7-9.27-14.16-18.43-1.53-2-3.08-3.94-2.86-3.66-5.75-7.31l-.92-1.15c-.25-.33-.51-.65-.77-1Q51.25,391,45.73,384L35.46,371.11l-3.16-4q-5.44-6.9-10.84-13.84l-1.32-1.69-.05-.06c-2.41-3.11-4.82-6.24-7.2-9.37Q6.35,333.6,0,324.93V165.52A328.93,328.93,0,0,1,22,137c20.74-24.36,43.53-46.84,63.38-72,22.68-28.58,43.94-57.06,82.36-63.12,44.78-7.16,96.56,6.6,141.86,32.61C338.54,51.2,368.48,74.16,390,102.46Z"/><rect class="cls-5" x="0.04" y="371.11" width="390" height="104"/><path class="cls-6" d="M21,237.57c2.77,1.33,5.61,3.38,6.64,6.21.72,2.05.31,4.43.53,6.6a20,20,0,0,0,1.75,7c.65,1.32,1.52,2.7,1.53,4.23s-1.51,3.08-2.94,2.64a4.72,4.72,0,0,1-1.81-1.94,7.37,7.37,0,0,0-6-3.35c-1.4-.08-2.76.21-4.15.13a3.87,3.87,0,0,1-3.34-1.93,3.91,3.91,0,0,1-.09-2.26c.51-5,1-9.91,1.76-14.82Z"/><path class="cls-7" d="M29.18,225.61a58.78,58.78,0,0,1-4.12,6.86q-1.35,2.17-2.53,4.39L21.9,238c-.51,1-1,2-1.51,3,0,0,0,0,0,0a1.14,1.14,0,0,0-.1.19c-.49,1-1,2-1.46,3h0l-.06.12c-1.12,2.13-2.87,3.51-3.67,5.7a6.4,6.4,0,0,0-.2.62l.27,0h0a5.82,5.82,0,0,1,1.9.83,6.6,6.6,0,0,1,2.57,2.68,2.87,2.87,0,0,1-.1,1.81,2.36,2.36,0,0,1-1.4,1.46,5.08,5.08,0,0,1,1.1,0,3.45,3.45,0,0,1,.77.18,2.91,2.91,0,0,1,1.47.94,1.9,1.9,0,0,1,.23.39,2.25,2.25,0,0,1,.14,1.21,2.09,2.09,0,0,1-.47,1.12,3.11,3.11,0,0,1,.91,0h0a3.1,3.1,0,0,1,2.35,1.75h0a2,2,0,0,1,.11.35,2.69,2.69,0,0,1-.51,2.15A2.9,2.9,0,0,1,21.9,267a3.33,3.33,0,0,1,2,1.17,1.1,1.1,0,0,1,.18,1,1.28,1.28,0,0,1-.36.5h0a3.9,3.9,0,0,1-1.78.67c-1.22.2-2.66.34-3.89.54H18c-2.06.36-4.32.64-6.21-.25s-3.27-3.32-2.32-5.16a.76.76,0,0,1,.09-.18l-.28,0a3,3,0,0,1-1.88-4.59c-2.91-1.25-3.48-6.09-.82-8A4.28,4.28,0,0,1,6,249.75a17.09,17.09,0,0,1,1.76-2.08,5.31,5.31,0,0,0,.43-3c0-2.12-.09-4.38-.18-6.64-.14-4.15-.41-8.23-2-11.87A34.18,34.18,0,0,0,0,217.83V194.44a6,6,0,0,0,.77-.58c1.74-1.49,2.69-3.63,4.35-5.26s4.47-2.65,6.11-1L16.5,192c6.25,3.17,12.17,6.75,14.24,13.34A26.91,26.91,0,0,1,29.18,225.61Z"/><path class="cls-8" d="M8.22,259c3.85,1.22,7.64-1,10.88-2.86a.71.71,0,0,1,.9.21.7.7,0,0,1-.2.89c-3.52,2-7.67,4.29-12,3a.61.61,0,0,1-.52-.83A.79.79,0,0,1,8.22,259Z"/><path class="cls-8" d="M10,264.21A16.44,16.44,0,0,0,19.34,262a15,15,0,0,0,2.24-1.61.69.69,0,0,1,.9.2.6.6,0,0,1-.2.9,17.94,17.94,0,0,1-9.38,4c-.94,0-2,.13-3,.15a.77.77,0,0,1-.79-.65C9.23,264.51,9.55,264.11,10,264.21Z"/><path class="cls-8" d="M11.56,267.27a16.69,16.69,0,0,0,10.82-2,.71.71,0,0,1,.9.21.7.7,0,0,1-.2.89,18.84,18.84,0,0,1-11.82,2.29c-.36,0-.63-.37-.53-.82A1.07,1.07,0,0,1,11.56,267.27Z"/><path class="cls-8" d="M16.31,251.72c-.81-.06-1.71-.27-2.52-.33-.45-.1-.75-.88-.34-1.14,3.08-2.72,6-5.95,7.16-9.94a13.65,13.65,0,0,0,.56-3.06.77.77,0,0,1,.65-.79.79.79,0,0,1,.8.65,17.37,17.37,0,0,1-5.12,11.34c-.92,1-1.93,1.81-2.71,2.69,0-.36-.3-.77-.34-1.13.81.06,1.71.26,2.52.33.36,0,.62.37.52.82A1.21,1.21,0,0,1,16.31,251.72Z"/><path class="cls-8" d="M8.1,251.52a3.8,3.8,0,0,1,3.17-.46.69.69,0,1,1-.3,1.34l-.22-.05-.23,0c-.22-.05-.36,0-.58,0l-.14.09h0c-.14.08-.14.08-.36,0s-.36,0-.64.21l.14-.08-.28.17a.7.7,0,0,1-.89-.2A1.1,1.1,0,0,1,8.1,251.52Z"/><path class="cls-8" d="M11,234.62a8.74,8.74,0,0,1,6.53-1.25.69.69,0,0,1-.3,1.35,6.85,6.85,0,0,0-5.53,1C11.05,236.15,10.35,235.05,11,234.62Z"/><path class="cls-8" d="M5.64,191.55A3.82,3.82,0,0,1,8.08,189a3.68,3.68,0,0,1,3.37.76.63.63,0,0,1,0,1,.62.62,0,0,1-1,0l-.09-.14c-.09-.13-.22-.05-.31-.18l-.45-.11a.16.16,0,0,0-.22-.05l-.23-.05a.15.15,0,0,1-.22,0c-.14.09-.23-.05-.36,0l-.14.09-.28.17h0l-.13.09-.28.17-.13.09c-.14.08-.19.31-.33.4s-.05.22-.19.31l0,.22a.6.6,0,0,1-.82.52C5.72,192.27,5.45,191.86,5.64,191.55Z"/><path class="cls-9" d="M110.05,409.22c-1.46,5.2-1.3,12,1.63,16.57s13.2,10.55,18.74,11.37a212.36,212.36,0,0,1-40.57-.49,2.73,2.73,0,0,1-1.63-.49c-.48-.32-.48-1-.65-1.62A112.13,112.13,0,0,1,87.41,406c6.84,1,13.68,1.63,20.69,1.95Z"/><path class="cls-9" d="M30.23,406.46c1.47,5.2,1.3,12-1.63,16.57S15.41,433.58,9.87,434.39a211.44,211.44,0,0,0,40.56-.48,2.73,2.73,0,0,0,1.63-.49c.49-.32.49-1,.65-1.62a112.59,112.59,0,0,0,.17-28.59c-6.85,1-13.69,1.63-20.69,2Z"/><path class="cls-1" d="M29.58,425c.65,1.94,3.26,2.27,4.72,1.13a3.92,3.92,0,0,0-.32-5.68c-1-.65-2.28-.65-2.77.49a2,2,0,0,0,.65,2.59,3.39,3.39,0,0,0,3.26.49,3.21,3.21,0,0,0,2.44-2.11,3.66,3.66,0,0,0-.81-3.57,8.07,8.07,0,0,0-3.42-2.11c-.17-.17-.49,0-.66.16a1,1,0,0,0-.16.65,3.85,3.85,0,0,0,3.91,3.08,3.75,3.75,0,0,0,3.26-3.89.7.7,0,0,0-.65-.65.69.69,0,0,0-.65.65,2.21,2.21,0,0,1-4.4.48l-.82.81c1.47.49,3.1,1.3,3.26,2.93a1.42,1.42,0,0,1-.81,1.62,2.6,2.6,0,0,1-2.12.49,1.23,1.23,0,0,1-.82-.33l-.16-.16v-.81s.16-.16,0-.16h.33c.65.16,1,1,1.14,1.62a2.26,2.26,0,0,1-.33,1.79.34.34,0,0,1-.32.32h-.17s-.16.17-.16,0a1.64,1.64,0,0,1-.49.17h-1s-.16-.17-.16,0a.16.16,0,0,1-.16-.17c.16.17-.16,0,0,0l-.16-.16v-.32c0,.16-.17-.17,0,0-.17-.33-.49-.65-.82-.49C29.58,424.33,29.42,424.65,29.58,425Z"/><path class="cls-1" d="M44.73,413.44a1.78,1.78,0,0,0-.33,2.44A3.48,3.48,0,0,0,47.66,418c1.31-.16,2.61-1.62,2.12-2.92a3.25,3.25,0,0,0-1.3-1.63,4.48,4.48,0,0,0-2.45-.81,2.1,2.1,0,0,0-2,1.46Z"/><path class="cls-1" d="M109.4,427.41c-.16.16-.16.16-.16.33l-.16.16-.17.16s-.16.16-.16,0h-1.3a.16.16,0,0,1-.16-.16h-.17c.17.16-.16,0,0,0a2.09,2.09,0,0,1-.65-1.63,2,2,0,0,1,.82-1.78c.16-.16.32-.16.48-.33h.49c-.16-.16,0,0,0,.17v.81s-.16.16,0,.16l-.16.16a.51.51,0,0,1-.33.16c-1.14.49-3.25-.16-3.42-1.62a3.07,3.07,0,0,1,.17-1.14,3.23,3.23,0,0,1,.65-1,7,7,0,0,1,2.44-1.3l-.81-.81a2.33,2.33,0,0,1-2.45,2,2.45,2.45,0,0,1-1.95-2.44.71.71,0,0,0-.65-.65.7.7,0,0,0-.65.65,3.62,3.62,0,0,0,3.25,3.9,3.73,3.73,0,0,0,3.91-3.09c0-.32,0-.48-.16-.65s-.49-.32-.65-.16a9.66,9.66,0,0,0-3.1,1.79,4.37,4.37,0,0,0-1.3,2.92,3.06,3.06,0,0,0,1.79,2.6,4.53,4.53,0,0,0,3.26.32,2.24,2.24,0,0,0,1.63-2.27,1.81,1.81,0,0,0-2.28-1.62,3.19,3.19,0,0,0-2.12,2.43,3.72,3.72,0,0,0,.49,2.93,2.74,2.74,0,0,0,2.77,1.29A2.62,2.62,0,0,0,111,427.9a.61.61,0,0,0-.49-.81C109.89,426.76,109.57,426.92,109.4,427.41Z"/><path class="cls-10" d="M25.18,246.81c-5.37,6.49-6.51,16.24-7.33,25.33Q12.22,333.79,11,395.58c-.16,4.71,0,9.91,2.61,13.48,2,2.6,4.88,3.73,7.65,4.55a68.58,68.58,0,0,0,33.89,1.13c2-.48,4.07-1,5.7-2.43,4.72-3.9,4.89-12.18,4.89-19a261.11,261.11,0,0,1,11.56-78.77q-2.93,40-2.93,80.4c0,6,.49,13,4.4,16.56,2.6,2.28,6,2.6,9.12,2.6a90,90,0,0,0,36.49-7.79c1.79-.81,3.58-1.63,4.56-3.41,1.14-1.63,1.31-3.9,1.63-6,5.21-42.72,10.43-86.08,5.7-128.8-.81-7.14-2.12-14.94-6.68-19.49-5.21-5.35-12.87-4.54-19.71-3.89a249.35,249.35,0,0,1-75.26-3.25c-4.24-.81-10.26,0-10.43,5.2Z"/><g class="cls-11"><path class="cls-1" d="M39.52,233.33A1656.57,1656.57,0,0,0,12.64,423.19a5,5,0,0,0,.49,3.41c2.12,3.57,8-1,11.56.81-2-26.31,6.19-52.13,11.57-78,2.93-13.8,4.89-27.77,7-41.74l12.21-83.32Z"/></g><g class="cls-12"><path class="cls-1" d="M69.82,228.78a1679.67,1679.67,0,0,0-27.21,187.1c-.16,2.6-.32,5.68,1.79,7.47,2.28,1.95,6,.81,8-1.62,1.79-2.44,2.28-5.53,2.6-8.61q11-97.2,22.16-194.25Z"/></g><g class="cls-13"><path class="cls-1" d="M85.29,225.69C81.06,289,74.87,352.38,66.72,415.39c-.65,5.36-1.3,10.72.33,15.92,1.63,5,6.35,9.58,11.73,9.26a20.36,20.36,0,0,0,2-6.83A1448.26,1448.26,0,0,0,100.93,225Z"/></g><g class="cls-14"><path class="cls-1" d="M107.94,229.75A948.15,948.15,0,0,1,106.47,429c-.32,3.58-.32,8.12,3.1,9.42,4.39,1.79,7.65-4.22,8.63-8.77,12.87-63.5,13-128.95,13-193.75V206.69Z"/></g><path class="cls-1" d="M95.56,416a1.76,1.76,0,0,1,.32,2.44,3.46,3.46,0,0,1-3.26,2.11c-1.3-.16-2.6-1.62-2.11-2.92a3.25,3.25,0,0,1,1.3-1.63,4.45,4.45,0,0,1,2.44-.81,2.11,2.11,0,0,1,2,1.46Z"/><path class="cls-15" d="M162.54,209.67c0,.24,0,.49-.08.73s0,.24,0,.36l-.06.44a29.72,29.72,0,0,1-1.64,6.41,24.11,24.11,0,0,1-5.42,8.45c-.2.21-.4.41-.61.6a19.32,19.32,0,0,1-5.88,3.73,15.27,15.27,0,0,1-9.27.82c-.33,5.36-.81,10.88-1.3,16.41-.17,1.62-.33,3.41-1.63,4.54a5.27,5.27,0,0,1-2.77,1.14c-.31.06-.62.13-.93.18-.56.12-1.12.22-1.69.31a66.43,66.43,0,0,1-18.56.49c-.88-.08-1.76-.18-2.65-.3-3.3-.43-6.64-1-10-1.28a33.94,33.94,0,0,0-4.28,0,49.58,49.58,0,0,0-12.54,2.46c-3.53,1.09-7,2.34-10.53,3.35a48.16,48.16,0,0,1-8.91,1.78,26.86,26.86,0,0,1-6.14-.12,28.86,28.86,0,0,1-7.07-2c-5-2-9.55-5.16-14.3-8A57.88,57.88,0,0,0,28,246c-.93-.37-1.89-.7-2.86-1l-.65-.15h0a5.73,5.73,0,0,1-3.25-1.64.53.53,0,0,1-.1-.12,4.08,4.08,0,0,1-.88-1.82.43.43,0,0,1,0,0,16.16,16.16,0,0,1-.31-2.07c0-.38-.08-.76-.12-1.14-1.25-10.42-6.4-19.75-2-31.67A147,147,0,0,1,0,201.76V167.13c7.22-8.21,15.54-15.59,23.71-23,4.24-3.57,8.48-7.47,13.85-8.93s10.92-.49,16.29-.49a53,53,0,0,0,16.5-2.54c.53-.17,1.06-.36,1.58-.55l4.57-5.84c.81-.17,1.46-.49,2.28-.65,1.9,6,8,9,14.11,10.94l1.24.39c.81.25,1.61.47,2.4.69,4,1,7.82,2.1,11.72,3.15l.77.22,1.18.31.07,0,3.2.84h0c3.25.82,6.35,1.63,9.12,3.41,3.91,2.44,6.35,6.34,9.12,9.91,5.18,6.79,11.18,12.78,16.5,19.31q.63.75,1.23,1.53c.12.14.23.29.35.44l.2.26A76.94,76.94,0,0,1,158,189h0c.15.29.3.58.44.87h0l.63,1.35a44.75,44.75,0,0,1,2.54,7.24c.15.6.28,1.21.41,1.82,0,.24.09.47.13.71s0,.31.07.47A31.67,31.67,0,0,1,162.54,209.67Z"/><path class="cls-7" d="M72.26,136c-1.3,5-3.58,11.86-2.93,17.06s3.74,10.55,8.63,12.18c4.24,1.46,9,.16,12.55-2.6A25.69,25.69,0,0,0,98,151.8c.16-.49.49-1.14.32-1.63a4.72,4.72,0,0,0-1.14-1.95A39.73,39.73,0,0,0,75.36,137.5Z"/><path class="cls-7" d="M83,104.53c-1.3,3.58-4.72,10.56-6,14.3.32-2.44-3.1-3.58-5.22-2.6-3.91,1.78-5,7.63-2.12,10.72a7.42,7.42,0,0,1,1.14,1.3,4,4,0,0,1-.16,2.76,26.05,26.05,0,0,0,7,24.85,11,11,0,0,0,4.4,2.92,10.67,10.67,0,0,0,4.56.33c8-1,13.68-8.13,18.08-15,0,1.46,1.63,2.6,3.26,2.44a6.09,6.09,0,0,0,3.74-2.27c1.47-1.63,2.61-3.58,2.28-5.69-.16-2.11-2.11-4.06-4.23-3.73,2.28-5.53,4.72-11,7-16.41Z"/><path class="cls-7" d="M138.73,195.32l-29.33,1.47c1.63-6.5-1.79-13.16-6.19-18.2a14,14,0,0,0-4.88-3.89c-2.12-1-4.57-.82-7-.82a10.3,10.3,0,0,0-3.75.65,1.81,1.81,0,0,0,.17,3.42c1.3.32,8.47,1.62,9.77,1.62-1.47-.16-9-1.46-10.42-1.14a1.87,1.87,0,0,0-.33,3.58l10.1,3.24c-3.42-.81-6.84-1.46-10.1-2.11-1.47-.32-3.58.16-3.26,1.63a.89.89,0,0,0,.49.81c3.26,3.57,9.29,4.06,11.57,8.28-3.91-.81-5-.49-9-1H86c-2.12.32-1.63,3.08-.33,4.38,3.26,2.93,6,1.14,9,4.23,2.77,3.08,1.63,8.12,4.4,11.2,1.46,1.79,3.91,2.44,6,3.25,5.7,2.27,10.75,6,16.45,8.12,6.84,2.6,14.17,2.92,21.5,3.25a12.12,12.12,0,0,0,4.24-.33c2-.65,3.26-2.43,4.23-4.22,3.26-6,3.1-13.15,2.94-20A18.33,18.33,0,0,0,138.73,195.32Z"/><path class="cls-6" d="M70.63,143.35c1.3,5,5.54,9.26,10.27,11.53a18.5,18.5,0,0,0,15,.65,15.87,15.87,0,0,1-11.73,4.22,11.93,11.93,0,0,1-9.93-7C72.75,149.68,70.79,146.44,70.63,143.35Z"/><path class="cls-16" d="M24.86,178.43a.79.79,0,0,1-1,.32,22.61,22.61,0,0,0-5.21-2.59A36.67,36.67,0,0,0,8.4,174.37c-2.8-.13-5.59-.05-8.4.06v-1.55c1.21-.08,2.42-.14,3.68-.14a61.68,61.68,0,0,1,10.91.82,26.61,26.61,0,0,1,9.94,3.89A.79.79,0,0,1,24.86,178.43Z"/><path class="cls-16" d="M7.59,170.31c4.07,1.3,8,2.6,12.05,4.06a.63.63,0,0,0,.82-.49c.16-.32-.17-.65-.49-.81-3.91-1.46-8-2.92-12.06-4.06C7.1,168.69,6.77,170,7.59,170.31Z"/><path class="cls-16" d="M38.05,137.83a60.31,60.31,0,0,1-.81,15.27,129,129,0,0,1-3.91,15.1c-.82,2.76-1.8,5.52-2.77,8.28a.62.62,0,0,0,.49.82c.32.16.65-.17.81-.49,1.63-4.87,3.42-9.91,4.72-14.94a80.26,80.26,0,0,0,2.77-15.27,75.47,75.47,0,0,0,0-8.77.69.69,0,0,0-.65-.65C38.38,137,38.05,137.34,38.05,137.83Z"/><path class="cls-16" d="M123.25,148.71h0a.5.5,0,0,1,.32.16c.17.17.17.33.33.49a1.26,1.26,0,0,0-.33.65h-.48l-.33-.32v.16c0,.16,0,.16.16.32,0,.16.17.33.17.49.16.32.16.81.32,1.14.16.81.33,1.46.49,2.27a38.28,38.28,0,0,1,.49,4.39c.16,3.08,0,6.17,0,9.25a58.67,58.67,0,0,0,.49,9.26,54.88,54.88,0,0,0,2.28,8.93,83.92,83.92,0,0,0,4.24,9.75.73.73,0,0,0,1.3-.65c-2.77-5.85-5.54-12-6.35-18.52-.82-6.33,0-12.83-.49-19.32a30.89,30.89,0,0,0-.82-5.36c-.16-.49-.16-.82-.32-1.3s-.17-1-.49-1.3a.77.77,0,0,0-1.31,0,.73.73,0,0,0,.65,1.13.7.7,0,0,0,.66-.64C123.9,149,123.57,148.71,123.25,148.71Z"/><path class="cls-16" d="M76.82,203c.16,6.66.16,13.31,0,20.14-.16,6.66-.32,13.31-.65,20-.16,3.74-.49,7.47-.65,11.21a.65.65,0,0,0,1.3,0c.49-6.66.82-13.32,1.14-20.14.16-6.66.33-13.32.33-20,0-3.73,0-7.47-.17-11.2C78.29,202.14,76.82,202.14,76.82,203Z"/><path class="cls-16" d="M83.5,237.06a1.62,1.62,0,0,0-.81,2.44,2,2,0,0,0,2.77.81,3.14,3.14,0,0,0,2.11-2.76,2.29,2.29,0,0,0-2.11-2.27,2,2,0,0,0-1.63.81,2,2,0,0,0-.49,1.95.61.61,0,0,0,.81.48.88.88,0,0,0,.49-.81v-.16h0v-.32a.6.6,0,0,0,.16-.33.16.16,0,0,1,.17-.16.16.16,0,0,0,.16-.16h.65c.17,0-.16-.17,0,0H86l.16.16a.16.16,0,0,0,.16.16v.16c.16.17,0-.16,0,0v1c0,.16-.16.16-.16.32v.16l-.16.17-.17.16a.16.16,0,0,0-.16.16.56.56,0,0,1-.33.16c.17,0-.16.17,0,0H84c.16.17.16,0,0,0l-.16-.16c.16,0,0,.16,0,0v-.65h0v-.16c.16-.16-.17,0,0,0,.32-.16.65-.49.49-.81A.6.6,0,0,0,83.5,237.06Z"/><path class="cls-16" d="M84.32,212.86a2.18,2.18,0,0,0,1,2.28,2,2,0,0,0,2.45-.33,3.4,3.4,0,0,0,.81-2.43,2.42,2.42,0,0,0-1.79-2.11,1.66,1.66,0,0,0-1.63.64,1.21,1.21,0,0,0,0,1.47.79.79,0,0,0,1,.32.77.77,0,0,0,.32-1v-.17l.17-.16h.32l.17.16s0,.17.16.17v1.46a.16.16,0,0,1-.16.16l-.17.16-.16.17H85.62l-.16-.17-.17-.16v-.49a.61.61,0,0,0-.49-.81C84.8,212.38,84.48,212.54,84.32,212.86Z"/><path class="cls-16" d="M25.67,237.71c6.52,3.74,13,7.8,19.71,11.37,6.19,3.25,12.71,6.17,19.55,7.15a30,30,0,0,0,10.1-.16,63.11,63.11,0,0,0,9.61-2.28c6.35-1.95,12.54-4.38,19.22-5.2a37.41,37.41,0,0,1,10.43.33c3.58.65,7.17,1.62,10.92,2.6a16.23,16.23,0,0,1,2.76.65c.82.16,1.31-1.14.33-1.3-7.17-1.46-14.17-4.06-21.5-3.74-6.68.17-13,2.44-19.23,4.55-6.35,2.11-12.7,4.06-19.38,3.74-7-.33-13.52-2.93-19.71-6.18-3.1-1.62-6.19-3.41-9.29-5.19-3.42-2-6.84-3.9-10.1-5.85-.81-.49-1.63-1-2.61-1.46C25.67,236.09,24.86,237.23,25.67,237.71Z"/><path class="cls-16" d="M140,191.75c4.4.65,9.12,1.46,12.7,4.22a9.77,9.77,0,0,1,3.59,4.55,16.13,16.13,0,0,1,.65,6.82c-.16,2.93-.33,5.69-.65,8.61a.7.7,0,0,0,.65.65.71.71,0,0,0,.65-.65l.49-8a22.31,22.31,0,0,0-.49-7.31c-1.3-4.38-5.21-7.14-9.28-8.6a34.31,34.31,0,0,0-8.15-1.79c-.32,0-.81.16-.81.49S139.7,191.75,140,191.75Z"/><path class="cls-16" d="M153.87,221.47c-.81,1.14-1.63,2.28-2.6,3.41a.78.78,0,0,0,.32,1c.33.16.65,0,1-.33.82-1.13,1.63-2.27,2.61-3.41a.78.78,0,0,0-.33-1A2.4,2.4,0,0,0,153.87,221.47Z"/><path class="cls-16" d="M130.25,229.59a8.79,8.79,0,0,0,8,2.93.63.63,0,0,0,.49-.82.91.91,0,0,0-.82-.48,7.12,7.12,0,0,1-6.52-2.6.6.6,0,0,0-1,0A.76.76,0,0,0,130.25,229.59Z"/><path class="cls-16" d="M141,188.18c3.74,1.3,7.65,2.43,11.4,3.73a.67.67,0,0,0,.33-1.3c-3.75-1.3-7.66-2.43-11.41-3.73a.62.62,0,0,0-.81.48C140.35,187.69,140.68,188,141,188.18Z"/><path class="cls-16" d="M70.79,160.08a14.23,14.23,0,0,1-3.25-10.39.7.7,0,0,0-.65-.65H59.23a3.58,3.58,0,0,0,.65.81,16.35,16.35,0,0,1,5.7-8.29A7.85,7.85,0,0,1,68,140.1a.66.66,0,1,0-.66-1.13,17.79,17.79,0,0,0-7.49,7.63,22,22,0,0,0-1.14,2.92c-.33.33,0,.82.49.82h7.66l-.66-.65a15.22,15.22,0,0,0,2,9.25,20.13,20.13,0,0,0,1.63,2.28.61.61,0,0,0,1,0A.93.93,0,0,0,70.79,160.08Z"/><path class="cls-16" d="M89.85,166.58a22.77,22.77,0,0,0,9.78-6.83h-1a14.81,14.81,0,0,1,2.44,3.74.66.66,0,0,0,.66.33c.32,0,.49-.17.65-.49a26.51,26.51,0,0,0,1.79-11.7.71.71,0,0,0-.65-.65.7.7,0,0,0-.65.65,24.62,24.62,0,0,1-1.8,11.37c.49,0,.82-.16,1.31-.16a21.39,21.39,0,0,0-2.61-4.06.62.62,0,0,0-1,0,21,21,0,0,1-9.12,6.33c-.32.17-.65.49-.49.82C89,166.58,89.37,166.74,89.85,166.58Z"/><path class="cls-17" d="M84.15,257.53q-.74,9.74-1.46,19.49c-.17,3.25-.49,6.49-.65,9.74-.17,1.63-.17,3.25-.33,4.71a17.35,17.35,0,0,1-.82,4.22c-.81,2.44-2.76,5-5.37,5.2l.65.65c.16-4.87.16-9.74.16-14.62s-.16-9.74-.16-14.45c0-2.76-.16-5.52-.33-8.28a.69.69,0,0,0-.65-.65.7.7,0,0,0-.65.65q.24,7.31.49,14.61c0,4.88.16,9.75,0,14.46,0,2.76,0,5.52-.16,8.28a.69.69,0,0,0,.65.65,7.68,7.68,0,0,0,6-4.38c1.46-2.76,1.46-6,1.79-9.1.49-6.66,1-13.48,1.46-20.14.33-3.73.49-7.47.82-11.2a.7.7,0,0,0-.65-.65A1.34,1.34,0,0,0,84.15,257.53Z"/><path class="cls-17" d="M76.17,302.19a66.13,66.13,0,0,1-.16,9.75.65.65,0,1,0,1.3,0,63.49,63.49,0,0,0,.16-9.75.7.7,0,0,0-.65-.65A.71.71,0,0,0,76.17,302.19Z"/><path class="cls-17" d="M68.51,303.49q9-.74,18.09-1c1.62,0,3.42-.17,5.05-.17.81,0,.81-1.46,0-1.46-6,.16-12.06.49-18.09.81-1.63.17-3.42.17-5,.33a.7.7,0,0,0-.65.65C67.86,303,68.19,303.49,68.51,303.49Z"/><path class="cls-17" d="M114.78,258.66a25,25,0,0,0,9,13.65,19.9,19.9,0,0,0,3.91,2.43.73.73,0,1,0,.65-1.3,22.14,22.14,0,0,1-10.75-11,18.83,18.83,0,0,1-1.47-4.22c-.16-.33-.49-.65-.81-.49A1,1,0,0,0,114.78,258.66Z"/><path class="cls-17" d="M127.48,259.64a202.9,202.9,0,0,1-.81,26.31c-.65,8.77-1.79,17.54-3.1,26.15q-1.95,13.15-3.91,26.31c-1.3,8.61-2.44,17.38-3.25,26.15a232.71,232.71,0,0,0-1.14,26.15,20.92,20.92,0,0,0,.16,3.24c0,.82,1.47.82,1.47,0a235.85,235.85,0,0,1,.65-26.31c.65-8.77,1.79-17.54,3.09-26.14q2-13.17,3.91-26.32c1.3-8.6,2.45-17.37,3.26-26.14A235.1,235.1,0,0,0,129,262.89a21,21,0,0,0-.16-3.25A.66.66,0,0,0,127.48,259.64Z"/><path class="cls-17" d="M38.54,256.72a42.6,42.6,0,0,1-9.45,8.44A30.84,30.84,0,0,1,26,267a.73.73,0,0,0,.66,1.3,40.48,40.48,0,0,0,10.42-7.8c.82-.81,1.63-1.79,2.45-2.76.16-.33.32-.65,0-1A.73.73,0,0,0,38.54,256.72Z"/><path class="cls-17" d="M27.62,251.84c-3.09,8.45-4.07,17.54-4.56,26.31-.65,9.59-1.14,19.33-1.46,28.91-.82,19.49-1.47,38.82-1.79,58.31-.17,10.88-.33,21.76-.33,32.64,0,.82,1.47.82,1.47,0,0-19.32.32-38.65.81-58s1.47-38.65,2.61-58c.65-10.07,1.14-20.3,4.72-29.88C29.25,251.36,27.79,251,27.62,251.84Z"/><path class="cls-17" d="M76.5,394.6a77,77,0,0,0,20.2,3.25,83.06,83.06,0,0,0,31.44-4.71c.32-.16.65-.49.49-.81s-.49-.65-.82-.49a82.8,82.8,0,0,1-39.75,3.9A64.13,64.13,0,0,1,77,393.3C76,393.14,75.52,394.44,76.5,394.6Z"/><path class="cls-17" d="M15.08,397.2a98.17,98.17,0,0,0,18.25,3.74,88.67,88.67,0,0,0,18.57,0c3.42-.33,7-1,10.42-1.63a.62.62,0,0,0,.49-.81A.9.9,0,0,0,62,398a98.84,98.84,0,0,1-18.25,2.12,98.58,98.58,0,0,1-18.24-1.63,76.49,76.49,0,0,1-10.1-2.6C14.59,395.74,14.27,397,15.08,397.2Z"/><path class="cls-17" d="M115.27,339.38a34.59,34.59,0,0,1,8.14,1.3c.82.33,1.3-1.13.33-1.3a38.37,38.37,0,0,0-8.64-1.46C114.45,337.92,114.45,339.38,115.27,339.38Z"/><path class="cls-17" d="M116.57,343.61h3.75A.71.71,0,0,0,121,343a.7.7,0,0,0-.65-.65h-3.75a.69.69,0,0,0-.65.65A.7.7,0,0,0,116.57,343.61Z"/><path class="cls-17" d="M17.69,340.2a12.8,12.8,0,0,1,5.54-.17c.32,0,.81-.16.81-.48a.63.63,0,0,0-.49-.82,14.09,14.09,0,0,0-6.35.33C16.38,339.06,16.87,340.36,17.69,340.2Z"/><path class="cls-17" d="M19.15,343.77a28.18,28.18,0,0,0,3.75-.16.71.71,0,0,0,.65-.65.7.7,0,0,0-.65-.65,28.18,28.18,0,0,0-3.75.16.7.7,0,0,0-.65.65A.71.71,0,0,0,19.15,343.77Z"/><path class="cls-17" d="M49.13,355.79a12.31,12.31,0,0,0-.17,4.87.71.71,0,0,0,.66.65c.32,0,.81-.33.65-.65a14.49,14.49,0,0,1,.16-4.55c0-.32-.16-.81-.49-.81C49.62,355.14,49.29,355.46,49.13,355.79Z"/><path class="cls-17" d="M54,353.51a6.66,6.66,0,0,0-.48,3.58.61.61,0,0,0,.81.48c.33-.16.65-.48.49-.81v-.32h0v-1h0v-.16c0-.16,0-.16.16-.33,0-.16,0-.16.16-.32a.16.16,0,0,1,.17-.16.66.66,0,0,0-.33-1A.55.55,0,0,0,54,353.51Z"/><path class="cls-17" d="M59.39,340.68a15.79,15.79,0,0,0-.49,3.9.66.66,0,0,0,1.31,0v-2.27a.6.6,0,0,1,.16-.49c0-.33.16-.65.16-1A.62.62,0,0,0,60,340C59.88,340,59.55,340.36,59.39,340.68Z"/><path class="cls-17" d="M91.81,369.27c.33,1.62.65,3.41.82,5a.62.62,0,0,0,.81.49.9.9,0,0,0,.49-.81c-.33-1.63-.65-3.41-.82-5a.61.61,0,0,0-.81-.48C91.81,368.46,91.65,368.78,91.81,369.27Z"/><path class="cls-17" d="M97.84,361.47a3.72,3.72,0,0,0-.49,2.6c.16.33.49.65.81.49s.65-.49.49-.81v-.65c0-.17.16-.49.16-.65v.16c0-.16.17-.33.33-.49a.31.31,0,0,0,0-.49c0-.16-.16-.32-.33-.48a.3.3,0,0,0-.48,0A1.21,1.21,0,0,0,97.84,361.47Z"/><path class="cls-17" d="M103.54,349.45a10.82,10.82,0,0,0-.33,4.55.63.63,0,0,0,.82.49.9.9,0,0,0,.49-.81,7.88,7.88,0,0,1,.32-3.9.61.61,0,0,0-.49-.81A.89.89,0,0,0,103.54,349.45Z"/><path class="cls-16" d="M53,206.69a155.85,155.85,0,0,1,16.61-3.9c5.22-.81,10.43-1.46,15.64-.81a24.92,24.92,0,0,1,8.15,2.44.65.65,0,0,0,1-.33.64.64,0,0,0-.32-1c-4.72-2.44-10.26-2.92-15.48-2.76-2.6.16-5.37.48-8,.81-2.93.49-5.7,1-8.47,1.62a91.3,91.3,0,0,0-9.45,2.6C51.73,205.72,52.22,207,53,206.69Z"/><path class="cls-16" d="M59.55,209.62a71.55,71.55,0,0,1,11.57-3.09A96.54,96.54,0,0,1,83,205.39c2.28,0,4.56.17,6.68.33a.7.7,0,0,0,.65-.65.69.69,0,0,0-.65-.65,73.46,73.46,0,0,0-12,0,71.53,71.53,0,0,0-11.9,2c-2.11.48-4.39,1.3-6.51,1.95-.33.16-.65.48-.49.81C58.74,209.62,59.07,209.78,59.55,209.62Z"/><path class="cls-8" d="M86.92,183c1.47,1,3.26,1.14,4.89,1.62a14.76,14.76,0,0,1,4.56,2.11,12.51,12.51,0,0,1,2.28,1.79.69.69,0,0,0,1-1,16.58,16.58,0,0,0-4.4-3.09,15.48,15.48,0,0,0-2.44-1,11.87,11.87,0,0,0-2.61-.65,7.35,7.35,0,0,1-2.61-1,.78.78,0,0,0-1,.33C86.43,182.33,86.6,182.82,86.92,183Z"/><path class="cls-8" d="M87.74,178.11c1.79,1,3.91.81,5.7,1.3a21.62,21.62,0,0,1,5.21,2.43c1,.65,1.79,1.3,2.77,1.95a.8.8,0,0,0,1-.32c.16-.33,0-.65-.33-1-1.63-1.13-3.26-2.27-4.89-3.25a14.08,14.08,0,0,0-2.77-1.13,17.89,17.89,0,0,0-2.93-.65,21.54,21.54,0,0,1-3.09-.65.66.66,0,0,0-1,.32C87.41,177.46,87.41,178,87.74,178.11Z"/><path class="cls-8" d="M101.75,181.68c-1,3.25-3.1,6-4.57,9.1-.32,1-.65,1.78-1,2.76,0,.32.16.81.49.81a.62.62,0,0,0,.81-.49c.65-3.41,2.93-6,4.4-9.09a20.65,20.65,0,0,0,1.14-2.76C103.38,181.19,102.07,180.87,101.75,181.68Z"/><path class="cls-8" d="M108.75,197.6l-2.93,6.33a.66.66,0,0,0,.33,1,.65.65,0,0,0,1-.33q1.47-3.17,2.93-6.33a.65.65,0,0,0-.32-1A.78.78,0,0,0,108.75,197.6Z"/><path class="cls-8" d="M150.62,211.56a15.18,15.18,0,0,1-1.31,6,.73.73,0,0,0,1.31.65,15.78,15.78,0,0,0,1.46-6.66C151.92,210.75,150.62,210.75,150.62,211.56Z"/><path class="cls-8" d="M107,142.86a33.34,33.34,0,0,1,5.21-2.92.78.78,0,0,0,.33-1c-.17-.33-.65-.33-1-.33a33.34,33.34,0,0,0-5.21,2.92.79.79,0,0,0-.33,1C106.31,142.86,106.63,143,107,142.86Z"/><path class="cls-8" d="M108.91,140.75c-.16.81-.16,1.63-.32,2.44,0,.16.16.32.16.49a.61.61,0,0,0,.49.16.6.6,0,0,0,.65-.65c.16-.81.16-1.63.33-2.44,0-.16-.17-.32-.17-.48a.58.58,0,0,0-.49-.17C109.24,140.1,109.08,140.43,108.91,140.75Z"/><path class="cls-8" d="M71.45,118.66a26.66,26.66,0,0,1-.33,5.2.7.7,0,0,0,.65.65.59.59,0,0,0,.65-.65c.17-1.78.33-3.57.33-5.2A.65.65,0,0,0,71.45,118.66Z"/><path class="cls-8" d="M70,121.59l.65.65c.16,0,.16.16.33.16s.32.16.49.16h.48c.17-.16.33-.32.33-.48v-.49c-.16-.16-.16-.33-.49-.33-.16,0-.16,0-.32-.16h.16c-.16-.16-.33-.16-.49-.32a.16.16,0,0,1,.16.16l-.32-.33a.62.62,0,0,0-.49-.16.61.61,0,0,0-.49.16.31.31,0,0,0-.16.49v.16C69.82,121.43,69.82,121.43,70,121.59Z"/><path class="cls-8" d="M93.6,129.38c-.16,2.44-.49,5-.81,7.47-.17.65-.17,1.3-.33,1.79,0,.33-.16.65-.16,1,0,.16-.17.32,0,.32,0-.16,0-.16.16-.16s.16-.16,0,0c-.16-.16-.33-.16-.65-.16-.33-.17-.49-.17-.65-.33-.49-.32-.82-.49-1.31-.81A11.15,11.15,0,0,1,87.57,136a.73.73,0,0,0-1.3.65,11,11,0,0,0,5.38,4.39,2.07,2.07,0,0,0,1,.16,1.36,1.36,0,0,0,.82-.81,1.8,1.8,0,0,0,.16-.81c0-.33.16-.82.16-1.14a36.2,36.2,0,0,0,.65-4.22c.17-1.63.33-3.25.49-4.71a.69.69,0,0,0-.65-.65C93.93,128.73,93.6,129.06,93.6,129.38Z"/><path class="cls-8" d="M83.66,137.5a4,4,0,0,0,3.75,4.06.69.69,0,0,0,.65-.65.7.7,0,0,0-.65-.65h-.49c-.16,0-.16,0-.32-.16h-.17c-.16,0-.16-.16-.32-.16,0,0-.17,0-.17-.16-.16-.16-.32-.33-.48-.33l-.17-.16c0,.16-.16-.16,0,0l-.16-.16a.56.56,0,0,1-.16-.33v-.16h0c0-.16-.17-.32-.17-.49h0v-.48a.69.69,0,0,0-.65-.65C84,136.85,83.66,137,83.66,137.5Z"/><path class="cls-8" d="M84.8,148.39c.17.16.17.16.17.32v1.14h0V150a.16.16,0,0,1-.17.16v.16h-1c-.17,0-.33.17-.49.33a.31.31,0,0,0,0,.49c0,.16.16.32.32.48a.3.3,0,0,0,.49,0,2.53,2.53,0,0,0,2-1.62,2.63,2.63,0,0,0-.65-2.6c-.33-.32-.82-.32-1,0A1.22,1.22,0,0,0,84.8,148.39Z"/><path d="M102.59,132.88a2.22,2.22,0,0,1-2.28,1.79,2.13,2.13,0,0,1-1-2.6c.32-1.13,1.3-1.95,2.28-1.62C102.43,130.45,102.92,131.59,102.59,132.88Z"/><path d="M86,125.92c-.32,1.14-1.3,2-2.28,1.63a2.15,2.15,0,0,1-1-2.6A2.24,2.24,0,0,1,85,123.16,2,2,0,0,1,86,125.92Z"/><path d="M110.22,135.56c-.65-.82-1.79.16-2.12,1.13s-1.3,2.11-2.12,1.46c-.16-.16-.33-.48-.49-.65a3.15,3.15,0,0,1,2.77-4.06,9.61,9.61,0,0,1-.65-3.73,3.19,3.19,0,0,1,2-3.09,4.71,4.71,0,0,0,1.62-.65c.49-.48.49-1.3.66-2.11a6.85,6.85,0,0,1,2.77-5c-2.94-.17-6.68-.65-7.5-3.58-.16,1-1.47,1.47-2.44,1.3a17.39,17.39,0,0,1-9.29-2.92A3.64,3.64,0,0,1,91,113a10.81,10.81,0,0,1-2.11-4.06c-2,1.14-5,0-5.54-2.27-1.31,3.41-2.77,7-4.08,10.39a3.16,3.16,0,0,1-1.46,1.79A1.5,1.5,0,0,1,76,117.69a5.49,5.49,0,0,1-.17-2.27c-1.14.16-2.44.16-3.58.32a2.79,2.79,0,0,1-1.14-.16c-.49-.33-.16-1.14.32-1.46a2.26,2.26,0,0,1,1.8-.17,7.57,7.57,0,0,1,.49-5.36c1-1.62,3.09-2.59,4.72-1.78a4.23,4.23,0,0,1,3.75-4.71A4.92,4.92,0,0,1,85,95.76a4.84,4.84,0,0,1,2.6-.65c2.12,0,4.24.17,5.87,1.47.65.48,1.14,1.3,2,1.46.49.16,1.14.16,1.63.32a5.55,5.55,0,0,1,3.58,2.44c.17.32.33.81.66,1a1.51,1.51,0,0,0,1.46,0,6.07,6.07,0,0,1,6,2.28c.82-1.3,2.93-1.14,4.24-.17s2,2.6,3.09,3.74c.49.49,1.14,1.62.49,1.95,1.79,0,2.77,2.27,3.09,4.06a7.91,7.91,0,0,1,.33,2.11,6.8,6.8,0,0,1-1.63,4.22c1,0,1.3,1.47,1,2.44a16.72,16.72,0,0,1-3.26,6.33,16.19,16.19,0,0,0-2,2.6c-.49,1.14-.49,2.44-1.14,3.58-.66,1-2.61,1.46-2.94.32Z"/><path d="M71.93,114.77a3.61,3.61,0,0,0-2.11,1,1.16,1.16,0,0,0-.49,1c0,.65.81,1.13,1.46,1.13s1.14-.48,1.8-1a2.27,2.27,0,0,0,2.28.32,2.67,2.67,0,0,0,1.79,3.41c-.65.17-1.14,1.14-.82,1.63a1.34,1.34,0,0,0,2,.32,1.51,1.51,0,0,0,.33-2c1,.49,2-.65,2-1.62.16-1-.16-2.11.16-3.09-.16.33.49.65.82.49.16-.16.16-.65.16-1,0-.49-.16-1-.16-1.47v-.32c0-.33.49-.49.81-.49a1.86,1.86,0,0,0,1-1.78,4.27,4.27,0,0,0-.49-2,1.2,1.2,0,0,0,1.14-1.63,2.11,2.11,0,0,0-2-1.3,2.49,2.49,0,0,0-2,1.14,4.18,4.18,0,0,0-1,3.09Z"/><path d="M114.13,117.69c0-.32-.49-.49-.82-.49A3.59,3.59,0,0,0,111,118a1.73,1.73,0,0,0,0,2.28c.33.32,1,.65.82,1.14a.35.35,0,0,1-.33.32,3.55,3.55,0,0,0-1.14,4.22c-1.14.33-2.28,1-2.28,2.11-.16.82.33,1.47.65,2.28.16.32.33.65.65.65a1,1,0,0,0,.65-.16,4.91,4.91,0,0,0,2-2.44c1-1.79,1.95-3.57,2.93-5.52,1-1.79,2-3.9,1.3-5.85Z"/><path d="M96.47,112.3a2,2,0,0,0-2.28-1,2.86,2.86,0,0,0-2,2.12,7.2,7.2,0,0,0-.49,3.73,3.39,3.39,0,0,0,1.79,2.44,2.54,2.54,0,0,0,2.61-.33c.65-.65,1-2,0-2.43a1.53,1.53,0,0,0-1.47,0,3.13,3.13,0,0,0-1.3.65,3.82,3.82,0,0,0-1.47,2.43A3.89,3.89,0,0,0,96,124.16a.33.33,0,1,0,0-.65,3.35,3.35,0,0,1-3.42-2.44,3.2,3.2,0,0,1,2.12-3.57,1,1,0,0,1,1.14,0c.33.16.16.65,0,1a1.63,1.63,0,0,1-1.79.81,2.44,2.44,0,0,1-1.63-1.46,4.43,4.43,0,0,1,0-2.92,3.65,3.65,0,0,1,1.3-2.44,1.31,1.31,0,0,1,1.79.33C96,113,96.64,112.79,96.47,112.3Z"/><path d="M90.67,120.61c.32.65-.33,1.47-1,1.79a5.31,5.31,0,0,1-2.28.16,8,8,0,0,0-2-.16,20.13,20.13,0,0,0-3.1.16c-.32,0-.65.16-1,0s-.32-.65-.32-1a1.92,1.92,0,0,1,.81-.81,7.4,7.4,0,0,1,8.15,0Z"/><path d="M100.48,123.14a1.56,1.56,0,0,0-.66,2,5.19,5.19,0,0,0,1.47,1.79c.49.48,1,.81,1.47,1.3a9.57,9.57,0,0,1,1.79,2.43,1.22,1.22,0,0,0,.65.65c.32.16.81-.16,1-.49a2.77,2.77,0,0,0,.16-1.13,7.32,7.32,0,0,0-5.38-6.17Z"/><path class="cls-1" d="M87.57,429.68a10,10,0,0,1,6.52,5.2,9.43,9.43,0,0,1,.82,2.28.61.61,0,0,0,.81.48.88.88,0,0,0,.49-.81,10.7,10.7,0,0,0-5.7-7.47,7.15,7.15,0,0,0-2.61-1c-.33,0-.81.16-.81.48A.61.61,0,0,0,87.57,429.68Z"/><path class="cls-1" d="M118.69,432a9.63,9.63,0,0,0-4.07,4.38.62.62,0,0,0,.48.82c.33.16.66-.17.82-.49v-.16c0-.17.16-.17.16-.33.16-.16.16-.32.33-.65.16-.16.16-.32.32-.49a.16.16,0,0,1,.17-.16c0-.16.16-.16.16-.32l.49-.49c.16,0,.16-.16.32-.16l.17-.16c.16-.17-.17,0,0,0a3.78,3.78,0,0,1,1.14-.65.78.78,0,0,0,.32-1C119.34,431.8,119,431.8,118.69,432Z"/><path class="cls-1" d="M51.57,426.44a7.34,7.34,0,0,0-7.33,4.38,6.92,6.92,0,0,0-.65,2.6.7.7,0,0,0,.65.65.69.69,0,0,0,.65-.65A5.58,5.58,0,0,1,47,429.36a6.31,6.31,0,0,1,4.4-1.46.7.7,0,0,0,.65-.65C52.22,426.76,51.9,426.6,51.57,426.44Z"/><path class="cls-1" d="M21.27,431.15a6.08,6.08,0,0,1,5.54,5.52.71.71,0,0,0,.65.65.7.7,0,0,0,.65-.65,7.36,7.36,0,0,0-7-6.82C20.29,429.69,20.29,431.15,21.27,431.15Z"/><path class="cls-18" d="M260.1,346.75c-2.48,12.26.82,24.85,2.31,37.45a152.38,152.38,0,0,1,1.16,21.2c5.12,2.65,11.73,5.31,16.52,1.83,2.31-20.55,13.88-39.77,13.22-60.48-10.25-3-21.15-6-31.73-3.81Z"/><path class="cls-18" d="M320.07,351.23c-1.32,5.13-.16,10.43,1.66,15.4s4.46,9.45,5.94,14.58c2.15,6.8,2.48,13.92,4.3,20.71a4.35,4.35,0,0,0,1,2,3.4,3.4,0,0,0,2.15,1.16,23.38,23.38,0,0,0,8.92.83,4.61,4.61,0,0,0,3-1.32,4.88,4.88,0,0,0,.66-2.16q3.46-24.85,4.46-50.2a65.77,65.77,0,0,0-28.92-3Z"/><path class="cls-15" d="M263.07,401.92a14.69,14.69,0,0,1,12.06-1.16c3.14,1,5.45,4,6.61,7.29,1.16,3.15,1.32,6.63,1.49,10.11,0,1.33.16,2.65.16,4a3.29,3.29,0,0,1-.33,1.82c-.33.5-.83.66-1.32,1.16-.83.83-.83,2.32-1,3.48-.5,2.48-2.65,4.47-5.12,5.47a15,15,0,0,1-7.61.66,14.24,14.24,0,0,1-6.27-1.66c-2-1.16-3.64-2.81-4-5-1.16-5.63,5-12.09,4.3-17.89Z"/><path class="cls-15" d="M331.14,401.26c-.66,5.8.33,11.1.66,16.9a7.55,7.55,0,0,0,1,4.31c1,1.49,2.47,2.15,3.47,3.64.82,1.16,1,2.49,1.65,3.65,2.15,4.8,8.59,6.46,13.71,5.13,3.64-.82,7.44-3.64,7.27-7.29,0-4.3-2.48-7.12-4.63-10.76-1.81-3.15-3.79-6.8-4.46-10.44-.49-3.65-2.64-7.62-6.27-8.12-3-.33-5.79,2-8.76,2.65Z"/><path class="cls-19" d="M256.62,271.7c-6.44,11.43-6.6,25.35-6.77,38.44v31.64c0,1.66,0,3.32,1,4.64,2.64,3.81,9.25.66,12.89,3.48,1.49,1.16,2.31,3.15,3.8,4.47,2.15,1.83,5.12,1.66,7.93,1.33,6.11-.66,18-1,24.12-1.66a3.27,3.27,0,0,0,1.82-.5,3.47,3.47,0,0,0,1.16-2.15c2.64-8.78,2.15-18.56,4.79-27.34,1.16,4.48,5.78,22.7,5.95,31.65,3.63-.5,1.65-.17,4.79,1.49,2.15,1,4.13,2.49,6.44,2.65a14,14,0,0,0,5.29-.83,72.06,72.06,0,0,1,27.92-1.65,158.14,158.14,0,0,0-.66-23.53c-.49-4-1-8.12-1.48-12.1-1.49-15.74-.17-31.64,1.32-47.38-7.44,1.49-14.87,3.15-22.47,3.31-8.76.33-17.52-1.32-26.27-2.48A294.47,294.47,0,0,0,261.42,273Z"/><path class="cls-20" d="M390,172.94v16.58Q381.61,195.9,373,202l-4.13,2.9-.2-.28-.8-1.17c-1-1.42-2-2.82-3-4.2l-2.49-3.47c-1.09,13.48-2.25,27-2.56,40.54-.11,4.68-.12,9.35,0,14h0c0,.37,0,.74,0,1.1s0,.56,0,.84,0,.4,0,.6c.09,2.16.2,4.32.36,6.48.08,1.23.17,2.46.28,3.69.5,5.8,1.16,11.6,2,17.23-2.09.48-4.19,1-6.29,1.44-10.84,2.41-21.8,4.37-32.87,3.53-5-.33-9.75-1.32-14.71-1.66-9.09-.66-18.34,1-27.43,1-7.28,0-15-1.28-21.09-5.12a23.86,23.86,0,0,1-4.19-3.33c-.33-.4-.67-.81-1-1.23h0a5.34,5.34,0,0,1-1-4.89A94.31,94.31,0,0,1,256.62,259c.37-1.41.72-2.8,1-4.23,0,0,0,0,0,0l.09-.51c.06-.31.12-.62.16-.94s.08-.43.1-.65.07-.44.1-.66h0c.09-.76.16-1.52.2-2.29a29.76,29.76,0,0,0-.08-3.41h0c-.05-.78-.14-1.56-.26-2.33-.08-.57-.18-1.13-.29-1.7-.16-.84-.35-1.7-.55-2.54a.08.08,0,0,1,0,0c-.66-2.62-1.53-5.21-2.45-7.8,0,0,0,0,0,0l-.26-.69c-.89-2.49-1.84-5-2.7-7.47-.5-1.41-1-2.86-1.36-4.34q-.47-1.71-.81-3.45c-.22-1.1-.39-2.22-.51-3.33-.58-5.27,0-10.53,2.68-15.06-1.51,2-3,3.91-4.52,5.81l-.08.1-.31.39-.78,1-2.24,2.82-6.09-5.48s0,0,0,0c-6.22-5.55-12.45-11-18.67-16.53l0,0a2.91,2.91,0,0,1-1.27-1.78,4.08,4.08,0,0,1,.66-1.82l1.7-3.07c2.3-4.13,4.67-8.23,7.16-12.25h0c.34-.55.68-1.1,1-1.65.51-.82,1-1.62,1.56-2.43,2.37-3.66,4.88-7.23,7.55-10.65.21-.29.44-.58.67-.86.57-.73,1.16-1.46,1.76-2.17.33-.41.66-.81,1-1.21q2.69-3.18,5.63-6.13c10.28-10.45,27.21-19.2,42.33-21.83.4-.08.8-.14,1.2-.2,1.49-.23,2.95-.4,4.39-.5l16.35.83a45.09,45.09,0,0,1,6.41-1.76l.32-.06a44.38,44.38,0,0,1,25,2.48c13.05,5.3,22.8,16.73,30.9,28.33C378.86,156.77,384,165.24,390,172.94Z"/><path class="cls-18" d="M219.78,185.05c-3.14,1.32-4.46,4.64-4.3,7.95s1.65,6.63,3,9.61l13.38,28.33c2.81,5.8,5.62,11.77,10.41,16.24a30.12,30.12,0,0,1,4.63,4.47c2.47,3.32,3.13,8.29,6.44,10.11.33.16.66,0,.66-.33a43.71,43.71,0,0,0-2-11.27,18.17,18.17,0,0,0,8.26,11.76c.33.17.66,0,.66-.33a17.26,17.26,0,0,0-4.63-11.1c1.49,2.65,3,5.14,4.46,7.79.67,1.32,2.48,2.65,3.31,1.66.16-.17.16-.17.16-.34a37.36,37.36,0,0,0-5.94-14.24,38.51,38.51,0,0,0,8.09,4.47,1.74,1.74,0,0,0,2.15-.5c.66-.66.33-1.49,0-2.15-2-3.32-6.28-4.47-8.76-7.29-2.47-2.65-3.3-6.46-5.94-8.95a34.26,34.26,0,0,0-4-2.65c-6.45-4.8-6.11-14.58-9.58-21.87-2.32-5-6.45-8.78-10.58-12.59C226.39,191,223.08,188,219.78,185.05Z"/><path class="cls-18" d="M390,188.83v8a574,574,0,0,1-25.85,68.76c-.5,1-1.65,2.16-2.48,1.5a22.3,22.3,0,0,1,.83-10.94,15.53,15.53,0,0,1-2.27,3.27,17.38,17.38,0,0,1-9.3,5.35q1-1.86,2.22-3.63v0c-1.05,1.16-2.11,2.26-3.22,3.32l-.33.33c-1.32-2.49,0-5.31,1.65-7.63s3.64-4.63,3.47-7.45a24.1,24.1,0,0,1-8.76,7c3.8-7.13,7.6-14.58,13.55-20.05l.25-.22a15.32,15.32,0,0,0,3.72-4.09,15.61,15.61,0,0,0,1.15-4.8c1-7.35,1.94-14.81,2.91-22.19.07-.6.15-1.2.23-1.79l.33-2.53.17,1A137.61,137.61,0,0,1,390,188.83Z"/><path class="cls-18" d="M283.89,78.51a112.91,112.91,0,0,0,.66,16.74,2.64,2.64,0,0,0-3.8-.17,6.13,6.13,0,0,0-2,3.65,11.52,11.52,0,0,0,.33,7.78c1.16,2.49,3.64,4.31,6.12,4.15,2,5.8,5.62,11.26,10.9,14.08,5.29,3,12.4,3,17-1,3.47-3,5.12-7.46,6.61-11.77,1.82.5,3.64-.66,4.79-2.15a14.45,14.45,0,0,0,1.82-5.3c.5-2.49,1-5,0-7.29-1-2.16-4.13-3.65-6-2,.17-4.64.17-9.28.33-13.75a8.57,8.57,0,0,0-.49-3.48,6.22,6.22,0,0,0-2.15-2c-3.47-2.15-7.93-2.65-12.06-2.65A61,61,0,0,0,285,77c-1,.33-2.15,1.33-1.65,2.16Z"/><path class="cls-18" d="M290,114.3c.33,2.49-2.15,7-2.81,9.28-.33,1.49-1,2.82-.82,4.31,0,3,2.31,5.46,4.62,7.45a87.56,87.56,0,0,0,8.59,6.8,5.63,5.63,0,0,0,2.15,1.16,6.41,6.41,0,0,0,3-.5c6.61-2.65,10.74-9,14.21-15.24.66-1.33,1.48-3,1.15-4.48a9.62,9.62,0,0,0-1.65-2.81,11.06,11.06,0,0,1-2.31-6,1.87,1.87,0,0,0-.5-1.32,1.21,1.21,0,0,0-1.32-.17c-6.77.33-13.55.83-20.32,1.16Z"/><path class="cls-1" d="M332.3,419.32c.17,0,.33.17.66.17.17,0,.17,0,.33.16h.33a3.56,3.56,0,0,1,1,.66l.17.17c.16,0-.17-.17,0,0h.16l.5.5a4.54,4.54,0,0,1,.83,1,2.15,2.15,0,0,1,.66,1,7.14,7.14,0,0,1,.82,1.15c.5.83,1,1.5,1.49,2.32a14.86,14.86,0,0,0,3.8,4.15,8.91,8.91,0,0,0,6.78,1.16c2.8-.5,5.28-2.16,7.6-3.81.33-.17.16-.83,0-1-.34-.33-.67-.16-1,0-3.3,2.65-8.42,5.14-12.39,2.49a5.45,5.45,0,0,0-1-.67l-1-1a16.1,16.1,0,0,1-1.49-2c-1-1.49-2-3-3.14-4.47a8,8,0,0,0-4.79-3.15c-.33,0-.83.17-.83.5C331.64,418.66,332,419.15,332.3,419.32Z"/><path class="cls-1" d="M342.38,429.1a11.71,11.71,0,0,1,10.24-4.48c.5,0,1,.17,1.49.17.5.16,1.16.33,1.65.49a.63.63,0,0,0,.83-.49c.16-.33-.17-.66-.5-.83a13.25,13.25,0,0,0-12.39,1.66,13,13,0,0,0-2.64,2.65.79.79,0,0,0,.33,1C341.88,429.59,342.21,429.43,342.38,429.1Z"/><path class="cls-1" d="M341.88,416.84a28.71,28.71,0,0,1,7.6-1c.83,0,.83-1.49,0-1.49a32.69,32.69,0,0,0-7.93,1A.77.77,0,0,0,341.88,416.84Z"/><path class="cls-1" d="M343.2,420c2.15-.33,4.3-.49,6.45-.83a.71.71,0,0,0,.66-.66c0-.33-.33-.83-.66-.66-2.15.33-4.3.5-6.45.83a.66.66,0,0,0,0,1.32Z"/><path class="cls-1" d="M348,423.13c-1.49-2.82-2.81-5.63-4.3-8.45a65.7,65.7,0,0,1-3.63-7.79,14.1,14.1,0,0,1-.83-4.47c0-.83-1.49-.83-1.49,0,0,3,1.16,5.8,2.32,8.45,1.32,2.82,2.8,5.47,4.13,8.28.82,1.66,1.65,3.15,2.47,4.81a.8.8,0,0,0,1,.33A.89.89,0,0,0,348,423.13Z"/><path class="cls-1" d="M346.34,402.75a43.28,43.28,0,0,0,2.32,16.57c.49,1.49,1.15,3,1.81,4.47a.74.74,0,1,0,1.33-.66,43.19,43.19,0,0,1-4-15.74,22.49,22.49,0,0,1,0-4.64.71.71,0,0,0-.66-.66A.76.76,0,0,0,346.34,402.75Z"/><path class="cls-1" d="M258.44,427.94a15.05,15.05,0,0,0,10.91,5.3,10.63,10.63,0,0,0,9.42-5.47,6.07,6.07,0,0,0,.66-1.49c.16-.66.33-1.33.49-1.82a3.39,3.39,0,0,1,.66-1.33,1.51,1.51,0,0,1,1.16-.5.66.66,0,1,0,0-1.32,3.34,3.34,0,0,0-2.64,1.49,11.7,11.7,0,0,0-1.16,3.15,8,8,0,0,1-3,4,10.59,10.59,0,0,1-4.79,1.83,10.4,10.4,0,0,1-5.45-1,14.61,14.61,0,0,1-5.45-4,.61.61,0,0,0-1,0A1.27,1.27,0,0,0,258.44,427.94Z"/><path class="cls-1" d="M259.43,428.1a7.14,7.14,0,0,1,5.62-3,7.91,7.91,0,0,1,7.77,5.63c.16.83,1.65.5,1.32-.33a9.32,9.32,0,0,0-4.79-5.8,8.73,8.73,0,0,0-7.6,0,9.25,9.25,0,0,0-3.31,2.82.8.8,0,0,0,.33,1A1.18,1.18,0,0,0,259.43,428.1Z"/><path class="cls-1" d="M264.06,415.34a22.5,22.5,0,0,0,7.43.83.66.66,0,1,0,0-1.32,17.5,17.5,0,0,1-7.1-.83C263.56,413.69,263.23,415,264.06,415.34Z"/><path class="cls-1" d="M265.22,412a10.69,10.69,0,0,1,5.12.66.63.63,0,0,0,.83-.49c.16-.34-.17-.67-.5-.83a12.82,12.82,0,0,0-5.62-.66.71.71,0,0,0-.66.66A1.11,1.11,0,0,0,265.22,412Z"/><path class="cls-1" d="M272,401.1A33.17,33.17,0,0,1,269.84,419a24.2,24.2,0,0,1-2.31,4.64c-.49.83.83,1.49,1.16.66a36.74,36.74,0,0,0,4.95-18.22,30.57,30.57,0,0,0-.49-5.47.64.64,0,0,0-.83-.5A1.22,1.22,0,0,0,272,401.1Z"/><path class="cls-1" d="M264.39,404.41a37.24,37.24,0,0,1-.33,15.41,31.33,31.33,0,0,1-1.32,4.14.63.63,0,0,0,.49.83c.33.16.66-.17.83-.5a36.49,36.49,0,0,0,2.15-15.74,43,43,0,0,0-.66-4.47.64.64,0,0,0-.83-.5C264.55,403.58,264.39,404.08,264.39,404.41Z"/><path class="cls-21" d="M351,264.08c2.15-3.15,4.63-5.8,7.1-8.78.66-1,1.49-1.83,2.15-2.82a.79.79,0,0,0-.33-1c-.33-.17-.66,0-1,.33-2.15,3.15-4.63,5.8-7.1,8.78-.67,1-1.49,1.82-2.15,2.82a.79.79,0,0,0,.33,1A.8.8,0,0,0,351,264.08Z"/><path class="cls-21" d="M356.09,248.84c2.48,2.31,5.13,4.63,7.6,6.95a.7.7,0,1,0,1-1c-2.47-2.32-5.12-4.64-7.6-7a.62.62,0,0,0-1,0A.63.63,0,0,0,356.09,248.84Z"/><path class="cls-21" d="M363.69,233.59l5.46,4.48c.33.16.66.33,1,0a.63.63,0,0,0,0-1l-5.45-4.47c-.33-.17-.67-.33-1,0C363.36,232.76,363.36,233.26,363.69,233.59Z"/><path class="cls-21" d="M253,246.85c2.64,4.14,5.29,8.28,7.93,12.26a.74.74,0,1,0,1.32-.67c-2.64-4.14-5.29-8.28-7.93-12.26a.8.8,0,0,0-1-.33C253,246.18,252.82,246.68,253,246.85Z"/><path class="cls-21" d="M249,250.82c3.81-3,7.61-6,11.4-8.78a.79.79,0,0,0,.34-1,.8.8,0,0,0-1-.33c-3.13,2.15-6.11,4.47-9.25,7l-2.48,2a.63.63,0,0,0,0,1A.64.64,0,0,0,249,250.82Z"/><path class="cls-21" d="M237.29,232.6c2.15-2,4.13-4,6.28-6a.7.7,0,0,0-1-1c-2.15,2-4.13,4-6.28,6A.7.7,0,0,0,237.29,232.6Z"/><g class="cls-22"><path class="cls-21" d="M290.66,120.6c3.64,3,8.1,5.3,12.72,5,4.79-.33,8.93-3.32,12.73-6.13a22.92,22.92,0,0,1-7.44,7.45c-3.14,1.83-6.94,2.49-10.24,1C295,126.4,292.81,123.74,290.66,120.6Z"/></g><path class="cls-21" d="M321.39,106.68c1.33-1.82,2.65-3.65,4.13-5.47a.79.79,0,0,0-.32-1c-.34-.17-.67,0-1,.33-1.32,1.82-2.64,3.64-4.13,5.47a.8.8,0,0,0,.33,1C320.73,107,321.23,107,321.39,106.68Z"/><path class="cls-21" d="M280.58,100.22a5.78,5.78,0,0,1,1.65,1.82c.17.5.33.66.5,1.16,0,.17.16.5.16.66a1,1,0,0,0,.17.67.66.66,0,0,0,1.32,0,7.21,7.21,0,0,0-3.14-5.47.79.79,0,0,0-1,.33A2.9,2.9,0,0,0,280.58,100.22Z"/><path class="cls-21" d="M281.57,104.36l.33-.33c0,.16,0,.16-.33.33.33-.33.5-.33.66-.5h-.16c.16,0,.33-.16.5-.16h.16a.67.67,0,0,0,0-1.33,3.16,3.16,0,0,0-1.32.33c-.17.17-.33.17-.5.34l-.49.49a.31.31,0,0,0,0,.5c0,.16.16.33.33.5a.31.31,0,0,0,.49,0h.17A.16.16,0,0,0,281.57,104.36Z"/><path class="cls-21" d="M281.41,79.18c.33,4.8.66,9.44,1.16,14.25a3.61,3.61,0,0,0,.66,2.15,1.38,1.38,0,0,0,2,.33c.33-4.31.66-8.45.83-12.76.16-1.49.16-3,1-4.14,1.32-2,4.13-2.15,6.61-2.15a109.4,109.4,0,0,1,19.49,1.82,9,9,0,0,1,4.13,1.66,6.75,6.75,0,0,1,1.66,5,68.08,68.08,0,0,1,0,11.6,9.3,9.3,0,0,1,4.79-.34c-.17-6.13-.5-12.26-.66-18.39a2.36,2.36,0,0,0-.5-1.82,3.37,3.37,0,0,0-1.65-1A59.08,59.08,0,0,0,285.37,74a5.72,5.72,0,0,0-3.63,1.66,2.46,2.46,0,0,0,0,3.64Z"/><path class="cls-21" d="M283.72,78.51a6.58,6.58,0,0,1-5.45-4.64c-.5-1.82.5-4.47,2.31-4.47,1.16,0,2.32,1,3.31.5A4.14,4.14,0,0,1,285,64.76a4,4,0,0,1,5.29.67c-.33-2.49.83-5.31,3.14-6.13s5.29,1.32,4.79,3.64a4.85,4.85,0,0,1,4.63-2.32c1.82.33,3.14,2.65,2.15,4.14a3.88,3.88,0,0,1,4.62,3.32,4,4,0,0,1,5,0,3.64,3.64,0,0,1,5.78.33c.83-.83,2.15-.33,2.81.49a4.72,4.72,0,0,1,.66,3,2.81,2.81,0,0,1,2-.17,7.13,7.13,0,0,1-2,7.29,3,3,0,0,1-2.31.83c-1.32-.17-2-1.66-2.31-2.82a3.92,3.92,0,0,1-5.46-.66.57.57,0,0,1,1,.17,1.47,1.47,0,0,1-.17,1.16c-1.16,2-4.46,2.32-5.78.49-1.82,1.83-5.62.33-5.45-2.32a4.27,4.27,0,0,1-3.15,3.48,4.09,4.09,0,0,1-4.29-2c.82,1-.66,2.66-2,2.49a4.45,4.45,0,0,1-3-2.49,2.32,2.32,0,0,1-1.82,2.49,2.23,2.23,0,0,1-2.64-1.66,2.13,2.13,0,0,1-2.15,2.32,2.25,2.25,0,0,1-1.81-2.65Z"/><path d="M295,96.57c0,1.66-1,2.82-2.15,2.82s-2.15-1.32-2.15-2.82,1-2.81,2.15-2.81C294,93.59,295,94.92,295,96.57Z"/><path d="M315,97.24c0,1.65-1,2.81-2.15,2.81s-2.15-1.32-2.15-2.81c0-1.66,1-2.82,2.15-2.82C314,94.25,315,95.58,315,97.24Z"/><path class="cls-21" d="M322.71,104.69c.17,0,0-.16,0,0a.17.17,0,0,1,.17.17V105a.17.17,0,0,0,.17.17v.5h0v.66a.17.17,0,0,1-.17.17h0l-.17.16h-.16a.74.74,0,0,0,.66,1.33,2.64,2.64,0,0,0,0-4.31.79.79,0,0,0-1,.33A2.73,2.73,0,0,0,322.71,104.69Z"/><path class="cls-21" d="M302.72,92.93A21.32,21.32,0,0,1,304.21,103c-.17,1-.33,2-.5,2.81l1-.5a15,15,0,0,1-4-3.31c-.16-.33-.66-.33-1,0s-.17.66,0,1a12.3,12.3,0,0,0,4.29,3.47c.34.17,1,0,1-.49a21.11,21.11,0,0,0,0-11.1c-.34-1-.66-2-1-3a.8.8,0,0,0-1-.33C302.72,92.27,302.56,92.6,302.72,92.93Z"/><path class="cls-21" d="M307,84.52c-1.32,1.32.17,3.31,2.15,4a12.18,12.18,0,0,0,6.44-.16c.66-.17,1.49-.33,1.66-.83a1.46,1.46,0,0,0-.17-1.16c-2-2.65-6.94-2.65-11.07-2.32Z"/><path class="cls-21" d="M298.27,84.52c1.32,1.32-.17,3.31-2.15,4a12.18,12.18,0,0,1-6.44-.16c-.66-.17-1.49-.33-1.66-.83a1.46,1.46,0,0,1,.17-1.16c2-2.65,6.94-2.65,11.07-2.32Z"/><path class="cls-23" d="M361.22,198.63c.16-3.64.16-7.29,0-10.93a31.33,31.33,0,0,0-.83-5.47c-.33-1.82-1-3.48-1.49-5.3-2.14-7-4-13.92-5.45-21.21-.83-4-1.49-8.12-2.15-12.09a.63.63,0,0,0-.82-.5.92.92,0,0,0-.5.83,180.4,180.4,0,0,0,4.3,21.37q1.23,5.22,3,10.44c1,3.48,2.15,6.79,2.48,10.44a74.92,74.92,0,0,1,.16,12.26C359.73,199.46,361.05,199.46,361.22,198.63Z"/><path class="cls-23" d="M250.35,198A35.48,35.48,0,0,0,253,187c.33-3.82.16-7.63.16-11.44q-.24-5.72,0-11.43c.17-1.82.34-3.64.67-5.47a34.38,34.38,0,0,1,1.65-5.46c1.48-3.65,3.3-7.13,3.3-11.1v-1.5a.71.71,0,0,0-.66-.66c-.33,0-.82.33-.66.66.5,3.82-1.32,7.46-2.64,10.94-.66,1.82-1.32,3.48-1.82,5.3a30.1,30.1,0,0,0-1,5.63,87,87,0,0,0-.17,11.27,84.76,84.76,0,0,1,0,11.27,34.33,34.33,0,0,1-2.15,10.77c-.16.33-.32.83-.49,1.16a.66.66,0,0,0,.33,1C249.68,198.47,250.18,198.3,250.35,198Z"/><path class="cls-23" d="M253.82,143.13a13.29,13.29,0,0,1,.82,5.63.66.66,0,1,0,1.32,0,13.22,13.22,0,0,0-1-6.13c-.16-.33-.49-.66-.82-.49C254,142.3,253.65,142.8,253.82,143.13Z"/><path class="cls-23" d="M214.82,182.23c9.09,9.61,18.67,18.72,28.59,27.5,1.15-1.15,2.31-2.48,3.47-3.64.33-.33.66-.66.66-1,.49-1.33-.83-2.32-1.82-3.15a135.52,135.52,0,0,1-26.93-24.52q-1.74,2.73-3.47,5.46Z"/><path class="cls-23" d="M390,182.44v8.76Q381.58,196.75,373,202c-1.44.88-2.88,1.76-4.33,2.62-.34.21-.68.42-1,.62l-1.09.65a20.07,20.07,0,0,1-3.8-6.13l.5.66,1.66-1.17Q377.22,190.6,390,182.44Z"/><path class="cls-23" d="M280.91,133.69a10.64,10.64,0,0,1,4.46,2.81,47,47,0,0,1,4,4.14c2.48,3,5.29,6,9.25,7,4.46,1.16,9.26-.16,13.06-2.65,4-2.81,6.93-6.79,9.41-10.93a29.26,29.26,0,0,0,1.82-3.15,32.21,32.21,0,0,0,1.65-3.48,6.55,6.55,0,0,0-1-6.3,4.82,4.82,0,0,0-1.15-.82.74.74,0,1,0-.66,1.32,3,3,0,0,1,1.65,1.82,5.41,5.41,0,0,1,.33,2.82,8.27,8.27,0,0,1-1.32,3.31,30.75,30.75,0,0,1-1.82,3.15c-2.31,4-5,7.95-8.59,10.77-3.31,2.49-7.77,4.14-12.07,3.31-3.8-.82-6.44-3.47-8.92-6.29-2.31-2.65-4.79-5.8-8.09-7.29-.5-.17-.83-.33-1.33-.5a.63.63,0,0,0-.82.5C280.25,133.19,280.58,133.69,280.91,133.69Z"/><path class="cls-23" d="M275.63,204.6c4.29-1,8.75-1.66,13.22-2.32s8.75-1.16,13.21-1.49,8.93-.67,13.39-.67q6.69-.24,13.38,0c4.46.17,8.92.5,13.38.83.5,0,1.16.17,1.66.17a.71.71,0,0,0,.66-.66.61.61,0,0,0-.66-.67c-4.47-.49-8.93-.83-13.39-1s-8.92-.33-13.38-.17c-4.46,0-8.92.33-13.38.67s-8.93.82-13.39,1.49-8.92,1.32-13.22,2.32c-.49.16-1.15.16-1.65.33a.63.63,0,0,0-.49.83C275,204.6,275.3,204.76,275.63,204.6Z"/><path class="cls-23" d="M285.54,207.25c7.44-.17,14.87-.5,22.47-.83,7.44-.5,14.87-1,22.31-1.82l12.55-1.49a.72.72,0,0,0,.67-.67c0-.33-.34-.82-.67-.66-7.43,1-14.87,1.66-22.3,2.32s-14.87,1.16-22.31,1.49c-4.29.17-8.43.33-12.72.33C284.71,205.76,284.71,207.25,285.54,207.25Z"/><path class="cls-23" d="M264.23,216.86a126.93,126.93,0,0,1,15.69-3.48,128.67,128.67,0,0,1,15.86-1.33c5.29-.16,10.74-.16,16,.17,5.45.17,10.74.66,16.19,1.16s10.74,1.16,16.2,1.82c.66,0,1.32.17,2,.17a.71.71,0,0,0,.66-.67.61.61,0,0,0-.66-.66c-5.45-.66-10.74-1.32-16.19-1.82s-10.74-1-16.2-1.33-10.74-.33-16.19-.33c-5.28.17-10.74.5-16,1.16a108.64,108.64,0,0,0-15.87,3.15l-2,.5C262.9,215.86,263.23,217.19,264.23,216.86Z"/><path class="cls-23" d="M355.76,148.43l-1,11.93c-.16,1.16-.16,2.32-.33,3.48a.66.66,0,1,0,1.32,0l1-11.93c.17-1.16.17-2.32.33-3.48a.71.71,0,0,0-.66-.66C356.09,147.6,355.76,147.94,355.76,148.43Z"/><path class="cls-23" d="M257.62,273.52a35.3,35.3,0,0,0,15,6.13,63.53,63.53,0,0,0,16.86.5c6.6-.5,13.05-1.49,19.66-1.66a66.93,66.93,0,0,1,9.91.17,93.85,93.85,0,0,1,9.42,1.65c6.11,1.33,12.23,2.82,18.51,2a10.74,10.74,0,0,0,2.31-.5c.82-.16.5-1.49-.33-1.32-6.11,1.32-12.23.17-18.18-1.16-3-.66-6.11-1.33-9.25-1.82a47,47,0,0,0-9.75-.5c-6.61.17-13.05,1-19.49,1.66a84.18,84.18,0,0,1-17,0,36.16,36.16,0,0,1-15.2-5.14,9.82,9.82,0,0,1-1.66-1.16.8.8,0,0,0-1,.33C257.12,272.86,257.29,273.19,257.62,273.52Z"/><path class="cls-24" d="M310,285a31.91,31.91,0,0,0-.83,5.8,34.08,34.08,0,0,0,.16,5.8c.17,3.32.5,6.79-1.48,9.61a5.25,5.25,0,0,1-3.64,2.16l.66.66a111,111,0,0,0,.17-18.23c-.17-1.65-.33-3.48-.5-5.13a.72.72,0,0,0-.66-.67c-.33,0-.82.34-.66.67a95.29,95.29,0,0,1,.66,18.22c0,1.66-.16,3.48-.33,5.14a.71.71,0,0,0,.66.66c3.14-.17,5.46-3,6.28-6a16.72,16.72,0,0,0,.33-5.8,36.1,36.1,0,0,1-.16-6,29.34,29.34,0,0,1,.82-6.62.63.63,0,0,0-.49-.83C310.49,284.29,310,284.46,310,285Z"/><path class="cls-24" d="M303.88,308.65a61.78,61.78,0,0,0,.5,13.58.71.71,0,0,0,.66.66c.33,0,.82-.33.66-.66a93.45,93.45,0,0,1-.5-13.58.66.66,0,1,0-1.32,0Z"/><path class="cls-24" d="M294,310.47c1.48-1,3.14-1,4.79-1.16,2-.17,4.13-.17,6.11-.33,4.13-.17,8.1-.17,12.23-.17H324c.82,0,.82-1.32,0-1.49-4.13,0-8.26-.17-12.39,0q-6.19,0-12.4.5c-2,.16-4.13.16-5.95,1.32a.81.81,0,0,0-.32,1A.8.8,0,0,0,294,310.47Z"/><path class="cls-24" d="M335.77,287.6a20.69,20.69,0,0,0,9.91,9.28,14.22,14.22,0,0,0,3.8,1.16c.33,0,.83-.16.83-.5a.63.63,0,0,0-.5-.82,19.59,19.59,0,0,1-10.9-6.8,12.21,12.21,0,0,1-2-3.14.8.8,0,0,0-1-.34C335.6,286.94,335.44,287.27,335.77,287.6Z"/><path class="cls-24" d="M350.14,286c-.33,7.45-.66,14.74-.82,22.2-.17,7.29-.33,14.74-.5,22,0,4.15-.16,8.29-.16,12.43,0,.83,1.32.83,1.48,0,0-7.46.17-14.75.34-22.2.16-7.29.32-14.75.66-22l.49-12.42a.72.72,0,0,0-.66-.67A.77.77,0,0,0,350.14,286Z"/><path class="cls-24" d="M317.92,343.27l14.38,2c2.31.33,4.79.66,7.1.83a30.34,30.34,0,0,0,6.78-.33,39.72,39.72,0,0,0,7.6-1.82c.33-.17.66-.5.5-.83s-.5-.66-.83-.5a36.3,36.3,0,0,1-13.22,2,49.51,49.51,0,0,1-6.94-.66c-2.31-.34-4.79-.67-7.1-1-2.65-.33-5.29-.66-7.93-1.16-.34,0-.83.17-.83.5A1.19,1.19,0,0,0,317.92,343.27Z"/><path class="cls-24" d="M299.42,309.81c-1.16,4-2.15,7.95-3,12.09s-1.48,8.28-2,12.43c-.33,2.32-.49,4.64-.66,6.95a.66.66,0,1,0,1.32,0c.33-4.14.66-8.11,1.32-12.09.67-4.14,1.49-8.12,2.48-12.09.5-2.32,1.16-4.48,1.82-6.8A.7.7,0,1,0,299.42,309.81Z"/><path class="cls-24" d="M300.91,339.63a67.83,67.83,0,0,0-10.08,0,40.1,40.1,0,0,0-4.79.83,47.2,47.2,0,0,1-4.8.82c-5.78.5-10.9-2.65-16-4.47a45,45,0,0,0-4.46-1.32c-1.82-.34-3.47-.5-5.29-.83-.83-.17-1.32,1.16-.33,1.32,1.65.33,3.14.5,4.79.83a37.51,37.51,0,0,1,4.13,1.16c2.64,1,5.29,2.16,7.93,3.15a23.14,23.14,0,0,0,8.1,1.82c3.3,0,6.44-1,9.75-1.49a64.08,64.08,0,0,1,11.23-.17.71.71,0,0,0,.66-.66A1.28,1.28,0,0,0,300.91,339.63Z"/><path class="cls-24" d="M270.34,286a42.77,42.77,0,0,1-9.58,4.64,19.77,19.77,0,0,1-3,.82c-.83.17-.49,1.66.33,1.33a45.77,45.77,0,0,0,10.25-4.14,24.92,24.92,0,0,0,2.64-1.66.8.8,0,0,0,.33-1A.74.74,0,0,0,270.34,286Z"/><path class="cls-24" d="M258.44,281.31a169.69,169.69,0,0,0-3.8,19.88,164.39,164.39,0,0,0-1.16,20.05c0,3.81.17,7.45.5,11.26a.66.66,0,1,0,1.32,0,163.47,163.47,0,0,1-.33-20,155.84,155.84,0,0,1,2.32-19.72c.66-3.64,1.48-7.46,2.47-11.1C259.93,280.81,258.61,280.48,258.44,281.31Z"/><path class="cls-8" d="M300.75,110a4.14,4.14,0,0,0,5.76.22.68.68,0,0,0-1-1l-.12.12h0l-.24.24c-.12.12-.12.12-.36.12h0l-.12.12c-.12.12-.24,0-.36.13a.17.17,0,0,1-.24,0,.9.9,0,0,0-.6.12h-.24c.12.12-.24,0,0,0H303a.59.59,0,0,1-.36-.12l-.12-.12h0c-.12-.12-.36-.12-.48-.24h0l-.12-.12-.24-.24a.74.74,0,0,0-1,0C300.51,109.31,300.39,109.67,300.75,110Z"/><path class="cls-25" d="M179.45,135.12a2.43,2.43,0,0,0-1,3,6.47,6.47,0,0,0,2.24,2.63,4.05,4.05,0,0,0-1.36,5.94A3.17,3.17,0,0,0,178,150a3.12,3.12,0,0,0,2.73,2.34,3.43,3.43,0,0,0-.1,3.6,3.39,3.39,0,0,0,3.31,1.46,2.22,2.22,0,0,0,4.38.49c1,.78,2.63-.1,2.92-1.46a4.06,4.06,0,0,0-1.26-3.51c.78.39,1.75-.39,1.95-1.26a3.6,3.6,0,0,0-.78-2.53,16.17,16.17,0,0,0-2-2.44,1.06,1.06,0,0,0,1.66-.1,2.64,2.64,0,0,0,.19-1.94,6.14,6.14,0,0,0-4.67-4.29Z"/><path class="cls-15" d="M243.81,343.7c-1.26,11.79-4.09,43.63-5.36,55.31-.58,4.87,1.85,18.6,4.48,22.79,1.17,1.95,3,3.5,4.19,5.55s1.46,4.67-.29,6.43-4.68,1.65-6.72.68-3.5-2.83-4.87-4.58l-11.58-14.8a12.25,12.25,0,0,1-2.24-3.6c-.78-2.24-.3-4.77,0-7.21.48-5-.49-9.83-1.56-14.7-1.46-7.4-9.74-15.58-11.3-23,7.7-1.56,19.87-19.09,27.66-19.19Z"/><g class="cls-26"><path class="cls-27" d="M225.8,375.25a2.34,2.34,0,1,1,2.33-2.33A2.33,2.33,0,0,1,225.8,375.25Z"/></g><g class="cls-26"><path class="cls-27" d="M227.06,392.1a2.35,2.35,0,1,1-2.63-2.05A2.35,2.35,0,0,1,227.06,392.1Z"/></g><g class="cls-26"><path class="cls-27" d="M239.43,396.29a2.36,2.36,0,1,1-2.63-2.05A2.38,2.38,0,0,1,239.43,396.29Z"/></g><g class="cls-26"><path class="cls-27" d="M224,405.34a2.35,2.35,0,1,1-2.62-2A2.33,2.33,0,0,1,224,405.34Z"/></g><g class="cls-26"><path class="cls-27" d="M233.49,410.5a2.35,2.35,0,1,1-2.63-2A2.28,2.28,0,0,1,233.49,410.5Z"/></g><g class="cls-26"><path class="cls-27" d="M246.54,420.05a2.36,2.36,0,1,1-2.63-2.05A2.34,2.34,0,0,1,246.54,420.05Z"/></g><g class="cls-26"><path class="cls-27" d="M241,427.64a2.36,2.36,0,1,1-2.63-2A2.34,2.34,0,0,1,241,427.64Z"/></g><g class="cls-26"><path class="cls-27" d="M238.94,379.83a2.35,2.35,0,1,1-2.63-2.05A2.35,2.35,0,0,1,238.94,379.83Z"/></g><g class="cls-26"><path class="cls-27" d="M233.2,365.81a2.34,2.34,0,1,1,2.33-2.34A2.34,2.34,0,0,1,233.2,365.81Z"/></g><g class="cls-26"><path class="cls-27" d="M245.17,351.88a2.35,2.35,0,1,1-2.63-2A2.45,2.45,0,0,1,245.17,351.88Z"/></g><g class="cls-26"><path class="cls-27" d="M231.74,352a2.36,2.36,0,1,1-2.63-2.05A2.47,2.47,0,0,1,231.74,352Z"/></g><g class="cls-26"><path class="cls-27" d="M217.71,379.44a2.35,2.35,0,1,1-2.62-2.05A2.46,2.46,0,0,1,217.71,379.44Z"/></g><g class="cls-26"><path class="cls-27" d="M216.16,356.46a2.36,2.36,0,1,1-2.63-2A2.33,2.33,0,0,1,216.16,356.46Z"/></g><path class="cls-15" d="M201,369.12c-5.84,17.33-5.26,36.12-1.75,54.33.68,3.61,1.36,7.89-1.37,10.52s-8.08,2.24-11.29-.29-4.58-6.53-4.87-10.23c-.49-6.13,1.36-12.27-.1-18.3-.68-2.83-2.14-5.46-3.31-8.18a69.54,69.54,0,0,1-3.7-48.2,49.94,49.94,0,0,0,22.4,6Z"/><g class="cls-28"><path class="cls-27" d="M188.41,375.35a2.29,2.29,0,1,1-2.14-2.43A2.28,2.28,0,0,1,188.41,375.35Z"/></g><g class="cls-28"><path class="cls-27" d="M183.74,394.34a2.29,2.29,0,1,1-2.14-2.43A2.36,2.36,0,0,1,183.74,394.34Z"/></g><g class="cls-28"><path class="cls-27" d="M195,400.77a2.29,2.29,0,1,1-2.14-2.44A2.23,2.23,0,0,1,195,400.77Z"/></g><g class="cls-28"><path class="cls-27" d="M186.46,413.52a2.29,2.29,0,1,1-2.14-2.43A2.35,2.35,0,0,1,186.46,413.52Z"/></g><g class="cls-28"><path class="cls-27" d="M197.37,425.4a2.29,2.29,0,1,1-2.14-2.43A2.29,2.29,0,0,1,197.37,425.4Z"/></g><g class="cls-28"><path class="cls-27" d="M190.46,431.83a2.29,2.29,0,1,1-2.15-2.44A2.29,2.29,0,0,1,190.46,431.83Z"/></g><g class="cls-28"><path class="cls-27" d="M197.76,384.5a2.29,2.29,0,1,1-2.14-2.43A2.3,2.3,0,0,1,197.76,384.5Z"/></g><g class="cls-28"><path class="cls-27" d="M197.56,367.46a2.29,2.29,0,1,1-2.14-2.43A2.29,2.29,0,0,1,197.56,367.46Z"/></g><g class="cls-28"><path class="cls-27" d="M196.1,355.88a2.29,2.29,0,1,1-2.14-2.44A2.36,2.36,0,0,1,196.1,355.88Z"/></g><g class="cls-28"><path class="cls-27" d="M177,380.12a2.29,2.29,0,1,1-2.14-2.43A2.28,2.28,0,0,1,177,380.12Z"/></g><g class="cls-28"><path class="cls-27" d="M179.94,357.14a2.29,2.29,0,1,1-2.14-2.43A2.28,2.28,0,0,1,179.94,357.14Z"/></g><path class="cls-25" d="M165.92,237.76c-10.22,16.16-13.44,35.44-16.36,54-1.17,7.6-2.33,15.1-3.6,22.69-2.14,13.34-4.19,26.68-5.26,40.22a13.69,13.69,0,0,0,.29,4.87c.69,2.24,2.54,4,4.29,5.64,4.48,4.29,9.54,8.77,15.87,9.06,5.55.19,10.71-2.92,16.26-2.63,4,.2,7.59,2.24,11.58,2.73,3.8.58,7.7-.3,11.5-1.17,5.93-1.36,11.87-2.63,17.71-4a145.32,145.32,0,0,1,19.48-3.51c2.63-.19,5.65-.49,7.2-2.53.78-1.07,1-2.34,1.66-3.41,2.14-2.92,8.08-2.63,8.86-6,.39-1.75-.88-4,.58-5.25a3.56,3.56,0,0,1,2.44-.69l8.47-.58c-2.92-29-5.75-57.94-8.67-87-.58-5.94-1.17-12-3.7-17.53a31,31,0,0,0-16.35-15.67Z"/><path class="cls-9" d="M189.58,161.8c-5.84-1.26-13.83-1.85-19.67-.39-7.11,1.76-13.34,6.33-18.21,11.79S143,185,139.44,191.31c10.12.68,17.81,10.52,27.84,11.29a12.81,12.81,0,0,0-5,11.11c.09,1.65.58,3.31.58,5.06,0,2.92-1.17,5.74-2.14,8.57a37,37,0,0,0-1.07,17.53c4,.39,7,3.6,10.32,5.94,8.57,6,19.86,6.23,30.38,6.13,10.22-.1,20.44-.1,30.76-.19a29.83,29.83,0,0,0,8.28-.78,30.77,30.77,0,0,0,5.74-2.63c4.78-2.63,9.55-5.16,14.32-7.79-2.44-6.62-10.52-23.57-12-30.38,3.7.29,13.83,10.61,16.85,8.57,3.31-2.24,4.47-6.53,5.45-10.42.87-3.51-12.17-38.18-17.63-44.12-3.69-4-9.44-5.35-14.89-5.25s-10.81,1.46-16.16,1.94A50.73,50.73,0,0,1,202.72,164Z"/><g class="cls-29"><path class="cls-30" d="M188,197.93l7.11-2-2,7.1,2,7.11-7.11-2-7.2,2L183,203l-2.14-7.1Z"/></g><g class="cls-29"><path class="cls-30" d="M232,206l7.2-2-2.14,7.11,2.14,7.1-7.2-2-7.11,2,2.05-7.1L224.92,204Z"/></g><g class="cls-29"><path class="cls-30" d="M215.58,191.11l3.6-1.07-1.07,3.61,1.07,3.6-3.6-1.07L212,197.25l1.07-3.6L212,190Z"/></g><g class="cls-29"><path class="cls-30" d="M258.81,199.2l3.6-1.07-1.07,3.6,1.07,3.6-3.6-1.07-3.61,1.07,1.07-3.6-1.07-3.6Z"/></g><g class="cls-29"><path class="cls-30" d="M183,235.71l7.1-2-2,7.11,2,7.2-7.1-2.14L175.85,248l2-7.2-2-7.11Z"/></g><g class="cls-29"><path class="cls-30" d="M161.34,217.8l7.11-2.15-2,7.11,2,7.21-7.11-2.14-7.2,2.14,2.14-7.21-2.14-7.11Z"/></g><g class="cls-29"><path class="cls-30" d="M227,243.79l7.2-2L232,248.86l2.14,7.2-7.2-2.14-7.11,2.14,2.14-7.2-2.14-7.11Z"/></g><g class="cls-29"><path class="cls-30" d="M210.51,228.9l3.6-1.08L213,231.43l1.07,3.6-3.6-1.07-3.6,1.07,1.07-3.6-1.07-3.61Z"/></g><g class="cls-29"><path class="cls-30" d="M255.3,220.81l7.11-2.14-2.05,7.21,2.05,7.11-7.11-2.15L248.19,233l2.05-7.11-2.05-7.21Z"/></g><g class="cls-29"><path class="cls-30" d="M158.91,189.26l7.11-2.14L164,194.33l2.05,7.11-7.11-2.05-7.11,2.05,2-7.11-2-7.21Z"/></g><g class="cls-31"><path class="cls-30" d="M171.66,158.79l7.11-2.15-2,7.21,2,7.11-7.11-2.05-7.2,2.05,2.14-7.11-2.14-7.21Z"/></g><g class="cls-29"><path class="cls-30" d="M182.37,180l3.61-1.07-1.08,3.6,1.08,3.51-3.61-1-3.5,1,1-3.51-1-3.6Z"/></g><g class="cls-29"><path class="cls-30" d="M150.93,171.35l3.5-1.07-1,3.5,1,3.6-3.5-1.07-3.61,1.07,1.07-3.6-1.07-3.5Z"/></g><g class="cls-29"><path class="cls-30" d="M202.53,169.4l7.2-2.05-2.14,7.11,2.14,7.21-7.2-2.14-7.11,2.14,2-7.21-2-7.11Z"/></g><g class="cls-29"><path class="cls-30" d="M246.64,177.48l7.1-2-2,7.1,2,7.21-7.1-2.14-7.21,2.14,2.14-7.21-2.14-7.1Z"/></g><g class="cls-29"><path class="cls-30" d="M230.08,162.58l3.61-1-1.08,3.5,1.08,3.61-3.61-1.07-3.5,1.07,1-3.61-1-3.5Z"/></g><path class="cls-18" d="M214.5,124.9a190,190,0,0,1,5.17,27.65,22,22,0,0,1-.2,7.11,7.54,7.54,0,0,1-4.28,5.36c1.26,1.26.68,3.6-.69,4.67s-3.31,1.37-5.06,1.56c-7,.68-14.9,1.17-20.15-3.5a7.76,7.76,0,0,1-2.44-3.61c-.68-2.82,1.07-5.65.78-8.47a7.57,7.57,0,0,1-6.33-1.17,5.15,5.15,0,0,1-1.56-6c1-2,3.9-2.92,5.65-1.55a64.62,64.62,0,0,1-.87-16.17Z"/><path class="cls-32" d="M240.27,168.88a12.24,12.24,0,0,1-1.55-6.21c.08-1.72.69-3.47.46-5.2-.31-2.37-2.07-4.42-2-6.76a2.58,2.58,0,0,1,1-2,2,2,0,0,1,2.24.67,9.71,9.71,0,0,1,1.21,2.17,12.38,12.38,0,0,0,4.31,5.1c1,.66,2.17,1.17,2.74,2.19,1,1.59.48,3.67-.49,5.29-1.67,2.72-4.74,4.75-7.94,4.46Z"/><path class="cls-18" d="M268.64,225.29a2.53,2.53,0,0,1,1.26-1.55c4.87-2.24,8-7.7,8.18-13.15.3-5.75-2.24-11.39-5.55-16.16s-7.49-8.87-11.19-13.34-7.21-9.35-8.57-15a40.44,40.44,0,0,1-.88-10.81,6.64,6.64,0,0,0-.39-2.73,2,2,0,0,0-2.24-1.26c2.44-4.09,4.87-8.18,7.31-12.17.19-.39.48-.78.19-1.27a1.11,1.11,0,0,0-1.07-.58,2.66,2.66,0,0,0-1.85,1,31.87,31.87,0,0,0-7.3,9.93,13.56,13.56,0,0,0-11,1.17,1.16,1.16,0,0,0-.49,1.17c.19.68.87.68,1.46.58l3.7-.29a12.92,12.92,0,0,0-3.41,1.85c-.1,1.36,1.85,1.66,3.21,1.46,2.15-.29,4.38-.58,6.53-1l-5.36,1.56a1,1,0,0,0-.68,1c.1.49.49.58.88.68,1.26.2,2.63.49,3.89.68-2.53,1.76-5.16,3.9-5.65,6.92-.39,2.24.59,4.48,1.37,6.72,4.57,12.56,4.38,26.19,7.3,39.14.88,3.8,2,7.6,4.38,10.71s5.75,5.36,9.45,5.36c.19,0,.48.1.68.1l2.53.87a2.39,2.39,0,0,0,1.85-.1A1.87,1.87,0,0,0,268.64,225.29Z"/><path class="cls-18" d="M141.67,191c7.6-.49,18.8,7.11,25.61,10.51.78.39-1.75,4.68-2.82,8.77,4.48,1.75,12,4.38,16.45,6.13A16.27,16.27,0,0,0,185,217.6c3.31.2,6.23-1.85,9.54-2.24a3.27,3.27,0,0,1,2.73.59c1,1,.49,2.72-.58,3.6a7.3,7.3,0,0,1-3.8,1.26c5.55,2.24,7.79,5.75,16.26,7.89-7.6,4.29-17,2.05-25.8,2.53-4.48.2-8.86,1.17-13.25,1.56a55.67,55.67,0,0,1-23.95-3.31,59.1,59.1,0,0,1-12.07-6.13,6.27,6.27,0,0,1-1.46-1.27c-.88-1.17-.58-2.82-.29-4.28a99.3,99.3,0,0,1,9-25.13Z"/><path class="cls-8" d="M240.6,155.09a30.56,30.56,0,0,1,6.62-1.37.42.42,0,0,0,.39-.39.43.43,0,0,0-.39-.39,33.83,33.83,0,0,0-6.91,1.37c-.2.09-.39.29-.3.48A.84.84,0,0,0,240.6,155.09Z"/><path class="cls-8" d="M238.75,151.58c2.34-.58,4.67-1,7-1.36a.37.37,0,0,0,.29-.49.54.54,0,0,0-.49-.29c-2.33.39-4.67.87-7,1.36-.19.1-.38.29-.29.49S238.46,151.68,238.75,151.58Z"/><path class="cls-8" d="M244.88,156.84c-2,1.56-4.28,3.31-5,5.94a5.56,5.56,0,0,0-.1,2.24.37.37,0,0,0,.49.29.54.54,0,0,0,.29-.49c-.39-2.43,1.26-4.48,3-5.94a10.89,10.89,0,0,1,1.65-1.26.48.48,0,0,0,.2-.59C245.27,156.84,245.08,156.74,244.88,156.84Z"/><path class="cls-8" d="M246.64,174.56a10.55,10.55,0,0,1,3-1.36c.2-.1.39-.29.3-.49s-.3-.39-.49-.29a9.55,9.55,0,0,0-3.21,1.46.46.46,0,0,0-.2.58C246.25,174.56,246.44,174.66,246.64,174.56Z"/><path class="cls-8" d="M190.55,219.74c1.76,1.08,3.41,2,5.16,3.12,1.95,1.17,4,2.24,5.94,3.31,1,.49,2,1,3.12,1.46a.38.38,0,0,0,.49-.29c.09-.2-.1-.39-.3-.49h-.09c-.1,0-.1,0-.2-.09s-.19-.1-.29-.1a4.08,4.08,0,0,0-.68-.29c-.49-.2-1-.49-1.37-.69-1-.48-1.94-1-2.92-1.55-1.94-1.07-3.89-2.24-5.84-3.31-.87-.49-1.75-1.08-2.72-1.66C190.46,218.67,190.07,219.45,190.55,219.74Z"/><path class="cls-8" d="M194.54,227.83a18.23,18.23,0,0,0,9.25,2.33,12.6,12.6,0,0,0,2.73-.29.37.37,0,0,0,.29-.49.53.53,0,0,0-.48-.29,16.51,16.51,0,0,1-9-1,24.28,24.28,0,0,1-2.34-1.07C194.45,226.85,194.06,227.63,194.54,227.83Z"/><path class="cls-23" d="M177.12,262c-2.15,13.73-4.29,27.46-6,41.28s-3.21,27.66-3.8,41.58c-.39,7.79-.49,15.68-.29,23.47,0,.49.88.49.88,0a371.47,371.47,0,0,1,1.55-41.68c1.27-13.82,3-27.65,5.07-41.38q1.74-11.53,3.5-23.08C178,261.71,177.21,261.52,177.12,262Z"/><path class="cls-23" d="M196.39,263.47c-.87,12.95-1.55,25.8-2.24,38.75S193,328,192.6,341c-.2,7.3-.49,14.51-.69,21.81,0,.49.78.49.88,0,.29-13,.78-25.9,1.27-38.76s1.17-25.8,1.85-38.75c.39-7.21.87-14.51,1.26-21.72C197.27,262.88,196.49,262.88,196.39,263.47Z"/><path class="cls-23" d="M199.8,282c-.39,8.27-.78,16.65-1.17,24.93l-1.17,24.83c-.19,4.67-.39,9.34-.68,14,0,.49.78.49.88,0,.39-8.28.78-16.65,1.17-24.93L200,296c.19-4.67.39-9.35.68-14C200.68,281.48,199.9,281.48,199.8,282Z"/><path class="cls-23" d="M233,271.65c1.08,11.49,2.24,22.88,3.61,34.27s2.92,22.69,4.57,34c1,6.33,1.95,12.75,3,19.08.1.49.88.29.78-.19-1.85-11.3-3.6-22.59-5.16-33.89s-2.92-22.59-4.19-34c-.68-6.43-1.26-12.86-1.85-19.19C233.78,271.06,232.91,271.06,233,271.65Z"/><path class="cls-23" d="M237.29,271.45c1,9.93,1.94,19.77,3,29.7s2.24,19.67,3.4,29.5c.69,5.55,1.37,11.1,2.15,16.56.09.48.87.48.87,0-1.26-9.84-2.53-19.77-3.6-29.6s-2.24-19.67-3.21-29.51c-.59-5.55-1.07-11.1-1.66-16.65C238.07,271,237.29,271,237.29,271.45Z"/><path class="cls-23" d="M244.69,266.39c.48,5.35,1,10.61,1.46,16q.73,7.74,1.75,15.48c.58,5.16,1.27,10.22,1.95,15.38s1.46,10.23,2.24,15.39,1.65,10.52,2.53,15.78a14.66,14.66,0,0,0,.39,2c.1.49.88.29.78-.19-.88-5.26-1.75-10.52-2.53-15.78s-1.56-10.32-2.24-15.39-1.37-10.12-2-15.28-1.17-10.33-1.75-15.49-1.07-10.51-1.56-15.77c-.1-.68-.1-1.36-.2-2S244.59,265.9,244.69,266.39Z"/><path class="cls-23" d="M198.83,261.52a29,29,0,0,0,11.2,1.26c3.89-.19,7.88-.68,11.78-1.07l11.78-1.17a65.39,65.39,0,0,0,9.64-1.65,22.53,22.53,0,0,0,8.37-4.19c.29-.29.58-.49.88-.78a.41.41,0,0,0-.59-.58,21.08,21.08,0,0,1-8,4.57,50.73,50.73,0,0,1-9.35,1.85l-11.39,1.17c-3.9.39-7.79.88-11.68,1.17a30.52,30.52,0,0,1-11.1-.78c-.49-.09-.88-.29-1.27-.39C198.54,260.54,198.34,261.32,198.83,261.52Z"/><path class="cls-23" d="M190.26,259.38a52,52,0,0,1-10.22-1,33.08,33.08,0,0,1-9.06-3.5c-1.65-.88-3.21-1.76-4.87-2.73-.48-.29-.87.49-.39.68a77.35,77.35,0,0,0,8.86,4.58,45,45,0,0,0,4.68,1.56,31.71,31.71,0,0,0,5.16.78c2,.19,3.89.19,5.84.29C190.84,260.25,190.84,259.47,190.26,259.38Z"/><path class="cls-23" d="M155.11,314.59c-.49,5.45-.87,11-1,16.46s-.2,10.9,0,16.45c.1,3.12.19,6.23.39,9.25,0,.49.87.49.87,0-.29-5.45-.48-11-.48-16.45s.09-10.91.48-16.46c.2-3.12.39-6.23.69-9.25a.42.42,0,0,0-.39-.39A.56.56,0,0,0,155.11,314.59Z"/><path class="cls-23" d="M159.4,323.25c-.2,3.22-.39,6.43-.59,9.64s-.29,6.43-.49,9.64c-.09,1.86-.19,3.61-.19,5.46a.42.42,0,0,0,.39.39.43.43,0,0,0,.39-.39c.1-3.22.29-6.43.49-9.64s.29-6.43.48-9.64c.1-1.85.2-3.61.29-5.46a.42.42,0,0,0-.39-.39C159.59,322.86,159.49,323.06,159.4,323.25Z"/><path d="M182.37,410.31c3.8,3.89.68,11.68,4.87,15a5.84,5.84,0,0,0,7.11-.19c2.24-2.05,2.34-5.45,2.24-8.47s-1.56-7.89.49-10.13c-.39,3.31,1.85,8.28,2.72,11.49s1.95,6.53,1.95,9.93-1.07,6.92-3.8,9.06a9.5,9.5,0,0,1-3.6,1.66,10.46,10.46,0,0,1-9.15-1.37,11.71,11.71,0,0,1-2.15-2.24,19.83,19.83,0,0,1-3.4-12,38.7,38.7,0,0,1,2.53-12.36.79.79,0,0,1,.19-.39c.29.1.1.39,0,.29Z"/><path d="M182.57,419.66a25.87,25.87,0,0,1,15.28-4.29,26.54,26.54,0,0,0,1.27,3.9,43.48,43.48,0,0,0-17.43,4.48Z"/><path d="M233,421.41a16.06,16.06,0,0,1,6.33-6.43c.2-.09.49-.29.78-.19s.39.29.59.48a18.12,18.12,0,0,1,1.85,3.61,1.31,1.31,0,0,1,.09.58c-.09.49-.58.68-1,.88a8.93,8.93,0,0,0-4.87,5.26,15.32,15.32,0,0,1-4.19-3.7Z"/><path d="M248.58,427.45a4.5,4.5,0,0,0-1.26-1.76c-1.37-1.07-3.31-.58-5.07-.68a10.87,10.87,0,0,1-6.62-3.41,72.79,72.79,0,0,1-4.67-6c-1.27-1.76-4.87-7.4-5.45-8.48a7.08,7.08,0,0,0-4.68-4l-.29-.09a16.63,16.63,0,0,0-.19,3.79,5.7,5.7,0,0,0-.78,3.9,12.07,12.07,0,0,0,1.94,3.41c3.31,4.38,6.62,8.86,9.94,13.24a44.63,44.63,0,0,0,4.76,5.74c1.95,2,4.19,3.61,6.92,3.9s5.74-1.07,6.52-3.6C250.24,431.34,249.46,429.3,248.58,427.45Z"/><path class="cls-16" d="M223,399.79l5.46.59c.19,0,.48-.1.48-.3a.36.36,0,0,0-.29-.48c-1.85-.29-3.8-.49-5.65-.68a.42.42,0,0,0-.39.39C222.49,399.6,222.68,399.79,223,399.79Z"/><path class="cls-16" d="M178.67,385a10.58,10.58,0,0,1,1.27,3.7.37.37,0,0,0,.49.29.54.54,0,0,0,.29-.48,10.87,10.87,0,0,0-1.37-3.9A.39.39,0,1,0,178.67,385Z"/><path class="cls-16" d="M181.89,385.48c.39,1,.68,1.94,1.07,2.82.1.2.29.39.49.29s.39-.29.29-.48c-.39-1-.68-1.95-1.07-2.83-.1-.19-.29-.39-.49-.29A.37.37,0,0,0,181.89,385.48Z"/><path class="cls-16" d="M184.51,379.73c.2,1,.49,1.95.69,2.83.09.19.29.39.48.29s.39-.29.3-.49c-.2-1-.49-1.95-.69-2.82-.09-.2-.29-.39-.48-.29S184.51,379.44,184.51,379.73Z"/><path class="cls-16" d="M187.83,394.83c.48,1.55,1,3.21,1.46,4.77.19.48,1,.29.78-.2-.49-1.56-1-3.21-1.46-4.77C188.41,394.14,187.63,394.34,187.83,394.83Z"/><path class="cls-16" d="M223,381.49a9.52,9.52,0,0,1,1.16,3.31.43.43,0,0,0,.39.39c.2,0,.49-.2.39-.39a10.22,10.22,0,0,0-1.26-3.8A.42.42,0,0,0,223,381.49Z"/><path class="cls-16" d="M227.06,383a2.17,2.17,0,0,0,.68,1.95c.2.1.39.2.59,0s.19-.39,0-.58a.1.1,0,0,1-.1-.1.1.1,0,0,0-.1-.1c0-.1-.09-.1-.09-.19v-.2c0-.1,0-.1-.1-.19v-.49h0v-.39c-.1-.1-.2-.19-.29-.19C227.36,382.75,227.06,382.85,227.06,383Z"/><path class="cls-16" d="M230.76,375.45a15.29,15.29,0,0,0,.39,1.95.38.38,0,0,0,.49.29.54.54,0,0,0,.29-.49,13.46,13.46,0,0,0-.39-1.95.37.37,0,0,0-.49-.29C230.86,375,230.76,375.25,230.76,375.45Z"/><path class="cls-33" d="M182.86,163.17a11,11,0,0,0,3,7.59,16,16,0,0,0,7.69,4.58,34.36,34.36,0,0,0,9.93,1.17c3.31.1,6.72,0,9.74-1.56a8.46,8.46,0,0,0,4.77-6.62v-1a.42.42,0,0,0-.39-.39c-.2,0-.49.19-.39.39a7.08,7.08,0,0,1-3.6,6.52c-2.63,1.65-5.94,1.85-9.06,1.85a39.12,39.12,0,0,1-9.54-.88,16.57,16.57,0,0,1-7.69-3.89,11.36,11.36,0,0,1-3.51-6.82v-1C183.74,162.68,182.86,162.68,182.86,163.17Z"/><path class="cls-33" d="M167.77,201.63c1.07-3.89,2.14-7.79,3.21-11.78,1.07-3.7,2.05-7.5,3.22-11.2.68-2,1.46-4,2.33-5.94a.43.43,0,1,0-.77-.39,71.18,71.18,0,0,0-3.9,10.81c-1.07,3.89-2.14,7.69-3.21,11.59-.59,2.24-1.17,4.38-1.85,6.62C166.89,201.92,167.67,202.12,167.77,201.63Z"/><path class="cls-33" d="M172.93,173.49c.29,1.27.49,2.53.78,3.7a.37.37,0,0,0,.49.29.53.53,0,0,0,.29-.48c-.29-1.27-.49-2.54-.78-3.7a.38.38,0,0,0-.49-.3A.34.34,0,0,0,172.93,173.49Z"/><path class="cls-33" d="M168.74,195.89A43.25,43.25,0,0,0,158.62,190c-2.92-1.27-5.94-2.54-9-3.8a15.85,15.85,0,0,0-1.95-.78c-.39-.1-.68-.29-1.07-.39a.4.4,0,1,0-.19.78c.78.29,1.65.68,2.43,1a4,4,0,0,1,.88.39c.39.2.68.29,1.07.49a20.22,20.22,0,0,1,2.14,1c3.21,1.37,6.52,2.73,9.74,4.39a24.49,24.49,0,0,1,5.35,3.6.38.38,0,0,0,.59,0C168.94,196.28,168.94,196,168.74,195.89Z"/><path class="cls-33" d="M167.77,242.53a30,30,0,0,0,12.75,10,32.32,32.32,0,0,0,8,2.14,54.62,54.62,0,0,0,9.83-.1,60.19,60.19,0,0,1,10.22-.19c3.41.19,6.72.68,10.13,1.07,6.33.68,12.76,1.07,18.89-1a31.1,31.1,0,0,0,13.63-9.16,17.31,17.31,0,0,0,1.27-1.55c.29-.39-.39-.88-.69-.39a29.36,29.36,0,0,1-12.85,9.73,30.13,30.13,0,0,1-8.27,2,55.79,55.79,0,0,1-9.84-.19c-3.31-.3-6.52-.78-9.83-1.07a67.21,67.21,0,0,0-9.93-.2c-3.41.2-6.72.68-10.13.58a28.41,28.41,0,0,1-8.08-1.46,28.7,28.7,0,0,1-13.24-8.95c-.39-.49-.88-1.08-1.27-1.56C168.16,241.65,167.38,242.14,167.77,242.53Z"/><path class="cls-33" d="M212.17,236.3a42.73,42.73,0,0,0,11.19-1.37c.88-.29,1.85-.58,2.73-1s1.66-.88,2.43-1.27a5.8,5.8,0,0,1,2.54-.68c1,0,2,.2,3,.2a14.26,14.26,0,0,0,6.23-2,.47.47,0,0,0,.19-.58.46.46,0,0,0-.58-.2,16.84,16.84,0,0,1-5.26,1.85,15,15,0,0,1-2.92-.19,5.59,5.59,0,0,0-2.83.48,20.2,20.2,0,0,0-2.43,1.17,19.21,19.21,0,0,1-2.53,1.07A25.21,25.21,0,0,1,218.5,235c-2.05.2-4.19.29-6.33.39C211.68,235.52,211.68,236.3,212.17,236.3Z"/><path class="cls-33" d="M198.44,189.17c.19,1.07.29,2,.49,3.11a.37.37,0,0,0,.48.3.54.54,0,0,0,.29-.49c-.19-1.07-.29-2.05-.48-3.12a.37.37,0,0,0-.49-.29A.54.54,0,0,0,198.44,189.17Z"/><path class="cls-33" d="M201.65,188.68c0,.58-.1,1.27-.1,1.85a.43.43,0,0,0,.39.39.42.42,0,0,0,.39-.39c0-.58.1-1.27.1-1.85a.42.42,0,0,0-.39-.39A.43.43,0,0,0,201.65,188.68Z"/><path class="cls-33" d="M207,182.93a.8.8,0,0,1,.09.49v1h0v.09c0,.2.1.49.29.49s.49-.1.49-.29a3.64,3.64,0,0,0-.19-2.05c0-.09-.1-.19-.2-.29a.18.18,0,0,0-.29,0C207.1,182.55,206.91,182.74,207,182.93Z"/><path class="cls-33" d="M234.37,174.27c.19,1.07.48,2.14.68,3.11a.38.38,0,0,0,.49.3.56.56,0,0,0,.29-.49c-.2-1.07-.49-2.14-.68-3.12a.38.38,0,0,0-.49-.29A.33.33,0,0,0,234.37,174.27Z"/><path class="cls-33" d="M237.39,174.17c.29,1,.48,1.85.78,2.83.09.19.29.39.48.29s.39-.29.29-.49c-.29-1-.48-1.85-.77-2.82-.1-.2-.3-.39-.49-.29S237.29,174,237.39,174.17Z"/><path class="cls-33" d="M234.56,181.57a55.39,55.39,0,0,0,3.8,6.62c1.46,2.15,2.92,4.19,4.19,6.43a27.12,27.12,0,0,1,2.92,7.11,45.37,45.37,0,0,1,.87,9c.1,3.11.3,6.23.39,9.35a4.59,4.59,0,0,0,.1,1.16c0,.49.88.49.88,0-.1-3.21-.3-6.33-.39-9.54a58.86,58.86,0,0,0-.78-9.15,25.67,25.67,0,0,0-2.73-7.5c-1.26-2.24-2.73-4.38-4.09-6.52a57.68,57.68,0,0,1-4-6.63c-.1-.29-.29-.58-.39-.87a.47.47,0,0,0-.58-.2C234.56,181.18,234.46,181.38,234.56,181.57Z"/><path class="cls-8" d="M181.6,149.44c1.46.87,2.92,1.65,4.47,2.53.49.29.88-.49.39-.68-1.46-.88-2.92-1.66-4.47-2.53C181.6,148.46,181.21,149.15,181.6,149.44Z"/><path class="cls-8" d="M183.54,152.07a6.64,6.64,0,0,1,1.27-.49c.09,0,.19-.1.29-.19a.19.19,0,0,0,0-.3c0-.09-.1-.19-.2-.29s-.19-.1-.29,0a6.55,6.55,0,0,1-1.26.49c-.1,0-.2.1-.3.19a.19.19,0,0,0,0,.29c0,.1.1.2.2.3S183.44,152.16,183.54,152.07Z"/><path class="cls-25" d="M183.64,145.64c-.2,1.07,1.46,1.56,2.24.88a3.76,3.76,0,0,0,.87-2.92,28.74,28.74,0,0,0-2.33-11.4c1.65,1.27,4.57-.29,4.48-2.43a8.22,8.22,0,0,0,7.78.49,7.79,7.79,0,0,1,2.83-1.08,12.28,12.28,0,0,1,2.73.69,5,5,0,0,0,5.16-1.76,5.55,5.55,0,0,0,2.53,1.95,1.78,1.78,0,0,0,2.33-1.46,1.92,1.92,0,0,0,3.31-1.07,7.17,7.17,0,0,0-2.82-5.36c-1.75-1.17-4.28-1.26-5.74.2-4.19-2.24-9.35-1.56-14-.78-1.37.19-2.73.49-4.19.68-3,.49-6.62,1.46-7.5,4.38-3.6,1.07-5.16,6.33-2.53,9.16a2.79,2.79,0,0,1,.78,1.07,4.29,4.29,0,0,1-.39,2.14,3.65,3.65,0,0,0,1.66,3.89,2.21,2.21,0,0,0-.49,3.12,2.16,2.16,0,0,0,3.11,0Z"/><path class="cls-25" d="M178.87,129.18c1.65-2.33,5.74-3.89,4.67-6.62a9.27,9.27,0,0,0-6.33-5.55c-.29.78,1,1.56,1.76,1a2.69,2.69,0,0,0,.77-2.44,9.53,9.53,0,0,0-6.62-8.08,21.69,21.69,0,0,0-10.61-4.29,1.45,1.45,0,0,0,1.66,1.27,6.7,6.7,0,0,0-7-4.28,6.55,6.55,0,0,0-5.46,6.13c-.68-1.85-3.31-2-5.06-1.27-3.89,1.86-5.35,7.6-2.73,11,.69,1,2.63,1.46,2.73.29.1-.78-.78-1.27-1.56-1.36-2.82-.29-5.45,2-6.23,4.77s-.19,5.65.78,8.37a13.23,13.23,0,0,0,3.7,6.14c1.85,1.56,4.67,2.24,6.82,1.07.78-.39,1.36-1.66.58-2-2.14,2.93-1,7.7,2.34,9.16a6.32,6.32,0,0,0,8.47-4.19c.19,2.73,3.5,4.38,6,3.6a7.78,7.78,0,0,0,5-5.84c1.27,1.75,4.19,1,5.36-.78S179,131.23,178.87,129.18Z"/><path class="cls-8" d="M164.65,209.91a57.29,57.29,0,0,0-9.15-.49,48.46,48.46,0,0,0-9.05,1.27c-1.66.39-3.31.87-5,1.36-.19.1-.39.29-.29.49s.29.39.49.29a51.88,51.88,0,0,1,8.76-2.14,45.25,45.25,0,0,1,9-.49c1.65.1,3.31.2,5.06.39.19,0,.49-.1.49-.29S164.85,209.91,164.65,209.91Z"/><path class="cls-8" d="M135.05,218.48a2.51,2.51,0,0,0-.19,2.72,2.74,2.74,0,0,0,2.34,1.27.42.42,0,0,0,.39-.39.43.43,0,0,0-.39-.39,1.65,1.65,0,0,1-1.56-.87,1.83,1.83,0,0,1,.19-1.86.47.47,0,0,0-.19-.58A.46.46,0,0,0,135.05,218.48Z"/><g class="cls-34"><path class="cls-8" d="M215.19,165.12c-2.63,1.16-6.43.48-9.35.19a67.63,67.63,0,0,1-10.91-1.75,27.78,27.78,0,0,0,20.84,2.53,3.61,3.61,0,0,1-.78-1.46Z"/></g><path class="cls-8" d="M207.2,140.87a7.7,7.7,0,0,0,2,4,11.5,11.5,0,0,0,1.56,1.56,2.41,2.41,0,0,1,.58.78,2,2,0,0,1-.19,1.07c-.39.88-.78,1.75-1.17,2.73a.39.39,0,0,0,.19.58.39.39,0,0,0,.59-.19,27.49,27.49,0,0,0,1.07-2.54,2.59,2.59,0,0,0,.19-2.53,5.56,5.56,0,0,0-.78-.87,6.24,6.24,0,0,1-.77-.78,11.84,11.84,0,0,1-1.37-1.76,6.17,6.17,0,0,1-.78-2.24.41.41,0,0,0-.39-.38C207.4,140.48,207.2,140.67,207.2,140.87Z"/><path class="cls-8" d="M203.79,152a3.91,3.91,0,0,0,4.68,2.14c.48-.1.29-1-.2-.78a4.26,4.26,0,0,1-1.17.1h-.19a.34.34,0,0,1-.29-.1c-.2-.09-.39-.09-.49-.19a3.46,3.46,0,0,1-1.56-1.56.47.47,0,0,0-.58-.19C203.7,151.48,203.7,151.68,203.79,152Z"/><path class="cls-25" d="M200.49,135.12c.39-.09.68.3.77.59.2.87-.68,1.56-1.55,1.75a23.24,23.24,0,0,0-2.63.29,4.49,4.49,0,0,0-1.37,1c-.29.29-.68.58-1,.87.78-2.53,3.21-4,5.84-4.57.1-.2.2-.1,0,0Z"/><path class="cls-25" d="M210.8,134.15c-.38-.1-.68.29-.78.58-.19.88.69,1.56,1.56,1.76a21.15,21.15,0,0,1,2.63.29,4.29,4.29,0,0,1,1.37,1c.29.3.68.59,1,.88-.78-2.53-3.21-4-5.84-4.58-.2-.09-.1-.19,0,0Z"/><path d="M199.42,144.37c.15,1.47-.63,2.58-1.65,2.68s-2-1-2.15-2.3c-.14-1.47.63-2.58,1.65-2.68C198.28,141.82,199.27,142.91,199.42,144.37Z"/><path d="M215.42,142.62c.15,1.46-.63,2.58-1.65,2.68s-2-1-2.15-2.3c-.14-1.47.63-2.58,1.65-2.68C214.28,140.07,215.27,141.15,215.42,142.62Z"/><g class="cls-35"><path class="cls-1" d="M200.56,73.11h46.95A10.46,10.46,0,0,1,258,83.5v25.62a10.46,10.46,0,0,1-10.53,10.39H214.92l-6.74,6.65L206,119.51h-5.45A10.45,10.45,0,0,1,190,109.12V83.5A10.45,10.45,0,0,1,200.56,73.11Z"/><path class="cls-36" d="M190,83.5v25.62a10.45,10.45,0,0,0,10.52,10.39H206l2.17,6.65,6.74-6.65h32.59A10.46,10.46,0,0,0,258,109.12V83.5a10.46,10.46,0,0,0-10.53-10.39H200.56A10.45,10.45,0,0,0,190,83.5Zm.55,0a9.87,9.87,0,0,1,9.92-9.79h47a9.87,9.87,0,0,1,9.93,9.79v25.62a9.87,9.87,0,0,1-9.93,9.79H214.69l-6.24,6.16-2-6.16h-5.91a9.88,9.88,0,0,1-9.93-9.79V83.5Z"/><g class="cls-37"><path class="cls-38" d="M237.45,97H210.38a3.34,3.34,0,0,1-3.28-3.38L207,89.72h1.21v3.86a2.22,2.22,0,0,0,2.18,2.24h27.07a2.21,2.21,0,0,0,2.18-2.24V87.14h1.11v6.44A3.34,3.34,0,0,1,237.45,97Z"/><path class="cls-39" d="M240.74,87.14h-1.11v1.48h1.11Z"/><path class="cls-38" d="M208.76,91a1.17,1.17,0,0,0-.85-1.4,1.13,1.13,0,0,0-1.36.86,1.17,1.17,0,0,0,.84,1.41A1.14,1.14,0,0,0,208.76,91Z"/><path class="cls-40" d="M207.65,91.21a.49.49,0,1,1,.48-.49A.49.49,0,0,1,207.65,91.21Z"/><path class="cls-41" d="M207.53,90.26a.48.48,0,0,0-.35.46.36.36,0,1,0,.69,0A.48.48,0,0,0,207.53,90.26Z"/><path class="cls-38" d="M241.29,91a1.15,1.15,0,0,0-.84-1.4,1.14,1.14,0,0,0-1.37.86,1.18,1.18,0,0,0,.85,1.41A1.13,1.13,0,0,0,241.29,91Z"/><path class="cls-40" d="M240.18,91.21a.49.49,0,1,1,.48-.49A.49.49,0,0,1,240.18,91.21Z"/><path class="cls-41" d="M240,90.26a.5.5,0,0,0-.31.46.33.33,0,1,0,.62,0A.52.52,0,0,0,240,90.26Z"/><path class="cls-38" d="M226.78,102c0,3.58-1.28,3-2.86,3s-2.87.55-2.87-3S222.33,92,223.92,92,226.78,98.37,226.78,102Z"/><path class="cls-38" d="M224.65,88.14H223.2v15.57h1.45Z"/><path class="cls-39" d="M221.05,102c0,2.44.6,3,1.48,3l.4,0a2.61,2.61,0,0,0,.4,0c.88-.07,1.48-.6,1.48-3,0-2.79-.77-7.31-1.88-9.14C221.84,94.65,221.05,99.15,221.05,102Z"/><path class="cls-39" d="M223.2,90.66a1.84,1.84,0,0,0,1.06.35,1.81,1.81,0,0,0,.4,0V88.14h-1.45v2.52Z"/><path class="cls-38" d="M237.6,106.75H210.23a2.91,2.91,0,0,1,2.88-3h21.61A2.92,2.92,0,0,1,237.6,106.75Z"/><path class="cls-39" d="M222.45,103.79h-9.34a2.91,2.91,0,0,0-2.88,3h15.09A2.9,2.9,0,0,0,222.45,103.79Z"/><path class="cls-38" d="M237.39,109.58H210.44a1.68,1.68,0,0,1,0-3.35h26.95a1.68,1.68,0,0,1,0,3.35Z"/><path class="cls-39" d="M233.71,107.92a1.65,1.65,0,0,0-1.63-1.67H210.44a1.67,1.67,0,0,0,0,3.34h21.64A1.66,1.66,0,0,0,233.71,107.92Z"/><path class="cls-40" d="M223.92,90.67a1.87,1.87,0,1,0-1.82-1.87A1.85,1.85,0,0,0,223.92,90.67Z"/><path class="cls-41" d="M223.35,87a1.88,1.88,0,1,0,1.24,1.77A1.88,1.88,0,0,0,223.35,87Z"/><path class="cls-40" d="M225.74,96.93a1.92,1.92,0,0,0-1.4-2.32A1.87,1.87,0,0,0,222.08,96a1.94,1.94,0,0,0,1.4,2.33A1.88,1.88,0,0,0,225.74,96.93Z"/><path class="cls-41" d="M223.35,94.65A1.92,1.92,0,0,0,222,96.49a2,2,0,0,0,1.31,1.85,1.92,1.92,0,0,0,1.31-1.85A2,2,0,0,0,223.35,94.65Z"/><path class="cls-40" d="M247.86,88H232.51a1.2,1.2,0,0,1-1.18-1.22v-.63H249v.63A1.22,1.22,0,0,1,247.86,88Z"/><path class="cls-41" d="M247.86,88H232.51a1.2,1.2,0,0,1-1.18-1.22v-.63H249v.63A1.22,1.22,0,0,1,247.86,88Z"/><path class="cls-41" d="M236.56,86.74v-.63h-5.23v.63A1.2,1.2,0,0,0,232.51,88h2.85A1.21,1.21,0,0,0,236.56,86.74Z"/><path class="cls-41" d="M249.08,85.8v-.69H231.32v.69c0,.73,1,1.31,2.27,1.31h13.22C248.05,87.11,249.08,86.51,249.08,85.8Z"/><path class="cls-40" d="M215.47,91.64H200.12A1.19,1.19,0,0,1,199,90.43V89.8h17.7v.63A1.21,1.21,0,0,1,215.47,91.64Z"/><path class="cls-41" d="M215.47,91.64H200.12A1.19,1.19,0,0,1,199,90.43V89.8h17.7v.63A1.21,1.21,0,0,1,215.47,91.64Z"/><path class="cls-41" d="M204.17,90.43V89.8H199v.63a1.19,1.19,0,0,0,1.17,1.21H203A1.2,1.2,0,0,0,204.17,90.43Z"/><path class="cls-41" d="M216.69,89.49V88.8H198.93v.69c0,.73,1,1.31,2.27,1.31h13.22C215.66,90.8,216.69,90.2,216.69,89.49Z"/></g></g></g></g></svg>