<svg width="390" height="523" viewBox="0 0 390 523" fill="none" xmlns="http://www.w3.org/2000/svg">
<rect x="-137" width="527" height="499" fill="#DDDDFF"/>
<path d="M177.12 452.727C232.072 457.225 299.607 448.543 338.405 403.603C382.766 351.988 365.424 277.029 375.385 215.075C384.826 156.623 398.575 96.4359 356.547 47.0651C319.437 3.42998 270.328 3.52881 219.622 20.7855C171.846 36.9336 122.656 49.4632 75.4325 67.0762C10.4663 91.3576 2.61371 158.219 8.84068 218.636C11.8585 248.694 17.4842 278.399 19.3923 308.573C21.6542 342.958 22.8667 376.491 49.4376 401.837C80.375 431.452 127.974 448.582 177.12 452.727Z" fill="#DDDDFF"/>
<path d="M787 231.531V543.929H100.424V294.397H159.982V366.637H175.148V240.354H250.974V360.295H260.901V208.094H326.801V250.005H360.441V301.841H370.643V269.305H430.477V366.637H448.124V287.503H502.719V227.119H539.943V192.929H583.233V345.13H597.571V281.437H668.435V372.427H678.361V298.257H750.328V231.531H787Z" fill="#BFBFFF"/>
<path d="M117.795 303.496H107.593V317.282H117.795V303.496Z" fill="#DDDDFF"/>
<path d="M135.166 303.496H124.964V317.282H135.166V303.496Z" fill="#DDDDFF"/>
<path d="M152.813 303.496H142.611V317.282H152.813V303.496Z" fill="#DDDDFF"/>
<path d="M117.795 324.451H107.593V338.237H117.795V324.451Z" fill="#DDDDFF"/>
<path d="M135.166 324.451H124.964V338.237H135.166V324.451Z" fill="#DDDDFF"/>
<path d="M152.813 324.451H142.611V338.237H152.813V324.451Z" fill="#DDDDFF"/>
<path d="M117.795 345.13H107.593V358.917H117.795V345.13Z" fill="#DDDDFF"/>
<path d="M135.166 345.13H124.964V358.917H135.166V345.13Z" fill="#DDDDFF"/>
<path d="M152.813 345.13H142.611V358.917H152.813V345.13Z" fill="#DDDDFF"/>
<path d="M117.795 365.81H107.593V379.596H117.795V365.81Z" fill="#DDDDFF"/>
<path d="M135.166 365.81H124.964V379.596H135.166V365.81Z" fill="#DDDDFF"/>
<path d="M152.813 365.81H142.611V379.596H152.813V365.81Z" fill="#DDDDFF"/>
<path d="M241.599 249.177H183.695V257.725H241.599V249.177Z" fill="#DDDDFF"/>
<path d="M241.599 265.997H183.695V274.544H241.599V265.997Z" fill="#DDDDFF"/>
<path d="M241.599 282.816H183.695V291.363H241.599V282.816Z" fill="#DDDDFF"/>
<path d="M241.599 299.635H183.695V308.183H241.599V299.635Z" fill="#DDDDFF"/>
<path d="M241.599 316.455H183.695V325.002H241.599V316.455Z" fill="#DDDDFF"/>
<path d="M241.599 332.999H183.695V341.546H241.599V332.999Z" fill="#DDDDFF"/>
<path d="M241.599 349.818H183.695V358.365H241.599V349.818Z" fill="#DDDDFF"/>
<path d="M241.599 366.637H183.695V375.185H241.599V366.637Z" fill="#DDDDFF"/>
<path d="M406.212 277.026H388.289V285.298H406.212V277.026Z" fill="#DDDDFF"/>
<path d="M406.212 293.294H388.289V301.566H406.212V293.294Z" fill="#DDDDFF"/>
<path d="M406.212 309.562H388.289V317.833H406.212V309.562Z" fill="#DDDDFF"/>
<path d="M406.212 325.554H388.289V333.826H406.212V325.554Z" fill="#DDDDFF"/>
<path d="M406.212 341.822H388.289V350.094H406.212V341.822Z" fill="#DDDDFF"/>
<path d="M406.212 358.089H388.289V366.361H406.212V358.089Z" fill="#DDDDFF"/>
<path d="M406.212 374.357H388.289V382.629H406.212V374.357Z" fill="#DDDDFF"/>
<path d="M406.212 390.35H388.289V398.621H406.212V390.35Z" fill="#DDDDFF"/>
<path d="M289.577 216.917H270.827V230.152H289.577V216.917Z" fill="#DDDDFF"/>
<path d="M317.426 216.917H298.676V230.152H317.426V216.917Z" fill="#DDDDFF"/>
<path d="M289.577 236.218H270.827V249.453H289.577V236.218Z" fill="#DDDDFF"/>
<path d="M317.426 236.218H298.676V249.453H317.426V236.218Z" fill="#DDDDFF"/>
<path d="M289.577 255.519H270.827V268.754H289.577V255.519Z" fill="#DDDDFF"/>
<path d="M317.426 255.519H298.676V268.754H317.426V255.519Z" fill="#DDDDFF"/>
<path d="M289.577 274.82H270.827V288.055H289.577V274.82Z" fill="#DDDDFF"/>
<path d="M317.426 274.82H298.676V288.055H317.426V274.82Z" fill="#DDDDFF"/>
<path d="M289.577 294.396H270.827V307.631H289.577V294.396Z" fill="#DDDDFF"/>
<path d="M317.426 294.396H298.676V307.631H317.426V294.396Z" fill="#DDDDFF"/>
<path d="M289.577 313.698H270.827V326.933H289.577V313.698Z" fill="#DDDDFF"/>
<path d="M317.426 313.698H298.676V326.933H317.426V313.698Z" fill="#DDDDFF"/>
<path d="M289.577 332.999H270.827V346.233H289.577V332.999Z" fill="#DDDDFF"/>
<path d="M317.426 332.999H298.676V346.233H317.426V332.999Z" fill="#DDDDFF"/>
<path d="M289.577 352.299H270.827V365.534H289.577V352.299Z" fill="#DDDDFF"/>
<path d="M317.426 352.299H298.676V365.534H317.426V352.299Z" fill="#DDDDFF"/>
<path d="M351.893 255.519H333.143V268.754H351.893V255.519Z" fill="#DDDDFF"/>
<path d="M351.893 274.82H333.143V288.055H351.893V274.82Z" fill="#DDDDFF"/>
<path d="M351.893 294.396H333.143V307.631H351.893V294.396Z" fill="#DDDDFF"/>
<path d="M351.893 313.697H333.143V326.932H351.893V313.697Z" fill="#DDDDFF"/>
<path d="M351.893 332.998H333.143V346.233H351.893V332.998Z" fill="#DDDDFF"/>
<path d="M351.893 352.299H333.143V365.534H351.893V352.299Z" fill="#DDDDFF"/>
<path d="M289.577 371.6H270.827V384.835H289.577V371.6Z" fill="#DDDDFF"/>
<path d="M317.426 371.6H298.676V384.835H317.426V371.6Z" fill="#DDDDFF"/>
<path d="M351.893 371.6H333.143V384.835H351.893V371.6Z" fill="#DDDDFF"/>
<path d="M289.577 390.625H270.827V403.86H289.577V390.625Z" fill="#DDDDFF"/>
<path d="M317.426 390.625H298.676V403.86H317.426V390.625Z" fill="#DDDDFF"/>
<path d="M351.893 390.625H333.143V403.86H351.893V390.625Z" fill="#DDDDFF"/>
<path d="M289.577 409.65H270.827V422.885H289.577V409.65Z" fill="#DDDDFF"/>
<path d="M317.426 409.65H298.676V422.885H317.426V409.65Z" fill="#DDDDFF"/>
<path d="M351.893 409.65H333.143V422.885H351.893V409.65Z" fill="#DDDDFF"/>
<path d="M289.577 428.951H270.827V442.186H289.577V428.951Z" fill="#DDDDFF"/>
<path d="M317.426 428.951H298.676V442.186H317.426V428.951Z" fill="#DDDDFF"/>
<path d="M351.893 428.951H333.143V442.186H351.893V428.951Z" fill="#DDDDFF"/>
<path d="M289.577 447.976H270.827V461.211H289.577V447.976Z" fill="#DDDDFF"/>
<path d="M317.426 447.976H298.676V461.211H317.426V447.976Z" fill="#DDDDFF"/>
<path d="M351.893 447.976H333.143V461.211H351.893V447.976Z" fill="#DDDDFF"/>
<path d="M100.423 543.929H-397V264.067H-337.442V336.307H-322V295.5H-246.449V360.295H-236.247V208.094H-170.623V250.005H-136.707V301.841H-126.505V269.306H-66.6712V366.637H-49.2999V287.503H5.57104V227.119H42.7951L85.8095 227.395V345.13H100.148L100.423 543.929Z" fill="#BFBFFF"/>
<path d="M4.4678 297.43H-5.73438V309.01H4.4678V297.43Z" fill="#DDDDFF"/>
<path d="M4.4678 314.8H-5.73438V326.381H4.4678V314.8Z" fill="#DDDDFF"/>
<path d="M4.4678 332.171H-5.73438V343.752H4.4678V332.171Z" fill="#DDDDFF"/>
<path d="M4.4678 349.542H-5.73438V361.123H4.4678V349.542Z" fill="#DDDDFF"/>
<path d="M4.4678 367.188H-5.73438V378.769H4.4678V367.188Z" fill="#DDDDFF"/>
<path d="M4.4678 385.111H-5.73438V396.691H4.4678V385.111Z" fill="#DDDDFF"/>
<path d="M4.4678 402.757H-5.73438V414.338H4.4678V402.757Z" fill="#DDDDFF"/>
<path d="M4.4678 420.68H-5.73438V432.26H4.4678V420.68Z" fill="#DDDDFF"/>
<path d="M23.2178 235.667H13.0156V247.248H23.2178V235.667Z" fill="#DDDDFF"/>
<path d="M40.8652 235.667H30.6631V247.248H40.8652V235.667Z" fill="#DDDDFF"/>
<path d="M23.2178 253.038H13.0156V264.618H23.2178V253.038Z" fill="#DDDDFF"/>
<path d="M40.8652 253.038H30.6631V264.618H40.8652V253.038Z" fill="#DDDDFF"/>
<path d="M23.2178 270.409H13.0156V281.989H23.2178V270.409Z" fill="#DDDDFF"/>
<path d="M40.8652 270.409H30.6631V281.989H40.8652V270.409Z" fill="#DDDDFF"/>
<path d="M23.2178 287.779H13.0156V299.36H23.2178V287.779Z" fill="#DDDDFF"/>
<path d="M40.8652 287.779H30.6631V299.36H40.8652V287.779Z" fill="#DDDDFF"/>
<path d="M23.2178 305.702H13.0156V317.282H23.2178V305.702Z" fill="#DDDDFF"/>
<path d="M40.8652 305.702H30.6631V317.282H40.8652V305.702Z" fill="#DDDDFF"/>
<path d="M23.2178 323.348H13.0156V334.929H23.2178V323.348Z" fill="#DDDDFF"/>
<path d="M40.8652 323.348H30.6631V334.929H40.8652V323.348Z" fill="#DDDDFF"/>
<path d="M23.2178 341.27H13.0156V352.851H23.2178V341.27Z" fill="#DDDDFF"/>
<path d="M40.8652 341.27H30.6631V352.851H40.8652V341.27Z" fill="#DDDDFF"/>
<path d="M23.2178 358.917H13.0156V370.497H23.2178V358.917Z" fill="#DDDDFF"/>
<path d="M40.8652 358.917H30.6631V370.497H40.8652V358.917Z" fill="#DDDDFF"/>
<path d="M23.2178 376.839H13.0156V388.419H23.2178V376.839Z" fill="#DDDDFF"/>
<path d="M40.8652 376.839H30.6631V388.419H40.8652V376.839Z" fill="#DDDDFF"/>
<path d="M23.2178 395.037H13.0156V406.618H23.2178V395.037Z" fill="#DDDDFF"/>
<path d="M40.8652 395.037H30.6631V406.618H40.8652V395.037Z" fill="#DDDDFF"/>
<path d="M23.2178 412.959H13.0156V424.539H23.2178V412.959Z" fill="#DDDDFF"/>
<path d="M40.8652 412.959H30.6631V424.539H40.8652V412.959Z" fill="#DDDDFF"/>
<path d="M23.2178 430.881H13.0156V442.462H23.2178V430.881Z" fill="#DDDDFF"/>
<path d="M40.8652 430.881H30.6631V442.462H40.8652V430.881Z" fill="#DDDDFF"/>
<path d="M60.7178 235.667H50.5156V247.248H60.7178V235.667Z" fill="#DDDDFF"/>
<path d="M78.0889 235.667H67.8867V247.248H78.0889V235.667Z" fill="#DDDDFF"/>
<path d="M60.7178 253.038H50.5156V264.618H60.7178V253.038Z" fill="#DDDDFF"/>
<path d="M78.0889 253.038H67.8867V264.618H78.0889V253.038Z" fill="#DDDDFF"/>
<path d="M60.7178 270.409H50.5156V281.989H60.7178V270.409Z" fill="#DDDDFF"/>
<path d="M78.0889 270.409H67.8867V281.989H78.0889V270.409Z" fill="#DDDDFF"/>
<path d="M60.7178 287.779H50.5156V299.36H60.7178V287.779Z" fill="#DDDDFF"/>
<path d="M78.0889 287.779H67.8867V299.36H78.0889V287.779Z" fill="#DDDDFF"/>
<path d="M60.7178 305.702H50.5156V317.282H60.7178V305.702Z" fill="#DDDDFF"/>
<path d="M78.0889 305.702H67.8867V317.282H78.0889V305.702Z" fill="#DDDDFF"/>
<path d="M60.7178 323.348H50.5156V334.929H60.7178V323.348Z" fill="#DDDDFF"/>
<path d="M78.0889 323.348H67.8867V334.929H78.0889V323.348Z" fill="#DDDDFF"/>
<path d="M60.7178 341.27H50.5156V352.851H60.7178V341.27Z" fill="#DDDDFF"/>
<path d="M78.0889 341.27H67.8867V352.851H78.0889V341.27Z" fill="#DDDDFF"/>
<path d="M60.7178 358.917H50.5156V370.497H60.7178V358.917Z" fill="#DDDDFF"/>
<path d="M78.0889 358.917H67.8867V370.497H78.0889V358.917Z" fill="#DDDDFF"/>
<path d="M60.7178 376.839H50.5156V388.419H60.7178V376.839Z" fill="#DDDDFF"/>
<path d="M78.0889 376.839H67.8867V388.419H78.0889V376.839Z" fill="#DDDDFF"/>
<path d="M60.7178 395.037H50.5156V406.618H60.7178V395.037Z" fill="#DDDDFF"/>
<path d="M78.0889 395.037H67.8867V406.618H78.0889V395.037Z" fill="#DDDDFF"/>
<path d="M60.7178 412.959H50.5156V424.539H60.7178V412.959Z" fill="#DDDDFF"/>
<path d="M78.0889 412.959H67.8867V424.539H78.0889V412.959Z" fill="#DDDDFF"/>
<path d="M60.7178 430.881H50.5156V442.462H60.7178V430.881Z" fill="#DDDDFF"/>
<path d="M78.0889 430.881H67.8867V442.462H78.0889V430.881Z" fill="#DDDDFF"/>
<path d="M150.943 155.501C161.083 134.485 170.861 113.469 181.002 92.8162C181.726 91.0045 182.813 89.1928 184.261 88.1058C186.434 86.2941 188.969 86.2941 191.867 85.9318C210.699 84.1201 229.531 78.3227 246.19 69.2642C251.623 66.3655 257.417 63.1045 263.212 64.9162C265.385 65.6408 267.557 67.0902 269.368 68.1772C276.249 72.1629 291.46 73.9746 293.271 70.7136C294.719 67.8149 283.855 66.3655 281.319 63.4668L310.292 62.3798C312.827 62.0175 312.827 58.0318 310.292 57.6694C308.119 57.3071 295.806 54.046 293.633 54.4084C297.617 54.4084 309.206 52.5967 312.827 51.872C315.362 51.5097 315.362 47.8863 313.189 47.1616C309.206 46.0746 298.703 47.524 294.719 47.8863C296.892 48.9733 305.222 47.524 307.395 47.1616C309.93 46.7993 310.292 42.8136 307.395 42.4512C304.135 42.0889 295.081 43.5383 291.822 43.9006C293.995 43.9006 301.962 39.1902 304.135 38.4655C305.222 38.1032 305.222 36.2915 303.773 35.9292C293.633 35.2045 283.855 37.3785 274.076 39.1902C260.676 41.3642 185.71 46.437 166.516 59.8434C161.445 63.4668 157.099 68.1772 153.116 72.8876C138.267 91.0045 125.954 111.295 116.538 132.673C125.954 141.732 138.267 151.515 150.943 155.501Z" fill="#A95B35"/>
<path d="M72.3542 305.871C86.8405 329.785 95.5323 356.96 97.7052 384.86C98.4295 397.542 100.965 410.224 104.586 422.544C108.208 434.501 112.192 445.371 117.262 456.603C127.764 480.518 131.024 511.679 131.748 537.767C131.748 539.579 105.311 548.637 104.586 547.188C90.4621 521.462 75.2515 492.475 71.2677 463.488C70.5434 459.14 70.1813 454.429 69.0948 450.444C67.6462 445.733 65.4732 441.748 63.6624 437.399C47.0032 404.427 32.1547 370.729 19.4792 336.307C9.3388 364.57 -2.97455 391.745 -17.0987 418.196C-19.2716 422.181 -21.4446 426.167 -22.8932 430.515C-24.704 435.588 -25.4283 440.66 -26.1526 445.733C-30.4985 472.184 -49.3307 539.941 -49.3307 539.941C-49.3307 539.941 -68.1629 538.492 -75.0439 536.318C-76.8547 506.606 -77.2169 477.257 -69.2494 448.632C-65.99 436.675 -64.1792 424.355 -61.2819 412.036C-58.0225 396.818 -59.8333 380.512 -57.6604 364.932C-55.8496 350.801 -57.6604 332.322 -54.0388 317.828C-51.5037 307.32 -46.7956 296.088 -43.1741 288.841C-40.2768 282.681 -31.9472 273.26 -28.6878 267.101C-23.6175 257.68 -14.5636 255.868 -6.23397 249.346L72.3542 305.871Z" fill="#8E8B5E"/>
<path d="M170.137 195.72C179.553 207.315 189.331 219.634 192.59 234.128C194.401 242.462 193.677 251.158 192.59 259.854C191.142 270.362 185.709 289.566 185.709 289.566L134.283 289.928C134.283 289.928 137.542 272.536 134.645 267.825C133.559 266.014 115.813 280.145 107.846 292.102C100.602 302.972 93.3592 310.219 89.7377 317.465C89.0134 318.915 77.4243 308.045 76.3378 309.132C75.2514 310.219 73.8027 310.219 72.7163 310.581C34.3276 314.929 -5.50975 293.914 -23.9798 259.854C-19.996 248.984 -18.9096 244.998 -11.6664 234.128C-7.32053 227.243 -0.801695 220.721 6.44146 216.011C26.7223 201.88 50.9868 181.951 70.5433 167.458C77.0622 162.747 84.6675 158.762 90.8241 153.327C96.2565 148.254 100.602 142.456 104.948 136.297C110.743 127.963 121.245 120.354 126.678 111.658C141.526 120.716 149.494 126.514 165.429 133.76C157.461 149.341 154.564 169.269 160.721 185.575L170.137 195.72Z" fill="#8CA3C4"/>
<path d="M54.2468 292.464C57.8684 292.464 65.4737 293.189 69.0953 294.276L56.4198 288.841C56.0576 288.478 55.6955 288.478 55.6955 288.116C55.3333 287.029 56.7819 286.304 57.8684 286.304C67.2845 285.58 76.7006 291.739 80.3221 300.798C81.0465 302.61 81.7708 305.146 83.2194 306.233C84.668 307.32 86.4788 307.682 88.2896 307.682C106.035 308.769 124.505 303.697 142.251 304.421C143.7 297.899 144.424 296.812 145.511 289.928H181.002C178.467 302.247 175.207 315.291 170.862 326.886C170.137 329.06 169.413 331.234 167.602 333.046C165.067 335.945 161.445 337.032 157.824 337.394C133.197 341.742 107.846 334.858 83.9437 327.973C81.7708 327.249 79.5978 326.524 78.1492 325.075C76.7006 323.625 75.9763 321.451 74.8898 320.002C71.6304 316.016 65.1115 316.741 60.4035 314.929C58.2305 314.204 58.2306 310.581 60.7657 310.219C62.5765 309.856 66.5602 309.494 68.7331 309.494C64.3872 309.132 58.2305 307.682 54.609 305.508C52.7982 304.421 53.5225 301.16 55.6955 300.798C57.8684 300.436 61.8521 300.436 64.7494 300.798C60.4035 300.436 54.9711 299.349 51.7117 298.262C50.6253 297.899 49.5388 296.812 49.5388 295.363C49.9009 292.826 52.436 292.464 54.2468 292.464Z" fill="#A95B35"/>
<path d="M34.3282 328.698C29.258 330.872 24.55 333.771 19.8419 337.032C19.1176 337.394 18.7555 336.307 19.1176 335.945C23.4635 332.684 28.5337 329.785 33.6039 327.611C34.6904 327.249 35.0526 328.336 34.3282 328.698Z" fill="#84734F"/>
<path d="M94.0838 430.153C90.8244 432.689 87.5649 434.863 84.6677 437.399C83.9434 437.762 83.5812 436.675 83.9434 436.312C87.2028 433.776 90.4622 431.602 93.3595 429.066C94.0838 428.703 94.8081 429.79 94.0838 430.153Z" fill="#84734F"/>
<path d="M27.8092 335.583C32.5173 349.714 37.2253 364.207 43.0199 378.338C45.9171 385.223 48.8144 392.47 52.0738 398.992C55.3332 405.876 58.9548 412.398 62.5764 418.92C66.198 425.442 69.8195 431.964 73.0789 438.486C75.9762 444.646 78.1491 451.168 80.3221 457.69C84.3058 470.734 87.5652 484.141 91.1868 497.185C94.8084 510.229 98.7921 523.636 105.311 535.593C106.035 537.042 106.76 538.492 107.846 539.941C108.208 540.666 107.122 541.028 106.76 540.666C99.8786 528.709 95.5327 516.027 91.549 502.983C87.9274 489.938 84.668 476.17 80.6843 463.125C78.8735 456.603 76.7005 450.081 74.1654 443.921C71.2681 437.037 68.0087 430.515 64.3872 423.993C60.7656 417.471 56.7819 410.949 53.5224 404.064C50.263 397.542 47.0036 390.658 44.1063 383.773C38.3118 370.005 33.6038 355.511 28.5336 341.38C27.8092 339.568 27.4471 337.757 26.7228 335.945C26.7228 335.22 27.8092 334.858 27.8092 335.583Z" fill="#84734F"/>
<path d="M187.159 281.956C176.294 281.956 165.792 281.594 154.927 281.594C152.03 281.594 148.77 281.594 145.873 281.232C145.149 281.232 145.149 280.145 145.873 280.145C156.738 280.507 167.24 280.507 178.105 280.869C181.002 280.869 184.262 280.869 187.159 280.869C187.883 280.869 187.883 281.956 187.159 281.956Z" fill="#363644"/>
<path d="M160.721 141.369C150.581 136.297 140.802 130.862 131.386 125.064C128.851 123.615 125.954 121.803 123.419 120.354C122.695 119.991 123.419 118.904 124.143 119.267C133.559 125.064 143.338 130.862 153.478 135.934C156.375 137.384 158.91 138.833 161.808 140.282C161.808 140.645 161.445 141.732 160.721 141.369Z" fill="#363644"/>
<path d="M45.5546 304.059C34.6898 301.523 24.1873 297.899 14.409 292.827C5.35507 288.116 -2.97454 281.957 -9.85553 274.71C-13.8393 270.724 -17.0987 266.014 -19.996 261.303C-20.3581 260.579 -19.2716 260.216 -18.9095 260.579C-13.8393 269.275 -7.32045 276.522 0.647014 282.681C8.97664 289.203 18.3928 293.914 28.171 297.537C33.9655 299.711 39.76 301.523 45.9167 302.972C46.641 302.972 46.2789 304.059 45.5546 304.059Z" fill="#363644"/>
<path d="M25.9982 219.997C29.6197 222.171 32.8792 225.069 35.0521 228.693C35.4143 229.418 34.3278 229.78 33.9657 229.418C31.7927 226.157 28.8954 223.258 25.2739 221.084C24.9117 220.721 25.636 219.634 25.9982 219.997Z" fill="#363644"/>
<path d="M23.8251 225.07C25.6359 226.519 26.7223 228.331 27.4466 230.867C27.8088 231.592 26.7223 231.954 26.3602 231.229C25.6359 229.418 24.5494 227.606 22.7386 226.157C22.3765 225.794 22.3765 225.432 22.7386 225.432C23.1008 224.707 23.4629 224.707 23.8251 225.07Z" fill="#363644"/>
<path d="M159.997 204.416C156.737 206.59 152.754 206.59 149.494 205.141C145.873 203.692 142.975 201.155 140.803 197.894C138.63 194.633 136.819 190.647 135.37 186.662C133.922 182.676 132.835 177.966 133.922 173.98C135.008 170.356 137.543 166.733 141.527 165.646C142.251 165.284 142.613 166.733 141.889 166.733C138.63 167.458 136.457 170.356 135.37 173.617C133.922 177.603 134.646 181.589 136.094 185.212C137.181 188.836 138.992 192.821 140.803 196.082C142.613 199.343 145.148 201.88 148.408 203.691C152.029 205.503 156.013 205.503 159.273 203.691C159.997 202.967 160.721 204.054 159.997 204.416Z" fill="#363644"/>
<path d="M77.0626 311.668C73.0789 309.494 68.3708 308.769 64.3871 309.856C63.6628 309.856 63.3006 308.769 64.0249 308.769C68.7329 307.682 73.8032 308.407 77.7869 310.581C78.5112 310.943 77.7869 312.03 77.0626 311.668Z" fill="#682F1B"/>
<path d="M74.8895 303.334C69.095 301.16 62.5761 300.436 56.4195 300.436C55.6952 300.436 55.6952 299.349 56.4195 299.349C62.9383 299.349 69.095 300.073 75.2517 302.247C75.976 302.247 75.6138 303.334 74.8895 303.334Z" fill="#682F1B"/>
<path d="M75.2518 297.9C70.9059 295.725 66.56 294.276 62.2141 293.189C61.4898 293.189 61.852 291.74 62.5763 292.102C66.9222 293.189 71.6302 295.001 75.9761 296.812C76.3382 297.175 75.9761 298.262 75.2518 297.9Z" fill="#682F1B"/>
<path d="M75.9757 294.638C76.7 301.16 77.7864 307.32 78.5107 313.842C78.5107 314.204 78.1486 314.567 77.7864 314.567C77.4243 314.567 77.0621 314.204 77.0621 313.842C76.3378 307.32 75.2513 301.16 74.527 294.638C74.527 294.276 74.8892 293.914 75.2513 293.914C75.6135 294.276 75.9757 294.276 75.9757 294.638Z" fill="#682F1B"/>
<path d="M85.7545 308.77C86.4788 312.393 86.4788 316.016 86.1166 319.64C86.1166 320.364 85.0301 320.364 85.0301 319.64C85.3923 316.016 85.3923 312.393 84.668 309.132C84.668 308.407 85.7545 308.045 85.7545 308.77Z" fill="#682F1B"/>
<path d="M144.424 311.306C147.321 312.755 149.856 315.292 151.305 318.19C151.305 318.553 151.305 318.915 150.943 318.915C150.58 318.915 150.218 318.915 150.218 318.553C148.77 315.654 146.597 313.48 144.062 312.031C143.337 312.031 143.699 310.944 144.424 311.306Z" fill="#682F1B"/>
<path d="M182.813 75.7864C180.278 77.5981 178.467 80.1345 177.018 82.6708C177.018 83.0332 176.294 83.0332 176.294 83.0332C175.932 83.0332 175.932 82.6708 175.932 82.3085C177.38 79.4098 179.553 76.8734 182.088 74.6994C182.451 74.3371 182.813 74.6994 182.813 75.0617C183.175 75.0617 182.813 75.4241 182.813 75.7864Z" fill="#682F1B"/>
<path d="M285.666 64.9162C279.147 64.1915 275.887 57.6694 269.731 55.8578C267.92 55.4954 266.471 55.1331 264.661 55.8578C263.936 56.2201 263.212 55.1331 263.936 54.7707C266.834 53.3214 270.093 54.4084 272.99 56.2201C275.887 57.6694 278.06 60.2058 280.596 62.0175C282.044 62.7422 283.855 63.4668 285.666 63.8292C286.39 63.8292 286.39 64.9162 285.666 64.9162Z" fill="#682F1B"/>
<path d="M293.633 41.002C293.633 47.5241 293.633 53.6838 293.633 60.2059C293.633 60.9306 292.546 60.9306 292.546 60.2059C292.546 53.6838 292.546 47.5241 292.546 41.002C292.546 40.2773 293.633 40.2773 293.633 41.002Z" fill="#682F1B"/>
<path d="M309.206 48.2487C304.136 47.8863 298.703 48.611 293.633 50.0604C292.909 50.0604 292.547 48.9734 293.271 48.9734C298.341 47.524 303.773 46.7993 309.206 47.1617C309.93 47.1617 309.93 48.2487 309.206 48.2487Z" fill="#682F1B"/>
<path d="M287.114 44.6254C283.854 44.6254 280.233 44.2631 277.335 46.0748C274.438 47.8864 272.265 50.4228 269.368 51.1475C267.557 51.5098 265.746 51.5098 264.298 50.7851C263.573 50.4228 264.298 49.3358 265.022 49.6981C267.919 51.5098 271.179 49.3358 273.352 47.5241C274.438 46.4371 275.887 45.3501 277.335 44.6254C278.784 43.9007 280.233 43.5384 282.043 43.1761C283.854 42.8137 285.665 42.8137 287.838 43.1761C287.838 43.5384 287.838 44.6254 287.114 44.6254Z" fill="#682F1B"/>
<path d="M169.051 144.63C166.153 149.341 160.359 151.877 154.926 151.515C153.478 151.515 152.391 152.602 152.753 154.051C153.478 156.225 154.202 158.037 156.013 159.849C158.186 162.023 172.672 165.284 175.569 163.472L169.051 144.63Z" fill="black"/>
<path d="M233.152 168.545C224.823 175.792 189.693 201.155 184.985 197.894C178.829 193.909 171.223 186.662 171.223 186.662C166.153 190.285 161.083 193.546 156.375 197.17C155.288 197.894 154.202 198.619 153.116 198.619C152.029 198.619 150.943 197.894 149.856 197.17C144.424 193.184 140.802 185.937 140.802 178.69C140.802 176.879 140.802 174.705 141.889 172.893C142.975 171.081 144.786 169.632 146.235 168.545C153.84 163.11 161.445 158.037 169.413 152.602C167.24 153.689 164.705 151.877 163.98 149.341C163.256 146.805 163.98 144.268 165.429 142.094C167.24 139.196 170.137 136.659 173.396 136.297C176.656 135.934 180.277 138.109 181.002 141.732C187.883 137.022 198.747 130.862 205.628 126.151L233.152 168.545Z" fill="#A95B35"/>
<path d="M174.483 150.066C174.121 147.892 173.396 146.08 172.31 144.268C171.948 143.544 173.034 143.181 173.396 143.544C174.483 145.355 175.207 147.529 175.569 149.703C175.569 150.066 175.569 150.428 175.207 150.428C174.845 150.428 174.483 150.428 174.483 150.066Z" fill="#682F1B"/>
<path d="M174.483 147.529C173.034 147.529 171.223 147.892 170.137 148.979C169.775 148.979 169.413 148.979 169.413 148.616C169.413 148.254 169.413 147.892 169.775 147.892C171.223 146.805 173.034 146.442 174.845 146.442C175.207 146.442 175.569 146.805 175.569 147.167C175.207 147.167 174.845 147.529 174.483 147.529Z" fill="#682F1B"/>
<path opacity="0.4" d="M171.224 186.662L158.548 171.443L163.618 191.734L171.224 186.662Z" fill="#7F4924"/>
<path d="M191.142 155.138C190.056 156.225 189.694 158.037 190.418 158.762C191.142 159.486 192.953 159.486 194.039 158.037C195.126 156.95 195.488 155.138 194.764 154.414C194.039 153.689 192.229 154.051 191.142 155.138Z" fill="black"/>
<path d="M208.164 172.53C207.077 173.617 206.715 175.429 207.439 176.154C208.164 176.878 209.974 176.878 211.061 175.429C212.147 173.98 212.51 172.53 211.785 171.806C211.061 171.081 209.25 171.443 208.164 172.53Z" fill="black"/>
<path d="M206.353 150.428C204.542 151.515 202.731 154.051 200.92 153.327C199.834 152.964 199.472 152.24 198.747 151.153C197.299 148.979 194.764 147.529 192.591 147.167C194.764 145.355 197.661 144.631 200.196 145.355C202.731 146.08 205.266 147.892 206.353 150.428Z" fill="black"/>
<path d="M216.131 161.66C214.682 163.11 211.785 163.834 211.423 166.008C211.423 167.095 212.147 167.82 212.872 168.907C214.32 171.081 215.045 173.617 215.045 176.154C217.218 174.704 219.028 172.168 219.028 169.632C219.028 167.095 217.942 164.197 216.131 162.385V161.66Z" fill="black"/>
<path d="M205.266 164.197C202.369 169.994 198.023 174.704 192.228 177.603C191.866 177.603 191.504 177.603 191.504 177.241C190.78 175.791 189.693 174.342 188.969 172.53C188.607 171.806 189.693 171.443 190.055 171.806C190.78 173.255 191.866 174.704 192.59 176.516C192.228 176.516 192.228 176.516 191.866 176.154C197.298 173.255 201.644 168.545 204.542 163.11C204.542 162.747 205.628 163.472 205.266 164.197Z" fill="#682F1B"/>
<path d="M186.797 175.429C184.262 174.705 183.175 171.806 184.262 169.27C184.262 168.907 184.986 168.907 184.986 168.907C185.348 168.907 185.348 169.27 185.348 169.632C184.986 170.357 184.986 171.444 185.348 172.168C185.71 172.893 186.435 173.618 187.159 173.98C187.883 174.705 187.521 175.792 186.797 175.429Z" fill="#682F1B"/>
<path d="M184.985 187.024C184.985 188.836 183.175 189.923 181.364 189.561C181.002 189.561 180.639 189.198 180.277 188.836C179.915 188.473 179.915 188.111 180.277 188.111C180.639 187.749 181.002 187.749 181.002 188.111C181.002 188.111 181.002 188.111 181.364 188.111H181.726H182.088H182.45C182.45 188.111 182.45 188.111 182.812 188.111C182.812 188.111 182.812 188.111 183.175 187.749C183.175 187.749 183.175 187.749 183.175 187.386C183.175 187.024 183.537 186.662 183.899 186.662C184.985 186.299 184.985 186.662 184.985 187.024Z" fill="#682F1B"/>
<path d="M182.451 134.123C179.916 134.123 176.656 134.485 174.845 132.674C172.673 131.224 172.673 127.238 175.208 126.151C174.121 124.34 174.845 121.441 176.294 119.992C178.105 118.542 180.64 118.18 182.451 119.267C181.726 116.731 184.262 114.194 186.797 113.832C189.332 113.47 192.229 114.919 194.402 116.006C197.661 110.571 204.542 107.672 210.337 109.122C212.872 105.498 219.029 105.861 222.288 108.759C225.548 111.658 226.634 116.368 226.996 120.716C232.791 122.166 236.412 129.412 234.239 134.848C238.223 135.572 241.482 138.833 242.207 142.819C242.931 146.805 241.482 151.153 238.223 153.689C244.742 156.588 245.828 167.096 240.034 171.444C239.672 170.357 241.12 169.632 241.845 170.357C242.569 171.444 242.931 172.531 242.569 173.618C242.207 176.879 240.034 179.415 237.137 180.502C234.239 181.589 230.98 180.864 228.807 178.328C227.358 180.14 224.461 178.69 223.012 177.241C221.564 175.792 219.753 174.342 219.029 172.531C218.304 170.719 218.667 168.183 220.477 167.096C216.131 165.646 213.959 160.211 215.407 156.225C210.699 155.863 207.802 149.703 209.975 145.355C206.353 143.544 203.094 140.283 201.645 136.297C202.732 138.471 201.283 141.732 199.11 142.819C196.575 143.544 193.678 142.094 193.316 139.558C194.04 141.732 192.953 144.268 191.143 145.355C189.332 146.805 186.435 146.442 184.986 144.993C183.175 146.805 180.64 146.805 178.829 146.08C176.656 144.993 175.57 142.819 176.294 140.283C176.656 138.109 178.467 136.297 179.554 134.485C180.278 132.311 179.554 129.412 177.381 129.05L182.451 134.123Z" fill="black"/>
<path d="M125.591 198.981C129.575 199.706 133.559 200.068 137.543 200.793C138.629 201.155 139.716 201.155 140.802 201.155C141.164 201.155 141.164 201.517 141.164 201.517C141.164 201.88 141.164 201.88 140.802 202.242C138.991 204.778 136.818 206.952 135.008 209.489C135.008 209.126 134.645 208.764 134.645 208.402C138.629 208.764 142.613 210.213 146.597 212.025C148.407 212.75 150.218 213.474 152.391 213.837C154.202 214.199 156.375 214.199 157.824 213.837C159.634 213.474 161.445 212.387 162.894 210.938C163.256 210.576 163.618 210.576 163.618 210.938C163.98 211.3 163.98 211.663 163.618 211.663C161.083 214.924 156.737 215.648 153.115 215.286C151.305 214.924 149.132 214.561 147.321 213.837C145.51 213.112 143.337 212.387 141.526 211.663C139.353 210.938 137.181 210.213 134.645 210.213C133.921 210.213 133.921 209.489 134.283 209.126C136.094 206.59 138.267 204.416 140.078 201.88C140.078 202.242 140.44 202.604 140.44 202.967C136.456 202.242 132.472 201.88 128.489 201.155C127.402 200.793 126.316 200.793 125.229 200.793C124.867 200.793 124.867 200.43 124.867 200.068C124.867 199.343 125.591 198.981 125.591 198.981Z" fill="#1D4A5E"/>
<path d="M123.056 193.908C124.505 190.647 125.591 187.749 127.04 184.488C127.402 183.763 127.764 182.676 128.126 181.951C128.126 181.589 128.851 181.589 128.851 181.589C129.213 181.589 129.213 181.951 129.213 182.314C127.764 185.575 126.678 188.473 125.229 191.734C124.867 192.459 124.505 193.546 124.143 194.271C124.143 194.633 123.418 194.633 123.418 194.633C123.056 194.633 122.694 194.271 123.056 193.908Z" fill="#1D4A5E"/>
<path d="M54.2467 259.491C54.2467 259.491 54.6088 259.129 54.6088 259.491L54.971 259.129C54.971 259.129 54.971 259.129 54.971 258.767C54.971 258.767 54.971 258.404 55.3332 258.404V258.042C55.3332 257.68 55.3332 257.68 55.3332 257.68C55.3332 257.68 55.3332 257.68 55.3332 257.317C55.3332 257.317 55.3332 257.317 55.3332 256.955V256.593L54.971 256.23C54.971 256.23 54.971 256.23 54.6088 256.23C54.6088 256.23 54.2467 256.23 54.2467 255.868H53.8845C53.5224 255.868 53.1602 255.868 53.1602 255.868C53.1602 255.868 52.7981 256.23 52.7981 255.868C52.7981 255.868 52.7981 256.23 52.4359 256.23V256.593C52.4359 256.593 52.4359 256.593 52.4359 256.955V257.317C52.4359 257.317 52.4359 257.317 52.4359 257.68L52.7981 258.042L53.1602 258.404C53.1602 258.404 53.1602 258.404 53.5224 258.404C53.5224 258.404 53.5224 258.404 53.8845 258.404C54.2467 258.404 54.2467 258.404 54.2467 258.404H54.6088C54.971 258.404 55.3332 258.767 55.6953 259.129C55.6953 259.491 55.3331 259.854 54.971 260.216C51.7116 260.578 49.5386 256.593 51.3494 254.056C52.4359 252.969 53.8845 252.245 55.3332 252.607C56.7818 252.969 58.2304 254.056 58.2304 255.868C58.5926 257.68 57.5061 259.491 55.6953 260.216C55.3332 260.216 54.971 260.216 54.6088 259.854C53.8845 259.854 53.8845 259.491 54.2467 259.491Z" fill="#1D4A5E"/>
<path d="M85.0299 232.316C85.0299 232.316 85.392 231.954 85.392 232.316L85.7542 231.954C85.7542 231.954 85.7542 231.954 85.7542 231.591C85.7542 231.591 85.7542 231.229 86.1164 231.229V230.867C86.1164 230.504 86.1164 230.504 86.1164 230.504C86.1164 230.504 86.1164 230.504 86.1164 230.142C86.1164 230.142 86.1164 230.142 86.1164 229.78V229.417L85.7542 229.055C85.7542 229.055 85.7542 229.055 85.392 229.055C85.392 229.055 85.0299 229.055 85.0299 228.693H84.6677C84.3056 228.693 83.9434 228.693 83.9434 228.693C83.9434 228.693 83.5813 229.055 83.5813 228.693C83.5813 228.693 83.5813 229.055 83.2191 229.055V229.417C83.2191 229.417 83.2191 229.417 83.2191 229.78V230.142C83.2191 230.142 83.2191 230.142 83.2191 230.504L83.5813 230.867L83.9434 231.229C83.9434 231.229 83.9434 231.229 84.3056 231.229C84.3056 231.229 84.3056 231.229 84.6677 231.229C85.0299 231.229 85.0299 231.229 85.0299 231.229H85.392C85.7542 231.229 86.1164 231.591 86.4785 231.954C86.4785 232.316 86.1164 232.678 85.7542 233.041C82.4948 233.403 80.3218 229.417 82.1326 226.881C83.2191 225.794 84.6677 225.069 86.1164 225.432C87.565 225.794 89.0136 226.881 89.0136 228.693C89.3758 230.504 88.2893 232.316 86.4785 233.041C86.1164 233.041 85.7542 233.041 85.392 232.678C84.3056 233.041 84.6677 232.678 85.0299 232.316Z" fill="#1D4A5E"/>
<path d="M112.917 211.3C112.917 211.3 113.279 210.938 113.279 211.3L113.641 210.938C113.641 210.938 113.641 210.938 113.641 210.576C113.641 210.576 113.641 210.213 114.003 210.213V209.851C114.003 209.489 114.003 209.489 114.003 209.489C114.003 209.489 114.003 209.489 114.003 209.126C114.003 209.126 114.003 209.126 114.003 208.764V208.402L113.641 208.039C113.641 208.039 113.641 208.039 113.279 208.039C113.279 208.039 112.917 208.039 112.917 207.677H112.554C112.192 207.677 111.83 207.677 111.83 207.677C111.83 207.677 111.468 208.039 111.468 207.677C111.468 207.677 111.468 208.039 111.106 208.039V208.402C111.106 208.402 111.106 208.402 111.106 208.764V209.126C111.106 209.126 111.106 209.126 111.106 209.489L111.468 209.851L111.83 210.213C111.83 210.213 111.83 210.213 112.192 210.213C112.192 210.213 112.192 210.213 112.554 210.213C112.917 210.213 112.917 210.213 112.917 210.213H113.279C113.641 210.213 114.003 210.576 114.365 210.938C114.365 211.3 114.003 211.663 113.641 212.025C110.382 212.387 108.209 208.402 110.019 205.865C111.106 204.778 112.554 204.054 114.003 204.416C115.452 204.778 116.9 205.865 116.9 207.677C117.262 209.489 116.176 211.3 114.365 212.025C114.003 212.025 113.641 212.025 113.279 211.663C112.192 212.025 112.554 211.3 112.917 211.3Z" fill="#1D4A5E"/>
<path d="M33.2418 274.71C33.2418 274.71 33.604 274.347 33.604 274.71L33.9661 274.347C33.9661 274.347 33.9661 274.347 33.9661 273.985C33.9661 273.985 33.9661 273.623 34.3283 273.623V273.26C34.3283 272.898 34.3283 272.898 34.3283 272.898C34.3283 272.898 34.3283 272.898 34.3283 272.536C34.3283 272.536 34.3283 272.536 34.3283 272.173V271.811L33.9661 271.449C33.9661 271.449 33.9661 271.449 33.604 271.449C33.604 271.449 33.2418 271.449 33.2418 271.086H32.8796C32.5175 271.086 32.1553 271.086 32.1553 271.086C32.1553 271.086 31.7932 271.449 31.7932 271.086C31.7932 271.086 31.7931 271.449 31.431 271.449V271.811C31.431 271.811 31.431 271.811 31.431 272.173V272.536C31.431 272.536 31.431 272.536 31.431 272.898L31.7932 273.26L32.1553 273.623C32.1553 273.623 32.1553 273.623 32.5175 273.623C32.5175 273.623 32.5175 273.623 32.8796 273.623C33.2418 273.623 33.2418 273.623 33.2418 273.623H33.604C33.9661 273.623 34.3283 273.985 34.6904 274.347C34.6904 274.71 34.3283 275.072 33.9661 275.434C30.7067 275.797 28.5337 271.811 30.3445 269.275C31.431 268.188 32.8796 267.463 34.3283 267.825C35.7769 268.188 37.2255 269.275 37.2255 271.086C37.5877 272.898 36.5012 274.71 34.6904 275.434C34.3283 275.434 33.9661 275.434 33.604 275.072C32.5175 275.434 32.8796 275.072 33.2418 274.71Z" fill="#1D4A5E"/>
<path d="M251.38 136.51C252.526 139.939 250.998 145.273 254.82 146.035C258.26 146.797 262.464 146.035 265.139 143.749C264.375 142.987 262.846 143.749 262.846 144.892C262.846 146.035 263.611 146.797 264.757 147.559C268.579 149.845 274.313 149.464 277.752 146.797C282.339 145.273 286.543 142.606 289.983 139.177C289.219 138.796 287.69 139.177 287.308 139.939C290.748 141.082 294.952 139.177 296.863 135.748C298.774 132.319 297.628 128.127 294.57 125.841C296.863 126.603 299.156 123.936 299.539 121.65C300.685 116.316 295.717 110.601 290.366 110.982C288.837 110.982 286.926 112.506 288.072 113.649C288.837 114.411 289.983 113.649 290.748 112.887C293.041 110.22 292.659 106.028 290.366 102.98C288.072 99.9321 284.632 98.7891 281.192 97.646C278.135 96.884 275.077 96.122 272.401 96.884C269.344 97.646 266.668 99.9321 266.286 102.98C266.286 104.123 267.05 105.647 267.815 104.885C266.286 100.313 260.553 98.0271 256.731 100.694C252.909 102.98 251.762 109.077 254.82 112.506C251.762 110.601 247.94 112.887 246.793 115.935C245.647 119.364 246.793 122.793 249.086 125.079C246.411 125.079 244.882 128.508 246.029 131.176C246.411 133.462 249.086 134.986 251.38 136.51Z" fill="#C23F37"/>
<path d="M328.587 226.43C327.058 227.573 325.147 227.954 323.236 228.335C316.738 229.097 310.241 230.24 303.743 231.002L314.445 222.239L297.245 202.045C297.245 202.045 268.962 180.327 253.673 184.137C244.5 186.423 238.002 184.518 234.562 182.613C234.18 178.803 232.269 174.992 231.505 170.801C230.74 164.324 233.416 157.847 238.002 152.893C242.207 147.94 247.94 144.511 253.673 140.701C255.966 139.177 258.642 138.034 260.935 139.558L261.317 139.177C265.139 134.605 271.255 132.7 277.37 133.462C283.103 134.224 288.454 137.653 292.277 142.225C293.423 143.749 294.57 145.654 296.481 146.797C299.921 149.464 305.272 149.845 308.33 152.893C313.298 157.847 311.769 166.229 314.827 172.325C317.503 177.66 324 180.327 325.911 186.042C328.205 192.9 323.236 200.14 325.147 207.379C325.911 210.808 328.587 213.475 330.116 216.904C330.88 219.571 331.262 224.144 328.587 226.43Z" fill="#C23F37"/>
<path d="M410.381 242.813C423.376 264.912 436.754 281.677 444.78 306.062C421.083 327.018 377.129 343.021 345.405 340.354C350.374 323.208 342.347 303.776 330.116 290.822C349.609 274.057 381.715 255.768 405.03 244.338C405.795 243.957 406.941 243.576 407.706 243.957C408.47 244.338 407.706 245.862 406.941 245.481L410.381 242.813Z" fill="#F6A472"/>
<path d="M328.587 196.71C325.529 191.757 324.001 186.042 321.325 180.708C313.299 164.705 296.863 154.417 281.193 145.273C266.668 136.891 252.144 128.127 238.002 119.745C230.358 115.173 222.332 110.6 213.541 108.695C210.101 107.933 206.661 107.552 203.221 106.79C199.017 106.028 194.812 104.504 190.226 102.98C183.346 99.932 176.084 97.2649 168.822 94.5977C166.528 93.8357 163.471 90.0255 166.146 88.8825C166.528 88.5015 167.293 88.5015 168.057 88.5015C223.861 91.5496 279.664 109.076 323.618 142.987C332.791 149.845 341.2 157.466 349.609 165.467C365.662 179.946 382.479 195.186 391.27 214.999C379.039 215.38 331.645 201.664 328.587 196.71Z" fill="#F6A472"/>
<path d="M354.196 306.443C380.951 311.016 413.057 299.585 436.754 287.011C438.283 286.249 483.766 351.403 489.882 460.374C490.264 466.852 491.028 472.948 492.557 479.044C494.468 487.426 498.673 495.047 502.113 502.667C514.343 527.814 529.632 592.206 529.632 592.206L504.024 602.113C504.024 602.113 470.007 551.056 459.687 522.48C454.336 508.001 452.425 492.761 445.927 478.663C440.576 467.614 439.047 458.85 431.785 448.944C419.554 432.56 416.497 413.509 407.706 394.839C403.501 420.748 380.186 446.658 369.484 470.662C366.045 478.282 362.605 485.902 358.018 492.38C353.814 498.095 351.52 505.334 347.316 511.049C336.614 525.147 333.939 537.721 326.677 553.723C321.326 565.535 311.77 581.919 304.89 592.968C303.744 594.492 283.869 588.015 278.518 585.348C282.34 570.869 285.78 556.391 289.602 541.531C292.277 530.1 295.335 518.67 300.304 508.001C306.037 495.809 314.828 484.759 317.886 471.805C319.414 465.708 319.414 459.612 319.797 453.516C322.472 420.748 328.588 383.79 340.436 353.308L354.196 306.443Z" fill="#C23F37"/>
<path d="M296.099 239.765C302.214 250.053 307.565 260.721 311.77 272.152C312.916 275.2 322.471 276.343 322.471 279.391C322.471 282.439 315.974 295.775 314.827 298.442C309.476 311.396 299.539 315.587 292.659 328.161C305.654 329.685 319.032 329.685 332.027 328.542C336.231 328.161 340.818 327.399 343.493 324.351C346.551 320.541 345.787 315.587 346.551 311.015C348.08 302.633 356.489 295.775 364.897 295.394C366.044 295.394 366.426 296.537 365.662 297.299C362.604 301.109 358.4 304.157 354.195 306.443C357.635 302.633 362.222 299.585 367.191 298.061C368.337 297.68 369.102 298.823 368.337 299.585C364.897 304.538 360.311 308.348 354.96 311.015C358.782 307.586 363.368 304.538 368.337 302.633C369.102 302.252 369.866 303.014 369.866 303.776C368.719 307.967 361.075 313.682 356.871 314.825C358.782 312.92 365.662 309.872 368.337 310.634C369.484 311.015 369.484 312.158 368.337 312.539C362.986 314.825 358.4 319.779 357.635 325.875C357.253 328.923 357.635 331.971 356.489 334.638C354.577 338.449 350.373 339.973 346.169 341.116C324 347.212 301.068 351.403 278.135 354.07C274.313 354.451 269.726 354.832 266.286 352.927C259.788 349.117 259.788 339.592 261.699 331.971C265.522 315.587 296.099 239.765 296.099 239.765Z" fill="#F6A472"/>
<path d="M304.507 225.287C299.921 231.002 294.57 239.384 294.188 242.432C301.067 253.863 304.125 264.912 310.623 276.724C316.738 288.154 324.765 301.109 337.76 301.49C349.609 301.871 358.399 291.584 366.426 282.82C380.186 267.961 395.092 257.673 413.82 249.291C411.909 226.43 396.621 215.761 382.097 205.093C367.573 194.424 343.493 186.804 325.529 189.09C323.236 205.855 317.12 209.665 308.329 217.666L304.507 225.287Z" fill="#EC8117"/>
<path d="M239.149 174.611C246.794 188.709 272.402 213.094 276.989 214.237C281.575 215.38 292.659 208.141 295.335 203.949C295.335 204.33 306.037 221.857 305.655 221.857L302.215 228.716C303.361 232.907 306.037 247.766 308.712 251.196C312.534 256.149 316.739 261.864 323.236 263.007C326.676 263.769 330.116 263.007 333.174 261.864C344.64 257.292 349.609 243.194 347.698 231.002C345.405 218.809 337.378 208.903 328.587 200.52C319.797 192.138 309.477 184.899 301.068 175.754C307.183 175.373 309.859 166.61 306.037 162.419C302.215 157.846 294.188 158.608 290.366 163.181C283.104 158.608 275.842 153.274 268.962 147.94L239.149 174.611Z" fill="#F6A472"/>
<path d="M365.28 309.873C360.694 310.254 356.871 313.302 355.343 317.493C354.96 318.255 356.107 318.636 356.489 317.874C357.636 314.064 361.076 311.397 365.28 311.016C366.045 311.016 366.045 309.873 365.28 309.873Z" fill="#8D532B"/>
<path d="M366.044 309.491C367.955 308.348 369.484 306.443 370.631 304.157C371.013 303.014 371.395 301.871 370.249 301.109C369.484 300.728 368.338 300.728 367.191 301.109C362.604 302.252 358.782 304.919 355.725 308.348C354.196 310.253 352.667 312.54 351.52 314.826C351.138 315.588 352.285 315.969 352.667 315.207C354.196 311.396 356.871 308.348 359.929 306.062C361.458 304.919 363.369 303.776 365.28 303.014C366.044 302.633 367.191 302.252 367.955 302.252C368.338 302.252 368.72 302.252 369.102 302.252C369.484 302.252 369.484 303.014 369.484 303.395C368.72 305.681 367.573 307.586 365.28 308.729C364.516 309.11 365.28 309.872 366.044 309.491Z" fill="#8D532B"/>
<path d="M365.662 302.252C366.809 301.109 368.338 299.585 367.191 297.68C366.044 296.156 364.133 296.918 362.604 297.68C359.547 299.204 356.489 301.109 354.578 303.776C353.431 305.3 352.285 306.824 351.52 308.729C351.138 309.491 352.285 309.872 352.667 309.491C353.814 306.824 355.725 304.538 358.018 302.633C359.165 301.49 360.311 300.728 361.458 299.966C362.222 299.585 362.604 299.204 363.369 298.823C364.133 298.442 364.898 298.061 365.28 298.061C366.044 298.061 366.427 298.442 366.427 299.204C366.427 299.966 365.662 300.728 364.898 301.49C364.133 301.871 364.898 302.633 365.662 302.252Z" fill="#8D532B"/>
<path d="M361.839 298.061C362.221 297.299 362.221 296.537 362.604 295.775C362.604 295.775 362.604 295.394 362.604 295.013C360.693 293.489 358.782 294.632 356.87 295.775C354.959 296.918 353.431 298.061 352.284 299.585C349.608 302.633 347.697 306.062 346.169 309.873C345.404 312.159 345.022 314.445 344.64 316.731C344.64 317.493 345.786 317.874 345.786 317.112C346.933 309.873 349.991 302.252 356.106 298.061C356.87 297.299 358.017 296.918 358.782 296.537C359.546 296.156 361.075 295.775 361.839 296.156C361.839 295.775 361.839 295.775 361.839 295.394C361.457 296.156 361.457 296.918 361.075 297.68C360.693 298.442 361.839 298.823 361.839 298.061Z" fill="#8D532B"/>
<path d="M341.583 326.637C342.729 328.542 344.64 330.447 346.552 331.59C347.316 331.971 347.698 330.828 347.316 330.447C345.405 329.304 343.876 327.78 342.729 325.875C342.347 325.494 341.201 325.875 341.583 326.637Z" fill="#8D532B"/>
<path d="M291.513 328.161C289.984 330.447 288.837 332.734 287.308 335.02C286.926 335.782 288.073 336.163 288.455 335.782C289.984 333.496 291.131 331.209 292.659 328.923C293.042 328.161 291.895 327.399 291.513 328.161Z" fill="#8D532B"/>
<path d="M383.244 280.534C384.773 285.487 386.302 290.06 387.83 295.013C388.213 295.775 389.359 295.394 388.977 294.632C387.448 289.679 385.919 285.106 384.391 280.153C384.008 279.391 382.862 279.772 383.244 280.534Z" fill="#8D532B"/>
<path d="M298.392 171.182C299.538 168.896 300.303 166.61 301.449 164.324C301.449 163.943 301.449 163.562 301.067 163.562C300.685 163.562 300.303 163.562 300.303 163.943C299.156 166.229 298.392 168.515 297.245 170.801C297.245 171.182 297.245 171.563 297.627 171.563C297.627 171.563 298.392 171.563 298.392 171.182Z" fill="#8D532B"/>
<path d="M299.539 169.277C299.921 169.277 299.921 169.277 299.921 169.277C299.921 169.277 299.921 169.277 300.303 169.277C300.685 169.277 300.685 169.658 301.067 169.658C301.067 169.658 301.45 169.658 301.45 170.039C301.832 170.039 301.832 170.42 302.214 170.801C302.596 171.182 302.979 171.182 302.979 170.801C303.361 170.42 303.361 170.039 302.979 170.039C302.214 169.277 301.067 168.515 299.921 168.134C299.539 168.134 299.156 168.134 299.156 168.515C298.774 168.896 299.156 169.277 299.539 169.277Z" fill="#8D532B"/>
<path opacity="0.57" d="M295.717 203.95L306.419 190.995L300.303 211.57L295.717 203.95Z" fill="#8D532B"/>
<path d="M280.81 200.901C284.25 200.901 287.308 198.234 288.072 194.805C288.072 194.424 288.072 194.043 287.69 194.043C287.308 194.043 286.926 194.043 286.926 194.424C286.543 197.091 283.868 199.377 280.81 199.377C279.664 199.758 279.664 200.901 280.81 200.901Z" fill="#8D532B"/>
<path d="M265.904 186.042C269.344 190.233 272.784 194.805 276.224 198.996C276.606 199.377 276.989 198.996 277.371 198.615C278.135 197.091 278.9 195.186 279.664 193.662C280.046 192.9 278.9 192.519 278.517 192.9C277.371 194.424 276.606 196.329 276.224 197.853C276.606 197.853 276.989 197.853 277.371 197.472C273.931 193.281 270.491 188.709 267.051 184.518C266.287 184.518 265.522 185.28 265.904 186.042Z" fill="#8D532B"/>
<path d="M276.988 181.851C278.517 182.613 280.428 182.613 281.957 181.851C283.485 181.089 284.632 179.565 284.632 177.659C284.632 176.516 284.632 175.754 284.25 174.992C284.25 174.611 283.485 174.611 283.485 174.611C283.103 174.611 283.103 174.992 283.103 175.373C283.868 176.897 283.485 178.803 282.339 179.946C281.192 181.089 279.281 181.47 277.752 180.708C277.37 180.708 276.988 180.708 276.988 181.089C276.606 181.47 276.606 181.851 276.988 181.851Z" fill="black"/>
<path d="M259.789 196.711C261.317 197.473 263.229 197.473 264.757 196.711C266.286 195.948 267.433 194.424 267.433 192.519C267.433 191.376 267.433 190.614 267.051 189.852C267.051 189.471 266.286 189.471 266.286 189.471C265.904 189.471 265.904 189.852 265.904 190.233C266.668 191.757 266.286 193.662 265.14 194.805C263.993 195.948 262.082 196.329 260.553 195.567C260.171 195.567 259.789 195.567 259.789 195.948C259.406 196.329 259.406 196.711 259.789 196.711Z" fill="black"/>
<path d="M238.767 178.04C240.296 182.232 250.233 181.088 253.673 177.659C255.202 176.135 255.584 174.23 256.731 172.706C257.495 171.182 259.406 169.277 261.318 169.277C263.229 169.277 264.375 170.42 266.286 170.801C269.726 171.944 273.548 171.182 276.224 169.277C278.135 167.753 279.282 165.467 281.575 164.705C283.486 163.943 285.397 164.324 286.926 163.943C288.837 163.562 290.366 162.038 291.895 160.895C293.424 159.752 295.717 158.99 297.246 159.752C292.659 156.703 288.073 153.655 283.486 150.607C278.899 147.559 274.313 144.511 268.58 144.13C263.611 143.749 259.024 145.654 255.202 148.702C251.38 151.369 248.322 154.798 245.265 158.227C242.589 160.895 239.914 163.562 238.767 166.991C237.62 170.42 234.945 175.754 237.62 178.04H238.767Z" fill="#C23F37"/>
<path d="M259.406 181.089C261.317 182.994 260.935 186.042 258.642 187.185C256.731 188.328 255.202 189.471 253.673 190.995C254.437 187.185 255.966 183.375 258.259 180.327L259.406 181.089Z" fill="#C23F37"/>
<path d="M272.019 174.23C272.402 174.23 272.402 174.23 272.019 174.23C273.93 176.135 276.988 175.373 278.135 173.087C279.281 171.182 280.428 169.658 281.575 168.134C277.753 168.896 274.313 170.801 271.255 173.468L272.019 174.23Z" fill="#C23F37"/>
<path d="M348.844 314.826C351.519 316.35 354.577 317.493 357.635 318.636C358.399 319.017 358.782 317.874 358.017 317.493C354.959 316.35 352.284 315.207 349.608 313.683C348.844 313.302 348.08 314.445 348.844 314.826Z" fill="#8D532B"/>
<path d="M334.32 241.289C336.614 243.956 338.525 246.623 340.818 249.29C341.2 249.671 341.2 249.671 341.583 249.671C341.965 249.671 341.965 248.909 341.965 248.909C339.671 246.242 337.76 243.194 335.467 240.527C334.703 239.765 333.556 240.527 334.32 241.289Z" fill="#8D532B"/>
<path d="M169.969 93.8356C170.351 92.6926 171.498 92.3116 172.644 92.3116C174.173 92.3116 175.702 93.0736 177.231 93.4546C180.288 94.2167 183.728 94.5977 186.786 94.5977C187.551 94.5977 187.551 93.4546 186.786 93.4546C182.964 93.8356 179.524 93.0736 176.084 91.9306C174.937 91.1685 173.026 90.7875 171.498 91.1685C170.351 91.5495 169.204 92.3116 168.822 93.8356C168.44 94.2167 169.586 94.5977 169.969 93.8356Z" fill="#8D532B"/>
<path d="M184.875 91.9306C186.786 94.2167 187.933 96.8838 187.933 99.5509C187.933 99.932 188.315 100.313 188.697 100.313C189.079 100.313 189.462 99.932 189.462 99.5509C189.079 96.5028 187.933 93.4547 186.022 91.1686C185.639 90.7876 185.257 90.7876 185.257 91.1686C184.875 91.5496 184.875 91.5496 184.875 91.9306Z" fill="#8D532B"/>
<path d="M249.469 144.892C244.118 146.797 239.531 150.226 236.474 154.799C234.945 157.085 233.416 159.752 232.652 162.419C231.887 165.086 231.123 167.753 231.123 170.801C231.123 173.849 231.123 176.898 231.123 179.946C231.123 182.613 230.74 185.661 229.212 188.328C227.683 191.376 224.625 192.9 222.714 195.186C220.803 197.091 219.274 199.378 218.127 202.045C215.834 207.379 215.452 213.094 216.981 218.428C217.363 219.19 217.363 219.571 217.745 220.333C218.127 221.095 219.274 220.714 218.892 219.952C216.981 214.999 216.981 208.903 218.51 203.95C219.274 201.283 220.803 198.996 222.714 196.71C224.625 194.424 227.683 192.9 229.594 190.233C233.416 185.661 232.652 179.184 232.652 173.849C232.652 170.801 232.652 168.134 233.416 165.467C234.18 162.8 234.945 160.133 236.474 157.847C239.149 153.274 243.354 149.083 248.322 146.797C249.087 146.416 249.469 146.416 250.233 146.035C250.233 146.035 250.233 144.892 249.469 144.892Z" fill="#C23F37"/>
<path d="M373.689 314.445C381.715 312.539 390.124 311.015 398.15 309.491C406.177 307.967 414.203 305.681 421.848 302.633C426.052 300.728 430.256 298.823 434.079 296.156C434.843 295.775 434.079 294.632 433.314 295.013C426.434 299.585 418.79 302.633 410.764 304.919C402.737 307.205 394.711 308.729 386.684 310.253C382.097 311.015 377.511 312.158 372.924 313.302C372.542 313.302 372.924 314.826 373.689 314.445Z" fill="#56462A"/>
<path d="M377.511 308.348C378.275 309.11 378.657 309.873 379.422 311.016L379.804 311.397H380.186C380.568 311.397 380.568 311.016 380.568 310.635C379.804 309.873 379.422 309.11 378.657 307.967L378.275 307.586H377.893C377.511 307.586 377.511 307.967 377.511 308.348Z" fill="#56462A"/>
<path d="M382.862 308.729C383.244 309.11 383.626 309.491 384.008 309.872H384.391H384.773V309.491V309.11C384.391 308.729 384.008 308.348 383.626 307.967H383.244H382.862V308.348C382.48 308.348 382.48 308.348 382.862 308.729Z" fill="#56462A"/>
<path d="M364.515 321.303C360.311 339.211 356.107 356.737 351.902 374.645C347.698 392.553 343.876 410.461 340.054 428.368C338.142 436.751 336.614 445.514 334.703 453.897C332.791 462.279 330.498 470.28 327.058 477.901C323.618 485.521 318.267 492.379 314.063 500C310.241 506.858 306.801 514.097 304.508 521.718C299.157 536.958 296.863 552.961 294.57 568.964C294.188 570.869 294.188 572.774 293.806 575.06C293.806 575.822 294.952 576.203 294.952 575.441C297.246 559.438 299.539 543.436 304.125 527.814C306.419 520.194 309.476 512.573 312.916 505.334C316.738 497.714 322.089 491.236 325.912 483.616C333.938 468.756 336.614 451.611 340.054 435.608C343.876 417.7 347.698 399.792 351.902 381.884C356.107 363.977 359.929 346.069 364.515 328.542C364.897 326.256 365.662 323.97 366.044 322.065C366.044 320.922 364.897 320.541 364.515 321.303Z" fill="#56462A"/>
<path d="M318.65 476.758C322.854 479.425 327.058 482.092 331.263 484.759C332.027 485.14 332.409 483.997 332.027 483.616C327.823 480.949 323.618 478.282 319.414 475.615C318.267 475.234 317.885 476.377 318.65 476.758Z" fill="#56462A"/>
<path d="M324.765 475.615C328.205 477.139 331.263 478.663 334.703 480.187C335.467 480.568 336.232 479.425 335.467 479.044C332.027 477.52 328.97 475.996 325.53 474.472C324.765 474.472 324.383 475.234 324.765 475.615Z" fill="#56462A"/>
<path d="M336.996 267.579C343.494 263.769 348.08 257.673 349.991 250.433C350.374 248.528 350.756 246.242 350.756 244.337C350.756 243.575 349.609 243.575 349.609 244.337C349.609 251.195 346.169 258.054 341.2 263.007C339.672 264.531 338.143 265.674 336.232 266.436C335.467 267.198 336.232 268.341 336.996 267.579Z" fill="#AD5C12"/>
<path d="M411.909 246.623C410.763 245.861 409.234 245.861 408.087 246.242C406.941 246.623 405.412 247.004 404.265 247.767C401.59 248.91 399.296 250.053 396.621 251.196C391.652 253.482 387.065 256.149 382.479 259.197C377.892 262.245 373.688 265.674 369.484 269.484C365.279 273.295 361.457 277.105 358.017 281.296C354.577 285.487 351.137 290.059 348.462 294.632C348.08 295.394 347.697 295.775 347.315 296.537C346.933 297.299 348.08 297.68 348.462 297.299C353.813 288.154 360.693 279.772 368.337 272.152C375.981 264.912 384.772 258.435 394.328 253.863C397.003 252.339 399.678 251.196 402.354 250.053C403.883 249.291 405.029 248.91 406.558 248.529C407.705 248.148 409.616 247.386 410.763 248.148C411.909 248.148 412.674 247.004 411.909 246.623Z" fill="#AD5C12"/>
<path d="M352.284 266.817C356.871 259.959 362.222 253.482 368.337 247.766C369.866 246.242 371.777 244.718 373.688 243.194C374.453 242.813 373.306 241.67 372.924 242.432C366.426 247.766 360.693 253.863 355.342 260.721C353.813 262.626 352.666 264.531 351.137 266.436C350.755 266.817 351.902 267.579 352.284 266.817Z" fill="#AD5C12"/>
<path d="M358.4 264.531C364.133 259.197 369.866 254.244 375.599 248.909C376.364 248.528 375.217 247.385 374.835 248.147C369.102 253.482 363.369 258.435 357.635 263.769C357.253 264.15 358.018 265.293 358.4 264.531Z" fill="#AD5C12"/>
<path d="M242.207 160.513C241.825 163.181 241.825 165.848 242.972 168.515C244.118 170.42 246.411 171.944 248.705 171.563C250.998 171.182 252.909 169.658 254.438 167.753C255.585 166.229 256.731 163.943 257.113 162.038C257.496 159.751 257.496 157.084 256.349 155.179C256.349 154.798 255.585 154.417 255.202 154.798C253.674 156.322 252.909 158.608 252.909 160.513C253.291 162.8 254.438 164.705 256.349 165.848C258.26 166.991 260.553 166.991 262.464 166.229C264.758 165.086 266.669 163.181 267.433 161.276C268.58 158.989 268.962 155.941 268.58 153.274C268.58 152.512 267.433 152.512 267.433 153.274C266.669 156.322 268.198 159.751 270.873 161.657C273.931 163.943 277.753 164.324 281.193 163.943C281.957 163.943 281.957 162.8 281.193 162.8C278.135 163.181 274.695 162.8 272.02 160.895C269.727 159.37 268.198 156.322 268.962 153.655C268.58 153.655 268.198 153.655 267.815 153.655C268.58 157.846 267.051 162.419 263.611 164.705C262.082 165.848 260.171 165.848 258.26 165.467C256.731 164.705 255.202 163.562 254.82 161.657C254.438 159.751 254.82 157.465 256.349 155.941C255.967 155.941 255.585 155.941 255.202 155.56C256.731 158.989 255.967 163.181 254.056 166.229C252.909 167.753 251.762 169.277 249.851 170.039C248.705 170.42 247.94 170.801 246.794 170.42C246.029 170.039 245.265 169.658 244.5 168.896C242.972 166.61 243.354 163.562 243.736 161.276C243.354 159.37 242.207 159.751 242.207 160.513Z" fill="#563017"/>
</svg>
