<svg width="30" height="30" viewBox="0 0 30 30" fill="none" xmlns="http://www.w3.org/2000/svg">
<path d="M22.5881 10.6373L11.8881 5.2873C4.70057 1.6873 1.75057 4.6373 5.35057 11.8248L6.43807 13.9998C6.75057 14.6373 6.75057 15.3748 6.43807 16.0123L5.35057 18.1748C1.75057 25.3623 4.68807 28.3123 11.8881 24.7123L22.5881 19.3623C27.3881 16.9623 27.3881 13.0373 22.5881 10.6373ZM18.5506 15.9373H11.8006C11.2881 15.9373 10.8631 15.5123 10.8631 14.9998C10.8631 14.4873 11.2881 14.0623 11.8006 14.0623H18.5506C19.0631 14.0623 19.4881 14.4873 19.4881 14.9998C19.4881 15.5123 19.0631 15.9373 18.5506 15.9373Z" fill="#8000FF"/>
</svg>
